<svg xmlns="http://www.w3.org/2000/svg" viewBox="679 52 776 721" width="120" height="120"><path id="path_1e6fe10d-585a-4efa-17a6-3b6482d41def" d="M136.00,17.58 Q132.04,17.60 119.14,17.65 T93.84,17.75 70.00,17.82 47.04,20.20 31.07,33.54 23.75,55.56 19.01,77.93 16.70,101.12 16.17,125.98 16.05,151.68 16.01,176.56 16.00,200.67 15.46,225.09 14.62,249.18 14.01,272.22 13.05,295.09 16.52,317.60 31.81,333.15 54.05,340.51 76.60,344.77 99.92,347.02 123.29,348.33 146.47,349.15 169.80,350.04 194.44,350.70 219.31,350.91 243.80,350.97 268.63,350.99 293.20,350.99 317.25,350.98 338.80,344.80 349.50,325.71 350.60,301.24 350.89,277.61 350.96,253.50 350.97,229.86 350.58,205.35 350.11,180.14 350.01,156.20 349.99,132.22 349.84,108.02 349.41,84.69 348.92,61.00 347.36,36.92 335.77,18.78 311.81,12.68 284.56,12.87 259.06,12.93 235.68,12.96 211.36,12.97 186.05,12.98 161.43,13.13 137.58,14.01 114.20,14.90 90.24,15.46 66.43,16.42 48.87,17.48 40.98,17.84 37.25,16.90 34.02,14.81 31.62,11.80 30.31,8.18 30.23,4.34 31.38,0.66 33.64,-2.45 36.77,-4.68 40.46,-5.79 44.30,-5.66 47.90,-4.32 50.89,-1.89 52.94,1.36 53.85,5.10 53.52,8.93 51.98,12.45 49.40,15.30 46.04,17.18 42.26,17.88 38.45,17.35 35.01,15.62 32.31,12.88 30.62,9.43 30.12,5.62 30.86,1.84 32.77,-1.50 35.65,-4.05 39.19,-5.55 41.08,-6.01 46.80,-6.58 65.05,-7.69 88.98,-8.65 112.09,-9.15 135.59,-9.97 159.44,-10.84 183.18,-10.98 207.89,-10.99 233.97,-11.00 259.00,-11.04 284.43,-11.15 310.26,-11.48 334.80,-10.06 356.85,-0.77 369.05,19.29 372.22,43.66 373.18,67.94 373.65,92.61 374.03,116.42 374.04,140.34 374.08,164.81 374.25,188.62 374.70,212.89 375.02,237.86 374.99,262.03 374.87,285.95 374.36,311.09 372.60,336.62 365.59,360.26 348.15,373.15 324.11,375.03 299.95,375.02 275.52,375.00 251.35,374.99 227.25,374.95 201.71,374.81 175.79,374.34 149.95,373.43 124.48,372.49 100.37,371.27 76.92,369.08 53.92,365.38 32.01,359.12 10.42,349.90 -6.20,334.60 -11.69,312.51 -10.67,288.87 -9.69,265.38 -9.06,240.75 -8.31,214.85 -7.99,189.28 -7.97,165.29 -7.92,140.47 -7.74,115.09 -6.73,91.25 -3.80,68.41 1.65,45.36 9.83,22.31 24.14,3.56 46.10,-4.93 70.00,-5.82 93.84,-5.75 119.14,-5.65 134.02,-5.59 137.39,-5.41 140.08,-4.75 142.53,-3.46 144.61,-1.62 146.18,0.66 147.16,3.25 147.50,6.00 147.16,8.75 146.18,11.34 144.60,13.62 142.53,15.46 140.08,16.75 137.38,17.41 Z" fill="#FFFFFF" stroke="transparent" stroke-width="0" stroke-linejoin="round" stroke-linecap="round" pointer-events="all" transform="translate(865, 245)"/><path id="path_3dd6f906-d668-494e-374a-e8d0563270f3" d="M46.39,12.55 Q43.38,12.41 31.44,12.10 T15.72,22.87 11.95,45.64 11.96,68.99 21.98,87.60 43.42,95.20 66.31,95.89 89.60,95.92 108.60,86.52 115.81,65.32 115.89,42.00 107.62,22.34 87.84,14.17 62.67,14.11 47.07,13.78 43.41,12.55 40.33,10.21 38.16,7.01 37.13,3.29 37.34,-0.57 38.77,-4.16 41.27,-7.10 44.58,-9.09 48.35,-9.92 52.20,-9.50 55.70,-7.88 58.50,-5.22 60.31,-1.81 60.94,2.00 60.31,5.81 58.50,9.23 55.70,11.88 52.19,13.50 48.35,13.92 44.58,13.09 41.27,11.10 38.77,8.15 37.34,4.56 37.13,0.71 38.17,-3.02 40.34,-6.21 43.41,-8.55 47.07,-9.78 49.00,-10.10 63.18,-10.11 89.11,-10.06 112.36,-8.47 131.41,2.46 139.53,24.31 140.10,48.38 139.91,71.42 136.64,94.21 122.95,112.29 100.43,119.53 76.89,120.05 53.47,119.86 30.04,118.12 7.61,112.74 -7.59,98.30 -11.98,75.87 -11.91,52.16 -11.44,28.64 -6.41,6.03 9.64,-8.27 32.84,-11.16 46.10,-10.63 48.98,-10.31 51.63,-9.50 54.01,-8.09 55.98,-6.15 57.43,-3.79 58.27,-1.16 58.46,1.60 57.99,4.33 56.87,6.86 55.18,9.05 53.01,10.78 50.50,11.93 47.78,12.45 Z" fill="#FFFFFF" stroke="transparent" stroke-width="0" stroke-linejoin="round" stroke-linecap="round" pointer-events="all" transform="translate(973, 366)"/><path id="path_ab6bc449-aba4-4b6e-32c1-991e7ab72e93" d="M85.00,11.56 Q81.99,11.58 70.24,11.64 T46.94,11.75 27.20,19.94 18.52,40.01 16.96,64.55 14.68,88.75 12.80,112.01 14.58,135.26 27.41,151.68 49.57,158.04 72.85,159.73 95.90,159.90 119.32,159.90 143.11,159.90 166.29,157.74 180.22,144.43 184.44,121.87 186.88,98.70 187.83,74.91 186.31,51.24 181.65,28.49 166.52,15.79 142.70,14.14 119.48,14.11 97.02,14.10 84.07,13.77 80.41,12.54 77.34,10.20 75.17,7.01 74.14,3.29 74.35,-0.57 75.78,-4.15 78.28,-7.09 81.59,-9.08 85.36,-9.91 89.19,-9.49 92.70,-7.87 95.50,-5.22 97.31,-1.81 97.93,2.00 97.30,5.81 95.50,9.22 92.69,11.87 89.19,13.49 85.35,13.91 81.58,13.08 78.28,11.09 75.78,8.15 74.35,4.56 74.14,0.71 75.17,-3.01 77.34,-6.21 80.42,-8.54 84.07,-9.77 86.00,-10.09 90.19,-10.10 105.96,-10.11 129.07,-10.10 152.51,-10.02 175.87,-8.14 194.93,2.67 205.41,22.76 210.20,45.99 212.08,70.02 211.58,93.77 209.64,117.76 205.89,141.24 199.16,163.38 183.59,179.14 160.70,184.10 137.48,184.10 114.46,184.10 90.84,184.08 67.33,183.76 44.14,181.77 20.56,175.21 0.10,161.94 -10.27,141.56 -11.64,118.12 -10.32,94.48 -7.91,70.98 -5.99,47.67 -3.59,24.37 5.64,4.11 24.12,-8.32 46.92,-11.75 70.24,-11.64 83.49,-11.57 86.38,-11.40 89.07,-10.73 91.52,-9.45 93.59,-7.61 95.16,-5.33 96.15,-2.75 96.48,0.00 96.15,2.75 95.16,5.34 93.59,7.61 91.52,9.45 89.07,10.73 86.38,11.40 Z" fill="#FFFFFF" stroke="transparent" stroke-width="0" stroke-linejoin="round" stroke-linecap="round" pointer-events="all" transform="translate(938, 332)"/><path id="path_cc497f45-7d62-4f16-20a4-ea04e7c0c547" d="M29.13,9.80 Q26.60,11.40 23.69,5.73 T21.99,-1.42 24.83,-3.91 28.32,-5.36 32.09,-5.62 35.74,-4.67 38.90,-2.60 41.23,0.38 42.49,3.94 42.55,7.72 41.40,11.32 39.15,14.36 36.06,16.52 32.43,17.59 28.66,17.44 25.13,16.09 22.21,13.69 20.22,10.48 19.35,6.80 19.70,3.04 21.24,-0.41 23.80,-3.19 27.11,-5.01 30.83,-5.67 34.56,-5.12 37.93,-3.40 40.57,-0.69 42.20,2.71 42.67,6.46 41.91,10.16 41.23,11.95 39.05,15.68 27.66,26.73 6.76,32.41 -4.17,18.69 5.45,-0.81 15.60,-9.02 18.13,-10.39 20.76,-11.26 23.52,-11.46 26.25,-11.01 28.79,-9.91 30.99,-8.23 32.73,-6.08 33.90,-3.58 34.44,-0.86 34.32,1.90 33.53,4.55 32.14,6.94 30.21,8.93 Z" fill="#FFFFFF" stroke="transparent" stroke-width="0" stroke-linejoin="round" stroke-linecap="round" pointer-events="all" transform="translate(1157, 281)"/><path id="path_7410f347-f0c8-4210-2133-0eea24861f87" d="M21.55,10.77 Q19.97,12.52 12.61,8.79 T4.73,3.21 4.29,-0.56 5.08,-4.27 7.02,-7.53 9.89,-10.00 13.41,-11.43 17.19,-11.66 20.85,-10.67 24.00,-8.56 26.32,-5.56 27.55,-1.97 27.58,1.82 26.39,5.42 24.11,8.46 20.99,10.60 17.34,11.64 13.55,11.46 10.02,10.08 7.12,7.64 5.14,4.41 4.30,0.71 4.69,-3.06 6.26,-6.52 8.85,-9.29 12.19,-11.08 15.93,-11.72 19.67,-11.13 23.03,-9.37 25.66,-6.64 26.75,-5.06 32.22,5.09 33.62,26.83 16.90,37.33 -2.41,26.94 -3.10,7.30 3.65,-3.90 5.51,-5.68 7.80,-7.22 10.40,-8.17 13.15,-8.47 15.89,-8.10 18.46,-7.09 20.72,-5.49 22.52,-3.39 23.77,-0.93 24.40,1.76 24.37,4.53 23.67,7.21 22.35,9.64 Z" fill="#FFFFFF" stroke="transparent" stroke-width="0" stroke-linejoin="round" stroke-linecap="round" pointer-events="all" transform="translate(907, 279)"/><path id="path_c71c1d39-c02b-4726-0e5d-5eba83aa973f" d="M28.20,14.42 Q25.18,13.96 24.91,7.49 T26.40,0.27 30.07,-0.64 33.84,-0.33 37.30,1.17 40.11,3.70 41.97,6.99 42.67,10.70 42.16,14.44 40.47,17.83 37.80,20.49 34.41,22.17 30.66,22.67 26.96,21.95 23.67,20.09 21.15,17.27 19.67,13.80 19.37,10.03 20.28,6.37 22.32,3.19 25.27,0.83 28.82,-0.47 32.60,-0.57 36.21,0.55 39.27,2.76 41.47,5.83 42.57,9.44 42.46,13.22 41.15,16.76 38.78,19.70 37.35,20.98 24.00,22.80 1.97,16.73 -1.00,-1.16 16.75,-10.03 30.30,-8.66 33.14,-8.04 35.69,-6.96 37.91,-5.31 39.67,-3.18 40.87,-0.68 41.43,2.03 41.34,4.79 40.58,7.45 39.21,9.85 37.30,11.86 34.97,13.35 32.35,14.23 29.59,14.47 Z" fill="#FFFFFF" stroke="transparent" stroke-width="0" stroke-linejoin="round" stroke-linecap="round" pointer-events="all" transform="translate(1161, 557)"/><path id="path_7ff605a3-2d41-4eb0-08e9-28ec11a784c2" d="M25.65,11.25 Q22.96,11.90 19.74,9.23 T15.91,4.75 15.30,1.01 15.91,-2.73 17.68,-6.08 20.42,-8.68 23.86,-10.27 27.63,-10.69 31.32,-9.88 34.57,-7.93 37.02,-5.04 38.43,-1.52 38.64,2.26 37.63,5.91 35.50,9.04 32.49,11.34 28.90,12.55 25.11,12.55 21.52,11.34 18.51,9.05 16.38,5.92 15.37,2.27 15.57,-1.51 16.97,-5.03 19.42,-7.92 22.66,-9.87 26.36,-10.69 30.13,-10.28 33.56,-8.69 36.31,-6.09 37.47,-4.56 37.45,7.17 26.89,24.73 5.48,27.08 -4.72,11.94 6.80,-5.17 19.00,-10.94 21.74,-11.40 24.50,-11.38 27.18,-10.68 29.62,-9.37 31.67,-7.52 33.22,-5.22 34.17,-2.63 34.47,0.12 34.11,2.86 33.10,5.44 31.51,7.70 29.42,9.51 26.95,10.77 Z" fill="#FFFFFF" stroke="transparent" stroke-width="0" stroke-linejoin="round" stroke-linecap="round" pointer-events="all" transform="translate(893, 535)"/><path id="path_7c4e5ea4-5acf-42e3-06ab-ae5490acf24b" d="M-11.59,73.00 Q-11.61,67.45 -10.82,53.92 T-8.65,28.43 -5.35,6.97 -2.73,-4.27 -0.81,-7.48 2.04,-9.90 5.51,-11.28 9.25,-11.49 12.85,-10.49 15.94,-8.39 18.21,-5.41 19.40,-1.87 19.40,1.87 18.21,5.41 15.95,8.39 12.85,10.48 9.25,11.48 5.52,11.28 2.05,9.90 -0.80,7.48 -2.73,4.28 -3.54,0.63 -3.13,-3.09 -1.56,-6.48 1.01,-9.20 4.31,-10.95 8.00,-11.55 11.69,-10.95 14.99,-9.20 17.56,-6.48 19.13,-3.09 19.54,0.63 19.43,2.51 17.69,11.37 14.54,31.85 12.37,55.46 11.60,70.23 11.42,74.39 10.76,77.08 9.47,79.54 7.63,81.61 5.35,83.19 2.75,84.17 -0.00,84.51 -2.75,84.17 -5.35,83.19 -7.63,81.61 -9.47,79.54 -10.76,77.08 -11.42,74.39 Z" fill="#FFFFFF" stroke="transparent" stroke-width="0" stroke-linejoin="round" stroke-linecap="round" pointer-events="all" transform="translate(984, 171)"/><path id="path_be3d071b-7429-4a05-15a7-4738a3937d90" d="M73.00,12.58 Q69.51,12.60 57.63,12.65 T33.47,12.48 10.48,12.01 -2.10,11.40 -5.64,10.13 -8.58,7.80 -10.62,4.66 -11.55,1.02 -11.27,-2.72 -9.81,-6.18 -7.33,-8.99 -4.07,-10.86 -0.39,-11.59 3.33,-11.11 6.70,-9.46 9.37,-6.83 11.06,-3.48 11.59,0.23 10.91,3.92 9.09,7.20 6.31,9.73 2.88,11.23 -0.86,11.56 -4.51,10.68 -7.68,8.68 -10.05,5.78 -11.37,2.26 -11.50,-1.49 -10.42,-5.08 -8.25,-8.14 -5.22,-10.35 -1.64,-11.48 0.24,-11.75 11.18,-11.51 33.94,-10.98 57.63,-10.65 71.26,-10.59 74.39,-10.41 77.08,-9.75 79.53,-8.46 81.61,-6.62 83.18,-4.34 84.16,-1.75 84.50,1.00 84.16,3.75 83.18,6.34 81.61,8.62 79.53,10.46 77.08,11.75 74.38,12.41 Z" fill="#FFFFFF" stroke="transparent" stroke-width="0" stroke-linejoin="round" stroke-linecap="round" pointer-events="all" transform="translate(919, 170)"/><path id="path_8ee061cf-eea5-41a9-2da7-948db34e1477" d="M-11.58,144.00 Q-11.60,136.39 -11.61,124.53 T-11.57,98.46 -11.32,72.85 -10.71,48.56 -8.92,22.77 -6.64,4.06 -5.14,-3.54 -3.43,-6.92 -0.73,-9.56 2.68,-11.21 6.43,-11.68 10.14,-10.93 13.42,-9.04 15.91,-6.20 17.37,-2.71 17.64,1.07 16.69,4.73 14.62,7.90 11.65,10.24 8.09,11.50 4.30,11.57 0.70,10.42 -2.35,8.18 -4.53,5.09 -5.60,1.46 -5.46,-2.32 -4.12,-5.86 -1.72,-8.78 1.49,-10.79 5.17,-11.66 8.94,-11.32 12.40,-9.79 15.19,-7.23 17.02,-3.92 17.69,-0.20 17.72,1.72 16.57,8.26 14.31,26.27 12.74,49.77 12.06,73.31 11.73,98.74 11.61,124.53 11.59,140.20 11.42,145.39 10.75,148.08 9.46,150.53 7.62,152.61 5.34,154.18 2.75,155.16 -0.00,155.50 -2.75,155.16 -5.34,154.18 -7.63,152.61 -9.46,150.53 -10.75,148.08 -11.42,145.38 Z" fill="#FFFFFF" stroke="transparent" stroke-width="0" stroke-linejoin="round" stroke-linecap="round" pointer-events="all" transform="translate(1065, 92)"/><path id="path_fec96810-a2c7-4b10-314e-063bb8ab8467" d="M-11.59,108.00 Q-11.61,101.50 -11.64,89.39 T-11.72,65.28 -11.81,41.12 -11.84,14.48 -11.52,-1.89 -10.32,-5.47 -8.03,-8.48 -4.90,-10.60 -1.26,-11.61 2.51,-11.40 6.02,-10.00 8.90,-7.56 10.85,-4.32 11.66,-0.63 11.25,3.13 9.66,6.55 7.07,9.30 3.73,11.07 -0.00,11.68 -3.73,11.06 -7.07,9.29 -9.67,6.55 -11.25,3.12 -11.66,-0.63 -10.85,-4.32 -8.90,-7.56 -6.02,-10.01 -2.51,-11.40 1.27,-11.61 4.91,-10.60 8.03,-8.47 10.32,-5.47 11.52,-1.89 11.83,0.00 11.84,14.48 11.81,41.12 11.72,65.28 11.64,89.39 11.60,104.75 11.42,109.39 10.76,112.08 9.47,114.54 7.63,116.61 5.35,118.19 2.75,119.17 -0.00,119.50 -2.75,119.17 -5.35,118.19 -7.63,116.61 -9.47,114.53 -10.76,112.08 -11.42,109.39 Z" fill="#FFFFFF" stroke="transparent" stroke-width="0" stroke-linejoin="round" stroke-linecap="round" pointer-events="all" transform="translate(1113, 128)"/><path id="path_7c948d37-cf62-4c08-2560-9ac7b4d63f4d" d="M0.00,-11.57 Q3.33,-11.59 14.83,-11.43 T37.94,-11.07 56.80,-10.83 65.93,-10.48 69.50,-9.26 72.49,-6.97 74.59,-3.84 75.58,-0.21 75.36,3.55 73.95,7.05 71.50,9.91 68.26,11.83 64.58,12.63 60.84,12.20 57.42,10.61 54.70,8.00 52.95,4.67 52.36,0.95 52.99,-2.77 54.77,-6.09 57.51,-8.66 60.94,-10.23 64.68,-10.62 68.36,-9.79 71.58,-7.84 74.00,-4.96 75.38,-1.45 75.57,2.31 74.54,5.94 72.41,9.04 69.40,11.31 65.83,12.50 63.95,12.80 57.41,12.76 39.20,12.46 15.43,11.89 1.66,11.58 -1.38,11.40 -4.07,10.74 -6.52,9.45 -8.60,7.62 -10.17,5.34 -11.15,2.75 -11.49,-0.00 -11.15,-2.75 -10.17,-5.34 -8.60,-7.62 -6.52,-9.45 -4.07,-10.74 -1.38,-11.40 Z" fill="#FFFFFF" stroke="transparent" stroke-width="0" stroke-linejoin="round" stroke-linecap="round" pointer-events="all" transform="translate(1116, 128)"/><path id="path_95ee4393-30f8-43c2-0c59-ece9482d6983" d="M0.46,-11.56 Q8.39,-11.25 21.40,-10.93 T48.04,-10.41 73.28,-10.10 96.30,-9.93 119.25,-9.85 143.29,-9.83 169.91,-9.75 185.87,-9.35 189.39,-8.16 192.36,-5.91 194.44,-2.83 195.44,0.76 195.24,4.48 193.86,7.94 191.44,10.77 188.25,12.69 184.62,13.49 180.92,13.08 177.54,11.52 174.84,8.96 173.09,5.67 172.49,1.99 173.10,-1.68 174.84,-4.97 177.55,-7.53 180.93,-9.09 184.63,-9.49 188.27,-8.69 191.45,-6.76 193.86,-3.93 195.24,-0.47 195.44,3.25 194.44,6.84 192.35,9.92 189.38,12.17 185.85,13.36 183.99,13.66 169.89,13.74 143.24,13.75 119.12,13.60 96.11,13.40 73.02,13.15 47.65,12.81 20.69,12.24 3.50,11.72 -1.84,11.33 -4.50,10.56 -6.89,9.18 -8.89,7.26 -10.37,4.92 -11.25,2.30 -11.47,-0.46 -11.03,-3.19 -9.94,-5.74 -8.28,-7.95 -6.14,-9.70 -3.64,-10.89 -0.93,-11.44 Z" fill="#FFFFFF" stroke="transparent" stroke-width="0" stroke-linejoin="round" stroke-linecap="round" pointer-events="all" transform="translate(1230, 308)"/><path id="path_dfcf0c4e-232e-4bdf-0ef0-87e61582cdfd" d="M11.57,-0.40 Q11.75,4.20 12.10,15.84 T12.59,39.14 12.76,56.38 12.47,63.84 11.28,67.41 9.02,70.41 5.91,72.53 2.29,73.54 -1.46,73.35 -4.96,71.97 -7.83,69.55 -9.78,66.33 -10.60,62.67 -10.20,58.93 -8.64,55.51 -6.06,52.78 -2.74,51.00 0.96,50.38 4.67,50.98 8.00,52.73 10.59,55.45 12.18,58.86 12.60,62.59 11.80,66.27 9.88,69.49 7.02,71.93 3.53,73.34 -0.22,73.55 -3.85,72.56 -6.96,70.46 -9.25,67.47 -10.46,63.91 -10.77,62.04 -10.80,56.47 -10.88,39.40 -11.19,16.44 -11.50,2.70 -11.45,-0.99 -10.88,-3.70 -9.68,-6.20 -7.92,-8.34 -5.69,-9.99 -3.13,-11.06 -0.40,-11.49 2.37,-11.25 4.99,-10.36 7.32,-8.86 9.23,-6.85 10.60,-4.44 11.36,-1.78 Z" fill="#FFFFFF" stroke="transparent" stroke-width="0" stroke-linejoin="round" stroke-linecap="round" pointer-events="all" transform="translate(1414, 310)"/><path id="path_29da591e-567e-4261-370c-b39add32d7d5" d="M0.00,-11.59 Q5.07,-11.61 16.59,-11.64 T39.66,-11.63 63.72,-11.18 78.10,-10.45 81.65,-9.18 84.60,-6.84 86.66,-3.69 87.60,-0.04 87.32,3.72 85.86,7.19 83.37,10.02 80.10,11.90 76.41,12.64 72.67,12.16 69.28,10.51 66.60,7.87 64.90,4.51 64.36,0.78 65.04,-2.93 66.87,-6.22 69.65,-8.76 73.10,-10.28 76.85,-10.61 80.52,-9.73 83.71,-7.73 86.09,-4.81 87.42,-1.28 87.55,2.48 86.47,6.09 84.30,9.17 81.25,11.39 77.66,12.52 75.77,12.80 63.68,12.42 39.84,11.86 16.59,11.64 2.54,11.60 -1.39,11.42 -4.08,10.76 -6.54,9.47 -8.61,7.63 -10.19,5.35 -11.17,2.75 -11.50,-0.00 -11.17,-2.75 -10.19,-5.35 -8.61,-7.63 -6.53,-9.47 -4.08,-10.76 -1.39,-11.42 Z" fill="#FFFFFF" stroke="transparent" stroke-width="0" stroke-linejoin="round" stroke-linecap="round" pointer-events="all" transform="translate(1231, 407)"/><path id="path_911bd1ad-85b5-422e-1b66-053204d60bc9" d="M0.00,-9.59 Q5.86,-9.61 17.34,-9.64 T42.25,-9.70 67.64,-9.75 91.30,-10.29 116.37,-11.33 131.63,-11.59 135.25,-10.46 138.31,-8.24 140.51,-5.15 141.60,-1.53 141.48,2.26 140.16,5.80 137.78,8.75 134.58,10.77 130.90,11.67 127.12,11.34 123.65,9.83 120.85,7.29 119.00,3.99 118.30,0.26 118.83,-3.49 120.53,-6.87 123.22,-9.54 126.62,-11.20 130.37,-11.70 134.09,-10.97 137.37,-9.09 139.89,-6.26 141.37,-2.77 141.66,1.00 140.73,4.67 138.67,7.86 135.71,10.21 132.15,11.50 130.27,11.85 116.58,12.42 91.24,13.38 67.64,13.75 42.25,13.70 17.34,13.64 2.93,13.60 -1.39,13.43 -4.08,12.76 -6.54,11.47 -8.61,9.63 -10.19,7.35 -11.17,4.75 -11.51,2.00 -11.17,-0.75 -10.19,-3.35 -8.61,-5.63 -6.54,-7.47 -4.08,-8.76 -1.39,-9.43 Z" fill="#FFFFFF" stroke="transparent" stroke-width="0" stroke-linejoin="round" stroke-linecap="round" pointer-events="all" transform="translate(1236, 512)"/><path id="path_b3b2fabc-9782-444d-0cb9-44c591f72f06" d="M-11.57,45.00 Q-11.58,41.51 -11.64,30.11 T-11.72,9.35 -11.44,-1.88 -10.24,-5.43 -7.97,-8.42 -4.87,-10.52 -1.25,-11.52 2.49,-11.32 5.98,-9.93 8.84,-7.50 10.77,-4.29 11.58,-0.63 11.17,3.10 9.59,6.51 7.01,9.23 3.70,10.99 -0.00,11.59 -3.70,10.98 -7.02,9.23 -9.60,6.50 -11.17,3.10 -11.57,-0.63 -10.77,-4.29 -8.83,-7.51 -5.97,-9.93 -2.49,-11.32 1.26,-11.52 4.87,-10.52 7.97,-8.41 10.24,-5.43 11.44,-1.87 11.75,0.00 11.72,9.35 11.64,30.11 11.57,43.26 11.40,46.38 10.74,49.07 9.45,51.52 7.61,53.59 5.34,55.17 2.75,56.15 -0.00,56.48 -2.75,56.15 -5.34,55.17 -7.61,53.59 -9.45,51.52 -10.74,49.07 -11.40,46.38 Z" fill="#FFFFFF" stroke="transparent" stroke-width="0" stroke-linejoin="round" stroke-linecap="round" pointer-events="all" transform="translate(1366, 467)"/><path id="path_75248ff5-5c2d-4a25-157b-0cb9aa91cbf9" d="M11.57,0.00 Q11.58,3.17 11.64,14.68 T11.72,35.10 11.43,45.87 10.23,49.42 7.96,52.41 4.86,54.51 1.25,55.51 -2.49,55.31 -5.97,53.92 -8.83,51.50 -10.76,48.29 -11.56,44.63 -11.16,40.90 -9.58,37.50 -7.01,34.78 -3.70,33.03 0.00,32.42 3.70,33.03 7.01,34.78 9.59,37.50 11.16,40.90 11.56,44.63 10.76,48.29 8.82,51.50 5.97,53.92 2.49,55.31 -1.25,55.51 -4.87,54.51 -7.97,52.40 -10.23,49.42 -11.43,45.87 -11.73,44.00 -11.72,35.10 -11.64,14.68 -11.57,1.58 -11.40,-1.38 -10.73,-4.07 -9.45,-6.52 -7.61,-8.59 -5.34,-10.17 -2.75,-11.15 0.00,-11.48 2.75,-11.15 5.34,-10.17 7.61,-8.59 9.45,-6.52 10.74,-4.07 11.40,-1.38 Z" fill="#FFFFFF" stroke="transparent" stroke-width="0" stroke-linejoin="round" stroke-linecap="round" pointer-events="all" transform="translate(1310, 410)"/><path id="path_b80cf2bd-e2a7-4da8-382e-d96fa2f612a8" d="M11.59,0.00 Q11.61,5.71 11.65,17.58 T11.72,42.20 11.80,67.41 11.86,92.22 11.87,112.29 11.54,121.89 10.33,125.48 8.04,128.49 4.91,130.61 1.26,131.62 -2.51,131.42 -6.03,130.02 -8.91,127.57 -10.86,124.33 -11.68,120.63 -11.27,116.87 -9.68,113.44 -7.08,110.69 -3.73,108.92 0.00,108.31 3.74,108.92 7.08,110.69 9.68,113.44 11.27,116.87 11.68,120.64 10.86,124.33 8.91,127.57 6.03,130.02 2.51,131.42 -1.27,131.62 -4.91,130.61 -8.04,128.49 -10.33,125.47 -11.54,121.89 -11.85,120.00 -11.87,112.29 -11.86,92.22 -11.80,67.41 -11.72,42.20 -11.65,17.58 -11.60,2.85 -11.42,-1.39 -10.76,-4.08 -9.47,-6.54 -7.63,-8.61 -5.35,-10.19 -2.75,-11.17 0.00,-11.51 2.75,-11.17 5.35,-10.19 7.63,-8.61 9.47,-6.54 10.76,-4.08 11.42,-1.39 Z" fill="#FFFFFF" stroke="transparent" stroke-width="0" stroke-linejoin="round" stroke-linecap="round" pointer-events="all" transform="translate(1156, 613)"/><path id="path_b4bdf7bb-75d0-47c8-3e5a-675b1eee0593" d="M14.55,1.86 Q14.25,6.14 13.69,18.35 T12.58,42.28 11.92,65.04 11.49,77.98 10.25,81.54 7.94,84.53 4.81,86.62 1.16,87.60 -2.60,87.36 -6.09,85.94 -8.95,83.47 -10.86,80.22 -11.64,76.53 -11.20,72.79 -9.59,69.38 -6.98,66.66 -3.63,64.92 0.10,64.35 3.81,64.99 7.13,66.78 9.70,69.54 11.26,72.98 11.63,76.73 10.79,80.41 8.82,83.62 5.92,86.04 2.41,87.40 -1.36,87.58 -4.98,86.54 -8.09,84.39 -10.34,81.37 -11.52,77.79 -11.81,75.90 -11.67,64.68 -10.90,41.68 -9.58,17.16 -8.72,2.28 -8.28,-1.22 -7.42,-3.86 -5.95,-6.21 -3.97,-8.14 -1.58,-9.55 1.08,-10.33 3.85,-10.46 6.57,-9.93 9.08,-8.76 11.24,-7.02 12.92,-4.81 14.02,-2.27 14.48,0.46 Z" fill="#FFFFFF" stroke="transparent" stroke-width="0" stroke-linejoin="round" stroke-linecap="round" pointer-events="all" transform="translate(1071, 613)"/><path id="path_5b0ac147-7123-43e9-1341-2bce6d7f7937" d="M0.00,-11.56 Q3.01,-11.58 15.07,-11.38 T38.08,-9.38 50.84,-6.96 54.13,-5.16 56.68,-2.40 58.22,1.03 58.58,4.77 57.73,8.42 55.76,11.62 52.87,14.02 49.36,15.37 45.61,15.52 42.00,14.48 38.92,12.33 36.68,9.31 35.52,5.74 35.57,1.98 36.81,-1.56 39.12,-4.52 42.25,-6.59 45.88,-7.55 49.63,-7.31 53.10,-5.87 55.94,-3.41 57.84,-0.17 58.60,3.51 58.15,7.24 56.53,10.63 53.91,13.33 50.57,15.05 46.86,15.61 44.96,15.59 36.11,14.05 15.14,12.05 1.51,11.57 -1.38,11.39 -4.07,10.73 -6.52,9.44 -8.59,7.61 -10.16,5.33 -11.14,2.75 -11.48,-0.00 -11.14,-2.75 -10.16,-5.33 -8.59,-7.61 -6.52,-9.45 -4.07,-10.73 -1.38,-11.39 Z" fill="#FFFFFF" stroke="transparent" stroke-width="0" stroke-linejoin="round" stroke-linecap="round" pointer-events="all" transform="translate(1071, 689)"/><path id="path_853d027e-e10b-46c7-3a00-58801c9594fb" d="M12.59,0.00 Q12.61,5.71 12.65,17.82 T12.72,42.87 12.70,67.50 12.32,90.77 11.93,108.72 11.55,116.98 10.31,120.56 8.00,123.56 4.84,125.67 1.18,126.66 -2.60,126.43 -6.11,125.00 -8.99,122.52 -10.92,119.26 -11.70,115.55 -11.27,111.78 -9.65,108.35 -7.02,105.62 -3.66,103.87 0.09,103.28 3.82,103.92 7.16,105.72 9.75,108.50 11.31,111.95 11.70,115.72 10.85,119.42 8.87,122.65 5.97,125.08 2.43,126.46 -1.35,126.64 -5.00,125.60 -8.12,123.45 -10.39,120.41 -11.58,116.81 -11.87,114.91 -11.84,109.18 -11.45,91.61 -10.93,67.80 -10.72,42.87 -10.65,17.82 -10.60,2.85 -10.42,-1.39 -9.76,-4.08 -8.47,-6.54 -6.63,-8.61 -4.35,-10.19 -1.75,-11.17 1.00,-11.51 3.75,-11.17 6.35,-10.19 8.63,-8.61 10.47,-6.54 11.76,-4.08 12.42,-1.39 Z" fill="#FFFFFF" stroke="transparent" stroke-width="0" stroke-linejoin="round" stroke-linecap="round" pointer-events="all" transform="translate(968, 612)"/><path id="path_72756ad7-4d43-40c0-22d0-601455082fa3" d="M44.00,11.57 Q40.67,11.58 28.93,11.64 T8.59,11.73 -1.88,11.44 -5.43,10.24 -8.42,7.97 -10.52,4.87 -11.53,1.25 -11.32,-2.49 -9.94,-5.98 -7.51,-8.84 -4.29,-10.77 -0.63,-11.58 3.10,-11.17 6.51,-9.60 9.23,-7.02 10.99,-3.70 11.60,0.00 10.99,3.70 9.23,7.02 6.51,9.60 3.10,11.17 -0.63,11.58 -4.29,10.77 -7.51,8.84 -9.94,5.98 -11.33,2.49 -11.53,-1.26 -10.52,-4.87 -8.42,-7.98 -5.43,-10.25 -1.87,-11.44 0.00,-11.75 8.59,-11.73 28.93,-11.64 42.34,-11.58 45.38,-11.40 48.07,-10.74 50.52,-9.45 52.59,-7.61 54.17,-5.34 55.15,-2.75 55.48,0.00 55.15,2.75 54.17,5.34 52.59,7.61 50.52,9.45 48.07,10.74 45.38,11.40 Z" fill="#FFFFFF" stroke="transparent" stroke-width="0" stroke-linejoin="round" stroke-linecap="round" pointer-events="all" transform="translate(924, 727)"/><path id="path_58460214-cbc7-4857-3754-aed0493a05a9" d="M142.00,11.59 Q136.14,11.61 124.09,11.64 T98.00,11.69 72.53,11.74 48.79,11.77 24.58,11.82 6.34,11.81 -1.88,11.47 -5.45,10.27 -8.44,7.99 -10.55,4.88 -11.56,1.26 -11.35,-2.50 -9.96,-5.99 -7.53,-8.86 -4.30,-10.80 -0.63,-11.61 3.11,-11.20 6.53,-9.62 9.26,-7.03 11.02,-3.71 11.63,0.00 11.02,3.71 9.25,7.04 6.52,9.62 3.11,11.20 -0.63,11.61 -4.31,10.80 -7.53,8.86 -9.96,5.99 -11.35,2.50 -11.56,-1.26 -10.55,-4.88 -8.44,-8.00 -5.44,-10.27 -1.88,-11.47 0.00,-11.78 6.34,-11.81 24.58,-11.82 48.79,-11.77 72.53,-11.74 98.00,-11.69 124.09,-11.64 139.07,-11.60 143.39,-11.42 146.08,-10.76 148.54,-9.47 150.61,-7.63 152.19,-5.35 153.17,-2.75 153.51,0.00 153.17,2.75 152.19,5.35 150.61,7.63 148.54,9.47 146.08,10.76 143.39,11.42 Z" fill="#FFFFFF" stroke="transparent" stroke-width="0" stroke-linejoin="round" stroke-linecap="round" pointer-events="all" transform="translate(723, 336)"/><path id="path_d8f2c6f5-28ab-42a0-1cdb-c558f3d55746" d="M11.57,1.00 Q11.59,4.33 11.64,15.78 T11.74,42.12 11.47,58.88 10.27,62.45 7.99,65.44 4.88,67.55 1.26,68.56 -2.50,68.35 -5.99,66.96 -8.86,64.52 -10.80,61.30 -11.61,57.63 -11.20,53.89 -9.62,50.48 -7.03,47.75 -3.71,45.98 0.00,45.38 3.71,45.98 7.04,47.75 9.62,50.48 11.20,53.89 11.61,57.63 10.80,61.30 8.86,64.53 5.99,66.96 2.50,68.35 -1.26,68.56 -4.88,67.55 -8.00,65.44 -10.27,62.44 -11.47,58.88 -11.78,57.00 -11.74,42.12 -11.64,15.78 -11.58,2.66 -11.40,-0.38 -10.74,-3.07 -9.45,-5.53 -7.62,-7.60 -5.34,-9.17 -2.75,-10.15 0.00,-10.49 2.75,-10.15 5.34,-9.17 7.62,-7.60 9.45,-5.52 10.74,-3.07 11.40,-0.38 Z" fill="#FFFFFF" stroke="transparent" stroke-width="0" stroke-linejoin="round" stroke-linecap="round" pointer-events="all" transform="translate(719, 339)"/><path id="path_8bd13fb7-8811-4588-320a-6070e9930caa" d="M82.00,13.58 Q77.56,13.60 65.72,13.27 T42.49,12.70 19.70,12.18 4.15,11.88 -1.92,11.56 -5.51,10.34 -8.52,8.04 -10.64,4.90 -11.65,1.25 -11.44,-2.54 -10.03,-6.06 -7.57,-8.95 -4.32,-10.89 -0.61,-11.70 3.16,-11.29 6.60,-9.69 9.34,-7.07 11.11,-3.72 11.72,0.02 11.10,3.76 9.31,7.11 6.56,9.71 3.11,11.30 -0.66,11.70 -4.36,10.88 -7.60,8.92 -10.05,6.02 -11.45,2.50 -11.65,-1.29 -10.63,-4.94 -8.49,-8.08 -5.47,-10.37 -1.87,-11.57 0.02,-11.88 3.70,-11.87 18.99,-11.56 42.51,-10.85 65.99,-10.02 79.78,-9.59 83.39,-9.41 86.08,-8.75 88.53,-7.46 90.60,-5.62 92.18,-3.34 93.16,-0.75 93.49,2.00 93.16,4.75 92.18,7.34 90.60,9.62 88.53,11.46 86.07,12.75 83.38,13.41 Z" fill="#FFFFFF" stroke="transparent" stroke-width="0" stroke-linejoin="round" stroke-linecap="round" pointer-events="all" transform="translate(785, 446)"/><path id="path_5314c895-5e80-4d3c-38f9-0b78f2b4d3fd" d="M-11.56,40.00 Q-11.58,35.40 -11.60,17.70 T-11.33,-1.86 -10.14,-5.38 -7.89,-8.33 -4.82,-10.42 -1.24,-11.41 2.47,-11.21 5.92,-9.83 8.75,-7.43 10.66,-4.25 11.46,-0.62 11.06,3.07 9.50,6.44 6.95,9.14 3.66,10.88 -0.00,11.48 -3.67,10.88 -6.95,9.14 -9.50,6.44 -11.06,3.07 -11.46,-0.62 -10.66,-4.25 -8.75,-7.43 -5.92,-9.84 -2.46,-11.21 1.24,-11.41 4.82,-10.42 7.90,-8.33 10.14,-5.37 11.33,-1.85 11.63,0.00 11.60,17.70 11.57,37.70 11.39,41.38 10.73,44.07 9.44,46.52 7.61,48.59 5.33,50.16 2.75,51.14 -0.00,51.47 -2.75,51.14 -5.33,50.16 -7.61,48.59 -9.44,46.52 -10.73,44.07 -11.39,41.38 Z" fill="#FFFFFF" stroke="transparent" stroke-width="0" stroke-linejoin="round" stroke-linecap="round" pointer-events="all" transform="translate(785, 406)"/><path id="path_83e9d126-248d-4664-0ad5-245787b508b9" d="M113.25,16.56 Q108.34,16.26 96.38,15.27 T71.63,13.40 46.87,12.25 23.45,11.95 5.99,11.90 -1.91,11.58 -5.51,10.36 -8.53,8.06 -10.65,4.92 -11.67,1.26 -11.46,-2.53 -10.05,-6.06 -7.59,-8.95 -4.33,-10.90 -0.62,-11.72 3.15,-11.30 6.60,-9.70 9.35,-7.09 11.12,-3.73 11.73,0.01 11.11,3.76 9.33,7.11 6.57,9.72 3.13,11.31 -0.65,11.71 -4.36,10.89 -7.61,8.93 -10.06,6.04 -11.46,2.51 -11.66,-1.28 -10.64,-4.94 -8.51,-8.08 -5.48,-10.37 -1.88,-11.58 0.01,-11.89 8.12,-11.88 28.01,-11.75 51.46,-11.24 74.74,-9.94 98.10,-7.97 112.29,-6.73 116.12,-6.31 118.76,-5.47 121.13,-4.03 123.08,-2.06 124.51,0.32 125.32,2.97 125.48,5.74 124.97,8.47 123.82,10.99 122.10,13.17 119.91,14.87 117.38,16.00 114.65,16.48 Z" fill="#FFFFFF" stroke="transparent" stroke-width="0" stroke-linejoin="round" stroke-linecap="round" pointer-events="all" transform="translate(748, 498)"/></svg>