<svg xmlns="http://www.w3.org/2000/svg" viewBox="659 155 798 713" width="120" height="120"><path id="path_b7c67cb8-0287-4312-2e5e-00841387fea2" d="M168.00,11.58 Q164.35,11.59 152.77,11.65 T128.76,11.74 104.46,11.81 81.00,11.87 57.22,11.90 33.16,14.31 16.96,27.67 12.56,50.67 12.72,74.54 12.99,98.35 13.04,122.24 13.04,146.03 13.04,169.31 13.04,193.32 13.11,217.90 13.84,241.64 14.71,265.19 14.98,288.94 24.03,309.45 45.60,321.08 70.90,326.10 95.51,328.75 119.30,329.67 143.80,329.91 167.88,329.96 191.56,329.96 215.61,329.95 239.06,329.95 262.76,329.81 286.62,328.00 308.84,321.32 324.13,305.66 329.39,283.26 330.08,259.51 330.59,235.37 330.88,211.36 330.92,187.64 330.93,164.15 330.93,141.10 330.69,117.90 329.27,94.77 327.10,71.83 325.03,48.24 316.01,27.04 295.75,16.14 271.22,14.29 246.88,14.11 222.68,14.08 198.79,14.08 177.49,14.07 166.07,13.75 162.42,12.52 159.36,10.19 157.19,7.00 156.16,3.29 156.37,-0.56 157.80,-4.14 160.29,-7.07 163.59,-9.06 167.36,-9.89 171.19,-9.47 174.68,-7.85 177.48,-5.20 179.28,-1.80 179.91,2.00 179.28,5.80 177.48,9.21 174.68,11.86 171.18,13.47 167.35,13.89 163.59,13.06 160.29,11.07 157.80,8.14 156.37,4.56 156.16,0.71 157.20,-3.00 159.36,-6.19 162.43,-8.52 166.08,-9.75 168.00,-10.06 175.07,-10.07 193.81,-10.08 217.01,-10.07 240.25,-10.05 263.90,-9.94 287.43,-9.40 310.61,-5.67 331.05,5.00 343.99,23.27 349.10,46.10 351.10,69.56 353.32,93.19 354.81,117.49 355.06,141.10 355.07,164.15 355.06,187.66 355.02,211.47 354.76,235.05 354.26,258.22 353.64,281.88 350.69,305.47 340.85,326.33 322.62,342.08 300.15,350.25 277.27,353.08 254.29,354.06 231.03,354.05 206.99,354.04 182.48,354.03 158.49,354.01 133.73,353.93 109.41,353.52 86.16,352.18 62.73,349.24 39.68,344.45 16.65,336.48 -1.85,322.06 -8.94,301.08 -9.19,277.26 -9.78,253.34 -10.64,229.30 -11.04,205.16 -11.04,181.03 -11.04,156.70 -11.05,132.21 -11.06,107.55 -11.20,83.08 -11.54,59.33 -10.92,36.21 -5.31,14.16 10.27,-3.06 33.04,-10.86 57.22,-11.90 81.00,-11.87 104.46,-11.81 128.76,-11.74 152.77,-11.65 166.18,-11.58 169.39,-11.41 172.08,-10.74 174.53,-9.46 176.60,-7.62 178.18,-5.34 179.16,-2.75 179.49,0.00 179.16,2.75 178.18,5.34 176.60,7.62 174.53,9.46 172.07,10.75 169.38,11.41 Z" fill="#FFFFFF" stroke="transparent" stroke-width="0" stroke-linejoin="round" stroke-linecap="round" pointer-events="all" transform="translate(887, 329)"/><path id="path_1742a697-086e-4d2e-25bf-116b0fd42b33" d="M70.00,12.57 Q66.35,12.59 54.95,12.64 T31.57,13.79 16.01,25.92 12.21,48.84 12.00,72.21 19.37,92.41 38.36,101.50 61.70,101.91 85.16,101.93 104.60,93.43 112.58,72.96 112.89,49.41 109.68,26.53 94.85,13.69 78.11,12.12 71.05,11.77 67.39,10.53 64.32,8.19 62.16,4.99 61.13,1.27 61.35,-2.59 62.79,-6.17 65.29,-9.11 68.61,-11.10 72.38,-11.92 76.22,-11.49 79.72,-9.86 82.52,-7.20 84.32,-3.79 84.93,0.03 84.30,3.84 82.48,7.24 79.67,9.89 76.17,11.51 72.33,11.91 68.56,11.08 65.25,9.08 62.76,6.13 61.34,2.54 61.14,-1.32 62.18,-5.04 64.36,-8.23 67.43,-10.56 71.10,-11.78 73.03,-12.09 86.03,-11.92 110.15,-8.05 127.75,5.38 135.66,26.47 137.09,49.44 136.83,72.63 135.04,95.98 125.83,116.54 105.96,125.69 81.80,126.07 58.42,126.02 35.62,125.53 12.59,121.30 -4.97,107.80 -11.44,86.30 -11.92,62.51 -11.18,38.61 -6.17,15.29 8.59,-2.52 31.28,-9.80 54.95,-10.64 68.18,-10.58 71.38,-10.40 74.07,-9.74 76.53,-8.45 78.60,-6.62 80.17,-4.34 81.15,-1.75 81.49,1.00 81.15,3.75 80.17,6.34 78.60,8.62 76.52,10.45 74.07,11.74 71.38,12.40 Z" fill="#FFFFFF" stroke="transparent" stroke-width="0" stroke-linejoin="round" stroke-linecap="round" pointer-events="all" transform="translate(990, 441)"/><path id="path_7d620d77-f744-4996-23ea-da6a77ce87f4" d="M86.00,11.57 Q82.67,11.58 70.96,11.64 T47.77,12.12 29.27,21.53 21.00,42.06 18.77,65.04 15.58,87.74 12.76,110.75 12.11,134.09 20.26,154.13 39.83,164.41 62.85,167.43 85.94,168.75 109.28,168.89 133.30,168.91 156.89,168.91 174.14,159.04 180.37,137.73 180.87,114.86 180.89,91.60 180.89,68.12 180.20,44.60 169.94,26.47 149.02,18.31 125.97,15.38 101.12,14.22 86.05,13.77 82.40,12.54 79.32,10.20 77.16,7.00 76.13,3.27 76.35,-0.58 77.78,-4.17 80.29,-7.11 83.60,-9.09 87.37,-9.92 91.21,-9.49 94.71,-7.87 97.51,-5.21 99.32,-1.79 99.93,2.02 99.30,5.83 97.49,9.24 94.68,11.89 91.17,13.50 87.33,13.92 83.56,13.08 80.26,11.08 77.76,8.14 76.34,4.55 76.14,0.69 77.18,-3.03 79.35,-6.22 82.43,-8.55 86.09,-9.78 88.02,-10.09 91.20,-10.10 106.14,-9.94 129.81,-8.62 153.32,-5.54 176.03,1.05 194.74,15.51 203.73,36.63 205.11,59.36 205.11,82.56 205.10,105.73 204.93,128.75 202.99,152.31 194.44,174.22 176.40,188.65 153.61,193.09 129.89,193.09 105.81,193.07 82.13,192.86 58.80,191.42 35.15,188.29 12.05,183.46 -5.52,171.01 -12.06,149.72 -11.90,126.00 -10.88,102.48 -7.67,79.06 -4.44,55.89 -1.51,32.68 5.94,10.32 22.66,-5.58 46.62,-11.34 70.96,-11.64 84.34,-11.57 87.38,-11.40 90.07,-10.74 92.52,-9.45 94.59,-7.61 96.17,-5.34 97.15,-2.75 97.48,0.00 97.15,2.75 96.17,5.34 94.59,7.61 92.52,9.45 90.07,10.74 87.38,11.40 Z" fill="#FFFFFF" stroke="transparent" stroke-width="0" stroke-linejoin="round" stroke-linecap="round" pointer-events="all" transform="translate(956, 405)"/><path id="path_4ac1be78-520a-4df3-118c-1142ed3a255f" d="M30.89,8.45 Q28.52,10.69 24.65,5.96 T21.67,-0.46 23.96,-3.48 27.08,-5.60 30.73,-6.61 34.50,-6.41 38.01,-5.02 40.90,-2.57 42.85,0.67 43.67,4.36 43.26,8.12 41.68,11.55 39.08,14.30 35.74,16.07 32.01,16.68 28.28,16.08 24.94,14.31 22.33,11.57 20.74,8.14 20.33,4.38 21.14,0.68 23.09,-2.56 25.97,-5.01 29.48,-6.41 33.25,-6.62 36.90,-5.61 40.03,-3.49 42.32,-0.48 43.53,3.10 43.53,6.88 43.22,8.77 41.99,12.44 32.98,25.04 13.28,33.57 -1.89,21.73 3.80,2.03 13.91,-7.35 16.24,-9.28 18.65,-10.63 21.32,-11.36 24.09,-11.43 26.79,-10.84 29.27,-9.61 31.39,-7.83 33.02,-5.60 34.07,-3.04 34.48,-0.30 34.21,2.46 33.30,5.07 31.79,7.39 Z" fill="#FFFFFF" stroke="transparent" stroke-width="0" stroke-linejoin="round" stroke-linecap="round" pointer-events="all" transform="translate(1156, 367)"/><path id="path_960c9fb9-9563-43fb-14d7-3b71398298e5" d="M31.86,30.09 Q29.63,28.36 19.97,21.52 T21.54,17.60 36.55,20.30 42.25,20.29 45.93,21.31 49.08,23.44 51.39,26.47 52.61,30.08 52.62,33.89 51.41,37.50 49.11,40.54 45.96,42.68 42.29,43.70 38.49,43.50 34.94,42.10 32.04,39.63 30.07,36.37 29.25,32.65 29.65,28.87 31.25,25.41 33.86,22.64 37.23,20.85 40.98,20.23 44.74,20.84 48.11,22.62 50.74,25.38 52.34,28.84 52.76,32.62 51.94,36.34 49.98,39.61 47.08,42.08 43.55,43.49 41.66,43.91 30.33,43.95 8.31,39.23 -6.58,23.68 -4.70,3.07 13.42,-5.07 34.70,3.39 45.04,11.03 47.13,12.90 48.83,15.08 49.96,17.60 50.46,20.32 50.29,23.08 49.46,25.73 48.02,28.09 46.06,30.04 43.69,31.47 41.05,32.29 38.29,32.45 35.57,31.95 33.05,30.81 Z" fill="#FFFFFF" stroke="transparent" stroke-width="0" stroke-linejoin="round" stroke-linecap="round" pointer-events="all" transform="translate(914, 355)"/><path id="path_822fcc19-8174-42fd-1b5c-c594db216eb6" d="M24.34,16.97 Q21.49,16.03 20.36,16.45 T18.40,15.13 17.31,11.47 17.46,7.66 18.81,4.10 21.22,1.15 24.46,-0.87 28.16,-1.75 31.96,-1.40 35.44,0.14 38.25,2.71 40.10,6.05 40.78,9.80 40.22,13.57 38.50,16.97 35.77,19.64 32.34,21.29 28.56,21.77 24.83,21.01 21.53,19.10 19.01,16.24 17.54,12.72 17.27,8.92 18.23,5.23 20.31,2.04 23.31,-0.31 26.90,-1.59 30.71,-1.65 34.34,-0.50 37.41,1.76 38.76,3.14 41.83,9.12 42.76,26.72 28.99,41.50 6.89,39.29 -7.13,22.14 -4.55,0.55 15.20,-7.59 30.23,-5.45 32.91,-4.37 35.25,-2.89 37.17,-0.90 38.56,1.50 39.33,4.15 39.44,6.92 38.89,9.63 37.70,12.13 35.95,14.27 33.74,15.94 31.20,17.02 28.47,17.47 25.71,17.24 Z" fill="#FFFFFF" stroke="transparent" stroke-width="0" stroke-linejoin="round" stroke-linecap="round" pointer-events="all" transform="translate(1158, 598)"/><path id="path_57392789-b604-4b2d-078a-92fe40720ae6" d="M28.41,10.22 Q25.72,11.66 22.32,9.50 T18.17,5.56 17.28,1.86 17.62,-1.92 19.15,-5.40 21.71,-8.21 25.03,-10.06 28.77,-10.75 32.54,-10.20 35.93,-8.49 38.60,-5.78 40.26,-2.36 40.74,1.41 40.00,5.14 38.10,8.43 35.25,10.95 31.75,12.42 27.95,12.70 24.27,11.76 21.09,9.68 18.73,6.70 17.44,3.12 17.37,-0.68 18.52,-4.30 20.76,-7.37 23.86,-9.57 27.51,-10.65 31.31,-10.52 34.86,-9.18 37.81,-6.78 39.08,-5.33 41.42,0.75 38.23,18.15 22.74,35.48 1.63,36.41 -6.62,19.03 5.58,-1.03 16.24,-9.51 18.89,-10.72 21.58,-11.39 24.34,-11.40 27.03,-10.75 29.49,-9.47 31.56,-7.64 33.14,-5.37 34.13,-2.79 34.48,-0.04 34.15,2.71 33.18,5.30 31.62,7.58 29.55,9.42 Z" fill="#FFFFFF" stroke="transparent" stroke-width="0" stroke-linejoin="round" stroke-linecap="round" pointer-events="all" transform="translate(917, 601)"/><path id="path_709db14e-fb3f-4a97-3247-0e84c4663d6e" d="M-11.59,122.68 Q-11.44,116.97 -11.24,105.13 T-10.95,81.34 -10.85,57.90 -10.78,34.13 -10.28,10.76 -9.50,-2.22 -8.19,-5.78 -5.81,-8.73 -2.61,-10.77 1.07,-11.67 4.84,-11.36 8.32,-9.86 11.14,-7.32 13.00,-4.02 13.71,-0.30 13.19,3.45 11.50,6.85 8.82,9.52 5.42,11.20 1.66,11.71 -2.06,10.99 -5.35,9.12 -7.88,6.29 -9.37,2.81 -9.67,-0.97 -8.75,-4.65 -6.70,-7.84 -3.75,-10.20 -0.19,-11.51 3.60,-11.60 7.22,-10.48 10.30,-8.27 12.50,-5.19 13.61,-1.56 13.86,0.34 13.44,11.89 12.92,34.93 12.75,57.99 12.50,81.61 12.04,105.64 11.67,120.47 11.38,124.70 10.64,127.38 9.28,129.80 7.39,131.82 5.06,133.33 2.44,134.24 -0.32,134.50 -3.06,134.09 -5.63,133.03 -7.87,131.40 -9.65,129.27 -10.87,126.78 -11.46,124.07 Z" fill="#FFFFFF" stroke="transparent" stroke-width="0" stroke-linejoin="round" stroke-linecap="round" pointer-events="all" transform="translate(1052, 206)"/><path id="path_d0705346-82f0-48bd-102d-baba212aca5d" d="M0.00,-11.57 Q3.17,-11.59 15.20,-11.64 T35.12,-11.70 44.87,-11.40 48.41,-10.21 51.39,-7.94 53.48,-4.85 54.48,-1.25 54.28,2.48 52.90,5.96 50.48,8.80 47.27,10.73 43.62,11.53 39.91,11.13 36.52,9.56 33.80,6.99 32.05,3.69 31.45,-0.00 32.05,-3.69 33.80,-6.99 36.52,-9.56 39.91,-11.13 43.63,-11.53 47.28,-10.73 50.48,-8.80 52.90,-5.95 54.28,-2.48 54.48,1.25 53.48,4.85 51.38,7.95 48.41,10.21 44.87,11.40 43.00,11.71 35.12,11.70 15.20,11.64 1.58,11.58 -1.38,11.40 -4.07,10.74 -6.52,9.45 -8.60,7.62 -10.17,5.34 -11.15,2.75 -11.49,-0.00 -11.15,-2.75 -10.17,-5.34 -8.60,-7.62 -6.52,-9.45 -4.07,-10.74 -1.38,-11.40 Z" fill="#FFFFFF" stroke="transparent" stroke-width="0" stroke-linejoin="round" stroke-linecap="round" pointer-events="all" transform="translate(1054, 206)"/><path id="path_a38fba6d-509b-4840-2347-0954578f879d" d="M23.42,69.00 Q23.40,63.93 23.35,52.32 T23.26,29.30 11.51,14.89 -2.10,11.55 -5.67,10.27 -8.66,7.92 -10.74,4.74 -11.69,1.07 -11.42,-2.72 -9.95,-6.22 -7.44,-9.08 -4.16,-10.98 -0.43,-11.73 3.33,-11.25 6.75,-9.60 9.47,-6.94 11.19,-3.55 11.74,0.20 11.06,3.94 9.22,7.26 6.42,9.83 2.94,11.36 -0.84,11.71 -4.53,10.83 -7.75,8.81 -10.16,5.88 -11.50,2.32 -11.64,-1.47 -10.57,-5.11 -8.38,-8.22 -5.32,-10.46 -1.70,-11.61 0.21,-11.89 9.11,-11.66 29.77,-8.12 44.15,6.54 46.74,29.30 46.65,52.32 46.59,66.46 46.42,70.39 45.75,73.08 44.46,75.53 42.63,77.61 40.34,79.18 37.75,80.17 35.00,80.50 32.25,80.17 29.66,79.18 27.37,77.61 25.54,75.53 24.25,73.08 23.58,70.39 Z" fill="#FFFFFF" stroke="transparent" stroke-width="0" stroke-linejoin="round" stroke-linecap="round" pointer-events="all" transform="translate(1099, 253)"/><path id="path_c24952fd-deff-428c-301b-f2d346e7d1e0" d="M-11.58,134.00 Q-11.60,128.93 -11.65,116.24 T-11.74,91.71 -11.82,67.65 -11.47,43.49 -11.03,20.10 -10.95,4.31 -10.62,-1.92 -9.40,-5.52 -7.09,-8.55 -3.93,-10.69 -0.26,-11.71 3.54,-11.50 7.08,-10.08 9.98,-7.61 11.94,-4.35 12.76,-0.63 12.34,3.16 10.74,6.62 8.12,9.38 4.75,11.16 0.99,11.77 -2.77,11.15 -6.14,9.36 -8.75,6.60 -10.35,3.14 -10.76,-0.65 -9.93,-4.37 -7.96,-7.63 -5.06,-10.09 -1.52,-11.50 2.29,-11.70 5.96,-10.68 9.11,-8.54 11.41,-5.50 12.62,-1.89 12.93,0.01 12.94,4.34 12.84,20.38 12.29,43.76 11.82,67.65 11.74,91.71 11.65,116.24 11.59,131.46 11.42,135.39 10.75,138.08 9.46,140.53 7.63,142.61 5.34,144.18 2.75,145.17 -0.00,145.50 -2.75,145.17 -5.34,144.18 -7.63,142.61 -9.46,140.53 -10.75,138.08 -11.42,135.39 Z" fill="#FFFFFF" stroke="transparent" stroke-width="0" stroke-linejoin="round" stroke-linecap="round" pointer-events="all" transform="translate(962, 195)"/><path id="path_e85f7182-2347-422d-06bb-1777d9af87c0" d="M0.00,-11.59 Q8.08,-11.60 21.15,-11.63 T46.23,-11.69 69.70,-11.74 93.47,-11.79 116.38,-11.82 128.89,-11.52 132.47,-10.31 135.47,-8.03 137.59,-4.90 138.60,-1.26 138.40,2.51 137.00,6.02 134.56,8.90 131.32,10.84 127.63,11.66 123.88,11.25 120.45,9.66 117.71,7.06 115.94,3.73 115.33,-0.00 115.94,-3.73 117.71,-7.07 120.45,-9.66 123.88,-11.25 127.63,-11.66 131.32,-10.84 134.56,-8.89 137.00,-6.02 138.40,-2.51 138.60,1.26 137.59,4.90 135.47,8.03 132.46,10.31 128.88,11.52 127.00,11.83 116.38,11.82 93.47,11.79 69.70,11.74 46.23,11.69 21.15,11.63 4.04,11.60 -1.39,11.42 -4.08,10.76 -6.54,9.47 -8.61,7.63 -10.19,5.35 -11.17,2.75 -11.51,-0.00 -11.17,-2.75 -10.19,-5.35 -8.61,-7.63 -6.54,-9.47 -4.08,-10.76 -1.39,-11.42 Z" fill="#FFFFFF" stroke="transparent" stroke-width="0" stroke-linejoin="round" stroke-linecap="round" pointer-events="all" transform="translate(1239, 427)"/><path id="path_355e8a25-6bea-4249-1785-e88ad44caa73" d="M-11.58,48.00 Q-11.60,43.24 -11.65,31.00 T-11.69,9.37 -11.38,-1.87 -10.19,-5.40 -7.93,-8.38 -4.84,-10.47 -1.25,-11.47 2.48,-11.27 5.95,-9.88 8.79,-7.47 10.72,-4.27 11.52,-0.62 11.12,3.09 9.55,6.48 6.98,9.18 3.68,10.93 -0.00,11.54 -3.69,10.93 -6.98,9.18 -9.55,6.47 -11.12,3.08 -11.52,-0.63 -10.72,-4.27 -8.79,-7.47 -5.95,-9.89 -2.48,-11.27 1.25,-11.47 4.85,-10.47 7.94,-8.37 10.19,-5.40 11.38,-1.86 11.69,0.00 11.69,9.37 11.65,31.00 11.59,45.62 11.41,49.39 10.75,52.08 9.46,54.53 7.62,56.61 5.34,58.18 2.75,59.16 -0.00,59.50 -2.75,59.16 -5.34,58.18 -7.63,56.61 -9.46,54.53 -10.75,52.08 -11.41,49.38 Z" fill="#FFFFFF" stroke="transparent" stroke-width="0" stroke-linejoin="round" stroke-linecap="round" pointer-events="all" transform="translate(1366, 379)"/><path id="path_ada5848c-38e9-4796-064c-9ab9dba71b4c" d="M0.00,-10.58 Q7.77,-10.59 20.49,-10.60 T45.48,-10.63 69.51,-10.66 94.52,-10.71 119.45,-10.76 143.03,-10.81 165.16,-11.35 177.33,-11.64 180.98,-10.61 184.11,-8.46 186.38,-5.43 187.57,-1.83 187.55,1.96 186.32,5.55 184.01,8.55 180.86,10.66 177.20,11.66 173.42,11.43 169.90,10.01 167.03,7.54 165.09,4.28 164.30,0.57 164.73,-3.20 166.34,-6.63 168.96,-9.37 172.32,-11.13 176.07,-11.72 179.80,-11.08 183.14,-9.29 185.74,-6.52 187.31,-3.07 187.70,0.70 186.86,4.40 184.89,7.64 181.98,10.08 178.45,11.46 176.58,11.86 165.74,12.35 143.03,12.81 119.45,12.76 94.52,12.71 69.51,12.66 45.48,12.63 20.49,12.60 3.88,12.58 -1.39,12.41 -4.08,11.75 -6.53,10.46 -8.60,8.62 -10.18,6.34 -11.16,3.75 -11.49,1.00 -11.16,-1.75 -10.18,-4.34 -8.60,-6.62 -6.53,-8.46 -4.07,-9.75 -1.38,-10.41 Z" fill="#FFFFFF" stroke="transparent" stroke-width="0" stroke-linejoin="round" stroke-linecap="round" pointer-events="all" transform="translate(1240, 477)"/><path id="path_32c9e550-ba9f-483a-3196-cede250f1ede" d="M11.57,0.00 Q11.59,3.96 11.89,16.19 T12.47,38.10 12.48,49.66 11.35,53.24 9.13,56.27 6.06,58.43 2.47,59.50 -1.28,59.37 -4.79,58.05 -7.70,55.67 -9.69,52.49 -10.57,48.84 -10.23,45.11 -8.72,41.67 -6.19,38.90 -2.91,37.08 0.78,36.41 4.50,36.94 7.85,38.64 10.48,41.32 12.11,44.69 12.59,48.41 11.85,52.09 9.98,55.34 7.16,57.82 3.70,59.28 -0.04,59.55 -3.67,58.61 -6.82,56.56 -9.14,53.62 -10.41,50.09 -10.75,48.22 -11.01,38.02 -11.43,15.89 -11.58,1.98 -11.40,-1.38 -10.74,-4.07 -9.45,-6.53 -7.62,-8.60 -5.34,-10.17 -2.75,-11.15 0.00,-11.49 2.75,-11.15 5.34,-10.17 7.62,-8.60 9.46,-6.53 10.74,-4.07 11.40,-1.38 Z" fill="#FFFFFF" stroke="transparent" stroke-width="0" stroke-linejoin="round" stroke-linecap="round" pointer-events="all" transform="translate(1416, 477)"/><path id="path_d2f39afa-2b0e-483b-3c08-8867a718fabb" d="M0.00,-11.58 Q3.96,-11.59 15.47,-11.65 T38.90,-11.75 62.41,-11.82 75.89,-11.54 79.48,-10.33 82.49,-8.04 84.61,-4.91 85.63,-1.26 85.42,2.51 84.02,6.03 81.57,8.91 78.33,10.86 74.63,11.68 70.87,11.27 67.44,9.68 64.69,7.08 62.92,3.73 62.31,-0.00 62.92,-3.74 64.69,-7.08 67.44,-9.68 70.87,-11.27 74.64,-11.68 78.33,-10.86 81.57,-8.91 84.02,-6.03 85.42,-2.51 85.63,1.27 84.61,4.91 82.49,8.04 79.48,10.33 75.89,11.54 74.00,11.85 62.41,11.82 38.90,11.75 15.47,11.65 1.98,11.58 -1.39,11.41 -4.08,10.74 -6.53,9.46 -8.60,7.62 -10.18,5.34 -11.16,2.75 -11.49,-0.00 -11.16,-2.75 -10.17,-5.34 -8.60,-7.62 -6.53,-9.46 -4.07,-10.75 -1.38,-11.41 Z" fill="#FFFFFF" stroke="transparent" stroke-width="0" stroke-linejoin="round" stroke-linecap="round" pointer-events="all" transform="translate(1236, 572)"/><path id="path_3c4cc3eb-e77f-4a2b-3760-ebb03a09a551" d="M-11.56,52.00 Q-11.58,48.99 -11.64,37.05 T-11.74,12.56 -11.47,-1.88 -10.27,-5.44 -7.99,-8.44 -4.88,-10.55 -1.26,-11.55 2.50,-11.35 5.99,-9.96 8.86,-7.52 10.80,-4.30 11.60,-0.63 11.20,3.11 9.62,6.52 7.03,9.25 3.71,11.01 -0.00,11.62 -3.71,11.01 -7.03,9.25 -9.62,6.52 -11.20,3.11 -11.60,-0.63 -10.79,-4.30 -8.86,-7.53 -5.99,-9.96 -2.50,-11.35 1.26,-11.55 4.88,-10.55 7.99,-8.43 10.27,-5.44 11.47,-1.88 11.78,0.00 11.74,12.56 11.64,37.05 11.57,50.49 11.39,53.38 10.73,56.07 9.45,58.52 7.61,60.59 5.33,62.16 2.75,63.14 -0.00,63.48 -2.75,63.14 -5.33,62.16 -7.61,60.59 -9.45,58.52 -10.73,56.07 -11.39,53.38 Z" fill="#FFFFFF" stroke="transparent" stroke-width="0" stroke-linejoin="round" stroke-linecap="round" pointer-events="all" transform="translate(1310, 520)"/><path id="path_61528a99-4939-47ba-1f1a-99a7bd1a1f27" d="M12.58,0.60 Q12.76,5.20 12.83,17.44 T12.51,42.41 12.02,66.96 12.73,91.31 14.52,115.24 15.69,137.23 15.63,149.73 14.47,153.36 12.21,156.42 9.09,158.60 5.44,159.67 1.64,159.52 -1.92,158.16 -4.85,155.74 -6.86,152.51 -7.73,148.81 -7.37,145.02 -5.83,141.54 -3.25,138.74 0.08,136.91 3.83,136.24 7.59,136.80 10.98,138.54 13.64,141.26 15.28,144.69 15.75,148.47 14.99,152.20 13.07,155.48 10.21,157.99 6.69,159.45 2.90,159.71 -0.78,158.74 -3.96,156.65 -6.31,153.66 -7.58,150.07 -7.91,148.17 -8.17,137.11 -9.39,114.62 -11.06,90.92 -11.58,66.64 -10.95,42.05 -10.47,17.73 -10.51,3.70 -10.46,0.01 -9.89,-2.71 -8.69,-5.20 -6.92,-7.34 -4.69,-9.00 -2.14,-10.07 0.60,-10.50 3.37,-10.26 5.99,-9.36 8.33,-7.87 10.24,-5.86 11.61,-3.45 12.37,-0.78 Z" fill="#FFFFFF" stroke="transparent" stroke-width="0" stroke-linejoin="round" stroke-linecap="round" pointer-events="all" transform="translate(1135, 678)"/><path id="path_d7df35eb-1b80-4a3d-36cf-8c886a42a7e3" d="M48.00,11.57 Q44.51,11.58 32.99,11.96 T11.16,13.03 -1.03,13.56 -4.67,12.62 -7.82,10.58 -10.15,7.63 -11.41,4.10 -11.49,0.34 -10.36,-3.24 -8.14,-6.27 -5.08,-8.44 -1.48,-9.51 2.28,-9.38 5.79,-8.06 8.70,-5.68 10.70,-2.50 11.57,1.15 11.24,4.89 9.73,8.33 7.20,11.10 3.92,12.92 0.22,13.60 -3.49,13.07 -6.84,11.37 -9.48,8.70 -11.12,5.32 -11.60,1.59 -10.86,-2.09 -8.99,-5.34 -6.17,-7.83 -2.71,-9.28 -0.86,-9.73 9.78,-10.39 32.46,-11.31 46.26,-11.58 49.38,-11.40 52.07,-10.74 54.52,-9.45 56.60,-7.61 58.17,-5.34 59.15,-2.75 59.48,0.00 59.15,2.75 58.17,5.34 56.59,7.62 54.52,9.45 52.07,10.74 49.38,11.40 Z" fill="#FFFFFF" stroke="transparent" stroke-width="0" stroke-linejoin="round" stroke-linecap="round" pointer-events="all" transform="translate(1091, 826)"/><path id="path_d0486322-fc5a-4d1a-381e-08cceb28fd33" d="M11.58,0.00 Q11.60,5.39 11.65,18.09 T11.75,42.42 11.83,65.54 11.87,81.52 11.56,87.89 10.35,91.49 8.05,94.50 4.92,96.63 1.27,97.64 -2.52,97.44 -6.04,96.03 -8.93,93.58 -10.88,90.33 -11.69,86.63 -11.28,82.87 -9.69,79.43 -7.09,76.68 -3.74,74.90 0.00,74.29 3.74,74.90 7.09,76.68 9.69,79.43 11.28,82.87 11.69,86.64 10.88,90.34 8.92,93.58 6.04,96.04 2.51,97.44 -1.27,97.64 -4.92,96.63 -8.06,94.50 -10.35,91.48 -11.56,87.89 -11.87,86.00 -11.87,81.52 -11.83,65.54 -11.75,42.42 -11.65,18.09 -11.59,2.69 -11.41,-1.39 -10.75,-4.08 -9.46,-6.53 -7.62,-8.61 -5.34,-10.18 -2.75,-11.16 0.00,-11.50 2.75,-11.16 5.34,-10.18 7.63,-8.61 9.46,-6.53 10.75,-4.08 11.42,-1.38 Z" fill="#FFFFFF" stroke="transparent" stroke-width="0" stroke-linejoin="round" stroke-linecap="round" pointer-events="all" transform="translate(1079, 677)"/><path id="path_98998d09-6742-4875-0aac-b4fce8764036" d="M11.58,0.00 Q11.60,4.91 11.65,16.72 T11.74,40.39 11.82,65.62 11.54,80.89 10.33,84.48 8.04,87.49 4.91,89.61 1.26,90.62 -2.51,90.42 -6.03,89.02 -8.91,86.57 -10.86,83.33 -11.67,79.63 -11.27,75.87 -9.68,72.44 -7.07,69.69 -3.73,67.92 0.00,67.31 3.73,67.92 7.08,69.69 9.68,72.44 11.27,75.87 11.67,79.64 10.86,83.33 8.91,86.57 6.03,89.02 2.51,90.42 -1.27,90.62 -4.91,89.61 -8.04,87.49 -10.33,84.47 -11.54,80.89 -11.85,79.00 -11.82,65.62 -11.74,40.39 -11.65,16.72 -11.59,2.46 -11.41,-1.39 -10.75,-4.08 -9.46,-6.53 -7.62,-8.61 -5.34,-10.18 -2.75,-11.16 0.00,-11.50 2.75,-11.16 5.34,-10.18 7.62,-8.60 9.46,-6.53 10.75,-4.08 11.41,-1.38 Z" fill="#FFFFFF" stroke="transparent" stroke-width="0" stroke-linejoin="round" stroke-linecap="round" pointer-events="all" transform="translate(979, 681)"/><path id="path_56313478-2d7e-4838-3703-d0897f3fabd3" d="M0.00,-11.57 Q3.49,-11.58 15.15,-11.64 T32.41,-11.70 39.87,-11.39 43.41,-10.20 46.38,-7.94 48.48,-4.85 49.48,-1.25 49.27,2.48 47.89,5.95 45.47,8.80 42.27,10.72 38.62,11.53 34.91,11.12 31.52,9.55 28.81,6.98 27.06,3.68 26.46,-0.00 27.06,-3.69 28.81,-6.99 31.52,-9.56 34.91,-11.12 38.63,-11.53 42.27,-10.72 45.48,-8.80 47.89,-5.95 49.27,-2.48 49.48,1.25 48.48,4.85 46.38,7.94 43.40,10.20 39.86,11.39 38.00,11.70 32.41,11.70 15.15,11.64 1.74,11.58 -1.38,11.40 -4.07,10.74 -6.52,9.45 -8.59,7.61 -10.17,5.34 -11.15,2.75 -11.48,-0.00 -11.15,-2.75 -10.17,-5.34 -8.59,-7.61 -6.52,-9.45 -4.07,-10.74 -1.38,-11.40 Z" fill="#FFFFFF" stroke="transparent" stroke-width="0" stroke-linejoin="round" stroke-linecap="round" pointer-events="all" transform="translate(979, 760)"/><path id="path_e963f7a0-500e-4f9c-2c44-50f2f4e777c1" d="M159.00,16.59 Q154.25,16.61 141.69,16.29 T117.61,14.91 93.78,13.10 69.14,12.16 45.06,11.96 21.91,11.95 5.25,11.93 -1.90,11.60 -5.51,10.38 -8.53,8.08 -10.67,4.93 -11.68,1.27 -11.48,-2.53 -10.07,-6.06 -7.61,-8.96 -4.35,-10.92 -0.63,-11.73 3.15,-11.32 6.60,-9.72 9.36,-7.11 11.14,-3.75 11.75,0.00 11.13,3.76 9.35,7.11 6.59,9.73 3.14,11.32 -0.64,11.73 -4.35,10.91 -7.61,8.95 -10.07,6.05 -11.48,2.52 -11.68,-1.27 -10.66,-4.94 -8.53,-8.08 -5.50,-10.38 -1.90,-11.60 0.00,-11.91 15.30,-11.91 42.45,-11.85 66.85,-11.56 92.01,-10.62 117.43,-8.62 142.24,-6.99 156.62,-6.60 160.39,-6.42 163.08,-5.76 165.54,-4.47 167.61,-2.63 169.19,-0.35 170.17,2.25 170.51,5.00 170.17,7.75 169.19,10.35 167.61,12.63 165.54,14.47 163.08,15.76 160.39,16.42 Z" fill="#FFFFFF" stroke="transparent" stroke-width="0" stroke-linejoin="round" stroke-linecap="round" pointer-events="all" transform="translate(724, 564)"/><path id="path_23bf68d2-e38b-4abd-25a5-cc0241ce5740" d="M-11.58,56.00 Q-11.60,51.88 -10.75,39.56 T-7.20,12.64 -3.89,-3.74 -2.13,-7.02 0.59,-9.57 3.98,-11.11 7.69,-11.49 11.32,-10.67 14.50,-8.73 16.90,-5.88 18.26,-2.41 18.44,1.31 17.42,4.89 15.31,7.97 12.33,10.20 8.80,11.37 5.07,11.35 1.55,10.14 -1.41,7.87 -3.48,4.77 -4.45,1.18 -4.23,-2.54 -2.83,-5.99 -0.40,-8.82 2.80,-10.72 6.44,-11.50 10.15,-11.08 13.52,-9.49 16.21,-6.91 17.93,-3.61 18.51,0.07 18.50,1.95 16.11,15.25 12.66,40.21 11.59,53.94 11.41,57.39 10.75,60.08 9.46,62.53 7.62,64.61 5.34,66.18 2.75,67.16 -0.00,67.50 -2.75,67.16 -5.34,66.18 -7.62,64.60 -9.46,62.53 -10.75,60.08 -11.41,57.38 Z" fill="#FFFFFF" stroke="transparent" stroke-width="0" stroke-linejoin="round" stroke-linecap="round" pointer-events="all" transform="translate(724, 508)"/><path id="path_0b6df94d-556d-40ab-3b22-1d605911318d" d="M83.00,11.57 Q79.35,11.59 67.31,11.65 T43.49,11.75 20.09,11.84 4.23,11.87 -1.90,11.56 -5.49,10.35 -8.50,8.06 -10.63,4.92 -11.65,1.27 -11.44,-2.52 -10.04,-6.04 -7.58,-8.93 -4.33,-10.88 -0.63,-11.70 3.14,-11.29 6.57,-9.69 9.33,-7.09 11.10,-3.74 11.71,0.00 11.10,3.74 9.32,7.09 6.57,9.70 3.13,11.29 -0.64,11.70 -4.34,10.88 -7.59,8.93 -10.04,6.04 -11.44,2.52 -11.64,-1.27 -10.63,-4.92 -8.50,-8.06 -5.48,-10.35 -1.89,-11.56 0.00,-11.87 4.23,-11.87 20.09,-11.84 43.49,-11.75 67.31,-11.65 81.18,-11.58 84.38,-11.40 87.07,-10.74 89.53,-9.45 91.60,-7.62 93.17,-5.34 94.15,-2.75 94.49,0.00 94.15,2.75 93.17,5.34 91.60,7.62 89.52,9.45 87.07,10.74 84.38,11.40 Z" fill="#FFFFFF" stroke="transparent" stroke-width="0" stroke-linejoin="round" stroke-linecap="round" pointer-events="all" transform="translate(798, 454)"/><path id="path_f776236b-d51a-4155-13e2-d1e6cefc0dad" d="M15.47,1.50 Q15.02,5.14 13.68,17.07 T12.06,42.04 11.46,56.98 10.23,60.53 7.93,63.51 4.80,65.60 1.16,66.57 -2.60,66.34 -6.08,64.92 -8.93,62.46 -10.84,59.21 -11.62,55.53 -11.18,51.79 -9.57,48.39 -6.96,45.68 -3.62,43.95 0.10,43.37 3.81,44.01 7.12,45.80 9.68,48.55 11.23,51.98 11.61,55.73 10.77,59.40 8.80,62.61 5.91,65.02 2.40,66.38 -1.36,66.55 -4.98,65.52 -8.07,63.38 -10.32,60.36 -11.50,56.78 -11.79,54.90 -11.33,40.20 -9.42,13.82 -7.72,0.32 -7.13,-2.85 -6.12,-5.43 -4.53,-7.69 -2.44,-9.51 0.02,-10.78 2.72,-11.42 5.49,-11.39 8.17,-10.70 10.61,-9.40 12.67,-7.54 14.22,-5.25 15.18,-2.65 15.49,0.10 Z" fill="#FFFFFF" stroke="transparent" stroke-width="0" stroke-linejoin="round" stroke-linecap="round" pointer-events="all" transform="translate(794, 454)"/><path id="path_1d4e29d5-97bc-4167-1d67-80bd976382f8" d="M181.11,18.56 Q174.93,18.10 160.65,16.91 T134.33,14.71 110.59,13.01 87.22,12.12 63.28,11.93 39.46,11.95 13.95,11.97 -1.91,11.67 -5.54,10.45 -8.59,8.13 -10.73,4.96 -11.76,1.28 -11.55,-2.54 -10.13,-6.10 -7.65,-9.01 -4.38,-10.99 -0.64,-11.81 3.16,-11.39 6.64,-9.79 9.41,-7.15 11.21,-3.77 11.83,0.00 11.21,3.78 9.41,7.16 6.63,9.79 3.16,11.39 -0.64,11.81 -4.38,10.98 -7.66,9.01 -10.13,6.09 -11.55,2.54 -11.76,-1.28 -10.73,-4.97 -8.58,-8.13 -5.54,-10.45 -1.91,-11.67 0.00,-11.98 13.96,-11.97 39.47,-11.94 63.36,-11.87 87.78,-11.55 112.09,-10.48 136.52,-8.60 162.72,-6.29 179.80,-4.81 184.26,-4.29 186.89,-3.42 189.25,-1.94 191.17,0.05 192.57,2.45 193.35,5.11 193.48,7.88 192.93,10.60 191.75,13.11 190.00,15.27 187.79,16.95 185.24,18.04 182.51,18.50 Z" fill="#FFFFFF" stroke="transparent" stroke-width="0" stroke-linejoin="round" stroke-linecap="round" pointer-events="all" transform="translate(699, 389)"/></svg>