<svg xmlns="http://www.w3.org/2000/svg" viewBox="684 130 738 720" width="120" height="120"><path id="path_5a6fc7f8-2602-485c-36c9-ea4a8d039c8b" d="M141.50,16.56 Q137.85,16.42 126.47,15.65 T103.48,13.64 80.28,12.16 56.97,12.42 35.27,18.60 21.49,35.38 16.98,58.75 16.16,82.88 16.06,106.18 16.05,129.46 15.72,153.69 14.61,178.72 13.10,203.48 12.24,227.64 17.82,250.15 34.61,264.89 57.73,270.20 81.27,271.88 105.21,273.02 130.66,273.67 156.56,273.91 181.19,273.99 205.56,274.01 230.19,274.01 253.57,274.01 276.44,274.00 294.13,263.67 300.61,241.67 301.56,218.20 303.25,194.78 304.54,170.96 304.89,147.12 304.57,122.38 304.14,97.49 303.90,74.01 301.96,50.90 291.42,30.90 271.15,20.45 247.44,18.35 223.18,18.11 198.89,18.06 174.86,18.06 153.54,18.06 142.08,17.74 138.43,16.51 135.37,14.18 133.21,10.99 132.18,7.29 132.39,3.44 133.81,-0.13 136.30,-3.06 139.60,-5.05 143.36,-5.88 147.18,-5.46 150.68,-3.84 153.47,-1.20 155.27,2.20 155.89,6.00 155.27,9.80 153.47,13.20 150.67,15.84 147.18,17.46 143.35,17.88 139.60,17.05 136.30,15.06 133.81,12.13 132.38,8.55 132.18,4.71 133.21,1.00 135.37,-2.18 138.43,-4.51 142.08,-5.74 144.00,-6.05 150.29,-6.06 168.29,-6.06 191.59,-6.04 215.37,-6.02 238.97,-5.91 262.11,-5.19 285.58,-1.25 306.71,9.17 320.47,27.30 326.28,49.65 327.91,73.27 328.19,97.29 328.66,121.02 328.99,144.91 328.73,168.24 327.62,191.57 325.86,214.89 324.79,237.91 323.62,261.05 316.43,283.06 298.11,295.77 274.26,298.00 250.76,297.99 226.74,297.98 201.98,297.98 176.41,297.95 151.74,297.87 128.63,297.64 104.14,297.00 78.15,295.82 52.24,293.84 27.48,288.25 5.80,276.30 -8.01,257.84 -11.94,235.30 -11.43,212.06 -10.16,188.20 -8.68,163.58 -8.04,139.67 -8.03,116.02 -7.97,91.63 -7.63,67.71 -5.78,44.72 0.40,22.35 13.75,3.88 33.34,-7.33 56.52,-11.41 80.41,-11.51 103.32,-9.93 126.75,-7.69 140.68,-6.65 143.88,-6.34 146.54,-5.56 148.93,-4.16 150.92,-2.24 152.40,0.11 153.27,2.74 153.48,5.50 153.03,8.23 151.93,10.78 150.26,12.99 148.11,14.73 145.60,15.91 142.89,16.46 Z" fill="#FFFFFF" stroke="transparent" stroke-width="0" stroke-linejoin="round" stroke-linecap="round" pointer-events="all" transform="translate(888, 325)"/><path id="path_b70d0364-8e9d-4e77-0189-941fab729bde" d="M64.00,11.56 Q61.15,11.58 49.23,11.64 T26.25,15.01 13.67,29.74 12.85,52.62 25.19,64.39 48.73,65.25 72.02,65.86 87.11,54.79 90.86,31.79 78.89,16.00 64.95,11.75 61.31,10.48 58.26,8.11 56.12,4.90 55.13,1.17 55.38,-2.68 56.84,-6.25 59.37,-9.17 62.70,-11.13 66.48,-11.92 70.31,-11.46 73.80,-9.80 76.57,-7.12 78.34,-3.69 78.93,0.12 78.26,3.93 76.42,7.32 73.59,9.94 70.07,11.53 66.23,11.90 62.47,11.03 59.18,9.01 56.72,6.04 55.32,2.44 55.16,-1.41 56.23,-5.12 58.43,-8.29 61.52,-10.60 65.19,-11.79 67.12,-12.09 72.88,-12.02 89.92,-9.71 108.01,2.00 114.94,24.01 114.63,48.10 111.54,71.40 97.31,86.59 73.98,89.98 50.28,89.37 26.95,87.77 5.07,82.00 -8.67,65.66 -11.58,42.30 -8.66,19.02 1.61,-1.07 23.30,-10.66 49.23,-11.64 62.57,-11.57 65.38,-11.39 68.07,-10.73 70.52,-9.44 72.59,-7.61 74.16,-5.33 75.14,-2.75 75.48,0.00 75.14,2.75 74.16,5.33 72.59,7.61 70.52,9.44 68.07,10.73 65.38,11.39 Z" fill="#FFFFFF" stroke="transparent" stroke-width="0" stroke-linejoin="round" stroke-linecap="round" pointer-events="all" transform="translate(980, 428)"/><path id="path_23c057ec-cc5f-4c19-33a6-3931b56232af" d="M87.00,11.56 Q83.83,11.58 72.40,11.64 T49.38,11.75 28.98,19.04 19.40,37.67 17.17,60.81 14.47,84.06 13.05,107.19 25.11,121.26 48.67,126.57 71.41,130.13 94.64,130.86 118.33,131.24 141.62,131.64 153.44,120.30 154.53,97.47 156.70,74.51 158.53,51.23 152.70,29.75 135.23,18.38 112.11,16.44 96.64,16.12 91.05,15.78 87.39,14.54 84.32,12.20 82.16,9.00 81.13,5.27 81.34,1.42 82.78,-2.17 85.28,-5.11 88.60,-7.10 92.37,-7.92 96.21,-7.50 99.71,-5.87 102.52,-3.21 104.32,0.20 104.94,4.02 104.31,7.83 102.49,11.24 99.69,13.89 96.18,15.51 92.34,15.92 88.56,15.08 85.26,13.09 82.76,10.14 81.34,6.55 81.13,2.69 82.17,-1.03 84.35,-4.22 87.42,-6.56 91.09,-7.79 93.02,-8.10 99.19,-8.10 116.91,-7.60 140.19,-5.36 162.48,1.79 177.93,18.05 182.92,40.97 181.79,64.56 179.35,87.56 177.97,110.98 174.90,134.04 161.20,150.62 138.97,155.86 115.88,155.36 91.87,155.02 67.56,154.09 44.47,150.38 21.80,145.68 0.70,136.67 -10.33,117.52 -10.72,93.97 -8.16,71.05 -5.67,48.12 -2.79,25.16 6.07,3.66 25.40,-9.12 49.38,-11.75 72.40,-11.64 85.41,-11.57 88.38,-11.40 91.07,-10.73 93.52,-9.45 95.59,-7.61 97.16,-5.33 98.15,-2.75 98.48,0.00 98.15,2.75 97.16,5.34 95.59,7.61 93.52,9.45 91.07,10.73 88.38,11.40 Z" fill="#FFFFFF" stroke="transparent" stroke-width="0" stroke-linejoin="round" stroke-linecap="round" pointer-events="all" transform="translate(948, 394)"/><path id="path_29cbe0bf-2455-4194-0ec6-78b0db61048e" d="M-8.82,11.53 Q-7.09,9.46 1.52,1.70 T21.31,-3.69 33.04,10.29 23.64,27.54 9.66,34.23 3.75,35.55 -0.03,35.51 -3.60,34.26 -6.58,31.93 -8.66,28.78 -9.63,25.12 -9.38,21.35 -7.94,17.85 -5.46,15.00 -2.19,13.09 1.51,12.32 5.26,12.78 8.67,14.41 11.39,17.04 13.12,20.40 13.68,24.14 13.03,27.87 11.22,31.18 8.44,33.75 4.99,35.30 1.22,35.66 -2.46,34.80 -5.67,32.81 -8.09,29.90 -9.44,26.37 -9.60,22.59 -8.54,18.96 -6.38,15.86 -3.35,13.61 -1.64,12.73 4.47,18.57 9.70,25.44 7.80,27.41 5.56,29.04 3.00,30.07 0.26,30.47 -2.49,30.20 -5.10,29.28 -7.41,27.76 -9.29,25.73 -10.63,23.31 -11.36,20.64 -11.42,17.88 -10.82,15.18 -9.59,12.70 Z" fill="#FFFFFF" stroke="transparent" stroke-width="0" stroke-linejoin="round" stroke-linecap="round" pointer-events="all" transform="translate(1138, 366)"/><path id="path_77b5671f-1e27-4759-28e0-d4a19ced0816" d="M20.28,19.40 Q18.06,17.83 20.43,14.02 T24.66,10.64 28.15,12.09 30.99,14.57 32.89,17.83 33.66,21.53 33.20,25.27 31.57,28.68 28.93,31.38 25.57,33.10 21.84,33.66 18.13,33.00 14.82,31.19 12.26,28.41 10.72,24.97 10.36,21.21 11.22,17.54 13.21,14.33 16.12,11.92 19.65,10.57 23.42,10.42 27.04,11.48 30.14,13.64 32.38,16.68 33.54,20.27 33.48,24.04 32.23,27.60 29.90,30.58 26.75,32.65 23.10,33.61 21.20,33.79 9.06,31.10 -6.17,16.82 -0.66,-2.35 19.72,-5.47 32.61,-0.20 34.74,1.54 36.54,3.64 37.79,6.11 38.41,8.80 38.36,11.57 37.66,14.24 36.33,16.67 34.47,18.71 32.17,20.24 29.56,21.18 26.81,21.47 24.07,21.09 21.51,20.07 Z" fill="#FFFFFF" stroke="transparent" stroke-width="0" stroke-linejoin="round" stroke-linecap="round" pointer-events="all" transform="translate(929, 356)"/><path id="path_81deabd9-49ae-40c1-23e0-3aed59697c18" d="M21.28,20.40 Q19.05,18.83 22.48,13.52 T27.77,8.65 31.25,10.13 34.07,12.64 35.95,15.92 36.67,19.63 36.18,23.38 34.52,26.77 31.85,29.46 28.48,31.15 24.73,31.68 21.02,30.98 17.72,29.13 15.19,26.33 13.68,22.87 13.35,19.10 14.25,15.43 16.27,12.24 19.21,9.86 22.75,8.54 26.53,8.42 30.15,9.51 33.22,11.71 35.44,14.77 36.57,18.37 36.48,22.15 35.19,25.71 32.84,28.66 29.66,30.71 26.00,31.64 24.09,31.80 10.63,28.12 -6.05,12.79 1.28,-4.42 22.17,-4.99 33.61,0.80 35.74,2.54 37.55,4.64 38.79,7.11 39.41,9.80 39.36,12.57 38.66,15.24 37.34,17.67 35.47,19.71 33.17,21.24 30.57,22.18 27.81,22.47 25.07,22.09 22.50,21.07 Z" fill="#FFFFFF" stroke="transparent" stroke-width="0" stroke-linejoin="round" stroke-linecap="round" pointer-events="all" transform="translate(1140, 554)"/><path id="path_3effda22-ef30-4268-3d5a-6f69bd0ff95d" d="M19.00,12.55 Q16.31,12.57 13.31,5.38 T10.91,-3.63 12.65,-6.98 15.36,-9.60 18.78,-11.21 22.53,-11.66 26.22,-10.88 29.47,-8.96 31.94,-6.11 33.37,-2.61 33.61,1.16 32.63,4.80 30.54,7.95 27.56,10.26 23.99,11.50 20.21,11.53 16.63,10.36 13.60,8.10 11.45,4.99 10.41,1.36 10.58,-2.41 11.95,-5.93 14.37,-8.83 17.59,-10.80 21.27,-11.65 25.02,-11.27 28.46,-9.72 31.23,-7.14 33.02,-3.82 33.67,-0.10 33.69,1.81 32.41,7.98 22.64,22.28 2.85,26.01 -6.72,9.82 5.65,-6.27 17.65,-10.56 20.38,-10.38 23.07,-9.72 25.51,-8.44 27.58,-6.60 29.15,-4.33 30.13,-1.74 30.47,1.00 30.13,3.74 29.15,6.33 27.58,8.60 25.51,10.44 23.07,11.72 20.38,12.38 Z" fill="#FFFFFF" stroke="transparent" stroke-width="0" stroke-linejoin="round" stroke-linecap="round" pointer-events="all" transform="translate(923, 552)"/><path id="path_74e631ec-042f-437e-3108-a91f0d3b93c1" d="M-11.59,148.00 Q-11.61,143.09 -11.65,131.02 T-11.73,106.63 -11.80,81.68 -11.57,56.68 -11.17,32.59 -10.94,10.41 -10.53,-1.95 -9.30,-5.52 -7.00,-8.52 -3.86,-10.63 -0.21,-11.63 3.57,-11.40 7.07,-9.99 9.94,-7.52 11.88,-4.27 12.67,-0.58 12.25,3.18 10.64,6.61 8.03,9.34 4.68,11.09 0.94,11.69 -2.79,11.06 -6.12,9.27 -8.71,6.51 -10.28,3.07 -10.67,-0.69 -9.84,-4.38 -7.87,-7.61 -4.98,-10.05 -1.46,-11.43 2.32,-11.61 5.96,-10.58 9.08,-8.45 11.35,-5.42 12.54,-1.83 12.84,0.06 12.83,10.55 12.64,33.04 12.15,57.04 11.80,81.68 11.73,106.63 11.65,131.02 11.60,145.54 11.42,149.39 10.76,152.08 9.47,154.54 7.63,156.61 5.35,158.19 2.75,159.17 -0.00,159.50 -2.75,159.17 -5.35,158.19 -7.63,156.61 -9.47,154.53 -10.76,152.08 -11.42,149.39 Z" fill="#FFFFFF" stroke="transparent" stroke-width="0" stroke-linejoin="round" stroke-linecap="round" pointer-events="all" transform="translate(984, 170)"/><path id="path_d81cf65d-874c-4624-1a3a-e2f0096cd57a" d="M0.00,-11.57 Q3.96,-11.59 16.09,-11.65 T34.11,-11.70 41.87,-11.39 45.41,-10.20 48.38,-7.94 50.47,-4.85 51.47,-1.25 51.27,2.48 49.89,5.95 47.47,8.80 44.27,10.72 40.62,11.52 36.91,11.12 33.52,9.55 30.81,6.98 29.06,3.68 28.46,-0.00 29.06,-3.69 30.81,-6.99 33.53,-9.55 36.91,-11.12 40.63,-11.52 44.27,-10.72 47.47,-8.79 49.89,-5.95 51.27,-2.48 51.47,1.25 50.47,4.85 48.38,7.94 45.40,10.20 41.86,11.39 40.00,11.70 34.11,11.70 16.09,11.65 1.98,11.58 -1.39,11.41 -4.07,10.74 -6.53,9.46 -8.60,7.62 -10.17,5.34 -11.16,2.75 -11.49,-0.00 -11.16,-2.75 -10.17,-5.34 -8.60,-7.62 -6.53,-9.46 -4.07,-10.74 -1.38,-11.41 Z" fill="#FFFFFF" stroke="transparent" stroke-width="0" stroke-linejoin="round" stroke-linecap="round" pointer-events="all" transform="translate(985, 170)"/><path id="path_d1268e94-69db-4a1c-3fba-3659de69c3a2" d="M-10.59,72.00 Q-10.61,67.09 -10.65,54.76 T-11.08,30.86 -11.64,9.71 -11.52,-1.76 -10.35,-5.34 -8.11,-8.37 -5.01,-10.52 -1.39,-11.57 2.38,-11.41 5.90,-10.05 8.80,-7.64 10.78,-4.43 11.63,-0.76 11.26,2.99 9.72,6.43 7.15,9.20 3.84,11.00 0.13,11.65 -3.60,11.08 -6.95,9.35 -9.57,6.64 -11.19,3.24 -11.64,-0.50 -10.87,-4.19 -8.96,-7.45 -6.12,-9.92 -2.63,-11.35 1.13,-11.60 4.78,-10.63 7.92,-8.55 10.23,-5.57 11.48,-2.01 11.81,-0.13 11.94,9.26 12.38,30.54 12.65,54.76 12.60,69.54 12.42,73.39 11.76,76.08 10.47,78.53 8.63,80.61 6.35,82.19 3.75,83.17 1.00,83.50 -1.75,83.17 -4.35,82.18 -6.63,80.61 -8.47,78.53 -9.76,76.08 -10.42,73.39 Z" fill="#FFFFFF" stroke="transparent" stroke-width="0" stroke-linejoin="round" stroke-linecap="round" pointer-events="all" transform="translate(1071, 250)"/><path id="path_2e8b715b-3c1a-4d86-052a-4587bc5cd7f1" d="M36.00,11.56 Q32.99,11.58 21.39,11.64 T4.90,11.71 -1.87,11.41 -5.42,10.21 -8.39,7.95 -10.49,4.85 -11.49,1.25 -11.29,-2.49 -9.91,-5.96 -7.48,-8.81 -4.28,-10.74 -0.62,-11.54 3.09,-11.14 6.49,-9.57 9.20,-6.99 10.96,-3.69 11.56,0.00 10.95,3.69 9.20,7.00 6.49,9.57 3.09,11.14 -0.63,11.54 -4.28,10.74 -7.49,8.81 -9.91,5.96 -11.29,2.48 -11.49,-1.25 -10.49,-4.86 -8.39,-7.95 -5.41,-10.22 -1.87,-11.41 0.00,-11.71 4.90,-11.71 21.39,-11.64 34.49,-11.57 37.38,-11.39 40.07,-10.73 42.52,-9.44 44.59,-7.61 46.16,-5.33 47.14,-2.75 47.48,0.00 47.14,2.75 46.16,5.33 44.59,7.61 42.52,9.45 40.07,10.73 37.38,11.39 Z" fill="#FFFFFF" stroke="transparent" stroke-width="0" stroke-linejoin="round" stroke-linecap="round" pointer-events="all" transform="translate(1035, 250)"/><path id="path_caf5a97c-c02a-4e83-2c76-31a78ff43310" d="M-11.59,106.00 Q-11.61,100.45 -11.65,87.87 T-11.73,63.87 -11.15,40.20 -9.70,13.81 -8.50,-2.21 -7.19,-5.77 -4.82,-8.72 -1.62,-10.76 2.06,-11.67 5.83,-11.36 9.31,-9.86 12.13,-7.33 14.00,-4.03 14.71,-0.31 14.19,3.44 12.51,6.84 9.83,9.52 6.43,11.20 2.67,11.71 -1.05,10.99 -4.34,9.12 -6.87,6.30 -8.37,2.82 -8.67,-0.96 -7.75,-4.64 -5.71,-7.83 -2.76,-10.20 0.80,-11.50 4.59,-11.60 8.21,-10.49 11.29,-8.27 13.50,-5.19 14.61,-1.57 14.86,0.33 13.99,14.93 12.44,40.99 11.73,63.87 11.65,87.87 11.60,103.23 11.42,107.39 10.76,110.08 9.47,112.54 7.63,114.61 5.35,116.19 2.75,117.17 -0.00,117.50 -2.75,117.17 -5.35,116.19 -7.63,114.61 -9.47,112.53 -10.76,110.08 -11.42,107.39 Z" fill="#FFFFFF" stroke="transparent" stroke-width="0" stroke-linejoin="round" stroke-linecap="round" pointer-events="all" transform="translate(1114, 211)"/><path id="path_09899348-50cc-4fa2-36c2-e3caf2cb40c5" d="M0.00,-8.56 Q7.77,-8.58 21.29,-8.59 T49.19,-8.19 74.98,-7.57 98.93,-7.17 123.72,-7.67 148.13,-9.24 170.46,-3.31 182.64,15.04 184.64,38.11 184.27,58.50 183.57,69.23 182.25,72.80 179.86,75.77 176.65,77.82 172.95,78.74 169.15,78.43 165.65,76.92 162.81,74.37 160.94,71.05 160.22,67.31 160.74,63.53 162.44,60.12 165.14,57.43 168.55,55.74 172.33,55.23 176.07,55.95 179.39,57.83 181.93,60.66 183.43,64.17 183.74,67.97 182.82,71.66 180.76,74.87 177.79,77.26 174.21,78.57 170.40,78.67 166.76,77.55 163.66,75.32 161.44,72.22 160.33,68.58 160.07,66.67 160.53,51.95 161.19,25.34 149.38,14.30 124.27,15.78 98.55,16.16 74.46,15.67 48.91,15.00 21.29,14.59 3.88,14.57 -1.38,14.39 -4.07,13.73 -6.52,12.44 -8.59,10.61 -10.16,8.33 -11.14,5.75 -11.48,3.00 -11.14,0.25 -10.16,-2.33 -8.59,-4.61 -6.52,-6.45 -4.07,-7.73 -1.38,-8.39 Z" fill="#FFFFFF" stroke="transparent" stroke-width="0" stroke-linejoin="round" stroke-linecap="round" pointer-events="all" transform="translate(1209, 386)"/><path id="path_00f8d27b-8a87-49bc-2b72-5793c7ec7f40" d="M0.00,-11.58 Q3.96,-11.60 16.37,-11.65 T40.58,-11.74 58.69,-11.78 66.88,-11.47 70.44,-10.27 73.44,-7.99 75.55,-4.88 76.55,-1.26 76.35,2.50 74.96,5.99 72.52,8.86 69.30,10.80 65.63,11.60 61.89,11.20 58.48,9.62 55.75,7.03 53.99,3.71 53.38,-0.00 53.99,-3.71 55.75,-7.03 58.48,-9.62 61.89,-11.20 65.63,-11.60 69.30,-10.79 72.52,-8.85 74.96,-5.99 76.35,-2.50 76.55,1.26 75.54,4.88 73.43,7.99 70.44,10.27 66.88,11.47 65.00,11.78 58.69,11.78 40.58,11.74 16.37,11.65 1.98,11.59 -1.39,11.42 -4.08,10.75 -6.53,9.46 -8.61,7.63 -10.18,5.34 -11.17,2.75 -11.50,-0.00 -11.17,-2.75 -10.18,-5.34 -8.61,-7.63 -6.53,-9.46 -4.08,-10.75 -1.39,-11.42 Z" fill="#FFFFFF" stroke="transparent" stroke-width="0" stroke-linejoin="round" stroke-linecap="round" pointer-events="all" transform="translate(1210, 541)"/><path id="path_827ca64a-6417-4507-2536-430862d1d073" d="M-11.56,53.00 Q-11.58,49.99 -11.64,38.53 T-11.74,13.53 -11.47,-1.88 -10.27,-5.44 -7.99,-8.44 -4.88,-10.55 -1.26,-11.55 2.50,-11.35 5.99,-9.96 8.86,-7.52 10.79,-4.30 11.60,-0.63 11.20,3.11 9.62,6.52 7.03,9.25 3.71,11.01 -0.00,11.62 -3.71,11.01 -7.03,9.25 -9.62,6.52 -11.20,3.11 -11.60,-0.63 -10.79,-4.30 -8.85,-7.52 -5.99,-9.96 -2.50,-11.35 1.26,-11.55 4.88,-10.54 7.99,-8.43 10.27,-5.44 11.47,-1.88 11.77,0.00 11.74,13.53 11.64,38.53 11.57,51.49 11.39,54.38 10.73,57.07 9.45,59.52 7.61,61.59 5.33,63.16 2.75,64.14 -0.00,64.48 -2.75,64.14 -5.33,63.16 -7.61,61.59 -9.45,59.52 -10.73,57.07 -11.39,54.38 Z" fill="#FFFFFF" stroke="transparent" stroke-width="0" stroke-linejoin="round" stroke-linecap="round" pointer-events="all" transform="translate(1275, 488)"/><path id="path_49e7c626-bb2a-4d51-1531-77fe4597d9b4" d="M0.00,-11.59 Q5.86,-11.61 19.01,-11.65 T44.67,-11.72 68.99,-11.80 88.40,-11.84 97.89,-11.54 101.48,-10.33 104.49,-8.04 106.61,-4.91 107.62,-1.26 107.42,2.51 106.02,6.03 103.57,8.91 100.33,10.86 96.63,11.67 92.87,11.26 89.44,9.67 86.69,7.07 84.92,3.73 84.31,-0.00 84.92,-3.73 86.70,-7.08 89.44,-9.68 92.87,-11.26 96.64,-11.67 100.33,-10.86 103.57,-8.91 106.02,-6.02 107.42,-2.51 107.62,1.27 106.61,4.91 104.48,8.04 101.47,10.33 97.89,11.54 96.00,11.85 88.40,11.84 68.99,11.80 44.67,11.72 19.01,11.65 2.93,11.60 -1.39,11.42 -4.08,10.76 -6.54,9.47 -8.61,7.63 -10.19,5.35 -11.17,2.75 -11.51,-0.00 -11.17,-2.75 -10.19,-5.35 -8.61,-7.63 -6.54,-9.47 -4.08,-10.76 -1.39,-11.42 Z" fill="#FFFFFF" stroke="transparent" stroke-width="0" stroke-linejoin="round" stroke-linecap="round" pointer-events="all" transform="translate(1209, 440)"/><path id="path_aa94b4ac-ee50-4f39-273c-2117376cdf45" d="M11.59,0.00 Q11.61,6.02 11.64,17.45 T11.72,41.35 11.80,65.49 11.87,88.68 11.90,112.60 11.59,126.90 10.37,130.50 8.07,133.52 4.93,135.66 1.27,136.67 -2.52,136.47 -6.05,135.06 -8.95,132.60 -10.91,129.35 -11.72,125.63 -11.31,121.86 -9.72,118.41 -7.10,115.65 -3.75,113.87 0.00,113.26 3.75,113.87 7.11,115.65 9.72,118.41 11.31,121.86 11.72,125.64 10.91,129.35 8.95,132.60 6.05,135.06 2.52,136.47 -1.27,136.67 -4.93,135.66 -8.08,133.52 -10.38,130.50 -11.59,126.90 -11.90,125.00 -11.90,112.60 -11.87,88.68 -11.80,65.49 -11.72,41.35 -11.64,17.45 -11.60,3.01 -11.42,-1.39 -10.76,-4.08 -9.47,-6.54 -7.63,-8.61 -5.35,-10.19 -2.75,-11.17 0.00,-11.51 2.75,-11.17 5.35,-10.19 7.63,-8.61 9.47,-6.54 10.76,-4.08 11.42,-1.39 Z" fill="#FFFFFF" stroke="transparent" stroke-width="0" stroke-linejoin="round" stroke-linecap="round" pointer-events="all" transform="translate(1107, 616)"/><path id="path_c1f26bef-1768-48a1-1940-303fa6c5e70c" d="M56.00,11.57 Q52.67,11.58 41.07,12.08 T15.75,14.60 0.12,16.64 -3.60,16.07 -6.95,14.34 -9.57,11.64 -11.19,8.23 -11.63,4.49 -10.86,0.80 -8.95,-2.44 -6.11,-4.91 -2.62,-6.35 1.14,-6.59 4.78,-5.62 7.92,-3.54 10.23,-0.56 11.47,3.00 11.51,6.76 10.34,10.35 8.10,13.37 5.00,15.52 1.38,16.56 -2.38,16.40 -5.90,15.04 -8.80,12.63 -10.77,9.42 -11.62,5.75 -11.25,2.00 -9.71,-1.43 -7.14,-4.20 -3.83,-6.00 -2.03,-6.62 1.49,-7.24 17.32,-9.48 41.15,-11.34 54.34,-11.57 57.38,-11.40 60.07,-10.73 62.52,-9.45 64.59,-7.61 66.17,-5.34 67.15,-2.75 67.48,0.00 67.15,2.75 66.17,5.34 64.59,7.61 62.52,9.45 60.07,10.74 57.38,11.40 Z" fill="#FFFFFF" stroke="transparent" stroke-width="0" stroke-linejoin="round" stroke-linecap="round" pointer-events="all" transform="translate(1051, 741)"/><path id="path_7ee9d243-70b4-4f51-3684-9f9ab6bc9675" d="M12.59,1.32 Q12.45,7.03 12.24,19.49 T11.96,45.01 11.86,70.97 11.86,96.08 11.88,120.95 11.92,145.41 11.95,169.12 11.96,188.52 11.63,197.91 10.42,201.52 8.11,204.56 4.95,206.70 1.27,207.72 -2.53,207.51 -6.08,206.10 -8.99,203.63 -10.95,200.36 -11.77,196.64 -11.36,192.84 -9.76,189.38 -7.13,186.61 -3.76,184.83 0.00,184.21 3.77,184.83 7.14,186.62 9.76,189.39 11.36,192.85 11.77,196.64 10.95,200.37 8.98,203.63 6.08,206.10 2.53,207.51 -1.28,207.72 -4.95,206.70 -8.11,204.56 -10.42,201.52 -11.63,197.90 -11.95,196.00 -11.96,188.52 -11.95,169.12 -11.91,145.41 -11.87,120.94 -11.81,96.05 -11.70,70.88 -11.48,44.77 -11.05,19.00 -10.68,3.53 -10.38,-0.70 -9.64,-3.38 -8.29,-5.80 -6.39,-7.82 -4.06,-9.34 -1.44,-10.25 1.32,-10.50 4.06,-10.09 6.63,-9.04 8.87,-7.40 10.65,-5.27 11.87,-2.78 12.46,-0.07 Z" fill="#FFFFFF" stroke="transparent" stroke-width="0" stroke-linejoin="round" stroke-linecap="round" pointer-events="all" transform="translate(953, 614)"/><path id="path_febf0801-2f5c-4139-3720-dfb5d1f9f692" d="M0.00,-11.59 Q5.23,-11.61 17.08,-11.65 T44.97,-11.70 62.87,-11.41 66.41,-10.21 69.39,-7.95 71.49,-4.85 72.49,-1.25 72.29,2.49 70.90,5.96 68.48,8.81 65.28,10.74 61.62,11.54 57.91,11.14 54.51,9.57 51.80,6.99 50.05,3.69 49.44,-0.00 50.05,-3.69 51.80,-7.00 54.52,-9.57 57.91,-11.14 61.63,-11.54 65.28,-10.74 68.49,-8.81 70.91,-5.96 72.29,-2.48 72.49,1.25 71.49,4.86 69.39,7.95 66.41,10.21 62.87,11.41 61.00,11.71 44.97,11.70 17.08,11.65 2.62,11.60 -1.39,11.42 -4.08,10.76 -6.54,9.47 -8.61,7.63 -10.19,5.35 -11.17,2.75 -11.51,-0.00 -11.17,-2.75 -10.19,-5.35 -8.61,-7.63 -6.53,-9.47 -4.08,-10.76 -1.39,-11.42 Z" fill="#FFFFFF" stroke="transparent" stroke-width="0" stroke-linejoin="round" stroke-linecap="round" pointer-events="all" transform="translate(953, 810)"/><path id="path_871c1923-3e2f-481c-16cd-a3cc8f39d9a4" d="M11.58,0.00 Q11.60,4.91 11.65,16.86 T11.74,40.48 11.79,61.07 11.48,71.88 10.27,75.45 8.00,78.44 4.88,80.55 1.26,81.56 -2.50,81.36 -6.00,79.96 -8.86,77.53 -10.80,74.30 -11.61,70.63 -11.21,66.89 -9.62,63.47 -7.04,60.74 -3.71,58.98 0.00,58.37 3.72,58.98 7.04,60.74 9.63,63.48 11.21,66.89 11.61,70.63 10.80,74.31 8.86,77.53 5.99,79.97 2.50,81.36 -1.26,81.56 -4.89,80.55 -8.00,78.44 -10.28,75.44 -11.48,71.88 -11.78,70.00 -11.79,61.07 -11.74,40.48 -11.65,16.86 -11.59,2.46 -11.41,-1.39 -10.75,-4.08 -9.46,-6.53 -7.62,-8.61 -5.34,-10.18 -2.75,-11.16 0.00,-11.50 2.75,-11.16 5.34,-10.18 7.62,-8.60 9.46,-6.53 10.75,-4.08 11.41,-1.38 Z" fill="#FFFFFF" stroke="transparent" stroke-width="0" stroke-linejoin="round" stroke-linecap="round" pointer-events="all" transform="translate(1024, 618)"/><path id="path_17eb3b6d-b7f7-445b-0765-bc9119b3c4a8" d="M80.00,11.58 Q75.40,11.60 62.56,11.65 T38.30,11.74 13.44,11.81 -1.89,11.52 -5.47,10.31 -8.48,8.03 -10.60,4.90 -11.61,1.26 -11.40,-2.51 -10.00,-6.02 -7.56,-8.90 -4.32,-10.85 -0.63,-11.66 3.12,-11.25 6.55,-9.66 9.29,-7.06 11.06,-3.73 11.67,0.00 11.06,3.73 9.29,7.07 6.55,9.66 3.12,11.25 -0.63,11.66 -4.32,10.84 -7.56,8.90 -10.00,6.02 -11.40,2.51 -11.61,-1.27 -10.59,-4.90 -8.47,-8.03 -5.47,-10.32 -1.89,-11.52 0.00,-11.83 13.44,-11.81 38.30,-11.74 62.56,-11.65 77.70,-11.59 81.39,-11.42 84.08,-10.75 86.53,-9.46 88.61,-7.63 90.18,-5.34 91.17,-2.75 91.50,0.00 91.17,2.75 90.18,5.35 88.61,7.63 86.53,9.47 84.08,10.75 81.39,11.42 Z" fill="#FFFFFF" stroke="transparent" stroke-width="0" stroke-linejoin="round" stroke-linecap="round" pointer-events="all" transform="translate(800, 504)"/><path id="path_2bbeaed5-083d-4cf4-037e-432664e37546" d="M11.58,0.00 Q11.60,4.75 11.65,17.54 T11.72,44.16 11.43,59.87 10.23,63.42 7.96,66.41 4.86,68.51 1.25,69.51 -2.49,69.31 -5.97,67.92 -8.82,65.49 -10.76,62.28 -11.56,58.63 -11.16,54.90 -9.58,51.50 -7.01,48.78 -3.70,47.03 0.00,46.42 3.70,47.03 7.01,48.78 9.58,51.50 11.16,54.90 11.56,58.63 10.75,62.29 8.82,65.50 5.97,67.92 2.49,69.31 -1.25,69.51 -4.86,68.51 -7.96,66.40 -10.23,63.42 -11.43,59.87 -11.73,58.00 -11.72,44.16 -11.65,17.54 -11.59,2.38 -11.42,-1.39 -10.75,-4.08 -9.46,-6.53 -7.63,-8.61 -5.34,-10.18 -2.75,-11.17 0.00,-11.50 2.75,-11.17 5.34,-10.18 7.63,-8.61 9.46,-6.53 10.75,-4.08 11.42,-1.39 Z" fill="#FFFFFF" stroke="transparent" stroke-width="0" stroke-linejoin="round" stroke-linecap="round" pointer-events="all" transform="translate(800, 504)"/><path id="path_64932bfa-3ebf-4c9a-1ad6-1143cededfb0" d="M164.00,12.59 Q158.77,12.61 147.10,12.65 T122.39,12.71 97.67,12.47 73.72,12.07 49.98,11.93 26.52,11.93 7.25,11.93 -1.90,11.60 -5.51,10.39 -8.54,8.08 -10.67,4.94 -11.69,1.27 -11.48,-2.53 -10.07,-6.06 -7.61,-8.96 -4.35,-10.92 -0.63,-11.74 3.15,-11.33 6.60,-9.73 9.36,-7.11 11.14,-3.75 11.76,0.00 11.14,3.76 9.36,7.12 6.60,9.73 3.14,11.33 -0.64,11.74 -4.36,10.92 -7.61,8.96 -10.08,6.06 -11.48,2.52 -11.69,-1.28 -10.67,-4.94 -8.53,-8.09 -5.50,-10.39 -1.90,-11.60 0.00,-11.91 7.25,-11.93 26.53,-11.91 50.09,-11.81 74.04,-11.54 97.90,-11.05 122.39,-10.71 147.10,-10.65 161.38,-10.60 165.39,-10.42 168.08,-9.76 170.54,-8.47 172.61,-6.63 174.19,-4.35 175.17,-1.75 175.51,1.00 175.17,3.75 174.19,6.35 172.61,8.63 170.54,10.47 168.08,11.76 165.39,12.42 Z" fill="#FFFFFF" stroke="transparent" stroke-width="0" stroke-linejoin="round" stroke-linecap="round" pointer-events="all" transform="translate(725, 440)"/><path id="path_f10b7aa6-07bd-45ef-3dfe-76030da59b59" d="M-10.57,48.40 Q-10.75,43.80 -11.10,31.81 T-11.58,9.97 -11.43,-1.75 -10.28,-5.31 -8.05,-8.31 -4.97,-10.45 -1.37,-11.49 2.36,-11.32 5.86,-9.98 8.74,-7.58 10.70,-4.40 11.54,-0.75 11.18,2.98 9.64,6.39 7.10,9.13 3.81,10.92 0.12,11.57 -3.58,11.00 -6.90,9.28 -9.50,6.59 -11.11,3.21 -11.56,-0.50 -10.79,-4.17 -8.90,-7.39 -6.07,-9.85 -2.61,-11.27 1.13,-11.51 4.75,-10.55 7.87,-8.48 10.16,-5.53 11.39,-1.99 11.72,-0.13 11.83,9.63 12.19,31.19 12.50,45.30 12.45,48.99 11.88,51.70 10.68,54.20 8.92,56.34 6.69,57.99 4.13,59.06 1.40,59.49 -1.37,59.25 -3.99,58.36 -6.32,56.86 -8.23,54.85 -9.60,52.44 -10.36,49.78 Z" fill="#FFFFFF" stroke="transparent" stroke-width="0" stroke-linejoin="round" stroke-linecap="round" pointer-events="all" transform="translate(724, 392)"/><path id="path_885bd03c-2f32-4be2-3be7-c83fb878115a" d="M75.00,11.58 Q70.88,11.59 59.20,11.65 T35.76,11.75 12.00,11.82 -1.89,11.54 -5.48,10.33 -8.49,8.04 -10.61,4.91 -11.62,1.26 -11.42,-2.51 -10.02,-6.03 -7.57,-8.91 -4.33,-10.86 -0.63,-11.67 3.13,-11.26 6.56,-9.67 9.31,-7.07 11.08,-3.73 11.69,0.00 11.08,3.73 9.31,7.08 6.56,9.68 3.13,11.26 -0.64,11.67 -4.33,10.86 -7.57,8.91 -10.02,6.02 -11.42,2.51 -11.62,-1.27 -10.61,-4.91 -8.48,-8.04 -5.47,-10.33 -1.89,-11.54 0.00,-11.85 12.00,-11.82 35.76,-11.75 59.20,-11.65 72.94,-11.59 76.39,-11.41 79.08,-10.75 81.53,-9.46 83.60,-7.62 85.18,-5.34 86.16,-2.75 86.49,0.00 86.16,2.75 85.18,5.34 83.60,7.62 81.53,9.46 79.07,10.75 76.38,11.41 Z" fill="#FFFFFF" stroke="transparent" stroke-width="0" stroke-linejoin="round" stroke-linecap="round" pointer-events="all" transform="translate(811, 375)"/></svg>