<svg xmlns="http://www.w3.org/2000/svg" viewBox="333 63 574 623" width="100" height="120"><path id="path_38b8e47a-589f-4f32-380c-0187de6aa1d4" d="M10.84,247.64 Q9.73,243.36 6.27,232.38 T0.07,209.28 -4.52,186.69 -7.41,165.23 -8.89,143.35 -8.10,122.08 -2.91,98.21 6.08,74.62 17.32,54.89 32.10,36.34 50.86,20.33 72.41,8.25 95.25,0.44 118.66,-3.73 143.12,-4.56 166.73,-2.89 190.45,1.29 214.99,8.66 237.00,19.82 254.95,35.36 267.91,53.60 276.73,74.70 281.86,97.73 283.33,119.87 281.47,142.22 275.91,164.66 266.44,185.73 253.94,204.51 238.99,220.29 222.31,233.85 205.17,246.70 189.42,261.07 179.15,277.18 175.10,286.95 173.04,289.60 170.25,291.45 167.01,292.31 163.66,292.09 160.56,290.82 158.03,288.62 156.33,285.73 155.65,282.45 156.05,279.12 157.49,276.09 159.82,273.68 162.80,272.14 166.11,271.64 169.42,272.22 172.36,273.82 174.64,276.28 176.01,279.34 176.34,282.68 175.58,285.94 173.82,288.80 171.24,290.94 168.11,292.14 164.77,292.29 161.54,291.36 158.79,289.44 156.79,286.75 155.76,283.56 155.79,280.21 156.09,278.54 158.62,271.67 167.12,255.73 181.18,239.35 198.00,225.71 215.51,212.66 232.20,197.25 246.01,179.03 255.45,159.58 260.76,138.85 262.21,116.74 260.17,94.94 253.97,73.53 243.05,53.96 227.50,38.79 207.77,28.34 186.14,21.77 164.79,18.01 143.09,16.40 121.40,17.03 100.84,20.64 78.34,28.97 55.44,43.70 37.21,63.55 23.98,86.21 15.51,109.77 12.26,132.14 12.86,155.32 15.88,180.60 20.42,204.25 26.48,226.70 30.61,240.22 31.33,243.62 31.36,246.13 30.79,248.58 29.65,250.82 28.00,252.72 25.95,254.17 23.62,255.09 21.12,255.42 18.63,255.15 16.27,254.29 14.18,252.88 12.49,251.02 11.30,248.81 Z" fill="#FFFFFF" stroke="transparent" stroke-width="0" stroke-linejoin="round" stroke-linecap="round" pointer-events="all" transform="translate(487, 227)"/><path id="path_5bec1696-d298-489b-3fa1-c75eec94ddef" d="M9.85,-3.63 Q10.96,-0.62 14.48,9.19 T20.62,30.00 24.88,51.94 26.98,67.40 27.34,73.65 26.59,76.92 24.84,79.77 22.27,81.92 19.14,83.14 15.79,83.29 12.57,82.37 9.81,80.46 7.80,77.78 6.76,74.59 6.79,71.24 7.89,68.07 9.94,65.42 12.73,63.56 15.97,62.69 19.31,62.90 22.42,64.17 24.95,66.36 26.66,69.25 27.35,72.53 26.96,75.86 25.53,78.89 23.20,81.30 20.22,82.85 16.91,83.36 13.61,82.79 10.66,81.19 8.37,78.74 6.99,75.69 6.55,74.05 4.78,60.79 0.71,37.06 -5.16,16.62 -9.30,5.14 -10.14,2.40 -10.42,-0.10 -10.10,-2.59 -9.18,-4.93 -7.74,-6.99 -5.84,-8.63 -3.60,-9.78 -1.16,-10.36 1.36,-10.33 3.79,-9.71 6.00,-8.52 7.87,-6.84 9.28,-4.76 Z" fill="#FFFFFF" stroke="transparent" stroke-width="0" stroke-linejoin="round" stroke-linecap="round" pointer-events="all" transform="translate(511, 476)"/><path id="path_f1b9fdbf-3fec-4b18-0093-c93a4d21933d" d="M47.15,5.15 Q45.73,7.68 39.58,17.14 T27.33,36.21 17.58,55.83 11.87,71.29 8.96,78.21 6.83,80.79 3.98,82.57 0.72,83.34 -2.62,83.02 -5.68,81.66 -8.15,79.39 -9.77,76.46 -10.36,73.16 -9.87,69.84 -8.34,66.85 -5.94,64.51 -2.92,63.06 0.41,62.65 3.69,63.32 6.59,65.00 8.80,67.53 10.08,70.62 10.32,73.97 9.47,77.21 7.63,80.01 4.99,82.08 1.83,83.20 -1.52,83.25 -4.72,82.23 -7.42,80.24 -9.34,77.49 -10.28,74.27 -10.15,70.92 -9.81,69.26 -6.83,61.22 -0.00,43.44 9.64,24.70 21.43,6.54 28.14,-3.88 29.60,-6.17 31.32,-8.00 33.43,-9.37 35.80,-10.19 38.30,-10.42 40.79,-10.04 43.11,-9.08 45.14,-7.60 46.75,-5.67 47.85,-3.41 48.38,-0.95 48.31,1.56 47.63,3.98 Z" fill="#FFFFFF" stroke="transparent" stroke-width="0" stroke-linejoin="round" stroke-linecap="round" pointer-events="all" transform="translate(614, 502)"/><path id="path_dbe8847c-6616-46c7-1166-c44742a7e91c" d="M8.47,-6.21 Q10.21,-3.83 17.15,4.40 T34.00,17.23 54.75,22.15 72.86,20.88 81.68,18.58 84.92,17.70 88.26,17.89 91.37,19.14 93.92,21.32 95.64,24.20 96.35,27.48 95.97,30.81 94.56,33.85 92.24,36.27 89.27,37.83 85.96,38.36 82.66,37.81 79.70,36.23 77.40,33.78 76.01,30.74 75.66,27.40 76.39,24.13 78.13,21.26 80.69,19.10 83.81,17.87 87.16,17.70 90.39,18.61 93.15,20.50 95.17,23.18 96.23,26.36 96.22,29.71 95.14,32.89 93.10,35.55 91.86,36.71 79.19,40.09 55.78,43.22 34.58,41.15 15.55,32.06 0.12,16.69 -7.60,7.40 -9.09,5.11 -10.05,2.78 -10.42,0.30 -10.19,-2.20 -9.36,-4.58 -8.00,-6.69 -6.16,-8.41 -3.97,-9.64 -1.55,-10.31 0.96,-10.38 3.42,-9.85 5.67,-8.74 7.60,-7.13 Z" fill="#FFFFFF" stroke="transparent" stroke-width="0" stroke-linejoin="round" stroke-linecap="round" pointer-events="all" transform="translate(527, 550)"/><path id="path_71576551-b356-4ca4-1dfe-7d40123c4013" d="M-9.63,204.80 Q-6.93,198.62 -2.45,188.07 T6.30,166.90 14.20,145.80 21.90,123.84 29.96,100.80 37.35,78.82 42.55,57.99 44.12,36.33 35.57,31.72 31.83,48.12 46.36,61.34 68.15,65.73 90.25,64.02 110.82,56.04 129.54,43.68 128.74,41.76 115.39,56.60 107.02,77.59 99.59,99.00 93.85,119.60 88.71,141.63 84.08,165.06 80.59,187.39 78.30,208.58 76.98,231.33 76.16,245.05 74.97,248.19 72.85,250.78 70.00,252.56 66.74,253.34 63.40,253.03 60.34,251.68 57.86,249.41 56.24,246.48 55.64,243.18 56.12,239.86 57.64,236.87 60.04,234.53 63.05,233.07 66.38,232.65 69.67,233.31 72.57,234.99 74.78,237.50 76.08,240.60 76.32,243.94 75.48,247.19 73.64,249.99 71.01,252.07 67.85,253.19 64.50,253.25 61.31,252.24 58.60,250.25 56.67,247.51 55.72,244.30 55.51,242.61 56.00,230.42 57.40,206.73 59.81,184.40 63.42,161.30 67.80,138.74 72.63,118.10 78.56,96.19 86.20,73.45 94.87,51.51 105.04,31.12 119.56,14.67 139.58,7.81 157.06,16.85 159.77,36.64 148.05,55.27 129.83,69.48 109.41,79.93 87.28,85.92 64.08,86.57 41.71,82.24 22.67,72.08 10.60,53.57 8.10,29.63 15.39,7.29 32.09,-5.43 50.92,-1.49 62.05,15.51 65.21,37.79 63.08,62.02 57.42,85.02 49.74,107.83 41.58,131.17 34.00,152.81 26.01,174.12 16.97,196.05 10.97,210.10 8.98,214.29 7.46,216.28 5.50,217.86 3.22,218.91 0.75,219.40 -1.76,219.27 -4.17,218.55 -6.33,217.28 -8.13,215.52 -9.45,213.39 -10.23,211.00 -10.41,208.49 -9.99,206.02 Z" fill="#FFFFFF" stroke="transparent" stroke-width="0" stroke-linejoin="round" stroke-linecap="round" pointer-events="all" transform="translate(532, 338)"/><path id="path_6431e4dd-f915-40b4-07ef-ba18d48d39b9" d="M10.50,0.00 Q10.50,2.85 10.70,13.48 T18.25,31.93 36.32,41.50 57.52,42.28 72.97,30.14 78.69,17.45 80.63,14.72 83.34,12.74 86.54,11.74 89.89,11.81 93.05,12.95 95.67,15.04 97.49,17.85 98.32,21.10 98.07,24.44 96.76,27.53 94.54,30.04 91.63,31.71 88.34,32.36 85.02,31.92 82.00,30.45 79.62,28.09 78.11,25.10 77.64,21.78 78.25,18.48 79.89,15.55 82.37,13.30 85.44,11.96 88.78,11.67 92.04,12.46 94.88,14.25 96.99,16.85 98.16,19.99 98.27,23.34 98.06,25.02 96.27,32.79 88.33,48.93 71.39,60.44 49.03,63.74 27.33,61.44 8.12,52.39 -5.60,35.94 -10.36,14.47 -10.50,1.43 -10.35,-1.26 -9.75,-3.70 -8.58,-5.92 -6.91,-7.80 -4.84,-9.23 -2.49,-10.12 0.00,-10.42 2.50,-10.12 4.84,-9.23 6.91,-7.80 8.58,-5.92 9.75,-3.70 10.35,-1.26 Z" fill="#FFFFFF" stroke="transparent" stroke-width="0" stroke-linejoin="round" stroke-linecap="round" pointer-events="all" transform="translate(523, 562)"/><path id="path_36c0f944-fbaa-466b-3e7b-c6e874c9b260" d="M10.25,-2.28 Q10.88,0.58 16.62,9.80 T30.50,12.55 39.70,4.05 41.79,0.68 44.24,-1.61 47.29,-3.00 50.62,-3.34 53.89,-2.60 56.75,-0.86 58.91,1.71 60.13,4.83 60.29,8.18 59.38,11.41 57.48,14.17 54.80,16.18 51.62,17.24 48.26,17.21 45.09,16.13 42.43,14.08 40.57,11.29 39.69,8.06 39.89,4.71 41.15,1.60 43.34,-0.94 46.22,-2.65 49.50,-3.35 52.83,-2.97 55.87,-1.54 58.29,0.78 59.84,3.75 60.36,7.06 59.80,10.37 59.25,11.97 55.53,18.90 44.50,34.08 26.20,40.78 7.28,32.35 -5.13,15.30 -9.93,3.70 -10.37,1.02 -10.32,-1.49 -9.66,-3.92 -8.44,-6.12 -6.73,-7.96 -4.63,-9.34 -2.26,-10.18 0.24,-10.42 2.73,-10.06 5.06,-9.12 7.09,-7.64 8.71,-5.72 9.83,-3.47 Z" fill="#FFFFFF" stroke="transparent" stroke-width="0" stroke-linejoin="round" stroke-linecap="round" pointer-events="all" transform="translate(534, 612)"/><path id="path_bcf3b4e0-9067-4abf-0833-c86ff73b714c" d="M-10.17,87.39 Q-8.74,81.84 -5.70,70.43 T0.91,47.63 7.78,26.16 13.97,6.69 17.55,-4.25 19.40,-7.04 22.05,-9.10 25.21,-10.21 28.56,-10.24 31.75,-9.21 34.44,-7.21 36.36,-4.45 37.29,-1.23 37.14,2.12 35.94,5.24 33.79,7.82 30.94,9.58 27.67,10.34 24.34,10.01 21.28,8.64 18.82,6.36 17.22,3.42 16.64,0.11 17.15,-3.20 18.68,-6.18 21.09,-8.51 24.12,-9.95 27.45,-10.35 30.73,-9.67 33.62,-7.97 35.82,-5.44 37.09,-2.34 37.31,1.01 37.15,2.70 34.25,12.40 27.96,32.22 21.02,53.67 14.54,76.03 10.88,89.84 9.71,93.79 8.52,96.01 6.83,97.87 4.75,99.28 2.39,100.15 -0.10,100.42 -2.60,100.09 -4.94,99.18 -6.99,97.73 -8.64,95.83 -9.78,93.60 -10.36,91.15 -10.33,88.64 Z" fill="#FFFFFF" stroke="transparent" stroke-width="0" stroke-linejoin="round" stroke-linecap="round" pointer-events="all" transform="translate(651, 103)"/><path id="path_45286696-7365-4c1a-2f7c-2d0fcece73d1" d="M79.27,86.11 Q75.63,82.15 66.72,73.11 T49.25,55.97 31.91,40.28 14.32,25.78 -1.03,13.07 -8.54,5.87 -9.97,2.84 -10.35,-0.49 -9.65,-3.77 -7.94,-6.66 -5.40,-8.84 -2.29,-10.10 1.05,-10.31 4.29,-9.43 7.08,-7.57 9.12,-4.91 10.21,-1.74 10.24,1.61 9.19,4.79 7.17,7.48 4.41,9.38 1.19,10.29 -2.16,10.13 -5.28,8.91 -7.85,6.76 -9.60,3.90 -10.34,0.63 -10.00,-2.71 -8.61,-5.76 -6.32,-8.21 -3.37,-9.80 -0.07,-10.36 3.25,-9.84 6.22,-8.29 7.58,-7.27 15.82,-0.41 32.82,13.74 49.83,28.16 67.09,44.01 83.58,60.33 92.90,69.91 95.47,72.92 96.68,75.12 97.32,77.55 97.37,80.06 96.81,82.51 95.69,84.76 94.06,86.67 92.02,88.14 89.68,89.07 87.19,89.42 84.70,89.17 82.33,88.32 80.23,86.93 Z" fill="#FFFFFF" stroke="transparent" stroke-width="0" stroke-linejoin="round" stroke-linecap="round" pointer-events="all" transform="translate(433, 129)"/><path id="path_fc833d3e-825c-437e-0b0e-ec8b6b450678" d="M76.22,15.47 Q71.94,15.15 61.39,14.19 T40.29,12.23 14.80,10.86 -1.80,10.20 -4.96,9.10 -7.61,7.03 -9.46,4.24 -10.31,0.99 -10.09,-2.35 -8.81,-5.45 -6.61,-7.98 -3.72,-9.67 -0.43,-10.35 2.89,-9.95 5.92,-8.50 8.33,-6.17 9.86,-3.19 10.36,0.13 9.78,3.43 8.17,6.37 5.71,8.65 2.65,10.02 -0.69,10.34 -3.95,9.58 -6.81,7.81 -8.94,5.23 -10.15,2.10 -10.29,-1.25 -9.35,-4.47 -7.43,-7.22 -4.74,-9.21 -1.55,-10.25 0.13,-10.50 14.47,-10.18 39.65,-8.89 61.99,-6.85 75.64,-5.63 79.02,-5.23 81.41,-4.45 83.54,-3.12 85.29,-1.32 86.56,0.85 87.28,3.26 87.39,5.77 86.91,8.24 85.85,10.51 84.27,12.47 82.27,13.99 79.97,14.99 77.49,15.41 Z" fill="#FFFFFF" stroke="transparent" stroke-width="0" stroke-linejoin="round" stroke-linecap="round" pointer-events="all" transform="translate(373, 304)"/><path id="path_733c9388-9b54-4dbb-3878-0bd4ab0f3f79" d="M71.40,9.53 Q67.28,11.44 57.25,16.25 T37.92,26.20 17.02,38.15 3.85,45.62 0.57,46.35 -2.76,45.99 -5.81,44.58 -8.24,42.28 -9.82,39.32 -10.36,36.01 -9.82,32.70 -8.25,29.74 -5.82,27.43 -2.78,26.02 0.55,25.65 3.83,26.37 6.70,28.10 8.87,30.65 10.12,33.76 10.30,37.11 9.41,40.34 7.53,43.12 4.86,45.15 1.68,46.22 -1.67,46.23 -4.85,45.16 -7.52,43.13 -9.40,40.36 -10.30,37.13 -10.12,33.78 -8.88,30.66 -6.71,28.11 -5.42,27.01 6.66,19.82 27.99,7.62 47.85,-2.51 60.54,-8.58 63.80,-9.92 66.27,-10.40 68.78,-10.27 71.19,-9.55 73.35,-8.27 75.14,-6.51 76.46,-4.37 77.23,-1.98 77.41,0.53 76.98,3.01 75.97,5.31 74.44,7.30 72.48,8.87 Z" fill="#FFFFFF" stroke="transparent" stroke-width="0" stroke-linejoin="round" stroke-linecap="round" pointer-events="all" transform="translate(406, 464)"/><path id="path_4ef55ee6-6867-4b4b-3335-bf356b64aac3" d="M6.91,-7.90 Q10.72,-4.57 19.41,4.00 T36.71,21.42 53.41,38.77 68.38,55.20 81.12,72.33 87.61,83.13 88.34,86.40 88.00,89.73 86.60,92.78 84.30,95.22 81.35,96.81 78.04,97.36 74.73,96.83 71.76,95.27 69.45,92.85 68.03,89.81 67.65,86.48 68.36,83.20 70.08,80.32 72.62,78.14 75.73,76.89 79.08,76.69 82.31,77.58 85.10,79.45 87.14,82.11 88.22,85.28 88.23,88.64 87.17,91.82 85.15,94.50 82.39,96.39 79.16,97.30 75.81,97.13 72.69,95.90 70.13,93.74 69.02,92.45 63.72,84.05 51.37,67.69 37.07,52.08 21.61,36.00 5.14,19.40 -5.01,9.57 -7.76,6.96 -9.20,4.90 -10.11,2.56 -10.42,0.06 -10.14,-2.43 -9.26,-4.79 -7.84,-6.86 -5.97,-8.54 -3.76,-9.72 -1.32,-10.34 1.19,-10.35 3.64,-9.77 5.87,-8.61 Z" fill="#FFFFFF" stroke="transparent" stroke-width="0" stroke-linejoin="round" stroke-linecap="round" pointer-events="all" transform="translate(685, 518)"/><path id="path_5068b8d1-2c71-4c3b-28a3-f565a650e8d6" d="M0.00,-9.50 Q3.01,-9.50 13.45,-9.50 T34.68,-9.89 56.35,-10.39 77.11,-10.49 88.67,-10.23 91.85,-9.16 94.52,-7.13 96.40,-4.35 97.30,-1.12 97.12,2.23 95.88,5.34 93.71,7.90 90.84,9.63 87.56,10.35 84.23,9.98 81.19,8.58 78.75,6.27 77.18,3.31 76.64,0.00 77.18,-3.31 78.75,-6.27 81.18,-8.58 84.23,-9.98 87.56,-10.35 90.83,-9.63 93.71,-7.90 95.88,-5.34 97.12,-2.23 97.30,1.12 96.40,4.35 94.52,7.13 91.85,9.15 88.68,10.23 87.00,10.50 77.14,10.51 56.65,10.61 34.95,11.10 13.45,11.50 1.51,11.50 -1.26,11.35 -3.70,10.75 -5.92,9.58 -7.80,7.91 -9.23,5.84 -10.12,3.49 -10.42,1.00 -10.12,-1.50 -9.23,-3.84 -7.80,-5.91 -5.92,-7.58 -3.70,-8.75 -1.26,-9.35 Z" fill="#FFFFFF" stroke="transparent" stroke-width="0" stroke-linejoin="round" stroke-linecap="round" pointer-events="all" transform="translate(780, 376)"/><path id="path_b4301267-d2fb-4f99-0227-233ffd8002b9" d="M-6.07,45.43 Q-2.27,42.74 6.86,35.65 T25.17,21.26 43.25,7.23 59.22,-4.15 67.84,-9.49 71.09,-10.32 74.43,-10.07 77.52,-8.77 80.03,-6.55 81.70,-3.64 82.36,-0.35 81.93,2.97 80.46,5.99 78.10,8.37 75.11,9.88 71.79,10.36 68.49,9.75 65.56,8.12 63.31,5.64 61.96,2.57 61.67,-0.77 62.45,-4.03 64.24,-6.87 66.84,-8.99 69.98,-10.16 73.33,-10.28 76.54,-9.31 79.28,-7.38 81.25,-4.67 82.26,-1.47 82.19,1.88 81.05,5.04 78.97,7.67 77.72,8.81 70.71,13.43 55.24,24.46 38.08,37.81 19.62,52.31 7.97,61.22 4.96,63.17 2.62,64.09 0.13,64.42 -2.37,64.15 -4.73,63.29 -6.82,61.89 -8.51,60.02 -9.70,57.81 -10.33,55.38 -10.36,52.87 -9.79,50.42 -8.65,48.18 -7.01,46.28 Z" fill="#FFFFFF" stroke="transparent" stroke-width="0" stroke-linejoin="round" stroke-linecap="round" pointer-events="all" transform="translate(763, 187)"/></svg>