<svg xmlns="http://www.w3.org/2000/svg" viewBox="306 40 547 554" width="100" height="120"><path id="path_6acf0295-8681-4f06-3303-e14259332562" d="M146.85,320.67 Q146.05,317.66 143.16,307.32 T135.00,287.84 123.26,270.37 107.18,256.38 87.86,244.47 69.36,230.98 51.36,215.95 33.71,199.30 17.76,180.31 4.59,158.66 -3.88,134.46 -6.53,111.12 -3.07,88.18 4.24,66.28 13.77,47.11 27.53,28.07 45.16,11.92 66.63,1.11 91.26,-4.92 115.08,-7.74 138.32,-8.72 160.61,-6.62 180.38,0.60 198.22,12.58 214.54,27.45 229.90,44.48 243.87,62.77 255.53,81.59 263.03,101.87 264.98,124.34 262.62,147.14 255.58,167.37 245.80,186.09 237.86,205.43 233.71,226.02 232.91,247.29 235.49,268.17 239.68,290.04 241.36,303.29 240.72,306.58 239.07,309.50 236.57,311.74 233.49,313.06 230.15,313.33 226.89,312.51 224.07,310.70 221.97,308.09 220.82,304.94 220.73,301.59 221.72,298.39 223.68,295.66 226.41,293.71 229.61,292.73 232.97,292.83 236.11,293.99 238.72,296.09 240.52,298.92 241.33,302.17 241.05,305.51 239.72,308.59 237.48,311.08 234.56,312.73 231.27,313.36 227.95,312.90 224.94,311.41 222.58,309.03 221.09,306.03 220.59,304.40 219.73,297.32 216.46,279.75 212.83,258.93 211.91,237.48 213.88,215.30 219.30,194.23 228.05,174.62 237.54,154.79 243.50,134.19 243.43,112.31 236.64,91.11 225.03,72.54 211.70,55.51 197.30,40.02 180.81,25.80 160.37,15.55 138.34,12.24 116.99,13.16 94.89,15.73 72.33,21.53 52.27,33.26 36.77,50.21 25.11,71.16 17.15,94.65 14.87,117.07 19.53,139.28 29.43,160.27 42.86,178.14 59.48,194.91 77.57,210.73 95.31,224.23 113.38,235.63 130.71,248.04 144.69,263.76 155.58,281.87 163.40,301.74 166.76,313.82 167.33,316.58 167.37,319.09 166.80,321.54 165.67,323.79 164.03,325.69 161.99,327.15 159.65,328.08 157.16,328.42 154.66,328.16 152.30,327.30 150.21,325.91 148.51,324.05 147.31,321.85 Z" fill="#FFFFFF" stroke="transparent" stroke-width="0" stroke-linejoin="round" stroke-linecap="round" pointer-events="all" transform="translate(434, 171)"/><path id="path_32be8c0f-26df-4d2b-3fca-6392a7049521" d="M5.56,7.10 Q8.10,8.68 16.89,14.24 T36.10,21.06 54.77,15.96 64.97,3.32 67.66,-4.49 69.58,-7.23 72.28,-9.22 75.47,-10.25 78.82,-10.20 81.99,-9.08 84.63,-7.02 86.47,-4.21 87.32,-0.97 87.09,2.37 85.80,5.47 83.59,7.99 80.69,9.68 77.41,10.35 74.08,9.94 71.06,8.49 68.66,6.15 67.13,3.16 66.64,-0.15 67.23,-3.45 68.84,-6.39 71.31,-8.66 74.38,-10.02 77.71,-10.34 80.98,-9.57 83.82,-7.80 85.96,-5.21 87.15,-2.08 87.28,1.27 87.08,2.96 81.01,15.76 66.11,34.80 46.55,42.12 25.20,40.41 5.77,32.05 -4.30,25.70 -6.55,24.11 -8.30,22.31 -9.57,20.14 -10.28,17.73 -10.39,15.22 -9.90,12.75 -8.84,10.48 -7.26,8.52 -5.26,7.00 -2.95,6.00 -0.47,5.59 2.03,5.78 4.42,6.56 Z" fill="#FFFFFF" stroke="transparent" stroke-width="0" stroke-linejoin="round" stroke-linecap="round" pointer-events="all" transform="translate(592, 473)"/><path id="path_d9ddc3d3-9511-4e5f-1d55-9be3125934b3" d="M96.70,207.06 Q96.07,203.89 93.97,193.69 T89.73,171.98 85.37,149.77 79.35,126.83 71.27,102.68 62.73,80.86 52.96,59.00 41.53,36.37 25.02,24.71 21.45,32.66 38.45,46.77 58.63,55.74 81.12,61.10 104.44,62.23 125.85,58.14 141.50,45.29 139.74,44.30 135.85,63.77 143.04,84.84 151.61,104.03 160.31,123.02 168.21,143.01 176.16,163.28 184.52,183.52 189.07,195.56 189.32,198.90 188.50,202.15 186.67,204.96 184.05,207.05 180.90,208.19 177.54,208.26 174.34,207.26 171.63,205.29 169.69,202.55 168.73,199.34 168.84,195.99 170.01,192.85 172.12,190.25 174.96,188.46 178.22,187.67 181.56,187.96 184.63,189.30 187.11,191.55 188.75,194.48 189.36,197.78 188.89,201.10 187.38,204.09 185.00,206.45 181.98,207.92 178.66,208.36 175.37,207.71 172.46,206.04 170.24,203.53 169.33,202.09 167.91,198.71 162.44,185.30 154.56,165.54 147.06,145.98 138.86,126.37 129.92,107.10 121.39,87.12 114.57,65.80 111.66,43.28 114.34,21.17 126.34,4.48 145.91,-0.50 162.86,9.41 168.28,29.53 162.21,51.75 149.14,69.28 129.43,79.39 107.11,83.22 84.41,82.67 62.09,78.79 41.47,71.48 20.65,61.30 1.61,47.64 -6.10,27.89 1.84,7.86 19.88,-3.30 40.15,1.23 55.12,18.02 66.27,38.44 76.29,59.52 84.94,79.72 93.24,101.66 100.51,123.94 105.88,145.28 110.32,167.64 114.58,189.45 116.98,201.36 117.39,204.20 117.28,206.71 116.57,209.12 115.31,211.30 113.56,213.10 111.43,214.43 109.04,215.22 106.54,215.41 104.06,215.00 101.75,214.01 99.75,212.49 98.17,210.54 97.10,208.26 Z" fill="#FFFFFF" stroke="transparent" stroke-width="0" stroke-linejoin="round" stroke-linecap="round" pointer-events="all" transform="translate(476, 254)"/><path id="path_3955d824-8284-4d5f-2aed-219cedd94c19" d="M10.37,12.36 Q10.85,15.37 17.62,23.56 T34.61,29.11 49.94,17.15 55.29,3.65 55.87,-2.19 57.10,-5.31 59.27,-7.88 62.13,-9.61 65.41,-10.34 68.74,-9.99 71.79,-8.59 74.23,-6.30 75.81,-3.34 76.36,-0.03 75.83,3.28 74.27,6.25 71.84,8.56 68.80,9.98 65.47,10.35 62.19,9.64 59.32,7.92 57.14,5.37 55.89,2.26 55.70,-1.09 56.58,-4.32 58.46,-7.10 61.12,-9.14 64.29,-10.22 67.65,-10.23 70.83,-9.17 73.50,-7.15 75.39,-4.38 76.30,-1.15 76.49,0.54 73.98,13.32 64.46,34.76 47.78,48.72 26.94,52.46 7.14,44.72 -5.69,28.59 -10.13,17.15 -10.42,14.37 -10.20,11.87 -9.40,9.49 -8.04,7.37 -6.22,5.64 -4.04,4.39 -1.63,3.70 0.89,3.61 3.35,4.13 5.61,5.22 7.55,6.81 9.05,8.83 10.03,11.15 Z" fill="#FFFFFF" stroke="transparent" stroke-width="0" stroke-linejoin="round" stroke-linecap="round" pointer-events="all" transform="translate(601, 487)"/><path id="path_883bde90-c0fc-40fd-1630-0f549f411488" d="M8.32,7.60 Q9.91,9.66 15.81,5.88 T21.65,0.41 22.06,-2.91 23.51,-5.94 25.85,-8.34 28.83,-9.87 32.15,-10.36 35.45,-9.77 38.39,-8.16 40.66,-5.69 42.02,-2.63 42.34,0.71 41.57,3.97 39.80,6.82 37.21,8.95 34.08,10.15 30.73,10.28 27.51,9.34 24.77,7.42 22.78,4.72 21.75,1.53 21.80,-1.82 22.92,-4.98 24.98,-7.62 27.79,-9.47 31.03,-10.32 34.37,-10.09 37.47,-8.80 39.99,-6.59 41.68,-3.70 42.29,-2.11 43.34,10.26 37.29,30.85 19.45,37.92 0.99,29.61 -7.53,21.43 -8.97,19.31 -9.98,17.01 -10.41,14.54 -10.24,12.03 -9.47,9.64 -8.15,7.50 -6.35,5.74 -4.19,4.46 -1.79,3.73 0.72,3.60 3.19,4.08 5.47,5.13 7.44,6.70 Z" fill="#FFFFFF" stroke="transparent" stroke-width="0" stroke-linejoin="round" stroke-linecap="round" pointer-events="all" transform="translate(625, 523)"/><path id="path_9124a164-dd34-49bf-1467-40a465539dea" d="M12.00,67.20 Q10.73,63.24 6.85,52.91 T-0.84,32.67 -7.45,12.47 -10.35,0.48 -9.96,-2.85 -8.53,-5.88 -6.20,-8.30 -3.23,-9.85 0.08,-10.36 3.39,-9.79 6.34,-8.20 8.62,-5.74 10.01,-2.69 10.34,0.65 9.59,3.91 7.84,6.77 5.27,8.92 2.14,10.14 -1.21,10.29 -4.43,9.37 -7.19,7.46 -9.19,4.78 -10.24,1.59 -10.21,-1.76 -9.11,-4.93 -7.06,-7.58 -4.27,-9.44 -1.03,-10.31 2.31,-10.10 5.42,-8.83 7.95,-6.64 9.66,-3.75 10.27,-2.17 12.58,6.42 18.79,25.21 26.71,46.12 31.37,58.82 32.24,62.04 32.41,64.55 31.97,67.03 30.96,69.32 29.43,71.31 27.46,72.88 25.18,73.93 22.71,74.40 20.20,74.27 17.79,73.54 15.63,72.25 13.84,70.49 12.53,68.35 Z" fill="#FFFFFF" stroke="transparent" stroke-width="0" stroke-linejoin="round" stroke-linecap="round" pointer-events="all" transform="translate(501, 80)"/><path id="path_a91548db-93b3-4264-2efb-7308c7ca3fa1" d="M69.02,39.07 Q64.74,37.80 54.90,33.93 T34.39,25.47 13.54,16.95 -0.42,11.31 -5.65,8.68 -8.13,6.42 -9.76,3.49 -10.36,0.19 -9.88,-3.13 -8.36,-6.12 -5.97,-8.47 -2.96,-9.93 0.37,-10.36 3.66,-9.69 6.56,-8.02 8.78,-5.50 10.08,-2.41 10.32,0.93 9.48,4.18 7.65,6.99 5.02,9.06 1.86,10.19 -1.49,10.25 -4.68,9.24 -7.39,7.26 -9.32,4.52 -10.28,1.31 -10.16,-2.04 -8.97,-5.18 -6.85,-7.77 -4.01,-9.55 -0.75,-10.33 2.59,-10.03 4.23,-9.61 17.05,-4.44 39.88,5.02 60.29,13.49 72.84,18.30 76.14,19.44 78.31,20.71 80.11,22.46 81.44,24.59 82.23,26.98 82.41,29.48 81.99,31.96 80.99,34.27 79.47,36.27 77.52,37.84 75.24,38.91 72.77,39.39 70.26,39.28 Z" fill="#FFFFFF" stroke="transparent" stroke-width="0" stroke-linejoin="round" stroke-linecap="round" pointer-events="all" transform="translate(363, 161)"/><path id="path_9b67a29b-92d1-4895-3cc5-bcd0217b8aba" d="M-9.31,58.14 Q-7.41,54.50 -2.14,44.92 T9.72,26.91 23.34,10.56 34.07,-1.94 39.03,-7.67 41.85,-9.49 45.09,-10.32 48.44,-10.07 51.53,-8.77 54.04,-6.54 55.70,-3.63 56.36,-0.34 55.92,2.98 54.45,5.99 52.10,8.38 49.10,9.89 45.78,10.36 42.49,9.75 39.56,8.12 37.30,5.63 35.96,2.56 35.67,-0.78 36.46,-4.04 38.25,-6.87 40.85,-8.99 43.99,-10.16 47.34,-10.28 50.55,-9.31 53.28,-7.37 55.25,-4.66 56.26,-1.46 56.19,1.89 55.05,5.05 54.22,6.53 44.89,17.46 28.41,37.17 16.23,55.08 10.26,66.03 8.59,68.90 6.93,70.79 4.87,72.22 2.52,73.11 0.03,73.42 -2.47,73.13 -4.82,72.24 -6.89,70.82 -8.56,68.94 -9.74,66.72 -10.34,64.28 -10.35,61.77 -9.75,59.33 Z" fill="#FFFFFF" stroke="transparent" stroke-width="0" stroke-linejoin="round" stroke-linecap="round" pointer-events="all" transform="translate(638, 98)"/><path id="path_36ffafd4-b921-45ad-0d91-4a0c07fb584b" d="M-5.82,23.26 Q-2.49,21.04 7.98,15.78 T28.51,6.73 49.26,0.15 71.06,-4.87 89.49,-8.69 98.51,-10.35 101.84,-9.96 104.87,-8.54 107.29,-6.21 108.84,-3.24 109.36,0.07 108.80,3.38 107.21,6.33 104.76,8.62 101.70,10.00 98.37,10.34 95.10,9.60 92.24,7.85 90.08,5.28 88.87,2.16 88.71,-1.19 89.63,-4.42 91.53,-7.18 94.21,-9.19 97.40,-10.24 100.75,-10.21 103.92,-9.12 106.57,-7.07 108.43,-4.28 109.31,-1.05 109.10,2.30 107.84,5.40 105.65,7.94 102.77,9.65 101.19,10.27 87.29,13.19 62.55,18.54 41.04,24.66 19.77,33.44 7.49,39.63 4.69,41.31 2.33,42.16 -0.17,42.42 -2.66,42.08 -4.99,41.15 -7.04,39.69 -8.67,37.78 -9.80,35.54 -10.37,33.09 -10.33,30.58 -9.68,28.15 -8.48,25.94 -6.78,24.09 Z" fill="#FFFFFF" stroke="transparent" stroke-width="0" stroke-linejoin="round" stroke-linecap="round" pointer-events="all" transform="translate(714, 227)"/><path id="path_78cacd59-35d0-4e1d-355e-7f2c7557897d" d="M5.21,-9.12 Q9.65,-6.58 18.82,-1.38 T38.92,10.09 58.95,21.64 77.44,32.12 93.55,41.11 101.58,45.99 103.79,48.51 105.08,51.61 105.32,54.95 104.47,58.20 102.64,61.00 100.00,63.07 96.84,64.20 93.49,64.25 90.30,63.23 87.59,61.25 85.67,58.50 84.72,55.29 84.85,51.94 86.04,48.80 88.17,46.21 91.01,44.44 94.27,43.66 97.61,43.97 100.68,45.33 103.15,47.60 104.76,50.53 105.36,53.83 104.87,57.15 103.35,60.14 100.95,62.48 97.93,63.94 94.60,64.35 91.32,63.69 89.73,63.08 76.40,55.71 52.76,42.41 32.19,30.50 10.57,18.09 -2.99,10.38 -6.22,8.36 -8.04,6.63 -9.40,4.51 -10.20,2.13 -10.42,-0.37 -10.02,-2.86 -9.05,-5.17 -7.55,-7.19 -5.61,-8.79 -3.34,-9.87 -0.88,-10.39 1.63,-10.30 4.04,-9.61 Z" fill="#FFFFFF" stroke="transparent" stroke-width="0" stroke-linejoin="round" stroke-linecap="round" pointer-events="all" transform="translate(706, 354)"/><path id="path_c5777242-58ba-46e0-3325-3b6cc9745c74" d="M60.07,5.29 Q57.85,9.09 52.38,18.78 T41.21,38.69 30.32,58.17 20.88,77.65 12.92,95.44 8.18,104.36 5.72,106.64 2.66,108.01 -0.67,108.34 -3.94,107.58 -6.79,105.82 -8.94,103.24 -10.14,100.12 -10.29,96.77 -9.36,93.55 -7.44,90.79 -4.75,88.79 -1.56,87.76 1.79,87.79 4.95,88.90 7.60,90.96 9.45,93.75 10.31,96.99 10.09,100.34 8.82,103.44 6.62,105.97 3.73,107.67 0.45,108.35 -2.88,107.95 -5.91,106.51 -8.32,104.18 -9.86,101.20 -10.36,97.88 -9.78,94.58 -9.22,92.98 -5.47,84.90 2.63,66.85 12.56,46.98 23.26,27.84 34.05,8.55 40.82,-3.39 42.70,-6.30 44.44,-8.10 46.57,-9.44 48.96,-10.22 51.47,-10.41 53.95,-10.00 56.25,-9.00 58.25,-7.48 59.83,-5.53 60.90,-3.26 61.39,-0.79 61.28,1.72 60.57,4.13 Z" fill="#FFFFFF" stroke="transparent" stroke-width="0" stroke-linejoin="round" stroke-linecap="round" pointer-events="all" transform="translate(449, 419)"/><path id="path_2ef4aff5-dc97-4071-0dce-50cd93e1126e" d="M66.95,10.46 Q63.46,10.77 52.48,12.37 T30.75,15.93 10.18,18.69 -1.32,19.28 -4.53,18.32 -7.27,16.38 -9.25,13.67 -10.26,10.48 -10.19,7.12 -9.06,3.97 -6.98,1.34 -4.16,-0.49 -0.92,-1.32 2.43,-1.07 5.52,0.23 8.03,2.45 9.70,5.36 10.36,8.64 9.93,11.97 8.46,14.98 6.11,17.37 3.11,18.88 -0.21,19.36 -3.50,18.75 -6.43,17.12 -8.69,14.64 -10.04,11.57 -10.33,8.23 -9.55,4.97 -7.76,2.14 -5.16,0.02 -2.03,-1.16 -0.36,-1.49 8.83,-2.26 28.54,-5.00 50.31,-8.56 63.31,-10.30 66.31,-10.42 68.80,-10.04 71.12,-9.08 73.14,-7.59 74.75,-5.66 75.85,-3.40 76.38,-0.94 76.30,1.57 75.63,3.99 74.40,6.18 72.67,8.01 70.56,9.37 68.19,10.19 Z" fill="#FFFFFF" stroke="transparent" stroke-width="0" stroke-linejoin="round" stroke-linecap="round" pointer-events="all" transform="translate(346, 312)"/></svg>