<svg xmlns="http://www.w3.org/2000/svg" viewBox="749 261 579 463" width="120" height="100"><path id="path_ee43e478-ff36-44ba-258d-aae3b4c5ed09" d="M333.14,10.83 Q327.76,12.91 315.60,17.98 T291.15,27.94 267.32,37.33 242.66,46.76 216.19,56.65 190.88,66.34 168.06,75.29 145.66,84.23 122.63,93.54 100.64,102.69 78.64,112.07 56.37,121.35 33.92,130.50 13.00,138.25 1.80,141.62 -2.01,141.59 -5.60,140.34 -8.61,138.01 -10.72,134.84 -11.70,131.16 -11.46,127.36 -10.02,123.84 -7.53,120.97 -4.25,119.03 -0.53,118.25 3.25,118.70 6.69,120.33 9.43,122.97 11.18,126.35 11.76,130.11 11.11,133.86 9.29,137.20 6.51,139.80 3.04,141.36 -0.75,141.74 -4.46,140.88 -7.70,138.89 -10.13,135.97 -11.51,132.42 -11.68,128.62 -10.63,124.96 -8.46,121.83 -5.41,119.56 -3.70,118.67 5.21,115.68 24.99,108.35 46.70,99.55 69.00,90.28 91.83,80.61 114.05,71.45 136.79,62.34 159.34,53.40 182.20,44.47 207.71,34.71 234.01,24.90 259.01,15.36 282.99,5.99 307.21,-3.75 322.16,-9.81 326.22,-11.17 328.97,-11.51 331.72,-11.18 334.32,-10.21 336.61,-8.64 338.45,-6.56 339.75,-4.11 340.42,-1.42 340.43,1.36 339.77,4.05 338.49,6.51 336.65,8.59 334.38,10.18 Z" fill="#FFFFFF" stroke="transparent" stroke-width="0" stroke-linejoin="round" stroke-linecap="round" pointer-events="all" transform="translate(828, 301)"/><path id="path_7c465314-aed8-4593-1e9f-24d1fb374b0f" d="M46.31,6.86 Q44.11,9.89 36.89,19.61 T23.49,39.30 13.39,54.65 8.11,61.35 5.02,63.51 1.40,64.56 -2.36,64.40 -5.88,63.05 -8.78,60.65 -10.76,57.44 -11.62,53.77 -11.26,50.02 -9.72,46.59 -7.16,43.82 -3.85,42.01 -0.14,41.36 3.58,41.92 6.93,43.64 9.56,46.35 11.18,49.75 11.63,53.49 10.87,57.18 8.97,60.43 6.12,62.90 2.64,64.34 -1.12,64.59 -4.76,63.63 -7.90,61.55 -10.22,58.58 -11.47,55.02 -11.51,51.26 -10.35,47.67 -9.48,45.98 -5.70,40.77 4.41,25.57 18.10,5.86 26.57,-5.36 28.64,-7.88 30.77,-9.65 33.26,-10.86 35.97,-11.44 38.74,-11.35 41.40,-10.61 43.81,-9.25 45.83,-7.35 47.33,-5.02 48.23,-2.40 48.48,0.36 48.06,3.09 47.00,5.65 Z" fill="#FFFFFF" stroke="transparent" stroke-width="0" stroke-linejoin="round" stroke-linecap="round" pointer-events="all" transform="translate(790, 434)"/><path id="path_7b8cc320-364c-481a-0165-cd9e30b3e3c4" d="M8.96,-7.33 Q11.83,-3.86 19.49,4.91 T36.09,21.65 54.57,37.18 73.11,52.10 83.44,60.84 85.60,63.97 86.65,67.61 86.49,71.41 85.12,74.95 82.69,77.87 79.45,79.86 75.75,80.71 71.97,80.34 68.51,78.78 65.73,76.19 63.92,72.86 63.26,69.12 63.84,65.36 65.59,61.99 68.32,59.35 71.75,57.72 75.52,57.28 79.24,58.06 82.51,59.98 85.00,62.85 86.44,66.37 86.68,70.15 85.70,73.82 83.60,76.99 80.60,79.31 77.01,80.56 73.21,80.60 69.60,79.42 67.90,78.54 57.06,69.64 37.22,53.50 19.03,37.84 1.86,20.13 -7.54,9.08 -9.71,6.15 -10.90,3.65 -11.46,0.94 -11.35,-1.83 -10.58,-4.50 -9.20,-6.90 -7.28,-8.90 -4.94,-10.38 -2.31,-11.26 0.45,-11.49 3.19,-11.05 5.74,-9.96 7.96,-8.30 Z" fill="#FFFFFF" stroke="transparent" stroke-width="0" stroke-linejoin="round" stroke-linecap="round" pointer-events="all" transform="translate(830, 432)"/><path id="path_0c9c62ec-ab4d-4c64-37cd-419c530f37d0" d="M18.57,0.00 Q18.58,3.49 18.10,15.18 T16.37,38.51 13.93,62.55 12.25,78.73 11.22,84.33 9.57,87.74 6.92,90.44 3.54,92.16 -0.21,92.70 -3.93,92.02 -7.25,90.19 -9.80,87.39 -11.33,83.93 -11.67,80.16 -10.79,76.47 -8.78,73.26 -5.85,70.86 -2.31,69.53 1.47,69.39 5.10,70.47 8.20,72.65 10.44,75.70 11.58,79.31 11.51,83.10 10.24,86.67 7.89,89.64 4.72,91.71 1.06,92.66 -2.72,92.38 -6.21,90.92 -9.06,88.41 -10.95,85.13 -11.70,81.42 -11.77,79.51 -10.16,65.64 -7.41,39.78 -5.42,15.64 -4.58,1.74 -4.40,-1.38 -3.74,-4.07 -2.45,-6.52 -0.61,-8.60 1.66,-10.17 4.25,-11.15 7.00,-11.48 9.75,-11.15 12.34,-10.17 14.62,-8.59 16.45,-6.52 17.74,-4.07 18.40,-1.38 Z" fill="#FFFFFF" stroke="transparent" stroke-width="0" stroke-linejoin="round" stroke-linecap="round" pointer-events="all" transform="translate(898, 501)"/><path id="path_d7f65fe5-c5e7-4091-0845-a60ee725b5fd" d="M8.19,-8.19 Q11.21,-5.19 19.86,3.29 T36.65,19.77 53.28,35.97 70.89,51.22 89.48,65.05 109.07,79.13 120.54,87.84 122.70,90.99 123.74,94.67 123.55,98.49 122.15,102.05 119.69,104.97 116.42,106.96 112.69,107.80 108.89,107.40 105.41,105.81 102.62,103.19 100.82,99.82 100.18,96.05 100.79,92.27 102.56,88.89 105.33,86.25 108.79,84.63 112.59,84.20 116.33,85.01 119.61,86.96 122.10,89.87 123.53,93.41 123.75,97.23 122.74,100.92 120.61,104.09 117.58,106.42 113.96,107.65 110.13,107.67 106.51,106.46 104.79,105.56 93.92,97.86 73.58,83.13 55.05,69.00 37.44,53.61 20.82,37.18 3.76,20.13 -6.69,9.70 -9.05,7.09 -10.48,4.72 -11.31,2.07 -11.47,-0.69 -10.97,-3.42 -9.84,-5.95 -8.13,-8.13 -5.95,-9.84 -3.42,-10.97 -0.69,-11.47 2.07,-11.31 4.72,-10.48 7.09,-9.05 Z" fill="#FFFFFF" stroke="transparent" stroke-width="0" stroke-linejoin="round" stroke-linecap="round" pointer-events="all" transform="translate(789, 491)"/><path id="path_6b78d08a-87e7-4ac8-3817-4c4ac8a09581" d="M-5.18,144.64 Q-0.43,142.24 9.89,136.98 T32.70,126.05 56.09,115.92 78.69,107.06 103.31,97.64 127.57,87.75 149.80,78.32 171.88,68.45 195.90,57.43 220.00,46.93 242.15,37.36 263.91,27.38 285.69,16.81 307.16,5.36 327.84,-5.77 339.80,-11.39 343.61,-11.82 347.35,-11.01 350.63,-9.04 353.12,-6.13 354.55,-2.58 354.77,1.24 353.76,4.94 351.62,8.11 348.57,10.44 344.95,11.67 341.12,11.68 337.49,10.47 334.43,8.16 332.27,5.00 331.24,1.31 331.43,-2.51 332.84,-6.07 335.31,-9.00 338.59,-10.98 342.33,-11.82 346.13,-11.41 349.61,-9.81 352.40,-7.19 354.20,-3.81 354.83,-0.03 354.23,3.75 352.44,7.14 349.67,9.78 348.07,10.87 335.82,17.06 312.53,29.43 290.98,40.75 269.76,50.80 247.86,60.69 225.04,70.59 201.14,81.16 176.72,92.25 153.46,102.44 130.98,112.06 108.84,120.97 86.64,129.31 64.64,137.89 42.31,147.44 20.25,157.84 7.56,164.18 3.87,165.83 1.16,166.44 -1.61,166.39 -4.29,165.67 -6.72,164.33 -8.76,162.45 -10.29,160.14 -11.22,157.53 -11.50,154.77 -11.11,152.03 -10.08,149.46 -8.46,147.21 -6.34,145.41 Z" fill="#FFFFFF" stroke="transparent" stroke-width="0" stroke-linejoin="round" stroke-linecap="round" pointer-events="all" transform="translate(905, 347)"/><path id="path_d0436cfc-729d-464a-286d-8d2c67d73eae" d="M5.01,-10.43 Q8.98,-8.55 19.81,-4.03 T41.11,6.27 61.65,17.51 78.55,25.78 87.10,29.45 90.20,31.63 92.45,34.69 93.60,38.30 93.53,42.09 92.26,45.66 89.91,48.64 86.74,50.72 83.07,51.67 79.29,51.40 75.79,49.94 72.94,47.43 71.04,44.15 70.29,40.44 70.76,36.67 72.41,33.26 75.07,30.55 78.45,28.83 82.20,28.28 85.93,28.96 89.25,30.79 91.81,33.59 93.34,37.06 93.69,40.83 92.81,44.52 90.80,47.74 87.87,50.14 84.32,51.49 80.53,51.63 78.63,51.39 69.92,47.79 51.07,38.70 30.70,27.39 9.72,16.96 -3.03,11.39 -6.18,9.68 -8.32,7.92 -9.98,5.70 -11.05,3.15 -11.48,0.41 -11.25,-2.35 -10.36,-4.97 -8.87,-7.31 -6.86,-9.22 -4.46,-10.59 -1.79,-11.35 0.98,-11.45 3.69,-10.88 Z" fill="#FFFFFF" stroke="transparent" stroke-width="0" stroke-linejoin="round" stroke-linecap="round" pointer-events="all" transform="translate(1161, 302)"/><path id="path_e2eb4fda-9b40-4ab2-1457-e9cb977b6520" d="M9.21,-7.02 Q11.76,-3.70 18.65,6.24 T32.41,25.86 44.62,44.14 50.70,54.50 51.58,58.15 51.25,61.89 49.73,65.33 47.20,68.11 43.92,69.93 40.22,70.61 36.50,70.07 33.15,68.38 30.51,65.70 28.87,62.32 28.39,58.59 29.13,54.91 31.01,51.65 33.82,49.16 37.29,47.71 41.04,47.43 44.68,48.37 47.83,50.42 50.16,53.37 51.42,56.90 51.49,60.66 50.36,64.24 48.14,67.28 45.07,69.45 41.47,70.52 37.72,70.39 34.20,69.06 31.29,66.68 30.03,65.26 24.99,57.16 13.15,39.31 -0.17,19.96 -7.95,8.69 -9.91,5.81 -11.02,3.27 -11.48,0.54 -11.28,-2.22 -10.42,-4.86 -8.95,-7.21 -6.96,-9.14 -4.57,-10.54 -1.92,-11.33 0.85,-11.46 3.57,-10.93 6.08,-9.75 8.24,-8.02 Z" fill="#FFFFFF" stroke="transparent" stroke-width="0" stroke-linejoin="round" stroke-linecap="round" pointer-events="all" transform="translate(1248, 351)"/><path id="path_d69888c7-9610-4651-31da-ac1d5918569b" d="M391.32,10.30 Q386.41,12.85 374.90,18.13 T352.38,28.00 329.06,37.39 305.34,46.46 282.84,55.40 261.28,64.82 239.53,75.25 217.23,86.54 195.69,97.28 173.51,107.43 150.26,117.12 127.35,126.54 103.97,137.13 81.14,148.72 59.19,160.32 37.33,171.99 16.18,183.14 3.92,189.16 0.16,189.83 -3.63,189.26 -7.04,187.51 -9.71,184.77 -11.36,181.31 -11.82,177.51 -11.05,173.76 -9.12,170.46 -6.23,167.94 -2.69,166.48 1.13,166.22 4.83,167.20 8.02,169.31 10.38,172.32 11.65,175.93 11.70,179.76 10.52,183.41 8.25,186.48 5.11,188.67 1.43,189.75 -2.39,189.59 -5.97,188.22 -8.92,185.78 -10.93,182.52 -11.81,178.79 -11.44,174.98 -9.88,171.49 -7.28,168.67 -5.75,167.48 7.78,160.32 31.72,147.72 52.22,136.85 73.67,125.57 95.69,114.54 117.70,104.65 140.94,95.12 164.01,85.54 185.54,75.71 206.15,65.47 228.12,54.39 250.99,43.46 273.71,33.57 296.86,24.40 320.39,15.48 342.90,6.56 364.60,-2.77 378.22,-9.04 381.99,-10.78 384.69,-11.43 387.47,-11.41 390.15,-10.73 392.60,-9.42 394.66,-7.57 396.22,-5.28 397.19,-2.68 397.50,0.08 397.15,2.83 396.15,5.42 394.56,7.69 392.47,9.51 Z" fill="#FFFFFF" stroke="transparent" stroke-width="0" stroke-linejoin="round" stroke-linecap="round" pointer-events="all" transform="translate(900, 412)"/><path id="path_4f8203f9-ba7c-4b32-0c01-0593b072a2d3" d="M11.18,18.06 Q11.99,21.06 17.78,30.93 T32.23,48.42 42.87,67.49 45.98,91.04 47.45,111.08 47.65,120.42 47.03,123.22 45.77,125.78 43.92,127.97 41.61,129.65 38.96,130.73 36.13,131.15 33.29,130.88 30.59,129.93 28.19,128.36 26.24,126.27 24.85,123.77 24.10,121.01 24.20,108.07 25.21,85.09 31.09,63.41 42.92,42.98 42.91,19.90 35.39,5.27 34.26,1.61 34.36,-2.22 35.68,-5.82 38.08,-8.81 41.31,-10.88 45.03,-11.81 48.85,-11.50 52.37,-9.99 55.23,-7.43 57.12,-4.09 57.84,-0.33 57.33,3.47 55.63,6.91 52.92,9.62 49.49,11.33 45.69,11.85 41.92,11.13 38.58,9.24 36.02,6.39 34.50,2.87 34.19,-0.95 35.11,-4.68 37.17,-7.91 40.16,-10.31 43.76,-11.64 47.59,-11.74 51.26,-10.62 54.37,-8.38 55.75,-7.01 61.77,0.85 70.84,20.24 71.35,43.02 60.44,62.78 50.29,82.87 48.15,106.72 47.65,120.42 47.03,123.21 45.77,125.78 43.93,127.97 41.61,129.65 38.96,130.73 36.13,131.15 33.29,130.88 30.59,129.93 28.19,128.36 26.24,126.27 24.85,123.77 24.10,121.01 23.75,115.07 22.58,98.52 18.26,74.93 5.65,56.77 -7.03,38.56 -10.79,25.45 -11.37,22.56 -11.41,19.80 -10.79,17.10 -9.55,14.63 -7.74,12.53 -5.49,10.92 -2.92,9.90 -0.18,9.52 2.57,9.81 5.17,10.76 7.48,12.29 9.34,14.33 10.67,16.76 Z" fill="#FFFFFF" stroke="transparent" stroke-width="0" stroke-linejoin="round" stroke-linecap="round" pointer-events="all" transform="translate(928, 558)"/><path id="path_1aac24b0-9f2b-4e4a-3989-cfe856416c8e" d="M11.55,23.42 Q11.72,26.59 15.01,37.78 T29.16,56.11 44.47,74.45 50.64,97.47 51.56,119.40 50.38,130.89 49.33,133.56 47.68,135.89 45.51,137.77 42.96,139.07 40.17,139.72 37.31,139.68 34.54,138.96 32.02,137.60 29.90,135.68 28.30,133.31 27.32,130.62 27.01,127.77 26.59,114.33 26.22,90.74 31.99,69.07 45.29,50.02 54.18,29.19 52.26,12.05 48.24,5.01 47.20,1.31 47.40,-2.53 48.82,-6.10 51.30,-9.03 54.58,-11.02 58.33,-11.85 62.15,-11.45 65.64,-9.84 68.44,-7.20 70.24,-3.81 70.87,-0.02 70.26,3.77 68.46,7.17 65.68,9.81 62.20,11.43 58.38,11.86 54.63,11.04 51.33,9.06 48.84,6.14 47.41,2.57 47.20,-1.26 48.22,-4.97 50.37,-8.15 53.42,-10.48 57.06,-11.71 60.90,-11.72 64.54,-10.50 67.61,-8.18 68.94,-6.77 75.03,6.06 79.59,31.22 72.17,54.20 58.15,73.38 50.08,93.45 50.44,117.23 50.38,130.89 49.33,133.56 47.68,135.89 45.51,137.77 42.96,139.07 40.17,139.72 37.31,139.68 34.54,138.97 32.02,137.60 29.90,135.68 28.30,133.31 27.32,130.62 27.01,127.77 27.79,118.52 26.62,99.01 16.13,79.37 0.46,62.07 -9.03,40.23 -11.48,26.16 -11.45,23.19 -10.92,20.47 -9.76,17.96 -8.03,15.80 -5.84,14.11 -3.30,13.00 -0.57,12.53 2.19,12.73 4.82,13.58 7.17,15.04 9.11,17.02 10.52,19.40 11.31,22.05 Z" fill="#FFFFFF" stroke="transparent" stroke-width="0" stroke-linejoin="round" stroke-linecap="round" pointer-events="all" transform="translate(1018, 515)"/><path id="path_fd2634bc-575f-4df2-1f02-02bd67e1a52d" d="M10.08,23.33 Q11.52,25.86 19.34,34.51 T36.88,49.55 50.31,67.31 55.58,90.29 57.52,109.65 57.74,118.85 57.11,121.64 55.83,124.20 53.98,126.37 51.66,128.05 49.00,129.11 46.17,129.51 43.32,129.22 40.63,128.26 38.24,126.68 36.30,124.58 34.93,122.07 34.19,119.31 34.96,106.39 37.64,82.51 46.61,61.04 54.06,40.56 47.33,17.45 39.77,3.90 39.11,0.11 39.70,-3.69 41.47,-7.11 44.24,-9.78 47.72,-11.43 51.54,-11.88 55.30,-11.08 58.61,-9.13 61.13,-6.22 62.59,-2.66 62.83,1.18 61.83,4.89 59.70,8.10 56.66,10.45 53.03,11.71 49.18,11.75 45.53,10.55 42.44,8.25 40.26,5.09 39.19,1.39 39.37,-2.45 40.76,-6.04 43.22,-8.99 46.50,-11.00 50.25,-11.86 54.08,-11.48 57.58,-9.90 60.40,-7.28 61.59,-5.74 65.32,0.64 74.48,17.76 81.13,40.61 74.92,62.17 63.71,82.75 58.91,105.65 57.74,118.85 57.11,121.64 55.83,124.20 53.98,126.37 51.66,128.04 49.00,129.11 46.17,129.51 43.32,129.22 40.63,128.26 38.24,126.68 36.31,124.58 34.93,122.07 34.19,119.31 33.94,115.27 32.80,101.16 28.45,78.28 14.43,61.95 -2.49,47.11 -9.37,35.94 -10.61,33.38 -11.35,30.71 -11.43,27.95 -10.84,25.24 -9.63,22.76 -7.86,20.63 -5.63,19.00 -3.07,17.94 -0.33,17.53 2.42,17.78 5.04,18.69 7.36,20.19 9.25,22.21 Z" fill="#FFFFFF" stroke="transparent" stroke-width="0" stroke-linejoin="round" stroke-linecap="round" pointer-events="all" transform="translate(1106, 471)"/><path id="path_229c216a-78bb-45c1-0d09-b07df6b61dd0" d="M11.16,16.96 Q12.13,20.44 15.92,31.28 T29.24,48.39 44.05,65.57 50.09,87.91 50.89,103.25 50.77,108.61 50.13,111.40 48.83,113.95 46.96,116.11 44.63,117.77 41.97,118.82 39.14,119.20 36.30,118.90 33.61,117.92 31.24,116.33 29.31,114.21 27.95,111.70 27.23,108.93 27.02,96.07 28.08,72.55 36.99,52.04 48.12,32.23 46.21,14.94 39.77,7.50 37.86,4.16 37.11,0.39 37.61,-3.43 39.30,-6.89 42.01,-9.62 45.45,-11.35 49.26,-11.89 53.04,-11.19 56.40,-9.31 58.99,-6.46 60.53,-2.93 60.86,0.90 59.95,4.64 57.89,7.89 54.91,10.32 51.30,11.67 47.46,11.79 43.77,10.68 40.64,8.45 38.37,5.34 37.22,1.67 37.31,-2.18 38.62,-5.80 41.01,-8.81 44.24,-10.90 47.97,-11.85 51.81,-11.56 55.35,-10.05 57.00,-9.01 61.20,-5.25 70.44,8.77 74.39,30.44 67.24,52.20 56.07,72.99 50.96,95.30 50.77,108.61 50.13,111.40 48.83,113.95 46.97,116.11 44.63,117.77 41.98,118.82 39.14,119.20 36.30,118.90 33.61,117.92 31.24,116.33 29.31,114.22 27.95,111.70 27.23,108.94 26.79,96.10 20.28,75.08 5.48,57.34 -6.64,37.88 -10.69,24.79 -11.36,21.66 -11.43,18.90 -10.83,16.19 -9.61,13.71 -7.82,11.59 -5.58,9.97 -3.02,8.92 -0.28,8.52 2.47,8.79 5.09,9.70 7.40,11.22 9.29,13.25 10.63,15.67 Z" fill="#FFFFFF" stroke="transparent" stroke-width="0" stroke-linejoin="round" stroke-linecap="round" pointer-events="all" transform="translate(1201, 429)"/><path id="path_03470505-e0fc-4a62-2891-4ccd1f318f0f" d="M11.54,-0.64 Q11.72,2.21 12.16,14.09 T12.66,34.46 12.44,44.82 11.26,48.38 9.00,51.37 5.91,53.49 2.30,54.51 -1.44,54.32 -4.93,52.95 -7.79,50.54 -9.74,47.34 -10.56,43.68 -10.17,39.95 -8.61,36.54 -6.05,33.81 -2.75,32.04 0.95,31.42 4.65,32.01 7.97,33.75 10.56,36.46 12.15,39.85 12.57,43.58 11.78,47.24 9.86,50.46 7.01,52.90 3.54,54.30 -0.20,54.52 -3.82,53.53 -6.93,51.44 -9.21,48.47 -10.42,44.92 -10.74,43.05 -10.77,34.67 -11.10,14.89 -11.47,2.07 -11.45,-0.75 -10.94,-3.47 -9.79,-5.99 -8.08,-8.16 -5.89,-9.85 -3.36,-10.97 -0.64,-11.46 2.13,-11.28 4.76,-10.44 7.12,-9.00 9.07,-7.03 10.49,-4.66 11.30,-2.01 Z" fill="#FFFFFF" stroke="transparent" stroke-width="0" stroke-linejoin="round" stroke-linecap="round" pointer-events="all" transform="translate(850, 558)"/></svg>