<svg xmlns="http://www.w3.org/2000/svg" viewBox="756 262 607 418" width="120" height="100"><path id="path_01db628d-27ed-445c-250e-4f9d19f0cead" d="M-0.27,-2.56 Q6.55,-2.74 18.02,-2.93 T42.84,-3.22 70.51,-3.39 98.90,-3.48 127.37,-3.54 156.82,-3.57 186.80,-3.58 215.99,-3.59 244.92,-3.60 274.24,-3.96 304.47,-5.26 336.46,-6.87 367.53,-8.25 409.84,-10.16 439.30,-11.16 442.79,-10.16 445.79,-8.10 447.97,-5.19 449.10,-1.74 449.07,1.90 447.89,5.34 445.67,8.21 442.64,10.23 439.13,11.18 435.50,10.96 432.14,9.58 429.38,7.21 427.53,4.08 426.78,0.52 427.20,-3.09 428.75,-6.37 431.27,-9.00 434.49,-10.67 438.08,-11.24 441.67,-10.62 444.87,-8.89 447.35,-6.24 448.85,-2.92 449.22,0.69 448.41,4.24 446.51,7.34 443.72,9.67 440.33,10.99 438.53,11.37 415.18,12.58 377.93,14.52 348.09,15.84 316.26,17.29 284.85,18.89 254.61,19.62 225.67,19.62 196.67,19.63 166.78,19.66 137.01,19.69 108.32,19.75 80.04,19.83 52.07,19.96 22.72,20.23 3.68,20.49 -1.12,20.42 -3.82,19.83 -6.30,18.60 -8.41,16.81 -10.04,14.57 -11.08,12.01 -11.48,9.27 -11.21,6.51 -10.29,3.90 -8.77,1.59 -6.74,-0.29 -4.32,-1.64 -1.65,-2.36 Z" fill="#FFFFFF" stroke="transparent" stroke-width="0" stroke-linejoin="round" stroke-linecap="round" pointer-events="all" transform="translate(835, 302)"/><path id="path_2f62e125-51d8-4db4-0ad3-f9de54ca1c4b" d="M45.42,6.73 Q43.05,10.07 36.62,19.56 T23.58,39.23 13.44,54.86 8.66,61.74 5.74,64.10 2.21,65.40 -1.54,65.51 -5.14,64.41 -8.19,62.23 -10.39,59.18 -11.50,55.59 -11.41,51.83 -10.12,48.31 -7.77,45.37 -4.61,43.34 -0.97,42.43 2.78,42.73 6.23,44.20 9.04,46.71 10.89,49.97 11.61,53.66 11.11,57.39 9.44,60.76 6.79,63.42 3.43,65.09 -0.29,65.61 -3.98,64.91 -7.26,63.06 -9.77,60.27 -11.26,56.82 -11.57,53.08 -10.67,49.43 -9.93,47.68 -6.46,42.25 3.51,26.99 17.10,6.88 25.39,-5.07 27.53,-7.76 29.63,-9.56 32.10,-10.81 34.80,-11.42 37.57,-11.38 40.25,-10.67 42.68,-9.35 44.72,-7.48 46.26,-5.17 47.20,-2.57 47.49,0.19 47.11,2.93 46.08,5.50 Z" fill="#FFFFFF" stroke="transparent" stroke-width="0" stroke-linejoin="round" stroke-linecap="round" pointer-events="all" transform="translate(796, 316)"/><path id="path_e18948a5-88c8-4c99-2771-d6af4cd5802f" d="M11.28,-2.60 Q12.25,1.51 15.08,13.40 T19.33,37.91 21.44,62.43 22.96,86.62 24.84,112.50 25.71,128.01 24.77,131.70 22.71,134.89 19.73,137.26 16.16,138.55 12.36,138.64 8.73,137.50 5.65,135.27 3.45,132.17 2.35,128.53 2.47,124.73 3.80,121.17 6.20,118.21 9.41,116.18 13.10,115.28 16.89,115.61 20.38,117.13 23.20,119.68 25.05,123.00 25.75,126.74 25.22,130.51 23.51,133.90 20.81,136.58 17.39,138.25 13.62,138.75 9.89,138.01 6.59,136.12 4.07,133.28 2.58,129.78 2.13,127.91 1.02,113.34 -0.82,87.20 -2.15,63.88 -3.97,40.64 -7.76,17.94 -10.81,4.67 -11.42,1.22 -11.38,-1.55 -10.68,-4.23 -9.36,-6.67 -7.49,-8.71 -5.19,-10.25 -2.58,-11.20 0.17,-11.49 2.92,-11.11 5.49,-10.09 7.75,-8.49 9.55,-6.38 10.80,-3.91 Z" fill="#FFFFFF" stroke="transparent" stroke-width="0" stroke-linejoin="round" stroke-linecap="round" pointer-events="all" transform="translate(796, 373)"/><path id="path_6978538a-c3f8-4ea4-2522-48e3ef11d09c" d="M-10.44,63.97 Q-8.40,59.69 -3.09,48.77 T7.57,26.77 16.88,5.93 21.74,-5.52 24.04,-8.51 27.17,-10.60 30.81,-11.59 34.57,-11.36 38.07,-9.95 40.93,-7.49 42.85,-4.25 43.64,-0.56 43.21,3.19 41.60,6.60 39.00,9.32 35.65,11.07 31.93,11.65 28.21,11.02 24.89,9.23 22.32,6.48 20.75,3.05 20.37,-0.70 21.20,-4.38 23.17,-7.60 26.05,-10.02 29.57,-11.40 33.33,-11.58 36.96,-10.54 40.07,-8.41 42.33,-5.39 43.51,-1.81 43.49,1.96 43.17,3.84 38.55,15.08 28.70,36.98 17.99,58.69 11.48,71.89 9.69,75.20 7.92,77.34 5.70,79.00 3.14,80.07 0.40,80.50 -2.37,80.26 -4.99,79.36 -7.33,77.87 -9.24,75.86 -10.61,73.45 -11.37,70.78 -11.46,68.01 -10.89,65.29 Z" fill="#FFFFFF" stroke="transparent" stroke-width="0" stroke-linejoin="round" stroke-linecap="round" pointer-events="all" transform="translate(815, 438)"/><path id="path_b779a2bc-d37b-40ce-3da2-363c8f4c2b65" d="M11.53,-1.15 Q12.02,3.60 13.39,15.09 T15.95,38.43 17.46,61.70 18.70,84.79 19.77,101.59 19.63,108.62 18.50,112.25 16.28,115.33 13.19,117.54 9.55,118.64 5.75,118.53 2.19,117.21 -0.76,114.82 -2.80,111.61 -3.71,107.92 -3.39,104.13 -1.88,100.65 0.67,97.82 3.98,95.96 7.72,95.26 11.48,95.78 14.88,97.48 17.56,100.18 19.24,103.59 19.74,107.35 19.01,111.08 17.13,114.39 14.29,116.91 10.80,118.40 7.01,118.70 3.33,117.77 0.13,115.72 -2.24,112.75 -3.54,109.18 -3.90,107.29 -3.99,103.55 -5.01,88.21 -6.09,64.99 -7.32,41.72 -9.72,17.99 -11.30,3.53 -11.50,-0.24 -11.11,-2.99 -10.07,-5.56 -8.45,-7.81 -6.33,-9.60 -3.85,-10.84 -1.14,-11.45 1.63,-11.39 4.31,-10.67 6.73,-9.33 8.77,-7.44 10.30,-5.13 11.22,-2.51 Z" fill="#FFFFFF" stroke="transparent" stroke-width="0" stroke-linejoin="round" stroke-linecap="round" pointer-events="all" transform="translate(837, 320)"/><path id="path_11d016af-7775-458b-2f55-3757582454b2" d="M-0.77,0.44 Q6.36,-0.05 19.81,-1.10 T45.32,-2.87 69.19,-4.36 92.76,-6.05 116.41,-7.66 141.14,-9.02 165.93,-10.04 190.73,-10.54 215.50,-10.78 240.07,-10.88 264.37,-10.92 288.44,-10.93 312.73,-10.94 336.08,-10.96 358.99,-10.98 381.87,-11.28 404.85,-11.79 427.20,-12.00 439.91,-11.68 443.54,-10.46 446.59,-8.14 448.74,-4.97 449.77,-1.28 449.56,2.54 448.14,6.10 445.67,9.02 442.39,10.99 438.65,11.82 434.84,11.41 431.36,9.80 428.58,7.17 426.79,3.78 426.16,0.00 426.78,-3.78 428.58,-7.16 431.35,-9.79 434.83,-11.40 438.64,-11.82 442.38,-11.00 445.66,-9.02 448.14,-6.10 449.56,-2.55 449.77,1.28 448.74,4.97 446.59,8.14 443.55,10.46 439.92,11.68 438.00,11.99 430.46,12.02 410.88,12.15 387.07,12.62 362.80,12.98 338.84,12.97 315.79,12.95 292.49,12.94 268.68,12.93 243.58,12.94 219.18,12.99 195.33,13.14 171.32,13.51 147.03,14.41 122.48,15.66 97.09,17.26 71.27,19.00 46.93,20.43 21.38,22.10 4.34,23.33 -0.62,23.49 -3.36,23.01 -5.89,21.88 -8.09,20.19 -9.81,18.01 -10.96,15.49 -11.48,12.76 -11.33,10.00 -10.52,7.34 -9.10,4.96 -7.15,2.99 -4.79,1.54 -2.14,0.70 Z" fill="#FFFFFF" stroke="transparent" stroke-width="0" stroke-linejoin="round" stroke-linecap="round" pointer-events="all" transform="translate(850, 424)"/><path id="path_a989251c-51db-4ff4-3a7f-c956ae8ee5de" d="M11.53,-0.96 Q11.87,2.84 13.24,14.79 T15.75,38.40 18.15,62.00 20.42,86.10 22.60,108.62 23.78,120.92 23.19,124.68 21.43,128.06 18.68,130.70 15.23,132.33 11.44,132.77 7.72,131.97 4.44,130.03 1.95,127.14 0.51,123.61 0.28,119.81 1.27,116.13 3.39,112.96 6.41,110.63 10.01,109.39 13.83,109.36 17.45,110.55 20.50,112.84 22.66,115.98 23.70,119.65 23.52,123.45 22.14,127.00 19.69,129.93 16.43,131.91 12.72,132.76 8.93,132.37 5.45,130.79 2.67,128.19 0.86,124.84 0.23,123.01 -1.08,111.27 -3.34,87.56 -5.43,64.12 -7.62,40.89 -9.95,16.95 -11.38,2.86 -11.48,-0.43 -11.04,-3.17 -9.97,-5.72 -8.31,-7.94 -6.17,-9.70 -3.67,-10.89 -0.95,-11.45 1.81,-11.35 4.48,-10.58 6.88,-9.20 8.88,-7.29 10.37,-4.95 11.25,-2.33 Z" fill="#FFFFFF" stroke="transparent" stroke-width="0" stroke-linejoin="round" stroke-linecap="round" pointer-events="all" transform="translate(1276, 306)"/><path id="path_c4f0fc98-1c21-4a89-273f-99e26c09f2c4" d="M10.98,-3.66 Q12.27,0.14 15.67,11.36 T22.38,33.90 29.03,56.19 35.59,74.11 39.33,82.93 39.72,86.70 38.88,90.41 36.90,93.65 33.99,96.09 30.46,97.48 26.66,97.66 23.01,96.62 19.88,94.47 17.60,91.44 16.40,87.83 16.43,84.03 17.66,80.44 19.98,77.43 23.13,75.32 26.80,74.32 30.59,74.55 34.11,75.98 36.99,78.45 38.93,81.72 39.73,85.44 39.29,89.21 37.68,92.65 35.05,95.39 31.68,97.15 27.93,97.74 24.18,97.10 20.84,95.30 18.24,92.53 17.17,90.93 14.32,84.54 7.61,66.07 0.58,42.74 -6.16,19.48 -10.36,5.57 -11.26,2.29 -11.48,-0.47 -11.04,-3.20 -9.95,-5.75 -8.28,-7.96 -6.14,-9.72 -3.63,-10.90 -0.92,-11.45 1.85,-11.34 4.51,-10.57 6.91,-9.18 8.91,-7.26 10.38,-4.92 Z" fill="#FFFFFF" stroke="transparent" stroke-width="0" stroke-linejoin="round" stroke-linecap="round" pointer-events="all" transform="translate(1286, 424)"/><path id="path_dea21511-a0c2-4733-22e4-1c9568d93588" d="M0.00,-9.55 Q9.35,-9.56 24.58,-9.56 T54.50,-9.57 83.45,-9.61 110.55,-9.67 136.61,-9.72 161.52,-9.77 184.83,-9.81 209.12,-9.85 234.22,-9.87 259.09,-9.88 284.36,-9.90 308.75,-9.92 332.05,-9.93 355.64,-10.26 379.21,-11.15 402.76,-11.83 426.39,-11.97 449.88,-12.01 474.78,-12.02 489.92,-11.71 493.56,-10.48 496.61,-8.16 498.77,-4.98 499.79,-1.28 499.59,2.55 498.16,6.12 495.68,9.04 492.39,11.02 488.64,11.85 484.83,11.43 481.34,9.82 478.55,7.18 476.76,3.79 476.14,-0.00 476.76,-3.79 478.56,-7.18 481.34,-9.82 484.83,-11.43 488.64,-11.85 492.39,-11.02 495.68,-9.04 498.17,-6.11 499.59,-2.55 499.79,1.29 498.77,4.98 496.61,8.16 493.55,10.48 489.92,11.71 488.00,12.02 474.78,12.02 449.89,12.02 426.44,12.02 403.06,12.12 379.71,12.75 355.88,13.61 332.05,13.93 308.75,13.92 284.36,13.90 259.09,13.88 234.22,13.87 209.12,13.85 184.83,13.81 161.52,13.77 136.61,13.72 110.55,13.67 83.45,13.61 54.50,13.57 24.58,13.56 4.68,13.55 -1.38,13.38 -4.07,12.72 -6.51,11.44 -8.58,9.60 -10.15,7.33 -11.13,4.74 -11.47,2.00 -11.13,-0.74 -10.15,-3.33 -8.58,-5.60 -6.51,-7.44 -4.07,-8.72 -1.38,-9.38 Z" fill="#FFFFFF" stroke="transparent" stroke-width="0" stroke-linejoin="round" stroke-linecap="round" pointer-events="all" transform="translate(817, 507)"/><path id="path_f2447b22-ec09-42a9-1199-d196a6a0e96d" d="M11.55,-0.77 Q11.89,3.98 13.07,16.52 T15.89,40.90 18.81,64.84 20.87,88.81 21.79,112.31 23.30,132.70 24.77,143.41 24.34,147.20 22.72,150.65 20.09,153.41 16.72,155.18 12.95,155.78 9.19,155.15 5.83,153.35 3.22,150.57 1.64,147.11 1.24,143.31 2.07,139.59 4.05,136.34 6.97,133.88 10.51,132.48 14.32,132.29 17.99,133.33 21.14,135.48 23.43,138.53 24.63,142.14 24.62,145.95 23.38,149.56 21.07,152.59 17.90,154.71 14.22,155.72 10.42,155.49 6.88,154.07 3.99,151.59 2.04,148.31 1.33,146.52 -0.32,134.68 -2.08,111.16 -2.99,88.03 -4.99,64.46 -7.72,40.80 -10.26,17.41 -11.41,3.15 -11.48,-0.62 -11.00,-3.35 -9.87,-5.89 -8.18,-8.08 -6.01,-9.80 -3.49,-10.95 -0.76,-11.47 2.00,-11.32 4.65,-10.51 7.03,-9.09 9.01,-7.14 10.45,-4.78 11.29,-2.14 Z" fill="#FFFFFF" stroke="transparent" stroke-width="0" stroke-linejoin="round" stroke-linecap="round" pointer-events="all" transform="translate(1310, 360)"/><path id="path_d62c04cd-ba72-42d2-1341-baba0beab334" d="M9.97,-5.86 Q11.57,-3.18 17.75,6.72 T30.10,26.77 38.72,41.47 41.88,47.78 42.65,51.48 42.21,55.23 40.59,58.64 37.97,61.35 34.62,63.09 30.89,63.66 27.17,63.02 23.85,61.22 21.28,58.45 19.73,55.01 19.36,51.26 20.21,47.58 22.18,44.36 25.08,41.95 28.60,40.58 32.37,40.42 36.00,41.46 39.10,43.61 41.36,46.64 42.53,50.22 42.49,54.00 41.25,57.56 38.94,60.55 35.80,62.63 32.15,63.61 28.38,63.37 24.89,61.94 22.04,59.46 20.81,58.00 18.27,53.26 9.69,38.47 -2.37,18.49 -9.18,7.22 -10.53,4.59 -11.32,1.93 -11.45,-0.83 -10.92,-3.55 -9.75,-6.06 -8.02,-8.22 -5.82,-9.90 -3.28,-11.00 -0.55,-11.47 2.21,-11.27 4.84,-10.41 7.19,-8.95 9.12,-6.97 Z" fill="#FFFFFF" stroke="transparent" stroke-width="0" stroke-linejoin="round" stroke-linecap="round" pointer-events="all" transform="translate(1278, 306)"/><path id="path_a151eecd-1b35-4da5-1f6b-df8de22fe6dc" d="M12.54,-0.58 Q12.72,2.59 18.75,12.33 T29.62,32.85 34.93,55.49 33.75,78.87 31.45,95.76 30.47,102.52 29.50,105.20 27.91,107.57 25.80,109.49 23.29,110.85 20.53,111.56 17.67,111.60 14.89,110.96 12.35,109.66 10.19,107.80 8.54,105.47 7.49,102.82 7.11,99.99 7.48,86.99 9.45,64.07 17.66,42.91 27.56,21.87 30.90,6.24 31.32,-0.09 32.60,-3.71 34.97,-6.73 38.18,-8.84 41.89,-9.81 45.72,-9.55 49.26,-8.07 52.15,-5.55 54.08,-2.23 54.85,1.53 54.38,5.34 52.72,8.80 50.04,11.55 46.62,13.29 42.83,13.86 39.05,13.18 35.69,11.34 33.09,8.51 31.53,5.01 31.17,1.18 32.05,-2.55 34.07,-5.81 37.03,-8.25 40.62,-9.62 44.46,-9.77 48.14,-8.69 51.28,-6.49 53.56,-3.40 54.73,0.25 55.02,2.17 54.95,7.30 53.45,24.41 43.82,45.31 33.68,65.97 31.27,89.42 30.47,102.51 29.50,105.20 27.91,107.57 25.80,109.49 23.29,110.84 20.53,111.56 17.67,111.60 14.89,110.96 12.35,109.66 10.19,107.80 8.54,105.47 7.49,102.82 7.11,99.99 7.41,96.13 9.17,82.38 10.54,58.50 4.41,35.88 -6.02,14.77 -10.47,2.16 -10.44,-0.81 -9.92,-3.53 -8.76,-6.04 -7.03,-8.20 -4.83,-9.88 -2.30,-10.99 0.43,-11.46 3.19,-11.26 5.82,-10.41 8.17,-8.96 10.11,-6.98 11.51,-4.60 12.31,-1.95 Z" fill="#FFFFFF" stroke="transparent" stroke-width="0" stroke-linejoin="round" stroke-linecap="round" pointer-events="all" transform="translate(857, 517)"/><path id="path_f164b86f-ed9d-4e3c-3674-37d049f31d50" d="M12.54,6.64 Q12.40,9.50 18.75,19.85 T33.61,38.35 44.50,57.79 47.35,80.72 47.97,103.54 47.95,116.15 47.27,118.94 45.94,121.47 44.05,123.62 41.69,125.25 39.01,126.27 36.17,126.62 33.32,126.28 30.64,125.27 28.28,123.64 26.38,121.50 25.04,118.97 24.35,116.19 25.04,102.84 25.93,79.17 27.56,55.73 38.40,36.80 51.31,14.56 55.36,-2.36 56.72,-5.95 59.16,-8.92 62.42,-10.96 66.16,-11.84 69.98,-11.49 73.50,-9.94 76.33,-7.34 78.19,-3.98 78.87,-0.20 78.32,3.60 76.57,7.03 73.83,9.72 70.37,11.39 66.56,11.87 62.79,11.10 59.47,9.18 56.93,6.29 55.45,2.75 55.17,-1.09 56.14,-4.81 58.24,-8.02 61.26,-10.40 64.88,-11.68 68.73,-11.75 72.39,-10.58 75.48,-8.31 77.69,-5.16 78.78,-1.48 79.03,0.45 77.82,14.23 70.62,38.20 57.32,57.91 49.97,79.35 49.01,102.99 47.95,116.15 47.27,118.93 45.94,121.47 44.05,123.62 41.69,125.25 39.01,126.27 36.17,126.62 33.32,126.28 30.64,125.27 28.28,123.65 26.38,121.50 25.04,118.97 24.35,116.19 24.06,103.71 23.49,80.82 16.36,59.28 0.40,41.75 -9.79,21.06 -10.63,6.78 -10.30,3.99 -9.49,1.34 -8.07,-1.03 -6.12,-3.00 -3.76,-4.44 -1.12,-5.28 1.64,-5.46 4.36,-4.97 6.89,-3.85 9.08,-2.15 10.79,0.02 11.94,2.53 12.45,5.25 Z" fill="#FFFFFF" stroke="transparent" stroke-width="0" stroke-linejoin="round" stroke-linecap="round" pointer-events="all" transform="translate(963, 514)"/><path id="path_59b34a97-95f0-4287-2950-742d82818f71" d="M11.57,8.00 Q11.58,11.65 14.81,22.63 T28.14,40.03 44.70,56.54 52.36,78.51 53.75,102.22 53.95,119.37 53.80,126.11 53.12,128.90 51.79,131.44 49.89,133.59 47.54,135.22 44.86,136.24 42.01,136.59 39.16,136.25 36.48,135.24 34.12,133.62 32.21,131.48 30.88,128.94 30.19,126.16 30.01,112.70 30.00,88.77 32.10,64.88 43.71,45.88 56.89,28.10 61.28,8.32 62.42,-2.57 63.84,-6.14 66.33,-9.06 69.63,-11.03 73.38,-11.85 77.20,-11.43 80.68,-9.81 83.46,-7.16 85.25,-3.77 85.87,0.02 85.24,3.81 83.43,7.20 80.64,9.83 77.15,11.44 73.33,11.85 69.59,11.01 66.30,9.03 63.82,6.10 62.41,2.53 62.21,-1.31 63.24,-5.00 65.40,-8.18 68.46,-10.50 72.10,-11.71 75.94,-11.71 79.58,-10.47 82.63,-8.14 84.78,-4.96 85.80,-1.26 86.01,0.68 85.55,7.83 82.77,26.16 74.76,47.62 61.54,67.39 54.00,88.77 53.98,112.68 53.80,126.11 53.12,128.90 51.79,131.44 49.89,133.59 47.54,135.22 44.86,136.24 42.01,136.59 39.17,136.25 36.48,135.24 34.12,133.62 32.21,131.48 30.88,128.94 30.19,126.16 30.00,118.62 29.83,100.77 26.69,77.08 13.94,58.91 -3.04,43.56 -10.93,23.02 -11.58,9.82 -11.40,6.62 -10.74,3.93 -9.45,1.48 -7.61,-0.59 -5.34,-2.17 -2.75,-3.15 0.00,-3.48 2.75,-3.15 5.34,-2.17 7.61,-0.59 9.45,1.48 10.74,3.93 11.40,6.62 Z" fill="#FFFFFF" stroke="transparent" stroke-width="0" stroke-linejoin="round" stroke-linecap="round" pointer-events="all" transform="translate(1082, 509)"/><path id="path_5060e081-8c46-42c8-2414-2f9b1398cf18" d="M11.55,-0.58 Q11.73,2.59 13.06,14.16 T27.25,30.79 42.15,47.28 45.08,70.20 46.42,93.71 46.89,108.48 46.75,112.64 46.09,115.43 44.78,117.97 42.90,120.13 40.55,121.78 37.88,122.81 35.04,123.18 32.20,122.85 29.51,121.86 27.14,120.25 25.23,118.12 23.88,115.60 23.17,112.82 23.35,99.57 23.84,75.91 28.14,52.60 43.31,36.28 63.48,24.40 71.51,10.24 70.19,1.17 70.43,-2.67 71.89,-6.22 74.40,-9.12 77.72,-11.07 81.47,-11.86 85.29,-11.41 88.76,-9.76 91.52,-7.09 93.29,-3.68 93.87,0.12 93.21,3.90 91.38,7.28 88.56,9.89 85.06,11.47 81.24,11.85 77.50,10.98 74.22,8.97 71.77,6.02 70.38,2.44 70.21,-1.40 71.28,-5.09 73.46,-8.25 76.55,-10.54 80.20,-11.73 84.04,-11.69 87.67,-10.43 90.70,-8.08 92.82,-4.88 93.62,-3.10 95.34,7.12 93.30,28.21 79.31,46.46 58.54,58.34 47.87,74.76 47.32,98.95 46.75,112.64 46.09,115.43 44.78,117.97 42.90,120.13 40.55,121.78 37.88,122.81 35.04,123.18 32.20,122.85 29.51,121.86 27.14,120.25 25.23,118.12 23.88,115.60 23.17,112.82 22.93,105.41 22.25,87.60 23.84,63.70 14.52,49.34 -3.22,37.09 -10.42,15.44 -11.48,2.16 -11.45,-0.81 -10.92,-3.53 -9.76,-6.04 -8.03,-8.20 -5.84,-9.89 -3.30,-11.00 -0.57,-11.47 2.19,-11.27 4.82,-10.42 7.18,-8.96 9.11,-6.98 10.52,-4.60 11.31,-1.95 Z" fill="#FFFFFF" stroke="transparent" stroke-width="0" stroke-linejoin="round" stroke-linecap="round" pointer-events="all" transform="translate(1202, 515)"/></svg>