<svg xmlns="http://www.w3.org/2000/svg" viewBox="656 271 642 470" width="120" height="100"><path id="path_c6b91d7d-71f0-4b50-03cf-60fc809dc72c" d="M4.52,-10.63 Q10.87,-7.95 21.87,-3.38 T46.96,6.80 74.59,17.74 98.84,27.43 121.35,36.73 144.70,46.08 168.56,55.13 192.35,64.01 217.11,73.11 242.62,81.82 267.13,89.75 291.53,98.18 315.07,107.00 337.40,116.04 365.91,127.95 385.12,136.25 387.91,138.71 389.77,141.94 390.50,145.59 390.03,149.29 388.40,152.64 385.79,155.30 382.47,156.98 378.78,157.51 375.12,156.84 371.86,155.03 369.35,152.28 367.85,148.87 367.52,145.16 368.39,141.54 370.37,138.38 373.25,136.02 376.74,134.71 380.46,134.58 384.03,135.65 387.08,137.80 389.27,140.80 390.39,144.36 390.32,148.08 389.07,151.59 386.75,154.51 383.63,156.54 380.02,157.47 376.31,157.19 374.48,156.75 365.04,152.91 343.51,144.26 320.03,134.59 296.86,125.35 274.29,117.14 252.55,109.79 228.95,102.14 205.56,93.99 183.79,85.89 160.63,77.20 136.36,67.93 112.44,58.27 89.89,48.88 65.84,39.22 38.34,28.34 12.98,18.02 -1.35,11.99 -5.72,9.93 -7.94,8.28 -9.69,6.14 -10.87,3.64 -11.43,0.93 -11.32,-1.83 -10.55,-4.49 -9.17,-6.88 -7.26,-8.88 -4.92,-10.35 -2.30,-11.23 0.45,-11.46 3.18,-11.02 Z" fill="#FFFFFF" stroke="transparent" stroke-width="0" stroke-linejoin="round" stroke-linecap="round" pointer-events="all" transform="translate(849, 311)"/><path id="path_ace39c3c-0e1f-4386-3f70-d561d70721c7" d="M10.97,-3.66 Q11.94,-0.81 15.91,10.00 T23.80,32.13 31.99,54.19 38.68,70.84 41.49,78.63 41.65,82.42 40.58,86.07 38.41,89.18 35.36,91.44 31.74,92.60 27.95,92.55 24.37,91.29 21.37,88.96 19.28,85.78 18.32,82.11 18.57,78.32 20.03,74.82 22.52,71.95 25.80,70.04 29.52,69.27 33.29,69.74 36.72,71.38 39.44,74.03 41.17,77.40 41.73,81.16 41.07,84.90 39.24,88.23 36.45,90.80 32.99,92.35 29.21,92.71 25.51,91.84 22.28,89.84 19.86,86.91 18.89,85.25 16.46,79.24 9.51,61.50 1.30,38.98 -6.22,17.35 -10.50,5.09 -11.25,2.29 -11.47,-0.47 -11.02,-3.20 -9.94,-5.74 -8.27,-7.96 -6.13,-9.70 -3.63,-10.89 -0.92,-11.44 1.85,-11.33 4.50,-10.56 6.90,-9.17 8.90,-7.25 10.37,-4.91 Z" fill="#FFFFFF" stroke="transparent" stroke-width="0" stroke-linejoin="round" stroke-linecap="round" pointer-events="all" transform="translate(1228, 460)"/><path id="path_8e73ad52-0f8e-4c35-097d-9df514285c5b" d="M144.49,10.66 Q141.48,11.94 130.90,16.83 T109.28,27.48 88.05,38.63 66.58,49.17 45.07,59.48 19.75,71.30 2.80,78.40 -0.98,78.70 -4.67,77.77 -7.86,75.72 -10.24,72.75 -11.54,69.18 -11.63,65.38 -10.51,61.75 -8.28,58.68 -5.19,56.47 -1.55,55.36 2.24,55.47 5.81,56.79 8.76,59.18 10.80,62.39 11.71,66.08 11.39,69.87 9.88,73.35 7.33,76.17 4.02,78.03 0.29,78.74 -3.48,78.21 -6.88,76.52 -9.56,73.82 -11.23,70.41 -11.74,66.65 -11.01,62.92 -9.13,59.62 -6.30,57.09 -4.67,56.06 10.63,49.10 36.66,36.98 58.06,26.93 79.04,16.70 99.90,5.93 121.48,-4.46 134.00,-10.03 136.85,-11.04 139.59,-11.47 142.34,-11.24 144.97,-10.35 147.30,-8.86 149.21,-6.86 150.58,-4.46 151.34,-1.79 151.44,0.97 150.88,3.68 149.68,6.18 147.92,8.32 145.70,9.97 Z" fill="#FFFFFF" stroke="transparent" stroke-width="0" stroke-linejoin="round" stroke-linecap="round" pointer-events="all" transform="translate(1118, 541)"/><path id="path_b3f70d49-b2ee-4c7a-2cd1-d53fce012096" d="M111.86,9.97 Q109.18,11.57 99.25,17.66 T79.04,29.34 57.87,40.02 36.03,49.73 15.00,58.62 3.06,63.39 -0.74,63.77 -4.46,62.92 -7.71,60.92 -10.15,57.99 -11.54,54.44 -11.71,50.63 -10.66,46.96 -8.49,43.82 -5.43,41.54 -1.81,40.35 2.01,40.38 5.61,41.63 8.63,43.97 10.74,47.14 11.73,50.83 11.49,54.63 10.05,58.17 7.55,61.05 4.27,62.99 0.54,63.78 -3.25,63.33 -6.70,61.70 -9.45,59.05 -11.21,55.67 -11.79,51.90 -11.14,48.14 -9.32,44.78 -6.53,42.18 -4.92,41.11 2.93,37.74 21.82,29.84 43.88,20.51 65.64,9.95 86.92,-2.11 98.78,-9.18 101.41,-10.53 104.07,-11.32 106.83,-11.45 109.55,-10.92 112.06,-9.75 114.22,-8.02 115.90,-5.82 117.00,-3.28 117.47,-0.55 117.27,2.21 116.41,4.84 114.95,7.19 112.97,9.12 Z" fill="#FFFFFF" stroke="transparent" stroke-width="0" stroke-linejoin="round" stroke-linecap="round" pointer-events="all" transform="translate(1122, 458)"/><path id="path_e13a0d27-7e9c-437e-2782-8cb736ef1e64" d="M-11.55,97.42 Q-11.41,94.25 -11.12,82.33 T-10.70,58.37 -8.67,35.07 -5.84,11.74 -4.55,-2.22 -3.23,-5.79 -0.85,-8.76 2.36,-10.80 6.05,-11.72 9.84,-11.41 13.34,-9.91 16.17,-7.36 18.04,-4.05 18.76,-0.31 18.24,3.46 16.55,6.86 13.86,9.55 10.45,11.24 6.68,11.76 2.94,11.04 -0.37,9.16 -2.91,6.33 -4.41,2.83 -4.72,-0.96 -3.80,-4.65 -1.75,-7.86 1.22,-10.24 4.79,-11.55 8.59,-11.65 12.23,-10.53 15.32,-8.31 17.54,-5.22 18.65,-1.58 18.91,0.33 17.87,13.50 14.80,37.89 12.66,60.75 12.14,83.90 11.64,96.99 11.32,99.95 10.52,102.60 9.11,104.99 7.18,106.97 4.82,108.42 2.19,109.27 -0.57,109.47 -3.30,109.00 -5.84,107.89 -8.04,106.20 -9.77,104.04 -10.93,101.53 -11.45,98.81 Z" fill="#FFFFFF" stroke="transparent" stroke-width="0" stroke-linejoin="round" stroke-linecap="round" pointer-events="all" transform="translate(1113, 511)"/><path id="path_2116f993-1986-4313-3062-ea5d0982816f" d="M100.61,11.55 Q97.60,11.72 86.37,14.47 T64.56,22.62 43.82,33.20 23.22,43.17 7.88,49.26 1.05,50.73 -2.75,50.45 -6.27,48.97 -9.12,46.45 -11.02,43.15 -11.77,39.41 -11.29,35.63 -9.62,32.20 -6.95,29.49 -3.54,27.77 0.23,27.22 3.98,27.91 7.31,29.76 9.87,32.58 11.41,36.07 11.75,39.87 10.86,43.57 8.83,46.80 5.88,49.21 2.31,50.55 -1.50,50.68 -5.15,49.59 -8.26,47.39 -10.51,44.31 -11.66,40.68 -11.58,36.87 -10.30,33.28 -7.93,30.29 -4.74,28.22 -2.97,27.44 2.53,25.97 18.37,19.53 39.18,8.89 60.75,-1.69 84.12,-9.00 97.89,-11.48 100.78,-11.45 103.50,-10.93 106.02,-9.78 108.18,-8.05 109.87,-5.86 110.99,-3.33 111.46,-0.60 111.27,2.16 110.43,4.79 108.98,7.15 107.01,9.09 104.63,10.51 101.98,11.31 Z" fill="#FFFFFF" stroke="transparent" stroke-width="0" stroke-linejoin="round" stroke-linecap="round" pointer-events="all" transform="translate(744, 312)"/><path id="path_d635f65f-877d-4f3b-1b1e-4c56b9117dca" d="M3.18,-11.14 Q9.85,-9.26 22.53,-6.03 T47.38,0.36 71.13,7.64 95.18,16.85 119.14,27.40 141.77,37.98 164.28,47.96 185.97,57.63 206.97,67.07 228.84,77.25 251.20,88.40 272.77,99.29 293.48,109.63 314.90,119.44 336.85,128.27 359.12,135.11 377.14,139.01 385.60,140.72 389.01,142.46 391.69,145.20 393.35,148.65 393.83,152.45 393.06,156.20 391.14,159.52 388.27,162.04 384.73,163.52 380.91,163.79 377.20,162.82 374.00,160.72 371.63,157.71 370.35,154.10 370.29,150.27 371.45,146.62 373.72,143.54 376.86,141.34 380.53,140.26 384.36,140.40 387.94,141.76 390.90,144.19 392.92,147.44 393.81,151.17 393.45,154.98 391.90,158.49 389.31,161.31 385.96,163.15 382.19,163.83 380.25,163.87 371.87,162.37 351.88,158.02 329.21,151.09 306.93,142.19 284.30,131.80 262.11,120.72 240.17,109.64 218.68,98.88 197.30,88.92 175.47,79.17 153.75,69.43 131.08,59.21 108.58,48.64 86.49,38.82 63.68,29.96 41.01,22.84 16.65,16.47 0.14,12.10 -4.47,10.60 -6.88,9.22 -8.89,7.31 -10.38,4.97 -11.26,2.34 -11.50,-0.42 -11.06,-3.16 -9.98,-5.72 -8.33,-7.94 -6.18,-9.70 -3.68,-10.90 -0.97,-11.47 1.81,-11.36 Z" fill="#FFFFFF" stroke="transparent" stroke-width="0" stroke-linejoin="round" stroke-linecap="round" pointer-events="all" transform="translate(741, 355)"/><path id="path_d777ef43-51b6-4b82-34de-53fa24144977" d="M53.97,5.86 Q52.40,8.57 46.42,18.63 T34.15,38.22 21.12,57.20 11.92,69.90 8.07,74.48 4.94,76.61 1.29,77.63 -2.49,77.43 -6.01,76.04 -8.90,73.60 -10.86,70.36 -11.68,66.66 -11.28,62.89 -9.70,59.45 -7.10,56.70 -3.76,54.92 -0.03,54.30 3.71,54.90 7.06,56.67 9.67,59.41 11.27,62.84 11.69,66.61 10.88,70.31 8.94,73.56 6.05,76.01 2.54,77.42 -1.24,77.64 -4.89,76.63 -8.03,74.51 -10.33,71.50 -11.54,67.92 -11.55,64.13 -10.35,60.54 -9.46,58.84 -1.13,47.40 13.79,26.29 26.41,6.73 33.23,-4.52 34.88,-6.97 36.81,-8.95 39.16,-10.41 41.80,-11.27 44.56,-11.47 47.28,-11.00 49.82,-9.89 52.02,-8.21 53.75,-6.06 54.92,-3.55 55.45,-0.83 55.31,1.93 54.52,4.59 Z" fill="#FFFFFF" stroke="transparent" stroke-width="0" stroke-linejoin="round" stroke-linecap="round" pointer-events="all" transform="translate(696, 355)"/><path id="path_56ab0c94-d07e-4765-075c-03dfd3129317" d="M4.14,-10.16 Q9.22,-8.75 20.40,-5.16 T42.80,2.36 65.81,10.69 89.26,20.35 113.59,30.30 138.70,39.05 161.98,47.26 184.90,56.14 208.23,65.82 230.06,76.28 251.11,87.22 272.12,97.82 293.18,107.58 314.50,116.98 336.38,126.82 357.87,136.84 378.56,147.11 399.18,157.27 415.64,165.31 423.33,169.66 425.93,172.49 427.49,176.00 427.84,179.82 426.96,183.56 424.93,186.82 421.97,189.26 418.38,190.63 414.54,190.78 410.85,189.70 407.71,187.49 405.43,184.40 404.26,180.74 404.31,176.90 405.60,173.28 407.97,170.26 411.18,168.15 414.90,167.18 418.73,167.45 422.27,168.92 425.16,171.45 427.09,174.77 427.86,178.54 427.39,182.35 425.72,185.81 423.04,188.56 419.62,190.31 415.82,190.87 412.04,190.19 410.20,189.54 399.16,183.99 377.08,173.05 355.67,162.46 334.32,152.24 312.44,142.35 290.42,132.69 268.98,122.95 247.59,112.36 225.75,101.09 204.52,90.47 182.02,80.64 158.49,71.39 135.92,63.10 112.04,55.07 87.98,45.80 64.71,35.67 40.46,26.28 15.58,17.76 0.40,12.88 -3.43,11.62 -5.84,10.25 -7.86,8.35 -9.36,6.01 -10.26,3.39 -10.50,0.63 -10.08,-2.12 -9.01,-4.68 -7.36,-6.91 -5.22,-8.68 -2.73,-9.89 -0.01,-10.46 2.76,-10.37 Z" fill="#FFFFFF" stroke="transparent" stroke-width="0" stroke-linejoin="round" stroke-linecap="round" pointer-events="all" transform="translate(698, 426)"/><path id="path_f2c09bee-1c20-45dc-3686-6f4e2aa303cd" d="M77.49,23.28 Q77.19,26.13 74.58,38.22 T64.77,60.10 47.00,76.28 35.27,94.22 32.35,117.37 18.78,132.47 6.02,123.90 7.89,100.61 2.39,80.23 -8.71,59.94 -7.69,37.52 1.35,16.06 7.99,1.28 10.22,-5.07 12.41,-8.25 15.49,-10.56 19.15,-11.77 23.01,-11.74 26.65,-10.49 29.70,-8.13 31.84,-4.93 32.85,-1.21 32.62,2.64 31.17,6.21 28.65,9.13 25.33,11.10 21.56,11.90 17.74,11.46 14.25,9.81 11.47,7.14 9.69,3.73 9.09,-0.08 9.74,-3.88 11.57,-7.27 14.38,-9.91 17.89,-11.50 21.73,-11.89 25.49,-11.04 28.77,-9.03 31.25,-6.07 32.65,-2.48 32.83,1.37 32.61,3.31 31.63,6.77 25.57,21.30 17.42,43.90 21.92,64.02 31.99,84.02 31.46,106.62 17.56,121.25 8.49,113.05 11.62,89.71 19.66,67.60 37.53,51.48 51.43,34.67 54.34,22.15 54.83,19.37 55.78,16.77 57.33,14.48 59.38,12.62 61.82,11.31 64.50,10.62 67.27,10.59 69.96,11.23 72.42,12.49 74.51,14.30 76.11,16.56 77.12,19.14 77.48,21.88 Z" fill="#FFFFFF" stroke="transparent" stroke-width="0" stroke-linejoin="round" stroke-linecap="round" pointer-events="all" transform="translate(1006, 567)"/><path id="path_03f99358-1ec2-40b6-291f-480731337eb6" d="M77.16,26.04 Q76.23,29.54 72.95,40.86 T65.47,63.12 51.81,80.74 39.56,98.77 34.00,121.29 19.21,131.33 7.44,117.91 9.83,93.77 4.11,73.23 -7.56,52.98 -8.55,29.81 3.22,5.59 13.52,-8.35 16.63,-10.62 20.30,-11.78 24.15,-11.71 27.78,-10.41 30.80,-8.02 32.90,-4.79 33.86,-1.06 33.57,2.78 32.08,6.33 29.53,9.22 26.19,11.14 22.41,11.90 18.59,11.40 15.13,9.72 12.39,7.02 10.65,3.58 10.10,-0.23 10.80,-4.02 12.67,-7.39 15.51,-9.98 19.04,-11.53 22.88,-11.87 26.62,-10.97 29.88,-8.92 32.32,-5.94 33.67,-2.33 33.80,1.52 32.70,5.21 31.85,6.96 28.89,11.49 19.53,25.80 18.08,46.35 29.36,67.52 34.76,89.38 31.71,112.05 21.26,115.51 15.22,96.40 23.57,75.25 38.26,56.07 50.40,35.06 54.35,21.70 55.36,18.66 56.71,16.24 58.60,14.22 60.91,12.70 63.53,11.78 66.28,11.52 69.02,11.92 71.59,12.96 73.83,14.59 75.61,16.71 76.84,19.19 77.43,21.90 77.36,24.67 Z" fill="#FFFFFF" stroke="transparent" stroke-width="0" stroke-linejoin="round" stroke-linecap="round" pointer-events="all" transform="translate(912, 528)"/><path id="path_55ab6d1d-8d49-4eb2-342a-75b08d10d991" d="M71.37,23.16 Q70.75,26.50 68.66,38.32 T61.04,60.80 45.16,76.76 30.83,93.52 24.12,116.64 21.05,128.95 20.02,130.86 18.35,133.18 16.16,135.04 13.60,136.32 10.80,136.95 7.94,136.90 5.17,136.16 2.66,134.77 0.55,132.83 -1.03,130.44 -1.99,127.74 -2.28,124.89 -1.88,122.05 -0.50,108.74 1.94,85.47 -3.23,64.15 -10.63,42.67 -8.36,20.18 1.19,0.79 9.13,-8.91 12.38,-10.96 16.12,-11.86 19.95,-11.52 23.48,-9.97 26.32,-7.38 28.19,-4.02 28.89,-0.23 28.34,3.57 26.60,7.01 23.86,9.71 20.40,11.39 16.59,11.88 12.82,11.13 9.48,9.21 6.94,6.33 5.44,2.78 5.16,-1.05 6.11,-4.78 8.21,-8.01 11.23,-10.39 14.85,-11.69 18.69,-11.77 22.36,-10.61 25.47,-8.34 27.69,-5.20 28.79,-1.52 28.66,2.33 27.30,5.93 26.33,7.62 22.90,12.08 16.08,27.93 17.84,49.84 25.59,72.25 25.32,95.50 21.58,118.23 20.02,130.86 18.35,133.18 16.16,135.04 13.60,136.32 10.80,136.95 7.94,136.90 5.17,136.16 2.66,134.78 0.55,132.83 -1.03,130.44 -1.99,127.74 -2.28,124.89 -1.88,122.05 0.87,110.99 6.49,89.94 17.53,69.49 34.54,52.68 45.87,33.54 48.31,20.50 49.06,17.51 50.21,14.99 51.94,12.82 54.13,11.13 56.66,10.01 59.39,9.53 62.15,9.72 64.79,10.56 67.15,12.01 69.09,13.98 70.51,16.36 71.31,19.01 71.46,21.77 Z" fill="#FFFFFF" stroke="transparent" stroke-width="0" stroke-linejoin="round" stroke-linecap="round" pointer-events="all" transform="translate(825, 479)"/><path id="path_6e8a1256-e1db-45a8-19bc-3929b99e6a27" d="M66.78,4.19 Q65.68,7.05 60.36,17.22 T44.89,33.74 28.31,50.48 18.80,72.29 13.56,91.08 10.57,100.18 8.37,103.28 5.28,105.52 1.65,106.66 -2.16,106.57 -5.74,105.28 -8.72,102.91 -10.79,99.71 -11.73,96.01 -11.44,92.22 -9.95,88.71 -7.42,85.86 -4.11,83.97 -0.38,83.23 3.40,83.73 6.82,85.40 9.53,88.08 11.24,91.49 11.77,95.26 11.07,99.01 9.21,102.33 6.39,104.89 2.90,106.41 -0.90,106.74 -4.60,105.84 -7.82,103.80 -10.22,100.84 -11.55,97.27 -11.67,93.47 -11.42,91.55 -9.26,83.97 -3.93,65.06 4.25,42.28 19.82,23.90 37.24,7.82 44.66,-2.77 45.88,-5.42 47.47,-7.68 49.56,-9.50 52.02,-10.77 54.71,-11.41 57.48,-11.38 60.16,-10.70 62.60,-9.39 64.66,-7.54 66.21,-5.25 67.17,-2.65 67.48,0.10 67.12,2.84 Z" fill="#FFFFFF" stroke="transparent" stroke-width="0" stroke-linejoin="round" stroke-linecap="round" pointer-events="all" transform="translate(731, 467)"/><path id="path_246112f1-f652-4026-25b5-7bba0f284c80" d="M-4.54,113.32 Q-4.40,110.63 -3.28,99.26 T-5.65,75.86 -9.58,52.31 -6.67,29.71 2.06,6.55 8.57,-7.08 11.33,-9.72 14.78,-11.34 18.57,-11.78 22.30,-10.98 25.58,-9.03 28.07,-6.14 29.50,-2.60 29.73,1.21 28.73,4.89 26.61,8.06 23.58,10.39 19.97,11.62 16.16,11.65 12.54,10.45 9.49,8.16 7.33,5.01 6.29,1.34 6.47,-2.47 7.86,-6.02 10.32,-8.94 13.57,-10.93 17.29,-11.77 21.09,-11.38 24.56,-9.80 27.35,-7.19 29.15,-3.83 29.79,-0.07 29.19,3.70 28.59,5.54 25.33,12.22 18.11,30.32 15.81,53.10 19.45,76.65 20.07,100.41 18.63,113.33 18.29,116.05 17.47,118.69 16.04,121.06 14.09,123.02 11.73,124.46 9.09,125.28 6.33,125.45 3.60,124.96 1.08,123.83 -1.10,122.13 -2.81,119.95 -3.95,117.43 -4.45,114.71 Z" fill="#FFFFFF" stroke="transparent" stroke-width="0" stroke-linejoin="round" stroke-linecap="round" pointer-events="all" transform="translate(723, 445)"/><path id="path_62c35cb2-f4c8-4cab-3abb-0eddf8416c2c" d="M11.57,0.00 Q11.59,3.80 11.65,15.65 T11.73,36.75 11.44,47.88 10.24,51.43 7.97,54.42 4.87,56.52 1.25,57.53 -2.49,57.32 -5.98,55.94 -8.84,53.51 -10.77,50.29 -11.58,46.63 -11.17,42.90 -9.60,39.49 -7.02,36.77 -3.70,35.01 0.00,34.40 3.70,35.01 7.02,36.77 9.60,39.49 11.17,42.90 11.58,46.63 10.77,50.29 8.84,53.51 5.98,55.94 2.49,57.33 -1.26,57.53 -4.87,56.52 -7.98,54.42 -10.25,51.43 -11.44,47.87 -11.75,46.00 -11.73,36.75 -11.65,15.65 -11.58,1.90 -11.40,-1.38 -10.74,-4.07 -9.45,-6.53 -7.62,-8.60 -5.34,-10.17 -2.75,-11.15 0.00,-11.49 2.75,-11.15 5.34,-10.17 7.62,-8.60 9.45,-6.52 10.74,-4.07 11.40,-1.38 Z" fill="#FFFFFF" stroke="transparent" stroke-width="0" stroke-linejoin="round" stroke-linecap="round" pointer-events="all" transform="translate(1183, 579)"/></svg>