<svg xmlns="http://www.w3.org/2000/svg" viewBox="441 149 853 745" width="400" height="400"><path id="path_cafb1373-d92a-45f4-3132-996e32b1ee67" d="M-10.50,140.00 Q-10.50,135.40 -10.16,124.82 T-8.50,103.85 -4.23,83.29 3.12,62.71 12.92,43.04 24.91,24.51 38.92,7.66 56.70,-3.61 78.01,-8.74 99.73,-10.11 121.00,-5.98 134.66,0.16 139.07,3.43 141.12,6.08 142.21,9.25 142.24,12.60 141.19,15.79 139.18,18.47 136.42,20.37 133.19,21.29 129.85,21.14 126.72,19.92 124.15,17.76 122.40,14.90 121.66,11.63 122.00,8.30 123.38,5.25 125.67,2.80 128.62,1.20 131.93,0.64 135.24,1.16 138.21,2.71 140.54,5.12 141.96,8.16 142.35,11.49 141.65,14.77 139.94,17.65 137.40,19.84 134.30,21.10 130.95,21.31 127.71,20.43 126.17,19.73 114.58,15.14 92.13,10.98 70.62,13.95 52.55,24.27 38.78,41.46 27.58,60.29 18.80,80.36 13.18,101.60 10.99,123.79 10.50,137.70 10.35,141.26 9.75,143.70 8.58,145.92 6.91,147.80 4.84,149.23 2.49,150.12 -0.00,150.42 -2.50,150.12 -4.84,149.23 -6.91,147.80 -8.58,145.92 -9.75,143.70 -10.35,141.26 Z" fill="#FFFFFF" stroke="transparent" stroke-width="0" stroke-linejoin="round" stroke-linecap="round" pointer-events="all" transform="translate(1028, 455)"/><path id="path_9d5c2059-2d95-42a3-1277-dfbff85affe7" d="M143.50,0.00 Q143.50,2.54 149.73,11.94 T166.11,28.10 183.55,42.82 197.72,58.93 213.47,73.78 226.46,91.36 233.31,112.57 234.48,134.21 228.09,155.54 216.65,173.63 202.50,189.09 186.80,203.50 169.56,215.89 149.36,219.30 129.23,211.06 110.01,200.00 91.99,187.92 73.74,178.95 57.07,168.88 41.14,156.07 21.08,148.67 2.14,142.49 -7.61,138.04 -9.46,135.24 -10.31,132.00 -10.09,128.65 -8.81,125.55 -6.61,123.02 -3.72,121.33 -0.44,120.65 2.89,121.05 5.92,122.49 8.32,124.83 9.86,127.81 10.36,131.12 9.78,134.43 8.17,137.37 5.71,139.65 2.65,141.02 -0.69,141.34 -3.95,140.58 -6.80,138.82 -8.94,136.23 -10.15,133.10 -10.29,129.76 -9.35,126.54 -7.44,123.78 -4.74,121.79 -1.55,120.76 1.80,120.80 4.96,121.91 6.45,122.72 14.34,126.78 32.76,131.68 51.55,139.42 69.98,150.09 89.77,159.04 108.60,171.28 127.16,185.19 146.67,195.98 165.71,193.16 182.93,178.75 198.30,162.81 209.65,144.88 212.47,124.85 209.20,103.08 198.10,86.18 179.59,74.50 164.61,59.11 149.06,45.30 132.60,32.27 124.20,13.19 122.50,1.27 122.65,-1.26 123.25,-3.70 124.42,-5.92 126.09,-7.80 128.16,-9.23 130.51,-10.12 133.00,-10.42 135.50,-10.12 137.84,-9.23 139.91,-7.80 141.58,-5.92 142.75,-3.70 143.35,-1.26 Z" fill="#FFFFFF" stroke="transparent" stroke-width="0" stroke-linejoin="round" stroke-linecap="round" pointer-events="all" transform="translate(1028, 469)"/><path id="path_bdf52285-9377-4909-1407-485f55ea185e" d="M38.94,10.32 Q36.40,10.80 27.05,16.87 T14.20,33.02 10.60,46.22 10.17,51.01 8.99,54.15 6.88,56.75 4.04,58.54 0.78,59.33 -2.56,59.04 -5.63,57.70 -8.11,55.45 -9.75,52.52 -10.36,49.22 -9.89,45.90 -8.38,42.91 -6.00,40.55 -2.99,39.08 0.34,38.64 3.63,39.29 6.54,40.96 8.76,43.47 10.07,46.56 10.32,49.90 9.50,53.15 7.67,55.96 5.05,58.05 1.90,59.19 -1.46,59.26 -4.66,58.26 -7.37,56.29 -9.31,53.55 -10.27,50.34 -10.49,48.66 -10.11,41.51 -5.63,24.24 5.90,6.37 22.93,-5.60 33.80,-10.08 36.33,-10.40 38.84,-10.26 41.24,-9.52 43.39,-8.23 45.18,-6.46 46.49,-4.32 47.25,-1.92 47.41,0.59 46.96,3.06 45.94,5.36 44.40,7.34 42.43,8.90 40.14,9.94 Z" fill="#FFFFFF" stroke="transparent" stroke-width="0" stroke-linejoin="round" stroke-linecap="round" pointer-events="all" transform="translate(1208, 612)"/><path id="path_91b39a56-2b4f-4299-2639-1f4c82e484ca" d="M42.19,-2.55 Q42.82,-0.01 44.44,10.48 T44.93,31.30 36.88,49.85 19.93,61.57 5.15,65.27 -1.27,65.28 -4.49,64.34 -7.23,62.42 -9.22,59.72 -10.25,56.53 -10.20,53.17 -9.08,50.01 -7.01,47.37 -4.21,45.53 -0.97,44.68 2.38,44.91 5.47,46.20 7.99,48.41 9.68,51.31 10.35,54.59 9.94,57.92 8.49,60.94 6.15,63.34 3.16,64.87 -0.15,65.36 -3.45,64.77 -6.39,63.16 -8.66,60.69 -10.02,57.62 -10.34,54.29 -9.57,51.02 -7.80,48.18 -5.21,46.04 -2.08,44.85 -0.41,44.51 6.04,44.05 18.90,35.08 23.87,15.82 22.13,3.81 21.66,1.29 21.65,-1.22 22.24,-3.66 23.40,-5.89 25.06,-7.78 27.13,-9.21 29.47,-10.11 31.97,-10.42 34.46,-10.13 36.81,-9.25 38.89,-7.82 40.56,-5.95 41.73,-3.73 Z" fill="#FFFFFF" stroke="transparent" stroke-width="0" stroke-linejoin="round" stroke-linecap="round" pointer-events="all" transform="translate(1213, 611)"/><path id="path_c29b74c6-f6ea-49cf-0fbd-3df6e8f3d9b1" d="M-10.34,115.18 Q-9.86,112.48 -6.92,101.96 T-1.04,80.78 6.42,60.56 17.30,42.58 30.82,26.44 45.79,11.59 63.40,-1.29 83.64,-8.65 97.35,-10.38 102.33,-10.28 105.55,-9.31 108.28,-7.37 110.25,-4.66 111.26,-1.46 111.19,1.89 110.05,5.04 107.97,7.67 105.15,9.49 101.90,10.32 98.56,10.07 95.47,8.76 92.96,6.54 91.30,3.63 90.64,0.34 91.08,-2.98 92.55,-5.99 94.90,-8.38 97.90,-9.89 101.22,-10.36 104.51,-9.75 107.44,-8.11 109.70,-5.63 111.04,-2.56 111.33,0.78 110.54,4.04 108.75,6.87 106.15,8.99 103.01,10.16 101.35,10.49 90.74,11.65 71.30,18.52 55.04,31.84 40.41,47.38 27.86,64.69 19.89,84.52 14.04,105.55 10.58,117.48 9.97,120.04 8.96,122.33 7.42,124.32 5.45,125.88 3.17,126.93 0.70,127.40 -1.81,127.26 -4.22,126.53 -6.37,125.25 -8.16,123.48 -9.48,121.34 -10.24,118.95 -10.41,116.44 Z" fill="#FFFFFF" stroke="transparent" stroke-width="0" stroke-linejoin="round" stroke-linecap="round" pointer-events="all" transform="translate(1049, 488)"/><path id="path_f28bc417-d8bf-4ebe-1b8d-bda28820092e" d="M105.55,10.19 Q103.01,10.82 92.70,14.13 T73.44,23.46 55.87,36.61 39.97,51.35 27.02,68.08 17.30,86.83 11.83,104.35 9.96,113.87 8.52,116.90 6.19,119.31 3.21,120.85 -0.11,121.36 -3.41,120.78 -6.36,119.18 -8.64,116.73 -10.01,113.67 -10.34,110.33 -9.59,107.07 -7.83,104.21 -5.25,102.07 -2.12,100.86 1.23,100.71 4.45,101.64 7.20,103.55 9.20,106.24 10.24,109.43 10.21,112.78 9.10,115.95 7.05,118.60 4.25,120.45 1.01,121.31 -2.33,121.10 -5.43,119.82 -7.97,117.62 -9.67,114.73 -10.35,111.45 -10.43,109.76 -8.48,99.58 -2.36,79.48 6.89,60.26 18.96,43.11 33.83,28.00 50.00,14.41 67.54,2.53 87.36,-6.29 99.19,-9.87 101.71,-10.34 104.22,-10.35 106.66,-9.76 108.89,-8.60 110.78,-6.94 112.21,-4.87 113.11,-2.53 113.42,-0.03 113.13,2.46 112.25,4.81 110.82,6.89 108.95,8.56 106.73,9.73 Z" fill="#FFFFFF" stroke="transparent" stroke-width="0" stroke-linejoin="round" stroke-linecap="round" pointer-events="all" transform="translate(1074, 502)"/><path id="path_60da1e5f-9584-4c5b-3f45-79b240932365" d="M86.21,9.62 Q83.67,10.73 74.75,16.31 T57.94,29.53 42.49,45.87 27.84,63.73 16.93,82.68 11.78,100.23 10.02,109.64 8.65,112.70 6.38,115.16 3.44,116.77 0.14,117.36 -3.18,116.86 -6.16,115.33 -8.50,112.93 -9.95,109.91 -10.35,106.58 -9.68,103.29 -7.99,100.40 -5.46,98.19 -2.36,96.91 0.98,96.68 4.22,97.54 7.02,99.38 9.09,102.02 10.20,105.19 10.25,108.54 9.22,111.73 7.23,114.43 4.48,116.35 1.26,117.29 -2.09,117.15 -5.22,115.95 -7.81,113.81 -9.57,110.96 -10.34,107.70 -10.45,106.01 -9.10,97.66 -4.13,79.57 5.27,60.24 18.06,42.46 32.45,25.71 47.84,9.96 65.56,-2.88 76.52,-9.06 79.00,-9.98 81.48,-10.41 83.99,-10.23 86.38,-9.46 88.51,-8.14 90.27,-6.34 91.55,-4.18 92.27,-1.77 92.40,0.74 91.92,3.21 90.86,5.49 89.29,7.45 87.30,8.98 Z" fill="#FFFFFF" stroke="transparent" stroke-width="0" stroke-linejoin="round" stroke-linecap="round" pointer-events="all" transform="translate(1113, 524)"/><path id="path_af0eb349-0286-4440-2870-3defb2f20bb6" d="M67.45,8.29 Q64.59,10.51 56.48,17.86 T41.61,34.17 29.22,51.89 19.12,70.28 12.68,90.51 10.60,104.23 10.16,109.03 8.98,112.17 6.86,114.76 4.02,116.55 0.76,117.33 -2.58,117.04 -5.65,115.69 -8.12,113.43 -9.75,110.50 -10.36,107.20 -9.88,103.88 -8.37,100.89 -5.98,98.54 -2.97,97.07 0.36,96.64 3.65,97.30 6.55,98.97 8.77,101.49 10.07,104.58 10.32,107.92 9.49,111.17 7.66,113.98 5.03,116.06 1.87,117.19 -1.48,117.26 -4.67,116.25 -7.38,114.27 -9.32,111.53 -10.28,108.32 -10.49,106.64 -9.13,94.75 -4.53,72.93 4.14,53.30 15.78,34.38 28.89,16.57 43.74,0.95 53.13,-7.18 55.64,-8.94 57.93,-9.96 60.41,-10.41 62.92,-10.25 65.31,-9.49 67.46,-8.18 69.23,-6.40 70.52,-4.24 71.26,-1.84 71.40,0.67 70.94,3.14 69.90,5.42 68.34,7.40 Z" fill="#FFFFFF" stroke="transparent" stroke-width="0" stroke-linejoin="round" stroke-linecap="round" pointer-events="all" transform="translate(1156, 545)"/><path id="path_c165f460-020c-45b2-33f6-c6b2298e9ea0" d="M69.56,8.90 Q67.03,10.49 59.11,17.49 T44.15,32.79 31.55,50.13 20.59,68.49 12.84,86.76 10.09,97.38 8.80,100.47 6.59,103.00 3.69,104.68 0.41,105.35 -2.92,104.94 -5.94,103.49 -8.34,101.15 -9.87,98.16 -10.36,94.84 -9.77,91.54 -8.15,88.61 -5.69,86.34 -2.62,84.98 0.72,84.66 3.98,85.43 6.83,87.20 8.96,89.79 10.15,92.93 10.28,96.28 9.34,99.49 7.41,102.24 4.71,104.23 1.52,105.25 -1.83,105.20 -4.99,104.08 -7.63,102.01 -9.47,99.21 -10.32,95.96 -10.47,94.27 -9.56,86.71 -3.53,69.33 6.91,49.93 18.42,31.43 32.10,14.39 47.75,-0.52 57.17,-8.11 59.58,-9.44 61.97,-10.22 64.47,-10.41 66.95,-10.00 69.26,-9.00 71.26,-7.48 72.84,-5.52 73.90,-3.25 74.39,-0.78 74.28,1.73 73.57,4.14 72.30,6.31 70.55,8.11 Z" fill="#FFFFFF" stroke="transparent" stroke-width="0" stroke-linejoin="round" stroke-linecap="round" pointer-events="all" transform="translate(1177, 566)"/><path id="path_1e9900d3-87df-4f58-08f8-7ce84e0508ab" d="M178.38,200.22 Q175.52,197.21 167.85,189.35 T151.50,175.16 132.09,162.14 110.38,148.52 89.10,135.37 69.18,123.97 49.71,115.09 29.07,111.43 15.71,121.72 23.52,133.56 43.80,131.75 62.85,120.21 78.78,103.71 91.70,85.87 102.17,66.21 108.19,44.46 105.48,23.34 93.25,21.02 87.62,39.25 95.41,59.32 109.64,75.41 127.08,88.97 144.55,102.51 162.59,116.74 180.19,130.88 200.12,145.52 213.10,154.45 215.14,157.12 216.22,160.29 216.23,163.64 215.17,166.82 213.15,169.50 210.38,171.39 207.15,172.30 203.81,172.13 200.69,170.90 198.12,168.73 196.39,165.87 195.66,162.59 196.01,159.26 197.41,156.21 199.70,153.77 202.66,152.19 205.97,151.64 209.28,152.17 212.24,153.73 214.56,156.16 215.98,159.20 216.35,162.53 215.64,165.81 213.92,168.68 211.37,170.86 208.26,172.11 204.91,172.30 201.68,171.42 200.14,170.71 191.69,165.13 174.85,153.32 157.72,140.01 140.31,125.91 123.26,112.40 106.03,99.45 89.48,85.90 76.07,68.71 67.88,48.00 65.17,25.20 71.40,3.28 88.81,-7.33 109.81,-3.67 124.80,10.52 130.17,31.06 128.53,52.21 122.32,72.61 112.73,91.82 100.41,109.99 85.67,127.68 69.01,142.51 49.21,152.29 26.53,155.22 5.51,149.27 -6.26,132.55 -4.81,110.78 8.56,94.98 28.71,89.73 49.52,92.90 69.34,100.54 88.21,110.51 108.32,122.58 129.48,135.70 148.63,147.66 166.38,160.07 183.03,174.83 192.20,184.27 194.38,186.80 195.62,188.98 196.30,191.40 196.38,193.91 195.86,196.37 194.77,198.63 193.17,200.57 191.15,202.06 188.83,203.03 186.35,203.42 183.84,203.20 181.47,202.39 179.35,201.03 Z" fill="#FFFFFF" stroke="transparent" stroke-width="0" stroke-linejoin="round" stroke-linecap="round" pointer-events="all" transform="translate(853, 327)"/><path id="path_7032f056-c781-45fc-37c0-29cfc72fb1bd" d="M390.70,232.42 Q388.16,232.10 377.62,229.26 T357.24,222.98 336.66,216.29 315.66,210.59 294.97,206.56 273.94,204.71 253.11,206.98 231.67,212.42 210.11,217.71 188.47,219.84 166.64,216.20 146.31,208.07 126.38,197.34 107.14,185.90 88.12,173.24 70.15,159.08 53.80,143.30 38.96,124.69 26.30,104.43 15.23,82.52 6.57,61.15 -0.39,40.86 -6.92,16.47 -10.33,0.77 -10.04,-2.57 -8.69,-5.64 -6.43,-8.12 -3.50,-9.75 -0.21,-10.36 3.11,-9.88 6.11,-8.37 8.46,-5.98 9.93,-2.97 10.36,0.36 9.70,3.64 8.03,6.55 5.52,8.77 2.43,10.07 -0.92,10.32 -4.16,9.49 -6.98,7.66 -9.06,5.03 -10.19,1.88 -10.26,-1.47 -9.25,-4.67 -7.27,-7.38 -4.53,-9.32 -1.32,-10.28 2.03,-10.16 5.17,-8.98 7.76,-6.86 9.55,-4.02 10.21,-2.46 12.61,8.27 18.13,29.39 25.60,51.75 34.38,74.01 44.59,94.15 56.96,113.80 72.23,132.26 89.71,148.14 107.89,161.22 126.30,172.88 145.06,183.96 165.43,193.39 188.03,198.18 210.49,196.16 232.34,190.44 254.74,185.29 276.32,183.64 297.46,185.71 319.30,189.81 340.75,195.40 360.88,201.95 380.79,208.33 392.03,211.42 394.53,211.89 396.88,212.79 398.94,214.22 400.60,216.11 401.76,218.34 402.35,220.78 402.34,223.29 401.73,225.73 400.56,227.95 398.88,229.83 396.81,231.25 394.46,232.13 391.96,232.42 Z" fill="#FFFFFF" stroke="transparent" stroke-width="0" stroke-linejoin="round" stroke-linecap="round" pointer-events="all" transform="translate(635, 375)"/><path id="path_2ae7c2dc-0d6e-4f64-1aca-271a5c0ef922" d="M1.48,-10.39 Q5.92,-9.76 16.39,-7.85 T40.67,-1.42 55.97,3.91 58.62,5.97 60.46,8.77 61.31,12.02 61.09,15.36 59.81,18.46 57.60,20.99 54.71,22.68 51.42,23.35 48.10,22.95 45.07,21.50 42.67,19.16 41.14,16.18 40.64,12.86 41.23,9.56 42.84,6.62 45.30,4.35 48.36,2.98 51.70,2.66 54.96,3.43 57.81,5.19 59.95,7.78 61.15,10.91 61.28,14.26 60.34,17.48 58.43,20.23 55.73,22.22 52.54,23.25 49.19,23.20 47.51,22.90 36.11,19.14 13.83,13.20 0.73,10.71 -2.71,10.07 -5.04,9.13 -7.07,7.65 -8.70,5.74 -9.82,3.49 -10.37,1.04 -10.32,-1.47 -9.67,-3.90 -8.45,-6.10 -6.75,-7.95 -4.65,-9.33 -2.28,-10.17 0.22,-10.42 Z" fill="#FFFFFF" stroke="transparent" stroke-width="0" stroke-linejoin="round" stroke-linecap="round" pointer-events="all" transform="translate(635, 368)"/><path id="path_64fa85cf-a5fc-484d-2274-fd5a1895aff6" d="M8.00,-6.80 Q10.69,-3.63 17.66,5.20 T31.76,25.24 39.57,38.02 40.34,41.28 40.03,44.62 38.67,47.68 36.40,50.15 33.46,51.77 30.16,52.36 26.84,51.87 23.86,50.34 21.51,47.95 20.06,44.93 19.65,41.60 20.32,38.31 22.00,35.41 24.52,33.20 27.62,31.92 30.96,31.68 34.21,32.53 37.01,34.37 39.08,37.01 40.20,40.17 40.25,43.52 39.23,46.71 37.24,49.41 34.49,51.34 31.28,52.28 27.93,52.15 24.79,50.96 22.21,48.83 21.09,47.55 15.24,38.21 2.04,19.42 -6.65,8.39 -8.70,5.74 -9.82,3.50 -10.37,1.04 -10.32,-1.47 -9.67,-3.90 -8.45,-6.10 -6.75,-7.94 -4.65,-9.33 -2.29,-10.17 0.21,-10.42 2.70,-10.07 5.03,-9.13 7.07,-7.66 Z" fill="#FFFFFF" stroke="transparent" stroke-width="0" stroke-linejoin="round" stroke-linecap="round" pointer-events="all" transform="translate(691, 384)"/><path id="path_dec2547f-39e9-41b8-3546-51fb2d9ed0eb" d="M0.00,-10.50 Q3.49,-10.50 14.49,-9.99 T27.15,-9.14 30.27,-7.92 32.85,-5.77 34.60,-2.91 35.34,0.36 35.00,3.70 33.62,6.75 31.33,9.20 28.38,10.79 25.08,11.36 21.77,10.84 18.79,9.30 16.47,6.88 15.04,3.85 14.65,0.52 15.35,-2.76 17.05,-5.65 19.59,-7.84 22.70,-9.10 26.04,-9.31 29.28,-8.44 32.07,-6.58 34.12,-3.92 35.21,-0.75 35.24,2.60 34.19,5.79 32.18,8.47 29.42,10.37 26.20,11.29 24.51,11.49 14.00,10.99 1.74,10.50 -1.26,10.35 -3.70,9.75 -5.92,8.58 -7.80,6.91 -9.23,4.84 -10.12,2.49 -10.42,-0.00 -10.12,-2.50 -9.23,-4.84 -7.80,-6.91 -5.92,-8.58 -3.70,-9.75 -1.26,-10.35 Z" fill="#FFFFFF" stroke="transparent" stroke-width="0" stroke-linejoin="round" stroke-linecap="round" pointer-events="all" transform="translate(722, 428)"/><path id="path_b563d917-cb87-46e8-1f43-af20f12d5649" d="M6.62,-8.15 Q9.16,-6.09 16.67,3.20 T29.26,22.17 37.86,39.07 41.89,47.91 42.36,51.23 41.74,54.53 40.11,57.45 37.62,59.70 34.55,61.04 31.21,61.33 27.95,60.54 25.12,58.75 23.00,56.14 21.83,53.00 21.73,49.65 22.70,46.44 24.64,43.71 27.35,41.74 30.55,40.74 33.91,40.82 37.06,41.96 39.68,44.05 41.50,46.86 42.32,50.11 42.07,53.45 40.76,56.54 38.53,59.05 35.62,60.71 32.33,61.36 29.00,60.92 25.99,59.44 23.61,57.08 22.62,55.71 15.76,41.90 2.41,19.15 -5.35,9.18 -7.50,7.24 -9.01,5.23 -10.00,2.92 -10.41,0.44 -10.22,-2.06 -9.43,-4.45 -8.09,-6.57 -6.28,-8.32 -4.11,-9.58 -1.70,-10.28 0.81,-10.39 3.28,-9.89 5.55,-8.82 Z" fill="#FFFFFF" stroke="transparent" stroke-width="0" stroke-linejoin="round" stroke-linecap="round" pointer-events="all" transform="translate(755, 429)"/><path id="path_bc1e391b-c941-4781-0f99-e42e0bd03e58" d="M0.30,-10.50 Q5.85,-10.34 17.07,-9.92 T39.99,-8.10 62.37,-4.62 79.42,-0.85 87.33,1.59 90.11,3.46 92.14,6.13 93.22,9.30 93.23,12.65 92.17,15.83 90.14,18.51 87.37,20.39 84.14,21.30 80.80,21.12 77.68,19.89 75.12,17.73 73.38,14.86 72.65,11.58 73.01,8.25 74.41,5.20 76.71,2.76 79.67,1.19 82.98,0.64 86.29,1.17 89.25,2.74 91.56,5.17 92.98,8.21 93.35,11.54 92.63,14.82 90.91,17.69 88.36,19.87 85.25,21.11 81.90,21.30 80.21,21.12 74.72,19.62 58.73,16.08 37.88,12.75 16.38,11.06 2.47,10.57 -1.55,10.31 -3.97,9.64 -6.16,8.41 -8.00,6.69 -9.36,4.58 -10.19,2.20 -10.42,-0.30 -10.05,-2.78 -9.09,-5.11 -7.60,-7.13 -5.67,-8.74 -3.42,-9.85 -0.96,-10.38 Z" fill="#FFFFFF" stroke="transparent" stroke-width="0" stroke-linejoin="round" stroke-linecap="round" pointer-events="all" transform="translate(794, 483)"/><path id="path_570dcd44-9198-4809-3250-192cb5783604" d="M6.30,-8.40 Q9.47,-6.02 17.89,0.64 T31.20,11.78 37.14,17.59 38.76,20.53 39.36,23.83 38.87,27.15 37.35,30.13 34.96,32.48 31.94,33.94 28.61,34.35 25.32,33.69 22.42,32.01 20.21,29.49 18.92,26.39 18.68,23.05 19.53,19.80 21.36,17.00 24.00,14.93 27.16,13.80 30.51,13.75 33.70,14.77 36.40,16.75 38.33,19.50 39.28,22.71 39.15,26.06 37.96,29.20 35.84,31.79 32.99,33.56 29.73,34.34 26.39,34.03 23.33,32.67 21.91,31.74 9.39,21.26 -4.72,9.59 -7.21,7.52 -8.80,5.58 -9.88,3.31 -10.39,0.85 -10.29,-1.66 -9.59,-4.08 -8.34,-6.25 -6.60,-8.07 -4.48,-9.41 -2.09,-10.21 0.41,-10.42 2.89,-10.01 5.20,-9.03 Z" fill="#FFFFFF" stroke="transparent" stroke-width="0" stroke-linejoin="round" stroke-linecap="round" pointer-events="all" transform="translate(888, 498)"/><path id="path_7d8bcb59-9cc5-48dc-327a-ba361a37827e" d="M-2.55,13.81 Q3.16,12.39 13.62,9.37 T35.59,3.29 58.49,-2.04 84.91,-7.31 101.64,-10.36 104.96,-9.93 107.98,-8.46 110.37,-6.11 111.88,-3.12 112.36,0.20 111.75,3.49 110.13,6.43 107.65,8.69 104.58,10.03 101.24,10.33 97.98,9.55 95.14,7.77 93.02,5.17 91.84,2.03 91.72,-1.32 92.68,-4.53 94.62,-7.27 97.32,-9.25 100.52,-10.26 103.87,-10.19 107.03,-9.06 109.66,-6.98 111.49,-4.17 112.32,-0.92 112.07,2.42 110.77,5.51 108.56,8.02 105.65,9.70 104.06,10.30 88.76,13.34 62.66,18.54 40.85,23.62 19.05,29.65 5.40,33.47 1.29,34.34 -1.22,34.35 -3.66,33.76 -5.89,32.60 -7.78,30.94 -9.21,28.87 -10.11,26.53 -10.42,24.03 -10.13,21.54 -9.25,19.19 -7.82,17.11 -5.95,15.44 -3.73,14.27 Z" fill="#FFFFFF" stroke="transparent" stroke-width="0" stroke-linejoin="round" stroke-linecap="round" pointer-events="all" transform="translate(925, 502)"/><path id="path_61845eb4-68d8-454d-0461-9dad6a789f23" d="M0.00,-10.50 Q18.00,-10.50 19.68,-10.23 T22.85,-9.15 25.52,-7.13 27.40,-4.35 28.30,-1.12 28.12,2.23 26.88,5.34 24.71,7.90 21.83,9.63 18.56,10.35 15.23,9.98 12.18,8.58 9.75,6.27 8.18,3.31 7.64,-0.00 8.18,-3.31 9.75,-6.27 12.19,-8.58 15.23,-9.98 18.56,-10.35 21.84,-9.62 24.71,-7.90 26.88,-5.34 28.12,-2.22 28.30,1.12 27.40,4.35 25.52,7.13 22.85,9.16 19.67,10.23 18.00,10.50 9.00,10.50 -1.26,10.35 -3.70,9.75 -5.92,8.58 -7.80,6.91 -9.23,4.84 -10.12,2.49 -10.42,-0.00 -10.12,-2.50 -9.23,-4.84 -7.80,-6.91 -5.92,-8.58 -3.70,-9.75 -1.26,-10.35 Z" fill="#FFFFFF" stroke="transparent" stroke-width="0" stroke-linejoin="round" stroke-linecap="round" pointer-events="all" transform="translate(1031, 502)"/><path id="path_30ae4bfe-ed5b-4b48-31b0-1316b86c7b37" d="M-2.16,-1.27 Q0.85,-1.91 12.11,-3.51 T34.68,-6.15 56.62,-8.18 78.50,-9.60 101.06,-10.19 124.94,-9.39 148.33,-6.02 169.61,0.43 189.04,10.21 206.14,22.66 221.82,36.78 236.61,52.21 250.12,68.67 261.50,86.64 271.55,105.67 280.16,125.06 285.79,145.39 288.55,167.01 289.66,189.32 293.86,211.09 303.33,231.27 312.73,245.77 317.52,252.10 318.96,255.13 319.35,258.46 318.66,261.74 316.96,264.63 314.43,266.83 311.33,268.10 307.98,268.31 304.74,267.45 301.95,265.59 299.89,262.94 298.79,259.78 298.76,256.42 299.80,253.24 301.80,250.55 304.56,248.64 307.78,247.71 311.13,247.86 314.26,249.07 316.83,251.22 318.59,254.07 319.34,257.34 319.01,260.68 317.63,263.73 315.35,266.19 312.40,267.79 309.10,268.36 305.79,267.85 302.81,266.31 301.45,265.30 297.99,261.30 288.44,247.80 277.61,228.65 270.77,208.02 268.47,185.41 267.17,163.21 263.52,142.20 256.38,122.33 246.79,103.48 235.95,85.30 223.17,68.68 208.17,52.84 192.03,38.29 173.73,25.98 152.54,16.80 130.62,12.14 108.65,10.87 86.68,11.12 63.74,12.38 40.30,14.39 17.00,17.04 3.67,18.96 0.90,19.38 -1.61,19.30 -4.03,18.61 -6.21,17.37 -8.03,15.64 -9.39,13.53 -10.20,11.15 -10.42,8.64 -10.03,6.16 -9.06,3.84 -7.56,1.82 -5.62,0.22 -3.36,-0.87 Z" fill="#FFFFFF" stroke="transparent" stroke-width="0" stroke-linejoin="round" stroke-linecap="round" pointer-events="all" transform="translate(806, 189)"/><path id="path_26f481d0-d065-480b-0346-41577638284d" d="M9.24,-4.98 Q11.46,-0.86 16.45,8.70 T26.78,27.78 36.81,46.41 41.96,57.16 42.35,60.49 41.65,63.77 39.94,66.65 37.40,68.84 34.30,70.10 30.95,70.31 27.71,69.43 24.93,67.57 22.88,64.91 21.79,61.74 21.76,58.39 22.81,55.21 24.82,52.53 27.59,50.63 30.81,49.71 34.16,49.87 37.28,51.09 39.85,53.24 41.60,56.10 42.34,59.37 42.00,62.71 40.61,65.76 38.32,68.21 35.37,69.80 32.07,70.36 28.76,69.84 25.78,68.29 23.46,65.87 22.50,64.47 18.34,56.34 8.62,38.31 -1.98,18.75 -8.14,7.04 -9.71,3.80 -10.33,1.37 -10.36,-1.15 -9.78,-3.59 -8.64,-5.83 -6.99,-7.73 -4.94,-9.18 -2.60,-10.09 -0.11,-10.42 2.39,-10.15 4.75,-9.28 6.83,-7.87 8.52,-6.01 Z" fill="#FFFFFF" stroke="transparent" stroke-width="0" stroke-linejoin="round" stroke-linecap="round" pointer-events="all" transform="translate(804, 201)"/><path id="path_27233e75-7d43-43fd-31be-061075f61125" d="M0.00,-10.50 Q5.39,-10.50 18.08,-10.50 T43.25,-10.50 67.72,-10.30 93.47,-9.79 108.89,-9.19 112.04,-8.05 114.67,-5.97 116.49,-3.15 117.32,0.10 117.07,3.44 115.76,6.53 113.54,9.04 110.63,10.70 107.34,11.36 104.02,10.92 101.01,9.45 98.62,7.09 97.11,4.10 96.64,0.78 97.25,-2.52 98.89,-5.44 101.37,-7.70 104.44,-9.04 107.78,-9.33 111.04,-8.54 113.87,-6.75 115.99,-4.15 117.16,-1.01 117.27,2.34 116.31,5.55 114.37,8.28 111.66,10.26 108.46,11.26 106.78,11.50 92.97,11.20 67.45,10.70 43.25,10.50 18.08,10.50 2.69,10.50 -1.26,10.35 -3.70,9.75 -5.92,8.58 -7.80,6.91 -9.23,4.84 -10.12,2.49 -10.42,-0.00 -10.12,-2.50 -9.23,-4.84 -7.80,-6.91 -5.92,-8.58 -3.70,-9.75 -1.26,-10.35 Z" fill="#FFFFFF" stroke="transparent" stroke-width="0" stroke-linejoin="round" stroke-linecap="round" pointer-events="all" transform="translate(836, 261)"/><path id="path_5125c37d-b02e-4488-2d31-239e8cb5f0f4" d="M8.74,-5.82 Q10.64,-2.97 16.48,5.80 T31.67,20.64 51.43,28.40 71.38,35.52 87.98,48.64 99.12,66.32 103.61,86.94 98.66,106.86 90.01,121.01 85.55,127.09 82.89,129.13 79.72,130.22 76.37,130.23 73.18,129.17 70.51,127.16 68.61,124.39 67.70,121.16 67.87,117.81 69.10,114.69 71.26,112.13 74.13,110.39 77.40,109.66 80.73,110.01 83.78,111.40 86.22,113.70 87.81,116.65 88.36,119.96 87.83,123.27 86.27,126.24 83.85,128.55 80.81,129.97 77.48,130.35 74.20,129.64 71.32,127.92 69.14,125.38 67.89,122.27 67.69,118.92 68.58,115.69 69.29,114.14 76.55,101.50 80.74,78.49 69.95,60.75 51.97,50.82 31.74,45.16 13.27,34.21 -1.03,17.52 -7.79,7.25 -9.31,4.69 -10.16,2.33 -10.42,-0.17 -10.08,-2.66 -9.15,-4.99 -7.69,-7.04 -5.78,-8.67 -3.54,-9.80 -1.09,-10.37 1.42,-10.33 3.85,-9.68 6.06,-8.48 7.91,-6.78 Z" fill="#FFFFFF" stroke="transparent" stroke-width="0" stroke-linejoin="round" stroke-linecap="round" pointer-events="all" transform="translate(943, 262)"/><path id="path_8a058907-1d4f-418f-21f6-ed6b79e85022" d="M9.15,-5.15 Q12.00,-0.08 18.13,10.06 T33.35,32.98 43.22,47.28 44.25,50.47 44.20,53.82 43.09,56.98 41.02,59.62 38.22,61.46 34.97,62.32 31.63,62.09 28.53,60.80 26.01,58.60 24.32,55.70 23.65,52.41 24.06,49.09 25.51,46.06 27.85,43.66 30.83,42.13 34.15,41.64 37.45,42.23 40.39,43.84 42.66,46.31 44.02,49.37 44.34,52.71 43.57,55.97 41.80,58.82 39.21,60.95 36.08,62.15 32.73,62.28 29.51,61.34 26.77,59.42 25.55,58.23 15.84,44.51 -0.09,20.51 -7.72,7.68 -9.63,3.98 -10.31,1.56 -10.38,-0.96 -9.85,-3.41 -8.75,-5.67 -7.14,-7.60 -5.11,-9.09 -2.79,-10.04 -0.30,-10.42 2.20,-10.19 4.57,-9.37 6.68,-8.00 8.40,-6.17 Z" fill="#FFFFFF" stroke="transparent" stroke-width="0" stroke-linejoin="round" stroke-linecap="round" pointer-events="all" transform="translate(1021, 382)"/><path id="path_e0844279-8d48-4f88-36f2-d4ce71b6177a" d="M4.91,-9.28 Q7.61,-7.85 20.39,-1.24 T34.60,6.28 37.09,8.53 38.74,11.45 39.36,14.75 38.90,18.07 37.40,21.07 35.02,23.43 32.01,24.91 28.69,25.36 25.40,24.72 22.49,23.06 20.25,20.56 18.94,17.47 18.67,14.13 19.49,10.88 21.31,8.06 23.93,5.97 27.08,4.82 30.43,4.74 33.63,5.73 36.35,7.69 38.30,10.42 39.27,13.63 39.17,16.98 38.00,20.13 35.90,22.73 33.07,24.53 29.81,25.33 26.47,25.05 24.82,24.63 20.41,22.71 6.88,15.75 -3.57,9.99 -5.95,8.56 -7.83,6.88 -9.25,4.81 -10.13,2.46 -10.42,-0.04 -10.11,-2.53 -9.21,-4.88 -7.78,-6.94 -5.89,-8.60 -3.66,-9.76 -1.22,-10.35 1.29,-10.34 3.73,-9.73 Z" fill="#FFFFFF" stroke="transparent" stroke-width="0" stroke-linejoin="round" stroke-linecap="round" pointer-events="all" transform="translate(1055, 434)"/><path id="path_2310651e-777a-4695-1ec5-ce943a9071f5" d="M-3.53,2.11 Q0.91,0.53 19.50,-4.78 T39.78,-10.29 43.13,-10.14 46.26,-8.93 48.83,-6.78 50.59,-3.93 51.34,-0.66 51.01,2.68 49.63,5.73 47.35,8.19 44.40,9.79 41.10,10.36 37.79,9.85 34.81,8.31 32.48,5.90 31.04,2.87 30.65,-0.46 31.34,-3.74 33.04,-6.63 35.57,-8.83 38.68,-10.10 42.02,-10.31 45.26,-9.44 48.05,-7.59 50.11,-4.94 51.21,-1.77 51.24,1.58 50.20,4.77 48.20,7.45 45.44,9.36 43.91,10.09 25.94,15.20 5.75,21.10 2.30,22.17 -0.20,22.42 -2.69,22.07 -5.02,21.13 -7.06,19.67 -8.69,17.75 -9.82,15.51 -10.37,13.05 -10.32,10.54 -9.67,8.11 -8.46,5.91 -6.76,4.06 -4.66,2.68 Z" fill="#FFFFFF" stroke="transparent" stroke-width="0" stroke-linejoin="round" stroke-linecap="round" pointer-events="all" transform="translate(634, 351)"/><path id="path_6e7046e5-d9b6-403e-05d7-34832b90d26b" d="M2.28,-10.25 Q5.13,-9.62 15.59,-6.52 T31.96,-1.09 39.33,2.11 41.89,4.28 43.62,7.15 44.35,10.43 43.99,13.76 42.58,16.80 40.28,19.24 37.32,20.82 34.01,21.36 30.70,20.82 27.74,19.26 25.43,16.83 24.02,13.78 23.65,10.45 24.37,7.18 26.09,4.30 28.65,2.13 31.76,0.88 35.11,0.70 38.34,1.59 41.12,3.47 43.15,6.14 44.22,9.31 44.23,12.67 43.16,15.84 41.13,18.51 38.36,20.40 35.13,21.30 31.78,21.12 30.13,20.76 25.41,18.84 10.63,13.90 -0.85,10.57 -3.47,9.83 -5.72,8.71 -7.64,7.09 -9.12,5.05 -10.06,2.73 -10.42,0.24 -10.18,-2.26 -9.34,-4.63 -7.96,-6.73 -6.12,-8.44 -3.92,-9.66 -1.49,-10.32 1.02,-10.37 Z" fill="#FFFFFF" stroke="transparent" stroke-width="0" stroke-linejoin="round" stroke-linecap="round" pointer-events="all" transform="translate(675, 349)"/><path id="path_b2c5090f-d744-4122-21dc-266326c98053" d="M-0.55,-5.49 Q2.45,-5.64 13.86,-7.00 T33.45,-9.38 43.34,-10.36 46.63,-9.71 49.54,-8.04 51.76,-5.53 53.07,-2.44 53.32,0.90 52.50,4.15 50.67,6.96 48.05,9.05 44.89,10.19 41.54,10.26 38.34,9.26 35.63,7.28 33.69,4.55 32.73,1.34 32.84,-2.01 34.01,-5.15 36.13,-7.75 38.96,-9.54 42.22,-10.33 45.56,-10.04 48.63,-8.70 51.11,-6.44 52.75,-3.52 53.36,-0.22 52.89,3.10 51.38,6.09 49.00,8.45 45.98,9.92 44.36,10.41 34.72,11.58 14.32,14.04 2.06,15.41 -0.71,15.40 -3.18,14.93 -5.46,13.88 -7.43,12.31 -8.96,10.32 -9.98,8.02 -10.41,5.55 -10.24,3.04 -9.47,0.65 -8.15,-1.49 -6.36,-3.26 -4.20,-4.54 -1.80,-5.27 Z" fill="#FFFFFF" stroke="transparent" stroke-width="0" stroke-linejoin="round" stroke-linecap="round" pointer-events="all" transform="translate(715, 355)"/><path id="path_c40dbee9-a1a3-4e69-32ef-f1310e59b7e9" d="M3.02,-10.06 Q7.77,-8.63 18.41,-4.94 T41.56,2.86 55.61,7.72 58.33,9.67 60.28,12.40 61.27,15.60 61.18,18.96 60.02,22.10 57.92,24.71 55.09,26.52 51.84,27.33 48.50,27.05 45.42,25.73 42.92,23.49 41.27,20.57 40.64,17.28 41.10,13.96 42.59,10.95 44.96,8.58 47.96,7.09 51.28,6.64 54.58,7.28 57.50,8.93 59.73,11.42 61.06,14.50 61.33,17.85 60.52,21.10 58.71,23.92 56.10,26.02 52.95,27.18 49.60,27.27 47.91,27.04 34.83,22.74 11.75,14.96 -0.64,10.77 -4.18,9.55 -6.34,8.27 -8.14,6.51 -9.46,4.38 -10.23,1.99 -10.41,-0.52 -9.98,-3.00 -8.98,-5.30 -7.45,-7.29 -5.49,-8.86 -3.21,-9.92 -0.74,-10.40 1.77,-10.27 Z" fill="#FFFFFF" stroke="transparent" stroke-width="0" stroke-linejoin="round" stroke-linecap="round" pointer-events="all" transform="translate(763, 353)"/><path id="path_c9029260-3706-45bf-3b02-a8f48c324339" d="M-9.33,42.18 Q-6.95,37.58 -2.42,27.97 T6.69,7.20 12.16,-5.41 14.35,-7.95 17.24,-9.65 20.52,-10.35 23.85,-9.96 26.88,-8.53 29.30,-6.21 30.84,-3.23 31.36,0.08 30.79,3.38 29.20,6.33 26.75,8.62 23.69,10.01 20.36,10.34 17.09,9.60 14.23,7.84 12.08,5.27 10.86,2.15 10.71,-1.20 11.63,-4.42 13.53,-7.18 16.22,-9.19 19.40,-10.24 22.76,-10.21 25.93,-9.12 28.58,-7.07 30.44,-4.28 31.31,-1.04 31.10,2.31 30.72,3.96 26.09,15.25 16.58,36.88 10.52,49.53 8.61,52.87 6.96,54.76 4.90,56.20 2.55,57.11 0.06,57.42 -2.43,57.14 -4.79,56.26 -6.87,54.84 -8.54,52.97 -9.72,50.75 -10.34,48.32 -10.35,45.80 -9.77,43.36 Z" fill="#FFFFFF" stroke="transparent" stroke-width="0" stroke-linejoin="round" stroke-linecap="round" pointer-events="all" transform="translate(814, 323)"/><path id="path_480b1c6c-18a2-4fa1-178e-97631217f965" d="M0.00,-10.50 Q3.80,-10.50 15.40,-10.50 T28.68,-10.23 31.85,-9.15 34.52,-7.13 36.40,-4.35 37.30,-1.12 37.12,2.23 35.88,5.34 33.71,7.90 30.83,9.63 27.56,10.35 24.23,9.98 21.18,8.58 18.75,6.27 17.18,3.31 16.64,-0.00 17.18,-3.31 18.75,-6.27 21.19,-8.58 24.23,-9.98 27.56,-10.35 30.84,-9.62 33.71,-7.90 35.88,-5.34 37.12,-2.22 37.30,1.12 36.40,4.35 34.52,7.13 31.85,9.16 28.67,10.23 27.00,10.50 15.40,10.50 1.90,10.50 -1.26,10.35 -3.70,9.75 -5.92,8.58 -7.80,6.91 -9.23,4.84 -10.12,2.49 -10.42,-0.00 -10.12,-2.50 -9.23,-4.84 -7.80,-6.91 -5.92,-8.58 -3.70,-9.75 -1.26,-10.35 Z" fill="#FFFFFF" stroke="transparent" stroke-width="0" stroke-linejoin="round" stroke-linecap="round" pointer-events="all" transform="translate(835, 323)"/><path id="path_ae850e10-bda8-435b-195d-f58dfba038d3" d="M-10.50,53.00 Q-10.50,47.77 -10.50,36.01 T-10.50,12.12 -10.23,-1.68 -9.15,-4.85 -7.13,-7.52 -4.35,-9.40 -1.12,-10.30 2.23,-10.12 5.34,-8.88 7.90,-6.71 9.63,-3.83 10.35,-0.56 9.98,2.77 8.58,5.82 6.27,8.25 3.31,9.82 -0.00,10.36 -3.31,9.82 -6.27,8.25 -8.58,5.81 -9.98,2.77 -10.35,-0.56 -9.62,-3.84 -7.90,-6.71 -5.34,-8.88 -2.22,-10.12 1.12,-10.30 4.35,-9.40 7.13,-7.52 9.16,-4.85 10.23,-1.67 10.50,0.00 10.50,12.12 10.50,36.01 10.50,50.38 10.35,54.26 9.75,56.70 8.58,58.92 6.91,60.80 4.84,62.23 2.49,63.12 -0.00,63.42 -2.50,63.12 -4.84,62.23 -6.91,60.80 -8.58,58.92 -9.75,56.70 -10.35,54.26 Z" fill="#FFFFFF" stroke="transparent" stroke-width="0" stroke-linejoin="round" stroke-linecap="round" pointer-events="all" transform="translate(865, 264)"/><path id="path_969d38ba-b4ca-40ab-3b73-83037fb59732" d="M-3.20,10.00 Q0.76,8.73 11.70,1.19 T23.88,-7.52 26.65,-9.41 29.88,-10.30 33.23,-10.12 36.34,-8.88 38.90,-6.71 40.63,-3.83 41.35,-0.56 40.98,2.78 39.57,5.82 37.27,8.25 34.30,9.82 31.00,10.36 27.69,9.82 24.73,8.25 22.42,5.81 21.01,2.77 20.65,-0.57 21.38,-3.84 23.11,-6.71 25.66,-8.88 28.78,-10.12 32.13,-10.30 35.36,-9.40 38.13,-7.52 40.16,-4.85 41.23,-1.67 41.22,1.68 40.15,4.86 39.36,6.36 32.93,13.17 16.83,24.35 5.18,29.37 1.96,30.24 -0.55,30.41 -3.03,29.97 -5.32,28.96 -7.31,27.43 -8.88,25.46 -9.93,23.18 -10.40,20.71 -10.27,18.20 -9.54,15.79 -8.25,13.63 -6.49,11.84 -4.35,10.53 Z" fill="#FFFFFF" stroke="transparent" stroke-width="0" stroke-linejoin="round" stroke-linecap="round" pointer-events="all" transform="translate(865, 244)"/><path id="path_0726a9db-8adf-43cb-321b-fe343fd124e1" d="M74.82,50.01 Q71.33,48.90 60.82,45.78 T39.80,38.51 20.66,28.54 2.87,15.56 -7.46,7.19 -9.37,4.43 -10.29,1.20 -10.14,-2.15 -8.92,-5.27 -6.77,-7.84 -3.91,-9.59 -0.64,-10.34 2.69,-10.01 5.75,-8.62 8.20,-6.34 9.79,-3.39 10.36,-0.08 9.85,3.23 8.30,6.20 5.88,8.53 2.85,9.96 -0.48,10.35 -3.76,9.66 -6.64,7.95 -8.84,5.41 -10.10,2.31 -10.31,-1.04 -9.44,-4.28 -7.58,-7.07 -4.93,-9.12 -1.76,-10.21 1.60,-10.24 4.78,-9.19 6.29,-8.41 13.13,-3.04 28.61,8.56 47.43,18.88 67.66,25.93 79.44,29.44 82.33,30.52 84.48,31.83 86.24,33.62 87.53,35.78 88.26,38.18 88.40,40.69 87.93,43.16 86.89,45.45 85.33,47.41 83.34,48.95 81.04,49.97 78.57,50.41 76.06,50.24 Z" fill="#FFFFFF" stroke="transparent" stroke-width="0" stroke-linejoin="round" stroke-linecap="round" pointer-events="all" transform="translate(818, 204)"/><path id="path_1745724e-d857-43e9-1d07-f33411dabe7f" d="M0.16,-10.50 Q3.51,-9.95 5.01,-9.15 T7.68,-7.13 9.56,-4.35 10.46,-1.12 10.28,2.23 9.04,5.34 6.87,7.90 3.99,9.63 0.72,10.35 -2.61,9.98 -5.66,8.58 -8.09,6.27 -9.66,3.31 -10.20,-0.00 -9.66,-3.31 -8.09,-6.27 -5.65,-8.58 -2.61,-9.98 0.72,-10.35 4.00,-9.62 6.87,-7.90 9.04,-5.34 10.28,-2.22 10.46,1.12 9.56,4.35 7.68,7.13 5.01,9.16 1.83,10.23 0.16,10.50 -1.10,10.37 -3.55,9.80 -5.79,8.67 -7.70,7.03 -9.16,4.98 -10.08,2.65 -10.42,0.16 -10.16,-2.34 -9.30,-4.71 -7.91,-6.79 -6.05,-8.49 -3.84,-9.69 -1.41,-10.33 Z" fill="#FFFFFF" stroke="transparent" stroke-width="0" stroke-linejoin="round" stroke-linecap="round" pointer-events="all" transform="translate(993, 815)"/><path id="path_6eee2573-68dc-40e0-34a2-11f36f1eea8d" d="M-6.86,26.05 Q-3.38,23.04 5.62,16.62 T24.78,4.93 45.27,-3.67 66.40,-8.32 88.63,-9.53 110.86,-8.23 128.45,-6.24 136.87,-4.96 139.90,-3.52 142.31,-1.19 143.85,1.79 144.36,5.10 143.79,8.41 142.19,11.35 139.73,13.63 136.67,15.01 133.34,15.34 130.07,14.59 127.21,12.83 125.07,10.25 123.86,7.13 123.71,3.78 124.64,0.56 126.55,-2.20 129.24,-4.20 132.43,-5.24 135.78,-5.21 138.95,-4.11 141.59,-2.05 143.45,0.74 144.31,3.98 144.10,7.33 142.82,10.43 140.63,12.96 137.74,14.66 134.46,15.35 132.76,15.43 122.28,14.13 101.31,11.98 80.29,11.60 58.85,14.62 38.44,21.58 19.65,32.47 8.61,40.44 5.81,42.65 3.57,43.79 1.13,44.36 -1.39,44.33 -3.82,43.70 -6.03,42.50 -7.89,40.81 -9.29,38.73 -10.15,36.37 -10.42,33.87 -10.09,31.38 -9.17,29.04 -7.71,26.99 Z" fill="#FFFFFF" stroke="transparent" stroke-width="0" stroke-linejoin="round" stroke-linecap="round" pointer-events="all" transform="translate(486, 486)"/><path id="path_00bbf27c-f91a-431a-28cc-3ce95f0d5d36" d="M13.44,1.12 Q12.96,5.56 11.72,21.16 T10.07,38.42 8.77,41.51 6.55,44.03 3.65,45.70 0.36,46.36 -2.97,45.93 -5.98,44.46 -8.37,42.11 -9.88,39.12 -10.36,35.80 -9.75,32.50 -8.12,29.57 -5.65,27.31 -2.58,25.96 0.76,25.67 4.02,26.45 6.86,28.24 8.98,30.83 10.16,33.97 10.28,37.32 9.32,40.53 7.38,43.27 4.67,45.25 1.48,46.26 -1.88,46.19 -5.03,45.06 -7.66,42.98 -9.49,40.16 -10.32,36.92 -10.47,35.23 -9.19,19.27 -7.68,1.10 -7.15,-2.35 -6.30,-4.71 -4.90,-6.80 -3.04,-8.49 -0.83,-9.69 1.60,-10.33 4.11,-10.36 6.56,-9.80 8.80,-8.66 10.70,-7.02 12.16,-4.97 13.08,-2.64 13.42,-0.15 Z" fill="#FFFFFF" stroke="transparent" stroke-width="0" stroke-linejoin="round" stroke-linecap="round" pointer-events="all" transform="translate(481, 526)"/><path id="path_bb4eb547-45ce-4e7e-01a2-faa75b6ad82a" d="M0.40,-10.49 Q4.52,-10.33 16.94,-9.91 T31.01,-9.16 34.15,-7.99 36.75,-5.87 38.54,-3.04 39.33,0.22 39.04,3.56 37.70,6.63 35.44,9.11 32.51,10.75 29.22,11.36 25.90,10.89 22.90,9.38 20.55,6.99 19.08,3.98 18.64,0.66 19.30,-2.63 20.96,-5.54 23.47,-7.76 26.56,-9.07 29.90,-9.32 33.15,-8.49 35.97,-6.67 38.05,-4.04 39.19,-0.89 39.26,2.46 38.25,5.66 36.28,8.37 33.55,10.31 30.33,11.28 28.65,11.49 16.19,11.07 1.66,10.57 -1.65,10.29 -4.07,9.60 -6.25,8.34 -8.06,6.61 -9.41,4.49 -10.21,2.10 -10.42,-0.40 -10.02,-2.88 -9.04,-5.20 -7.53,-7.21 -5.59,-8.80 -3.32,-9.88 -0.86,-10.39 Z" fill="#FFFFFF" stroke="transparent" stroke-width="0" stroke-linejoin="round" stroke-linecap="round" pointer-events="all" transform="translate(485, 562)"/><path id="path_52289a70-bd7a-4238-3f94-e44183b47f59" d="M9.06,-5.31 Q11.75,-0.71 17.97,10.43 T29.71,31.30 41.70,52.45 48.74,65.47 49.36,68.77 48.89,72.09 47.39,75.08 45.01,77.44 42.00,78.92 38.67,79.36 35.38,78.71 32.47,77.05 30.24,74.54 28.93,71.45 28.68,68.11 29.50,64.86 31.32,62.04 33.94,59.96 37.10,58.81 40.45,58.74 43.65,59.74 46.36,61.71 48.30,64.44 49.27,67.65 49.17,71.00 48.00,74.14 45.88,76.75 43.05,78.54 39.79,79.33 36.45,79.04 33.38,77.70 30.89,75.45 29.84,74.12 23.54,62.99 11.37,41.52 -0.43,20.54 -7.71,7.61 -9.56,4.15 -10.28,1.74 -10.39,-0.77 -9.91,-3.24 -8.85,-5.51 -7.27,-7.47 -5.27,-8.99 -2.97,-9.99 -0.49,-10.41 2.02,-10.23 4.41,-9.45 6.54,-8.12 8.29,-6.32 Z" fill="#FFFFFF" stroke="transparent" stroke-width="0" stroke-linejoin="round" stroke-linecap="round" pointer-events="all" transform="translate(514, 563)"/><path id="path_7c9825ea-4b9b-4525-1ea8-8b336950a912" d="M-4.16,16.36 Q2.81,13.35 14.33,8.30 T40.31,-3.18 56.40,-10.03 59.74,-10.34 63.00,-9.56 65.84,-7.78 67.97,-5.19 69.16,-2.05 69.28,1.30 68.33,4.51 66.40,7.26 63.69,9.24 60.50,10.25 57.15,10.19 53.99,9.07 51.35,6.99 49.52,4.19 48.68,0.94 48.92,-2.40 50.22,-5.50 52.43,-8.01 55.33,-9.69 58.62,-10.35 61.95,-9.93 64.96,-8.47 67.36,-6.12 68.88,-3.14 69.36,0.18 68.76,3.48 67.14,6.42 64.66,8.68 63.24,9.61 48.78,16.03 22.73,27.55 7.65,34.13 2.95,36.00 0.47,36.41 -2.04,36.22 -4.42,35.44 -6.55,34.11 -8.30,32.30 -9.57,30.13 -10.28,27.72 -10.39,25.21 -9.90,22.75 -8.84,20.47 -7.26,18.52 -5.25,17.00 Z" fill="#FFFFFF" stroke="transparent" stroke-width="0" stroke-linejoin="round" stroke-linecap="round" pointer-events="all" transform="translate(555, 605)"/><path id="path_b13c9686-5424-4670-2c77-efd74feee416" d="M3.43,-9.92 Q7.56,-8.50 24.16,-2.15 T42.23,5.06 44.82,7.20 46.58,10.05 47.34,13.31 47.02,16.65 45.65,19.71 43.37,22.17 40.43,23.78 37.13,24.36 33.81,23.86 30.83,22.32 28.49,19.92 27.05,16.89 26.65,13.56 27.33,10.28 29.02,7.39 31.55,5.19 34.65,3.91 38.00,3.69 41.24,4.54 44.04,6.39 46.10,9.04 47.20,12.20 47.24,15.55 46.21,18.74 44.21,21.44 41.46,23.35 38.24,24.29 34.89,24.15 33.23,23.80 16.96,17.57 -1.37,10.64 -4.57,9.37 -6.68,8.00 -8.40,6.17 -9.63,3.98 -10.31,1.56 -10.38,-0.95 -9.85,-3.41 -8.75,-5.67 -7.14,-7.60 -5.11,-9.08 -2.79,-10.04 -0.30,-10.42 2.20,-10.19 Z" fill="#FFFFFF" stroke="transparent" stroke-width="0" stroke-linejoin="round" stroke-linecap="round" pointer-events="all" transform="translate(618, 599)"/><path id="path_920d3ab5-69dd-40da-2fd6-5f36f5d4de17" d="M-10.49,55.66 Q-10.34,50.75 -9.51,39.91 T-8.09,14.35 -7.16,-2.05 -5.97,-5.18 -3.85,-7.78 -1.01,-9.56 2.25,-10.33 5.59,-10.03 8.66,-8.68 11.14,-6.42 12.76,-3.48 13.36,-0.18 12.88,3.13 11.36,6.12 8.97,8.47 5.95,9.93 2.62,10.35 -0.66,9.69 -3.57,8.01 -5.78,5.50 -7.08,2.41 -7.32,-0.94 -6.48,-4.18 -4.65,-6.99 -2.01,-9.07 1.14,-10.19 4.50,-10.25 7.69,-9.24 10.40,-7.26 12.33,-4.52 13.28,-1.30 13.49,0.38 12.89,15.34 11.47,40.86 10.57,53.88 10.30,57.59 9.62,60.01 8.38,62.19 6.66,64.02 4.54,65.38 2.17,66.20 -0.34,66.42 -2.82,66.03 -5.14,65.07 -7.16,63.57 -8.77,61.64 -9.86,59.38 -10.38,56.92 Z" fill="#FFFFFF" stroke="transparent" stroke-width="0" stroke-linejoin="round" stroke-linecap="round" pointer-events="all" transform="translate(655, 557)"/><path id="path_d79d866a-c871-4ae3-3b72-07d649bacad1" d="M32.86,25.65 Q29.54,24.22 18.84,19.76 T1.78,12.37 -5.97,8.47 -8.36,6.12 -9.88,3.12 -10.36,-0.19 -9.76,-3.49 -8.13,-6.42 -5.65,-8.68 -2.58,-10.03 0.76,-10.33 4.02,-9.55 6.86,-7.77 8.98,-5.17 10.16,-2.04 10.28,1.31 9.32,4.53 7.39,7.27 4.68,9.24 1.48,10.25 -1.87,10.19 -5.03,9.06 -7.66,6.98 -9.48,4.17 -10.32,0.93 -10.08,-2.42 -8.78,-5.51 -6.56,-8.02 -3.65,-9.70 -0.36,-10.36 2.96,-9.93 4.59,-9.44 11.48,-6.28 28.10,0.91 39.47,5.64 42.23,6.98 44.24,8.50 45.82,10.45 46.89,12.72 47.39,15.18 47.28,17.69 46.58,20.11 45.32,22.28 43.57,24.09 41.45,25.43 39.06,26.22 36.56,26.41 34.08,26.01 Z" fill="#FFFFFF" stroke="transparent" stroke-width="0" stroke-linejoin="round" stroke-linecap="round" pointer-events="all" transform="translate(621, 539)"/><path id="path_6069ae73-39b1-4520-35e8-b9bcd15c586f" d="M-10.50,46.00 Q-10.50,42.35 -10.50,31.88 T-10.50,10.70 -10.23,-1.68 -9.15,-4.85 -7.13,-7.52 -4.35,-9.40 -1.12,-10.30 2.23,-10.12 5.34,-8.88 7.90,-6.71 9.63,-3.83 10.35,-0.56 9.98,2.77 8.58,5.82 6.27,8.25 3.31,9.82 -0.00,10.36 -3.31,9.82 -6.27,8.25 -8.58,5.81 -9.98,2.77 -10.35,-0.56 -9.62,-3.84 -7.90,-6.71 -5.34,-8.88 -2.22,-10.12 1.12,-10.30 4.35,-9.40 7.13,-7.52 9.16,-4.85 10.23,-1.67 10.50,0.00 10.50,10.70 10.50,31.88 10.50,44.18 10.35,47.26 9.75,49.70 8.58,51.92 6.91,53.80 4.84,55.23 2.49,56.12 -0.00,56.42 -2.50,56.12 -4.84,55.23 -6.91,53.80 -8.58,51.92 -9.75,49.70 -10.35,47.26 Z" fill="#FFFFFF" stroke="transparent" stroke-width="0" stroke-linejoin="round" stroke-linecap="round" pointer-events="all" transform="translate(621, 492)"/><path id="path_7123a06b-aec9-4e4c-35be-b36e9140420c" d="M1.19,30.57 Q6.74,31.20 18.46,32.41 T42.29,33.98 65.50,32.55 88.85,28.06 113.12,22.20 135.04,15.55 154.77,7.25 176.46,-3.48 189.94,-9.90 193.26,-10.36 196.55,-9.73 199.47,-8.09 201.72,-5.60 203.05,-2.52 203.33,0.82 202.53,4.07 200.73,6.90 198.12,9.01 194.98,10.17 191.62,10.27 188.42,9.29 185.69,7.34 183.73,4.62 182.74,1.42 182.82,-1.93 183.97,-5.08 186.06,-7.70 188.89,-9.51 192.14,-10.33 195.48,-10.06 198.56,-8.74 201.06,-6.51 202.72,-3.59 203.36,-0.30 202.91,3.02 201.43,6.03 199.06,8.40 197.69,9.40 184.00,16.27 159.29,28.27 136.64,37.24 112.37,44.25 87.18,50.04 63.23,54.07 40.11,55.01 16.38,53.30 1.58,51.75 -2.42,51.14 -4.78,50.26 -6.86,48.85 -8.54,46.98 -9.72,44.76 -10.34,42.33 -10.36,39.82 -9.77,37.37 -8.62,35.14 -6.97,33.25 -4.91,31.80 -2.56,30.90 -0.07,30.58 Z" fill="#FFFFFF" stroke="transparent" stroke-width="0" stroke-linejoin="round" stroke-linecap="round" pointer-events="all" transform="translate(543, 636)"/><path id="path_8d871b89-7585-4bc5-3d3c-e3b25a58ad9d" d="M6.78,-8.02 Q10.90,-4.53 20.12,3.29 T42.12,22.60 55.98,35.40 57.67,38.29 58.35,41.57 57.95,44.90 56.50,47.93 54.16,50.33 51.18,51.86 47.86,52.36 44.56,51.78 41.62,50.17 39.35,47.70 37.98,44.64 37.66,41.30 38.43,38.04 40.19,35.19 42.78,33.05 45.91,31.85 49.26,31.71 52.47,32.65 55.22,34.57 57.22,37.27 58.25,40.46 58.20,43.81 57.09,46.97 55.03,49.62 52.23,51.46 48.98,52.31 45.64,52.09 42.54,50.81 41.10,49.91 28.41,38.50 6.53,19.30 -4.72,9.76 -7.64,7.09 -9.12,5.05 -10.06,2.72 -10.42,0.24 -10.17,-2.26 -9.34,-4.63 -7.96,-6.73 -6.11,-8.44 -3.92,-9.66 -1.49,-10.32 1.02,-10.37 3.47,-9.83 5.73,-8.71 Z" fill="#FFFFFF" stroke="transparent" stroke-width="0" stroke-linejoin="round" stroke-linecap="round" pointer-events="all" transform="translate(549, 678)"/><path id="path_70269652-4b0a-4f1b-3798-ee823fb4385f" d="M28.60,4.26 Q26.69,8.54 22.37,19.39 T14.01,41.77 9.18,54.81 7.16,57.49 4.39,59.38 1.17,60.30 -2.18,60.13 -5.30,58.90 -7.87,56.74 -9.61,53.88 -10.34,50.61 -10.00,47.27 -8.60,44.22 -6.31,41.78 -3.35,40.20 -0.05,39.64 3.27,40.17 6.23,41.72 8.55,44.15 9.97,47.18 10.35,50.52 9.64,53.79 7.93,56.67 5.38,58.86 2.27,60.11 -1.08,60.31 -4.31,59.42 -7.09,57.55 -9.13,54.89 -10.22,51.72 -10.23,48.37 -9.97,46.69 -5.66,34.45 3.07,11.12 8.45,-2.12 10.05,-5.35 11.60,-7.34 13.57,-8.89 15.85,-9.94 18.32,-10.40 20.83,-10.26 23.23,-9.52 25.39,-8.23 27.18,-6.47 28.49,-4.32 29.24,-1.93 29.41,0.58 28.97,3.06 Z" fill="#FFFFFF" stroke="transparent" stroke-width="0" stroke-linejoin="round" stroke-linecap="round" pointer-events="all" transform="translate(580, 722)"/><path id="path_2b1fd40e-435e-4a2e-041d-983bf6f5d3b3" d="M3.02,-10.06 Q7.77,-8.63 18.20,-4.99 T40.39,3.46 67.19,14.82 83.63,22.30 86.11,24.55 87.75,27.48 88.36,30.78 87.89,34.10 86.38,37.09 84.00,39.45 80.99,40.92 77.66,41.36 74.37,40.71 71.46,39.04 69.24,36.53 67.93,33.44 67.68,30.10 68.51,26.85 70.33,24.04 72.95,21.95 76.11,20.81 79.46,20.74 82.66,21.74 85.37,23.72 87.31,26.45 88.27,29.66 88.16,33.01 86.99,36.15 84.87,38.75 82.04,40.54 78.78,41.33 75.44,41.04 73.80,40.62 59.19,34.24 33.35,23.24 11.93,15.05 -0.64,10.77 -4.18,9.55 -6.34,8.27 -8.14,6.51 -9.46,4.38 -10.23,1.99 -10.41,-0.52 -9.98,-3.00 -8.98,-5.30 -7.45,-7.29 -5.49,-8.86 -3.21,-9.92 -0.74,-10.40 1.77,-10.27 Z" fill="#FFFFFF" stroke="transparent" stroke-width="0" stroke-linejoin="round" stroke-linecap="round" pointer-events="all" transform="translate(588, 775)"/><path id="path_21e85d60-e5c6-45ba-3323-a9d0946ebf53" d="M0.00,-10.50 Q32.00,-10.50 33.68,-10.23 T36.85,-9.15 39.52,-7.13 41.40,-4.35 42.30,-1.12 42.12,2.23 40.88,5.34 38.71,7.90 35.83,9.63 32.56,10.35 29.23,9.98 26.18,8.58 23.75,6.27 22.18,3.31 21.64,-0.00 22.18,-3.31 23.75,-6.27 26.19,-8.58 29.23,-9.98 32.56,-10.35 35.84,-9.62 38.71,-7.90 40.88,-5.34 42.12,-2.22 42.30,1.12 41.40,4.35 39.52,7.13 36.85,9.16 33.67,10.23 32.00,10.50 16.00,10.50 -1.26,10.35 -3.70,9.75 -5.92,8.58 -7.80,6.91 -9.23,4.84 -10.12,2.49 -10.42,-0.00 -10.12,-2.50 -9.23,-4.84 -7.80,-6.91 -5.92,-8.58 -3.70,-9.75 -1.26,-10.35 Z" fill="#FFFFFF" stroke="transparent" stroke-width="0" stroke-linejoin="round" stroke-linecap="round" pointer-events="all" transform="translate(671, 805)"/><path id="path_3e6bc2f7-dec7-4b94-1d26-c51c27539dbd" d="M5.45,-8.98 Q9.89,-6.28 19.90,-0.19 T39.01,11.62 54.00,21.32 61.13,26.48 63.16,29.15 64.23,32.33 64.22,35.68 63.15,38.86 61.12,41.53 58.34,43.41 55.11,44.30 51.76,44.12 48.65,42.87 46.10,40.70 44.37,37.83 43.65,34.55 44.02,31.22 45.43,28.18 47.74,25.75 50.70,24.18 54.01,23.64 57.32,24.18 60.28,25.76 62.58,28.19 63.99,31.24 64.35,34.57 63.62,37.84 61.89,40.72 59.33,42.88 56.22,44.12 52.87,44.30 49.64,43.40 48.10,42.69 42.77,39.05 28.27,29.67 9.05,17.79 -3.23,10.32 -6.44,8.19 -8.22,6.41 -9.51,4.26 -10.26,1.86 -10.40,-0.65 -9.95,-3.12 -8.91,-5.41 -7.36,-7.39 -5.37,-8.93 -3.08,-9.96 -0.61,-10.41 1.90,-10.25 4.30,-9.50 Z" fill="#FFFFFF" stroke="transparent" stroke-width="0" stroke-linejoin="round" stroke-linecap="round" pointer-events="all" transform="translate(704, 806)"/><path id="path_a765d127-6cbb-440d-2665-1f1b170adc37" d="M-0.31,-4.50 Q5.08,-4.65 15.95,-5.21 T39.08,-6.65 73.33,-9.00 97.03,-10.31 100.26,-9.44 103.06,-7.59 105.11,-4.94 106.21,-1.77 106.24,1.58 105.20,4.77 103.19,7.46 100.44,9.36 97.21,10.29 93.86,10.14 90.74,8.93 88.16,6.78 86.41,3.92 85.66,0.65 85.99,-2.68 87.37,-5.74 89.66,-8.19 92.60,-9.79 95.91,-10.36 99.22,-9.85 102.20,-8.30 104.52,-5.89 105.96,-2.86 106.35,0.47 105.66,3.75 103.96,6.64 101.42,8.83 98.32,10.10 96.66,10.48 74.64,11.95 40.62,14.30 17.16,15.75 3.00,16.42 -0.95,16.38 -3.41,15.85 -5.67,14.75 -7.60,13.14 -9.08,11.11 -10.04,8.79 -10.42,6.31 -10.19,3.80 -9.37,1.43 -8.00,-0.68 -6.17,-2.40 -3.98,-3.63 -1.56,-4.31 Z" fill="#FFFFFF" stroke="transparent" stroke-width="0" stroke-linejoin="round" stroke-linecap="round" pointer-events="all" transform="translate(764, 836)"/><path id="path_a4d53d5e-07f6-416f-1e51-176599ae66ed" d="M8.77,-5.77 Q12.73,0.25 18.58,9.43 T31.15,29.41 46.87,54.29 56.53,69.93 57.33,73.18 57.05,76.52 55.72,79.60 53.47,82.09 50.55,83.73 47.26,84.36 43.94,83.90 40.94,82.40 38.57,80.03 37.09,77.02 36.64,73.70 37.28,70.40 38.94,67.49 41.44,65.26 44.52,63.94 47.86,63.67 51.12,64.49 53.94,66.30 56.03,68.92 57.18,72.07 57.26,75.42 56.27,78.63 54.31,81.34 51.58,83.29 48.37,84.27 45.02,84.17 41.88,83.01 39.27,80.90 38.14,79.63 29.15,65.56 13.50,40.80 1.02,20.95 -6.79,8.78 -9.33,4.64 -10.17,2.27 -10.42,-0.23 -10.06,-2.72 -9.12,-5.05 -7.65,-7.08 -5.73,-8.71 -3.48,-9.83 -1.03,-10.37 1.49,-10.32 3.91,-9.66 6.11,-8.44 7.95,-6.74 Z" fill="#FFFFFF" stroke="transparent" stroke-width="0" stroke-linejoin="round" stroke-linecap="round" pointer-events="all" transform="translate(741, 643)"/><path id="path_7c5fd4fb-6267-4454-078c-0d1e26c7edb0" d="M0.27,-10.50 Q6.45,-10.34 19.34,-10.13 T43.80,-9.82 73.21,-9.61 92.74,-9.22 95.91,-8.13 98.56,-6.08 100.43,-3.30 101.31,-0.06 101.11,3.29 99.85,6.39 97.66,8.94 94.78,10.65 91.50,11.35 88.17,10.97 85.13,9.54 82.71,7.22 81.16,4.25 80.64,0.94 81.20,-2.37 82.79,-5.32 85.24,-7.61 88.29,-9.00 91.62,-9.34 94.89,-8.60 97.76,-6.86 99.91,-4.29 101.13,-1.17 101.29,2.18 100.38,5.41 98.48,8.17 95.80,10.18 92.61,11.24 90.94,11.50 73.08,11.39 43.60,11.18 18.94,10.87 2.82,10.58 -1.52,10.31 -3.94,9.65 -6.14,8.42 -7.98,6.71 -9.35,4.61 -10.18,2.23 -10.42,-0.27 -10.05,-2.75 -9.10,-5.08 -7.62,-7.11 -5.70,-8.73 -3.44,-9.84 -0.99,-10.38 Z" fill="#FFFFFF" stroke="transparent" stroke-width="0" stroke-linejoin="round" stroke-linecap="round" pointer-events="all" transform="translate(791, 717)"/><path id="path_bf882581-5000-4159-3daf-c517536a1b55" d="M4.37,-9.55 Q8.18,-7.80 18.24,-2.08 T39.35,10.01 66.24,25.09 83.41,34.86 85.68,37.34 87.03,40.40 87.34,43.74 86.56,47.00 84.78,49.84 82.19,51.97 79.05,53.16 75.70,53.28 72.49,52.33 69.74,50.40 67.76,47.69 66.75,44.50 66.81,41.14 67.93,37.99 70.01,35.35 72.82,33.52 76.06,32.68 79.41,32.92 82.50,34.22 85.01,36.43 86.69,39.34 87.35,42.62 86.93,45.95 85.47,48.97 83.12,51.36 80.13,52.88 76.82,53.36 73.52,52.76 71.92,52.19 58.41,44.77 34.04,31.15 11.30,18.12 -2.47,10.42 -5.45,8.88 -7.42,7.32 -8.96,5.33 -9.97,3.03 -10.41,0.56 -10.24,-1.95 -9.48,-4.34 -8.16,-6.48 -6.37,-8.25 -4.21,-9.53 -1.81,-10.27 0.70,-10.40 3.17,-9.93 Z" fill="#FFFFFF" stroke="transparent" stroke-width="0" stroke-linejoin="round" stroke-linecap="round" pointer-events="all" transform="translate(884, 718)"/><path id="path_93f3700b-6310-412e-1761-668791b31990" d="M0.00,-10.50 Q3.96,-10.50 14.75,-10.35 T36.05,-9.23 58.05,-6.23 79.90,-1.86 98.61,2.08 108.57,4.27 111.49,5.92 113.73,8.42 115.06,11.50 115.33,14.84 114.52,18.10 112.71,20.92 110.10,23.02 106.95,24.18 103.60,24.27 100.39,23.28 97.67,21.33 95.72,18.60 94.73,15.40 94.82,12.05 95.98,8.90 98.08,6.29 100.91,4.48 104.16,3.67 107.50,3.95 110.58,5.27 113.08,7.51 114.73,10.43 115.36,13.72 114.90,17.04 113.41,20.05 111.04,22.42 108.04,23.91 104.72,24.36 103.02,24.31 87.75,21.16 60.53,15.50 37.72,11.94 15.41,10.70 1.98,10.50 -1.26,10.35 -3.70,9.75 -5.92,8.58 -7.80,6.91 -9.23,4.84 -10.12,2.49 -10.42,-0.00 -10.12,-2.50 -9.23,-4.84 -7.80,-6.91 -5.92,-8.58 -3.70,-9.75 -1.26,-10.35 Z" fill="#FFFFFF" stroke="transparent" stroke-width="0" stroke-linejoin="round" stroke-linecap="round" pointer-events="all" transform="translate(867, 840)"/><path id="path_2f1be818-b19d-4c5e-3ce7-eb84eef54da8" d="M-8.40,31.70 Q-6.02,28.53 -0.58,19.53 T10.63,2.26 17.58,-7.23 20.27,-9.22 23.46,-10.25 26.82,-10.20 29.98,-9.09 32.62,-7.02 34.46,-4.22 35.32,-0.98 35.09,2.37 33.80,5.46 31.60,7.99 28.70,9.68 25.42,10.35 22.09,9.94 19.07,8.49 16.66,6.16 15.14,3.17 14.64,-0.14 15.23,-3.44 16.84,-6.39 19.31,-8.66 22.37,-10.02 25.71,-10.34 28.97,-9.57 31.82,-7.80 33.95,-5.22 35.15,-2.09 35.28,1.26 34.34,4.48 33.61,6.01 27.74,14.58 16.33,32.14 9.59,42.71 7.52,45.21 5.58,46.80 3.31,47.88 0.85,48.39 -1.66,48.29 -4.08,47.59 -6.25,46.34 -8.07,44.60 -9.41,42.48 -10.21,40.09 -10.42,37.59 -10.01,35.11 -9.03,32.80 Z" fill="#FFFFFF" stroke="transparent" stroke-width="0" stroke-linejoin="round" stroke-linecap="round" pointer-events="all" transform="translate(972, 816)"/><path id="path_db2b0fd7-f80c-4842-06e8-0fe683396a4b" d="M16.17,54.69 Q14.74,50.88 9.94,40.87 T0.76,21.38 -5.87,9.28 -8.97,5.18 -10.16,2.04 -10.28,-1.31 -9.32,-4.52 -7.39,-7.26 -4.69,-9.24 -1.49,-10.25 1.86,-10.19 5.02,-9.07 7.65,-6.99 9.48,-4.18 10.32,-0.93 10.08,2.41 8.78,5.50 6.56,8.02 3.66,9.69 0.37,10.35 -2.95,9.93 -5.97,8.47 -8.36,6.12 -9.88,3.13 -10.36,-0.19 -9.76,-3.49 -8.13,-6.42 -5.66,-8.68 -2.59,-10.03 0.75,-10.33 4.01,-9.55 6.85,-7.77 8.12,-6.65 11.99,-1.31 20.46,13.89 29.73,33.63 35.12,45.41 36.13,48.54 36.42,51.04 36.11,53.53 35.21,55.88 33.78,57.94 31.89,59.60 29.66,60.76 27.22,61.35 24.70,61.34 22.27,60.73 20.05,59.56 18.17,57.88 16.75,55.81 Z" fill="#FFFFFF" stroke="transparent" stroke-width="0" stroke-linejoin="round" stroke-linecap="round" pointer-events="all" transform="translate(971, 765)"/></svg>