<svg xmlns="http://www.w3.org/2000/svg" viewBox="957 235 231 261" width="50" height="50"><path id="path_447a0f90-4185-448e-1679-2881b06187c9" d="M-9.00,51.67 Q-5.98,47.39 1.69,36.79 T17.95,17.29 36.22,1.79 57.54,-7.51 79.45,-5.35 97.38,8.20 108.35,27.82 111.21,51.13 106.73,73.88 94.04,95.16 84.06,107.25 81.05,109.07 77.62,109.84 74.13,109.47 70.94,108.00 68.38,105.60 66.72,102.50 66.14,99.04 66.70,95.57 68.34,92.46 70.88,90.04 74.06,88.55 77.55,88.16 80.99,88.90 84.00,90.70 86.28,93.37 87.59,96.63 87.80,100.14 86.87,103.53 84.90,106.44 82.11,108.57 78.79,109.71 75.28,109.72 71.95,108.61 69.14,106.49 67.16,103.59 66.21,100.21 66.39,96.70 67.68,93.43 68.59,91.91 71.91,87.94 81.19,74.62 88.54,54.24 85.45,32.59 70.25,17.70 50.23,19.24 32.75,33.58 18.29,51.09 10.50,62.19 8.11,65.31 6.12,67.04 3.78,68.24 1.22,68.85 -1.41,68.83 -3.96,68.17 -6.28,66.93 -8.24,65.17 -9.71,62.99 -10.63,60.52 -10.92,57.90 -10.58,55.29 -9.62,52.84 Z" fill="#FFFFFF" stroke="transparent" stroke-width="0" stroke-linejoin="round" stroke-linecap="round" pointer-events="all" transform="translate(1046, 275)"/><path id="path_91acb7fa-8b5b-41ba-2a7c-07d991dd87e2" d="M41.54,6.94 Q39.48,9.47 32.98,18.25 T20.51,36.88 12.87,58.09 19.44,77.07 38.76,84.36 60.09,78.81 78.15,65.95 90.99,50.86 97.00,41.93 99.41,39.37 102.51,37.72 105.98,37.14 109.45,37.71 112.55,39.35 114.97,41.89 116.45,45.07 116.84,48.57 116.09,52.00 114.29,55.01 111.61,57.29 108.35,58.60 104.85,58.79 101.46,57.86 98.55,55.90 96.42,53.10 95.29,49.78 95.28,46.26 96.40,42.93 98.52,40.13 101.42,38.16 104.81,37.21 108.31,37.39 111.58,38.69 114.26,40.96 116.08,43.96 116.84,47.39 116.46,50.89 115.99,52.60 114.05,56.49 105.19,68.92 89.86,84.99 71.81,97.96 50.85,105.19 28.19,106.35 6.45,101.20 -7.42,86.32 -10.56,65.05 -6.63,43.46 2.92,23.25 15.64,4.66 23.43,-5.67 25.42,-7.86 27.52,-9.44 29.94,-10.48 32.53,-10.91 35.16,-10.70 37.66,-9.88 39.89,-8.47 41.71,-6.58 43.04,-4.30 43.77,-1.78 43.89,0.85 43.37,3.43 42.24,5.82 Z" fill="#FFFFFF" stroke="transparent" stroke-width="0" stroke-linejoin="round" stroke-linecap="round" pointer-events="all" transform="translate(997, 360)"/><path id="path_4f2f6553-8fa2-4c5f-0dfa-050d3d126db6" d="M-9.39,47.26 Q-7.64,44.41 -1.24,34.84 T11.55,15.16 21.77,-0.34 26.77,-7.08 29.46,-9.34 32.73,-10.62 36.24,-10.78 39.62,-9.82 42.51,-7.83 44.62,-5.02 45.72,-1.69 45.70,1.82 44.56,5.15 42.41,7.93 39.50,9.88 36.10,10.80 32.60,10.59 29.34,9.27 26.68,6.97 24.89,3.95 24.16,0.52 24.56,-2.97 26.05,-6.15 28.49,-8.68 31.60,-10.31 35.07,-10.85 38.53,-10.26 41.63,-8.60 44.02,-6.03 45.48,-2.84 45.84,0.66 45.06,4.08 44.39,5.73 40.28,11.45 30.25,26.90 17.72,46.26 10.26,57.31 8.56,59.78 6.69,61.63 4.43,62.98 1.92,63.75 -0.71,63.90 -3.30,63.41 -5.69,62.32 -7.76,60.68 -9.37,58.60 -10.44,56.20 -10.90,53.61 -10.73,50.98 -9.94,48.47 Z" fill="#FFFFFF" stroke="transparent" stroke-width="0" stroke-linejoin="round" stroke-linecap="round" pointer-events="all" transform="translate(1052, 345)"/></svg>