<svg xmlns="http://www.w3.org/2000/svg" viewBox="711 203 411 291" width="26" height="26"><path id="path_bad84648-a3b8-4d90-0ec3-c1f21dcd4680" d="M171.57,7.27 Q167.77,11.23 159.55,20.26 T143.73,38.39 127.79,57.28 111.77,76.17 96.65,94.77 81.72,113.56 67.01,131.75 52.39,150.46 38.70,169.54 26.49,187.58 14.62,205.14 7.51,215.14 4.83,217.17 1.65,218.23 -1.70,218.22 -4.88,217.14 -7.54,215.11 -9.41,212.33 -10.30,209.09 -10.11,205.75 -8.86,202.64 -6.69,200.09 -3.81,198.36 -0.53,197.65 2.80,198.02 5.84,199.44 8.27,201.75 9.83,204.72 10.36,208.03 9.81,211.33 8.23,214.29 5.79,216.59 2.75,217.99 -0.59,218.34 -3.86,217.62 -6.73,215.88 -8.89,213.32 -10.13,210.20 -10.30,206.85 -9.39,203.62 -8.68,202.09 -2.94,193.64 8.78,176.29 21.32,157.76 35.66,137.78 50.70,118.52 65.08,100.76 80.06,81.90 95.64,62.73 111.73,43.75 127.80,24.71 144.08,6.07 154.52,-5.29 157.41,-8.07 159.53,-9.42 161.91,-10.21 164.42,-10.42 166.90,-10.01 169.21,-9.03 171.22,-7.52 172.81,-5.57 173.89,-3.30 174.39,-0.84 174.29,1.67 173.59,4.08 172.33,6.26 Z" fill="#FFFFFF" stroke="transparent" stroke-width="0" stroke-linejoin="round" stroke-linecap="round" pointer-events="all" transform="translate(751, 243)"/><path id="path_3ba98db0-b46e-4e9c-21dc-4bd3221309c1" d="M0.00,-10.50 Q4.12,-10.50 16.33,-10.50 T39.30,-10.50 62.52,-10.42 86.46,-9.86 109.12,-8.85 132.04,-8.03 155.31,-7.65 178.33,-7.54 201.04,-7.51 223.83,-7.50 246.42,-7.50 268.55,-7.50 290.34,-7.50 312.81,-8.00 326.33,-8.28 329.54,-7.32 332.27,-5.38 334.25,-2.67 335.26,0.53 335.19,3.88 334.06,7.04 331.97,9.66 329.16,11.49 325.91,12.32 322.57,12.07 319.48,10.77 316.97,8.55 315.30,5.64 314.64,2.35 315.07,-0.97 316.54,-3.99 318.90,-6.37 321.89,-7.88 325.21,-8.36 328.51,-7.75 331.44,-6.12 333.69,-3.64 335.04,-0.57 335.33,2.77 334.55,6.03 332.76,8.87 330.16,10.98 327.02,12.16 325.36,12.49 312.02,13.00 288.03,13.50 266.01,13.50 243.20,13.50 219.84,13.49 197.17,13.49 174.95,13.45 152.02,13.32 129.97,12.94 108.25,12.13 85.61,11.12 62.09,10.57 39.30,10.50 16.33,10.50 2.06,10.50 -1.26,10.35 -3.70,9.75 -5.92,8.58 -7.80,6.91 -9.23,4.84 -10.12,2.49 -10.42,-0.00 -10.12,-2.50 -9.23,-4.84 -7.80,-6.91 -5.92,-8.58 -3.70,-9.75 -1.26,-10.35 Z" fill="#FFFFFF" stroke="transparent" stroke-width="0" stroke-linejoin="round" stroke-linecap="round" pointer-events="all" transform="translate(751, 451)"/><path id="path_e765973b-0cdb-421a-05e3-1e7ce6063227" d="M7.65,-7.20 Q10.18,-4.50 17.61,4.28 T31.70,21.81 45.30,39.27 59.84,56.04 74.91,71.78 90.35,87.77 105.88,104.47 119.74,121.30 132.22,138.47 144.46,156.12 156.57,174.15 168.89,193.57 175.75,205.49 176.36,208.78 175.89,212.10 174.38,215.10 171.99,217.45 168.98,218.92 165.66,219.36 162.37,218.70 159.46,217.04 157.23,214.53 155.93,211.44 155.68,208.09 156.51,204.85 158.33,202.03 160.96,199.95 164.11,198.81 167.46,198.74 170.66,199.75 173.37,201.72 175.31,204.46 176.28,207.67 176.16,211.02 174.99,214.16 172.87,216.76 170.03,218.54 166.77,219.33 163.43,219.04 160.36,217.69 157.88,215.44 156.83,214.11 151.45,205.51 139.93,187.48 127.70,168.97 115.13,150.69 102.08,132.97 88.37,116.36 73.49,100.40 57.96,84.46 43.00,68.75 29.38,52.95 16.16,35.93 2.14,18.48 -6.38,8.54 -8.40,6.18 -9.63,3.99 -10.30,1.57 -10.38,-0.94 -9.85,-3.40 -8.75,-5.66 -7.14,-7.59 -5.12,-9.08 -2.80,-10.04 -0.31,-10.42 2.19,-10.19 4.56,-9.37 6.67,-8.01 Z" fill="#FFFFFF" stroke="transparent" stroke-width="0" stroke-linejoin="round" stroke-linecap="round" pointer-events="all" transform="translate(916, 243)"/></svg>