<svg xmlns="http://www.w3.org/2000/svg" viewBox="512 52 517 612" width="100" height="120"><path id="path_c5978b4b-f9e6-42f0-0acb-1536033f7d1c" d="M157.04,358.45 Q153.87,358.76 143.08,359.45 T122.28,356.56 103.29,346.27 85.78,331.43 70.10,313.49 58.05,292.39 48.78,270.04 40.74,248.95 33.32,229.06 24.93,208.07 15.81,186.28 7.19,164.55 0.23,143.26 -4.69,122.34 -7.89,101.10 -8.45,79.66 -5.38,57.62 3.19,37.01 18.33,21.18 37.47,10.89 58.36,3.97 80.80,-1.53 102.69,-6.14 124.46,-7.55 144.55,0.45 158.56,16.78 168.44,36.84 176.56,58.72 183.42,81.03 190.24,103.67 197.37,126.18 204.28,148.10 211.30,170.14 217.93,192.68 223.71,214.01 229.23,235.40 234.71,257.98 240.06,279.71 242.99,300.57 235.24,318.97 217.57,330.82 204.53,335.59 199.38,336.35 196.05,335.93 193.04,334.47 190.64,332.13 189.12,329.14 188.64,325.82 189.24,322.52 190.86,319.59 193.34,317.32 196.40,315.97 199.74,315.66 203.00,316.44 205.85,318.22 207.97,320.81 209.16,323.95 209.28,327.30 208.33,330.52 206.40,333.26 203.69,335.24 200.50,336.25 197.14,336.19 193.99,335.07 191.35,332.99 189.52,330.18 188.68,326.94 188.92,323.59 190.22,320.50 192.43,317.99 195.34,316.31 196.92,315.71 208.58,311.29 220.14,296.34 217.23,274.04 211.60,251.10 205.85,228.90 200.01,206.61 193.97,184.99 187.64,164.64 180.38,142.16 172.64,117.84 165.49,94.12 158.86,72.07 151.42,50.82 141.26,29.34 124.73,15.92 103.67,15.08 81.56,19.85 58.39,25.90 36.32,34.96 20.19,50.88 13.26,71.65 12.65,93.18 15.58,116.01 20.93,138.97 28.24,160.85 36.60,181.63 44.96,201.56 52.92,221.54 60.47,241.76 68.38,262.50 77.86,284.97 90.21,305.37 105.13,320.83 121.82,333.37 141.22,338.47 153.37,337.71 156.22,337.58 158.71,337.93 161.04,338.88 163.08,340.35 164.70,342.26 165.82,344.51 166.37,346.96 166.32,349.48 165.67,351.90 164.45,354.10 162.74,355.95 160.65,357.33 158.28,358.17 Z" fill="#FFFFFF" stroke="transparent" stroke-width="0" stroke-linejoin="round" stroke-linecap="round" pointer-events="all" transform="translate(663, 182)"/><path id="path_72655a31-4a26-41c3-3d57-96645a4beb55" d="M10.36,-1.73 Q10.99,2.08 13.40,12.24 T20.18,32.52 25.00,44.30 25.34,47.63 24.60,50.90 22.85,53.76 20.28,55.91 17.16,57.13 13.81,57.29 10.59,56.37 7.82,54.47 5.81,51.79 4.76,48.61 4.79,45.25 5.88,42.08 7.93,39.43 10.71,37.57 13.95,36.69 17.30,36.90 20.40,38.16 22.94,40.35 24.65,43.23 25.35,46.51 24.96,49.84 23.54,52.87 21.21,55.29 18.24,56.84 14.93,57.36 11.62,56.80 8.67,55.20 6.38,52.75 5.44,51.34 0.51,39.71 -7.07,16.80 -10.04,3.63 -10.41,0.46 -10.22,-2.04 -9.43,-4.43 -8.10,-6.56 -6.30,-8.31 -4.12,-9.57 -1.71,-10.28 0.80,-10.39 3.26,-9.90 5.54,-8.83 7.49,-7.25 9.01,-5.25 10.00,-2.94 Z" fill="#FFFFFF" stroke="transparent" stroke-width="0" stroke-linejoin="round" stroke-linecap="round" pointer-events="all" transform="translate(823, 530)"/><path id="path_34384db7-95ae-4faf-2b58-b1f8a16787ed" d="M9.47,-4.53 Q11.22,-0.88 16.21,9.32 T25.24,29.34 33.45,49.49 38.05,61.49 38.33,64.83 37.52,68.08 35.72,70.91 33.11,73.01 29.97,74.17 26.61,74.27 23.41,73.29 20.68,71.34 18.72,68.62 17.74,65.41 17.82,62.06 18.97,58.91 21.07,56.30 23.89,54.49 27.15,53.67 30.49,53.94 33.57,55.26 36.07,57.50 37.72,60.42 38.36,63.71 37.91,67.03 36.42,70.04 34.05,72.41 31.05,73.90 27.73,74.36 24.44,73.73 21.52,72.08 19.28,69.59 18.36,68.16 14.63,58.85 6.47,38.85 -2.84,18.16 -8.60,6.35 -9.88,3.33 -10.39,0.87 -10.29,-1.64 -9.60,-4.06 -8.35,-6.24 -6.62,-8.05 -4.50,-9.40 -2.12,-10.21 0.39,-10.42 2.87,-10.02 5.18,-9.04 7.20,-7.54 8.79,-5.60 Z" fill="#FFFFFF" stroke="transparent" stroke-width="0" stroke-linejoin="round" stroke-linecap="round" pointer-events="all" transform="translate(859, 511)"/><path id="path_78a18973-4006-4d3b-0983-fb3e26118e2e" d="M83.93,224.98 Q82.66,220.70 79.93,209.88 T74.79,188.23 69.67,165.93 63.49,143.26 56.09,120.66 47.86,98.60 37.33,76.03 24.78,55.30 25.52,54.25 44.55,59.80 64.70,50.50 75.91,33.33 80.02,35.18 84.09,58.73 90.50,80.52 97.93,100.67 106.56,121.46 116.02,143.11 125.81,164.73 134.87,185.10 141.37,200.96 144.14,208.88 144.29,212.23 143.36,215.45 141.45,218.20 138.76,220.20 135.57,221.24 132.22,221.21 129.05,220.10 126.40,218.05 124.55,215.25 123.69,212.01 123.90,208.67 125.18,205.57 127.37,203.03 130.26,201.34 133.55,200.65 136.88,201.05 139.90,202.48 142.31,204.82 143.85,207.79 144.36,211.11 143.78,214.41 142.18,217.36 139.72,219.64 136.67,221.01 133.33,221.34 130.06,220.59 127.21,218.83 125.07,216.25 124.21,214.79 118.36,200.57 107.63,175.84 98.19,154.88 89.15,134.11 80.47,113.58 72.29,92.14 65.08,68.75 59.65,45.92 58.21,23.58 64.78,2.78 81.07,-5.10 96.19,6.33 99.28,27.16 92.47,48.53 78.48,66.78 58.04,78.59 34.09,81.82 12.98,74.81 -1.01,58.31 -4.83,36.41 7.20,21.64 26.44,25.86 41.98,43.31 54.60,63.33 64.41,83.72 72.99,105.99 81.58,131.11 88.81,156.21 94.44,179.85 99.92,203.08 103.43,216.88 104.28,220.27 104.39,222.78 103.91,225.24 102.84,227.52 101.27,229.47 99.27,231.00 96.96,231.99 94.48,232.41 91.98,232.23 89.59,231.44 87.46,230.11 85.70,228.31 84.44,226.14 Z" fill="#FFFFFF" stroke="transparent" stroke-width="0" stroke-linejoin="round" stroke-linecap="round" pointer-events="all" transform="translate(730, 311)"/><path id="path_a6db80c5-cbb4-4cfc-1f05-24a5c6697567" d="M9.28,-4.91 Q18.28,12.09 18.82,13.70 T19.36,17.01 18.82,20.31 17.24,23.28 14.81,25.58 11.77,26.99 8.43,27.35 5.16,26.62 2.29,24.89 0.12,22.34 -1.12,19.22 -1.30,15.87 -0.40,12.64 1.48,9.87 4.15,7.84 7.33,6.77 10.68,6.78 13.86,7.85 16.53,9.88 18.41,12.66 19.30,15.89 19.12,19.24 17.87,22.35 15.70,24.90 12.83,26.63 9.55,27.35 6.22,26.98 3.18,25.57 0.75,23.26 -0.28,21.91 -4.78,13.41 -9.73,3.73 -10.34,1.29 -10.35,-1.22 -9.76,-3.66 -8.60,-5.89 -6.94,-7.78 -4.88,-9.21 -2.53,-10.11 -0.04,-10.42 2.46,-10.13 4.81,-9.25 6.88,-7.83 8.56,-5.95 Z" fill="#FFFFFF" stroke="transparent" stroke-width="0" stroke-linejoin="round" stroke-linecap="round" pointer-events="all" transform="translate(837, 576)"/><path id="path_7386caf1-0337-4d5b-1900-399be12205a9" d="M6.78,9.98 Q8.84,11.73 19.52,11.11 T30.13,6.93 29.78,1.71 29.77,-1.64 30.83,-4.82 32.85,-7.50 35.62,-9.39 38.85,-10.30 42.20,-10.13 45.31,-8.89 47.88,-6.73 49.61,-3.86 50.34,-0.59 49.99,2.74 48.59,5.79 46.30,8.23 43.34,9.81 40.03,10.36 36.72,9.83 33.75,8.27 31.44,5.84 30.02,2.80 29.65,-0.53 30.36,-3.81 32.08,-6.68 34.63,-8.86 37.74,-10.11 41.09,-10.30 44.32,-9.42 47.10,-7.54 49.14,-4.88 49.94,-3.38 49.70,7.74 42.65,27.32 25.36,36.65 5.08,32.65 -5.75,26.89 -7.64,25.09 -9.12,23.05 -10.06,20.72 -10.42,18.24 -10.17,15.74 -9.34,13.37 -7.96,11.27 -6.11,9.56 -3.92,8.34 -1.49,7.68 1.02,7.63 3.47,8.17 5.73,9.29 Z" fill="#FFFFFF" stroke="transparent" stroke-width="0" stroke-linejoin="round" stroke-linecap="round" pointer-events="all" transform="translate(847, 575)"/><path id="path_f4fdcf85-a11b-4655-1133-6ef812c806af" d="M9.85,8.37 Q10.96,11.38 17.97,8.38 T24.36,3.80 23.65,0.53 24.03,-2.80 25.44,-5.84 27.76,-8.27 30.72,-9.83 34.03,-10.36 37.34,-9.81 40.30,-8.23 42.60,-5.79 43.99,-2.74 44.34,0.60 43.61,3.87 41.87,6.73 39.31,8.90 36.19,10.13 32.84,10.30 29.62,9.39 26.85,7.50 24.83,4.82 23.77,1.64 23.78,-1.71 24.86,-4.89 26.90,-7.55 29.68,-9.42 32.92,-10.30 36.26,-10.11 39.37,-8.86 41.92,-6.68 43.02,-5.38 45.91,1.71 46.25,18.89 33.98,34.14 13.99,37.58 -2.52,27.24 -9.30,17.14 -10.14,14.40 -10.42,11.90 -10.10,9.41 -9.18,7.07 -7.74,5.01 -5.84,3.37 -3.60,2.22 -1.16,1.64 1.36,1.67 3.79,2.29 6.00,3.48 7.87,5.16 9.28,7.24 Z" fill="#FFFFFF" stroke="transparent" stroke-width="0" stroke-linejoin="round" stroke-linecap="round" pointer-events="all" transform="translate(853, 592)"/><path id="path_b16e76ae-390a-405e-0573-6c9e0e9ae09e" d="M54.67,39.57 Q48.02,36.56 38.35,31.75 T11.89,18.12 -6.26,8.26 -8.57,5.83 -9.98,2.78 -10.35,-0.55 -9.63,-3.82 -7.91,-6.70 -5.35,-8.87 -2.24,-10.12 1.11,-10.30 4.34,-9.41 7.12,-7.53 9.15,-4.86 10.22,-1.69 10.23,1.67 9.16,4.84 7.13,7.51 4.36,9.40 1.13,10.30 -2.22,10.12 -5.33,8.88 -7.89,6.72 -9.62,3.85 -10.35,0.57 -9.99,-2.76 -8.58,-5.81 -6.28,-8.24 -3.32,-9.82 -0.01,-10.36 3.30,-9.82 4.91,-9.28 19.01,-1.83 44.89,11.52 60.00,18.93 64.41,21.09 66.38,22.64 67.93,24.62 68.96,26.92 69.41,29.39 69.25,31.90 68.50,34.30 67.19,36.44 65.41,38.22 63.26,39.51 60.86,40.26 58.35,40.40 55.88,39.95 Z" fill="#FFFFFF" stroke="transparent" stroke-width="0" stroke-linejoin="round" stroke-linecap="round" pointer-events="all" transform="translate(556, 214)"/><path id="path_826d29b4-0ef3-441e-36e6-e312c4382ab5" d="M4.75,69.28 Q3.17,62.15 0.78,51.39 T-5.93,21.46 -10.35,0.58 -9.99,-2.76 -8.59,-5.80 -6.28,-8.24 -3.32,-9.81 -0.02,-10.36 3.29,-9.82 6.26,-8.26 8.57,-5.83 9.98,-2.79 10.35,0.54 9.63,3.82 7.91,6.70 5.36,8.87 2.24,10.12 -1.10,10.30 -4.34,9.41 -7.11,7.53 -9.15,4.87 -10.22,1.69 -10.23,-1.66 -9.16,-4.84 -7.14,-7.51 -4.36,-9.40 -1.14,-10.30 2.21,-10.12 5.33,-8.89 7.89,-6.72 9.62,-3.85 10.25,-2.27 14.52,16.69 21.23,46.62 24.46,61.16 25.37,65.98 25.32,68.49 24.66,70.92 23.44,73.12 21.73,74.96 19.63,76.34 17.26,77.18 14.76,77.42 12.27,77.06 9.94,76.12 7.91,74.64 6.29,72.72 5.17,70.47 Z" fill="#FFFFFF" stroke="transparent" stroke-width="0" stroke-linejoin="round" stroke-linecap="round" pointer-events="all" transform="translate(693, 92)"/><path id="path_de2cf901-08a6-4bbf-24d9-dec30f55f5c4" d="M-8.64,49.03 Q-4.04,42.38 2.48,33.27 T19.15,9.14 30.47,-7.11 33.13,-9.15 36.31,-10.22 39.66,-10.23 42.84,-9.16 45.51,-7.14 47.40,-4.36 48.30,-1.13 48.12,2.21 46.89,5.33 44.72,7.89 41.85,9.62 38.57,10.35 35.24,9.99 32.20,8.58 29.76,6.28 28.18,3.32 27.64,0.01 28.18,-3.30 29.74,-6.26 32.17,-8.57 35.22,-9.98 38.55,-10.35 41.82,-9.63 44.70,-7.91 46.87,-5.35 48.12,-2.24 48.30,1.11 47.41,4.34 46.70,5.88 36.36,21.17 19.63,45.39 10.94,57.64 7.80,61.91 5.92,63.58 3.69,64.75 1.25,65.35 -1.26,65.35 -3.70,64.75 -5.92,63.58 -7.80,61.91 -9.23,59.84 -10.12,57.49 -10.42,55.00 -10.12,52.50 -9.23,50.15 Z" fill="#FFFFFF" stroke="transparent" stroke-width="0" stroke-linejoin="round" stroke-linecap="round" pointer-events="all" transform="translate(852, 121)"/><path id="path_b8926359-deac-45c8-1c7c-eb86d2e7d831" d="M-4.19,15.37 Q3.10,12.20 28.47,1.28 T55.48,-10.05 58.82,-10.33 62.08,-9.53 64.91,-7.73 67.01,-5.12 68.17,-1.97 68.27,1.38 67.29,4.59 65.34,7.31 62.62,9.27 59.42,10.26 56.07,10.18 52.92,9.03 50.30,6.93 48.49,4.11 47.67,0.86 47.94,-2.48 49.26,-5.57 51.49,-8.07 54.41,-9.72 57.70,-10.36 61.02,-9.91 64.03,-8.43 66.41,-6.06 67.90,-3.06 68.36,0.26 67.73,3.56 66.09,6.48 63.59,8.72 62.17,9.64 36.82,20.55 7.83,33.04 2.97,34.99 0.50,35.41 -2.01,35.23 -4.40,34.45 -6.53,33.12 -8.29,31.32 -9.56,29.16 -10.28,26.75 -10.40,24.24 -9.91,21.77 -8.85,19.49 -7.28,17.54 -5.28,16.01 Z" fill="#FFFFFF" stroke="transparent" stroke-width="0" stroke-linejoin="round" stroke-linecap="round" pointer-events="all" transform="translate(892, 274)"/><path id="path_648e97c5-5df7-4330-121c-5df823ff1f91" d="M97.82,12.11 Q88.15,14.81 77.64,18.16 T35.14,31.77 1.48,42.26 -1.87,42.19 -5.03,41.06 -7.66,38.98 -9.49,36.17 -10.32,32.92 -10.07,29.58 -8.77,26.49 -6.55,23.97 -3.65,22.30 -0.36,21.64 2.97,22.07 5.98,23.54 8.37,25.89 9.88,28.88 10.36,32.20 9.75,35.50 8.12,38.43 5.65,40.69 2.58,42.04 -0.76,42.33 -4.02,41.55 -6.86,39.76 -8.98,37.17 -10.16,34.03 -10.28,30.68 -9.32,27.46 -7.38,24.73 -4.67,22.75 -3.16,21.99 28.69,11.78 71.52,-1.92 87.35,-6.77 93.43,-8.30 95.94,-8.38 98.40,-7.85 100.66,-6.75 102.59,-5.14 104.08,-3.12 105.04,-0.80 105.42,1.69 105.19,4.19 104.37,6.56 103.01,8.67 101.18,10.40 98.99,11.63 Z" fill="#FFFFFF" stroke="transparent" stroke-width="0" stroke-linejoin="round" stroke-linecap="round" pointer-events="all" transform="translate(552, 376)"/><path id="path_713d06f1-54f0-45cd-0c77-db079be46dbf" d="M50.10,5.24 Q47.09,10.47 41.61,19.78 T29.85,38.91 16.05,59.42 7.33,71.32 4.61,73.28 1.41,74.27 -1.94,74.18 -5.09,73.02 -7.71,70.93 -9.52,68.10 -10.33,64.85 -10.06,61.51 -8.73,58.43 -6.50,55.93 -3.58,54.28 -0.29,53.64 3.03,54.09 6.04,55.58 8.41,57.95 9.90,60.95 10.36,64.27 9.73,67.57 8.08,70.49 5.59,72.73 2.51,74.05 -0.84,74.33 -4.09,73.52 -6.92,71.72 -9.02,69.10 -10.17,65.96 -10.27,62.61 -9.29,59.40 -8.53,57.88 -1.11,47.33 12.28,27.43 23.57,9.03 30.39,-2.62 32.66,-6.25 34.40,-8.07 36.52,-9.41 38.90,-10.21 41.41,-10.42 43.89,-10.02 46.20,-9.03 48.21,-7.53 49.80,-5.58 50.88,-3.31 51.39,-0.85 51.29,1.66 50.59,4.08 Z" fill="#FFFFFF" stroke="transparent" stroke-width="0" stroke-linejoin="round" stroke-linecap="round" pointer-events="all" transform="translate(665, 499)"/><path id="path_6ee8f30f-eedc-45c4-12ce-4d93c36cd734" d="M2.24,-10.26 Q7.32,-9.15 17.78,-6.03 T38.20,0.58 59.80,8.08 72.96,12.90 75.60,14.96 77.45,17.75 78.31,21.00 78.09,24.34 76.82,27.44 74.62,29.97 71.73,31.67 68.44,32.35 65.12,31.95 62.09,30.51 59.68,28.18 58.14,25.20 57.64,21.88 58.22,18.58 59.82,15.64 62.28,13.36 65.34,11.99 68.68,11.66 71.94,12.42 74.80,14.18 76.94,16.76 78.14,19.89 78.29,23.24 77.35,26.46 75.44,29.21 72.75,31.21 69.56,32.24 66.21,32.21 64.53,31.91 56.08,28.95 36.78,22.22 14.39,14.90 0.29,10.81 -3.44,9.84 -5.69,8.73 -7.62,7.11 -9.10,5.08 -10.05,2.76 -10.42,0.27 -10.18,-2.23 -9.35,-4.60 -7.98,-6.70 -6.14,-8.42 -3.95,-9.65 -1.53,-10.31 0.98,-10.38 Z" fill="#FFFFFF" stroke="transparent" stroke-width="0" stroke-linejoin="round" stroke-linecap="round" pointer-events="all" transform="translate(921, 432)"/></svg>