<svg xmlns="http://www.w3.org/2000/svg" viewBox="692 103 481 581" width="100" height="120"><path id="path_b8b6a0cd-3194-427e-1556-f3ee5fc5db78" d="M47.00,297.50 Q43.99,297.50 32.97,296.78 T12.48,291.09 -0.10,275.55 -4.69,254.67 -7.80,232.82 -9.83,209.52 -10.33,185.50 -10.45,162.05 -10.48,139.94 -10.50,118.34 -10.50,96.59 -10.12,75.01 -7.18,53.25 1.18,32.26 16.01,15.83 36.03,4.35 57.77,-3.30 79.31,-7.45 101.54,-8.86 124.42,-7.54 143.75,1.01 157.98,18.04 169.35,39.17 177.52,60.65 182.27,82.02 184.34,103.54 184.89,126.58 184.83,150.66 184.34,174.22 182.65,197.15 179.28,218.88 173.84,240.35 165.74,260.53 154.14,278.80 138.57,293.22 119.05,299.85 103.83,300.03 97.86,298.88 94.87,297.36 92.53,294.96 91.07,291.94 90.65,288.62 91.31,285.33 92.99,282.43 95.51,280.22 98.60,278.92 101.94,278.68 105.19,279.52 107.99,281.36 110.07,283.99 111.19,287.15 111.25,290.50 110.24,293.70 108.25,296.40 105.51,298.33 102.30,299.28 98.95,299.16 95.81,297.97 93.22,295.84 91.44,293.00 90.66,289.74 90.97,286.40 92.33,283.33 94.59,280.86 97.52,279.24 100.82,278.64 102.52,278.61 106.56,279.20 120.98,276.74 138.08,264.87 149.33,245.94 156.55,224.61 160.80,202.31 163.00,180.84 163.74,159.36 163.96,137.41 163.74,114.66 162.42,92.34 158.75,71.80 151.42,50.62 141.06,30.42 125.00,16.70 103.26,12.14 80.58,13.66 58.05,18.53 36.42,27.97 19.91,43.86 12.27,64.44 10.64,86.89 10.50,109.09 10.51,131.07 10.54,153.74 10.59,175.34 10.83,197.19 11.91,219.87 14.77,242.33 19.84,264.11 33.46,275.59 45.49,276.50 48.26,276.65 50.70,277.25 52.92,278.42 54.80,280.09 56.23,282.16 57.12,284.51 57.42,287.00 57.12,289.50 56.23,291.84 54.80,293.91 52.92,295.58 50.70,296.75 48.26,297.35 Z" fill="#FFFFFF" stroke="transparent" stroke-width="0" stroke-linejoin="round" stroke-linecap="round" pointer-events="all" transform="translate(844, 254)"/><path id="path_e95a39f3-e7d8-4986-2d9b-88cb8de012c1" d="M10.49,-0.42 Q10.65,3.54 10.92,14.34 T11.31,35.74 11.46,54.14 11.23,63.63 10.18,66.81 8.16,69.49 5.40,71.38 2.17,72.30 -1.18,72.13 -4.30,70.90 -6.87,68.75 -8.61,65.88 -9.34,62.61 -9.00,59.27 -7.60,56.23 -5.31,53.78 -2.35,52.20 0.95,51.64 4.26,52.17 7.23,53.72 9.55,56.15 10.97,59.18 11.35,62.51 10.64,65.79 8.93,68.67 6.38,70.85 3.27,72.11 -0.07,72.31 -3.31,71.42 -6.09,69.55 -8.13,66.89 -9.22,63.72 -9.50,62.05 -9.54,54.25 -9.69,35.97 -10.07,14.94 -10.41,2.40 -10.39,-0.84 -9.89,-3.30 -8.81,-5.57 -7.22,-7.52 -5.21,-9.03 -2.90,-10.01 -0.42,-10.42 2.09,-10.21 4.47,-9.42 6.60,-8.07 8.34,-6.26 9.59,-4.08 10.29,-1.67 Z" fill="#FFFFFF" stroke="transparent" stroke-width="0" stroke-linejoin="round" stroke-linecap="round" pointer-events="all" transform="translate(893, 542)"/><path id="path_cdfe5c29-76ff-4652-28f9-af4630eb056e" d="M10.50,0.00 Q10.50,3.80 10.50,15.21 T10.50,37.23 10.50,57.92 10.23,69.68 9.15,72.85 7.13,75.52 4.35,77.40 1.12,78.30 -2.23,78.12 -5.34,76.88 -7.90,74.71 -9.63,71.83 -10.35,68.56 -9.98,65.23 -8.58,62.18 -6.27,59.75 -3.31,58.18 0.00,57.64 3.31,58.18 6.27,59.75 8.58,62.19 9.98,65.23 10.35,68.56 9.62,71.84 7.90,74.71 5.34,76.88 2.22,78.12 -1.12,78.30 -4.35,77.40 -7.13,75.52 -9.16,72.85 -10.23,69.67 -10.50,68.00 -10.50,57.92 -10.50,37.23 -10.50,15.21 -10.50,1.90 -10.35,-1.26 -9.75,-3.70 -8.58,-5.92 -6.91,-7.80 -4.84,-9.23 -2.49,-10.12 0.00,-10.42 2.50,-10.12 4.84,-9.23 6.91,-7.80 8.58,-5.92 9.75,-3.70 10.35,-1.26 Z" fill="#FFFFFF" stroke="transparent" stroke-width="0" stroke-linejoin="round" stroke-linecap="round" pointer-events="all" transform="translate(944, 544)"/><path id="path_b16ab380-4e10-4581-2a1f-ba2bc58a9b11" d="M15.50,193.00 Q15.50,188.09 15.50,176.25 T16.19,152.76 17.79,130.67 19.22,108.71 19.92,86.26 20.13,64.23 18.92,41.25 27.66,34.88 48.41,42.24 69.50,38.90 85.03,24.39 86.73,25.71 82.61,47.05 81.84,69.15 81.60,91.48 81.53,113.46 81.31,136.43 80.91,159.26 80.63,181.16 80.52,200.58 80.22,210.70 79.15,213.87 77.11,216.54 74.33,218.41 71.10,219.30 67.75,219.11 64.64,217.87 62.09,215.69 60.37,212.82 59.65,209.54 60.02,206.21 61.44,203.17 63.75,200.74 66.71,199.17 70.02,198.64 73.33,199.19 76.29,200.76 78.59,203.20 79.99,206.25 80.35,209.58 79.62,212.86 77.88,215.72 75.32,217.89 72.21,219.12 68.86,219.30 65.63,218.39 62.86,216.51 60.83,213.83 59.77,210.65 59.50,208.98 59.53,198.65 59.65,177.52 59.99,155.14 60.37,132.29 60.54,110.11 60.62,88.13 60.91,65.47 61.98,41.95 67.09,19.65 81.20,3.50 100.39,3.13 108.58,19.26 100.86,39.46 84.73,55.42 64.26,63.28 42.76,62.67 21.02,55.59 2.11,41.13 -4.73,18.39 5.79,0.61 24.22,2.96 36.11,19.97 40.16,41.46 41.13,64.15 40.92,86.69 40.18,109.84 38.72,132.29 37.16,153.55 36.50,176.25 36.50,190.54 36.35,194.26 35.75,196.70 34.58,198.92 32.91,200.80 30.84,202.23 28.49,203.12 26.00,203.42 23.50,203.12 21.16,202.23 19.09,200.80 17.42,198.92 16.25,196.70 15.65,194.26 Z" fill="#FFFFFF" stroke="transparent" stroke-width="0" stroke-linejoin="round" stroke-linecap="round" pointer-events="all" transform="translate(873, 365)"/><path id="path_4bfbc7ba-f16e-4abd-3cad-58433d831c55" d="M7.42,-7.42 Q9.33,-5.52 18.15,0.00 T35.68,1.18 45.87,-4.00 49.01,-5.17 52.36,-5.27 55.57,-4.30 58.30,-2.35 60.27,0.36 61.26,3.56 61.18,6.92 60.04,10.07 57.95,12.69 55.13,14.50 51.88,15.32 48.53,15.06 45.45,13.75 42.95,11.52 41.29,8.61 40.64,5.32 41.08,1.99 42.56,-1.02 44.93,-3.40 47.93,-4.89 51.25,-5.36 54.54,-4.74 57.46,-3.10 59.71,-0.61 61.05,2.47 61.33,5.81 60.53,9.06 58.74,11.89 57.61,13.16 45.38,20.01 22.56,24.43 3.23,15.66 -6.47,8.38 -8.21,6.43 -9.51,4.28 -10.25,1.88 -10.40,-0.63 -9.95,-3.10 -8.92,-5.39 -7.37,-7.37 -5.39,-8.92 -3.10,-9.95 -0.63,-10.40 1.88,-10.25 4.28,-9.50 6.43,-8.20 Z" fill="#FFFFFF" stroke="transparent" stroke-width="0" stroke-linejoin="round" stroke-linecap="round" pointer-events="all" transform="translate(893, 608)"/><path id="path_027401de-0739-4d0c-2ceb-94620a1e7c4f" d="M9.28,-4.91 Q10.71,-2.22 20.20,-3.04 T30.71,-5.21 33.13,-7.54 36.16,-8.96 39.49,-9.35 42.77,-8.65 45.65,-6.94 47.84,-4.40 49.10,-1.30 49.31,2.05 48.43,5.29 46.57,8.07 43.92,10.12 40.75,11.21 37.39,11.24 34.21,10.19 31.53,8.18 29.63,5.41 28.71,2.19 28.87,-1.16 30.09,-4.28 32.24,-6.85 35.10,-8.60 38.37,-9.34 41.71,-9.00 44.76,-7.61 47.21,-5.32 48.80,-2.37 49.36,0.93 48.84,4.24 48.31,5.86 45.44,10.85 34.18,23.01 15.34,27.34 -1.48,16.06 -8.57,6.26 -9.73,3.73 -10.34,1.29 -10.35,-1.22 -9.76,-3.66 -8.60,-5.89 -6.94,-7.78 -4.88,-9.21 -2.53,-10.11 -0.04,-10.42 2.46,-10.13 4.81,-9.25 6.88,-7.83 8.56,-5.95 Z" fill="#FFFFFF" stroke="transparent" stroke-width="0" stroke-linejoin="round" stroke-linecap="round" pointer-events="all" transform="translate(897, 622)"/><path id="path_92adb918-622b-4591-1360-982eb2e212e9" d="M-10.50,76.72 Q-10.34,70.85 -10.10,59.28 T-9.08,36.89 -7.40,12.81 -6.14,-2.12 -4.93,-5.25 -2.79,-7.83 0.06,-9.59 3.33,-10.34 6.67,-10.01 9.73,-8.64 12.18,-6.36 13.78,-3.41 14.36,-0.11 13.85,3.21 12.31,6.18 9.90,8.52 6.88,9.95 3.55,10.35 0.26,9.66 -2.63,7.97 -4.82,5.43 -6.10,2.33 -6.31,-1.01 -5.45,-4.25 -3.60,-7.05 -0.95,-9.10 2.22,-10.21 5.57,-10.24 8.76,-9.20 11.45,-7.20 13.36,-4.45 14.29,-1.23 14.49,0.46 13.69,13.10 12.01,36.90 10.90,59.74 10.58,74.35 10.31,78.54 9.64,80.96 8.42,83.15 6.70,84.99 4.59,86.36 2.22,87.18 -0.28,87.42 -2.77,87.05 -5.09,86.09 -7.12,84.61 -8.74,82.69 -9.84,80.43 -10.38,77.98 Z" fill="#FFFFFF" stroke="transparent" stroke-width="0" stroke-linejoin="round" stroke-linecap="round" pointer-events="all" transform="translate(925, 143)"/><path id="path_1c44585e-a57c-44e6-3ea8-19b23ae0d2a4" d="M53.93,49.57 Q50.13,46.87 40.95,40.08 T22.96,27.41 4.22,15.17 -6.96,7.68 -9.04,5.06 -10.19,1.90 -10.26,-1.45 -9.26,-4.65 -7.29,-7.36 -4.56,-9.31 -1.35,-10.27 2.00,-10.17 5.14,-8.99 7.75,-6.88 9.54,-4.05 10.33,-0.79 10.04,2.55 8.70,5.62 6.45,8.11 3.52,9.74 0.23,10.36 -3.09,9.89 -6.09,8.39 -8.45,6.00 -9.92,2.99 -10.36,-0.33 -9.71,-3.62 -8.04,-6.53 -5.54,-8.76 -2.45,-10.07 0.89,-10.32 4.14,-9.50 5.70,-8.82 15.51,-2.54 34.58,9.93 53.05,22.92 64.17,31.08 67.01,33.28 68.65,35.18 69.79,37.42 70.36,39.87 70.33,42.38 69.70,44.81 68.51,47.03 66.82,48.89 64.73,50.29 62.37,51.15 59.87,51.42 57.38,51.09 55.04,50.17 Z" fill="#FFFFFF" stroke="transparent" stroke-width="0" stroke-linejoin="round" stroke-linecap="round" pointer-events="all" transform="translate(779, 206)"/><path id="path_918cb8d7-0422-40b0-07f6-8e78ab03f459" d="M-6.69,40.91 Q-2.10,37.11 7.74,29.26 T25.64,14.54 43.56,-0.26 54.91,-9.02 58.05,-10.18 61.41,-10.27 64.61,-9.28 67.33,-7.32 69.29,-4.60 70.27,-1.39 70.17,1.96 69.02,5.11 66.91,7.72 64.09,9.52 60.83,10.33 57.49,10.05 54.41,8.73 51.92,6.49 50.27,3.57 49.64,0.27 50.10,-3.05 51.59,-6.05 53.96,-8.42 56.97,-9.91 60.29,-10.36 63.58,-9.72 66.50,-8.07 68.74,-5.57 70.06,-2.49 70.33,0.85 69.51,4.10 67.71,6.93 66.57,8.19 56.94,15.92 39.14,30.62 21.14,45.44 8.99,55.19 5.63,57.77 3.37,58.86 0.91,59.38 -1.60,59.30 -4.02,58.62 -6.21,57.37 -8.03,55.65 -9.39,53.53 -10.20,51.15 -10.42,48.65 -10.03,46.17 -9.06,43.85 -7.56,41.83 Z" fill="#FFFFFF" stroke="transparent" stroke-width="0" stroke-linejoin="round" stroke-linecap="round" pointer-events="all" transform="translate(1023, 208)"/><path id="path_41b5440f-c868-4f7b-3de2-06551ad93fc6" d="M0.25,-10.50 Q6.91,-10.34 17.35,-10.13 T38.18,-9.78 59.04,-9.59 75.77,-9.52 83.71,-9.22 86.88,-8.14 89.54,-6.10 91.42,-3.32 92.30,-0.09 92.11,3.26 90.86,6.37 88.68,8.92 85.81,10.64 82.53,11.35 79.20,10.98 76.16,9.56 73.73,7.25 72.17,4.28 71.64,0.97 72.19,-2.34 73.77,-5.30 76.21,-7.59 79.26,-8.99 82.59,-9.34 85.87,-8.61 88.73,-6.88 90.90,-4.31 92.13,-1.20 92.30,2.15 91.39,5.38 89.50,8.15 86.82,10.17 83.64,11.23 81.97,11.50 75.70,11.48 58.91,11.41 37.90,11.21 16.91,10.87 3.08,10.58 -1.50,10.31 -3.93,9.66 -6.12,8.43 -7.96,6.72 -9.34,4.62 -10.18,2.25 -10.42,-0.25 -10.06,-2.74 -9.11,-5.06 -7.63,-7.10 -5.71,-8.72 -3.46,-9.83 -1.01,-10.37 Z" fill="#FFFFFF" stroke="transparent" stroke-width="0" stroke-linejoin="round" stroke-linecap="round" pointer-events="all" transform="translate(1051, 384)"/><path id="path_c59a2aa3-a3fa-4f82-07ab-3fcebebe4d20" d="M7.23,-7.61 Q10.40,-4.60 18.80,3.12 T35.50,18.07 53.63,34.46 64.45,45.00 65.92,48.02 66.36,51.34 65.70,54.63 64.04,57.54 61.53,59.76 58.44,61.07 55.10,61.32 51.85,60.49 49.03,58.67 46.95,56.05 45.81,52.89 45.74,49.54 46.75,46.34 48.72,43.63 51.45,41.69 54.66,40.72 58.01,40.84 61.15,42.01 63.75,44.13 65.54,46.96 66.33,50.22 66.04,53.56 64.70,56.63 62.44,59.12 59.51,60.75 56.22,61.36 52.90,60.89 49.90,59.38 48.53,58.38 39.43,49.89 21.84,34.02 4.65,18.63 -5.65,9.12 -8.04,6.64 -9.39,4.52 -10.20,2.14 -10.42,-0.36 -10.03,-2.85 -9.06,-5.16 -7.56,-7.18 -5.62,-8.78 -3.35,-9.87 -0.90,-10.38 1.62,-10.30 4.03,-9.61 6.22,-8.37 Z" fill="#FFFFFF" stroke="transparent" stroke-width="0" stroke-linejoin="round" stroke-linecap="round" pointer-events="all" transform="translate(1034, 514)"/><path id="path_4ab0fa60-4b82-4665-0db6-364522367e9f" d="M0.62,-10.48 Q6.01,-10.16 18.36,-9.01 T41.70,-7.10 65.00,-5.92 78.98,-5.17 82.13,-4.00 84.73,-1.90 86.53,0.94 87.33,4.19 87.05,7.53 85.71,10.61 83.47,13.10 80.54,14.74 77.25,15.36 73.93,14.90 70.93,13.40 68.56,11.02 67.08,8.01 66.64,4.69 67.29,1.40 68.95,-1.52 71.45,-3.75 74.53,-5.06 77.88,-5.32 81.13,-4.50 83.95,-2.69 86.04,-0.07 87.18,3.08 87.26,6.43 86.27,9.64 84.30,12.35 81.57,14.30 78.36,15.27 76.68,15.50 64.18,15.06 40.06,13.82 16.61,11.91 2.08,10.64 -1.86,10.26 -4.26,9.51 -6.41,8.22 -8.19,6.44 -9.50,4.29 -10.25,1.90 -10.41,-0.61 -9.96,-3.09 -8.93,-5.38 -7.38,-7.36 -5.41,-8.91 -3.12,-9.95 -0.65,-10.40 Z" fill="#FFFFFF" stroke="transparent" stroke-width="0" stroke-linejoin="round" stroke-linecap="round" pointer-events="all" transform="translate(732, 384)"/><path id="path_5f03ea4f-6adc-4ed1-3bad-91165bfd39e5" d="M69.32,9.96 Q65.99,11.07 55.43,15.83 T34.15,25.07 13.69,33.64 2.30,38.10 -1.05,38.31 -4.28,37.44 -7.07,35.57 -9.12,32.92 -10.21,29.75 -10.24,26.40 -9.19,23.21 -7.18,20.53 -4.42,18.63 -1.19,17.71 2.16,17.87 5.28,19.08 7.85,21.24 9.60,24.10 10.34,27.37 10.00,30.70 8.62,33.75 6.33,36.20 3.38,37.80 0.07,38.36 -3.24,37.84 -6.21,36.29 -8.54,33.87 -9.96,30.84 -10.35,27.51 -9.65,24.23 -7.94,21.35 -5.40,19.16 -3.96,18.27 6.79,13.76 28.19,4.72 49.10,-4.33 61.01,-9.41 63.92,-10.21 66.42,-10.41 68.90,-10.01 71.22,-9.02 73.22,-7.51 74.81,-5.57 75.89,-3.30 76.39,-0.83 76.29,1.68 75.59,4.09 74.33,6.27 72.59,8.08 70.46,9.42 Z" fill="#FFFFFF" stroke="transparent" stroke-width="0" stroke-linejoin="round" stroke-linecap="round" pointer-events="all" transform="translate(752, 512)"/></svg>