<svg xmlns="http://www.w3.org/2000/svg" viewBox="297 68 538 592" width="100" height="120"><path id="path_29fd03cc-6e43-4041-2b5d-a53c0bea4dc7" d="M86.01,303.84 Q80.15,298.61 71.82,291.10 T55.44,276.01 38.76,259.05 23.41,240.90 11.48,222.83 2.40,202.07 -3.78,177.54 -7.19,152.51 -8.21,129.64 -6.18,107.57 1.37,84.28 13.63,63.08 28.11,45.47 44.67,29.38 62.27,16.05 83.84,5.01 109.40,-2.83 135.61,-5.50 162.46,-2.46 188.27,5.63 210.92,16.87 229.62,29.92 245.26,44.23 259.08,61.50 270.17,82.12 276.99,103.69 279.75,126.52 278.92,149.77 274.91,171.78 267.95,193.76 258.04,214.61 246.05,233.32 232.30,249.95 217.01,265.18 201.45,279.92 185.80,294.43 176.22,302.46 172.98,303.32 169.63,303.09 166.54,301.80 164.01,299.60 162.32,296.70 161.65,293.42 162.06,290.09 163.50,287.07 165.84,284.67 168.83,283.14 172.14,282.64 175.44,283.23 178.38,284.84 180.66,287.30 182.02,290.37 182.34,293.70 181.57,296.97 179.80,299.82 177.22,301.95 174.09,303.15 170.74,303.28 167.52,302.34 164.77,300.42 162.78,297.73 161.75,294.53 161.80,291.18 162.91,288.02 164.98,285.38 166.23,284.23 170.78,280.10 182.96,268.64 198.32,253.89 213.65,238.88 228.02,222.12 240.26,203.16 249.73,182.38 255.95,161.17 258.78,139.97 258.24,118.59 253.63,97.86 244.71,77.95 231.51,60.30 214.54,44.91 195.85,32.41 175.22,23.05 152.69,16.74 130.64,15.39 108.51,18.86 86.73,26.42 66.20,39.23 48.58,54.48 33.15,72.19 20.65,92.10 14.33,113.14 13.03,137.41 14.98,161.89 19.08,184.71 26.55,206.03 38.64,226.04 53.94,244.57 69.80,260.69 85.86,275.49 97.06,285.55 100.83,289.11 102.25,291.19 103.13,293.54 103.42,296.04 103.11,298.53 102.21,300.88 100.78,302.94 98.89,304.60 96.66,305.76 94.22,306.35 91.71,306.34 89.27,305.73 87.05,304.56 Z" fill="#FFFFFF" stroke="transparent" stroke-width="0" stroke-linejoin="round" stroke-linecap="round" pointer-events="all" transform="translate(431, 203)"/><path id="path_4f260268-fffd-4dbc-38aa-137f880d5eec" d="M16.83,3.69 Q15.88,6.22 13.46,16.90 T10.76,32.11 10.10,38.30 8.84,41.40 6.65,43.94 3.77,45.65 0.49,46.35 -2.84,45.96 -5.87,44.54 -8.29,42.21 -9.84,39.24 -10.36,35.93 -9.80,32.62 -8.20,29.67 -5.75,27.38 -2.70,26.00 0.63,25.66 3.90,26.40 6.76,28.15 8.92,30.72 10.13,33.84 10.29,37.19 9.37,40.42 7.47,43.18 4.79,45.19 1.60,46.24 -1.75,46.21 -4.92,45.12 -7.57,43.07 -9.43,40.28 -10.31,37.05 -10.48,35.36 -9.86,27.35 -6.52,9.10 -3.31,-2.42 -2.25,-4.81 -0.83,-6.88 1.05,-8.56 3.27,-9.73 5.71,-10.34 8.22,-10.35 10.66,-9.76 12.89,-8.60 14.78,-6.94 16.21,-4.88 17.11,-2.53 17.42,-0.04 17.13,2.46 Z" fill="#FFFFFF" stroke="transparent" stroke-width="0" stroke-linejoin="round" stroke-linecap="round" pointer-events="all" transform="translate(592, 503)"/><path id="path_69d3d039-7d5b-4407-05da-4e8bfaf30173" d="M9.18,-5.10 Q10.76,-2.25 16.23,6.87 T25.09,26.32 29.41,41.41 30.36,47.86 29.86,51.18 28.33,54.16 25.93,56.50 22.90,57.95 19.57,58.35 16.29,57.67 13.40,55.98 11.19,53.46 9.91,50.36 9.69,47.01 10.54,43.77 12.39,40.97 15.03,38.91 18.19,37.80 21.54,37.75 24.74,38.78 27.43,40.78 29.35,43.53 30.29,46.75 30.15,50.10 28.95,53.23 26.81,55.81 23.96,57.58 20.69,58.34 17.36,58.02 14.30,56.65 11.83,54.38 10.22,51.43 9.66,49.83 6.54,38.09 -2.08,17.15 -8.39,6.53 -9.66,3.93 -10.31,1.50 -10.37,-1.01 -9.83,-3.46 -8.72,-5.72 -7.10,-7.64 -5.06,-9.11 -2.73,-10.06 -0.25,-10.42 2.25,-10.18 4.62,-9.34 6.73,-7.96 8.44,-6.12 Z" fill="#FFFFFF" stroke="transparent" stroke-width="0" stroke-linejoin="round" stroke-linecap="round" pointer-events="all" transform="translate(524, 501)"/><path id="path_a2881fcc-d118-497d-2f72-ade2b8b109c5" d="M38.55,220.96 Q39.19,214.62 40.01,202.29 T41.09,178.11 41.40,155.61 41.45,132.33 41.48,107.00 41.49,81.49 40.77,58.23 35.79,37.83 23.46,20.80 17.79,24.31 28.91,42.51 47.75,55.82 69.31,63.35 91.57,62.21 110.99,53.33 120.94,36.38 111.83,27.12 98.24,38.95 94.06,60.04 92.80,81.75 93.25,103.36 95.44,125.09 99.21,146.50 102.81,167.95 104.32,189.52 104.49,204.12 104.23,209.64 103.17,212.82 101.15,215.50 98.38,217.39 95.15,218.30 91.80,218.13 88.69,216.90 86.12,214.73 84.39,211.87 83.66,208.59 84.01,205.26 85.41,202.21 87.70,199.77 90.66,198.19 93.97,197.64 97.28,198.17 100.25,199.73 102.56,202.16 103.98,205.20 104.35,208.53 103.64,211.81 101.92,214.68 99.37,216.86 96.26,218.11 92.91,218.30 89.68,217.42 86.90,215.54 84.86,212.88 83.78,209.71 83.50,208.03 83.48,202.91 83.26,187.15 81.33,166.07 77.47,145.41 74.08,124.43 72.22,102.96 71.81,81.24 73.01,59.12 76.60,37.75 85.03,16.88 100.48,0.40 120.39,-2.69 136.69,10.13 143.44,30.58 139.44,51.66 126.13,68.74 107.41,79.13 85.58,85.04 63.35,84.60 43.18,77.40 24.92,66.32 7.62,51.39 -4.83,31.44 -4.22,9.84 10.13,-3.68 29.34,-1.24 46.07,13.82 57.20,34.25 61.69,56.97 62.49,81.50 62.48,107.02 62.45,132.37 62.40,155.68 62.08,178.68 60.94,203.86 59.76,219.87 59.17,224.28 58.33,226.65 56.95,228.75 55.10,230.45 52.90,231.67 50.47,232.32 47.96,232.37 45.51,231.82 43.26,230.70 41.35,229.08 39.87,227.04 38.93,224.71 38.58,222.22 Z" fill="#FFFFFF" stroke="transparent" stroke-width="0" stroke-linejoin="round" stroke-linecap="round" pointer-events="all" transform="translate(496, 325)"/><path id="path_3d53d8b8-0294-476c-3b03-56f95faa8a83" d="M10.50,0.00 Q10.50,2.69 10.50,11.35 T10.23,21.68 9.15,24.85 7.13,27.52 4.35,29.40 1.12,30.30 -2.23,30.12 -5.34,28.88 -7.90,26.71 -9.63,23.83 -10.35,20.56 -9.98,17.23 -8.58,14.18 -6.27,11.75 -3.31,10.18 0.00,9.64 3.31,10.18 6.27,11.75 8.58,14.19 9.98,17.23 10.35,20.56 9.62,23.84 7.90,26.71 5.34,28.88 2.22,30.12 -1.12,30.30 -4.35,29.40 -7.13,27.52 -9.16,24.85 -10.23,21.67 -10.50,20.00 -10.50,11.35 -10.50,1.35 -10.35,-1.26 -9.75,-3.70 -8.58,-5.92 -6.91,-7.80 -4.84,-9.23 -2.49,-10.12 0.00,-10.42 2.50,-10.12 4.84,-9.23 6.91,-7.80 8.58,-5.92 9.75,-3.70 10.35,-1.26 Z" fill="#FFFFFF" stroke="transparent" stroke-width="0" stroke-linejoin="round" stroke-linecap="round" pointer-events="all" transform="translate(590, 542)"/><path id="path_cf3200a4-0f7a-4d0c-0011-46c9e5381705" d="M2.96,-10.07 Q5.66,-9.28 15.82,-5.67 T35.68,-1.77 47.07,-1.31 50.30,-0.43 53.09,1.44 55.13,4.10 56.22,7.27 56.23,10.62 55.18,13.81 53.16,16.49 50.40,18.38 47.17,19.30 43.82,19.13 40.70,17.91 38.14,15.75 36.39,12.88 35.66,9.61 36.00,6.28 37.39,3.23 39.69,0.78 42.64,-0.80 45.95,-1.36 49.26,-0.84 52.23,0.72 54.55,3.14 55.97,6.18 56.35,9.51 55.64,12.79 53.93,15.67 51.39,17.85 48.28,19.11 46.62,19.48 33.42,18.81 9.98,14.50 -1.62,10.47 -4.13,9.57 -6.30,8.31 -8.10,6.56 -9.44,4.43 -10.22,2.04 -10.41,-0.46 -10.00,-2.94 -9.01,-5.25 -7.49,-7.25 -5.53,-8.83 -3.26,-9.90 -0.80,-10.39 1.72,-10.28 Z" fill="#FFFFFF" stroke="transparent" stroke-width="0" stroke-linejoin="round" stroke-linecap="round" pointer-events="all" transform="translate(545, 555)"/><path id="path_e5642346-3073-45ed-1af5-158cc9054631" d="M17.63,5.98 Q16.21,8.04 25.06,13.63 T39.79,15.02 45.14,9.20 44.64,5.88 45.22,2.58 46.82,-0.36 49.28,-2.64 52.34,-4.02 55.68,-4.34 58.95,-3.58 61.80,-1.82 63.94,0.76 65.14,3.89 65.29,7.24 64.35,10.46 62.44,13.21 59.75,15.21 56.56,16.24 53.21,16.21 50.04,15.10 47.40,13.04 45.55,10.24 44.69,7.00 44.91,3.65 46.18,0.55 48.38,-1.98 51.28,-3.67 54.56,-4.35 57.89,-3.95 60.91,-2.51 63.32,-0.17 64.33,1.19 66.42,5.52 66.35,20.63 54.51,35.92 34.27,40.06 13.46,37.57 -2.52,25.85 -4.65,6.16 -0.35,-4.95 1.21,-6.92 3.09,-8.59 5.32,-9.75 7.76,-10.35 10.27,-10.35 12.71,-9.74 14.93,-8.57 16.81,-6.90 18.24,-4.83 19.12,-2.48 19.42,0.02 19.12,2.51 18.22,4.86 Z" fill="#FFFFFF" stroke="transparent" stroke-width="0" stroke-linejoin="round" stroke-linecap="round" pointer-events="all" transform="translate(536, 561)"/><path id="path_3bcf8c7e-4087-4c39-3389-37f849913e2c" d="M13.32,1.94 Q12.84,4.47 19.48,4.47 T26.93,2.99 29.01,0.35 31.81,-1.48 35.06,-2.32 38.40,-2.08 41.50,-0.78 44.01,1.43 45.69,4.33 46.35,7.62 45.93,10.95 44.47,13.96 42.12,16.36 39.14,17.88 35.82,18.36 32.52,17.76 29.59,16.14 27.32,13.66 25.97,10.60 25.67,7.26 26.44,4.00 28.22,1.15 30.82,-0.97 33.95,-2.16 37.30,-2.28 40.52,-1.33 43.26,0.60 45.24,3.31 46.25,6.51 46.19,9.86 45.89,11.53 44.71,14.82 36.11,25.90 17.61,35.77 -1.19,30.53 -8.35,11.91 -7.56,-0.67 -6.94,-3.14 -5.90,-5.43 -4.34,-7.40 -2.36,-8.94 -0.06,-9.96 2.41,-10.41 4.92,-10.24 7.32,-9.49 9.46,-8.18 11.23,-6.39 12.52,-4.24 13.26,-1.84 13.40,0.67 Z" fill="#FFFFFF" stroke="transparent" stroke-width="0" stroke-linejoin="round" stroke-linecap="round" pointer-events="all" transform="translate(546, 590)"/><path id="path_483d2915-e420-4531-1a54-06479b1c7f36" d="M-9.50,62.30 Q-9.65,56.75 -9.90,45.27 T-10.32,16.94 -10.24,-1.59 -9.20,-4.77 -7.19,-7.46 -4.43,-9.37 -1.21,-10.29 2.14,-10.14 5.27,-8.92 7.84,-6.78 9.59,-3.92 10.34,-0.65 10.01,2.69 8.63,5.74 6.34,8.20 3.39,9.79 0.09,10.36 -3.23,9.85 -6.20,8.30 -8.53,5.89 -9.96,2.86 -10.35,-0.47 -9.66,-3.75 -7.95,-6.64 -5.42,-8.83 -2.31,-10.10 1.03,-10.31 4.27,-9.44 7.06,-7.58 9.11,-4.93 10.21,-1.76 10.50,-0.09 10.68,16.68 11.10,44.80 11.42,58.93 11.38,62.96 10.85,65.42 9.74,67.67 8.13,69.60 6.11,71.09 3.78,72.05 1.30,72.42 -1.21,72.19 -3.58,71.36 -5.69,70.00 -7.41,68.16 -8.64,65.97 -9.31,63.55 Z" fill="#FFFFFF" stroke="transparent" stroke-width="0" stroke-linejoin="round" stroke-linecap="round" pointer-events="all" transform="translate(561, 108)"/><path id="path_75628628-45fe-47d3-26af-aa51491a3062" d="M-6.83,37.03 Q-1.29,32.27 8.01,24.62 T25.45,9.20 38.11,-3.02 44.02,-8.46 47.03,-9.93 50.36,-10.36 53.65,-9.70 56.55,-8.03 58.77,-5.51 60.07,-2.42 60.32,0.92 59.49,4.17 57.66,6.98 55.03,9.06 51.88,10.19 48.52,10.26 45.33,9.25 42.62,7.27 40.68,4.53 39.72,1.32 39.84,-2.03 41.02,-5.17 43.14,-7.77 45.98,-9.55 49.24,-10.33 52.58,-10.04 55.65,-8.69 58.13,-6.43 59.75,-3.50 60.36,-0.20 59.88,3.12 58.37,6.11 57.37,7.48 52.07,12.70 38.62,25.63 21.42,40.78 9.61,50.59 5.78,53.67 3.54,54.81 1.09,55.37 -1.43,55.33 -3.86,54.68 -6.06,53.48 -7.91,51.78 -9.31,49.69 -10.16,47.33 -10.42,44.83 -10.08,42.34 -9.15,40.00 -7.69,37.96 Z" fill="#FFFFFF" stroke="transparent" stroke-width="0" stroke-linejoin="round" stroke-linecap="round" pointer-events="all" transform="translate(661, 159)"/><path id="path_88eda3f4-6558-40c7-3686-f08af8dd1459" d="M-1.81,-3.34 Q4.53,-4.45 16.70,-5.97 T45.99,-8.98 64.80,-10.33 68.05,-9.54 70.89,-7.74 73.00,-5.14 74.17,-2.00 74.27,1.36 73.30,4.56 71.36,7.30 68.64,9.26 65.44,10.26 62.09,10.18 58.94,9.04 56.32,6.95 54.50,4.13 53.68,0.88 53.93,-2.46 55.25,-5.54 57.48,-8.05 60.39,-9.71 63.68,-10.36 67.00,-9.92 70.01,-8.44 72.39,-6.08 73.89,-3.08 74.36,0.24 73.74,3.53 72.10,6.46 69.62,8.71 66.54,10.05 64.90,10.46 47.95,11.93 19.57,14.82 4.98,16.79 0.55,17.41 -1.96,17.24 -4.35,16.47 -6.49,15.15 -8.26,13.36 -9.54,11.20 -10.27,8.80 -10.40,6.29 -9.93,3.82 -8.88,1.54 -7.31,-0.43 -5.32,-1.96 -3.02,-2.98 Z" fill="#FFFFFF" stroke="transparent" stroke-width="0" stroke-linejoin="round" stroke-linecap="round" pointer-events="all" transform="translate(731, 298)"/><path id="path_c7d90c8c-3595-4c97-0795-6bf9cf9fb62f" d="M7.92,-6.90 Q12.20,-1.98 19.98,7.44 T34.95,26.11 42.99,36.84 44.16,39.98 44.28,43.33 43.31,46.54 41.37,49.28 38.66,51.25 35.47,52.26 32.11,52.19 28.96,51.05 26.33,48.97 24.51,46.16 23.68,42.91 23.93,39.56 25.23,36.48 27.46,33.97 30.36,32.30 33.65,31.64 36.98,32.08 39.99,33.55 42.38,35.90 43.89,38.90 44.36,42.21 43.75,45.51 42.12,48.44 39.64,50.70 36.56,52.04 33.22,52.33 29.97,51.54 27.13,49.76 25.86,48.63 18.60,39.29 3.85,20.88 -5.78,9.35 -8.63,5.85 -9.78,3.61 -10.36,1.17 -10.34,-1.34 -9.71,-3.78 -8.53,-5.99 -6.85,-7.86 -4.77,-9.27 -2.41,-10.14 0.09,-10.42 2.58,-10.10 4.92,-9.19 6.98,-7.74 Z" fill="#FFFFFF" stroke="transparent" stroke-width="0" stroke-linejoin="round" stroke-linecap="round" pointer-events="all" transform="translate(711, 423)"/><path id="path_3b4b9504-9e92-40fd-3810-6dfe0593ba7b" d="M80.66,72.37 Q74.80,67.93 65.59,61.04 T46.98,47.38 27.62,33.27 5.73,17.21 -7.37,7.28 -9.31,4.55 -10.27,1.34 -10.16,-2.01 -8.99,-5.15 -6.87,-7.75 -4.04,-9.54 -0.78,-10.33 2.56,-10.04 5.63,-8.70 8.11,-6.44 9.75,-3.52 10.36,-0.22 9.89,3.10 8.38,6.09 6.00,8.45 2.98,9.92 -0.34,10.36 -3.63,9.70 -6.54,8.04 -8.76,5.53 -10.07,2.44 -10.32,-0.90 -9.49,-4.15 -7.67,-6.97 -5.05,-9.05 -1.89,-10.19 1.46,-10.26 4.66,-9.25 6.18,-8.49 18.22,0.32 39.99,16.30 59.25,30.34 78.14,44.20 90.40,53.41 94.25,56.51 95.83,58.46 96.90,60.73 97.39,63.20 97.28,65.71 96.58,68.12 95.31,70.29 93.56,72.10 91.44,73.43 89.05,74.22 86.54,74.41 84.07,74.00 81.76,73.01 Z" fill="#FFFFFF" stroke="transparent" stroke-width="0" stroke-linejoin="round" stroke-linecap="round" pointer-events="all" transform="translate(358, 140)"/><path id="path_072d575b-099d-4d7b-27aa-93a1f45c5fab" d="M62.13,18.46 Q58.32,18.15 46.14,16.43 T23.17,13.09 5.83,10.96 -2.37,10.09 -5.47,8.80 -7.99,6.59 -9.68,3.70 -10.35,0.41 -9.94,-2.91 -8.49,-5.94 -6.15,-8.34 -3.17,-9.87 0.15,-10.36 3.45,-9.77 6.39,-8.16 8.66,-5.69 10.02,-2.63 10.34,0.71 9.57,3.97 7.80,6.82 5.21,8.95 2.08,10.15 -1.27,10.28 -4.49,9.34 -7.23,7.42 -9.22,4.72 -10.25,1.53 -10.20,-1.82 -9.08,-4.99 -7.02,-7.62 -4.21,-9.47 -0.97,-10.32 0.72,-10.48 8.61,-9.85 27.00,-7.60 48.78,-4.38 61.97,-2.62 65.11,-2.21 67.49,-1.41 69.61,-0.06 71.35,1.76 72.60,3.94 73.29,6.36 73.39,8.87 72.88,11.33 71.79,13.59 70.20,15.54 68.19,17.04 65.87,18.02 63.39,18.42 Z" fill="#FFFFFF" stroke="transparent" stroke-width="0" stroke-linejoin="round" stroke-linecap="round" pointer-events="all" transform="translate(337, 300)"/><path id="path_d1cd88df-3184-4d5f-09e8-fb0593132d36" d="M60.14,8.52 Q56.17,11.37 47.64,17.40 T30.79,30.28 13.39,42.36 2.66,48.02 -0.68,48.34 -3.95,47.58 -6.80,45.82 -8.94,43.24 -10.14,40.11 -10.29,36.76 -9.35,33.54 -7.44,30.79 -4.75,28.79 -1.56,27.76 1.80,27.80 4.96,28.90 7.61,30.96 9.45,33.76 10.31,37.00 10.09,40.35 8.82,43.45 6.61,45.98 3.72,47.67 0.44,48.35 -2.89,47.95 -5.92,46.51 -8.32,44.17 -9.86,41.19 -10.36,37.88 -9.78,34.58 -8.17,31.63 -5.71,29.36 -4.30,28.42 1.02,25.74 15.17,15.88 33.96,1.52 45.88,-7.09 48.97,-9.13 51.31,-10.07 53.79,-10.42 56.29,-10.17 58.66,-9.32 60.76,-7.94 62.46,-6.09 63.67,-3.89 64.32,-1.46 64.37,1.05 63.82,3.50 62.69,5.75 61.06,7.66 Z" fill="#FFFFFF" stroke="transparent" stroke-width="0" stroke-linejoin="round" stroke-linecap="round" pointer-events="all" transform="translate(361, 418)"/></svg>