<svg xmlns="http://www.w3.org/2000/svg" viewBox="804 125 369 424" width="20" height="20"><path id="path_2888a620-d556-4eb2-10b5-ec239fc1d779" d="M15.49,0.55 Q15.17,6.57 14.45,18.70 T12.79,43.13 11.17,68.00 10.12,82.23 8.88,85.34 6.71,87.90 3.83,89.63 0.56,90.35 -2.77,89.98 -5.82,88.58 -8.25,86.27 -9.82,83.31 -10.36,80.00 -9.82,76.69 -8.25,73.73 -5.81,71.42 -2.77,70.02 0.56,69.65 3.84,70.37 6.71,72.10 8.88,74.66 10.12,77.77 10.30,81.12 9.40,84.35 7.52,87.13 4.85,89.16 1.67,90.23 -1.68,90.22 -4.86,89.15 -7.52,87.12 -9.41,84.35 -10.30,81.12 -10.48,79.43 -9.80,66.81 -8.16,41.72 -6.51,17.36 -5.64,2.46 -5.27,-1.80 -4.54,-4.20 -3.26,-6.36 -1.49,-8.15 0.65,-9.47 3.04,-10.24 5.55,-10.41 8.02,-9.98 10.32,-8.96 12.31,-7.43 13.88,-5.46 14.93,-3.18 15.40,-0.71 Z" fill="#FFFFFF" stroke="transparent" stroke-width="0" stroke-linejoin="round" stroke-linecap="round" pointer-events="all" transform="translate(849, 172)"/><path id="path_b905b8c2-9aa3-42ff-3f72-fc8b4daa84b6" d="M0.00,-10.50 Q6.82,-10.50 19.96,-10.50 T44.83,-10.50 68.71,-10.50 94.20,-10.50 118.55,-10.50 140.38,-10.50 176.60,-10.50 203.68,-10.23 206.85,-9.15 209.52,-7.13 211.40,-4.35 212.30,-1.12 212.12,2.23 210.88,5.34 208.71,7.90 205.83,9.63 202.56,10.35 199.23,9.98 196.18,8.58 193.75,6.27 192.18,3.31 191.64,-0.00 192.18,-3.31 193.75,-6.27 196.19,-8.58 199.23,-9.98 202.56,-10.35 205.84,-9.62 208.71,-7.90 210.88,-5.34 212.12,-2.22 212.30,1.12 211.40,4.35 209.52,7.13 206.85,9.16 203.67,10.23 202.00,10.50 176.60,10.50 140.38,10.50 118.55,10.50 94.20,10.50 68.71,10.50 44.83,10.50 19.96,10.50 3.41,10.50 -1.26,10.35 -3.70,9.75 -5.92,8.58 -7.80,6.91 -9.23,4.84 -10.12,2.49 -10.42,-0.00 -10.12,-2.50 -9.23,-4.84 -7.80,-6.91 -5.92,-8.58 -3.70,-9.75 -1.26,-10.35 Z" fill="#FFFFFF" stroke="transparent" stroke-width="0" stroke-linejoin="round" stroke-linecap="round" pointer-events="all" transform="translate(854, 165)"/><path id="path_14660f7b-dee2-4317-12b4-fe43da386987" d="M6.02,-8.60 Q9.19,-6.38 18.55,0.57 T36.32,14.56 49.44,25.96 55.19,31.65 56.79,34.59 57.36,37.90 56.85,41.21 55.31,44.19 52.90,46.52 49.87,47.96 46.54,48.35 43.26,47.66 40.37,45.96 38.17,43.43 36.90,40.33 36.69,36.98 37.55,33.74 39.41,30.95 42.06,28.89 45.22,27.79 48.58,27.76 51.76,28.80 54.45,30.80 56.36,33.56 57.29,36.78 57.14,40.13 55.93,43.25 53.78,45.83 50.93,47.59 47.66,48.34 44.33,48.01 41.27,46.63 39.85,45.69 35.86,41.99 23.44,31.19 6.08,17.45 -4.44,9.71 -6.96,7.76 -8.62,5.86 -9.77,3.63 -10.36,1.19 -10.34,-1.32 -9.72,-3.76 -8.54,-5.98 -6.86,-7.85 -4.78,-9.26 -2.43,-10.14 0.07,-10.42 2.56,-10.10 4.91,-9.20 Z" fill="#FFFFFF" stroke="transparent" stroke-width="0" stroke-linejoin="round" stroke-linecap="round" pointer-events="all" transform="translate(856, 169)"/><path id="path_68f8456d-68a6-4719-0d06-ac81e50bb295" d="M-0.58,-4.48 Q5.12,-4.80 15.95,-5.29 T37.34,-6.01 58.88,-6.61 81.55,-7.40 105.30,-8.38 127.90,-9.14 149.12,-9.87 170.22,-10.43 186.33,-10.50 193.67,-10.23 196.85,-9.16 199.52,-7.13 201.40,-4.35 202.30,-1.12 202.12,2.23 200.88,5.34 198.71,7.90 195.84,9.62 192.56,10.35 189.23,9.98 186.19,8.58 183.75,6.27 182.18,3.31 181.64,0.00 182.18,-3.31 183.75,-6.27 186.18,-8.58 189.23,-9.98 192.56,-10.35 195.83,-9.63 198.71,-7.90 200.88,-5.34 202.12,-2.23 202.30,1.12 201.40,4.35 199.52,7.13 196.85,9.15 193.68,10.23 192.00,10.50 188.84,10.50 175.08,10.53 153.99,11.07 132.35,11.78 110.10,12.42 87.08,13.40 63.84,14.24 40.04,14.87 16.93,15.68 3.44,16.33 -0.68,16.40 -3.15,15.94 -5.44,14.89 -7.41,13.33 -8.95,11.35 -9.97,9.05 -10.41,6.58 -10.24,4.07 -9.48,1.67 -8.17,-0.47 -6.39,-2.24 -4.23,-3.53 -1.83,-4.26 Z" fill="#FFFFFF" stroke="transparent" stroke-width="0" stroke-linejoin="round" stroke-linecap="round" pointer-events="all" transform="translate(903, 201)"/><path id="path_9cf5107a-fa43-488d-294a-334c08cd59cc" d="M5.40,-9.00 Q7.78,-7.58 16.94,-0.71 T34.14,13.11 44.70,21.47 48.54,23.96 50.76,26.47 52.07,29.56 52.32,32.90 51.49,36.15 49.67,38.96 47.05,41.05 43.89,42.19 40.54,42.26 37.34,41.26 34.63,39.28 32.69,36.55 31.73,33.34 31.84,29.99 33.01,26.85 35.13,24.25 37.96,22.46 41.22,21.67 44.56,21.96 47.63,23.30 50.11,25.56 51.75,28.49 52.36,31.78 51.89,35.10 50.38,38.10 47.99,40.45 44.98,41.92 41.66,42.36 38.37,41.70 36.78,41.11 33.51,39.21 22.34,30.48 5.71,17.04 -4.21,9.72 -6.40,8.23 -8.18,6.46 -9.49,4.31 -10.25,1.91 -10.41,-0.60 -9.96,-3.07 -8.94,-5.36 -7.39,-7.35 -5.42,-8.90 -3.13,-9.94 -0.66,-10.40 1.85,-10.26 4.25,-9.52 Z" fill="#FFFFFF" stroke="transparent" stroke-width="0" stroke-linejoin="round" stroke-linecap="round" pointer-events="all" transform="translate(1053, 166)"/><path id="path_f97a2342-d146-4042-3ab9-0867d46c0225" d="M5.40,-9.00 Q7.78,-7.58 16.73,-0.84 T33.25,13.20 44.92,25.38 49.91,31.71 51.13,34.83 51.29,38.18 50.38,41.40 48.48,44.17 45.80,46.18 42.62,47.23 39.27,47.22 36.09,46.13 33.44,44.08 31.57,41.30 30.69,38.06 30.89,34.71 32.15,31.61 34.34,29.06 37.22,27.35 40.50,26.65 43.83,27.03 46.86,28.46 49.29,30.78 50.84,33.75 51.36,37.06 50.80,40.37 49.21,43.32 46.76,45.61 43.71,47.00 40.38,47.34 37.11,46.60 34.25,44.86 32.96,43.75 23.20,33.52 5.21,16.86 -4.21,9.72 -6.40,8.23 -8.18,6.46 -9.49,4.31 -10.25,1.91 -10.41,-0.60 -9.96,-3.07 -8.94,-5.36 -7.39,-7.35 -5.42,-8.90 -3.13,-9.94 -0.66,-10.40 1.85,-10.26 4.25,-9.52 Z" fill="#FFFFFF" stroke="transparent" stroke-width="0" stroke-linejoin="round" stroke-linecap="round" pointer-events="all" transform="translate(848, 256)"/><path id="path_db3eede3-a2e4-4174-26e3-5b077aaf4d37" d="M10.50,0.00 Q10.50,3.96 10.50,14.74 T10.50,36.23 10.50,57.58 10.50,77.12 10.23,87.68 9.15,90.85 7.13,93.52 4.35,95.40 1.12,96.30 -2.23,96.12 -5.34,94.88 -7.90,92.71 -9.63,89.83 -10.35,86.56 -9.98,83.23 -8.58,80.18 -6.27,77.75 -3.31,76.18 0.00,75.64 3.31,76.18 6.27,77.75 8.58,80.19 9.98,83.23 10.35,86.56 9.62,89.84 7.90,92.71 5.34,94.88 2.22,96.12 -1.12,96.30 -4.35,95.40 -7.13,93.52 -9.16,90.85 -10.23,87.67 -10.50,86.00 -10.50,77.12 -10.50,57.58 -10.50,36.23 -10.50,14.74 -10.50,1.98 -10.35,-1.26 -9.75,-3.70 -8.58,-5.92 -6.91,-7.80 -4.84,-9.23 -2.49,-10.12 0.00,-10.42 2.50,-10.12 4.84,-9.23 6.91,-7.80 8.58,-5.92 9.75,-3.70 10.35,-1.26 Z" fill="#FFFFFF" stroke="transparent" stroke-width="0" stroke-linejoin="round" stroke-linecap="round" pointer-events="all" transform="translate(899, 208)"/><path id="path_82581bb9-d115-436f-15a4-399aae3014a5" d="M-0.34,-7.49 Q4.57,-7.65 16.06,-7.95 T38.95,-8.35 61.64,-8.47 84.75,-8.49 108.00,-8.50 130.38,-8.50 152.07,-8.94 173.43,-9.43 191.69,-9.99 201.00,-10.31 204.24,-9.45 207.04,-7.60 209.10,-4.96 210.21,-1.79 210.24,1.56 209.21,4.75 207.21,7.44 204.46,9.35 201.24,10.29 197.89,10.14 194.76,8.94 192.18,6.80 190.42,3.94 189.66,0.68 189.99,-2.66 191.36,-5.72 193.64,-8.18 196.58,-9.78 199.88,-10.36 203.20,-9.86 206.18,-8.32 208.51,-5.91 209.95,-2.88 210.35,0.45 209.67,3.73 207.97,6.62 205.44,8.82 202.34,10.09 200.69,10.48 192.38,10.99 173.63,11.57 152.26,12.06 130.38,12.50 108.00,12.50 84.76,12.51 61.69,12.53 39.19,12.65 16.60,13.04 2.80,13.42 -0.92,13.38 -3.38,12.86 -5.64,11.76 -7.58,10.16 -9.07,8.14 -10.03,5.82 -10.42,3.34 -10.20,0.83 -9.38,-1.54 -8.02,-3.66 -6.19,-5.38 -4.01,-6.62 -1.59,-7.30 Z" fill="#FFFFFF" stroke="transparent" stroke-width="0" stroke-linejoin="round" stroke-linecap="round" pointer-events="all" transform="translate(898, 290)"/><path id="path_a0bb1a6b-8d11-4a3a-33b6-c4852a223098" d="M10.49,-0.52 Q10.65,2.65 11.40,13.85 T12.78,35.74 14.27,56.98 15.82,79.17 16.26,92.47 15.25,95.67 13.28,98.38 10.54,100.31 7.33,101.28 3.98,101.16 0.84,99.98 -1.76,97.86 -3.55,95.03 -4.33,91.77 -4.04,88.43 -2.69,85.36 -0.43,82.88 2.50,81.25 5.79,80.64 9.11,81.12 12.10,82.63 14.46,85.02 15.93,88.03 16.36,91.35 15.70,94.64 14.03,97.55 11.52,99.77 8.43,101.07 5.08,101.32 1.84,100.49 -0.98,98.66 -3.06,96.03 -4.19,92.88 -4.50,91.21 -5.19,79.49 -6.74,57.26 -8.21,36.32 -9.58,14.79 -10.41,2.11 -10.40,-0.74 -9.92,-3.21 -8.86,-5.49 -7.29,-7.45 -5.30,-8.98 -3.00,-9.98 -0.52,-10.41 1.99,-10.23 4.38,-9.46 6.51,-8.14 8.27,-6.34 9.55,-4.18 10.27,-1.77 Z" fill="#FFFFFF" stroke="transparent" stroke-width="0" stroke-linejoin="round" stroke-linecap="round" pointer-events="all" transform="translate(1094, 202)"/><path id="path_8fda58b9-fa05-4fc1-3f37-3996181fb313" d="M15.48,0.58 Q15.33,3.44 14.98,14.25 T13.86,35.54 12.05,56.84 10.78,78.33 10.54,99.76 10.50,121.28 12.05,142.71 16.28,164.37 22.36,185.63 30.05,205.83 37.75,220.58 41.99,226.85 43.17,230.00 43.27,233.35 42.31,236.56 40.36,239.29 37.65,241.26 34.45,242.26 31.10,242.19 27.95,241.05 25.32,238.96 23.50,236.14 22.68,232.89 22.93,229.55 24.24,226.46 26.47,223.96 29.38,222.29 32.67,221.64 35.99,222.08 39.00,223.55 41.39,225.91 42.89,228.91 43.36,232.23 42.74,235.53 41.11,238.45 38.62,240.70 35.55,242.04 32.21,242.33 28.95,241.54 26.12,239.75 24.85,238.62 17.90,227.18 7.23,205.68 0.25,185.41 -5.44,164.38 -9.19,142.81 -10.50,121.27 -10.46,99.67 -10.20,77.65 -8.90,55.38 -7.09,33.75 -6.00,12.73 -5.56,0.84 -5.26,-1.83 -4.53,-4.23 -3.24,-6.39 -1.47,-8.17 0.68,-9.48 3.07,-10.24 5.58,-10.41 8.05,-9.97 10.35,-8.95 12.33,-7.41 13.89,-5.44 14.94,-3.15 15.40,-0.68 Z" fill="#FFFFFF" stroke="transparent" stroke-width="0" stroke-linejoin="round" stroke-linecap="round" pointer-events="all" transform="translate(868, 277)"/><path id="path_56f5aa65-29a7-4255-0e73-da295c5ebbc0" d="M-0.57,-3.48 Q5.30,-3.80 17.66,-4.71 T40.64,-6.65 63.43,-8.27 86.23,-9.09 107.49,-9.70 128.60,-10.23 150.62,-10.43 172.74,-10.48 193.93,-10.50 216.28,-10.50 229.68,-10.23 232.85,-9.15 235.52,-7.13 237.40,-4.35 238.30,-1.12 238.12,2.23 236.88,5.34 234.71,7.90 231.83,9.63 228.56,10.35 225.23,9.98 222.18,8.58 219.75,6.27 218.18,3.31 217.64,-0.00 218.18,-3.31 219.75,-6.27 222.19,-8.58 225.23,-9.98 228.56,-10.35 231.84,-9.63 234.71,-7.90 236.88,-5.34 238.12,-2.23 238.30,1.12 237.40,4.35 235.52,7.13 232.85,9.16 229.67,10.23 228.00,10.50 217.82,10.50 196.88,10.50 175.26,10.51 153.01,10.56 130.08,10.76 106.54,11.32 83.43,11.98 60.99,12.90 38.69,14.60 17.07,16.40 3.50,17.33 -0.70,17.40 -3.16,16.93 -5.45,15.89 -7.42,14.32 -8.95,12.33 -9.97,10.04 -10.41,7.56 -10.24,5.05 -9.48,2.66 -8.16,0.52 -6.37,-1.25 -4.22,-2.53 -1.81,-3.26 Z" fill="#FFFFFF" stroke="transparent" stroke-width="0" stroke-linejoin="round" stroke-linecap="round" pointer-events="all" transform="translate(904, 502)"/><path id="path_29343bfe-9f16-4a72-3eff-1aa0c7c9ce88" d="M10.39,-1.54 Q11.02,2.74 12.15,14.00 T13.74,36.20 14.61,57.60 16.20,78.70 19.56,100.07 24.37,121.12 30.45,141.79 37.56,161.89 46.96,180.96 55.85,192.33 60.22,195.56 62.21,198.26 63.24,201.45 63.20,204.80 62.09,207.96 60.03,210.61 57.24,212.46 53.99,213.31 50.65,213.09 47.55,211.81 45.02,209.61 43.33,206.72 42.65,203.43 43.05,200.11 44.50,197.08 46.83,194.67 49.81,193.14 53.13,192.64 56.43,193.22 59.37,194.83 61.65,197.29 63.02,200.35 63.34,203.69 62.58,206.95 60.81,209.81 58.23,211.94 55.10,213.15 51.75,213.29 48.53,212.35 47.00,211.62 44.56,209.99 34.88,200.74 23.37,183.42 15.73,163.75 9.02,143.62 3.15,122.99 -1.49,101.60 -4.78,79.84 -6.37,58.33 -7.23,37.16 -8.71,16.24 -10.07,3.68 -10.42,0.27 -10.18,-2.23 -9.35,-4.60 -7.98,-6.71 -6.14,-8.42 -3.95,-9.65 -1.53,-10.31 0.99,-10.38 3.44,-9.84 5.69,-8.73 7.62,-7.11 9.10,-5.08 10.05,-2.76 Z" fill="#FFFFFF" stroke="transparent" stroke-width="0" stroke-linejoin="round" stroke-linecap="round" pointer-events="all" transform="translate(1080, 295)"/><path id="path_6ff074a6-8380-4667-220e-887f1f84f64c" d="M18.50,0.00 Q18.50,3.33 18.50,14.40 T18.50,36.22 18.50,57.49 17.67,78.88 16.36,101.20 15.27,123.05 13.80,143.91 11.88,165.13 10.67,184.50 10.21,194.78 9.10,197.95 7.05,200.60 4.25,202.45 1.01,203.31 -2.33,203.10 -5.43,201.82 -7.97,199.63 -9.66,196.74 -10.35,193.45 -9.95,190.13 -8.52,187.10 -6.19,184.69 -3.21,183.15 0.11,182.64 3.41,183.22 6.36,184.82 8.64,187.27 10.01,190.33 10.34,193.67 9.59,196.94 7.83,199.79 5.25,201.93 2.12,203.14 -1.23,203.29 -4.45,202.36 -7.20,200.45 -9.21,197.76 -10.24,194.57 -10.50,192.89 -10.35,184.33 -9.15,165.24 -7.22,143.81 -5.72,122.47 -4.65,100.99 -3.34,78.98 -2.50,57.49 -2.50,36.22 -2.50,14.40 -2.50,1.66 -2.35,-1.26 -1.75,-3.70 -0.58,-5.92 1.09,-7.80 3.16,-9.23 5.51,-10.12 8.00,-10.42 10.50,-10.12 12.84,-9.23 14.91,-7.80 16.58,-5.92 17.75,-3.70 18.35,-1.26 Z" fill="#FFFFFF" stroke="transparent" stroke-width="0" stroke-linejoin="round" stroke-linecap="round" pointer-events="all" transform="translate(844, 266)"/><path id="path_4fd77774-a310-4eff-3dc2-96150eb5c9d4" d="M8.90,-5.56 Q10.49,-3.03 17.85,4.56 T30.57,12.84 37.59,13.97 40.66,15.32 43.13,17.58 44.76,20.51 45.36,23.81 44.88,27.13 43.36,30.12 40.97,32.47 37.95,33.93 34.63,34.35 31.34,33.69 28.44,32.02 26.22,29.50 24.92,26.41 24.68,23.07 25.52,19.82 27.35,17.01 29.98,14.93 33.14,13.81 36.49,13.75 39.69,14.76 42.39,16.74 44.32,19.48 45.28,22.69 45.16,26.04 43.97,29.18 41.85,31.78 39.01,33.56 35.75,34.33 34.05,34.46 29.65,34.02 15.50,29.20 -0.78,16.46 -8.11,6.83 -9.44,4.42 -10.22,2.03 -10.41,-0.47 -10.00,-2.95 -9.00,-5.26 -7.48,-7.26 -5.52,-8.84 -3.25,-9.90 -0.78,-10.39 1.73,-10.28 4.14,-9.57 6.31,-8.30 8.11,-6.55 Z" fill="#FFFFFF" stroke="transparent" stroke-width="0" stroke-linejoin="round" stroke-linecap="round" pointer-events="all" transform="translate(845, 460)"/><path id="path_78bcd924-a6e0-491b-2978-53cba630f9f0" d="M-9.90,52.49 Q-8.15,47.57 -4.12,37.98 T10.74,23.72 26.70,28.15 34.03,47.59 38.20,69.73 41.37,69.70 46.02,46.76 52.77,25.29 61.85,6.00 78.29,0.80 92.05,15.06 96.26,36.10 97.91,58.38 101.86,58.99 109.25,38.20 120.52,20.86 135.65,20.08 146.29,37.21 151.06,58.18 156.49,79.81 160.23,92.34 160.22,95.70 159.14,98.87 157.11,101.54 154.33,103.41 151.10,104.30 147.75,104.11 144.64,102.87 142.09,100.69 140.37,97.81 139.65,94.54 140.02,91.21 141.44,88.17 143.75,85.74 146.71,84.17 150.02,83.64 153.33,84.19 156.29,85.76 158.59,88.20 159.99,91.25 160.35,94.58 159.62,97.86 157.88,100.73 155.32,102.89 152.20,104.12 148.86,104.30 145.63,103.39 142.86,101.51 140.83,98.83 140.04,97.33 136.62,87.34 131.25,66.03 131.88,43.35 130.27,42.15 121.25,63.23 111.14,83.45 96.15,96.82 82.11,91.05 77.40,70.43 76.07,46.64 77.90,23.36 76.43,22.85 69.02,43.51 62.03,65.17 53.25,85.93 36.90,97.91 21.71,88.49 16.32,66.77 17.66,45.68 16.14,44.75 10.77,57.05 9.33,60.64 7.95,62.74 6.10,64.45 3.90,65.66 1.48,66.32 -1.03,66.37 -3.49,65.82 -5.74,64.70 -7.65,63.08 -9.12,61.04 -10.06,58.71 -10.42,56.22 -10.17,53.72 Z" fill="#FFFFFF" stroke="transparent" stroke-width="0" stroke-linejoin="round" stroke-linecap="round" pointer-events="all" transform="translate(897, 311)"/><path id="path_01ef776a-fa9f-4351-0680-5c02a2d06e10" d="M-3.63,9.15 Q-0.62,8.04 10.05,7.75 T32.69,4.77 47.37,12.71 56.89,15.10 74.14,7.02 95.33,9.84 102.27,10.43 99.32,7.45 101.22,5.80 103.45,4.65 105.90,4.07 108.41,4.09 110.84,4.72 113.06,5.91 114.92,7.59 116.33,9.67 117.20,12.03 117.48,14.53 117.15,17.02 116.24,19.36 126.17,14.37 146.78,12.79 165.59,24.71 174.83,33.73 175.36,37.04 174.81,40.35 173.22,43.30 170.78,45.60 167.73,46.99 164.40,47.34 161.13,46.61 158.26,44.87 156.10,42.31 154.87,39.19 154.70,35.84 155.61,32.61 157.51,29.84 160.18,27.83 163.36,26.77 166.72,26.78 169.89,27.86 172.55,29.90 174.42,32.69 175.31,35.92 175.11,39.27 173.86,42.38 171.68,44.92 168.80,46.64 165.52,47.35 162.19,46.97 159.15,45.55 156.73,43.24 155.70,41.88 157.47,37.64 148.31,35.45 126.74,37.98 105.89,35.28 97.08,20.25 99.32,7.45 101.22,5.80 103.45,4.65 105.90,4.07 108.41,4.09 110.84,4.72 113.06,5.91 114.92,7.59 116.33,9.67 117.20,12.03 117.48,14.53 117.15,17.02 116.24,19.36 115.36,20.72 106.29,26.56 88.17,26.77 70.91,28.76 52.58,28.57 34.94,29.22 17.16,32.59 5.14,28.30 2.40,29.14 -0.10,29.42 -2.59,29.10 -4.93,28.18 -6.99,26.74 -8.63,24.84 -9.78,22.60 -10.36,20.16 -10.33,17.64 -9.71,15.21 -8.52,13.00 -6.84,11.13 -4.76,9.72 Z" fill="#FFFFFF" stroke="transparent" stroke-width="0" stroke-linejoin="round" stroke-linecap="round" pointer-events="all" transform="translate(914, 431)"/></svg>