<svg xmlns="http://www.w3.org/2000/svg" viewBox="804 247 457 340" width="20" height="20"><path id="path_d3060751-b65f-46c5-3244-c252fe671be9" d="M10.50,0.00 Q10.50,6.34 10.50,19.57 T10.50,44.46 10.50,66.70 10.78,89.47 11.48,114.54 12.56,139.89 13.85,165.94 14.29,181.20 13.37,184.42 11.47,187.18 8.78,189.19 5.60,190.24 2.25,190.21 -0.92,189.12 -3.58,187.07 -5.44,184.28 -6.31,181.04 -6.10,177.69 -4.84,174.59 -2.65,172.05 0.24,170.34 3.52,169.65 6.85,170.04 9.88,171.47 12.30,173.79 13.84,176.77 14.36,180.08 13.79,183.39 12.20,186.34 9.75,188.62 6.69,190.01 3.36,190.34 0.09,189.60 -2.77,187.84 -4.92,185.27 -6.14,182.15 -6.49,180.49 -7.24,164.74 -8.54,138.43 -9.50,115.32 -10.20,90.03 -10.50,66.70 -10.50,44.46 -10.50,19.57 -10.50,3.17 -10.35,-1.26 -9.75,-3.70 -8.58,-5.92 -6.91,-7.80 -4.84,-9.23 -2.49,-10.12 0.00,-10.42 2.50,-10.12 4.84,-9.23 6.91,-7.80 8.58,-5.92 9.75,-3.70 10.35,-1.26 Z" fill="#FFFFFF" stroke="transparent" stroke-width="0" stroke-linejoin="round" stroke-linecap="round" pointer-events="all" transform="translate(1025, 367)"/><path id="path_54c6fa1e-fe13-4380-2b4b-e26d72e52854" d="M116.81,82.55 Q115.86,78.74 111.57,68.01 T100.86,48.99 86.51,33.28 69.65,19.91 49.97,12.43 28.59,10.71 11.11,12.56 2.61,15.03 -0.73,15.34 -3.99,14.56 -6.84,12.78 -8.97,10.19 -10.16,7.06 -10.28,3.71 -9.33,0.49 -7.40,-2.25 -4.70,-4.23 -1.51,-5.25 1.85,-5.20 5.01,-4.07 7.64,-2.00 9.48,0.81 10.32,4.05 10.08,7.40 8.79,10.49 6.57,13.01 3.67,14.69 0.39,15.35 -2.94,14.94 -5.96,13.48 -8.35,11.13 -9.87,8.14 -10.36,4.83 -9.76,1.53 -8.14,-1.41 -5.67,-3.67 -4.25,-4.60 0.00,-6.43 14.83,-9.34 35.95,-10.02 56.92,-7.79 77.00,-0.33 94.67,12.39 110.42,27.65 123.72,44.92 132.76,63.82 136.71,75.55 137.34,78.71 137.35,81.22 136.76,83.66 135.60,85.89 133.94,87.78 131.87,89.21 129.53,90.11 127.03,90.42 124.54,90.13 122.19,89.25 120.11,87.82 118.44,85.95 117.27,83.73 Z" fill="#FFFFFF" stroke="transparent" stroke-width="0" stroke-linejoin="round" stroke-linecap="round" pointer-events="all" transform="translate(898, 287)"/><path id="path_a7ab1ab6-3205-44be-0267-8d427c5b84bd" d="M18.44,1.10 Q18.13,4.11 16.81,15.41 T15.03,37.38 14.53,58.91 14.50,80.83 14.50,102.33 13.79,123.29 12.12,144.56 10.82,160.04 10.08,166.41 8.78,169.50 6.57,172.01 3.66,173.69 0.38,174.35 -2.95,173.93 -5.97,172.47 -8.36,170.12 -9.88,167.13 -10.36,163.82 -9.76,160.52 -8.14,157.58 -5.66,155.32 -2.59,153.97 0.75,153.67 4.01,154.44 6.85,156.22 8.97,158.82 10.16,161.95 10.28,165.30 9.32,168.52 7.39,171.26 4.69,173.24 1.49,174.25 -1.86,174.19 -5.02,173.07 -7.65,170.99 -9.48,168.18 -10.32,164.93 -10.47,163.24 -10.04,157.54 -8.65,141.16 -7.10,119.70 -6.50,98.28 -6.50,76.77 -6.44,54.84 -5.74,33.40 -3.92,12.46 -2.60,0.41 -2.16,-2.33 -1.31,-4.70 0.09,-6.79 1.94,-8.48 4.15,-9.69 6.58,-10.33 9.09,-10.37 11.54,-9.80 13.78,-8.67 15.69,-7.04 17.15,-4.99 18.08,-2.65 18.42,-0.17 Z" fill="#FFFFFF" stroke="transparent" stroke-width="0" stroke-linejoin="round" stroke-linecap="round" pointer-events="all" transform="translate(890, 296)"/><path id="path_58970211-e816-4d80-373b-54850b130442" d="M-3.90,-0.75 Q-0.73,-2.02 9.56,-5.48 T31.16,-7.48 51.89,-1.59 71.18,8.56 89.54,20.39 105.91,34.51 120.54,51.79 132.74,70.40 141.18,84.31 144.75,90.48 145.36,93.78 144.89,97.09 143.38,100.09 141.00,102.45 137.99,103.92 134.66,104.36 131.37,103.71 128.46,102.04 126.24,99.53 124.93,96.45 124.68,93.10 125.50,89.85 127.33,87.04 129.95,84.95 133.10,83.81 136.46,83.74 139.66,84.74 142.37,86.71 144.31,89.45 145.27,92.66 145.16,96.01 143.99,99.15 141.88,101.75 139.04,103.54 135.78,104.33 132.44,104.04 129.37,102.70 126.89,100.45 125.83,99.12 124.82,97.16 118.02,85.69 105.43,66.72 90.82,49.27 74.13,35.24 56.05,24.16 36.94,15.18 17.06,14.37 5.48,18.11 2.68,19.07 0.19,19.42 -2.31,19.16 -4.68,18.32 -6.77,16.93 -8.47,15.07 -9.68,12.87 -10.32,10.44 -10.37,7.93 -9.81,5.48 -8.68,3.23 -7.05,1.32 -5.01,-0.14 Z" fill="#FFFFFF" stroke="transparent" stroke-width="0" stroke-linejoin="round" stroke-linecap="round" pointer-events="all" transform="translate(890, 452)"/><path id="path_159d02e0-6ae5-4b0c-3409-346060f69e10" d="M-9.58,73.69 Q-8.15,70.52 -3.64,61.09 T6.74,43.03 19.61,26.52 35.74,11.58 54.52,0.36 74.31,-6.45 95.13,-9.28 113.34,-5.88 122.25,-1.27 124.56,1.16 125.98,4.20 126.35,7.53 125.64,10.81 123.92,13.68 121.37,15.86 118.26,17.11 114.91,17.30 111.68,16.42 108.90,14.54 106.86,11.88 105.78,8.71 105.77,5.35 106.83,2.17 108.85,-0.50 111.62,-2.39 114.85,-3.30 118.20,-3.13 121.32,-1.89 123.88,0.27 125.61,3.14 126.34,6.41 125.99,9.74 124.59,12.79 122.29,15.23 119.34,16.81 116.03,17.36 112.72,16.83 111.11,16.29 100.16,13.86 78.85,14.25 58.81,21.72 41.51,33.91 27.31,50.49 15.86,69.33 10.29,80.72 8.92,83.39 7.37,85.37 5.39,86.92 3.10,87.95 0.63,88.40 -1.88,88.25 -4.28,87.51 -6.43,86.21 -8.21,84.43 -9.51,82.28 -10.25,79.88 -10.40,77.37 -9.95,74.90 Z" fill="#FFFFFF" stroke="transparent" stroke-width="0" stroke-linejoin="round" stroke-linecap="round" pointer-events="all" transform="translate(1027, 290)"/><path id="path_76847728-b5c1-4eb1-1cd8-b8913f0e7323" d="M10.36,-1.73 Q10.83,1.13 13.35,11.99 T18.52,33.47 22.63,54.63 25.94,75.42 29.74,96.49 32.56,117.69 33.93,140.88 34.35,155.38 33.69,158.67 32.01,161.57 29.49,163.78 26.40,165.08 23.06,165.32 19.81,164.48 17.01,162.64 14.93,160.01 13.81,156.85 13.75,153.50 14.76,150.30 16.75,147.60 19.49,145.67 22.70,144.72 26.05,144.84 29.19,146.03 31.78,148.16 33.56,151.00 34.34,154.26 34.03,157.60 32.67,160.67 30.41,163.14 27.48,164.76 24.18,165.36 20.86,164.87 17.87,163.35 15.52,160.96 14.06,157.94 13.58,156.31 13.01,142.98 11.56,119.20 8.77,98.53 5.03,77.93 1.75,57.11 -2.30,36.29 -7.40,15.25 -10.12,3.15 -10.41,0.46 -10.22,-2.04 -9.43,-4.43 -8.10,-6.56 -6.30,-8.31 -4.12,-9.57 -1.71,-10.28 0.80,-10.39 3.26,-9.90 5.54,-8.83 7.49,-7.25 9.01,-5.25 10.00,-2.94 Z" fill="#FFFFFF" stroke="transparent" stroke-width="0" stroke-linejoin="round" stroke-linecap="round" pointer-events="all" transform="translate(1144, 301)"/><path id="path_e3df6453-54b0-408a-19d7-bdbb066221cc" d="M-8.90,89.44 Q-7.32,86.90 -1.76,77.57 T9.22,59.00 21.24,41.44 34.64,25.17 49.83,9.87 67.80,-2.96 87.96,-9.43 109.07,-10.46 130.40,-7.64 144.68,-2.14 149.36,1.71 151.31,4.44 152.27,7.66 152.17,11.01 150.99,14.15 148.88,16.75 146.04,18.54 142.79,19.33 139.45,19.04 136.37,17.70 133.89,15.45 132.25,12.52 131.64,9.23 132.11,5.91 133.62,2.91 136.00,0.55 139.01,-0.92 142.34,-1.36 145.63,-0.71 148.54,0.96 150.76,3.47 152.07,6.55 152.32,9.90 151.50,13.15 149.67,15.96 147.05,18.05 143.90,19.19 140.54,19.26 137.35,18.26 135.83,17.49 127.72,14.00 109.22,10.54 88.49,12.34 69.37,21.04 53.36,36.05 39.21,52.66 27.04,70.20 16.15,88.62 9.70,99.30 8.11,101.55 6.31,103.30 4.14,104.57 1.73,105.28 -0.78,105.39 -3.25,104.90 -5.52,103.84 -7.48,102.26 -9.00,100.26 -10.00,97.95 -10.41,95.47 -10.22,92.97 -9.44,90.58 Z" fill="#FFFFFF" stroke="transparent" stroke-width="0" stroke-linejoin="round" stroke-linecap="round" pointer-events="all" transform="translate(1028, 450)"/><path id="path_392b8795-da53-4c27-0451-3b88b5e24fa2" d="M171.06,35.26 Q168.68,34.00 158.96,29.15 T139.08,20.08 118.46,13.52 96.97,10.87 75.35,10.55 54.31,10.51 33.50,13.04 13.47,19.18 2.15,23.14 -1.20,23.29 -4.43,22.37 -7.19,20.47 -9.19,17.78 -10.24,14.59 -10.21,11.24 -9.12,8.07 -7.07,5.42 -4.28,3.56 -1.04,2.69 2.31,2.90 5.41,4.16 7.95,6.36 9.66,9.24 10.35,12.52 9.96,15.85 8.53,18.88 6.20,21.30 3.23,22.85 -0.08,23.36 -3.39,22.79 -6.34,21.20 -8.62,18.74 -10.01,15.69 -10.34,12.35 -9.59,9.09 -7.84,6.23 -5.27,4.08 -3.81,3.21 2.87,0.75 20.27,-5.29 41.85,-9.68 63.27,-10.48 84.65,-10.41 105.87,-9.59 126.73,-6.18 147.87,0.96 168.55,10.47 179.75,16.10 181.98,17.46 183.85,19.14 185.26,21.22 186.14,23.57 186.42,26.07 186.10,28.56 185.20,30.91 183.76,32.96 181.86,34.62 179.63,35.77 177.19,36.36 174.67,36.34 172.24,35.72 Z" fill="#FFFFFF" stroke="transparent" stroke-width="0" stroke-linejoin="round" stroke-linecap="round" pointer-events="all" transform="translate(849, 521)"/><path id="path_fa7df092-9d2a-42e4-24cc-939c32faf58d" d="M-7.49,160.50 Q-7.33,157.17 -6.99,146.23 T-7.26,124.27 -8.95,102.41 -10.26,80.61 -10.49,59.01 -9.71,37.91 -8.72,16.88 -8.51,3.14 -8.22,-1.69 -7.15,-4.87 -5.11,-7.53 -2.33,-9.41 0.90,-10.30 4.24,-10.12 7.36,-8.87 9.91,-6.69 11.63,-3.82 12.35,-0.54 11.98,2.79 10.57,5.83 8.26,8.26 5.29,9.83 1.98,10.36 -1.33,9.81 -4.29,8.24 -6.59,5.80 -7.99,2.75 -8.35,-0.58 -7.62,-3.85 -5.88,-6.72 -3.33,-8.89 -0.21,-10.12 3.14,-10.30 6.37,-9.40 9.14,-7.51 11.16,-4.84 12.23,-1.66 12.50,0.02 12.49,5.18 12.13,21.00 11.14,42.53 10.52,63.81 10.96,84.69 12.49,105.63 13.96,126.68 13.98,147.72 13.57,159.84 13.28,162.75 12.56,165.16 11.29,167.32 9.53,169.12 7.40,170.45 5.01,171.23 2.50,171.41 0.03,170.99 -2.28,169.99 -4.28,168.46 -5.85,166.51 -6.91,164.23 -7.40,161.76 Z" fill="#FFFFFF" stroke="transparent" stroke-width="0" stroke-linejoin="round" stroke-linecap="round" pointer-events="all" transform="translate(844, 373)"/><path id="path_208946a3-0290-4ff2-0df4-8fc38c5f986a" d="M-3.69,-2.83 Q-1.15,-3.78 9.12,-6.52 T31.11,-9.88 44.52,-10.25 47.71,-9.23 50.41,-7.24 52.34,-4.49 53.28,-1.28 53.15,2.07 51.96,5.21 49.83,7.79 46.98,9.57 43.72,10.34 40.38,10.03 37.32,8.66 34.85,6.40 33.23,3.46 32.64,0.16 33.13,-3.16 34.66,-6.14 37.06,-8.49 40.08,-9.94 43.40,-10.35 46.69,-9.68 49.59,-8.00 51.80,-5.48 53.08,-2.38 53.32,0.96 52.47,4.21 50.63,7.01 47.99,9.08 44.83,10.20 43.16,10.50 34.99,10.76 16.52,13.45 4.95,16.36 2.46,17.13 -0.04,17.42 -2.53,17.11 -4.88,16.21 -6.94,14.78 -8.60,12.89 -9.76,10.66 -10.35,8.22 -10.34,5.70 -9.73,3.27 -8.56,1.05 -6.88,-0.83 -4.81,-2.25 Z" fill="#FFFFFF" stroke="transparent" stroke-width="0" stroke-linejoin="round" stroke-linecap="round" pointer-events="all" transform="translate(845, 364)"/><path id="path_a0a2f784-3f86-4ab8-2dc1-944829bfdb1c" d="M-5.70,14.18 Q-3.01,12.44 6.80,7.37 T27.38,-0.77 49.37,-5.35 71.03,-8.27 92.62,-10.04 114.35,-10.24 135.58,-8.28 156.47,-4.27 177.52,1.21 191.69,5.90 196.52,8.23 199.03,10.45 200.70,13.36 201.36,16.65 200.93,19.97 199.46,22.99 197.10,25.38 194.11,26.88 190.79,27.36 187.49,26.75 184.56,25.12 182.31,22.64 180.96,19.57 180.67,16.23 181.45,12.97 183.24,10.13 185.84,8.01 188.98,6.84 192.33,6.72 195.54,7.69 198.28,9.63 200.25,12.34 201.26,15.53 201.19,18.89 200.05,22.04 197.97,24.67 195.16,26.49 191.91,27.32 188.56,27.07 186.91,26.67 173.24,22.19 148.73,15.50 126.42,11.90 103.95,10.65 82.11,11.81 60.50,14.33 39.29,17.96 18.61,25.08 7.05,30.94 4.57,32.37 2.19,33.19 -0.31,33.42 -2.80,33.04 -5.12,32.08 -7.14,30.59 -8.75,28.66 -9.85,26.40 -10.38,23.95 -10.31,21.43 -9.63,19.01 -8.40,16.82 -6.68,14.99 Z" fill="#FFFFFF" stroke="transparent" stroke-width="0" stroke-linejoin="round" stroke-linecap="round" pointer-events="all" transform="translate(1027, 521)"/><path id="path_36c3699a-5292-4e51-3019-170c113dea7d" d="M7.51,166.50 Q7.67,163.17 7.03,152.39 T5.41,130.62 3.63,109.19 1.05,88.18 -2.64,66.88 -5.91,45.46 -8.07,24.02 -9.64,7.36 -10.36,-0.24 -9.74,-3.54 -8.10,-6.46 -5.61,-8.71 -2.54,-10.05 0.81,-10.33 4.06,-9.53 6.89,-7.74 9.00,-5.13 10.17,-1.99 10.27,1.36 9.30,4.57 7.35,7.30 4.64,9.27 1.43,10.26 -1.92,10.18 -5.07,9.04 -7.69,6.95 -9.50,4.13 -10.32,0.88 -10.06,-2.47 -8.75,-5.55 -6.52,-8.05 -3.60,-9.71 -0.31,-10.36 3.01,-9.92 6.02,-8.44 8.40,-6.07 9.90,-3.07 10.40,-1.45 11.25,5.31 12.90,22.97 15.16,44.61 18.70,66.56 22.38,88.40 24.82,109.65 26.61,130.87 28.09,152.81 28.57,165.83 28.28,168.75 27.56,171.16 26.29,173.32 24.53,175.12 22.40,176.45 20.01,177.23 17.50,177.41 15.03,176.99 12.72,175.99 10.72,174.46 9.15,172.51 8.09,170.23 7.60,167.76 Z" fill="#FFFFFF" stroke="transparent" stroke-width="0" stroke-linejoin="round" stroke-linecap="round" pointer-events="all" transform="translate(1202, 370)"/><path id="path_b95b71b5-ae93-42f9-03ab-75ad9b03afe7" d="M-0.65,-8.48 Q1.88,-8.64 12.78,-9.48 T36.06,-4.81 49.60,1.95 51.45,4.75 52.31,7.99 52.10,11.33 50.82,14.43 48.62,16.97 45.73,18.67 42.45,19.35 39.12,18.95 36.10,17.51 33.69,15.18 32.15,12.20 31.64,8.89 32.22,5.59 33.82,2.64 36.28,0.36 39.33,-1.01 42.67,-1.34 45.94,-0.58 48.79,1.17 50.93,3.75 52.14,6.88 52.29,10.23 51.36,13.45 49.45,16.21 46.76,18.21 43.57,19.24 40.21,19.21 37.05,18.10 35.56,17.29 29.90,13.98 13.72,11.49 1.92,12.40 -0.61,12.41 -3.08,11.96 -5.37,10.93 -7.36,9.39 -8.91,7.41 -9.95,5.12 -10.40,2.65 -10.26,0.14 -9.51,-2.26 -8.22,-4.41 -6.44,-6.19 -4.30,-7.50 -1.90,-8.25 Z" fill="#FFFFFF" stroke="transparent" stroke-width="0" stroke-linejoin="round" stroke-linecap="round" pointer-events="all" transform="translate(1160, 361)"/></svg>