<svg xmlns="http://www.w3.org/2000/svg" viewBox="759 128 437 473" width="20" height="20"><path id="path_2356229f-c4e0-4593-110c-e6e6bd1a8793" d="M55.56,258.16 Q55.25,255.31 54.21,244.24 T52.85,222.30 47.48,202.21 36.28,184.17 23.09,166.99 10.08,150.03 -0.08,130.92 -6.47,109.85 -8.84,88.03 -6.55,66.58 0.19,46.48 10.50,27.14 24.43,9.97 42.42,-3.15 63.16,-9.25 84.31,-8.76 106.04,-4.01 126.47,4.47 144.36,16.01 159.70,31.39 170.71,50.02 176.67,70.65 177.07,91.91 172.40,112.37 164.28,131.89 153.52,150.73 141.64,168.88 130.95,186.87 123.57,206.26 120.12,227.17 118.80,247.49 118.20,258.81 117.09,261.97 115.03,264.61 112.23,266.46 108.99,267.31 105.64,267.09 102.55,265.81 100.02,263.61 98.33,260.71 97.65,257.43 98.05,254.10 99.50,251.08 101.84,248.67 104.82,247.14 108.13,246.64 111.43,247.22 114.38,248.83 116.65,251.30 118.02,254.36 118.34,257.69 117.58,260.96 115.81,263.81 113.23,265.95 110.10,267.15 106.75,267.29 103.53,266.35 100.78,264.43 98.78,261.73 97.75,258.54 97.50,256.87 97.68,248.81 98.64,230.32 100.84,209.44 106.67,189.53 116.49,170.44 127.67,152.15 139.17,134.58 148.86,115.94 155.07,95.62 155.87,74.51 149.30,54.25 135.88,36.96 118.37,24.14 98.44,15.63 76.13,11.87 54.23,15.84 36.16,28.60 23.53,46.15 15.48,65.64 12.37,87.54 14.91,109.42 22.34,129.21 34.07,147.19 47.51,164.06 60.14,181.44 69.81,200.33 73.81,220.83 75.11,242.17 76.28,254.41 76.42,257.11 76.09,259.60 75.18,261.94 73.73,263.99 71.83,265.64 69.60,266.78 67.15,267.36 64.64,267.33 62.20,266.71 59.99,265.52 58.13,263.83 56.72,261.75 55.85,259.39 Z" fill="#FFFFFF" stroke="transparent" stroke-width="0" stroke-linejoin="round" stroke-linecap="round" pointer-events="all" transform="translate(898, 268)"/><path id="path_63cb74f0-6bf8-43b5-3f31-282ff5f386b9" d="M8.83,-2.68 Q10.26,-0.46 20.73,1.66 T31.44,0.93 32.25,-3.51 33.88,-6.44 36.36,-8.70 39.44,-10.04 42.78,-10.33 46.03,-9.54 48.87,-7.76 50.99,-5.16 52.16,-2.02 52.28,1.33 51.31,4.55 49.37,7.28 46.66,9.25 43.46,10.26 40.11,10.19 36.96,9.05 34.33,6.97 32.51,4.15 31.68,0.90 31.93,-2.44 33.24,-5.53 35.46,-8.04 38.37,-9.70 41.66,-10.36 44.98,-9.92 47.99,-8.45 50.38,-6.10 51.89,-3.10 52.36,0.22 52.32,1.91 48.49,10.96 36.33,26.22 17.56,30.24 -0.14,19.47 -8.12,9.79 -9.38,7.54 -10.20,5.16 -10.42,2.66 -10.03,0.17 -9.07,-2.14 -7.57,-4.16 -5.64,-5.77 -3.37,-6.86 -0.92,-7.38 1.60,-7.30 4.01,-6.62 6.20,-5.38 8.03,-3.65 Z" fill="#FFFFFF" stroke="transparent" stroke-width="0" stroke-linejoin="round" stroke-linecap="round" pointer-events="all" transform="translate(965, 524)"/><path id="path_5a9499c2-42b5-40ab-2873-342a6ac3b315" d="M8.83,-3.68 Q10.26,-1.46 14.37,-2.94 T19.43,-5.83 21.74,-8.26 24.71,-9.83 28.02,-10.36 31.33,-9.81 34.29,-8.24 36.59,-5.80 37.99,-2.75 38.35,0.58 37.62,3.85 35.88,6.72 33.33,8.89 30.21,10.12 26.86,10.30 23.63,9.40 20.86,7.51 18.84,4.84 17.77,1.66 17.78,-1.70 18.85,-4.87 20.89,-7.54 23.67,-9.41 26.90,-10.30 30.25,-10.11 33.36,-8.87 35.91,-6.69 37.63,-3.82 38.35,-0.54 37.98,2.79 37.52,4.43 33.55,10.81 19.47,20.33 0.97,16.67 -8.12,8.79 -9.38,6.54 -10.20,4.16 -10.42,1.66 -10.03,-0.83 -9.07,-3.14 -7.57,-5.16 -5.64,-6.77 -3.37,-7.86 -0.92,-8.38 1.60,-8.30 4.01,-7.62 6.20,-6.38 8.03,-4.65 Z" fill="#FFFFFF" stroke="transparent" stroke-width="0" stroke-linejoin="round" stroke-linecap="round" pointer-events="all" transform="translate(972, 545)"/><path id="path_ed366e5c-7d1e-4e21-07de-294e4420470a" d="M1.94,-10.32 Q4.47,-9.84 14.63,-7.17 T32.09,-3.99 41.07,-3.15 44.20,-1.96 46.79,0.17 48.56,3.01 49.34,6.27 49.03,9.61 47.67,12.68 45.40,15.15 42.46,16.77 39.16,17.36 35.85,16.87 32.86,15.35 30.52,12.95 29.06,9.93 28.65,6.60 29.31,3.32 31.00,0.42 33.52,-1.79 36.61,-3.08 39.96,-3.32 43.20,-2.47 46.01,-0.63 48.08,2.00 49.20,5.16 49.25,8.52 48.23,11.71 46.24,14.41 43.50,16.33 40.28,17.28 38.60,17.49 29.73,16.82 10.73,13.47 -0.67,10.56 -3.14,9.94 -5.43,8.90 -7.40,7.34 -8.94,5.36 -9.96,3.06 -10.41,0.59 -10.24,-1.92 -9.49,-4.32 -8.18,-6.46 -6.39,-8.23 -4.24,-9.52 -1.84,-10.26 0.67,-10.40 Z" fill="#FFFFFF" stroke="transparent" stroke-width="0" stroke-linejoin="round" stroke-linecap="round" pointer-events="all" transform="translate(964, 503)"/><path id="path_d5f214cb-4872-4ad8-3a56-8813efdade31" d="M1.30,-10.42 Q3.84,-10.10 14.57,-9.36 T35.66,-8.56 47.69,-8.22 50.87,-7.15 53.54,-5.11 55.41,-2.33 56.30,0.90 56.12,4.25 54.87,7.36 52.69,9.91 49.82,11.63 46.54,12.35 43.21,11.98 40.17,10.57 37.74,8.25 36.17,5.29 35.64,1.98 36.19,-1.33 37.76,-4.29 40.20,-6.59 43.25,-7.99 46.58,-8.35 49.85,-7.62 52.72,-5.88 54.89,-3.32 56.12,-0.21 56.30,3.14 55.40,6.37 53.51,9.14 50.83,11.16 47.66,12.23 45.98,12.50 34.25,12.41 11.88,11.53 -0.03,10.58 -2.53,10.11 -4.88,9.21 -6.94,7.78 -8.60,5.89 -9.76,3.66 -10.35,1.22 -10.34,-1.29 -9.73,-3.73 -8.56,-5.95 -6.88,-7.83 -4.81,-9.25 -2.46,-10.13 0.04,-10.42 Z" fill="#FFFFFF" stroke="transparent" stroke-width="0" stroke-linejoin="round" stroke-linecap="round" pointer-events="all" transform="translate(962, 475)"/><path id="path_5268a1d7-ef48-4447-226c-e64a8c887d62" d="M-10.50,60.00 Q-10.50,56.04 -10.50,45.32 T-9.58,24.07 -7.54,6.16 -5.97,-2.83 -4.54,-5.87 -2.22,-8.29 0.75,-9.84 4.06,-10.36 7.37,-9.80 10.32,-8.21 12.61,-5.76 14.00,-2.71 14.34,0.62 13.60,3.89 11.86,6.76 9.29,8.91 6.17,10.13 2.82,10.29 -0.41,9.38 -3.17,7.48 -5.18,4.80 -6.24,1.61 -6.21,-1.74 -5.12,-4.91 -3.08,-7.57 -0.29,-9.43 2.94,-10.31 6.29,-10.11 9.40,-8.85 11.94,-6.66 13.65,-3.78 14.35,-0.50 14.43,1.20 13.61,7.40 11.65,24.11 10.50,45.33 10.50,58.02 10.35,61.26 9.75,63.70 8.58,65.92 6.91,67.80 4.84,69.23 2.49,70.12 -0.00,70.42 -2.50,70.12 -4.84,69.23 -6.91,67.80 -8.58,65.92 -9.75,63.70 -10.35,61.26 Z" fill="#FFFFFF" stroke="transparent" stroke-width="0" stroke-linejoin="round" stroke-linecap="round" pointer-events="all" transform="translate(981, 168)"/><path id="path_88f91e75-3e24-4c79-0ac5-1ef683df4f99" d="M43.30,40.82 Q40.60,39.07 31.20,32.86 T12.42,20.74 -1.40,11.79 -7.06,7.58 -9.11,4.93 -10.21,1.77 -10.24,-1.59 -9.20,-4.77 -7.19,-7.46 -4.43,-9.37 -1.21,-10.29 2.14,-10.14 5.27,-8.92 7.84,-6.78 9.59,-3.92 10.34,-0.65 10.01,2.69 8.63,5.74 6.34,8.19 3.39,9.79 0.09,10.36 -3.22,9.85 -6.20,8.30 -8.53,5.89 -9.96,2.86 -10.35,-0.47 -9.66,-3.75 -7.95,-6.64 -5.42,-8.83 -2.31,-10.10 1.03,-10.31 4.27,-9.44 5.82,-8.74 10.86,-5.26 25.09,3.94 43.13,15.54 53.36,22.31 55.68,24.00 57.40,25.83 58.63,28.01 59.31,30.44 59.38,32.95 58.85,35.40 57.75,37.66 56.14,39.59 54.12,41.08 51.79,42.04 49.31,42.42 46.81,42.19 44.43,41.37 Z" fill="#FFFFFF" stroke="transparent" stroke-width="0" stroke-linejoin="round" stroke-linecap="round" pointer-events="all" transform="translate(850, 224)"/><path id="path_04b0587a-2de7-45d9-1318-0c2ae3998662" d="M-4.14,17.35 Q-0.81,15.92 9.11,11.30 T28.78,2.26 46.95,-5.80 57.00,-9.92 60.33,-10.36 63.62,-9.71 66.53,-8.05 68.76,-5.54 70.07,-2.46 70.32,0.89 69.50,4.14 67.68,6.95 65.06,9.04 61.91,10.18 58.55,10.26 55.35,9.26 52.64,7.29 50.70,4.56 49.73,1.35 49.83,-2.00 51.00,-5.14 53.12,-7.74 55.95,-9.54 59.21,-10.33 62.55,-10.04 65.62,-8.70 68.11,-6.45 69.74,-3.53 70.36,-0.23 69.89,3.09 68.39,6.08 66.00,8.44 64.62,9.43 55.62,13.32 36.93,21.61 17.36,30.62 5.80,35.94 2.92,37.01 0.44,37.41 -2.06,37.22 -4.45,36.43 -6.58,35.09 -8.32,33.28 -9.58,31.11 -10.28,28.69 -10.39,26.18 -9.89,23.72 -8.82,21.45 -7.24,19.50 -5.23,17.98 Z" fill="#FFFFFF" stroke="transparent" stroke-width="0" stroke-linejoin="round" stroke-linecap="round" pointer-events="all" transform="translate(1048, 227)"/><path id="path_0648add3-5496-4a4b-2205-06680beba0b1" d="M-1.82,-6.34 Q0.87,-6.82 11.41,-8.29 T32.37,-10.10 49.38,-10.47 57.64,-10.23 60.82,-9.17 63.50,-7.15 65.39,-4.38 66.30,-1.15 66.13,2.19 64.90,5.31 62.73,7.88 59.87,9.61 56.59,10.34 53.26,9.99 50.21,8.60 47.77,6.30 46.19,3.34 45.64,0.03 46.17,-3.28 47.73,-6.24 50.16,-8.56 53.20,-9.98 56.53,-10.35 59.80,-9.64 62.68,-7.92 64.86,-5.37 66.11,-2.26 66.30,1.09 65.42,4.32 63.54,7.10 60.88,9.14 57.71,10.22 56.03,10.50 51.16,10.52 35.73,10.80 14.85,12.46 3.17,14.10 0.56,14.41 -1.95,14.24 -4.34,13.48 -6.48,12.16 -8.25,10.37 -9.53,8.21 -10.26,5.81 -10.40,3.30 -9.93,0.83 -8.88,-1.45 -7.32,-3.42 -5.33,-4.96 -3.03,-5.97 Z" fill="#FFFFFF" stroke="transparent" stroke-width="0" stroke-linejoin="round" stroke-linecap="round" pointer-events="all" transform="translate(1100, 344)"/><path id="path_6d40b354-e716-494d-2258-1315e482e248" d="M70.00,11.50 Q67.15,11.50 56.63,11.29 T35.28,10.80 12.22,10.52 -1.68,10.22 -4.86,9.15 -7.52,7.12 -9.41,4.35 -10.30,1.12 -10.12,-2.23 -8.88,-5.34 -6.71,-7.90 -3.83,-9.63 -0.56,-10.35 2.78,-9.98 5.82,-8.57 8.25,-6.27 9.82,-3.30 10.36,0.00 9.82,3.31 8.25,6.27 5.81,8.58 2.77,9.99 -0.57,10.35 -3.84,9.62 -6.71,7.89 -8.88,5.34 -10.12,2.22 -10.30,-1.13 -9.40,-4.36 -7.52,-7.13 -4.85,-9.16 -1.67,-10.23 0.00,-10.50 12.27,-10.48 35.22,-10.22 56.53,-9.74 68.57,-9.50 71.26,-9.35 73.70,-8.75 75.92,-7.58 77.80,-5.91 79.23,-3.84 80.12,-1.49 80.42,1.00 80.12,3.50 79.23,5.84 77.80,7.91 75.92,9.58 73.70,10.75 71.26,11.35 Z" fill="#FFFFFF" stroke="transparent" stroke-width="0" stroke-linejoin="round" stroke-linecap="round" pointer-events="all" transform="translate(799, 348)"/><path id="path_b493cdde-577d-4d5b-1a4a-2f4e830e27cc" d="M40.42,7.42 Q38.52,9.33 31.14,16.95 T15.59,33.51 6.03,43.43 3.02,44.91 -0.30,45.36 -3.59,44.72 -6.51,43.07 -8.74,40.57 -10.06,37.48 -10.33,34.14 -9.51,30.89 -7.70,28.07 -5.08,25.97 -1.93,24.82 1.42,24.74 4.62,25.73 7.34,27.69 9.29,30.41 10.27,33.62 10.17,36.97 9.01,40.12 6.91,42.73 4.08,44.53 0.82,45.33 -2.52,45.05 -5.60,43.72 -8.09,41.48 -9.73,38.55 -10.36,35.26 -9.90,31.94 -8.40,28.94 -7.41,27.56 0.84,18.52 16.39,1.98 24.62,-6.47 26.57,-8.21 28.72,-9.51 31.12,-10.25 33.63,-10.40 36.10,-9.95 38.39,-8.92 40.37,-7.37 41.92,-5.39 42.95,-3.10 43.40,-0.63 43.25,1.88 42.50,4.28 41.20,6.43 Z" fill="#FFFFFF" stroke="transparent" stroke-width="0" stroke-linejoin="round" stroke-linecap="round" pointer-events="all" transform="translate(864, 438)"/><path id="path_9fc4387c-5ae8-499a-37ab-8223c00e8649" d="M6.62,-8.15 Q9.16,-6.09 17.17,1.21 T33.47,15.74 42.86,24.25 44.61,27.12 45.34,30.39 45.00,33.72 43.60,36.77 41.31,39.22 38.36,40.80 35.05,41.36 31.74,40.84 28.77,39.28 26.45,36.86 25.03,33.82 24.65,30.49 25.36,27.21 27.07,24.33 29.62,22.15 32.72,20.89 36.07,20.69 39.31,21.58 42.09,23.44 44.13,26.10 45.22,29.28 45.23,32.63 44.18,35.81 42.16,38.49 39.39,40.38 36.17,41.30 32.82,41.13 29.70,39.90 28.24,39.04 19.95,31.85 3.79,17.43 -5.35,9.18 -7.50,7.24 -9.01,5.23 -10.00,2.92 -10.41,0.44 -10.22,-2.06 -9.43,-4.45 -8.09,-6.57 -6.28,-8.32 -4.11,-9.58 -1.70,-10.28 0.81,-10.39 3.28,-9.89 5.55,-8.82 Z" fill="#FFFFFF" stroke="transparent" stroke-width="0" stroke-linejoin="round" stroke-linecap="round" pointer-events="all" transform="translate(1065, 437)"/></svg>