<svg xmlns="http://www.w3.org/2000/svg" viewBox="705 -29 510 583"><path id="path_ac9b7fab-c05a-4633-3e49-2ed6ec7e5836" d="M225.00,362.01 Q220.59,362.67 209.48,363.44 T186.85,364.59 163.83,363.96 141.21,360.78 118.54,355.73 96.06,348.37 75.37,337.25 58.04,322.45 44.37,304.69 32.63,284.48 22.28,263.33 13.94,242.69 7.47,222.42 1.94,200.45 -2.20,177.81 -4.35,155.96 -5.35,134.49 -3.47,112.54 2.24,91.25 11.17,72.34 23.65,54.58 38.45,38.85 55.73,25.45 74.75,14.48 94.10,6.22 116.24,0.21 138.89,-3.50 159.75,-5.64 180.98,-6.94 203.04,-6.74 225.15,-3.85 247.02,2.16 268.35,11.73 286.97,24.11 303.24,39.26 317.84,57.05 330.42,76.41 341.13,96.27 350.05,116.48 357.24,137.40 362.08,158.48 364.53,179.60 365.09,201.60 363.93,223.47 361.56,244.46 356.77,264.93 349.04,284.35 343.88,296.73 342.06,301.03 339.98,303.66 337.17,305.49 333.92,306.32 330.58,306.07 327.49,304.77 324.98,302.55 323.30,299.65 322.64,296.36 323.07,293.04 324.54,290.02 326.89,287.63 329.88,286.12 333.20,285.64 336.50,286.25 339.43,287.87 341.69,290.35 343.04,293.42 343.33,296.76 342.55,300.02 340.77,302.86 338.17,304.98 335.03,306.16 331.68,306.28 328.47,305.32 325.73,303.38 323.75,300.67 322.74,297.48 322.81,294.12 323.12,292.46 328.35,279.91 336.91,257.34 341.49,236.90 343.64,216.03 344.38,194.14 343.10,171.68 339.53,150.08 333.13,129.02 324.56,108.33 314.78,88.96 303.81,71.05 290.96,54.41 275.20,39.27 257.23,26.96 237.84,18.41 216.04,12.88 193.51,10.48 170.27,10.79 144.21,12.73 117.68,16.41 94.12,22.95 73.58,32.29 54.84,44.19 37.70,59.68 23.63,77.61 13.73,97.33 7.98,119.57 6.45,142.91 7.46,166.58 10.04,189.44 14.75,212.68 21.51,237.28 29.65,259.96 39.21,281.08 50.03,301.09 62.41,318.31 78.31,332.78 97.89,344.09 119.66,351.95 141.83,357.62 164.03,361.47 186.82,362.80 209.43,362.37 222.77,361.98 Z" fill="#FFFFFF" stroke="transparent" stroke-width="0" stroke-linejoin="round" stroke-linecap="round" pointer-events="all" transform="translate(745, 11)"/><path id="path_81f8bab9-3397-4f1e-3788-8a240d0c12e3" d="M0.01,-0.00 Q4.60,0.31 11.61,8.32 T25.83,23.89 42.02,41.31 52.06,52.49 53.72,55.41 54.36,58.70 53.91,62.02 52.43,65.03 50.06,67.41 47.06,68.90 43.74,69.36 40.44,68.73 37.52,67.09 35.28,64.59 33.95,61.52 33.67,58.18 34.48,54.92 36.28,52.09 38.89,49.99 42.03,48.83 45.38,48.73 48.59,49.71 51.32,51.66 53.28,54.38 54.26,57.59 54.18,60.94 53.03,64.09 50.93,66.70 48.11,68.51 44.86,69.33 41.51,69.06 38.43,67.74 37.00,66.83 33.19,63.12 23.50,50.51 12.06,32.60 2.21,13.86 -1.04,2.06 Z" fill="#FFFFFF" stroke="transparent" stroke-width="0" stroke-linejoin="round" stroke-linecap="round" pointer-events="all" transform="translate(969, 373)"/><path id="path_2ab2ea15-9361-4c23-34fa-569c410e6518" d="M0.01,1.00 Q4.61,2.12 10.52,11.02 T22.48,29.46 35.92,50.56 43.83,63.73 44.36,67.04 43.81,70.35 42.22,73.30 39.78,75.60 36.73,77.00 33.40,77.34 30.12,76.61 27.26,74.87 25.10,72.30 23.87,69.18 23.70,65.84 24.61,62.61 26.51,59.84 29.19,57.82 32.37,56.77 35.72,56.78 38.89,57.87 41.55,59.91 43.42,62.69 44.31,65.92 44.11,69.27 42.86,72.38 40.67,74.93 37.79,76.64 34.52,77.35 31.18,76.97 28.15,75.55 25.72,73.23 24.70,71.88 22.85,68.33 16.02,55.44 7.47,35.87 0.91,15.46 -1.04,3.13 Z" fill="#FFFFFF" stroke="transparent" stroke-width="0" stroke-linejoin="round" stroke-linecap="round" pointer-events="all" transform="translate(1075, 311)"/><path id="path_f5d33578-77ec-466c-22ad-4dace724473f" d="M0.00,52.99 Q3.28,51.41 14.28,52.10 T35.84,51.64 55.67,45.17 72.52,32.71 82.34,16.50 83.58,6.04 82.09,3.04 81.64,-0.28 82.28,-3.58 83.93,-6.50 86.42,-8.73 89.50,-10.06 92.85,-10.33 96.10,-9.52 98.92,-7.71 101.02,-5.10 102.18,-1.95 102.27,1.40 101.28,4.61 99.32,7.33 96.60,9.29 93.39,10.27 90.04,10.17 86.90,9.02 84.28,6.91 82.48,4.09 81.67,0.83 81.95,-2.51 83.27,-5.59 85.51,-8.08 88.43,-9.73 91.73,-10.36 95.05,-9.90 98.05,-8.41 99.43,-7.42 103.86,3.35 103.59,23.84 90.85,41.04 73.94,54.11 54.19,61.92 32.61,62.99 11.85,59.02 0.89,54.59 Z" fill="#FFFFFF" stroke="transparent" stroke-width="0" stroke-linejoin="round" stroke-linecap="round" pointer-events="all" transform="translate(1015, 380)"/><path id="path_e7b1eecc-ac5f-4a81-13e1-595e289b9f6d" d="M-0.01,54.00 Q-1.71,50.89 2.01,41.04 T11.78,22.26 26.37,6.05 44.94,-5.16 65.81,-9.74 82.83,-10.44 90.67,-10.23 93.85,-9.16 96.52,-7.13 98.40,-4.36 99.30,-1.13 99.12,2.22 97.88,5.33 95.71,7.89 92.84,9.62 89.57,10.35 86.24,9.99 83.19,8.58 80.76,6.28 79.18,3.32 78.64,0.01 79.18,-3.30 80.75,-6.26 83.18,-8.57 86.22,-9.98 89.55,-10.35 92.83,-9.63 95.70,-7.90 97.87,-5.35 99.12,-2.23 99.30,1.11 98.41,4.34 96.53,7.12 93.86,9.15 90.68,10.22 89.01,10.50 80.40,10.41 60.91,10.78 40.69,16.11 23.14,28.13 9.11,43.98 1.65,53.34 Z" fill="#FFFFFF" stroke="transparent" stroke-width="0" stroke-linejoin="round" stroke-linecap="round" pointer-events="all" transform="translate(1017, 376)"/><path id="path_72854224-1864-4752-3ed2-f6473fe10e80" d="M47.01,0.01 Q44.46,3.43 36.76,10.71 T21.92,26.05 22.63,27.09 28.30,27.99 25.44,36.34 24.00,37.04 22.44,37.38 20.84,37.33 19.31,36.90 17.92,36.11 16.75,35.02 15.89,33.68 15.37,32.17 15.22,30.58 15.46,29.00 16.07,27.53 17.02,26.24 26.33,18.96 43.76,5.42 65.46,-0.12 74.10,10.94 61.84,28.04 45.78,42.47 39.97,39.35 43.90,28.48 47.16,27.67 50.50,27.94 53.58,29.27 56.08,31.51 57.73,34.43 58.36,37.72 57.91,41.04 56.42,44.04 54.05,46.42 51.04,47.91 47.72,48.36 44.43,47.73 41.51,46.08 39.27,43.58 37.94,40.50 37.67,37.16 38.48,33.90 40.29,31.08 42.90,28.98 46.05,27.82 49.40,27.73 52.60,28.72 55.33,30.67 57.28,33.40 58.27,36.60 58.18,39.95 57.02,43.10 54.92,45.71 53.65,46.85 45.46,51.03 28.25,48.55 27.17,33.41 45.60,21.54 55.37,29.48 43.37,40.86 36.89,30.24 52.43,16.96 54.66,20.71 39.66,35.52 22.73,43.22 15.45,31.80 28.96,18.23 32.71,25.61 25.44,36.34 24.00,37.04 22.44,37.38 20.84,37.33 19.31,36.90 17.92,36.12 16.75,35.02 15.89,33.68 15.37,32.17 15.22,30.58 15.46,29.00 16.07,27.53 17.02,26.24 18.77,24.79 29.82,18.24 36.10,23.16 22.12,32.68 19.12,23.44 34.86,8.63 45.10,0.97 Z" fill="#FFFFFF" stroke="transparent" stroke-width="0" stroke-linejoin="round" stroke-linecap="round" pointer-events="all" transform="translate(1026, 382)"/><path id="path_7fe60656-cb80-4c15-1f2d-0b24daeb9213" d="M18.01,0.00 Q21.38,4.57 19.35,15.41 T15.41,36.97 11.94,56.18 9.83,66.27 8.27,69.24 5.85,71.56 2.81,72.97 -0.52,73.35 -3.80,72.64 -6.68,70.92 -8.86,68.37 -10.11,65.26 -10.30,61.92 -9.42,58.68 -7.55,55.90 -4.89,53.86 -1.71,52.78 1.64,52.77 4.82,53.83 7.50,55.85 9.39,58.62 10.30,61.84 10.13,65.19 8.90,68.31 6.74,70.87 3.87,72.61 0.60,73.34 -2.74,72.99 -5.79,71.60 -8.23,69.30 -9.81,66.34 -10.36,63.03 -10.37,61.34 -7.85,51.35 -1.34,31.23 7.68,11.59 15.35,1.04 Z" fill="#FFFFFF" stroke="transparent" stroke-width="0" stroke-linejoin="round" stroke-linecap="round" pointer-events="all" transform="translate(1024, 435)"/><path id="path_3ddfe880-71d3-4bdf-37a9-fd02e08ad41c" d="M0.00,-0.01 Q4.09,-2.91 15.06,-2.28 T37.14,0.05 59.45,3.42 76.98,5.83 84.94,7.06 87.96,8.52 90.35,10.87 91.87,13.86 92.36,17.18 91.76,20.47 90.14,23.41 87.67,25.67 84.60,27.03 81.26,27.34 78.00,26.56 75.16,24.78 73.03,22.19 71.84,19.06 71.72,15.70 72.67,12.49 74.60,9.75 77.30,7.76 80.50,6.75 83.85,6.80 87.01,7.93 89.64,10.00 91.48,12.81 92.32,16.06 92.08,19.40 90.79,22.49 88.57,25.01 85.67,26.69 82.38,27.35 80.69,27.42 73.07,26.14 55.37,22.16 34.47,15.28 13.43,7.48 1.60,1.94 Z" fill="#FFFFFF" stroke="transparent" stroke-width="0" stroke-linejoin="round" stroke-linecap="round" pointer-events="all" transform="translate(1093, 409)"/><path id="path_ae815809-3805-4a3a-3f9f-fa869dd1f56c" d="M0.01,-0.01 Q4.27,1.31 10.88,9.63 T23.64,26.85 35.71,44.38 47.31,62.51 56.31,78.41 60.04,86.43 60.33,89.76 59.55,93.02 57.76,95.86 55.17,97.98 52.03,99.16 48.68,99.28 45.46,98.32 42.73,96.38 40.75,93.67 39.74,90.47 39.81,87.12 40.94,83.97 43.02,81.34 45.84,79.51 49.08,78.68 52.43,78.93 55.52,80.23 58.03,82.45 59.70,85.36 60.36,88.65 59.93,91.97 58.46,94.98 56.10,97.37 53.11,98.88 49.79,99.36 46.50,98.75 43.57,97.12 41.31,94.64 40.38,93.22 38.11,88.64 31.28,74.50 21.90,55.26 12.77,35.21 3.84,14.62 -0.39,2.20 Z" fill="#FFFFFF" stroke="transparent" stroke-width="0" stroke-linejoin="round" stroke-linecap="round" pointer-events="all" transform="translate(1075, 425)"/><path id="path_d91e92fc-ed42-4245-258f-ac4290825470" d="M59.99,112.00 Q56.29,109.65 50.05,99.91 T37.93,81.23 26.13,63.43 14.23,45.70 2.71,27.06 -6.14,10.96 -9.92,3.00 -10.36,-0.32 -9.71,-3.61 -8.05,-6.53 -5.54,-8.75 -2.46,-10.07 0.89,-10.32 4.14,-9.50 6.95,-7.68 9.04,-5.06 10.18,-1.91 10.26,1.44 9.26,4.64 7.29,7.36 4.56,9.30 1.35,10.27 -2.00,10.17 -5.14,9.00 -7.74,6.88 -9.54,4.05 -10.33,0.79 -10.04,-2.55 -8.71,-5.62 -6.46,-8.11 -3.53,-9.74 -0.23,-10.36 3.09,-9.89 6.08,-8.39 8.44,-6.01 9.43,-4.62 13.27,3.02 21.70,20.15 31.27,39.02 40.53,57.97 49.08,77.44 57.10,97.52 60.43,109.85 Z" fill="#FFFFFF" stroke="transparent" stroke-width="0" stroke-linejoin="round" stroke-linecap="round" pointer-events="all" transform="translate(988, 275)"/><path id="path_cf24fb60-7f17-4bc4-02ba-18210c78c47b" d="M151.00,33.01 Q146.73,34.44 135.71,32.79 T113.19,29.46 89.72,26.09 67.51,22.55 46.52,18.32 25.26,13.98 6.46,11.19 -3.42,9.78 -6.37,8.18 -8.64,5.72 -10.02,2.66 -10.34,-0.68 -9.58,-3.95 -7.82,-6.80 -5.24,-8.94 -2.11,-10.14 1.24,-10.29 4.46,-9.35 7.21,-7.44 9.21,-4.75 10.24,-1.56 10.20,1.80 9.10,4.96 7.04,7.61 4.24,9.45 1.00,10.31 -2.35,10.09 -5.45,8.82 -7.98,6.61 -9.67,3.72 -10.35,0.44 -9.95,-2.89 -8.51,-5.92 -6.17,-8.32 -3.19,-9.86 0.12,-10.36 1.82,-10.34 10.80,-9.31 30.20,-5.75 51.59,0.19 73.61,6.90 94.68,13.04 115.79,19.41 137.27,26.45 149.33,31.48 Z" fill="#FFFFFF" stroke="transparent" stroke-width="0" stroke-linejoin="round" stroke-linecap="round" pointer-events="all" transform="translate(837, 240)"/><path id="path_a09fa85d-3d4d-4563-1f04-285e9bc244ab" d="M-0.01,132.00 Q-1.66,127.67 -0.91,117.07 T1.32,95.26 5.59,73.31 11.81,51.83 19.26,31.26 28.10,11.25 34.22,-1.73 36.49,-5.90 38.82,-8.31 41.79,-9.85 45.11,-10.36 48.41,-9.78 51.36,-8.18 53.64,-5.72 55.01,-2.67 55.34,0.67 54.58,3.94 52.83,6.79 50.25,8.93 47.12,10.14 43.77,10.29 40.55,9.36 37.79,7.45 35.79,4.76 34.76,1.57 34.79,-1.79 35.90,-4.95 37.96,-7.60 40.75,-9.45 43.99,-10.31 47.34,-10.09 50.44,-8.82 52.97,-6.62 54.67,-3.73 55.35,-0.45 54.95,2.88 54.48,4.51 48.56,16.01 37.73,37.21 28.17,57.27 19.26,77.59 11.73,97.81 5.69,118.25 1.47,130.20 Z" fill="#FFFFFF" stroke="transparent" stroke-width="0" stroke-linejoin="round" stroke-linecap="round" pointer-events="all" transform="translate(989, 138)"/><path id="path_0c1f0e38-919d-4bf8-146d-d0badd85d599" d="M14.99,161.01 Q13.00,159.34 7.98,149.74 T0.76,129.50 -1.50,108.12 2.52,87.29 15.02,70.16 34.98,63.33 55.82,68.61 72.88,80.61 87.99,96.64 102.29,113.85 119.57,119.26 131.96,105.80 131.67,84.81 127.15,63.20 124.39,40.44 125.58,18.15 135.34,-0.24 154.55,-7.34 176.06,-3.69 195.94,6.33 212.81,21.05 224.24,38.90 223.04,58.02 217.82,68.29 217.17,70.82 215.16,73.49 212.39,75.39 209.16,76.30 205.81,76.13 202.69,74.90 200.13,72.74 198.39,69.87 197.66,66.60 198.00,63.27 199.40,60.22 201.70,57.78 204.65,56.19 207.96,55.64 211.27,56.17 214.24,57.73 216.55,60.15 217.97,63.19 218.35,66.52 217.64,69.80 215.92,72.68 213.38,74.86 210.27,76.11 206.92,76.31 203.69,75.42 200.90,73.55 198.86,70.89 197.78,67.72 197.77,64.36 198.04,62.69 200.85,52.30 196.23,33.82 179.38,20.40 159.73,13.10 146.09,21.01 143.03,41.74 145.38,63.65 149.07,85.30 148.71,106.65 140.51,126.36 124.20,138.61 105.15,134.88 89.99,119.50 77.25,102.41 63.09,86.39 45.74,74.64 25.64,73.61 9.90,86.04 3.61,105.97 3.98,127.56 9.74,148.38 14.58,159.77 Z" fill="#FFFFFF" stroke="transparent" stroke-width="0" stroke-linejoin="round" stroke-linecap="round" pointer-events="all" transform="translate(822, 78)"/><path id="path_d2dc7308-453f-475e-21cc-67e8e4160335" d="M0.01,-0.00 Q3.18,1.76 9.44,10.79 T24.19,26.62 42.53,38.38 62.95,46.03 84.09,49.80 105.45,51.28 129.13,51.59 143.70,51.78 146.87,52.86 149.54,54.89 151.41,57.67 152.30,60.90 152.11,64.25 150.87,67.36 148.69,69.91 145.81,71.63 142.54,72.35 139.20,71.98 136.16,70.56 133.74,68.25 132.17,65.29 131.64,61.98 132.19,58.67 133.77,55.71 136.21,53.41 139.25,52.01 142.59,51.65 145.86,52.38 148.73,54.12 150.89,56.68 152.12,59.80 152.30,63.15 151.39,66.37 149.50,69.14 146.83,71.17 143.65,72.23 141.97,72.50 133.77,72.43 114.23,71.92 92.08,69.84 70.73,65.45 50.21,58.07 31.50,46.65 15.55,31.19 4.00,13.09 -0.17,1.81 Z" fill="#FFFFFF" stroke="transparent" stroke-width="0" stroke-linejoin="round" stroke-linecap="round" pointer-events="all" transform="translate(806, 277)"/><path id="path_3abfc58d-b64c-4b59-1658-324ac62df8e7" d="M-0.00,6.99 Q1.75,1.82 12.26,-2.24 T33.78,-8.04 52.30,-10.13 61.50,-10.25 64.70,-9.23 67.40,-7.25 69.33,-4.51 70.28,-1.29 70.16,2.06 68.97,5.19 66.84,7.78 64.00,9.56 60.73,10.34 57.39,10.03 54.33,8.67 51.86,6.41 50.24,3.47 49.64,0.17 50.13,-3.15 51.65,-6.13 54.04,-8.48 57.06,-9.94 60.39,-10.35 63.68,-9.69 66.58,-8.01 68.79,-5.49 70.08,-2.39 70.32,0.95 69.47,4.20 67.64,7.00 65.00,9.07 61.84,10.20 60.17,10.50 54.61,10.46 37.95,9.90 15.73,9.67 2.30,8.48 Z" fill="#FFFFFF" stroke="transparent" stroke-width="0" stroke-linejoin="round" stroke-linecap="round" pointer-events="all" transform="translate(879, 42)"/></svg>