<svg xmlns="http://www.w3.org/2000/svg" viewBox="750 222 558 453" width="20" height="20"><path id="path_43c039cd-0ce8-4f4c-13cb-ab3244a437ac" d="M164.42,9.52 Q159.98,11.58 149.37,17.33 T128.97,28.65 108.96,41.18 89.13,55.60 71.13,70.50 54.03,87.02 38.59,104.84 25.76,123.04 31.32,133.27 54.51,134.35 82.00,134.89 109.64,135.34 132.88,135.68 155.33,136.21 179.75,136.99 204.26,137.60 227.24,138.00 250.28,138.25 272.38,138.36 297.48,138.42 326.40,138.45 353.81,138.47 378.71,138.48 402.44,138.49 424.39,138.50 446.21,138.50 455.27,127.74 446.34,108.69 432.48,92.02 417.80,75.56 402.53,60.06 385.70,46.80 365.89,36.94 345.09,30.06 324.24,24.55 309.43,20.38 303.87,18.00 301.26,15.89 299.47,13.06 298.67,9.81 298.95,6.47 300.29,3.39 302.54,0.90 305.46,-0.74 308.75,-1.36 312.08,-0.89 315.07,0.61 317.44,2.98 318.92,5.99 319.36,9.32 318.71,12.61 317.05,15.52 314.55,17.75 311.47,19.06 308.12,19.32 304.87,18.50 302.05,16.69 299.96,14.07 298.82,10.92 298.74,7.56 299.73,4.36 301.70,1.65 304.43,-0.30 307.64,-1.27 310.99,-1.17 312.66,-0.84 319.30,1.61 336.34,6.31 356.97,11.69 376.94,18.62 396.53,28.66 414.04,42.07 429.30,57.25 444.33,73.72 458.57,90.34 471.60,107.03 481.64,126.06 482.16,146.74 468.15,158.22 446.21,159.50 424.39,159.50 402.44,159.49 378.70,159.48 353.80,159.47 326.38,159.45 297.45,159.42 269.40,159.35 244.48,159.20 220.71,158.90 196.06,158.42 169.76,157.69 144.01,156.96 120.94,156.52 97.70,156.12 71.48,155.68 43.52,154.94 18.99,152.68 2.39,140.44 3.01,120.16 15.33,101.24 30.12,82.35 46.19,65.06 62.49,50.08 81.33,35.00 102.64,20.20 123.15,7.65 141.88,-2.62 153.36,-8.49 156.78,-9.91 159.25,-10.40 161.76,-10.27 164.17,-9.55 166.33,-8.28 168.13,-6.52 169.45,-4.39 170.23,-2.00 170.41,0.51 169.99,2.98 168.98,5.29 167.46,7.28 165.50,8.86 Z" fill="#FFFFFF" stroke="transparent" stroke-width="0" stroke-linejoin="round" stroke-linecap="round" pointer-events="all" transform="translate(790, 486)"/><path id="path_da04ab6a-793f-4aee-0d41-f37d3a64c9c9" d="M101.04,255.31 Q97.71,254.68 86.50,251.03 T66.00,241.24 47.78,229.05 31.21,214.93 17.88,197.38 6.78,177.71 -3.04,157.07 -8.73,135.92 -9.80,113.91 -6.77,90.64 1.15,68.19 12.19,48.94 26.01,32.69 42.68,19.27 60.65,8.15 79.94,-0.94 100.78,-7.03 122.46,-9.77 144.44,-8.51 165.87,-2.71 185.80,7.21 204.08,19.90 220.26,34.86 232.54,53.32 240.45,74.49 244.76,96.61 246.05,118.86 243.36,141.02 236.49,161.74 226.77,181.19 215.77,200.03 204.39,217.76 190.48,233.98 173.69,247.10 154.62,254.81 133.96,257.63 116.28,258.45 107.37,258.23 104.19,257.18 101.51,255.16 99.61,252.39 98.70,249.16 98.87,245.82 100.10,242.70 102.26,240.13 105.12,238.39 108.40,237.66 111.73,238.00 114.78,239.40 117.22,241.70 118.81,244.65 119.36,247.96 118.83,251.27 117.27,254.24 114.85,256.55 111.81,257.97 108.48,258.35 105.20,257.64 102.32,255.92 100.14,253.38 98.89,250.27 98.69,246.92 99.58,243.69 101.45,240.90 104.11,238.86 107.28,237.78 108.96,237.50 112.60,237.48 127.04,236.87 148.50,234.39 167.46,226.02 182.55,211.27 194.89,193.88 206.18,175.03 216.28,155.45 223.01,135.51 225.04,114.21 223.04,92.66 217.72,72.07 207.91,53.45 193.43,38.27 175.85,25.72 156.36,16.18 135.14,11.68 113.30,12.25 91.41,17.36 70.26,26.92 51.65,38.74 35.74,53.45 23.17,71.55 14.83,91.71 11.29,113.41 12.79,135.12 19.50,156.05 29.46,175.75 40.62,193.88 55.61,208.61 73.28,220.88 91.84,230.54 103.30,234.37 106.17,235.07 108.45,236.12 110.42,237.68 111.96,239.67 112.97,241.97 113.41,244.44 113.24,246.95 112.47,249.34 111.16,251.49 109.37,253.25 107.21,254.54 104.81,255.27 102.30,255.40 Z" fill="#FFFFFF" stroke="transparent" stroke-width="0" stroke-linejoin="round" stroke-linecap="round" pointer-events="all" transform="translate(908, 262)"/></svg>