<svg xmlns="http://www.w3.org/2000/svg" viewBox="758 187 426 426" width="20" height="20"><path id="path_35523954-4fbd-45e0-1a09-6ada07193501" d="M32.49,0.48 Q32.17,7.45 31.51,21.14 T30.08,47.63 28.74,71.16 27.34,93.69 25.61,118.16 23.57,144.30 21.41,171.94 19.14,199.70 16.97,225.24 15.29,247.61 13.72,269.64 11.69,302.91 10.12,326.23 8.87,329.35 6.70,331.90 3.83,333.63 0.55,334.35 -2.78,333.98 -5.82,332.57 -8.25,330.26 -9.82,327.30 -10.36,323.99 -9.82,320.68 -8.24,317.72 -5.81,315.42 -2.76,314.01 0.57,313.65 3.84,314.38 6.71,316.11 8.88,318.67 10.12,321.78 10.30,325.13 9.40,328.36 7.52,331.13 4.85,333.16 1.67,334.23 -1.69,334.22 -4.86,333.15 -7.53,331.12 -9.41,328.34 -10.30,325.11 -10.48,323.42 -9.27,301.64 -7.22,268.13 -5.65,246.02 -3.96,223.51 -1.78,197.93 0.48,170.26 2.64,142.63 4.66,116.68 6.38,92.36 7.78,69.91 9.10,46.65 10.52,20.28 11.35,3.01 11.72,-1.73 12.43,-4.14 13.70,-6.30 15.45,-8.11 17.58,-9.44 19.97,-10.22 22.47,-10.41 24.95,-10.00 27.26,-9.00 29.26,-7.48 30.84,-5.52 31.90,-3.25 32.39,-0.78 Z" fill="#FFFFFF" stroke="transparent" stroke-width="0" stroke-linejoin="round" stroke-linecap="round" pointer-events="all" transform="translate(801, 230)"/><path id="path_3cb559b6-b008-48cf-31d5-6cdd9174f128" d="M0.00,-10.50 Q5.55,-10.50 16.94,-10.50 T39.31,-10.50 62.33,-10.50 87.17,-10.50 112.77,-10.50 139.28,-10.50 164.12,-10.50 186.71,-10.50 209.42,-10.50 231.08,-10.50 252.12,-10.50 273.45,-10.50 295.89,-10.50 318.05,-10.50 333.73,-10.50 340.68,-10.23 343.85,-9.15 346.52,-7.13 348.40,-4.35 349.30,-1.12 349.12,2.23 347.88,5.34 345.71,7.90 342.83,9.63 339.56,10.35 336.23,9.98 333.18,8.58 330.75,6.27 329.18,3.31 328.64,-0.00 329.18,-3.31 330.75,-6.27 333.19,-8.58 336.23,-9.98 339.56,-10.35 342.84,-9.62 345.71,-7.90 347.88,-5.34 349.12,-2.22 349.30,1.12 348.40,4.35 346.52,7.13 343.85,9.16 340.67,10.23 339.00,10.50 333.73,10.50 318.05,10.50 295.89,10.50 273.45,10.50 252.12,10.50 231.08,10.50 209.42,10.50 186.71,10.50 164.12,10.50 139.28,10.50 112.77,10.50 87.17,10.50 62.33,10.50 39.31,10.50 16.94,10.50 2.77,10.50 -1.26,10.35 -3.70,9.75 -5.92,8.58 -7.80,6.91 -9.23,4.84 -10.12,2.49 -10.42,-0.00 -10.12,-2.50 -9.23,-4.84 -7.80,-6.91 -5.92,-8.58 -3.70,-9.75 -1.26,-10.35 Z" fill="#FFFFFF" stroke="transparent" stroke-width="0" stroke-linejoin="round" stroke-linecap="round" pointer-events="all" transform="translate(800, 557)"/><path id="path_c75d9898-4752-42a6-0ce0-dbf1ad49b5c0" d="M-6.46,52.73 Q-1.39,48.76 7.95,41.31 T27.11,25.97 45.46,11.13 62.24,-2.03 71.98,-9.07 75.14,-10.19 78.49,-10.25 81.69,-9.24 84.39,-7.26 86.33,-4.52 87.28,-1.30 87.16,2.05 85.97,5.18 83.85,7.78 81.01,9.56 77.74,10.33 74.41,10.03 71.34,8.68 68.86,6.42 67.24,3.48 66.64,0.18 67.12,-3.13 68.64,-6.12 71.03,-8.47 74.05,-9.93 77.38,-10.35 80.67,-9.69 83.57,-8.01 85.78,-5.50 87.08,-2.40 87.32,0.94 86.48,4.19 84.65,6.99 83.50,8.25 73.34,15.97 54.88,30.42 38.45,43.74 20.92,57.83 9.00,67.29 5.38,69.93 3.09,70.96 0.61,71.41 -1.89,71.25 -4.29,70.50 -6.44,69.20 -8.21,67.42 -9.51,65.26 -10.26,62.86 -10.40,60.36 -9.95,57.88 -8.91,55.59 -7.36,53.62 Z" fill="#FFFFFF" stroke="transparent" stroke-width="0" stroke-linejoin="round" stroke-linecap="round" pointer-events="all" transform="translate(814, 370)"/><path id="path_b5bba183-967e-4176-1166-f6e8045ea6a6" d="M7.77,-7.06 Q10.94,-3.58 18.55,5.35 T33.05,22.64 46.64,40.28 59.54,58.62 71.64,76.39 84.05,93.49 91.29,103.42 92.27,106.63 92.17,109.98 91.01,113.12 88.90,115.73 86.07,117.53 82.81,118.33 79.47,118.05 76.40,116.72 73.91,114.47 72.26,111.55 71.64,108.25 72.10,104.93 73.60,101.93 75.98,99.57 78.99,98.09 82.31,97.64 85.60,98.28 88.51,99.94 90.75,102.44 92.06,105.53 92.33,108.87 91.51,112.12 89.69,114.94 87.07,117.03 83.92,118.18 80.57,118.26 77.37,117.27 74.65,115.31 73.46,114.10 67.59,106.46 55.62,90.01 43.53,72.42 30.82,54.31 17.08,36.37 2.73,19.15 -6.18,8.81 -8.50,6.03 -9.70,3.82 -10.33,1.39 -10.36,-1.12 -9.79,-3.57 -8.65,-5.81 -7.01,-7.71 -4.96,-9.17 -2.62,-10.09 -0.13,-10.42 2.37,-10.15 4.73,-9.29 6.81,-7.89 Z" fill="#FFFFFF" stroke="transparent" stroke-width="0" stroke-linejoin="round" stroke-linecap="round" pointer-events="all" transform="translate(891, 370)"/><path id="path_5c97145c-2147-4ad2-226e-bd9fc751dc58" d="M-9.93,175.59 Q-8.03,170.05 -3.25,159.07 T6.78,138.36 18.75,119.30 33.19,100.93 47.92,83.60 62.65,66.28 78.12,48.02 93.23,30.09 107.30,13.45 119.04,-0.69 125.37,-7.96 128.26,-9.66 131.54,-10.35 134.87,-9.96 137.90,-8.52 140.31,-6.19 141.85,-3.21 142.36,0.10 141.79,3.40 140.19,6.35 137.73,8.63 134.67,10.01 131.34,10.34 128.07,9.59 125.21,7.83 123.07,5.25 121.86,2.13 121.71,-1.22 122.64,-4.44 124.55,-7.20 127.24,-9.20 130.43,-10.24 133.78,-10.21 136.94,-9.11 139.59,-7.05 141.45,-4.26 142.31,-1.02 142.10,2.33 140.82,5.43 139.94,6.88 136.43,11.02 125.92,23.71 112.03,40.30 97.28,57.81 81.86,76.17 67.41,93.10 53.08,110.00 37.92,129.02 25.22,148.39 16.04,167.22 10.88,179.63 9.38,183.54 8.02,185.66 6.19,187.38 4.01,188.62 1.59,189.30 -0.92,189.38 -3.38,188.86 -5.64,187.76 -7.58,186.16 -9.07,184.14 -10.04,181.82 -10.42,179.33 -10.20,176.83 Z" fill="#FFFFFF" stroke="transparent" stroke-width="0" stroke-linejoin="round" stroke-linecap="round" pointer-events="all" transform="translate(973, 299)"/><path id="path_c48765dc-375e-4771-2068-7b38534bc247" d="M32.42,7.42 Q30.21,9.64 22.68,17.61 T11.32,29.47 6.11,34.37 3.12,35.88 -0.20,36.36 -3.50,35.75 -6.43,34.13 -8.69,31.65 -10.04,28.58 -10.33,25.24 -9.55,21.98 -7.76,19.14 -5.17,17.02 -2.03,15.84 1.32,15.72 4.53,16.68 7.27,18.62 9.25,21.33 10.26,24.52 10.19,27.88 9.06,31.03 6.98,33.66 4.17,35.49 0.92,36.32 -2.43,36.07 -5.52,34.77 -8.03,32.55 -9.70,29.65 -10.36,26.36 -9.93,23.03 -8.46,20.02 -7.48,18.63 -3.66,14.75 7.75,2.84 16.47,-6.31 18.57,-8.21 20.72,-9.51 23.12,-10.25 25.63,-10.40 28.10,-9.95 30.39,-8.92 32.37,-7.37 33.92,-5.39 34.95,-3.10 35.40,-0.63 35.25,1.88 34.50,4.28 33.20,6.43 Z" fill="#FFFFFF" stroke="transparent" stroke-width="0" stroke-linejoin="round" stroke-linecap="round" pointer-events="all" transform="translate(798, 227)"/><path id="path_ca13cd82-4d43-448d-2aa1-b82dc3f40d5e" d="M9.96,-3.32 Q10.75,-0.94 15.24,8.79 T21.74,23.32 24.12,29.76 24.30,33.11 23.41,36.34 21.53,39.12 18.86,41.15 15.68,42.22 12.33,42.23 9.15,41.16 6.48,39.13 4.60,36.36 3.70,33.13 3.88,29.78 5.12,26.66 7.29,24.11 10.16,22.38 13.43,21.65 16.77,22.01 19.81,23.42 22.25,25.72 23.82,28.69 24.36,31.99 23.82,35.30 22.25,38.27 19.82,40.57 16.78,41.98 13.44,42.35 10.17,41.63 7.30,39.90 5.12,37.35 4.25,35.89 1.70,30.34 -5.01,15.24 -9.56,4.51 -10.21,2.08 -10.41,-0.42 -10.01,-2.90 -9.02,-5.22 -7.51,-7.22 -5.57,-8.81 -3.30,-9.89 -0.83,-10.39 1.68,-10.29 4.09,-9.59 6.27,-8.33 8.08,-6.59 9.42,-4.46 Z" fill="#FFFFFF" stroke="transparent" stroke-width="0" stroke-linejoin="round" stroke-linecap="round" pointer-events="all" transform="translate(824, 228)"/><path id="path_4633caa9-866e-4f7a-100d-0c6710efaa9f" d="M38.94,9.26 Q36.56,10.53 27.12,14.99 T11.18,22.43 3.05,25.90 -0.28,26.36 -3.57,25.73 -6.49,24.08 -8.73,21.58 -10.05,18.50 -10.33,15.16 -9.52,11.91 -7.72,9.08 -5.10,6.98 -1.96,5.82 1.40,5.73 4.60,6.72 7.32,8.67 9.28,11.39 10.27,14.60 10.18,17.95 9.02,21.10 6.92,23.71 4.10,25.52 0.84,26.33 -2.50,26.06 -5.58,24.73 -8.07,22.49 -9.73,19.58 -10.36,16.28 -9.91,12.96 -8.42,9.96 -6.05,7.59 -4.67,6.59 1.18,3.89 16.86,-3.41 27.87,-8.63 30.24,-9.72 32.68,-10.34 35.19,-10.36 37.63,-9.77 39.86,-8.62 41.76,-6.96 43.20,-4.90 44.10,-2.56 44.42,-0.07 44.14,2.43 43.26,4.78 41.85,6.86 39.98,8.54 Z" fill="#FFFFFF" stroke="transparent" stroke-width="0" stroke-linejoin="round" stroke-linecap="round" pointer-events="all" transform="translate(1108, 557)"/><path id="path_d6a4633a-e0b5-4388-34bb-cd8d71f326ff" d="M37.45,24.19 Q34.92,23.55 24.16,20.10 T4.86,13.24 -5.16,8.99 -7.76,6.87 -9.54,4.04 -10.33,0.78 -10.04,-2.56 -8.70,-5.63 -6.44,-8.12 -3.51,-9.75 -0.22,-10.36 3.10,-9.89 6.10,-8.38 8.45,-5.99 9.92,-2.98 10.36,0.35 9.70,3.63 8.03,6.54 5.53,8.77 2.44,10.07 -0.91,10.32 -4.15,9.49 -6.97,7.67 -9.05,5.04 -10.19,1.89 -10.26,-1.46 -9.25,-4.66 -7.28,-7.37 -4.54,-9.31 -1.33,-10.28 2.02,-10.16 3.68,-9.83 11.87,-6.72 30.04,-0.21 41.28,3.50 43.73,4.27 45.95,5.44 47.83,7.11 49.25,9.19 50.13,11.54 50.42,14.04 50.11,16.53 49.21,18.88 47.78,20.94 45.89,22.60 43.66,23.76 41.22,24.35 38.71,24.34 Z" fill="#FFFFFF" stroke="transparent" stroke-width="0" stroke-linejoin="round" stroke-linecap="round" pointer-events="all" transform="translate(1104, 535)"/></svg>