<svg xmlns="http://www.w3.org/2000/svg" viewBox="308 32 597 611" width="100" height="120"><path id="path_955be24b-2b02-4179-35ac-974a249e4ecb" d="M57.90,285.69 Q54.89,282.04 47.94,273.31 T33.95,255.26 20.73,235.78 9.77,215.65 1.01,194.59 -5.35,172.54 -8.64,149.46 -8.72,125.71 -4.66,102.06 4.10,79.70 16.54,61.47 31.99,46.11 50.47,31.97 71.04,19.75 94.33,9.41 119.30,1.51 142.51,-3.40 165.90,-5.97 188.81,-4.86 209.80,1.16 231.19,10.84 252.20,22.92 270.87,36.40 287.35,52.21 301.23,70.05 311.58,89.59 317.87,111.23 319.73,134.67 317.73,157.75 311.68,178.86 302.05,199.20 289.17,217.72 274.04,233.14 257.45,247.62 239.61,262.50 221.55,275.97 209.59,285.24 205.20,289.30 202.23,290.85 198.92,291.36 195.61,290.79 192.66,289.20 190.38,286.75 188.99,283.69 188.66,280.36 189.41,277.09 191.16,274.23 193.73,272.08 196.85,270.86 200.20,270.71 203.43,271.63 206.19,273.54 208.19,276.22 209.24,279.41 209.21,282.76 208.11,285.93 206.06,288.58 203.27,290.44 200.04,291.31 196.69,291.10 193.59,289.83 191.05,287.64 189.34,284.76 188.65,281.48 189.04,278.15 190.47,275.11 191.44,273.72 196.82,268.85 210.81,257.89 228.29,244.71 245.83,229.96 262.31,215.24 277.04,198.86 288.46,179.89 295.70,159.35 298.59,136.37 296.95,113.86 290.27,93.55 278.24,74.26 262.63,57.18 245.24,43.52 226.55,32.21 205.47,22.15 183.75,15.70 161.70,15.26 139.40,18.51 117.28,23.82 94.91,31.76 74.57,41.67 54.17,55.39 35.33,72.15 22.18,90.75 14.39,113.05 11.97,136.55 13.71,159.41 19.06,182.29 27.93,204.80 38.52,224.72 50.76,242.68 64.33,260.19 72.59,270.49 74.78,273.38 75.87,275.64 76.38,278.10 76.30,280.61 75.61,283.03 74.37,285.21 72.64,287.04 70.52,288.39 68.14,289.20 65.64,289.42 63.16,289.03 60.84,288.06 58.82,286.56 Z" fill="#FFFFFF" stroke="transparent" stroke-width="0" stroke-linejoin="round" stroke-linecap="round" pointer-events="all" transform="translate(452, 169)"/><path id="path_3b80de57-188b-4e3f-3661-8445d43d7e85" d="M8.24,-6.51 Q10.62,-3.49 17.45,5.81 T29.43,24.31 37.96,44.15 42.64,65.53 44.22,82.98 44.27,91.38 43.29,94.59 41.34,97.32 38.62,99.28 35.41,100.26 32.06,100.18 28.91,99.03 26.30,96.93 24.49,94.11 23.67,90.86 23.94,87.51 25.26,84.43 27.50,81.93 30.41,80.28 33.71,79.64 37.03,80.09 40.03,81.58 42.41,83.94 43.90,86.95 44.36,90.27 43.73,93.56 42.08,96.48 39.59,98.72 36.51,100.05 33.17,100.33 29.92,99.52 27.09,97.72 24.99,95.11 23.83,91.96 23.50,90.30 22.75,78.62 19.38,56.69 11.84,36.67 0.52,18.21 -7.05,8.01 -8.90,5.43 -9.94,3.14 -10.40,0.67 -10.26,-1.84 -9.52,-4.24 -8.23,-6.40 -6.46,-8.18 -4.31,-9.49 -1.92,-10.25 0.59,-10.41 3.06,-9.96 5.36,-8.94 7.34,-7.40 Z" fill="#FFFFFF" stroke="transparent" stroke-width="0" stroke-linejoin="round" stroke-linecap="round" pointer-events="all" transform="translate(518, 448)"/><path id="path_756167a6-7ffd-4230-1c2c-f45612abb454" d="M32.65,5.95 Q30.91,8.48 24.76,18.27 T15.93,38.12 12.01,58.74 10.64,80.17 10.22,92.73 9.13,95.90 7.08,98.56 4.30,100.43 1.06,101.31 -2.28,101.11 -5.39,99.85 -7.94,97.66 -9.65,94.78 -10.35,91.50 -9.97,88.17 -8.54,85.14 -6.22,82.72 -3.25,81.16 0.06,80.64 3.37,81.20 6.32,82.79 8.61,85.23 10.00,88.29 10.34,91.62 9.60,94.89 7.86,97.75 5.29,99.91 2.17,101.13 -1.18,101.29 -4.41,100.38 -7.17,98.48 -9.18,95.80 -10.23,92.62 -10.50,90.94 -10.45,83.78 -9.74,66.24 -7.15,45.49 -1.45,24.75 7.96,5.49 14.48,-4.68 16.19,-6.90 18.06,-8.57 20.29,-9.74 22.72,-10.35 25.24,-10.35 27.68,-9.75 29.91,-8.59 31.79,-6.93 33.22,-4.86 34.12,-2.51 34.42,-0.02 34.12,2.48 33.24,4.83 Z" fill="#FFFFFF" stroke="transparent" stroke-width="0" stroke-linejoin="round" stroke-linecap="round" pointer-events="all" transform="translate(626, 451)"/><path id="path_43e5072d-e10e-4942-0f02-269babd829b8" d="M43.57,274.81 Q44.20,269.26 45.23,258.79 T46.98,236.84 47.96,214.75 48.59,193.08 49.12,168.94 49.33,144.70 49.41,121.83 49.30,97.58 47.06,72.56 40.88,48.62 31.11,27.88 19.27,27.77 14.36,47.98 23.28,66.78 43.00,79.69 66.57,87.98 88.48,92.96 110.60,94.32 133.23,91.08 153.63,82.61 170.87,68.13 169.30,64.17 156.36,79.26 150.05,100.62 144.70,122.95 139.86,145.51 136.51,167.42 134.96,189.13 134.56,211.25 134.03,233.10 133.18,254.39 132.14,276.73 131.11,290.27 129.85,293.38 127.67,295.93 124.79,297.64 121.51,298.35 118.18,297.97 115.15,296.55 112.72,294.23 111.17,291.26 110.64,287.95 111.20,284.65 112.78,281.69 115.23,279.40 118.27,278.00 121.61,277.66 124.88,278.39 127.75,280.13 129.90,282.70 131.13,285.82 131.30,289.17 130.38,292.40 128.49,295.16 125.81,297.18 122.63,298.23 119.27,298.22 116.10,297.13 113.44,295.09 111.58,292.31 110.69,289.07 110.52,287.38 111.14,277.28 112.16,255.47 113.03,232.99 113.56,211.11 113.92,189.39 115.39,167.60 118.41,146.05 122.67,125.43 127.39,104.98 132.76,84.02 140.37,62.98 151.65,44.22 167.67,29.59 188.22,26.06 203.38,38.48 202.35,58.72 190.02,78.12 174.68,93.89 157.21,105.11 136.50,112.09 113.05,115.36 90.05,114.46 66.59,109.69 42.32,102.19 21.04,92.42 4.36,78.44 -5.50,58.43 -6.96,34.58 -0.53,11.85 14.24,-2.44 32.92,-0.46 47.66,14.57 58.40,35.94 65.84,58.89 69.42,80.31 70.45,103.64 70.40,127.71 70.30,150.35 70.09,171.99 69.58,193.46 68.95,215.35 67.93,238.24 66.12,260.93 64.75,274.42 64.14,278.42 63.26,280.78 61.85,282.86 59.98,284.54 57.76,285.72 55.33,286.34 52.82,286.36 50.37,285.77 48.14,284.62 46.25,282.97 44.80,280.91 43.90,278.56 43.58,276.07 Z" fill="#FFFFFF" stroke="transparent" stroke-width="0" stroke-linejoin="round" stroke-linecap="round" pointer-events="all" transform="translate(501, 248)"/><path id="path_91c3aa59-31f2-43aa-0fec-d7648ed065c4" d="M5.95,-8.65 Q8.49,-6.91 17.57,-1.14 T37.15,5.55 55.48,2.19 64.79,-2.96 67.92,-4.15 71.27,-4.28 74.49,-3.34 77.24,-1.42 79.23,1.28 80.25,4.48 80.20,7.83 79.08,10.99 77.01,13.63 74.21,15.47 70.97,16.32 67.62,16.09 64.53,14.80 62.00,12.59 60.32,9.69 59.65,6.41 60.06,3.08 61.51,0.06 63.85,-2.34 66.84,-3.87 70.16,-4.36 73.46,-3.77 76.39,-2.15 78.66,0.31 80.02,3.38 80.34,6.72 79.57,9.98 77.80,12.83 76.68,14.10 67.01,19.88 46.41,27.27 25.49,25.64 6.04,16.40 -4.68,9.52 -6.90,7.81 -8.57,5.94 -9.74,3.71 -10.35,1.28 -10.35,-1.24 -9.75,-3.68 -8.59,-5.91 -6.93,-7.79 -4.86,-9.22 -2.51,-10.12 -0.02,-10.42 2.48,-10.12 4.83,-9.24 Z" fill="#FFFFFF" stroke="transparent" stroke-width="0" stroke-linejoin="round" stroke-linecap="round" pointer-events="all" transform="translate(552, 540)"/><path id="path_586e6e8d-4bcf-4a7a-1048-c2ca52e38313" d="M13.32,1.94 Q12.84,4.47 19.19,12.93 T36.31,21.75 52.44,9.85 58.43,-3.97 60.20,-6.82 62.79,-8.96 65.92,-10.15 69.27,-10.28 72.49,-9.34 75.23,-7.42 77.22,-4.72 78.25,-1.53 78.20,1.83 77.08,4.99 75.01,7.63 72.21,9.47 68.97,10.32 65.62,10.09 62.53,8.80 60.01,6.59 58.32,3.69 57.65,0.41 58.06,-2.92 59.51,-5.94 61.85,-8.34 64.84,-9.87 68.15,-10.36 71.45,-9.77 74.39,-8.16 76.66,-5.69 78.02,-2.62 78.34,0.71 78.22,2.41 76.90,8.93 71.48,25.16 57.28,39.04 35.93,42.84 14.42,40.22 -2.28,29.68 -8.24,10.99 -7.56,-0.67 -6.94,-3.14 -5.90,-5.43 -4.34,-7.40 -2.36,-8.94 -0.06,-9.96 2.41,-10.41 4.92,-10.24 7.32,-9.49 9.46,-8.18 11.23,-6.39 12.52,-4.24 13.26,-1.84 13.40,0.67 Z" fill="#FFFFFF" stroke="transparent" stroke-width="0" stroke-linejoin="round" stroke-linecap="round" pointer-events="all" transform="translate(554, 549)"/><path id="path_b1658842-34e8-4ba3-093b-26cd32726bfc" d="M10.26,-4.94 Q11.53,-2.56 21.93,-2.24 T33.49,-3.14 36.16,-5.16 39.34,-6.23 42.69,-6.22 45.87,-5.15 48.54,-3.11 50.41,-0.33 51.30,2.90 51.12,6.25 49.87,9.36 47.69,11.91 44.82,13.63 41.54,14.35 38.21,13.98 35.17,12.57 32.74,10.25 31.17,7.29 30.64,3.98 31.19,0.67 32.76,-2.29 35.20,-4.59 38.25,-5.99 41.58,-6.35 44.85,-5.62 47.72,-3.88 49.89,-1.32 51.12,1.79 51.30,5.14 50.40,8.37 49.68,9.91 39.41,18.63 18.08,26.19 0.01,16.18 -7.63,6.13 -8.72,3.76 -9.34,1.32 -9.36,-1.19 -8.77,-3.63 -7.62,-5.86 -5.96,-7.76 -3.90,-9.20 -1.56,-10.10 0.93,-10.42 3.43,-10.14 5.78,-9.26 7.86,-7.85 9.54,-5.98 Z" fill="#FFFFFF" stroke="transparent" stroke-width="0" stroke-linejoin="round" stroke-linecap="round" pointer-events="all" transform="translate(568, 583)"/><path id="path_1bfd5e99-68ef-414b-2977-14b3f68c06ea" d="M73.58,81.42 Q68.82,76.67 59.58,67.45 T41.21,49.73 23.18,33.23 3.88,16.72 -7.66,6.97 -9.49,4.16 -10.32,0.92 -10.07,-2.43 -8.77,-5.52 -6.55,-8.03 -3.64,-9.70 -0.35,-10.36 2.97,-9.93 5.98,-8.46 8.37,-6.10 9.88,-3.11 10.36,0.21 9.75,3.50 8.12,6.43 5.64,8.69 2.57,10.04 -0.77,10.33 -4.03,9.55 -6.87,7.76 -8.98,5.16 -10.16,2.02 -10.28,-1.33 -9.31,-4.54 -7.38,-7.28 -4.67,-9.25 -1.47,-10.26 1.88,-10.19 5.04,-9.05 6.52,-8.23 17.35,0.63 37.28,17.66 55.63,34.47 74.29,52.46 86.05,64.20 89.21,67.57 90.51,69.72 91.25,72.12 91.40,74.63 90.95,77.10 89.92,79.39 88.37,81.37 86.39,82.92 84.10,83.95 81.63,84.40 79.12,84.25 76.72,83.50 74.57,82.20 Z" fill="#FFFFFF" stroke="transparent" stroke-width="0" stroke-linejoin="round" stroke-linecap="round" pointer-events="all" transform="translate(408, 94)"/><path id="path_7b5703f0-fb08-4ab0-0e43-571442b194c1" d="M-10.50,65.00 Q-10.50,59.29 -10.50,47.56 T-10.15,24.62 -9.65,6.60 -9.19,-1.88 -8.06,-5.03 -5.97,-7.66 -3.16,-9.49 0.09,-10.32 3.43,-10.07 6.52,-8.77 9.03,-6.55 10.70,-3.64 11.36,-0.35 10.93,2.97 9.46,5.99 7.10,8.37 4.11,9.88 0.79,10.36 -2.50,9.75 -5.43,8.12 -7.69,5.64 -9.04,2.57 -9.33,-0.77 -8.55,-4.03 -6.76,-6.87 -4.16,-8.98 -1.02,-10.16 2.33,-10.28 5.54,-9.31 8.28,-7.38 10.25,-4.67 11.26,-1.47 11.50,0.21 11.35,7.13 10.85,24.94 10.50,47.56 10.50,62.15 10.35,66.26 9.75,68.70 8.58,70.92 6.91,72.80 4.84,74.23 2.49,75.12 -0.00,75.42 -2.50,75.12 -4.84,74.23 -6.91,72.80 -8.58,70.92 -9.75,68.70 -10.35,66.26 Z" fill="#FFFFFF" stroke="transparent" stroke-width="0" stroke-linejoin="round" stroke-linecap="round" pointer-events="all" transform="translate(624, 72)"/><path id="path_904fa40e-ce44-4bf7-227e-9abc5c863c7e" d="M-5.88,51.30 Q-0.49,47.66 9.70,40.74 T29.30,27.08 47.02,13.82 64.13,-0.23 74.34,-8.68 77.41,-10.03 80.74,-10.33 84.01,-9.56 86.85,-7.78 88.97,-5.18 90.16,-2.05 90.28,1.30 89.32,4.52 87.39,7.26 84.69,9.24 81.49,10.25 78.14,10.19 74.98,9.07 72.35,6.99 70.52,4.18 69.68,0.94 69.92,-2.41 71.22,-5.50 73.43,-8.02 76.34,-9.69 79.63,-10.35 82.95,-9.93 85.97,-8.47 88.36,-6.12 89.88,-3.13 90.36,0.19 89.76,3.49 88.13,6.42 87.08,7.75 78.04,15.50 60.15,30.20 41.59,44.11 21.57,58.06 8.58,66.87 4.76,69.27 2.40,70.14 -0.10,70.42 -2.59,70.10 -4.93,69.18 -6.99,67.74 -8.63,65.84 -9.78,63.60 -10.36,61.16 -10.34,58.65 -9.71,56.21 -8.52,54.00 -6.84,52.13 Z" fill="#FFFFFF" stroke="transparent" stroke-width="0" stroke-linejoin="round" stroke-linecap="round" pointer-events="all" transform="translate(756, 126)"/><path id="path_80c4a189-4a62-41cc-161d-2083d5b08e00" d="M0.42,-10.49 Q4.38,-10.33 15.89,-9.86 T38.19,-8.60 59.53,-7.66 71.76,-7.21 74.92,-6.12 77.58,-4.07 79.44,-1.28 80.31,1.96 80.10,5.31 78.84,8.41 76.65,10.95 73.76,12.66 70.48,13.35 67.15,12.96 64.12,11.53 61.70,9.20 60.15,6.23 59.64,2.92 60.21,-0.39 61.80,-3.34 64.25,-5.62 67.31,-7.01 70.64,-7.34 73.91,-6.59 76.77,-4.84 78.92,-2.27 80.14,0.85 80.29,4.20 79.37,7.43 77.46,10.19 74.78,12.19 71.59,13.24 69.92,13.50 59.13,13.34 37.15,12.37 14.75,11.10 1.56,10.57 -1.67,10.29 -4.08,9.59 -6.26,8.33 -8.07,6.59 -9.42,4.47 -10.21,2.09 -10.42,-0.42 -10.01,-2.90 -9.03,-5.21 -7.52,-7.22 -5.57,-8.81 -3.30,-9.89 -0.84,-10.39 Z" fill="#FFFFFF" stroke="transparent" stroke-width="0" stroke-linejoin="round" stroke-linecap="round" pointer-events="all" transform="translate(795, 313)"/><path id="path_8f18237a-0c0f-414c-33ea-73c298150ac4" d="M7.92,-6.89 Q11.09,-3.24 18.54,5.84 T32.15,24.03 44.35,42.48 58.70,65.20 67.62,80.16 68.35,83.43 67.99,86.76 66.58,89.81 64.28,92.24 61.32,93.82 58.01,94.36 54.70,93.82 51.73,92.25 49.43,89.82 48.02,86.78 47.65,83.45 48.37,80.17 50.10,77.30 52.65,75.12 55.77,73.88 59.11,73.70 62.35,74.59 65.12,76.47 67.15,79.14 68.22,82.32 68.23,85.67 67.16,88.85 65.13,91.52 62.36,93.40 59.13,94.30 55.78,94.12 52.66,92.88 50.11,90.71 49.01,89.42 41.60,77.28 28.23,56.03 15.80,37.32 2.29,19.13 -6.34,8.71 -8.63,5.84 -9.78,3.61 -10.36,1.16 -10.34,-1.35 -9.71,-3.79 -8.52,-6.00 -6.84,-7.87 -4.76,-9.27 -2.40,-10.14 0.10,-10.42 2.59,-10.10 4.93,-9.18 6.98,-7.74 Z" fill="#FFFFFF" stroke="transparent" stroke-width="0" stroke-linejoin="round" stroke-linecap="round" pointer-events="all" transform="translate(716, 435)"/><path id="path_f836aad3-6256-4c42-1063-fc7d05937767" d="M73.72,18.25 Q69.44,17.30 59.17,15.27 T37.72,12.13 13.22,10.75 -1.77,10.21 -4.94,9.11 -7.59,7.06 -9.44,4.26 -10.31,1.02 -10.10,-2.32 -8.83,-5.42 -6.63,-7.96 -3.74,-9.66 -0.46,-10.35 2.87,-9.96 5.90,-8.52 8.31,-6.19 9.85,-3.22 10.36,0.10 9.79,3.40 8.19,6.35 5.73,8.63 2.68,10.01 -0.66,10.34 -3.93,9.59 -6.78,7.83 -8.93,5.26 -10.14,2.13 -10.29,-1.22 -9.36,-4.44 -7.45,-7.20 -4.77,-9.20 -1.58,-10.24 0.10,-10.50 5.08,-10.45 20.88,-10.08 42.21,-8.57 63.36,-5.30 76.14,-2.73 79.47,-1.83 81.72,-0.71 83.64,0.91 85.12,2.95 86.06,5.27 86.42,7.76 86.18,10.26 85.34,12.63 83.96,14.73 82.12,16.44 79.92,17.66 77.49,18.32 74.98,18.37 Z" fill="#FFFFFF" stroke="transparent" stroke-width="0" stroke-linejoin="round" stroke-linecap="round" pointer-events="all" transform="translate(348, 313)"/><path id="path_35cb9873-d726-4629-1396-5b620e16622b" d="M83.20,8.48 Q79.07,11.49 69.15,18.05 T50.47,31.35 33.43,44.50 15.16,58.03 3.56,65.73 0.27,66.36 -3.05,65.90 -6.05,64.41 -8.42,62.04 -9.91,59.03 -10.36,55.71 -9.72,52.42 -8.07,49.50 -5.57,47.26 -2.49,45.94 0.85,45.67 4.11,46.49 6.93,48.30 9.03,50.91 10.18,54.06 10.27,57.41 9.28,60.61 7.32,63.34 4.59,65.29 1.39,66.27 -1.97,66.17 -5.11,65.01 -7.72,62.91 -9.52,60.08 -10.33,56.83 -10.05,53.49 -8.72,50.41 -6.48,47.92 -5.16,46.85 4.13,40.13 21.93,26.89 38.92,13.81 57.04,0.89 68.75,-6.97 71.91,-9.10 74.23,-10.05 76.72,-10.42 79.22,-10.18 81.59,-9.36 83.70,-7.99 85.42,-6.15 86.64,-3.96 87.31,-1.53 87.38,0.98 86.84,3.43 85.73,5.69 84.12,7.61 Z" fill="#FFFFFF" stroke="transparent" stroke-width="0" stroke-linejoin="round" stroke-linecap="round" pointer-events="all" transform="translate(382, 425)"/></svg>