<svg xmlns="http://www.w3.org/2000/svg" viewBox="604 3 831 781" width="80" height="80"><path id="path_68ef2b4c-3842-4913-31a2-f370d5555d31" d="M-6.80,303.00 Q-3.63,300.31 4.62,292.49 T20.01,276.54 33.78,260.18 47.91,242.70 63.29,224.68 79.56,207.12 96.35,189.49 113.31,171.81 130.24,154.33 146.73,137.40 162.71,121.53 178.23,106.82 194.82,91.51 213.06,74.91 231.33,58.53 250.68,42.05 270.56,25.34 295.16,4.56 311.71,-8.91 314.84,-10.13 318.19,-10.29 321.41,-9.38 324.17,-7.48 326.19,-4.79 327.24,-1.61 327.21,1.74 326.12,4.91 324.08,7.57 321.29,9.43 318.05,10.31 314.71,10.10 311.60,8.84 309.06,6.66 307.35,3.77 306.65,0.49 307.03,-2.84 308.46,-5.87 310.78,-8.29 313.76,-9.84 317.07,-10.36 320.37,-9.80 323.33,-8.21 325.61,-5.76 327.00,-2.71 327.34,0.63 326.60,3.90 324.85,6.76 323.75,8.05 308.84,20.50 284.01,41.46 264.09,58.21 245.38,74.13 227.43,90.22 209.13,106.89 190.75,123.93 173.85,140.10 158.06,155.95 141.17,173.26 124.16,190.83 107.40,208.35 90.88,225.76 75.45,242.54 60.76,260.05 46.68,277.45 32.99,293.41 18.00,308.80 8.39,317.65 5.74,319.70 3.50,320.82 1.04,321.37 -1.47,321.32 -3.90,320.67 -6.10,319.45 -7.94,317.75 -9.33,315.65 -10.17,313.29 -10.42,310.79 -10.07,308.30 -9.13,305.97 -7.66,303.93 Z" fill="#FFFFFF" stroke="transparent" stroke-width="0" stroke-linejoin="round" stroke-linecap="round" pointer-events="all" transform="translate(830, 349)"/><path id="path_ffe2258f-6cc6-4682-0e50-09fc1efb86b5" d="M307.16,6.61 Q304.47,9.94 296.96,19.12 T282.42,37.07 268.61,54.51 255.32,71.41 241.95,88.17 228.06,104.93 212.92,122.57 196.82,140.95 180.50,158.86 162.47,177.85 144.86,196.45 128.18,214.48 110.00,233.52 92.44,251.49 74.81,269.22 57.07,286.68 41.36,302.24 25.62,316.41 10.75,326.41 2.53,330.05 -0.81,330.33 -4.06,329.53 -6.89,327.74 -9.00,325.13 -10.17,321.99 -10.27,318.63 -9.30,315.43 -7.35,312.70 -4.63,310.73 -1.43,309.74 1.92,309.82 5.07,310.96 7.69,313.06 9.51,315.88 10.32,319.13 10.06,322.47 8.75,325.55 6.52,328.06 3.60,329.71 0.31,330.36 -3.01,329.91 -6.02,328.43 -8.40,326.07 -9.90,323.07 -10.36,319.75 -9.74,316.46 -8.10,313.53 -5.61,311.29 -4.18,310.37 -1.27,309.12 10.20,301.48 26.31,287.59 42.35,271.71 59.92,254.42 77.35,236.89 94.97,218.86 112.94,200.04 129.75,181.87 145.22,165.48 161.05,148.87 176.58,132.00 191.72,114.82 207.80,96.22 222.79,78.36 237.56,60.01 252.19,41.42 266.33,23.57 280.86,5.63 289.49,-4.94 291.75,-7.49 293.75,-9.01 296.06,-10.00 298.54,-10.41 301.04,-10.22 303.43,-9.44 305.56,-8.10 307.31,-6.30 308.57,-4.13 309.28,-1.71 309.39,0.80 308.90,3.26 307.83,5.53 Z" fill="#FFFFFF" stroke="transparent" stroke-width="0" stroke-linejoin="round" stroke-linecap="round" pointer-events="all" transform="translate(880, 377)"/><path id="path_54e70b4d-af04-4ffc-0b59-382d22fc8c13" d="M291.68,5.90 Q288.99,9.87 283.18,18.71 T270.78,37.39 257.69,56.25 245.09,73.90 231.59,92.02 216.82,110.36 201.93,128.06 187.72,145.12 173.67,161.75 159.55,178.58 145.37,196.07 130.46,214.88 114.87,234.20 99.30,252.85 84.38,270.72 68.52,290.06 52.77,309.66 38.59,326.99 23.85,342.69 11.13,353.78 4.75,358.21 1.56,359.24 -1.79,359.21 -4.96,358.10 -7.60,356.04 -9.45,353.24 -10.31,350.00 -10.09,346.66 -8.82,343.56 -6.62,341.03 -3.73,339.33 -0.44,338.65 2.89,339.05 5.91,340.49 8.32,342.82 9.86,345.80 10.36,349.12 9.78,352.42 8.18,355.36 5.72,357.64 2.66,359.02 -0.68,359.34 -3.95,358.58 -6.80,356.82 -8.94,354.24 -10.14,351.11 -10.29,347.76 -9.35,344.54 -7.44,341.79 -6.26,340.57 1.84,334.35 16.76,320.11 30.27,304.01 44.41,286.65 58.65,268.92 73.16,251.31 87.98,233.54 102.09,216.52 116.29,198.96 130.09,181.65 143.55,164.97 157.53,148.33 171.51,131.78 185.96,114.43 200.89,96.69 215.31,78.77 228.99,60.37 241.79,42.44 253.89,24.94 265.70,7.08 272.97,-3.92 275.15,-6.86 277.02,-8.54 279.24,-9.72 281.67,-10.34 284.18,-10.36 286.63,-9.77 288.86,-8.62 290.75,-6.97 292.20,-4.91 293.10,-2.56 293.42,-0.07 293.14,2.42 292.26,4.78 Z" fill="#FFFFFF" stroke="transparent" stroke-width="0" stroke-linejoin="round" stroke-linecap="round" pointer-events="all" transform="translate(944, 395)"/><path id="path_5f3c7ac7-3501-4d0b-14db-cf6ba525370c" d="M6.67,-8.11 Q9.37,-5.89 17.76,0.83 T34.45,14.58 51.26,27.70 68.57,40.26 85.86,53.63 102.80,67.54 117.77,79.60 125.49,85.84 127.38,88.61 128.30,91.83 128.13,95.18 126.90,98.30 124.74,100.87 121.88,102.61 118.61,103.34 115.27,103.00 112.22,101.60 109.78,99.31 108.20,96.35 107.64,93.05 108.17,89.73 109.72,86.77 112.15,84.45 115.18,83.03 118.52,82.65 121.79,83.36 124.67,85.07 126.86,87.62 128.11,90.73 128.31,94.08 127.42,97.31 125.55,100.09 122.89,102.13 119.72,103.22 116.37,103.23 113.19,102.18 111.68,101.39 104.78,96.09 89.36,83.71 72.62,70.00 55.96,57.12 38.27,44.21 20.98,30.73 4.49,17.12 -5.33,9.21 -7.55,7.19 -9.05,5.17 -10.02,2.86 -10.42,0.38 -10.20,-2.13 -9.40,-4.51 -8.05,-6.63 -6.23,-8.36 -4.04,-9.61 -1.63,-10.30 0.88,-10.39 3.34,-9.87 5.61,-8.79 Z" fill="#FFFFFF" stroke="transparent" stroke-width="0" stroke-linejoin="round" stroke-linecap="round" pointer-events="all" transform="translate(1133, 319)"/><path id="path_e867686f-f5ad-46eb-0112-f529d7fc4136" d="M-8.07,125.28 Q-6.48,123.38 0.93,115.28 T16.67,99.85 33.55,85.56 50.92,71.26 68.23,56.70 85.46,42.98 103.24,31.02 121.62,19.95 139.78,8.14 158.41,-3.32 179.06,-5.91 198.20,3.07 215.01,16.78 231.09,31.61 247.81,45.52 263.31,61.42 266.56,80.79 259.17,100.31 249.13,118.85 236.19,135.75 221.53,151.01 206.14,165.47 189.98,179.62 173.46,194.50 157.16,209.67 138.83,224.24 126.87,231.96 123.54,232.35 120.26,231.66 117.37,229.96 115.18,227.43 113.90,224.33 113.69,220.98 114.55,217.74 116.41,214.95 119.06,212.89 122.22,211.79 125.57,211.76 128.76,212.80 131.45,214.80 133.36,217.56 134.29,220.78 134.14,224.13 132.93,227.25 130.79,229.83 127.93,231.59 124.66,232.34 121.33,232.01 118.27,230.63 115.81,228.35 114.21,225.41 113.64,222.10 114.15,218.79 115.69,215.81 118.10,213.48 119.50,212.51 125.03,208.88 139.12,197.61 155.45,182.85 171.43,168.52 187.27,154.23 203.00,139.36 218.46,123.88 231.47,107.29 241.26,88.74 239.64,70.45 225.85,54.88 210.16,40.56 193.66,26.17 174.00,18.22 154.73,23.35 136.48,35.32 117.74,46.81 99.87,58.76 82.77,72.11 66.10,86.16 49.14,100.02 32.32,114.12 16.79,129.10 8.86,137.77 7.14,139.59 5.12,141.08 2.80,142.04 0.31,142.42 -2.19,142.19 -4.56,141.37 -6.67,140.01 -8.40,138.18 -9.63,135.99 -10.30,133.57 -10.38,131.06 -9.85,128.60 -8.75,126.34 Z" fill="#FFFFFF" stroke="transparent" stroke-width="0" stroke-linejoin="round" stroke-linecap="round" pointer-events="all" transform="translate(1132, 187)"/><path id="path_b7b45a2d-9b28-436d-3499-3bce1bea1da2" d="M36.96,10.07 Q34.27,10.87 24.52,15.90 T24.41,25.21 32.52,19.97 29.34,10.01 26.28,8.64 23.82,6.36 22.22,3.42 21.64,0.12 22.14,-3.20 23.68,-6.18 26.09,-8.51 29.12,-9.95 32.45,-10.35 35.73,-9.67 38.62,-7.97 40.82,-5.44 42.09,-2.34 42.31,1.01 41.45,4.25 39.60,7.04 36.95,9.10 33.79,10.21 30.44,10.24 27.25,9.21 24.56,7.21 22.64,4.45 21.71,1.23 21.86,-2.12 23.06,-5.24 25.21,-7.82 28.06,-9.58 31.33,-10.34 33.02,-10.45 36.17,-10.14 48.95,-4.82 60.04,10.90 57.11,31.65 42.79,47.55 22.31,52.89 2.92,45.62 -6.56,27.71 0.63,8.20 18.40,-4.73 29.69,-9.68 32.29,-10.28 34.80,-10.39 37.26,-9.90 39.53,-8.83 41.49,-7.25 43.01,-5.25 44.00,-2.94 44.41,-0.46 44.22,2.04 43.44,4.43 42.10,6.56 40.30,8.31 38.12,9.57 Z" fill="#FFFFFF" stroke="transparent" stroke-width="0" stroke-linejoin="round" stroke-linecap="round" pointer-events="all" transform="translate(1274, 243)"/><path id="path_01f40313-4f26-4920-1e3b-91b321ca246b" d="M5.40,132.00 Q7.78,133.42 17.94,136.19 T36.12,131.56 50.75,115.67 64.58,98.75 79.85,83.25 96.17,69.81 110.27,54.15 118.83,34.63 122.53,11.93 123.88,-2.21 125.11,-5.32 127.28,-7.88 130.14,-9.62 133.42,-10.35 136.75,-9.99 139.80,-8.59 142.24,-6.29 143.81,-3.33 144.36,-0.02 143.83,3.29 142.26,6.25 139.83,8.56 136.79,9.98 133.46,10.35 130.18,9.63 127.31,7.91 125.13,5.36 123.88,2.25 123.70,-1.10 124.59,-4.33 126.46,-7.11 129.13,-9.15 132.30,-10.22 135.66,-10.23 138.84,-9.16 141.51,-7.14 143.40,-4.37 144.30,-1.14 144.49,0.55 143.57,12.13 140.76,34.35 134.17,55.01 122.64,73.30 107.40,87.83 90.94,101.97 76.03,118.30 62.39,134.75 47.39,149.65 28.46,157.87 7.37,155.32 -4.21,150.72 -6.40,149.23 -8.18,147.46 -9.49,145.31 -10.25,142.91 -10.41,140.40 -9.96,137.93 -8.94,135.64 -7.39,133.65 -5.42,132.10 -3.13,131.06 -0.66,130.60 1.85,130.74 4.25,131.48 Z" fill="#FFFFFF" stroke="transparent" stroke-width="0" stroke-linejoin="round" stroke-linecap="round" pointer-events="all" transform="translate(1254, 270)"/><path id="path_5a8016af-095a-4524-05ed-22b2ff37ccb1" d="M193.69,58.14 Q191.63,60.36 184.02,68.25 T167.97,82.36 150.47,93.98 142.87,92.92 145.59,86.64 148.02,87.31 150.21,88.53 152.05,90.25 153.42,92.35 154.25,94.72 154.49,97.22 154.12,99.71 153.17,102.04 151.69,104.07 149.77,105.68 147.51,106.79 145.06,107.33 132.78,106.48 111.93,101.87 94.13,91.08 78.08,76.75 60.86,63.38 43.19,51.20 25.63,39.09 8.41,26.40 -4.83,11.75 -10.17,1.99 -10.27,-1.36 -9.30,-4.57 -7.35,-7.30 -4.64,-9.26 -1.44,-10.26 1.91,-10.18 5.07,-9.04 7.69,-6.95 9.50,-4.13 10.32,-0.88 10.06,2.46 8.75,5.55 6.52,8.05 3.61,9.71 0.32,10.36 -3.00,9.92 -6.01,8.44 -8.39,6.08 -9.89,3.08 -10.36,-0.24 -9.74,-3.54 -8.10,-6.46 -5.61,-8.71 -2.54,-10.05 0.80,-10.33 4.06,-9.53 6.89,-7.74 9.00,-5.13 9.84,-3.66 14.19,2.08 27.35,13.95 44.52,26.27 62.19,38.75 79.88,51.66 96.87,64.92 114.02,77.94 133.46,85.40 145.59,86.64 148.02,87.31 150.21,88.53 152.05,90.25 153.42,92.35 154.25,94.72 154.49,97.22 154.12,99.71 153.17,102.03 151.69,104.07 149.77,105.68 147.51,106.79 145.06,107.33 133.53,106.04 123.01,93.74 132.95,78.74 152.16,68.15 168.72,53.87 177.28,44.96 179.27,43.04 181.37,41.66 183.74,40.82 186.24,40.58 188.73,40.94 191.06,41.89 193.09,43.36 194.71,45.28 195.83,47.53 196.37,49.99 196.32,52.50 195.66,54.92 194.44,57.12 Z" fill="#FFFFFF" stroke="transparent" stroke-width="0" stroke-linejoin="round" stroke-linecap="round" pointer-events="all" transform="translate(1129, 321)"/><path id="path_552f4d46-6383-47c8-2c37-acb245130a97" d="M8.83,-5.68 Q10.26,-3.46 14.86,6.81 T26.52,25.30 40.84,41.13 56.64,54.75 74.57,66.75 92.67,78.51 111.32,87.81 131.79,91.89 144.91,91.28 149.16,89.80 152.52,89.75 155.71,90.77 158.41,92.76 160.33,95.50 161.28,98.72 161.15,102.07 159.96,105.20 157.83,107.79 154.99,109.56 151.72,110.34 148.38,110.03 145.32,108.67 142.85,106.40 141.23,103.46 140.64,100.16 141.13,96.84 142.65,93.86 145.05,91.52 148.07,90.06 151.40,89.65 154.69,90.32 157.58,92.00 159.79,94.52 161.08,97.62 161.32,100.96 160.47,104.20 158.63,107.01 155.99,109.08 154.51,109.90 148.35,111.67 131.62,113.03 110.63,109.34 90.43,101.00 71.80,90.14 54.00,78.40 36.65,65.87 21.04,51.42 7.32,35.35 -3.29,17.53 -8.12,6.79 -9.38,4.54 -10.20,2.16 -10.42,-0.34 -10.03,-2.83 -9.07,-5.14 -7.57,-7.16 -5.64,-8.77 -3.37,-9.86 -0.92,-10.38 1.60,-10.30 4.01,-9.62 6.20,-8.38 8.03,-6.65 Z" fill="#FFFFFF" stroke="transparent" stroke-width="0" stroke-linejoin="round" stroke-linecap="round" pointer-events="all" transform="translate(1130, 320)"/><path id="path_6c018cf6-79f2-48ed-2c30-13bc687dba19" d="M12.48,0.70 Q12.32,3.07 17.92,13.01 T31.28,30.80 47.77,44.94 65.43,57.46 83.99,70.02 102.64,77.93 113.33,79.90 116.43,81.18 118.97,83.37 120.66,86.26 121.35,89.55 120.95,92.87 119.52,95.90 117.18,98.31 114.21,99.85 110.89,100.36 107.59,99.78 104.64,98.18 102.36,95.73 100.99,92.67 100.66,89.33 101.41,86.06 103.17,83.21 105.75,81.07 108.88,79.86 112.23,79.71 115.45,80.64 118.20,82.55 120.21,85.24 121.24,88.43 121.21,91.78 120.10,94.95 118.05,97.60 115.25,99.45 112.01,100.31 110.32,100.48 104.20,100.00 88.35,95.62 69.61,85.79 51.24,73.42 33.56,60.74 17.47,46.79 3.29,30.52 -5.88,11.82 -8.56,0.49 -8.24,-1.94 -7.48,-4.34 -6.17,-6.48 -4.38,-8.24 -2.22,-9.53 0.18,-10.26 2.69,-10.40 5.16,-9.93 7.45,-8.89 9.42,-7.32 10.95,-5.34 11.97,-3.04 12.41,-0.56 Z" fill="#FFFFFF" stroke="transparent" stroke-width="0" stroke-linejoin="round" stroke-linecap="round" pointer-events="all" transform="translate(1151, 310)"/><path id="path_662fbd65-55f6-41c8-33c3-8a63a8e23302" d="M0.00,-10.50 Q3.17,-10.50 14.02,-10.50 T35.30,-10.50 52.37,-10.50 60.68,-10.23 63.85,-9.15 66.52,-7.13 68.40,-4.35 69.30,-1.12 69.12,2.23 67.88,5.34 65.71,7.90 62.83,9.63 59.56,10.35 56.23,9.98 53.18,8.58 50.75,6.27 49.18,3.31 48.64,-0.00 49.18,-3.31 50.75,-6.27 53.19,-8.58 56.23,-9.98 59.56,-10.35 62.84,-9.62 65.71,-7.90 67.88,-5.34 69.12,-2.22 69.30,1.12 68.40,4.35 66.52,7.13 63.85,9.16 60.67,10.23 59.00,10.50 52.37,10.50 35.30,10.50 14.02,10.50 1.58,10.50 -1.26,10.35 -3.70,9.75 -5.92,8.58 -7.80,6.91 -9.23,4.84 -10.12,2.49 -10.42,-0.00 -10.12,-2.50 -9.23,-4.84 -7.80,-6.91 -5.92,-8.58 -3.70,-9.75 -1.26,-10.35 Z" fill="#FFFFFF" stroke="transparent" stroke-width="0" stroke-linejoin="round" stroke-linecap="round" pointer-events="all" transform="translate(704, 283)"/><path id="path_045c8b90-7f4e-4316-2f84-a61eede3d510" d="M-9.15,97.85 Q-7.73,95.32 -2.37,85.73 T8.98,66.62 21.01,47.21 32.06,27.76 44.06,6.37 52.13,-6.74 54.69,-8.90 57.81,-10.13 61.16,-10.30 64.39,-9.39 67.16,-7.49 69.17,-4.82 70.23,-1.63 70.22,1.72 69.13,4.89 67.09,7.55 64.31,9.42 61.08,10.31 57.73,10.11 54.62,8.86 52.07,6.67 50.36,3.79 49.65,0.52 50.03,-2.81 51.45,-5.85 53.76,-8.28 56.73,-9.83 60.04,-10.36 63.35,-9.80 66.31,-8.22 68.60,-5.78 70.00,-2.73 70.34,0.61 69.61,3.88 68.97,5.45 60.98,19.12 48.18,42.17 37.69,60.47 26.38,78.36 15.67,96.47 9.86,106.88 8.40,109.17 6.68,111.00 4.57,112.37 2.20,113.19 -0.30,113.42 -2.79,113.04 -5.11,112.08 -7.14,110.60 -8.75,108.67 -9.85,106.41 -10.38,103.95 -10.31,101.44 -9.63,99.02 Z" fill="#FFFFFF" stroke="transparent" stroke-width="0" stroke-linejoin="round" stroke-linecap="round" pointer-events="all" transform="translate(763, 179)"/><path id="path_e9d6bf1e-3bf2-4bbb-16eb-3f4820a02c51" d="M0.00,-10.50 Q3.49,-10.50 15.44,-10.50 T37.93,-10.50 59.14,-10.50 80.38,-10.50 101.99,-10.50 123.93,-10.50 145.77,-10.50 167.78,-10.50 191.92,-10.50 206.68,-10.23 209.85,-9.15 212.52,-7.13 214.40,-4.35 215.30,-1.12 215.12,2.23 213.88,5.34 211.71,7.90 208.83,9.63 205.56,10.35 202.23,9.98 199.18,8.58 196.75,6.27 195.18,3.31 194.64,-0.00 195.18,-3.31 196.75,-6.27 199.19,-8.58 202.23,-9.98 205.56,-10.35 208.84,-9.62 211.71,-7.90 213.88,-5.34 215.12,-2.22 215.30,1.12 214.40,4.35 212.52,7.13 209.85,9.16 206.67,10.23 205.00,10.50 191.92,10.50 167.78,10.50 145.77,10.50 123.93,10.50 101.99,10.50 80.38,10.50 59.14,10.50 37.93,10.50 15.44,10.50 1.74,10.50 -1.26,10.35 -3.70,9.75 -5.92,8.58 -7.80,6.91 -9.23,4.84 -10.12,2.49 -10.42,-0.00 -10.12,-2.50 -9.23,-4.84 -7.80,-6.91 -5.92,-8.58 -3.70,-9.75 -1.26,-10.35 Z" fill="#FFFFFF" stroke="transparent" stroke-width="0" stroke-linejoin="round" stroke-linecap="round" pointer-events="all" transform="translate(776, 168)"/><path id="path_9c138869-c604-4442-1c7a-31a99bf19467" d="M9.58,-4.31 Q11.00,-1.14 15.20,8.39 T23.68,27.73 31.80,47.48 39.87,67.19 48.13,87.22 54.11,103.76 56.28,111.72 56.15,115.07 54.96,118.20 52.83,120.79 49.99,122.56 46.72,123.34 43.38,123.03 40.32,121.67 37.85,119.40 36.23,116.46 35.64,113.16 36.13,109.84 37.65,106.86 40.05,104.52 43.07,103.06 46.40,102.65 49.69,103.32 52.58,105.00 54.79,107.52 56.08,110.62 56.32,113.96 55.47,117.21 53.63,120.01 50.99,122.08 47.83,123.20 44.48,123.25 41.29,122.23 38.59,120.24 36.66,117.49 35.93,115.97 31.33,103.19 22.27,79.67 13.71,58.64 5.13,37.98 -3.76,17.54 -8.86,5.89 -9.95,3.10 -10.40,0.63 -10.25,-1.88 -9.50,-4.28 -8.20,-6.43 -6.43,-8.21 -4.28,-9.51 -1.88,-10.25 0.63,-10.40 3.10,-9.95 5.39,-8.92 7.37,-7.37 8.92,-5.39 Z" fill="#FFFFFF" stroke="transparent" stroke-width="0" stroke-linejoin="round" stroke-linecap="round" pointer-events="all" transform="translate(945, 172)"/><path id="path_40942c7a-1ef5-4a24-1d55-9b1b0212a1ac" d="M0.00,-10.50 Q2.85,-10.50 13.88,-10.50 T36.21,-9.93 53.98,-8.93 62.10,-8.15 65.23,-6.94 67.81,-4.81 69.58,-1.95 70.34,1.31 70.02,4.65 68.65,7.71 66.37,10.17 63.43,11.78 60.13,12.36 56.81,11.86 53.83,10.33 51.50,7.92 50.05,4.90 49.65,1.57 50.33,-1.72 52.02,-4.61 54.55,-6.81 57.65,-8.09 60.99,-8.31 64.24,-7.46 67.03,-5.61 69.09,-2.97 70.20,0.20 70.24,3.55 69.21,6.74 67.22,9.44 64.47,11.35 61.25,12.29 59.56,12.49 52.86,12.07 35.53,11.08 13.88,10.50 1.43,10.50 -1.26,10.35 -3.70,9.75 -5.92,8.58 -7.80,6.91 -9.23,4.84 -10.12,2.49 -10.42,-0.00 -10.12,-2.50 -9.23,-4.84 -7.80,-6.91 -5.92,-8.58 -3.70,-9.75 -1.26,-10.35 Z" fill="#FFFFFF" stroke="transparent" stroke-width="0" stroke-linejoin="round" stroke-linecap="round" pointer-events="all" transform="translate(992, 285)"/><path id="path_a71f6584-07a5-4a11-074a-f86e7f97a3bd" d="M-9.50,121.00 Q-9.50,118.15 -9.50,107.57 T-9.85,86.50 -10.34,65.50 -10.49,43.99 -10.50,22.39 -10.50,5.90 -10.23,-1.68 -9.15,-4.85 -7.13,-7.52 -4.35,-9.40 -1.12,-10.30 2.23,-10.12 5.34,-8.88 7.90,-6.71 9.63,-3.83 10.35,-0.56 9.98,2.77 8.58,5.82 6.27,8.25 3.31,9.82 -0.00,10.36 -3.31,9.82 -6.27,8.25 -8.58,5.81 -9.98,2.77 -10.35,-0.56 -9.62,-3.84 -7.90,-6.71 -5.34,-8.88 -2.23,-10.12 1.12,-10.30 4.35,-9.40 7.13,-7.52 9.16,-4.85 10.23,-1.67 10.50,0.00 10.50,5.36 10.50,21.14 10.51,42.62 10.65,64.43 11.15,86.09 11.50,107.57 11.50,119.57 11.35,122.26 10.75,124.70 9.58,126.92 7.91,128.80 5.84,130.23 3.49,131.12 1.00,131.42 -1.50,131.12 -3.84,130.23 -5.91,128.80 -7.58,126.92 -8.75,124.70 -9.35,122.26 Z" fill="#FFFFFF" stroke="transparent" stroke-width="0" stroke-linejoin="round" stroke-linecap="round" pointer-events="all" transform="translate(882, 43)"/><path id="path_d020d13c-fda9-409a-3900-038b868ef1c9" d="M5.50,-8.94 Q7.56,-7.67 15.82,-1.29 T31.76,12.52 41.90,21.80 45.53,24.89 47.41,27.66 48.30,30.90 48.12,34.24 46.87,37.36 44.70,39.91 41.82,41.63 38.54,42.35 35.21,41.98 32.17,40.57 29.74,38.26 28.18,35.29 27.64,31.98 28.19,28.68 29.76,25.72 32.20,23.41 35.24,22.01 38.58,21.65 41.85,22.38 44.72,24.11 46.89,26.67 48.12,29.79 48.30,33.14 47.40,36.37 45.51,39.14 42.84,41.16 39.66,42.23 36.31,42.22 33.13,41.15 31.63,40.35 22.27,32.15 4.74,17.08 -4.47,9.58 -6.49,8.15 -8.26,6.36 -9.54,4.20 -10.27,1.80 -10.40,-0.71 -9.93,-3.18 -8.88,-5.46 -7.31,-7.43 -5.32,-8.96 -3.02,-9.98 -0.55,-10.41 1.96,-10.24 4.35,-9.47 Z" fill="#FFFFFF" stroke="transparent" stroke-width="0" stroke-linejoin="round" stroke-linecap="round" pointer-events="all" transform="translate(943, 224)"/><path id="path_329921ba-03d6-4910-114e-3b6680a2bb1f" d="M-10.41,44.61 Q-10.09,42.23 -7.75,31.84 T-3.44,10.76 0.41,-2.89 3.45,-7.09 6.11,-9.13 9.28,-10.22 12.63,-10.23 15.81,-9.18 18.49,-7.16 20.39,-4.39 21.30,-1.16 21.13,2.19 19.90,5.30 17.74,7.87 14.88,9.61 11.60,10.34 8.27,10.00 5.22,8.60 2.78,6.30 1.19,3.35 0.64,0.04 1.17,-3.27 2.73,-6.24 5.15,-8.55 8.19,-9.97 11.52,-10.35 14.80,-9.64 17.68,-7.92 19.86,-5.38 21.11,-2.27 21.31,1.08 20.42,4.31 19.71,5.86 17.56,15.07 13.06,34.65 10.57,46.20 10.09,48.61 9.17,50.95 7.72,53.00 5.82,54.65 3.58,55.79 1.13,56.36 -1.38,56.33 -3.81,55.70 -6.02,54.51 -7.88,52.82 -9.29,50.73 -10.15,48.37 -10.42,45.88 Z" fill="#FFFFFF" stroke="transparent" stroke-width="0" stroke-linejoin="round" stroke-linecap="round" pointer-events="all" transform="translate(982, 210)"/><path id="path_e9ae7f03-4ef7-4c61-06df-0982614364bc" d="M-1.23,-1.43 Q1.47,-1.75 11.99,-4.08 T33.02,-8.15 47.39,-10.18 52.92,-10.32 56.17,-9.49 58.98,-7.66 61.06,-5.03 62.19,-1.87 62.26,1.48 61.25,4.68 59.27,7.39 56.53,9.32 53.32,10.28 49.97,10.16 46.83,8.98 44.23,6.86 42.45,4.02 41.67,0.76 41.97,-2.58 43.32,-5.65 45.57,-8.13 48.51,-9.75 51.80,-10.36 55.12,-9.88 58.11,-8.37 60.47,-5.98 61.93,-2.96 62.36,0.37 61.70,3.65 60.02,6.56 57.51,8.78 54.42,10.08 52.77,10.47 49.65,10.70 36.12,12.69 14.81,16.78 2.57,19.27 -0.04,19.42 -2.53,19.11 -4.88,18.21 -6.94,16.78 -8.60,14.89 -9.76,12.66 -10.35,10.22 -10.34,7.70 -9.73,5.27 -8.56,3.05 -6.88,1.17 -4.81,-0.25 -2.46,-1.13 Z" fill="#FFFFFF" stroke="transparent" stroke-width="0" stroke-linejoin="round" stroke-linecap="round" pointer-events="all" transform="translate(941, 212)"/><path id="path_822a9116-777f-48c5-3f68-24dbffed48cc" d="M117.00,10.50 Q114.31,10.50 103.56,10.50 T82.08,10.50 60.83,10.50 39.81,10.50 18.51,10.50 3.85,10.50 -1.68,10.23 -4.85,9.15 -7.52,7.13 -9.40,4.35 -10.30,1.12 -10.12,-2.23 -8.88,-5.34 -6.71,-7.90 -3.83,-9.63 -0.56,-10.35 2.77,-9.98 5.82,-8.58 8.25,-6.27 9.82,-3.31 10.36,0.00 9.82,3.31 8.25,6.27 5.81,8.58 2.77,9.98 -0.56,10.35 -3.84,9.62 -6.71,7.90 -8.88,5.34 -10.12,2.22 -10.30,-1.12 -9.40,-4.35 -7.52,-7.13 -4.85,-9.16 -1.67,-10.23 0.00,-10.50 3.85,-10.50 18.51,-10.50 39.81,-10.50 60.83,-10.50 82.08,-10.50 103.56,-10.50 115.65,-10.50 118.26,-10.35 120.70,-9.75 122.92,-8.58 124.80,-6.91 126.23,-4.84 127.12,-2.49 127.42,0.00 127.12,2.50 126.23,4.84 124.80,6.91 122.92,8.58 120.70,9.75 118.26,10.35 Z" fill="#FFFFFF" stroke="transparent" stroke-width="0" stroke-linejoin="round" stroke-linecap="round" pointer-events="all" transform="translate(644, 282)"/><path id="path_36bc2dff-f05e-4b16-2ca8-79913913b068" d="M0.00,-10.50 Q2.54,-10.50 12.97,-10.50 T34.03,-10.50 55.28,-10.50 76.79,-10.50 98.84,-10.50 111.68,-10.23 114.85,-9.15 117.52,-7.13 119.40,-4.35 120.30,-1.12 120.12,2.23 118.88,5.34 116.71,7.90 113.83,9.63 110.56,10.35 107.23,9.98 104.18,8.58 101.75,6.27 100.18,3.31 99.64,-0.00 100.18,-3.31 101.75,-6.27 104.19,-8.58 107.23,-9.98 110.56,-10.35 113.84,-9.62 116.71,-7.90 118.88,-5.34 120.12,-2.22 120.30,1.12 119.40,4.35 117.52,7.13 114.85,9.16 111.67,10.23 110.00,10.50 98.84,10.50 76.79,10.50 55.28,10.50 34.03,10.50 12.97,10.50 1.27,10.50 -1.26,10.35 -3.70,9.75 -5.92,8.58 -7.80,6.91 -9.23,4.84 -10.12,2.49 -10.42,-0.00 -10.12,-2.50 -9.23,-4.84 -7.80,-6.91 -5.92,-8.58 -3.70,-9.75 -1.26,-10.35 Z" fill="#FFFFFF" stroke="transparent" stroke-width="0" stroke-linejoin="round" stroke-linecap="round" pointer-events="all" transform="translate(992, 286)"/></svg>