<svg xmlns="http://www.w3.org/2000/svg" viewBox="648 90 779 753" width="300" height="300"><path id="path_66b3cdfb-cd64-46bd-191a-eac8aa13f393" d="M10.50,0.00 Q10.50,6.50 10.50,17.12 T10.85,40.12 12.36,66.45 14.39,90.80 15.88,111.82 16.94,133.20 17.69,155.19 18.22,177.46 18.60,199.34 18.90,225.31 19.14,254.69 19.29,282.26 19.37,308.39 19.42,334.11 19.46,359.65 19.47,384.57 19.48,408.32 19.49,431.30 19.49,453.57 19.50,477.02 19.50,502.08 19.50,525.21 19.35,547.42 18.85,571.08 18.17,584.97 17.01,588.11 14.91,590.72 12.08,592.53 8.82,593.33 5.48,593.05 2.40,591.72 -0.09,589.48 -1.73,586.56 -2.36,583.26 -1.90,579.94 -0.41,576.94 1.97,574.57 4.98,573.09 8.30,572.64 11.59,573.28 14.51,574.94 16.74,577.44 18.06,580.52 18.33,583.86 17.51,587.11 15.70,589.93 13.08,592.03 9.93,593.18 6.58,593.26 3.38,592.27 0.66,590.31 -1.29,587.59 -2.27,584.38 -2.50,582.70 -2.20,572.31 -1.70,551.17 -1.50,529.46 -1.50,506.90 -1.50,483.20 -1.50,460.62 -1.51,438.87 -1.51,416.04 -1.52,392.66 -1.54,368.20 -1.56,342.68 -1.61,316.93 -1.68,291.17 -1.80,264.22 -2.00,235.44 -2.26,210.26 -2.57,188.86 -3.01,166.88 -3.63,144.89 -4.51,123.53 -6.21,97.76 -8.58,67.96 -10.13,40.63 -10.50,17.12 -10.50,3.25 -10.35,-1.26 -9.75,-3.70 -8.58,-5.92 -6.91,-7.80 -4.84,-9.23 -2.49,-10.12 0.00,-10.42 2.50,-10.12 4.84,-9.23 6.91,-7.80 8.58,-5.92 9.75,-3.70 10.35,-1.26 Z" fill="#FFFFFF" stroke="transparent" stroke-width="0" stroke-linejoin="round" stroke-linecap="round" pointer-events="all" transform="translate(688, 153)"/><path id="path_b9d38eca-55f3-4e42-3467-3b3ba5b912ab" d="M-0.55,7.51 Q5.47,7.20 16.91,6.57 T41.73,5.44 68.88,4.65 95.03,4.19 120.67,3.88 145.83,3.70 172.87,3.62 199.51,3.29 222.74,2.69 246.54,2.12 271.08,1.64 296.26,1.31 321.37,1.07 345.93,0.91 369.59,0.79 392.92,0.70 416.60,0.49 440.06,0.04 462.23,-0.41 486.22,-0.78 510.55,-1.15 534.84,-1.97 560.85,-3.47 584.69,-5.12 608.41,-6.51 633.48,-7.79 657.33,-9.06 679.24,-4.03 694.16,12.10 700.65,34.06 703.88,57.36 705.41,81.90 706.02,106.72 706.26,131.87 706.38,158.30 706.44,183.73 706.46,209.01 706.48,235.24 706.49,260.52 706.49,283.89 706.50,307.84 706.50,333.31 706.70,356.47 707.02,378.69 707.22,402.67 707.33,428.25 707.40,454.19 707.59,478.39 708.11,500.80 708.72,524.56 709.11,547.99 709.32,569.43 709.43,591.39 709.49,613.16 709.50,634.93 709.50,651.53 709.23,658.68 708.15,661.85 706.13,664.52 703.35,666.40 700.12,667.30 696.77,667.12 693.66,665.88 691.10,663.71 689.37,660.83 688.65,657.56 689.02,654.23 690.42,651.18 692.73,648.75 695.69,647.18 699.00,646.64 702.31,647.18 705.27,648.75 707.58,651.19 708.98,654.23 709.35,657.56 708.63,660.84 706.90,663.71 704.34,665.88 701.23,667.12 697.88,667.30 694.65,666.40 691.87,664.52 689.84,661.85 688.77,658.67 688.50,657.00 688.50,645.54 688.49,623.19 688.46,601.02 688.38,578.99 688.19,555.79 687.85,531.20 687.34,508.59 686.74,486.49 686.42,462.60 686.36,436.99 686.26,411.08 686.10,386.71 685.83,363.94 685.58,339.80 685.50,314.21 685.49,291.20 685.49,268.69 685.48,243.93 685.47,217.90 685.45,191.96 685.40,165.29 685.30,138.59 685.10,113.14 684.60,87.87 683.39,64.15 680.78,42.18 674.26,21.35 658.53,11.90 634.79,13.16 609.53,14.46 585.98,15.84 562.39,17.47 535.99,18.99 511.00,19.85 486.52,20.22 462.63,20.59 440.58,21.04 416.92,21.48 392.99,21.70 369.69,21.79 346.06,21.91 321.55,22.07 296.51,22.31 271.45,22.64 247.08,23.11 223.31,23.68 199.77,24.28 172.92,24.62 145.95,24.70 120.89,24.88 95.35,25.18 69.39,25.65 42.62,26.42 18.04,27.54 3.56,28.33 -0.71,28.40 -3.18,27.93 -5.46,26.88 -7.43,25.31 -8.96,23.32 -9.98,21.02 -10.41,18.55 -10.24,16.04 -9.47,13.65 -8.15,11.51 -6.36,9.74 -4.20,8.46 -1.80,7.73 Z" fill="#FFFFFF" stroke="transparent" stroke-width="0" stroke-linejoin="round" stroke-linecap="round" pointer-events="all" transform="translate(688, 130)"/><path id="path_1f7fa592-9eb1-4c84-1edc-d9040c698b74" d="M10.50,0.00 Q10.50,2.85 10.50,13.65 T10.50,35.28 19.43,53.05 40.32,60.17 63.46,60.41 87.17,60.47 110.67,60.49 132.10,60.49 153.77,60.50 176.47,60.50 200.48,60.30 223.80,59.93 245.49,59.66 268.35,59.54 292.13,59.51 315.73,59.50 338.96,59.36 361.43,58.28 384.88,56.60 408.38,55.04 430.37,53.71 451.70,52.65 474.15,51.69 498.09,50.93 520.50,50.01 542.49,48.97 564.50,48.23 585.72,47.82 607.64,47.59 629.58,47.17 651.22,45.77 676.06,43.14 691.68,41.66 694.95,42.42 697.80,44.18 699.94,46.76 701.14,49.89 701.29,53.24 700.35,56.46 698.44,59.21 695.75,61.21 692.56,62.24 689.20,62.20 686.04,61.10 683.39,59.04 681.55,56.24 680.69,53.00 680.91,49.65 682.18,46.55 684.39,44.02 687.28,42.33 690.56,41.65 693.89,42.05 696.92,43.49 699.32,45.83 700.86,48.81 701.36,52.12 700.78,55.42 699.17,58.37 696.71,60.64 693.65,62.02 692.01,62.45 680.02,63.87 657.25,66.41 634.66,67.94 611.81,68.48 590.20,68.76 567.17,69.19 543.53,69.94 521.59,70.98 498.86,71.91 474.91,72.68 452.49,73.63 431.41,74.68 409.52,76.00 386.26,77.56 362.69,79.23 339.35,80.35 315.73,80.50 292.14,80.51 268.41,80.54 245.67,80.66 224.17,80.92 200.72,81.30 176.47,81.50 153.77,81.50 132.10,81.49 110.66,81.49 87.14,81.47 63.35,81.41 41.23,81.21 19.11,80.12 -1.12,73.06 -10.31,56.53 -10.50,35.28 -10.50,13.65 -10.50,1.43 -10.35,-1.26 -9.75,-3.70 -8.58,-5.92 -6.91,-7.80 -4.84,-9.23 -2.49,-10.12 0.00,-10.42 2.50,-10.12 4.84,-9.23 6.91,-7.80 8.58,-5.92 9.75,-3.70 10.35,-1.26 Z" fill="#FFFFFF" stroke="transparent" stroke-width="0" stroke-linejoin="round" stroke-linecap="round" pointer-events="all" transform="translate(696, 732)"/><path id="path_cfebb742-9c5e-4f87-0318-e2b575778001" d="M0.00,-2.50 Q3.49,-2.50 15.70,-2.50 T39.68,-2.50 63.24,-2.50 87.01,-2.50 111.38,-2.50 136.91,-2.50 162.98,-2.50 189.12,-2.25 213.45,-1.88 235.12,-1.69 257.98,-1.74 283.71,-2.01 308.72,-2.26 333.27,-2.38 357.81,-2.45 380.20,-2.48 403.05,-2.49 426.86,-2.50 450.52,-2.79 473.19,-3.69 495.38,-5.50 517.73,-7.28 539.73,-8.99 561.72,-10.28 583.47,-10.47 600.13,-10.50 607.67,-10.23 610.85,-9.16 613.52,-7.13 615.40,-4.35 616.30,-1.12 616.12,2.23 614.88,5.34 612.71,7.90 609.84,9.63 606.56,10.35 603.23,9.98 600.19,8.58 597.75,6.27 596.18,3.31 595.64,-0.00 596.18,-3.31 597.75,-6.27 600.19,-8.58 603.23,-9.98 606.56,-10.35 609.84,-9.63 612.71,-7.90 614.88,-5.34 616.12,-2.23 616.30,1.12 615.40,4.35 613.52,7.13 610.85,9.16 607.67,10.23 606.00,10.50 599.04,10.50 581.68,10.53 560.24,10.78 538.62,12.10 517.07,13.80 495.69,15.53 474.02,17.28 450.71,18.21 426.86,18.50 403.05,18.51 380.22,18.52 357.85,18.55 333.35,18.62 308.87,18.74 284.01,18.98 258.12,19.26 234.98,19.31 213.19,19.12 188.96,18.75 162.98,18.50 136.91,18.50 111.38,18.50 87.01,18.50 63.24,18.50 39.68,18.50 15.70,18.50 1.74,18.50 -1.26,18.35 -3.70,17.75 -5.92,16.58 -7.80,14.91 -9.23,12.84 -10.12,10.49 -10.42,8.00 -10.12,5.50 -9.23,3.16 -7.80,1.09 -5.92,-0.58 -3.70,-1.75 -1.26,-2.35 Z" fill="#FFFFFF" stroke="transparent" stroke-width="0" stroke-linejoin="round" stroke-linecap="round" pointer-events="all" transform="translate(729, 179)"/><path id="path_38edd6f4-4767-4668-1d2a-55708df19e5d" d="M12.23,-2.36 Q13.18,1.76 15.43,13.07 T18.85,35.89 20.20,58.18 20.42,79.85 20.39,102.06 20.06,125.48 19.13,148.01 17.70,169.88 15.98,192.13 13.74,214.49 11.77,236.98 10.91,258.56 10.65,281.27 10.57,304.51 10.73,326.26 11.29,348.46 11.93,371.41 12.31,393.56 12.45,415.11 12.49,437.34 12.50,460.42 12.79,483.23 13.43,505.73 14.34,527.71 15.67,550.12 16.35,563.53 15.64,566.80 13.92,569.68 11.37,571.86 8.26,573.11 4.91,573.30 1.68,572.42 -1.10,570.54 -3.14,567.88 -4.22,564.71 -4.23,561.36 -3.17,558.17 -1.15,555.50 1.62,553.61 4.85,552.70 8.20,552.87 11.31,554.11 13.88,556.27 15.61,559.14 16.34,562.41 15.99,565.74 14.59,568.79 12.30,571.23 9.34,572.81 6.03,573.36 2.72,572.83 -0.25,571.27 -2.56,568.84 -3.98,565.80 -4.43,564.17 -5.20,552.71 -6.52,530.77 -7.47,509.35 -8.18,487.12 -8.50,464.24 -8.51,440.78 -8.54,418.16 -8.66,396.76 -8.97,375.48 -9.59,353.66 -10.22,331.78 -10.44,309.77 -10.37,286.03 -10.15,262.22 -9.37,239.00 -7.44,215.49 -5.17,193.00 -3.44,171.69 -1.94,149.24 -1.00,126.48 -0.66,104.74 -0.56,82.97 -0.74,61.26 -1.92,39.39 -5.11,17.43 -7.76,4.42 -8.36,1.10 -8.33,-1.41 -7.69,-3.84 -6.49,-6.05 -4.80,-7.90 -2.71,-9.30 -0.34,-10.16 2.16,-10.42 4.65,-10.08 6.98,-9.16 9.03,-7.70 10.67,-5.79 11.80,-3.55 Z" fill="#FFFFFF" stroke="transparent" stroke-width="0" stroke-linejoin="round" stroke-linecap="round" pointer-events="all" transform="translate(1333, 179)"/><path id="path_aef51708-bfa7-4283-1c42-2d65bfc2b819" d="M597.00,10.50 Q593.35,10.50 581.85,10.50 T559.63,10.50 537.94,10.50 514.92,10.82 490.25,11.26 466.13,11.41 442.23,11.46 417.36,11.49 392.83,11.50 368.20,12.14 344.07,12.99 321.92,13.29 300.90,13.41 277.55,13.46 251.39,13.48 226.25,13.49 203.14,13.49 180.11,13.50 157.59,13.50 135.76,13.50 114.06,13.50 92.51,13.64 70.64,14.38 48.71,15.56 27.04,16.30 8.92,17.43 -0.22,18.36 -3.52,17.75 -6.45,16.11 -8.70,13.63 -10.04,10.55 -10.33,7.21 -9.54,3.96 -7.75,1.12 -5.15,-0.99 -2.01,-2.17 1.34,-2.27 4.55,-1.31 7.29,0.63 9.26,3.35 10.26,6.55 10.19,9.90 9.05,13.05 6.96,15.68 4.14,17.50 0.90,18.32 -2.45,18.07 -5.53,16.76 -8.04,14.53 -9.71,11.62 -10.36,8.33 -9.92,5.01 -8.45,2.00 -6.09,-0.38 -3.09,-1.89 -1.47,-2.40 4.50,-3.19 21.25,-4.35 42.49,-5.19 63.53,-6.17 84.70,-7.09 106.35,-7.50 128.78,-7.50 151.76,-7.50 174.31,-7.50 195.91,-7.50 218.44,-7.51 241.56,-7.51 264.22,-7.52 287.70,-7.55 311.55,-7.64 334.79,-7.86 357.03,-8.34 378.32,-9.09 401.09,-9.51 425.61,-9.52 448.34,-9.54 470.40,-9.61 494.05,-9.78 516.56,-10.21 537.94,-10.50 559.63,-10.50 581.85,-10.50 595.18,-10.50 598.26,-10.35 600.70,-9.75 602.92,-8.58 604.80,-6.91 606.23,-4.84 607.12,-2.49 607.42,0.00 607.12,2.50 606.23,4.84 604.80,6.91 602.92,8.58 600.70,9.75 598.26,10.35 Z" fill="#FFFFFF" stroke="transparent" stroke-width="0" stroke-linejoin="round" stroke-linecap="round" pointer-events="all" transform="translate(741, 747)"/><path id="path_fc496df4-d533-4491-01db-cbbe6b2d532c" d="M10.48,-0.58 Q10.64,2.27 11.00,12.68 T11.42,34.16 11.49,56.10 11.50,77.94 11.50,99.31 11.50,120.16 11.50,141.48 11.50,162.90 11.50,184.71 11.50,206.77 11.50,228.29 11.50,250.46 11.50,273.30 11.50,295.39 11.50,316.83 11.50,339.07 11.50,361.64 11.97,383.12 12.90,403.97 13.43,425.62 13.49,448.25 13.92,470.55 14.66,492.02 15.21,513.40 15.48,534.63 15.50,558.03 15.23,572.68 14.15,575.85 12.13,578.52 9.35,580.40 6.12,581.30 2.77,581.12 -0.34,579.88 -2.90,577.71 -4.63,574.83 -5.35,571.56 -4.98,568.23 -3.58,565.18 -1.27,562.75 1.69,561.18 5.00,560.64 8.31,561.18 11.27,562.75 13.58,565.19 14.98,568.23 15.35,571.56 14.63,574.84 12.90,577.71 10.34,579.88 7.23,581.12 3.88,581.30 0.65,580.40 -2.13,578.52 -4.16,575.85 -5.23,572.67 -5.50,571.00 -5.50,559.66 -5.51,537.66 -5.72,516.16 -6.27,494.30 -7.06,472.61 -7.51,451.48 -7.55,429.66 -8.02,407.04 -8.97,385.30 -9.50,364.16 -9.50,342.79 -9.50,321.28 -9.50,299.97 -9.50,278.28 -9.50,255.47 -9.50,233.42 -9.50,212.36 -9.50,190.78 -9.50,168.69 -9.50,147.11 -9.50,125.51 -9.50,102.97 -9.50,80.25 -9.51,57.92 -9.57,36.03 -9.98,14.27 -10.40,2.01 -10.40,-0.68 -9.94,-3.15 -8.89,-5.44 -7.33,-7.41 -5.35,-8.95 -3.05,-9.97 -0.58,-10.41 1.93,-10.24 4.33,-9.48 6.47,-8.17 8.24,-6.39 9.53,-4.23 10.26,-1.83 Z" fill="#FFFFFF" stroke="transparent" stroke-width="0" stroke-linejoin="round" stroke-linecap="round" pointer-events="all" transform="translate(728, 188)"/></svg>