<svg xmlns="http://www.w3.org/2000/svg" viewBox="635 93 642 751" width="260" height="300"><path id="path_212b3b3b-dad7-4aca-007c-e4f11a1ab868" d="M-1.60,44.62 Q2.52,43.99 13.74,41.51 T37.03,35.86 59.68,29.83 80.85,23.94 102.36,17.85 124.88,12.08 146.81,7.10 168.64,3.37 191.44,-0.03 214.43,-4.09 241.98,-8.35 259.52,-10.35 262.80,-9.64 265.68,-7.92 267.86,-5.37 269.11,-2.26 269.30,1.08 268.42,4.32 266.55,7.10 263.89,9.14 260.71,10.22 257.36,10.23 254.18,9.17 251.50,7.15 249.61,4.38 248.70,1.16 248.87,-2.19 250.10,-5.31 252.26,-7.87 255.13,-9.61 258.40,-10.34 261.74,-9.99 264.78,-8.60 267.23,-6.30 268.81,-3.34 269.36,-0.04 268.83,3.27 267.27,6.24 264.84,8.56 261.81,9.97 260.17,10.43 243.70,12.71 216.57,16.91 194.24,20.78 170.58,24.32 148.35,28.22 126.21,33.39 103.91,39.24 82.55,45.39 60.93,51.35 39.42,57.04 17.14,62.33 3.66,65.06 0.33,65.42 -2.17,65.19 -4.55,64.38 -6.66,63.02 -8.39,61.19 -9.62,59.00 -10.30,56.58 -10.38,54.07 -9.86,51.62 -8.76,49.35 -7.16,47.42 -5.13,45.93 -2.81,44.96 Z" fill="#FFFFFF" stroke="transparent" stroke-width="0" stroke-linejoin="round" stroke-linecap="round" pointer-events="all" transform="translate(699, 177)"/><path id="path_dd61d6e0-1286-4363-392c-c41b49249b37" d="M3.16,-10.01 Q6.17,-9.06 16.14,-5.11 T36.33,3.10 56.09,11.59 78.06,21.66 91.88,28.47 94.29,30.79 95.84,33.76 96.36,37.07 95.80,40.38 94.20,43.33 91.75,45.62 88.70,47.00 85.37,47.34 82.10,46.60 79.24,44.85 77.08,42.28 75.86,39.15 75.71,35.81 76.63,32.58 78.53,29.82 81.21,27.81 84.40,26.76 87.75,26.79 90.92,27.88 93.57,29.93 95.44,32.72 96.31,35.95 96.10,39.30 94.84,42.41 92.65,44.95 89.76,46.65 86.48,47.35 83.15,46.96 81.52,46.50 70.80,41.30 50.09,31.95 30.30,23.60 10.16,15.18 -1.66,10.49 -4.31,9.49 -6.46,8.18 -8.23,6.40 -9.52,4.24 -10.26,1.84 -10.40,-0.67 -9.94,-3.14 -8.90,-5.43 -7.34,-7.40 -5.36,-8.94 -3.06,-9.96 -0.59,-10.41 1.92,-10.25 Z" fill="#FFFFFF" stroke="transparent" stroke-width="0" stroke-linejoin="round" stroke-linecap="round" pointer-events="all" transform="translate(701, 240)"/><path id="path_839dc148-8fda-4177-0ac4-90b1f1d2f89f" d="M-2.18,53.73 Q3.05,52.62 14.79,50.10 T37.19,45.16 59.69,40.08 83.26,34.88 105.23,29.52 127.52,22.90 150.21,16.01 172.18,9.53 193.57,3.34 213.97,-1.92 235.84,-7.28 249.07,-10.32 252.41,-10.08 255.51,-8.78 258.02,-6.56 259.70,-3.66 260.36,-0.37 259.93,2.96 258.47,5.97 256.12,8.36 253.13,9.88 249.81,10.36 246.51,9.76 243.58,8.13 241.32,5.65 239.97,2.59 239.67,-0.75 240.45,-4.01 242.23,-6.85 244.82,-8.98 247.96,-10.16 251.31,-10.28 254.53,-9.32 257.27,-7.39 259.24,-4.68 260.25,-1.48 260.19,1.87 259.06,5.02 256.98,7.65 254.17,9.48 252.62,10.17 233.77,14.75 202.08,22.83 177.88,29.74 156.10,36.17 133.77,42.95 110.50,49.81 87.70,55.40 64.13,60.60 41.42,65.73 19.13,70.65 4.79,73.72 0.92,74.38 -1.59,74.30 -4.01,73.62 -6.20,72.38 -8.02,70.65 -9.38,68.54 -10.20,66.16 -10.42,63.66 -10.03,61.18 -9.07,58.86 -7.57,56.84 -5.64,55.23 -3.38,54.14 Z" fill="#FFFFFF" stroke="transparent" stroke-width="0" stroke-linejoin="round" stroke-linecap="round" pointer-events="all" transform="translate(792, 210)"/><path id="path_d1cc4fd8-43bf-42a8-2eef-8a0ee32d6c59" d="M3.90,-9.75 Q7.07,-8.48 17.05,-4.65 T37.49,2.78 58.32,10.26 79.83,20.14 92.03,27.45 93.70,30.36 94.36,33.65 93.93,36.98 92.46,39.99 90.10,42.38 87.11,43.88 83.79,44.36 80.49,43.75 77.56,42.12 75.31,39.64 73.96,36.57 73.67,33.23 74.46,29.97 76.24,27.13 78.84,25.01 81.98,23.84 85.33,23.72 88.54,24.69 91.28,26.63 93.25,29.34 94.26,32.53 94.19,35.89 93.05,39.04 90.97,41.67 88.16,43.49 84.91,44.32 81.56,44.07 78.48,42.77 77.04,41.86 68.04,37.56 49.16,29.37 29.33,22.11 9.33,14.88 -2.31,10.38 -5.01,9.14 -7.05,7.68 -8.68,5.77 -9.81,3.52 -10.37,1.07 -10.32,-1.44 -9.68,-3.87 -8.47,-6.08 -6.77,-7.93 -4.68,-9.32 -2.31,-10.16 0.19,-10.42 2.68,-10.07 Z" fill="#FFFFFF" stroke="transparent" stroke-width="0" stroke-linejoin="round" stroke-linecap="round" pointer-events="all" transform="translate(963, 179)"/><path id="path_15096ee0-c69c-4fe7-1c1c-c860a2e5063d" d="M10.50,0.00 Q10.50,3.01 10.50,13.87 T10.50,35.84 10.50,57.98 10.50,79.50 10.23,91.68 9.15,94.85 7.13,97.52 4.35,99.40 1.12,100.30 -2.23,100.12 -5.34,98.88 -7.90,96.71 -9.63,93.83 -10.35,90.56 -9.98,87.23 -8.58,84.18 -6.27,81.75 -3.31,80.18 0.00,79.64 3.31,80.18 6.27,81.75 8.58,84.19 9.98,87.23 10.35,90.56 9.62,93.84 7.90,96.71 5.34,98.88 2.22,100.12 -1.12,100.30 -4.35,99.40 -7.13,97.52 -9.16,94.85 -10.23,91.67 -10.50,90.00 -10.50,79.50 -10.50,57.98 -10.50,35.84 -10.50,13.87 -10.50,1.51 -10.35,-1.26 -9.75,-3.70 -8.58,-5.92 -6.91,-7.80 -4.84,-9.23 -2.49,-10.12 0.00,-10.42 2.50,-10.12 4.84,-9.23 6.91,-7.80 8.58,-5.92 9.75,-3.70 10.35,-1.26 Z" fill="#FFFFFF" stroke="transparent" stroke-width="0" stroke-linejoin="round" stroke-linecap="round" pointer-events="all" transform="translate(697, 238)"/><path id="path_4d9efca7-27f5-4da7-020f-bb030886ae79" d="M12.49,0.44 Q12.33,4.24 12.02,15.01 T11.61,36.25 11.42,57.40 10.94,78.60 10.53,100.58 10.22,113.69 9.15,116.86 7.12,119.53 4.34,121.41 1.11,122.30 -2.24,122.12 -5.35,120.87 -7.90,118.70 -9.63,115.82 -10.35,112.55 -9.98,109.22 -8.57,106.18 -6.26,103.74 -3.30,102.18 0.01,101.64 3.32,102.18 6.28,103.76 8.58,106.20 9.99,109.24 10.35,112.57 9.62,115.85 7.89,118.72 5.33,120.89 2.21,122.12 -1.13,122.30 -4.36,121.40 -7.14,119.51 -9.16,116.84 -10.23,113.66 -10.50,111.99 -10.47,101.01 -10.11,79.31 -9.62,57.63 -9.38,36.03 -8.97,14.37 -8.57,1.46 -8.29,-1.69 -7.58,-4.10 -6.32,-6.27 -4.58,-8.08 -2.46,-9.42 -0.07,-10.22 2.43,-10.41 4.91,-10.01 7.22,-9.02 9.23,-7.51 10.82,-5.56 11.89,-3.29 12.39,-0.82 Z" fill="#FFFFFF" stroke="transparent" stroke-width="0" stroke-linejoin="round" stroke-linecap="round" pointer-events="all" transform="translate(789, 285)"/><path id="path_bc156b47-c202-4897-1cbd-db94154485f4" d="M5.06,-9.20 Q8.23,-7.46 17.48,-1.87 T35.31,10.33 52.54,23.03 70.12,35.38 86.11,47.47 94.19,54.65 95.79,57.60 96.36,60.90 95.85,64.21 94.31,67.19 91.90,69.52 88.87,70.96 85.54,71.35 82.26,70.66 79.37,68.96 77.17,66.43 75.90,63.33 75.69,59.98 76.55,56.74 78.41,53.95 81.06,51.89 84.23,50.79 87.58,50.76 90.77,51.80 93.45,53.80 95.36,56.56 96.29,59.78 96.14,63.13 94.93,66.26 92.78,68.83 89.93,70.59 86.66,71.34 83.32,71.01 80.27,69.63 78.85,68.69 74.32,64.96 60.93,54.78 43.15,42.10 25.69,29.22 7.64,16.75 -3.48,10.07 -6.09,8.46 -7.94,6.76 -9.32,4.66 -10.17,2.30 -10.42,-0.20 -10.07,-2.69 -9.13,-5.02 -7.67,-7.06 -5.75,-8.69 -3.50,-9.82 -1.05,-10.37 1.46,-10.32 3.89,-9.67 Z" fill="#FFFFFF" stroke="transparent" stroke-width="0" stroke-linejoin="round" stroke-linecap="round" pointer-events="all" transform="translate(700, 334)"/><path id="path_b6243f8f-a210-409e-2e55-c55c933f17a2" d="M-2.42,53.78 Q3.60,52.36 15.07,49.73 T37.80,44.90 59.57,40.25 81.67,34.80 105.06,28.32 127.82,21.32 150.36,14.77 172.40,9.13 193.60,3.91 214.76,-1.44 237.92,-7.22 252.37,-10.34 255.71,-10.00 258.76,-8.61 261.21,-6.32 262.80,-3.37 263.36,-0.07 262.84,3.25 261.29,6.22 258.87,8.54 255.84,9.97 252.51,10.35 249.23,9.65 246.34,7.94 244.16,5.40 242.89,2.29 242.69,-1.05 243.57,-4.29 245.43,-7.08 248.09,-9.12 251.26,-10.21 254.61,-10.24 257.80,-9.18 260.48,-7.17 262.38,-4.41 263.29,-1.18 263.13,2.16 261.91,5.29 259.76,7.86 256.89,9.60 255.32,10.24 241.09,13.74 216.27,19.97 195.39,25.16 174.44,30.29 152.34,36.05 130.19,42.66 108.88,49.19 86.93,55.13 64.39,60.68 42.17,65.44 19.80,70.19 5.43,73.50 1.16,74.36 -1.35,74.34 -3.78,73.71 -6.00,72.52 -7.86,70.84 -9.27,68.76 -10.14,66.40 -10.42,63.90 -10.10,61.41 -9.18,59.07 -7.74,57.02 -5.84,55.37 -3.61,54.22 Z" fill="#FFFFFF" stroke="transparent" stroke-width="0" stroke-linejoin="round" stroke-linecap="round" pointer-events="all" transform="translate(790, 331)"/><path id="path_edb4b190-7e97-4d82-1e98-6d42a450d77e" d="M13.49,-0.55 Q13.64,2.46 14.01,13.53 T14.43,35.52 14.13,58.19 12.42,80.77 10.78,104.82 10.22,119.72 9.13,122.89 7.09,125.55 4.31,127.42 1.08,128.31 -2.27,128.11 -5.38,126.86 -7.93,124.68 -9.64,121.79 -10.35,118.52 -9.97,115.19 -8.55,112.15 -6.24,109.72 -3.27,108.17 0.04,107.64 3.35,108.19 6.31,109.78 8.60,112.22 10.00,115.27 10.34,118.61 9.61,121.88 7.87,124.74 5.30,126.90 2.18,128.13 -1.17,128.30 -4.39,127.38 -7.16,125.49 -9.18,122.81 -10.23,119.63 -10.50,117.96 -10.48,113.62 -10.10,98.84 -8.42,78.02 -6.81,57.07 -6.57,35.68 -6.98,14.22 -7.41,2.06 -7.40,-0.71 -6.93,-3.18 -5.88,-5.46 -4.31,-7.43 -2.32,-8.96 -0.02,-9.98 2.45,-10.41 4.96,-10.24 7.35,-9.47 9.49,-8.15 11.26,-6.36 12.54,-4.20 13.27,-1.80 Z" fill="#FFFFFF" stroke="transparent" stroke-width="0" stroke-linejoin="round" stroke-linecap="round" pointer-events="all" transform="translate(1044, 212)"/><path id="path_95356cf7-84be-4c26-158e-f0aa10369896" d="M37.50,0.00 Q37.50,3.17 37.50,14.52 T37.25,37.12 36.05,59.38 33.52,81.14 30.23,103.72 27.03,127.61 24.49,151.27 21.79,174.56 18.41,196.82 14.92,218.64 12.30,240.44 11.10,261.98 10.65,284.19 10.94,306.83 11.89,324.67 12.33,332.78 11.54,336.04 9.75,338.87 7.15,340.99 4.01,342.16 0.66,342.27 -2.55,341.31 -5.28,339.37 -7.26,336.66 -8.26,333.46 -8.19,330.11 -7.05,326.95 -4.96,324.33 -2.15,322.51 1.10,321.68 4.44,321.93 7.53,323.24 10.04,325.46 11.71,328.37 12.36,331.66 11.92,334.99 10.45,338.00 8.09,340.38 5.10,341.89 1.78,342.36 -1.52,341.75 -4.45,340.11 -6.70,337.63 -8.04,334.56 -8.46,332.91 -9.11,325.73 -10.11,306.94 -10.35,283.96 -9.88,261.18 -8.59,238.50 -5.84,215.53 -2.27,193.19 1.01,171.62 3.59,149.20 6.14,125.47 9.16,102.85 12.31,81.24 14.97,58.81 16.25,36.74 16.50,14.52 16.50,1.58 16.65,-1.26 17.25,-3.70 18.42,-5.92 20.09,-7.80 22.16,-9.23 24.51,-10.12 27.00,-10.42 29.50,-10.12 31.84,-9.23 33.91,-7.80 35.58,-5.92 36.75,-3.70 37.35,-1.26 Z" fill="#FFFFFF" stroke="transparent" stroke-width="0" stroke-linejoin="round" stroke-linecap="round" pointer-events="all" transform="translate(675, 341)"/><path id="path_28868edd-38c3-45e4-0551-675eeef9eb56" d="M10.50,0.00 Q10.50,3.96 10.50,15.83 T10.50,38.30 10.50,60.11 10.50,81.86 10.50,104.63 11.28,129.88 13.60,153.46 16.98,174.48 21.67,197.20 27.93,220.31 35.50,242.44 43.98,264.56 52.90,285.75 63.05,306.79 73.41,326.75 83.83,346.28 95.67,365.50 109.47,382.90 124.23,396.99 132.54,403.89 134.41,406.67 135.30,409.90 135.11,413.25 133.87,416.36 131.69,418.91 128.81,420.63 125.54,421.35 122.21,420.98 119.17,419.56 116.74,417.25 115.17,414.29 114.64,410.98 115.19,407.67 116.77,404.71 119.21,402.41 122.25,401.01 125.59,400.65 128.86,401.38 131.73,403.12 133.89,405.68 135.12,408.80 135.30,412.15 134.39,415.37 132.51,418.14 129.83,420.17 126.65,421.23 123.30,421.22 120.12,420.14 118.63,419.34 111.23,413.45 96.56,399.96 82.76,383.76 70.79,365.84 59.39,345.20 48.24,324.18 38.04,303.74 28.44,281.89 19.77,260.35 12.21,239.82 5.18,217.16 -0.54,194.05 -4.57,172.67 -7.87,150.57 -9.90,128.06 -10.50,104.63 -10.50,81.86 -10.50,60.11 -10.50,38.30 -10.50,15.83 -10.50,1.98 -10.35,-1.26 -9.75,-3.70 -8.58,-5.92 -6.91,-7.80 -4.84,-9.23 -2.49,-10.12 0.00,-10.42 2.50,-10.12 4.84,-9.23 6.91,-7.80 8.58,-5.92 9.75,-3.70 10.35,-1.26 Z" fill="#FFFFFF" stroke="transparent" stroke-width="0" stroke-linejoin="round" stroke-linecap="round" pointer-events="all" transform="translate(765, 389)"/><path id="path_d6789b03-a6f8-4236-1e66-d0cace8fd422" d="M10.44,-1.16 Q11.07,4.55 13.10,15.60 T17.60,37.20 23.13,57.88 30.02,78.70 37.50,100.21 44.85,121.32 52.73,141.64 61.68,162.37 71.87,184.70 83.05,207.65 94.35,229.02 105.39,248.31 116.94,266.90 129.28,285.36 142.48,303.91 157.52,322.61 166.63,333.26 168.01,336.32 168.34,339.66 167.59,342.92 165.83,345.78 163.26,347.93 160.13,349.14 156.78,349.29 153.56,348.36 150.80,346.46 148.80,343.77 147.76,340.58 147.79,337.23 148.89,334.06 150.94,331.41 153.74,329.56 156.98,328.69 160.32,328.90 163.43,330.17 165.96,332.37 167.66,335.26 168.35,338.54 167.96,341.87 166.52,344.90 164.19,347.31 161.22,348.85 157.90,349.36 154.60,348.79 151.65,347.19 150.31,346.15 144.54,339.95 131.49,324.42 117.43,305.26 104.52,286.06 92.78,267.86 81.83,249.59 71.07,229.96 60.77,210.01 50.71,189.03 40.75,167.18 32.08,146.87 24.29,126.03 16.84,104.47 9.45,83.41 2.45,62.12 -3.10,41.20 -7.63,18.87 -10.12,4.01 -10.42,-0.11 -10.09,-2.60 -9.18,-4.94 -7.73,-6.99 -5.83,-8.64 -3.60,-9.78 -1.15,-10.36 1.36,-10.33 3.80,-9.71 6.01,-8.52 7.87,-6.83 9.28,-4.75 10.15,-2.39 Z" fill="#FFFFFF" stroke="transparent" stroke-width="0" stroke-linejoin="round" stroke-linecap="round" pointer-events="all" transform="translate(1029, 336)"/><path id="path_fb2f4d2a-2aee-4fc3-19d5-3ed57016179f" d="M-2.55,114.81 Q1.89,113.70 12.14,110.64 T32.24,104.11 53.69,97.03 76.19,90.13 97.23,84.30 118.60,80.06 141.75,77.53 165.10,76.31 187.56,75.51 209.03,71.75 229.70,63.41 250.49,53.13 270.92,43.31 291.76,34.28 313.20,26.42 313.41,20.54 296.15,12.98 288.05,6.65 286.35,3.76 285.65,0.48 286.04,-2.85 287.47,-5.88 289.79,-8.30 292.77,-9.84 296.08,-10.36 299.38,-9.79 302.33,-8.20 304.62,-5.75 306.00,-2.70 306.34,0.64 305.60,3.91 303.85,6.77 301.27,8.92 298.15,10.14 294.80,10.29 291.58,9.37 288.82,7.47 286.81,4.78 285.76,1.60 285.79,-1.76 286.88,-4.92 288.93,-7.58 291.72,-9.44 294.96,-10.31 298.31,-10.10 301.41,-8.84 302.86,-7.95 311.62,-2.52 330.59,7.53 345.34,21.63 340.71,36.86 320.90,45.99 300.18,53.49 279.90,62.29 259.16,72.26 238.01,82.70 216.25,91.45 192.66,95.95 169.56,97.17 147.82,98.15 126.27,100.15 104.30,104.27 81.82,110.36 59.81,117.11 38.55,124.14 17.65,130.90 4.77,134.63 1.29,135.34 -1.22,135.35 -3.66,134.76 -5.89,133.60 -7.78,131.94 -9.21,129.87 -10.11,127.53 -10.42,125.03 -10.13,122.54 -9.25,120.19 -7.82,118.11 -5.95,116.44 -3.73,115.27 Z" fill="#FFFFFF" stroke="transparent" stroke-width="0" stroke-linejoin="round" stroke-linecap="round" pointer-events="all" transform="translate(893, 679)"/><path id="path_d9c4b2bc-0fd4-447c-15a7-b9a62d4c53d1" d="M10.50,0.00 Q10.50,3.49 10.50,14.04 T10.50,35.30 10.50,56.85 11.92,78.10 15.30,98.84 27.53,112.29 47.42,115.47 58.69,115.78 61.87,116.85 64.53,118.88 66.41,121.66 67.30,124.89 67.12,128.24 65.87,131.35 63.70,133.91 60.82,135.63 57.55,136.35 54.21,135.98 51.17,134.57 48.74,132.26 47.18,129.29 46.64,125.99 47.19,122.68 48.76,119.72 51.20,117.42 54.24,116.01 57.58,115.65 60.85,116.38 63.72,118.11 65.89,120.67 67.12,123.79 67.30,127.14 66.40,130.36 64.51,133.14 61.84,135.16 58.66,136.23 56.99,136.50 52.74,136.49 37.87,136.36 16.73,133.59 1.24,121.07 -5.75,100.33 -9.14,78.56 -10.50,56.85 -10.50,35.30 -10.50,14.04 -10.50,1.74 -10.35,-1.26 -9.75,-3.70 -8.58,-5.92 -6.91,-7.80 -4.84,-9.23 -2.49,-10.12 0.00,-10.42 2.50,-10.12 4.84,-9.23 6.91,-7.80 8.58,-5.92 9.75,-3.70 10.35,-1.26 Z" fill="#FFFFFF" stroke="transparent" stroke-width="0" stroke-linejoin="round" stroke-linecap="round" pointer-events="all" transform="translate(779, 608)"/><path id="path_f113b547-a6ef-4b16-01b4-0be10fc2094e" d="M25.37,1.66 Q24.73,5.62 23.34,16.36 T20.43,38.36 17.83,60.48 14.93,82.08 12.00,103.27 13.02,124.16 21.72,143.67 31.15,156.49 34.89,161.68 36.13,164.80 36.30,168.15 35.39,171.38 33.50,174.15 30.83,176.17 27.65,177.23 24.29,177.22 21.12,176.14 18.46,174.10 16.58,171.32 15.70,168.09 15.89,164.74 17.14,161.63 19.32,159.08 22.19,157.36 25.47,156.65 28.80,157.02 31.84,158.44 34.27,160.76 35.83,163.72 36.36,167.03 35.81,170.34 34.23,173.30 31.79,175.59 28.74,176.99 25.41,177.34 22.13,176.61 19.27,174.88 17.98,173.77 15.55,170.77 6.30,158.48 -4.70,139.37 -9.48,119.00 -8.62,97.92 -5.61,77.05 -2.88,56.18 -0.32,35.18 2.54,13.50 4.31,0.32 4.98,-2.88 5.96,-5.19 7.47,-7.20 9.41,-8.80 11.68,-9.88 14.14,-10.39 16.65,-10.29 19.06,-9.60 21.24,-8.35 23.06,-6.61 24.41,-4.49 25.21,-2.11 25.42,0.40 Z" fill="#FFFFFF" stroke="transparent" stroke-width="0" stroke-linejoin="round" stroke-linecap="round" pointer-events="all" transform="translate(752, 528)"/><path id="path_ada3f95a-4a68-491f-0a37-8840b4ae8dba" d="M21.40,1.42 Q20.93,4.91 19.98,15.81 T18.81,37.61 18.56,59.25 18.19,80.88 17.70,102.75 17.43,124.91 16.15,147.29 13.58,169.06 11.42,190.94 10.58,213.06 11.57,234.99 21.08,253.12 35.38,269.53 41.77,280.54 42.36,283.84 41.87,287.16 40.35,290.14 37.95,292.49 34.93,293.94 31.60,294.35 28.31,293.68 25.41,292.00 23.21,289.48 21.92,286.38 21.68,283.04 22.53,279.79 24.37,276.99 27.01,274.92 30.17,273.80 33.52,273.75 36.71,274.77 39.41,276.76 41.34,279.51 42.28,282.72 42.15,286.07 40.96,289.21 38.83,291.79 35.98,293.57 32.72,294.34 29.38,294.03 26.32,292.66 23.85,290.40 22.80,289.06 18.11,281.44 4.75,267.56 -6.61,250.54 -9.89,229.21 -10.36,207.53 -9.32,185.38 -6.96,163.81 -4.51,142.11 -3.46,120.42 -3.25,99.35 -2.77,78.14 -2.43,56.73 -2.12,34.70 -0.86,12.74 0.36,0.32 0.92,-2.64 1.84,-4.98 3.30,-7.03 5.21,-8.66 7.45,-9.80 9.90,-10.36 12.41,-10.33 14.84,-9.69 17.05,-8.49 18.90,-6.80 20.30,-4.71 21.16,-2.34 21.42,0.15 Z" fill="#FFFFFF" stroke="transparent" stroke-width="0" stroke-linejoin="round" stroke-linecap="round" pointer-events="all" transform="translate(720, 367)"/><path id="path_050b3b58-ccaa-4a20-2b15-8d4968ea4fde" d="M-2.33,9.76 Q1.16,8.97 11.35,6.11 T32.10,-0.04 54.66,-6.79 68.36,-10.34 71.69,-10.01 74.75,-8.62 77.20,-6.34 78.79,-3.39 79.36,-0.08 78.85,3.23 77.30,6.21 74.88,8.53 71.85,9.96 68.52,10.35 65.24,9.66 62.35,7.95 60.16,5.41 58.90,2.31 58.69,-1.04 59.56,-4.28 61.42,-7.07 64.08,-9.12 67.24,-10.21 70.60,-10.24 73.78,-9.19 76.47,-7.18 78.37,-4.42 79.29,-1.20 79.14,2.15 77.92,5.27 75.77,7.85 72.91,9.60 71.34,10.24 59.68,13.60 37.96,20.12 16.85,26.36 4.07,29.84 1.07,30.37 -1.44,30.32 -3.87,29.68 -6.08,28.47 -7.93,26.77 -9.32,24.67 -10.16,22.31 -10.42,19.81 -10.07,17.32 -9.14,14.99 -7.67,12.95 -5.76,11.31 -3.52,10.19 Z" fill="#FFFFFF" stroke="transparent" stroke-width="0" stroke-linejoin="round" stroke-linecap="round" pointer-events="all" transform="translate(678, 659)"/><path id="path_b41a13b1-d1ad-45d5-20aa-0d66c6504a38" d="M3.90,-9.75 Q6.28,-8.80 16.17,-5.53 T36.94,2.31 49.36,7.60 52.14,9.49 54.16,12.16 55.23,15.34 55.22,18.69 54.15,21.87 52.12,24.53 49.34,26.41 46.11,27.30 42.76,27.12 39.65,25.87 37.09,23.70 35.37,20.82 34.65,17.55 35.02,14.21 36.43,11.17 38.74,8.74 41.71,7.18 45.02,6.64 48.32,7.19 51.28,8.76 53.59,11.20 54.99,14.24 55.35,17.58 54.62,20.85 52.89,23.72 50.33,25.89 47.21,27.12 43.86,27.30 42.18,27.11 30.22,22.21 8.37,14.01 -2.71,10.22 -5.01,9.14 -7.05,7.68 -8.68,5.77 -9.81,3.52 -10.37,1.07 -10.32,-1.44 -9.68,-3.87 -8.47,-6.08 -6.77,-7.93 -4.68,-9.32 -2.31,-10.16 0.19,-10.42 2.68,-10.07 Z" fill="#FFFFFF" stroke="transparent" stroke-width="0" stroke-linejoin="round" stroke-linecap="round" pointer-events="all" transform="translate(803, 134)"/><path id="path_5ac3d77a-bc4f-439f-3618-a8ad06774aae" d="M17.71,13.15 Q15.33,13.78 14.35,11.60 T11.99,8.44 9.61,6.08 8.11,3.08 7.64,-0.24 8.26,-3.53 9.90,-6.46 12.38,-8.71 15.46,-10.04 18.80,-10.33 22.05,-9.54 24.89,-7.74 27.00,-5.14 28.17,-2.00 28.27,1.36 27.30,4.56 25.36,7.30 22.64,9.26 19.44,10.26 16.09,10.18 12.94,9.04 10.32,6.95 8.50,4.13 7.68,0.88 7.93,-2.46 9.25,-5.54 11.48,-8.05 14.39,-9.71 17.68,-10.36 21.00,-9.92 22.63,-9.43 28.05,-2.97 29.31,13.09 14.76,24.16 -1.33,16.90 1.44,0.83 11.10,-6.83 13.55,-7.32 16.06,-7.37 18.51,-6.81 20.76,-5.69 22.67,-4.06 24.14,-2.02 25.07,0.31 25.42,2.80 25.17,5.30 24.32,7.67 22.93,9.76 21.08,11.47 18.88,12.67 Z" fill="#FFFFFF" stroke="transparent" stroke-width="0" stroke-linejoin="round" stroke-linecap="round" pointer-events="all" transform="translate(838, 146)"/><path id="path_68ba2ab6-3897-45bd-21f6-0612e15db02e" d="M-10.49,62.58 Q-10.33,58.62 -8.74,48.34 T-2.53,28.15 7.84,9.31 23.13,-4.47 41.74,-3.01 52.58,13.98 54.43,35.47 54.50,52.15 54.23,59.67 53.16,62.85 51.13,65.52 48.35,67.40 45.12,68.30 41.78,68.12 38.66,66.88 36.10,64.71 34.38,61.84 33.65,58.56 34.02,55.23 35.42,52.19 37.73,49.75 40.69,48.18 44.00,47.64 47.31,48.18 50.27,49.75 52.58,52.18 53.98,55.23 54.35,58.56 53.63,61.83 51.90,64.71 49.34,66.88 46.23,68.12 42.88,68.30 39.65,67.40 36.88,65.52 34.85,62.85 33.77,59.68 33.50,58.00 33.49,49.41 29.46,30.66 20.00,29.72 12.61,49.20 10.57,61.44 10.29,64.67 9.59,67.08 8.33,69.26 6.59,71.07 4.47,72.42 2.09,73.21 -0.42,73.42 -2.90,73.01 -5.21,72.03 -7.22,70.52 -8.81,68.57 -9.89,66.30 -10.39,63.84 Z" fill="#FFFFFF" stroke="transparent" stroke-width="0" stroke-linejoin="round" stroke-linecap="round" pointer-events="all" transform="translate(798, 133)"/><path id="path_dca2b6eb-a8b1-4a3b-2b9a-f1deabf50158" d="M0.00,10.50 Q-3.35,9.95 -4.85,9.15 T-7.52,7.13 -9.40,4.35 -10.30,1.12 -10.12,-2.23 -8.88,-5.34 -6.71,-7.90 -3.83,-9.63 -0.56,-10.35 2.77,-9.98 5.82,-8.58 8.25,-6.27 9.82,-3.31 10.36,0.00 9.82,3.31 8.25,6.27 5.81,8.58 2.77,9.98 -0.56,10.35 -3.84,9.62 -6.71,7.90 -8.88,5.34 -10.12,2.22 -10.30,-1.12 -9.40,-4.35 -7.52,-7.13 -4.85,-9.16 -1.67,-10.23 0.00,-10.50 1.27,-10.47 3.77,-10.10 6.10,-9.14 8.14,-7.65 9.77,-5.72 10.88,-3.46 11.42,-0.99 11.36,1.53 10.69,3.97 9.46,6.17 7.74,8.01 5.62,9.39 3.24,10.23 Z" fill="#FFFFFF" stroke="transparent" stroke-width="0" stroke-linejoin="round" stroke-linecap="round" pointer-events="all" transform="translate(741, 306)"/></svg>