<svg xmlns="http://www.w3.org/2000/svg" viewBox="917 213 165 311" width="60" height="120"><path id="path_2e241ab8-b856-4a73-266a-3f4c46dc2eac" d="M-10.00,39.79 Q-8.57,35.35 -4.38,24.10 T7.12,4.51 24.57,-6.61 46.21,-7.50 67.09,1.35 82.11,17.68 90.29,37.64 91.82,60.81 82.50,80.89 65.07,93.77 46.48,104.86 33.45,120.46 29.69,140.87 29.52,162.21 29.50,185.00 29.22,198.68 28.15,201.85 26.12,204.52 23.35,206.40 20.12,207.30 16.77,207.12 13.66,205.88 11.10,203.71 9.37,200.83 8.65,197.56 9.02,194.23 10.43,191.18 12.73,188.75 15.69,187.18 19.00,186.64 22.31,187.18 25.27,188.75 27.58,191.19 28.98,194.23 29.35,197.56 28.62,200.84 26.90,203.71 24.34,205.88 21.22,207.12 17.88,207.30 14.65,206.40 11.87,204.52 9.84,201.85 8.77,198.67 8.50,197.00 8.50,189.84 8.51,171.83 8.57,150.22 9.22,128.98 14.11,108.95 27.22,92.84 45.31,81.01 63.66,69.30 71.33,51.57 64.89,30.81 49.36,16.35 28.85,16.55 15.13,31.75 10.71,43.99 9.47,47.36 8.15,49.50 6.35,51.26 4.19,52.54 1.79,53.27 -0.72,53.40 -3.19,52.92 -5.47,51.87 -7.44,50.30 -8.97,48.31 -9.98,46.01 -10.41,43.54 -10.24,41.03 Z" fill="#FFFFFF" stroke="transparent" stroke-width="0" stroke-linejoin="round" stroke-linecap="round" pointer-events="all" transform="translate(957, 253)"/><path id="path_84e1b83b-7c06-4fd6-00ee-4514166d45dd" d="M8.42,-6.42 Q10.41,-3.67 10.91,-2.04 T11.36,1.28 10.73,4.57 9.08,7.49 6.58,9.73 3.50,11.06 0.16,11.33 -3.10,10.52 -5.92,8.71 -8.02,6.10 -9.18,2.95 -9.27,-0.40 -8.28,-3.61 -6.33,-6.33 -3.60,-8.28 -0.40,-9.27 2.95,-9.18 6.10,-8.02 8.71,-5.92 10.52,-3.09 11.33,0.16 11.05,3.50 9.73,6.58 7.49,9.08 4.57,10.73 1.28,11.36 -2.04,10.90 -5.05,9.41 -6.43,8.42 -7.34,7.53 -8.93,5.56 -10.00,3.26 -10.49,0.77 -10.37,-1.76 -9.65,-4.19 -8.36,-6.38 -6.59,-8.19 -4.44,-9.53 -2.03,-10.32 0.50,-10.51 3.00,-10.08 5.32,-9.07 Z" fill="#FFFFFF" stroke="transparent" stroke-width="0" stroke-linejoin="round" stroke-linecap="round" pointer-events="all" transform="translate(976, 483)"/></svg>