<svg xmlns="http://www.w3.org/2000/svg" viewBox="919 234 155 292" width="60" height="120"><path id="path_560b882f-fd43-4a73-2b86-00707bd44a16" d="M-8.11,15.33 Q-5.89,12.63 2.66,5.55 T21.68,-5.03 44.03,-8.56 65.70,-3.83 79.56,10.56 84.08,31.93 79.99,53.43 66.87,71.10 49.92,86.24 37.82,103.22 33.43,124.22 33.75,145.88 35.57,162.46 36.36,170.30 35.72,173.59 34.06,176.51 31.57,178.74 28.48,180.06 25.14,180.33 21.89,179.51 19.07,177.70 16.97,175.08 15.82,171.93 15.74,168.58 16.73,165.38 18.69,162.66 21.41,160.71 24.62,159.73 27.97,159.83 31.12,160.99 33.73,163.10 35.53,165.92 36.33,169.18 36.05,172.52 34.72,175.60 32.48,178.09 29.55,179.73 26.26,180.36 22.94,179.90 19.94,178.40 17.57,176.03 16.09,173.02 15.59,171.40 13.83,157.27 12.19,131.55 14.42,109.08 21.43,88.59 34.93,71.42 51.41,56.85 61.39,39.52 57.24,20.48 39.91,12.58 19.58,19.70 9.21,27.33 7.19,29.55 5.17,31.05 2.86,32.02 0.38,32.42 -2.13,32.20 -4.51,31.40 -6.63,30.05 -8.36,28.23 -9.61,26.04 -10.30,23.63 -10.39,21.12 -9.87,18.66 -8.79,16.39 Z" fill="#FFFFFF" stroke="transparent" stroke-width="0" stroke-linejoin="round" stroke-linecap="round" pointer-events="all" transform="translate(959, 274)"/><path id="path_2e90cab1-bdcd-4b0b-0d3d-aa21bc1f8b32" d="M10.50,0.00 Q10.50,6.00 10.23,7.68 T9.15,10.85 7.13,13.52 4.35,15.40 1.12,16.30 -2.23,16.12 -5.34,14.88 -7.90,12.71 -9.63,9.83 -10.35,6.56 -9.98,3.23 -8.58,0.18 -6.27,-2.25 -3.31,-3.82 0.00,-4.36 3.31,-3.82 6.27,-2.25 8.58,0.19 9.98,3.23 10.35,6.56 9.62,9.84 7.90,12.71 5.34,14.88 2.22,16.12 -1.12,16.30 -4.35,15.40 -7.13,13.52 -9.16,10.85 -10.23,7.67 -10.50,6.00 -10.50,3.00 -10.35,-1.26 -9.75,-3.70 -8.58,-5.92 -6.91,-7.80 -4.84,-9.23 -2.49,-10.12 0.00,-10.42 2.50,-10.12 4.84,-9.23 6.91,-7.80 8.58,-5.92 9.75,-3.70 10.35,-1.26 Z" fill="#FFFFFF" stroke="transparent" stroke-width="0" stroke-linejoin="round" stroke-linecap="round" pointer-events="all" transform="translate(985, 480)"/></svg>