<svg xmlns="http://www.w3.org/2000/svg" viewBox="918 207 155 305" width="60" height="120"><path id="path_096abb1a-a11e-4faa-3f48-d431bce7f3c3" d="M-10.08,53.07 Q-8.66,48.16 -5.08,37.58 T2.75,17.39 15.86,1.04 35.62,-7.78 57.41,-6.07 73.91,7.85 81.67,29.31 83.96,52.09 80.73,73.55 68.70,91.15 51.01,104.57 37.37,119.73 31.70,139.48 30.58,160.33 30.51,181.88 30.22,194.68 29.15,197.86 27.12,200.53 24.35,202.41 21.11,203.30 17.77,203.12 14.65,201.88 12.10,199.70 10.37,196.83 9.65,193.55 10.02,190.22 11.43,187.18 13.73,184.75 16.70,183.18 20.01,182.64 23.32,183.18 26.28,184.76 28.58,187.19 29.99,190.24 30.35,193.57 29.62,196.84 27.89,199.71 25.34,201.88 22.22,203.12 18.87,203.30 15.64,202.40 12.87,200.52 10.84,197.85 9.77,194.67 9.50,192.99 9.50,188.04 9.53,172.31 9.74,150.95 11.84,129.81 18.23,109.76 31.12,93.57 48.95,80.62 61.11,63.96 62.56,42.87 56.75,21.79 41.78,12.79 25.31,22.73 15.39,42.64 10.80,56.47 9.59,60.09 8.33,62.27 6.59,64.08 4.46,65.42 2.08,66.21 -0.43,66.41 -2.91,66.01 -5.22,65.02 -7.23,63.51 -8.81,61.56 -9.89,59.29 -10.39,56.83 -10.29,54.32 Z" fill="#FFFFFF" stroke="transparent" stroke-width="0" stroke-linejoin="round" stroke-linecap="round" pointer-events="all" transform="translate(958, 247)"/><path id="path_d889a9d0-96d9-4e08-212f-69bc1fd6ff24" d="M8.42,-6.42 Q10.41,-3.67 10.91,-2.04 T11.36,1.28 10.73,4.57 9.08,7.49 6.58,9.73 3.50,11.06 0.16,11.33 -3.10,10.52 -5.92,8.71 -8.02,6.10 -9.18,2.95 -9.27,-0.40 -8.28,-3.61 -6.33,-6.33 -3.60,-8.28 -0.40,-9.27 2.95,-9.18 6.10,-8.02 8.71,-5.92 10.52,-3.09 11.33,0.16 11.05,3.50 9.73,6.58 7.49,9.08 4.57,10.73 1.28,11.36 -2.04,10.90 -5.05,9.41 -6.43,8.42 -7.34,7.53 -8.93,5.56 -10.00,3.26 -10.49,0.77 -10.37,-1.76 -9.65,-4.19 -8.36,-6.38 -6.59,-8.19 -4.44,-9.53 -2.03,-10.32 0.50,-10.51 3.00,-10.08 5.32,-9.07 Z" fill="#FFFFFF" stroke="transparent" stroke-width="0" stroke-linejoin="round" stroke-linecap="round" pointer-events="all" transform="translate(977, 471)"/></svg>