<svg xmlns="http://www.w3.org/2000/svg" viewBox="571 -3 861 606" width="200" height="180"><path id="path_bf3a567c-986c-485a-1531-0e178991526b" d="M142.44,6.24 Q139.75,9.89 132.16,19.52 T117.13,38.78 102.55,56.88 86.90,74.14 68.99,90.36 50.85,103.76 32.32,115.11 12.92,124.22 1.62,128.23 -1.73,128.22 -4.90,127.13 -7.56,125.09 -9.43,122.30 -10.31,119.07 -10.11,115.72 -8.85,112.61 -6.67,110.07 -3.78,108.35 -0.51,107.65 2.83,108.03 5.86,109.46 8.28,111.77 9.84,114.74 10.36,118.06 9.80,121.36 8.21,124.32 5.77,126.61 2.72,128.00 -0.62,128.34 -3.89,127.60 -6.75,125.86 -8.91,123.29 -10.13,120.17 -10.29,116.82 -9.38,113.60 -7.48,110.83 -4.80,108.82 -3.30,108.03 2.25,106.13 17.37,99.35 35.59,88.64 52.82,76.22 69.39,61.95 85.33,44.78 100.73,25.66 115.52,6.71 124.21,-4.42 126.43,-7.16 128.36,-8.77 130.62,-9.86 133.08,-10.38 135.59,-10.30 138.01,-9.62 140.20,-8.38 142.02,-6.66 143.38,-4.54 144.20,-2.17 144.42,0.34 144.03,2.82 143.07,5.14 Z" fill="#FFFFFF" stroke="transparent" stroke-width="0" stroke-linejoin="round" stroke-linecap="round" pointer-events="all" transform="translate(684, 436)"/><path id="path_3b920038-42ae-4d9b-087d-e27c5a86cc70" d="M-1.12,80.56 Q3.32,80.08 13.99,78.49 T37.20,74.72 60.88,69.95 83.48,64.21 104.64,57.21 124.01,48.52 143.54,37.48 161.99,24.55 179.83,6.14 190.20,-6.82 192.78,-8.95 195.91,-10.15 199.26,-10.28 202.48,-9.34 205.23,-7.42 207.22,-4.73 208.25,-1.53 208.20,1.82 207.09,4.98 205.02,7.62 202.22,9.46 198.98,10.32 195.63,10.09 192.53,8.80 190.01,6.60 188.32,3.70 187.65,0.42 188.06,-2.91 189.51,-5.93 191.85,-8.34 194.83,-9.86 198.15,-10.36 201.45,-9.77 204.39,-8.16 206.66,-5.69 208.02,-2.63 208.34,0.71 207.57,3.97 206.92,5.54 198.97,16.38 182.69,34.78 164.71,48.91 145.83,60.70 126.26,70.69 104.91,79.45 83.34,86.09 60.94,91.40 38.78,95.80 17.02,99.25 3.34,101.20 -0.15,101.42 -2.64,101.08 -4.97,100.16 -7.02,98.70 -8.66,96.80 -9.80,94.56 -10.36,92.11 -10.33,89.60 -9.69,87.17 -8.49,84.96 -6.80,83.10 -4.71,81.70 -2.35,80.85 Z" fill="#FFFFFF" stroke="transparent" stroke-width="0" stroke-linejoin="round" stroke-linecap="round" pointer-events="all" transform="translate(683, 464)"/><path id="path_479260ae-3302-44ac-3521-f67588734afb" d="M282.31,422.14 Q284.21,425.79 290.73,435.87 T304.55,454.56 320.84,472.20 338.29,488.39 356.58,501.29 376.58,509.65 396.93,509.72 417.02,500.85 435.73,486.01 451.52,468.07 463.89,448.85 473.22,428.93 480.68,408.60 492.82,390.61 511.66,389.23 530.01,403.55 546.72,419.05 564.60,432.15 584.13,439.94 606.36,442.87 631.06,443.25 654.79,441.47 676.18,437.28 696.96,429.84 717.07,417.84 733.67,402.56 746.90,383.46 757.02,361.37 763.22,339.05 766.54,315.17 766.12,288.87 761.85,263.31 754.78,241.43 744.26,222.18 728.67,204.53 710.98,187.54 702.42,168.44 703.62,147.43 704.89,124.81 702.90,101.38 698.06,79.87 690.79,59.22 679.33,39.77 662.98,25.66 642.66,18.09 618.87,14.15 593.26,12.06 569.03,11.44 546.41,14.40 525.87,22.70 508.40,34.50 492.07,49.16 474.83,63.50 455.99,64.80 437.00,52.74 418.03,39.83 396.85,30.91 375.03,25.59 353.21,21.81 330.50,19.28 308.04,18.65 284.83,20.12 262.52,23.82 243.70,32.72 229.69,48.87 222.00,69.23 221.37,91.51 225.23,113.32 229.09,137.50 219.42,152.53 197.71,149.35 175.68,141.42 153.86,135.30 131.55,130.93 106.78,128.01 83.55,126.57 61.35,129.14 39.86,138.83 22.91,154.22 13.63,173.63 11.16,195.66 12.52,218.62 18.71,241.30 30.14,262.79 43.91,281.32 59.68,295.52 65.08,311.72 54.60,329.66 44.06,347.29 46.58,366.49 61.91,382.03 81.25,390.98 103.05,394.52 126.02,395.33 148.57,394.65 170.18,391.86 188.51,386.18 198.12,382.05 201.45,381.65 204.74,382.34 207.63,384.03 209.82,386.57 211.10,389.67 211.31,393.01 210.45,396.25 208.60,399.05 205.95,401.10 202.78,402.21 199.43,402.24 196.24,401.20 193.55,399.20 191.64,396.45 190.71,393.23 190.86,389.88 192.07,386.75 194.21,384.17 197.07,382.41 200.33,381.66 203.67,381.99 206.73,383.37 209.18,385.65 210.79,388.59 211.36,391.90 210.85,395.21 209.31,398.19 206.90,400.52 205.51,401.48 199.69,404.23 183.13,410.08 161.89,414.72 140.36,416.33 117.89,416.21 95.27,415.07 73.67,411.00 53.99,401.86 36.25,388.53 23.50,371.36 21.00,351.22 28.11,330.78 44.45,319.22 46.80,312.03 30.38,297.61 15.80,279.25 4.05,260.11 -4.29,239.94 -8.97,217.89 -9.81,194.80 -7.47,171.16 0.13,149.75 14.51,132.24 33.18,117.94 53.75,108.23 75.11,105.24 98.43,106.34 121.99,108.30 145.06,111.86 167.78,117.09 188.34,123.40 205.30,135.62 209.17,133.81 203.66,112.39 200.05,91.13 200.65,69.01 207.37,46.41 219.03,26.82 235.65,12.25 255.70,3.82 277.95,-0.21 302.84,-2.18 326.25,-2.11 347.44,-0.18 370.45,3.34 394.86,8.47 417.06,15.77 436.42,26.45 455.62,39.52 473.14,38.36 489.54,22.71 507.23,9.37 525.91,-0.75 546.25,-7.39 568.89,-9.54 591.77,-9.08 613.16,-7.64 635.14,-4.81 657.68,0.56 679.19,11.12 696.17,26.80 708.07,46.62 716.65,68.71 722.33,90.51 725.43,112.41 725.91,134.15 723.77,155.85 729.12,174.64 745.16,191.02 761.64,210.61 774.18,233.67 782.31,258.77 786.91,283.54 788.10,306.54 785.97,330.89 780.51,356.57 771.86,380.92 760.51,402.01 745.46,420.53 727.27,436.49 705.29,448.98 681.13,457.64 657.56,462.27 634.70,464.28 612.57,464.24 590.73,462.56 569.00,457.19 548.11,446.57 529.21,431.65 511.88,414.91 499.82,417.78 491.86,438.93 482.04,459.38 469.73,478.87 455.88,495.56 439.67,510.48 420.60,523.19 399.52,531.01 377.38,531.31 356.21,524.73 336.28,513.23 316.99,497.56 300.21,481.02 285.36,464.31 271.77,445.47 264.64,433.68 263.24,430.67 262.65,428.23 262.66,425.72 263.26,423.28 264.44,421.06 266.11,419.18 268.18,417.76 270.53,416.87 273.03,416.58 275.52,416.89 277.87,417.78 279.93,419.22 281.59,421.10 Z" fill="#FFFFFF" stroke="transparent" stroke-width="0" stroke-linejoin="round" stroke-linecap="round" pointer-events="all" transform="translate(611, 37)"/><path id="path_b831c33e-ef9f-42b3-3c08-35728fed6fe8" d="M-9.85,36.35 Q-8.26,32.07 -3.41,22.51 T9.48,4.42 28.41,-5.94 50.42,-2.70 71.05,10.05 85.92,27.13 92.46,46.93 89.48,67.37 77.44,84.77 61.50,99.15 49.39,116.18 44.96,136.82 44.54,155.26 44.22,164.72 43.14,167.89 41.10,170.55 38.31,172.42 35.08,173.31 31.73,173.11 28.62,171.86 26.08,169.68 24.36,166.80 23.65,163.52 24.03,160.19 25.45,157.15 27.76,154.73 30.73,153.17 34.04,152.64 37.35,153.19 40.30,154.78 42.60,157.22 44.00,160.27 44.34,163.60 43.61,166.87 41.87,169.74 39.31,171.90 36.19,173.13 32.84,173.30 29.61,172.39 26.84,170.49 24.83,167.82 23.77,164.63 23.50,162.96 23.64,149.08 25.29,124.33 31.35,104.04 43.76,86.84 59.85,72.22 69.94,55.07 65.51,35.62 50.47,20.82 31.48,17.97 16.35,30.07 10.64,41.51 9.27,44.77 7.86,46.85 5.99,48.53 3.77,49.72 1.34,50.34 -1.18,50.36 -3.62,49.77 -5.85,48.62 -7.75,46.97 -9.19,44.92 -10.10,42.57 -10.42,40.08 -10.14,37.58 Z" fill="#FFFFFF" stroke="transparent" stroke-width="0" stroke-linejoin="round" stroke-linecap="round" pointer-events="all" transform="translate(984, 165)"/><path id="path_1898c980-e58b-4fac-20b2-8c484c4fc3b4" d="M9.39,-4.70 Q11.39,-0.70 11.90,0.93 T12.36,4.25 11.74,7.54 10.10,10.47 7.61,12.71 4.53,14.05 1.19,14.33 -2.06,13.53 -4.90,11.73 -7.00,9.13 -8.17,5.98 -8.27,2.63 -7.30,-0.57 -5.35,-3.30 -2.63,-5.27 0.57,-6.26 3.92,-6.18 7.07,-5.04 9.69,-2.94 11.51,-0.12 12.32,3.13 12.06,6.47 10.75,9.55 8.52,12.06 5.60,13.72 2.31,14.36 -1.01,13.91 -4.02,12.43 -6.40,10.07 -7.39,8.69 -8.39,6.70 -9.82,3.50 -10.37,1.05 -10.32,-1.46 -9.67,-3.89 -8.46,-6.09 -6.76,-7.94 -4.66,-9.32 -2.29,-10.17 0.21,-10.42 2.69,-10.07 5.03,-9.13 7.06,-7.66 8.69,-5.75 Z" fill="#FFFFFF" stroke="transparent" stroke-width="0" stroke-linejoin="round" stroke-linecap="round" pointer-events="all" transform="translate(1017, 365)"/></svg>