<svg xmlns="http://www.w3.org/2000/svg" viewBox="567 -112 1016 713" width="200" height="180"><path id="path_7eec0f26-0778-450a-39de-e2496d6eecb8" d="M-2.22,90.74 Q3.65,89.47 14.53,86.55 T36.03,79.68 58.00,70.66 79.67,60.10 99.93,48.65 119.76,36.62 139.14,24.59 158.17,12.77 179.44,-0.90 192.70,-9.43 195.93,-10.31 199.28,-10.11 202.39,-8.85 204.93,-6.67 206.65,-3.78 207.35,-0.51 206.97,2.83 205.54,5.86 203.23,8.28 200.26,9.84 196.94,10.36 193.64,9.80 190.68,8.21 188.39,5.77 187.00,2.72 186.66,-0.62 187.40,-3.89 189.14,-6.75 191.71,-8.91 194.83,-10.13 198.18,-10.29 201.40,-9.38 204.17,-7.48 206.18,-4.80 207.23,-1.62 207.22,1.73 206.13,4.90 204.08,7.56 202.84,8.72 190.93,16.68 169.38,30.53 150.03,42.54 130.65,54.57 110.54,66.76 89.03,78.88 66.19,89.99 42.87,99.52 19.71,106.89 5.15,110.63 0.96,111.38 -1.55,111.31 -3.97,110.64 -6.17,109.40 -8.00,107.68 -9.36,105.58 -10.19,103.20 -10.42,100.70 -10.04,98.22 -9.09,95.89 -7.60,93.87 -5.67,92.25 -3.41,91.15 Z" fill="#FFFFFF" stroke="transparent" stroke-width="0" stroke-linejoin="round" stroke-linecap="round" pointer-events="all" transform="translate(607, 387)"/><path id="path_0daf2cef-3c4b-4281-1dfe-ee8e71b87480" d="M1.72,44.52 Q6.32,44.84 18.44,45.32 T41.60,45.97 64.97,46.23 89.69,46.37 113.32,46.43 137.00,46.39 162.78,45.17 188.64,42.48 212.93,39.02 236.65,34.65 260.21,29.01 282.80,22.41 303.95,14.34 324.22,4.82 343.19,-4.67 353.70,-9.82 357.01,-10.36 360.32,-9.82 363.28,-8.24 365.58,-5.81 366.99,-2.76 367.35,0.57 366.62,3.84 364.89,6.72 362.33,8.88 359.22,10.12 355.87,10.30 352.64,9.40 349.87,7.51 347.84,4.84 346.77,1.67 346.78,-1.69 347.85,-4.86 349.88,-7.53 352.66,-9.41 355.89,-10.30 359.24,-10.12 362.35,-8.87 364.91,-6.70 366.63,-3.82 367.35,-0.55 366.98,2.78 365.57,5.83 363.26,8.26 361.91,9.28 355.13,12.82 338.16,21.41 318.54,31.07 298.81,39.19 277.33,46.02 254.83,52.08 233.14,56.73 210.06,60.71 184.80,64.07 161.16,66.35 137.31,67.39 113.27,67.43 89.60,67.37 64.79,67.23 41.21,66.96 17.45,66.29 2.58,65.63 -0.97,65.24 -3.36,64.47 -5.50,63.15 -7.26,61.36 -8.54,59.20 -9.27,56.79 -9.40,54.28 -8.92,51.81 -7.87,49.53 -6.31,47.57 -4.32,46.03 -2.02,45.02 0.46,44.59 Z" fill="#FFFFFF" stroke="transparent" stroke-width="0" stroke-linejoin="round" stroke-linecap="round" pointer-events="all" transform="translate(611, 435)"/><path id="path_5e876156-525e-4b35-26dd-5ad029174e85" d="M112.10,462.75 Q108.14,461.16 97.20,456.85 T76.12,448.80 56.39,440.52 38.30,428.22 23.38,409.98 11.82,388.10 3.32,366.38 -2.57,345.04 -6.69,321.95 -8.20,296.74 -4.85,271.60 3.57,249.88 15.95,231.61 31.87,215.25 50.10,201.65 70.18,193.78 92.39,194.21 114.43,202.52 134.07,214.85 134.89,213.06 125.11,193.63 123.10,171.36 122.84,149.60 124.11,128.56 127.46,107.99 134.99,87.77 148.06,69.52 166.28,53.56 185.75,39.48 204.12,27.10 224.13,14.28 244.61,2.55 264.61,-4.63 287.48,-5.50 310.32,-2.42 332.20,1.88 354.83,9.05 375.10,20.31 391.52,35.22 404.69,53.24 413.55,73.74 418.56,74.11 429.03,54.31 445.02,37.66 462.39,23.35 482.63,13.24 504.04,7.89 528.98,3.60 554.69,0.54 577.53,-1.11 600.44,-2.16 623.41,-2.24 645.33,-0.34 667.48,4.31 688.68,11.06 708.41,19.57 727.73,31.53 744.26,47.01 756.38,65.60 764.27,86.05 768.31,107.80 768.35,130.17 762.78,151.90 752.26,171.69 738.79,188.12 742.25,193.28 763.65,193.11 784.24,200.77 801.95,213.58 816.22,229.40 828.46,247.34 839.14,266.54 848.54,286.10 855.73,306.32 859.83,327.14 859.39,349.81 853.90,372.15 844.52,392.42 832.41,411.21 817.92,427.51 799.64,442.75 779.91,455.32 760.26,464.19 738.12,470.38 715.38,472.37 706.62,483.16 711.48,505.46 716.68,527.06 720.32,548.39 721.56,570.19 717.07,591.67 702.97,609.78 683.69,622.14 664.12,631.07 642.96,637.97 620.57,641.61 596.63,641.66 573.36,637.76 551.04,628.83 530.25,615.84 512.59,600.07 496.46,582.33 482.18,563.49 470.04,544.26 459.27,523.35 454.14,523.06 450.13,545.24 440.92,565.71 429.09,584.30 413.34,601.07 394.19,615.13 373.40,625.05 351.33,626.30 328.37,619.70 307.07,609.97 288.99,598.02 274.10,583.15 262.32,565.21 254.67,545.04 251.79,523.91 258.40,504.70 271.79,493.94 280.05,491.68 283.40,491.92 286.49,493.21 289.01,495.42 290.69,498.33 291.35,501.61 290.94,504.94 289.48,507.96 287.13,510.35 284.14,511.87 280.83,512.36 277.53,511.76 274.59,510.14 272.33,507.67 270.97,504.60 270.66,501.27 271.44,498.00 273.22,495.16 275.81,493.03 278.94,491.84 282.29,491.72 285.51,492.67 288.25,494.60 290.24,497.30 291.25,500.50 291.20,503.85 290.07,507.01 288.00,509.64 285.19,511.48 283.64,512.16 277.77,516.51 273.50,531.48 279.80,552.30 291.23,570.65 306.90,585.13 326.70,596.17 348.86,604.33 370.15,603.65 389.00,593.46 405.19,579.94 418.19,562.86 428.60,542.25 436.66,520.86 443.67,500.62 458.28,492.62 474.07,505.17 484.72,526.98 496.46,547.09 508.97,564.50 523.34,581.13 540.98,597.38 560.27,610.14 580.62,617.86 603.67,621.01 626.97,619.69 648.43,614.41 669.35,605.75 689.71,593.36 700.19,575.38 699.89,554.44 696.32,532.38 690.81,509.75 683.67,488.38 678.08,467.51 686.50,453.21 707.18,450.80 729.14,450.52 750.60,445.28 771.23,435.99 790.49,423.40 806.93,408.55 820.92,390.78 831.90,370.61 838.16,348.18 838.34,325.81 832.83,304.29 824.23,283.54 813.51,263.38 800.58,243.61 785.93,227.48 768.35,216.56 747.25,212.34 725.36,213.00 706.19,206.93 706.57,190.62 723.58,173.26 737.28,156.16 745.78,136.37 747.79,114.40 743.81,91.77 734.91,70.52 721.36,53.63 704.07,41.17 683.44,31.59 660.02,24.25 635.26,19.69 612.35,18.52 588.69,19.36 564.23,20.81 542.19,23.04 519.73,26.47 496.91,31.06 476.29,39.69 457.86,54.63 440.81,72.65 424.81,92.05 406.57,99.59 394.77,86.11 387.92,66.09 374.31,47.92 356.52,33.32 336.96,24.76 316.68,20.00 295.00,16.54 271.88,16.42 250.71,23.13 230.02,35.29 209.81,48.31 189.46,62.63 168.81,78.81 154.51,96.12 147.37,115.95 144.54,137.10 143.95,159.88 145.07,182.54 147.85,205.01 149.04,228.01 137.36,236.76 116.70,228.35 95.73,217.51 73.35,215.32 53.68,224.61 37.05,239.53 23.53,257.50 15.13,278.71 12.68,301.35 14.66,323.09 18.75,343.73 25.39,365.43 34.62,387.46 46.74,406.37 63.03,419.93 83.23,429.06 105.07,437.38 117.92,442.46 121.01,443.86 123.05,445.32 124.68,447.23 125.81,449.48 126.37,451.93 126.32,454.44 125.68,456.87 124.47,459.08 122.77,460.93 120.68,462.32 118.31,463.16 115.81,463.42 113.32,463.07 Z" fill="#FFFFFF" stroke="transparent" stroke-width="0" stroke-linejoin="round" stroke-linecap="round" pointer-events="all" transform="translate(691, -72)"/><path id="path_7ae597e6-f9eb-4bc5-2a44-063cbf05199c" d="M-9.33,48.18 Q-6.95,43.58 -0.57,33.25 T13.97,14.28 32.16,0.36 53.23,-7.04 76.03,-6.43 95.67,3.66 109.41,20.73 116.06,40.98 111.01,61.35 96.91,78.96 80.11,92.88 65.17,108.44 56.28,128.94 53.21,150.63 52.57,169.15 52.21,178.74 51.12,181.91 49.08,184.57 46.29,186.43 43.05,187.31 39.71,187.10 36.60,185.84 34.06,183.66 32.35,180.77 31.65,177.49 32.03,174.16 33.46,171.13 35.78,168.71 38.76,167.16 42.07,166.64 45.37,167.20 48.33,168.79 50.61,171.24 52.00,174.29 52.34,177.63 51.60,180.90 49.85,183.76 47.28,185.91 44.16,187.13 40.81,187.29 37.59,186.37 34.82,184.47 32.81,181.79 31.76,178.61 31.50,176.93 31.55,170.30 32.05,152.77 34.32,131.10 40.34,110.01 51.34,91.21 66.65,76.68 82.97,63.25 92.55,45.34 87.76,26.21 70.89,15.05 50.31,15.70 31.52,26.94 17.35,44.11 10.51,55.53 8.61,58.87 6.96,60.76 4.90,62.20 2.55,63.11 0.06,63.42 -2.43,63.14 -4.79,62.26 -6.87,60.84 -8.54,58.97 -9.72,56.75 -10.34,54.32 -10.35,51.80 -9.77,49.36 Z" fill="#FFFFFF" stroke="transparent" stroke-width="0" stroke-linejoin="round" stroke-linecap="round" pointer-events="all" transform="translate(1080, 97)"/><path id="path_a89f4292-db04-4b82-1858-0d0c82b326ed" d="M8.42,-6.42 Q10.41,-3.67 10.91,-2.04 T11.36,1.28 10.73,4.57 9.08,7.49 6.58,9.73 3.50,11.06 0.16,11.33 -3.10,10.52 -5.92,8.71 -8.02,6.10 -9.18,2.95 -9.27,-0.40 -8.28,-3.61 -6.33,-6.33 -3.60,-8.28 -0.40,-9.27 2.95,-9.18 6.10,-8.02 8.71,-5.92 10.52,-3.09 11.33,0.16 11.05,3.50 9.73,6.58 7.49,9.08 4.57,10.73 1.28,11.36 -2.04,10.90 -5.05,9.41 -6.43,8.42 -7.34,7.53 -8.93,5.56 -10.00,3.26 -10.49,0.77 -10.37,-1.76 -9.65,-4.19 -8.36,-6.38 -6.59,-8.19 -4.44,-9.53 -2.03,-10.32 0.50,-10.51 3.00,-10.08 5.32,-9.07 Z" fill="#FFFFFF" stroke="transparent" stroke-width="0" stroke-linejoin="round" stroke-linecap="round" pointer-events="all" transform="translate(1128, 318)"/></svg>