<svg xmlns="http://www.w3.org/2000/svg" viewBox="641 17 746 585" width="200" height="180"><path id="path_0ca25bbf-15c6-4430-0201-07fa0e0659a0" d="M194.23,6.52 Q191.22,10.32 182.81,19.91 T165.62,38.99 146.74,57.71 127.99,74.18 110.04,88.72 91.01,102.41 72.19,114.19 52.25,125.34 31.78,135.43 13.26,143.65 2.75,147.99 -0.58,148.35 -3.86,147.62 -6.73,145.88 -8.89,143.32 -10.12,140.21 -10.30,136.86 -9.39,133.63 -7.51,130.86 -4.83,128.83 -1.65,127.77 1.70,127.78 4.87,128.86 7.54,130.89 9.41,133.67 10.30,136.90 10.11,140.25 8.87,143.36 6.69,145.91 3.81,147.63 0.54,148.35 -2.80,147.98 -5.84,146.56 -8.26,144.25 -9.83,141.28 -10.36,137.98 -9.81,134.67 -8.23,131.71 -5.79,129.41 -4.39,128.46 1.74,125.65 18.25,118.38 38.48,108.89 59.25,97.42 78.96,85.25 96.87,72.36 114.32,58.25 132.27,42.50 150.32,24.61 166.76,6.38 176.26,-4.62 178.67,-7.41 180.65,-8.95 182.95,-9.97 185.42,-10.41 187.93,-10.24 190.33,-9.48 192.47,-8.17 194.24,-6.39 195.53,-4.23 196.26,-1.83 196.40,0.68 195.94,3.15 194.89,5.44 Z" fill="#FFFFFF" stroke="transparent" stroke-width="0" stroke-linejoin="round" stroke-linecap="round" pointer-events="all" transform="translate(681, 422)"/><path id="path_c6eaa635-eda3-4fcc-0e75-4e75a976bac3" d="M0.00,58.50 Q4.60,58.50 16.15,58.50 T39.89,58.50 63.26,58.07 85.28,56.14 107.24,52.70 128.74,48.44 149.34,43.07 170.67,35.93 191.85,27.29 211.85,17.75 230.72,7.01 245.49,-3.41 252.82,-8.97 255.96,-10.16 259.31,-10.28 262.52,-9.32 265.26,-7.39 267.24,-4.68 268.25,-1.49 268.19,1.86 267.06,5.02 264.99,7.65 262.18,9.48 258.93,10.32 255.59,10.08 252.50,8.78 249.98,6.56 248.31,3.66 247.64,0.37 248.07,-2.96 249.53,-5.97 251.88,-8.36 254.87,-9.88 258.19,-10.36 261.49,-9.76 264.42,-8.13 266.68,-5.65 268.03,-2.59 268.33,0.75 267.55,4.01 265.77,6.85 264.65,8.13 255.34,15.26 237.15,27.80 217.87,38.27 196.67,48.01 175.86,56.37 154.92,63.30 133.07,68.98 111.11,73.35 87.76,76.94 63.77,79.06 39.89,79.50 16.15,79.50 2.30,79.50 -1.26,79.35 -3.70,78.75 -5.92,77.58 -7.80,75.91 -9.23,73.84 -10.12,71.49 -10.42,69.00 -10.12,66.50 -9.23,64.16 -7.80,62.09 -5.92,60.42 -3.70,59.25 -1.26,58.65 Z" fill="#FFFFFF" stroke="transparent" stroke-width="0" stroke-linejoin="round" stroke-linecap="round" pointer-events="all" transform="translate(683, 493)"/><path id="path_baea40b2-352f-4c81-19cf-ee8efd33128b" d="M256.21,424.53 Q258.59,426.28 267.38,432.42 T286.32,443.83 307.23,452.86 328.93,459.04 351.95,462.06 375.76,460.55 397.31,453.43 414.73,439.69 433.01,426.64 453.97,427.22 474.71,434.55 495.77,437.85 518.35,439.23 541.97,439.91 563.95,437.37 584.26,429.03 601.61,415.52 614.25,397.85 622.55,377.04 625.16,354.53 620.74,332.23 610.47,310.93 596.82,291.49 586.72,271.96 593.02,254.92 607.78,239.75 618.52,221.07 627.31,200.13 633.41,178.83 636.68,156.87 635.81,134.41 627.76,113.85 614.00,95.42 596.57,80.47 576.95,70.25 556.28,67.50 536.09,75.01 516.21,89.96 496.52,92.97 481.99,77.90 469.86,59.84 454.23,44.22 435.80,31.47 416.96,20.84 396.94,13.78 375.14,12.64 352.64,15.67 330.92,21.36 315.39,34.61 309.14,54.75 309.27,76.40 299.92,90.90 281.42,87.64 265.20,73.75 248.14,59.70 228.34,47.09 206.06,38.26 183.06,33.15 160.07,30.76 137.80,33.30 118.08,43.05 103.56,59.31 95.67,79.85 95.25,101.86 101.55,122.50 108.03,142.94 99.98,157.20 79.71,164.17 59.48,172.69 41.30,185.57 27.30,203.62 17.92,224.33 12.92,245.40 15.10,267.06 23.21,287.75 34.19,305.89 48.65,321.04 65.73,333.50 84.92,342.96 105.47,348.22 126.93,350.11 148.66,350.45 164.63,350.50 171.68,350.78 174.86,351.85 177.53,353.88 179.41,356.66 180.30,359.89 180.12,363.23 178.87,366.35 176.70,368.90 173.83,370.63 170.55,371.35 167.22,370.98 164.18,369.57 161.75,367.26 160.18,364.30 159.64,360.99 160.18,357.68 161.76,354.72 164.19,352.42 167.24,351.01 170.57,350.65 173.84,351.38 176.71,353.11 178.88,355.67 180.12,358.78 180.30,362.13 179.40,365.36 177.52,368.13 174.85,370.16 171.67,371.23 169.99,371.50 156.87,371.48 133.24,371.29 111.66,370.15 89.99,366.52 69.86,359.65 51.08,349.13 33.59,335.87 18.77,320.41 6.85,301.73 -2.42,281.04 -7.87,259.24 -7.23,237.06 -1.12,215.39 7.91,195.06 20.12,177.03 36.00,162.31 55.01,151.21 75.72,142.85 81.60,129.46 74.80,108.55 73.49,86.55 78.01,64.49 87.69,44.67 102.72,28.52 122.10,16.04 143.19,10.14 165.28,9.95 187.85,12.58 210.61,17.69 232.05,25.19 251.70,36.43 270.40,50.66 283.67,68.19 287.73,67.65 289.05,46.40 295.22,26.25 307.96,10.21 326.66,0.39 348.05,-4.95 369.39,-7.93 390.33,-8.63 411.59,-4.20 432.53,5.27 452.43,17.01 471.16,30.88 486.53,46.83 497.82,65.31 510.41,68.27 527.38,55.40 547.72,46.61 570.72,46.45 593.53,54.52 614.45,67.36 631.25,83.03 644.51,101.00 654.52,122.84 658.01,145.72 656.62,168.01 652.43,189.64 646.14,209.85 637.97,229.20 627.66,247.83 617.79,267.50 620.39,287.67 632.74,307.61 642.22,330.32 646.50,354.30 644.23,377.30 637.18,398.85 626.87,417.73 612.55,434.46 594.86,447.61 574.28,456.51 550.50,460.57 526.88,460.58 504.88,459.56 483.02,457.53 461.83,452.83 441.30,451.92 422.48,461.79 403.64,473.94 381.65,480.96 359.49,483.34 338.18,482.01 316.72,477.76 295.01,470.72 274.32,461.31 255.38,449.64 244.98,442.34 242.87,440.60 241.26,438.67 240.15,436.42 239.62,433.96 239.69,431.45 240.36,429.03 241.59,426.84 243.31,425.00 245.42,423.64 247.80,422.81 250.30,422.58 252.78,422.96 255.11,423.91 Z" fill="#FFFFFF" stroke="transparent" stroke-width="0" stroke-linejoin="round" stroke-linecap="round" pointer-events="all" transform="translate(698, 57)"/><path id="path_13891671-2274-43d9-0fc6-9c388cbf5298" d="M-9.34,34.15 Q-8.54,29.72 -4.62,18.90 T8.26,0.80 27.85,-7.57 49.75,-4.98 69.27,5.52 82.13,22.20 86.57,42.72 81.93,62.79 69.53,79.14 54.60,94.96 45.73,114.77 44.89,135.66 46.22,147.29 46.23,150.64 45.17,153.82 43.15,156.50 40.38,158.39 37.16,159.30 33.81,159.13 30.69,157.90 28.13,155.74 26.39,152.87 25.66,149.60 26.01,146.26 27.40,143.21 29.70,140.77 32.66,139.19 35.96,138.64 39.28,139.17 42.24,140.73 44.56,143.16 45.97,146.19 46.35,149.53 45.64,152.80 43.92,155.68 41.37,157.86 38.26,159.11 34.91,159.30 31.68,158.42 28.90,156.55 26.86,153.88 26.06,152.39 24.73,148.33 23.21,132.79 24.91,110.37 32.29,89.93 45.53,73.00 59.67,56.74 64.21,37.54 53.52,20.66 33.19,14.48 16.91,24.10 11.73,35.63 10.97,39.06 9.94,41.35 8.40,43.34 6.43,44.90 4.15,45.94 1.68,46.40 -0.83,46.26 -3.24,45.52 -5.39,44.23 -7.18,42.46 -8.49,40.32 -9.24,37.92 -9.41,35.42 Z" fill="#FFFFFF" stroke="transparent" stroke-width="0" stroke-linejoin="round" stroke-linecap="round" pointer-events="all" transform="translate(994, 206)"/><path id="path_b69043df-bbbc-4962-1834-bc7b10c10ddb" d="M8.42,-6.42 Q10.41,-3.67 10.91,-2.04 T11.36,1.28 10.73,4.57 9.08,7.49 6.58,9.73 3.50,11.06 0.16,11.33 -3.10,10.52 -5.92,8.71 -8.02,6.10 -9.18,2.95 -9.27,-0.40 -8.28,-3.61 -6.33,-6.33 -3.60,-8.28 -0.40,-9.27 2.95,-9.18 6.10,-8.02 8.71,-5.92 10.52,-3.09 11.33,0.16 11.05,3.50 9.73,6.58 7.49,9.08 4.57,10.73 1.28,11.36 -2.04,10.90 -5.05,9.41 -6.43,8.42 -7.34,7.53 -8.93,5.56 -10.00,3.26 -10.49,0.77 -10.37,-1.76 -9.65,-4.19 -8.36,-6.38 -6.59,-8.19 -4.44,-9.53 -2.03,-10.32 0.50,-10.51 3.00,-10.08 5.32,-9.07 Z" fill="#FFFFFF" stroke="transparent" stroke-width="0" stroke-linejoin="round" stroke-linecap="round" pointer-events="all" transform="translate(1030, 408)"/></svg>