<svg xmlns="http://www.w3.org/2000/svg" viewBox="780 250 323 322" width="60" height="60"><path id="path_c33b0689-de78-46b5-0505-deffdce49c35" d="M9.19,91.92 Q15.06,102.54 21.72,115.83 T35.01,144.59 46.37,171.27 65.59,173.16 90.53,152.84 111.41,130.50 130.81,109.25 187.48,46.17 236.51,-8.08 239.43,-9.73 242.72,-10.36 246.04,-9.91 249.04,-8.42 251.42,-6.04 252.91,-3.04 253.36,0.28 252.73,3.57 251.08,6.49 248.58,8.73 245.50,10.06 242.16,10.33 238.90,9.52 236.08,7.71 233.98,5.10 232.82,1.95 232.73,-1.40 233.72,-4.61 235.67,-7.33 238.40,-9.28 241.60,-10.27 244.95,-10.18 248.10,-9.02 250.71,-6.92 252.52,-4.09 253.33,-0.84 253.05,2.50 251.73,5.58 250.82,7.01 203.08,60.23 146.32,123.41 126.75,144.85 105.47,167.59 85.21,188.10 60.84,202.35 38.92,199.10 27.05,179.48 15.87,153.20 3.08,125.49 -6.26,107.39 -9.67,100.90 -10.32,98.48 -10.37,95.96 -9.82,93.51 -8.70,91.26 -7.08,89.35 -5.04,87.88 -2.71,86.93 -0.22,86.58 2.28,86.83 4.65,87.67 6.75,89.05 8.45,90.90 Z" fill="#FFFFFF" stroke="transparent" stroke-width="0" stroke-linejoin="round" stroke-linecap="round" pointer-events="all" transform="translate(820, 290)"/></svg>