<svg xmlns="http://www.w3.org/2000/svg" viewBox="633 105 801 742" width="300" height="300"><path id="path_a1f2477a-2334-4ca0-27ff-01e1269f5a93" d="M13.00,-10.50 Q17.12,-10.50 30.24,-10.35 T56.35,-9.48 81.26,-7.94 105.78,-6.72 130.73,-6.12 153.58,-5.81 174.90,-5.66 199.20,-5.50 223.13,-5.21 244.47,-4.92 267.01,-4.75 290.54,-4.65 315.51,-4.30 341.97,-3.27 368.36,-2.15 394.05,-1.48 420.53,-1.09 448.79,-0.85 477.39,-0.71 503.60,-0.62 528.40,-0.57 552.99,-0.53 576.23,-0.51 598.24,-0.50 619.39,-0.50 640.48,-0.50 662.04,-0.50 684.48,-0.29 704.19,6.36 714.77,23.68 718.21,45.69 719.92,67.76 721.68,90.79 724.30,115.20 726.93,139.19 728.86,162.47 730.14,184.91 730.82,207.65 731.14,230.86 731.29,254.91 731.37,281.03 731.42,308.15 731.45,335.08 731.47,360.23 731.48,385.34 731.49,411.87 731.29,438.20 730.97,463.06 730.78,486.80 730.67,510.08 730.59,534.02 730.54,557.73 730.52,580.01 730.50,601.88 730.50,623.36 728.52,644.57 716.37,658.08 695.45,661.20 674.06,661.42 652.76,661.47 630.97,661.49 609.32,661.49 585.99,661.50 562.03,661.50 539.33,661.50 516.04,661.79 492.86,662.57 469.24,663.83 443.70,665.06 419.74,665.88 398.54,666.62 375.82,667.88 351.55,669.25 327.52,670.22 304.80,671.03 281.64,671.70 257.03,672.18 234.26,672.39 211.92,672.46 188.26,672.49 164.79,672.50 141.97,672.50 119.36,672.50 96.89,672.50 75.32,672.50 53.77,672.50 32.12,672.50 10.87,671.59 -4.58,660.43 -9.91,639.08 -10.43,616.69 -10.20,594.80 -9.75,572.86 -9.55,550.91 -9.26,529.42 -8.08,507.20 -6.10,484.63 -4.32,462.08 -3.16,439.63 -2.39,417.09 -1.81,394.29 -1.56,372.34 -1.52,349.41 -1.51,325.98 -1.50,303.03 -1.50,280.59 -1.50,259.51 -1.50,238.01 -1.50,216.04 -1.50,194.06 -1.50,172.18 -1.50,149.62 -1.50,126.92 -1.50,104.88 -1.24,82.73 -0.77,60.96 -0.52,39.68 -0.50,18.08 -0.50,3.58 -0.23,-1.68 0.85,-4.85 2.87,-7.52 5.65,-9.40 8.88,-10.30 12.23,-10.12 15.34,-8.88 17.90,-6.71 19.63,-3.83 20.35,-0.56 19.98,2.77 18.58,5.82 16.27,8.25 13.31,9.82 10.00,10.36 6.69,9.82 3.73,8.25 1.42,5.81 0.02,2.77 -0.35,-0.56 0.38,-3.84 2.10,-6.71 4.66,-8.88 7.78,-10.12 11.12,-10.30 14.35,-9.40 17.13,-7.52 19.16,-4.85 20.23,-1.67 20.50,0.00 20.50,8.78 20.50,28.21 20.42,49.47 19.92,70.93 19.50,92.33 19.50,113.62 19.50,135.66 19.50,158.04 19.50,180.91 19.50,203.15 19.50,225.26 19.50,247.62 19.50,269.73 19.50,291.69 19.50,313.06 19.49,334.64 19.47,357.50 19.41,380.13 19.03,401.10 18.43,422.60 17.65,444.47 16.34,466.59 14.50,489.33 12.67,511.53 11.68,533.66 11.42,555.77 11.19,576.97 10.76,598.76 10.62,621.48 16.08,642.18 32.12,651.50 53.77,651.50 75.32,651.50 96.89,651.50 119.36,651.50 141.96,651.50 164.79,651.50 188.24,651.49 211.88,651.46 234.15,651.39 256.73,651.18 281.02,650.71 304.08,650.04 326.89,649.23 350.60,648.28 374.78,646.91 397.78,645.63 419.12,644.89 442.83,644.08 468.16,642.85 491.88,641.59 515.54,640.80 539.33,640.50 562.03,640.50 585.98,640.50 609.32,640.49 630.96,640.49 652.73,640.47 675.53,640.41 698.58,637.19 709.50,623.36 709.50,601.88 709.52,579.99 709.54,557.69 709.59,533.97 709.67,509.99 709.78,486.66 709.97,462.83 710.29,438.06 710.49,411.88 710.48,385.35 710.47,360.25 710.45,335.10 710.42,308.18 710.37,281.09 710.29,255.01 710.14,231.07 709.83,208.13 709.17,185.96 707.91,163.92 706.03,141.21 703.73,119.75 701.44,98.88 699.51,76.91 697.63,53.59 695.27,31.34 683.44,20.73 662.04,20.50 640.48,20.50 619.38,20.50 598.23,20.50 576.21,20.49 552.96,20.47 528.36,20.43 503.54,20.38 477.30,20.29 448.64,20.15 420.27,19.91 393.59,19.51 367.61,18.84 341.19,17.71 315.16,16.70 290.46,16.35 266.87,16.25 244.23,16.07 222.73,15.79 198.92,15.50 174.78,15.34 153.36,15.19 130.34,14.88 105.00,14.26 79.97,13.02 55.37,11.49 30.01,10.64 15.06,10.50 11.74,10.35 9.30,9.75 7.08,8.58 5.20,6.91 3.77,4.84 2.88,2.49 2.58,-0.00 2.88,-2.50 3.77,-4.84 5.20,-6.91 7.08,-8.58 9.30,-9.75 11.74,-10.35 Z" fill="#FFFFFF" stroke="transparent" stroke-width="0" stroke-linejoin="round" stroke-linecap="round" pointer-events="all" transform="translate(673, 145)"/><path id="path_94bee2bf-7c37-49d7-2f7a-bab39daa6388" d="M13.50,0.00 Q13.50,3.17 13.50,13.65 T13.50,34.96 13.50,56.53 13.50,77.85 13.42,100.24 12.89,122.96 12.17,145.39 11.78,167.34 11.61,188.94 11.52,211.28 11.50,233.10 11.50,256.07 11.50,280.14 11.50,302.77 11.50,324.25 11.50,345.72 11.50,367.27 11.50,388.69 11.50,410.16 11.50,431.69 11.50,453.76 11.07,475.97 10.58,497.62 10.50,519.03 10.50,540.65 10.50,562.22 20.78,575.87 42.82,579.14 66.30,579.45 88.56,579.49 110.45,579.50 132.45,579.50 154.81,579.50 177.60,579.50 199.44,579.50 222.25,579.50 245.57,579.50 268.75,579.50 291.13,579.50 313.28,579.50 335.57,579.50 357.08,579.50 379.38,579.50 401.83,579.50 424.53,579.50 446.76,579.50 467.92,579.44 489.37,578.15 510.79,575.90 532.82,573.54 554.69,571.56 576.19,570.60 597.96,569.31 614.43,558.85 621.61,538.83 624.44,517.76 626.59,496.19 627.40,473.99 627.49,452.17 627.50,430.66 627.50,408.95 627.50,387.02 627.82,363.74 628.26,339.47 628.41,315.44 628.47,292.49 628.49,271.05 627.93,249.18 626.06,226.28 623.58,204.41 621.00,183.04 618.22,161.19 615.79,139.79 614.23,118.02 613.63,95.59 613.52,73.59 612.85,51.95 607.73,30.97 592.30,20.06 569.65,18.92 546.21,18.58 523.95,18.53 502.34,18.58 479.64,19.21 456.53,20.05 433.42,20.38 410.91,20.66 389.18,21.55 366.08,22.63 341.87,23.19 319.45,23.39 296.91,23.46 274.30,23.48 252.24,23.49 229.80,23.25 206.74,22.84 183.55,22.25 161.57,21.40 140.11,20.82 118.64,20.61 96.51,20.23 74.50,19.28 52.99,17.35 31.60,14.91 11.77,13.12 0.92,12.15 -2.21,10.95 -4.80,8.82 -6.57,5.97 -7.34,2.71 -7.02,-0.63 -5.66,-3.69 -3.39,-6.16 -0.45,-7.77 2.85,-8.36 6.17,-7.87 9.15,-6.34 11.49,-3.94 12.94,-0.91 13.35,2.41 12.68,5.70 10.99,8.59 8.47,10.80 5.37,12.09 2.03,12.32 -1.22,11.46 -4.02,9.62 -6.08,6.98 -7.20,3.82 -7.25,0.47 -6.22,-2.72 -4.23,-5.42 -1.48,-7.34 1.73,-8.28 3.42,-8.49 12.78,-7.88 33.17,-6.05 54.63,-3.58 75.62,-1.69 97.01,-0.75 118.77,-0.39 140.48,-0.18 162.48,0.42 184.26,1.27 207.06,1.84 230.03,2.25 252.23,2.49 274.29,2.48 296.87,2.46 321.10,2.38 345.25,2.14 369.17,1.49 392.52,0.39 414.97,-0.41 438.48,-0.66 461.43,-1.12 483.03,-1.99 505.51,-2.49 527.65,-2.47 550.03,-2.41 573.39,-1.93 595.32,0.29 614.35,7.66 627.63,23.26 633.07,43.74 634.28,64.72 634.56,85.83 634.84,107.91 635.94,129.93 638.14,151.54 640.91,172.99 643.61,194.19 646.06,215.62 648.12,237.61 649.24,260.54 649.48,283.90 649.44,307.52 649.33,331.41 649.07,354.14 648.70,377.02 648.50,399.87 648.50,420.89 648.50,442.26 648.47,464.13 648.16,485.84 646.67,507.11 644.36,528.14 641.17,549.69 634.54,570.07 620.17,584.60 599.80,590.46 578.55,591.51 556.64,592.50 534.87,594.43 513.57,596.71 492.46,598.97 471.47,600.34 449.80,600.50 427.62,600.50 405.89,600.50 384.55,600.50 363.35,600.50 341.21,600.50 317.27,600.50 294.60,600.50 273.18,600.50 251.70,600.50 229.68,600.50 207.15,600.50 185.42,600.50 163.90,600.50 142.15,600.50 120.46,600.50 98.06,600.49 74.92,600.47 53.01,600.39 31.48,599.53 9.91,595.98 -5.53,583.06 -10.50,562.22 -10.50,540.65 -10.50,519.01 -10.42,497.39 -9.92,475.76 -9.50,453.76 -9.50,431.69 -9.50,410.16 -9.50,388.69 -9.50,367.27 -9.50,345.72 -9.50,324.25 -9.50,302.77 -9.50,280.14 -9.50,256.07 -9.50,233.09 -9.48,211.24 -9.39,188.81 -9.21,167.08 -8.82,144.81 -8.10,122.12 -7.57,99.80 -7.50,77.85 -7.50,56.53 -7.50,34.96 -7.50,13.65 -7.50,1.58 -7.35,-1.26 -6.75,-3.70 -5.58,-5.92 -3.91,-7.80 -1.84,-9.23 0.51,-10.12 3.00,-10.42 5.50,-10.12 7.84,-9.23 9.91,-7.80 11.58,-5.92 12.75,-3.70 13.35,-1.26 Z" fill="#FFFFFF" stroke="transparent" stroke-width="0" stroke-linejoin="round" stroke-linecap="round" pointer-events="all" transform="translate(718, 182)"/></svg>