<svg xmlns="http://www.w3.org/2000/svg" viewBox="608 104 825 723" width="300" height="300"><path id="path_b46e5bf5-657b-4e36-0c91-df0175d6cd2f" d="M38.60,-7.49 Q47.00,-7.81 58.79,-8.15 T82.47,-8.74 104.82,-9.14 127.17,-9.50 150.60,-9.95 172.57,-10.26 194.37,-10.38 216.99,-10.45 240.22,-10.48 263.84,-10.49 287.82,-10.50 310.81,-10.50 333.06,-10.50 357.03,-10.50 380.73,-10.50 402.94,-10.50 424.71,-10.50 447.28,-10.50 470.34,-10.50 494.21,-10.50 518.56,-10.50 541.39,-10.50 565.05,-10.50 588.61,-10.50 610.14,-10.50 631.64,-10.50 653.62,-10.50 675.37,-10.50 697.41,-10.50 719.36,-10.50 739.35,-5.04 750.84,10.64 753.41,31.65 754.43,53.64 755.12,75.62 755.36,99.14 755.45,123.75 755.47,147.71 755.49,170.64 755.49,193.14 755.49,215.96 755.50,239.71 755.50,263.22 755.50,285.51 755.50,309.89 755.50,335.76 755.50,359.74 755.50,382.83 755.50,407.27 755.50,432.18 755.50,456.68 755.50,479.50 755.50,502.44 755.50,525.20 755.50,547.67 755.50,570.10 755.50,591.93 755.50,613.92 749.60,633.92 732.13,644.84 710.03,646.91 688.66,647.38 665.54,647.48 641.21,647.57 616.48,647.90 593.31,648.23 572.05,648.37 549.02,648.43 523.60,648.47 498.25,648.48 473.22,648.49 449.45,648.50 426.33,648.65 400.70,649.15 374.49,649.90 350.03,650.54 327.36,650.93 303.40,651.18 279.49,651.34 257.99,651.42 235.24,651.46 211.30,651.88 188.14,652.64 164.83,653.15 141.40,653.38 118.69,653.47 96.59,653.49 74.58,653.50 53.07,653.50 32.05,653.50 13.74,646.08 4.72,627.76 2.58,605.58 0.39,582.22 -2.19,559.20 -5.03,536.69 -7.68,514.54 -9.22,492.59 -9.96,469.95 -10.29,446.38 -10.28,422.11 -9.58,397.28 -8.05,372.35 -5.66,347.68 -2.91,322.01 -0.67,296.37 1.48,272.76 3.81,250.78 5.83,228.28 8.38,204.35 11.39,181.41 14.50,158.68 17.80,133.80 20.84,109.19 23.95,86.07 27.23,64.21 29.62,42.88 29.95,18.94 29.68,4.05 30.53,0.80 32.36,-2.00 35.00,-4.07 38.16,-5.20 41.51,-5.25 44.71,-4.23 47.41,-2.25 49.33,0.50 50.28,3.71 50.15,7.06 48.96,10.20 46.83,12.79 43.99,14.56 40.73,15.34 37.39,15.03 34.32,13.67 31.85,11.40 30.24,8.47 29.64,5.17 30.13,1.85 31.65,-1.14 34.05,-3.48 37.07,-4.94 40.40,-5.35 43.68,-4.69 46.58,-3.00 48.79,-0.48 50.08,2.61 50.47,4.26 50.95,16.16 50.98,38.77 48.91,60.30 45.53,83.06 42.40,106.33 39.39,130.20 36.13,155.30 32.96,178.72 30.08,200.52 27.53,222.35 25.52,243.83 23.27,267.22 20.83,291.99 18.60,317.57 15.87,343.87 13.35,368.25 11.64,393.21 10.76,418.27 10.68,442.03 10.95,465.04 11.55,487.03 12.88,508.53 15.21,530.42 18.18,553.55 20.99,576.96 23.11,600.19 22.02,622.21 30.58,632.58 51.63,632.50 72.58,632.50 93.96,632.49 116.01,632.47 138.05,632.40 160.61,632.21 183.01,631.78 205.23,630.99 229.16,630.47 252.48,630.43 274.01,630.37 296.92,630.23 319.84,630.02 341.85,629.70 365.48,629.16 391.12,628.45 417.48,627.79 441.93,627.50 466.52,627.49 492.10,627.49 517.39,627.47 542.88,627.44 566.57,627.39 588.09,627.28 611.17,627.00 636.29,626.64 659.47,626.49 681.12,626.44 702.65,626.11 723.87,622.75 734.50,608.75 734.50,587.26 734.50,565.88 734.50,542.90 734.50,519.87 734.50,496.31 734.50,472.25 734.50,448.71 734.50,423.93 734.50,399.04 734.50,374.89 734.50,352.53 734.50,329.22 734.50,303.75 734.50,279.96 734.50,257.71 734.50,233.35 734.49,208.51 734.49,185.44 734.48,160.52 734.46,135.24 734.42,110.62 734.27,86.82 733.79,64.86 732.85,42.33 728.22,20.64 713.24,10.50 691.47,10.50 669.09,10.50 645.99,10.50 622.96,10.50 600.47,10.50 578.74,10.50 555.52,10.50 532.19,10.50 509.02,10.50 484.30,10.50 461.11,10.50 437.64,10.50 413.90,10.50 391.91,10.50 369.29,10.50 344.96,10.50 320.44,10.50 296.25,10.50 272.86,10.51 249.94,10.51 226.36,10.53 203.58,10.58 180.09,10.69 155.64,10.96 131.47,11.41 107.00,11.84 82.94,12.25 59.45,12.84 43.60,13.33 38.13,13.39 35.67,12.88 33.41,11.80 31.46,10.20 29.96,8.19 28.98,5.87 28.58,3.39 28.79,0.89 29.59,-1.49 30.94,-3.61 32.76,-5.35 34.94,-6.60 37.36,-7.29 Z" fill="#FFFFFF" stroke="transparent" stroke-width="0" stroke-linejoin="round" stroke-linecap="round" pointer-events="all" transform="translate(648, 144)"/><path id="path_54a012a0-13aa-4e26-0037-c88590f591ed" d="M36.49,7.45 Q36.64,10.46 37.00,21.56 T37.41,43.18 37.48,64.15 37.49,86.18 37.50,108.95 37.50,131.33 37.50,153.26 36.81,176.31 34.69,199.16 31.51,221.10 28.15,244.92 24.99,269.48 22.14,294.53 19.29,320.03 16.70,343.43 14.78,365.54 12.81,389.15 11.33,412.99 10.78,436.24 10.57,459.04 10.87,480.90 12.76,502.28 16.57,523.79 19.60,545.09 31.63,556.56 53.71,557.90 75.32,558.29 96.68,558.44 118.99,558.48 141.40,558.49 164.63,558.50 189.85,558.50 213.50,558.50 236.75,558.50 261.00,558.50 284.15,558.50 306.97,558.50 330.15,558.50 353.21,558.50 376.07,558.50 398.46,558.50 421.01,558.50 443.63,558.50 465.39,558.50 487.48,558.50 510.39,558.50 532.79,558.15 555.56,557.08 577.83,555.68 599.04,554.48 620.67,553.34 639.17,545.16 647.10,526.40 647.47,504.82 647.49,483.33 646.80,461.39 645.87,439.06 645.79,415.95 646.31,393.36 647.12,370.51 647.83,347.50 648.23,325.92 648.41,304.56 648.77,282.96 649.21,261.19 649.40,239.34 649.62,217.90 650.33,195.65 651.72,173.16 653.20,151.81 654.06,129.62 654.37,107.45 654.46,86.05 654.49,64.52 654.50,43.47 647.82,24.45 629.68,15.72 606.96,15.53 583.52,15.51 560.46,15.50 537.71,15.30 513.71,14.90 489.59,14.06 465.43,12.86 440.88,11.73 416.93,10.96 393.45,10.69 371.05,10.59 348.35,10.54 324.97,10.52 301.10,10.51 276.46,10.65 253.39,11.02 230.93,11.34 208.87,11.46 186.20,11.48 163.47,11.49 141.34,12.28 117.86,14.09 94.30,16.21 72.35,17.78 51.04,18.55 32.84,19.17 23.77,19.29 20.55,18.36 17.79,16.45 15.79,13.75 14.76,10.57 14.79,7.21 15.90,4.05 17.96,1.40 20.75,-0.45 23.99,-1.31 27.34,-1.09 30.44,0.18 32.97,2.38 34.67,5.27 35.35,8.55 34.95,11.88 33.51,14.91 31.18,17.32 28.20,18.85 24.89,19.36 21.58,18.78 18.64,17.18 16.36,14.72 14.99,11.66 14.66,8.33 15.42,5.06 17.18,2.21 19.76,0.06 22.88,-1.14 24.55,-1.49 39.82,-2.07 65.54,-2.98 87.29,-4.26 111.06,-6.36 134.31,-8.20 155.89,-9.20 177.43,-9.51 200.14,-9.53 222.87,-9.60 244.51,-9.82 266.99,-10.25 290.93,-10.49 313.90,-10.48 336.51,-10.47 359.97,-10.44 383.87,-10.36 408.10,-10.17 430.99,-9.72 452.65,-8.87 476.09,-7.64 501.33,-6.54 524.68,-5.90 547.32,-5.57 571.19,-5.49 595.21,-5.48 618.12,-5.43 639.77,-4.91 659.54,1.57 672.12,18.12 675.50,39.12 675.49,59.99 675.47,80.93 675.39,103.13 675.12,126.62 674.37,149.26 673.02,171.08 671.55,193.53 670.67,216.78 670.40,239.45 670.21,261.52 669.76,284.71 669.39,307.73 669.18,329.81 668.69,352.51 667.93,376.00 667.17,398.34 666.75,420.59 667.00,443.11 667.91,464.41 668.49,485.66 668.45,507.62 668.03,529.30 665.21,550.07 654.06,566.96 634.51,573.83 612.75,574.68 590.64,575.89 568.85,577.35 546.85,578.57 524.18,579.25 502.21,579.50 479.59,579.50 455.12,579.50 431.47,579.50 408.56,579.50 385.08,579.50 361.98,579.50 338.91,579.50 315.86,579.50 292.27,579.50 268.78,579.50 246.29,579.50 224.49,579.50 202.06,579.50 177.11,579.50 153.45,579.49 130.95,579.49 107.45,579.46 85.03,579.38 63.54,579.13 41.59,578.46 18.77,576.40 3.24,563.28 -2.00,541.14 -5.54,520.15 -8.96,498.92 -10.27,476.89 -10.41,455.32 -10.20,434.48 -9.65,412.19 -8.29,388.78 -6.45,366.78 -4.61,345.57 -2.16,322.39 0.69,297.12 3.59,271.69 6.74,247.01 10.10,223.25 13.25,201.04 15.44,179.62 16.36,157.41 16.50,135.00 16.50,112.61 16.49,89.49 16.48,67.16 16.41,44.80 16.01,22.27 15.59,10.06 15.60,7.29 16.07,4.82 17.12,2.54 18.69,0.57 20.68,-0.96 22.98,-1.98 25.45,-2.41 27.96,-2.24 30.35,-1.47 32.49,-0.15 34.26,1.64 35.54,3.80 36.27,6.20 Z" fill="#FFFFFF" stroke="transparent" stroke-width="0" stroke-linejoin="round" stroke-linecap="round" pointer-events="all" transform="translate(692, 173)"/></svg>