<svg xmlns="http://www.w3.org/2000/svg" viewBox="762 209 369 516" width="100" height="120"><path id="path_dadeaf56-e224-4f5a-292d-501fbe9d709c" d="M11.54,0.00 Q11.56,6.50 11.58,22.16 T11.59,53.93 11.55,83.35 11.49,111.20 11.44,140.37 11.41,168.73 11.41,194.61 11.44,221.93 11.50,248.71 11.57,272.33 11.65,296.09 11.72,322.42 11.43,338.87 10.23,342.43 7.96,345.41 4.86,347.51 1.25,348.51 -2.49,348.31 -5.97,346.92 -8.83,344.50 -10.76,341.29 -11.57,337.63 -11.16,333.90 -9.59,330.50 -7.01,327.78 -3.70,326.02 0.00,325.42 3.70,326.02 7.01,327.78 9.59,330.50 11.16,333.90 11.57,337.63 10.76,341.29 8.83,344.50 5.97,346.93 2.49,348.31 -1.26,348.51 -4.87,347.51 -7.97,345.41 -10.23,342.42 -11.43,338.87 -11.74,337.00 -11.72,322.42 -11.65,296.09 -11.57,272.33 -11.50,248.71 -11.44,221.93 -11.41,194.61 -11.41,168.73 -11.44,140.37 -11.49,111.20 -11.55,83.35 -11.59,53.93 -11.58,22.16 -11.55,3.25 -11.37,-1.38 -10.71,-4.06 -9.42,-6.51 -7.59,-8.57 -5.32,-10.14 -2.74,-11.12 0.00,-11.45 2.74,-11.12 5.32,-10.14 7.59,-8.57 9.43,-6.50 10.71,-4.06 11.37,-1.38 Z" fill="#FFFFFF" stroke="transparent" stroke-width="0" stroke-linejoin="round" stroke-linecap="round" pointer-events="all" transform="translate(804, 290)"/><path id="path_acea9f09-1808-4317-1c8a-a70f31427416" d="M6.03,-9.87 Q8.90,-8.14 19.05,-1.06 T38.70,13.78 57.55,28.84 70.58,38.88 75.55,43.01 77.65,46.15 78.64,49.81 78.41,53.59 76.99,57.10 74.52,59.97 71.26,61.90 67.56,62.69 63.79,62.26 60.37,60.64 57.64,58.02 55.88,54.66 55.30,50.92 55.93,47.19 57.73,43.86 60.50,41.27 63.94,39.70 67.71,39.32 71.40,40.16 74.64,42.13 77.07,45.03 78.45,48.56 78.63,52.34 77.59,55.99 75.44,59.11 72.41,61.38 68.82,62.56 65.03,62.54 61.45,61.30 59.76,60.39 56.15,57.73 43.19,47.64 24.74,32.75 6.22,18.45 -4.61,10.75 -7.13,9.01 -9.08,7.04 -10.50,4.66 -11.31,2.02 -11.46,-0.75 -10.95,-3.47 -9.80,-5.99 -8.08,-8.16 -5.89,-9.86 -3.36,-10.98 -0.64,-11.47 2.13,-11.29 4.77,-10.45 Z" fill="#FFFFFF" stroke="transparent" stroke-width="0" stroke-linejoin="round" stroke-linecap="round" pointer-events="all" transform="translate(805, 633)"/><path id="path_a66f7625-d5ab-400b-1b0a-ec3f03a14a1e" d="M-11.58,331.00 Q-11.60,326.72 -11.65,313.93 T-11.75,289.00 -11.83,264.73 -11.88,240.86 -11.93,216.73 -11.96,192.39 -11.98,168.45 -12.00,144.17 -12.01,120.07 -12.02,95.97 -12.03,71.68 -12.05,48.06 -12.07,25.05 -12.06,6.82 -11.72,-1.92 -10.49,-5.56 -8.17,-8.62 -4.99,-10.78 -1.28,-11.81 2.55,-11.60 6.12,-10.18 9.05,-7.69 11.03,-4.40 11.86,-0.64 11.44,3.18 9.83,6.67 7.19,9.46 3.79,11.26 -0.00,11.88 -3.79,11.26 -7.19,9.45 -9.83,6.66 -11.45,3.18 -11.86,-0.65 -11.03,-4.40 -9.05,-7.69 -6.12,-10.18 -2.55,-11.60 1.29,-11.81 4.99,-10.78 8.17,-8.62 10.50,-5.56 11.72,-1.92 12.04,0.00 12.06,6.82 12.07,25.05 12.05,48.06 12.03,71.68 12.02,95.97 12.01,120.07 12.00,144.17 11.98,168.45 11.96,192.39 11.93,216.73 11.88,240.86 11.83,264.73 11.75,289.00 11.65,313.93 11.59,328.86 11.42,332.39 10.75,335.08 9.46,337.53 7.63,339.61 5.34,341.18 2.75,342.17 -0.00,342.50 -2.75,342.17 -5.34,341.18 -7.63,339.61 -9.46,337.53 -10.75,335.08 -11.42,332.39 Z" fill="#FFFFFF" stroke="transparent" stroke-width="0" stroke-linejoin="round" stroke-linecap="round" pointer-events="all" transform="translate(873, 353)"/><path id="path_76505402-d9da-445e-3998-471fd8df9524" d="M5.37,-10.25 Q8.71,-8.53 18.83,-2.34 T38.61,10.78 57.08,25.00 72.10,37.89 79.46,45.05 81.18,48.44 81.73,52.19 81.06,55.93 79.22,59.25 76.42,61.82 72.95,63.36 69.17,63.70 65.48,62.83 62.26,60.82 59.85,57.88 58.50,54.33 58.36,50.54 59.43,46.90 61.62,43.79 64.68,41.54 68.29,40.39 72.09,40.45 75.67,41.73 78.65,44.07 80.73,47.25 81.68,50.93 81.42,54.71 79.95,58.22 77.45,61.07 74.16,62.97 70.44,63.73 66.67,63.25 63.25,61.60 61.68,60.50 58.15,57.37 45.62,46.31 27.46,31.59 8.12,18.41 -3.71,11.13 -6.52,9.46 -8.60,7.63 -10.17,5.35 -11.16,2.76 -11.49,0.01 -11.16,-2.74 -10.18,-5.33 -8.61,-7.61 -6.53,-9.45 -4.08,-10.74 -1.39,-11.41 1.38,-11.41 4.07,-10.75 Z" fill="#FFFFFF" stroke="transparent" stroke-width="0" stroke-linejoin="round" stroke-linecap="round" pointer-events="all" transform="translate(802, 290)"/><path id="path_9ba8fdb6-85cb-452e-3335-97857c3287dc" d="M-3.51,43.95 Q3.46,41.72 16.20,37.90 T41.51,30.66 65.49,24.23 88.80,18.22 113.50,11.82 137.66,5.70 160.78,-0.55 183.68,-7.41 198.52,-11.29 204.16,-11.81 207.92,-11.14 211.27,-9.31 213.86,-6.50 215.42,-3.01 215.78,0.80 214.91,4.52 212.90,7.77 209.95,10.20 206.38,11.57 202.56,11.72 198.90,10.65 195.76,8.46 193.49,5.39 192.32,1.75 192.37,-2.07 193.64,-5.67 195.99,-8.68 199.19,-10.79 202.88,-11.76 206.70,-11.50 210.23,-10.04 213.11,-7.52 215.03,-4.22 215.80,-0.48 215.34,3.31 213.69,6.76 211.02,9.50 207.62,11.24 205.78,11.84 201.94,12.43 186.86,16.61 163.68,23.50 140.10,29.65 117.33,35.38 94.47,41.16 71.18,47.03 47.55,53.24 22.98,60.15 7.00,64.94 2.14,66.31 -0.63,66.49 -3.36,66.01 -5.89,64.88 -8.09,63.18 -9.81,61.01 -10.97,58.49 -11.48,55.76 -11.33,52.99 -10.52,50.34 -9.10,47.96 -7.15,45.98 -4.78,44.53 Z" fill="#FFFFFF" stroke="transparent" stroke-width="0" stroke-linejoin="round" stroke-linecap="round" pointer-events="all" transform="translate(878, 630)"/><path id="path_b2b85295-aa9e-477f-0cca-ce9448e56f2f" d="M-11.56,334.20 Q-11.26,329.61 -10.47,317.54 T-9.29,293.85 -8.89,270.29 -8.90,246.43 -8.84,223.01 -8.43,199.89 -7.60,176.47 -6.65,152.67 -5.70,129.19 -5.14,105.69 -5.07,82.02 -5.06,58.73 -5.08,35.37 -5.08,11.83 -4.75,-1.93 -3.52,-5.58 -1.19,-8.65 2.00,-10.81 5.71,-11.84 9.56,-11.63 13.14,-10.20 16.08,-7.71 18.06,-4.41 18.89,-0.64 18.48,3.19 16.86,6.68 14.21,9.48 10.80,11.29 7.00,11.91 3.20,11.29 -0.21,9.48 -2.86,6.68 -4.48,3.18 -4.89,-0.65 -4.06,-4.41 -2.08,-7.71 0.86,-10.21 4.44,-11.63 8.29,-11.84 12.00,-10.81 15.19,-8.64 17.52,-5.58 18.75,-1.92 19.07,0.00 19.08,11.83 19.08,35.37 19.06,58.74 19.04,82.05 18.95,105.92 18.36,130.46 17.36,154.72 16.37,178.48 15.47,201.80 15.00,224.78 14.88,248.31 14.75,272.24 14.16,295.57 12.78,319.10 11.72,333.50 11.29,337.17 10.44,339.81 8.99,342.17 7.01,344.11 4.63,345.52 1.98,346.33 -0.79,346.47 -3.51,345.95 -6.03,344.79 -8.20,343.06 -9.89,340.86 -11.01,338.33 -11.48,335.60 Z" fill="#FFFFFF" stroke="transparent" stroke-width="0" stroke-linejoin="round" stroke-linecap="round" pointer-events="all" transform="translate(1082, 294)"/><path id="path_2afd5e6e-938f-4b7b-2b80-6ac3b6008d37" d="M-2.19,40.63 Q1.93,39.82 14.45,37.27 T38.41,32.00 61.99,26.09 85.66,20.12 108.66,14.45 131.74,9.02 155.28,3.66 179.11,-2.27 201.09,-8.39 213.10,-11.71 216.93,-11.70 220.57,-10.47 223.62,-8.15 225.77,-4.97 226.80,-1.27 226.58,2.57 225.16,6.13 222.67,9.05 219.38,11.03 215.63,11.85 211.81,11.43 208.33,9.81 205.55,7.17 203.75,3.77 203.14,-0.02 203.76,-3.80 205.57,-7.19 208.36,-9.83 211.84,-11.44 215.66,-11.84 219.41,-11.01 222.69,-9.03 225.17,-6.10 226.59,-2.53 226.79,1.30 225.76,5.00 223.60,8.17 220.54,10.49 218.82,11.40 205.21,15.51 179.82,22.54 156.58,27.96 132.97,33.31 109.54,38.91 86.78,44.30 63.65,49.97 40.48,55.59 17.64,60.40 4.25,62.98 0.79,63.47 -1.97,63.33 -4.63,62.52 -7.01,61.11 -8.99,59.17 -10.44,56.81 -11.29,54.17 -11.48,51.41 -11.00,48.68 -9.89,46.14 -8.20,43.94 -6.03,42.21 -3.51,41.05 Z" fill="#FFFFFF" stroke="transparent" stroke-width="0" stroke-linejoin="round" stroke-linecap="round" pointer-events="all" transform="translate(876, 294)"/><path id="path_7ee64f28-c661-4b1e-3bed-163c6ec1af76" d="M-2.80,30.78 Q0.36,29.97 12.10,26.95 T35.26,21.10 58.16,15.84 81.48,10.61 105.26,5.71 128.64,1.83 151.71,-0.99 175.29,-2.94 198.65,-6.34 217.35,-10.25 226.58,-11.73 230.34,-11.25 233.76,-9.59 236.47,-6.93 238.19,-3.54 238.73,0.21 238.05,3.95 236.21,7.27 233.41,9.83 229.93,11.36 226.15,11.70 222.46,10.82 219.24,8.80 216.84,5.86 215.50,2.31 215.36,-1.48 216.44,-5.12 218.63,-8.22 221.70,-10.47 225.31,-11.61 229.11,-11.54 232.69,-10.26 235.67,-7.91 237.74,-4.73 238.69,-1.05 238.41,2.73 236.94,6.23 234.43,9.08 231.14,10.98 229.34,11.66 212.21,15.43 183.50,20.13 159.88,22.16 136.25,24.94 112.29,28.76 87.89,33.59 63.98,38.77 40.46,44.04 17.40,49.63 4.39,52.83 1.42,53.39 -1.35,53.40 -4.04,52.75 -6.49,51.47 -8.57,49.64 -10.15,47.37 -11.14,44.78 -11.48,42.04 -11.16,39.29 -10.18,36.70 -8.62,34.41 -6.55,32.57 -4.11,31.28 Z" fill="#FFFFFF" stroke="transparent" stroke-width="0" stroke-linejoin="round" stroke-linecap="round" pointer-events="all" transform="translate(802, 249)"/><path id="path_3ea697e9-5f3f-4a74-3d21-9c8b3ef0bb93" d="M7.79,-8.57 Q11.29,-5.42 20.15,2.08 T38.81,16.49 55.17,26.77 63.32,31.19 66.12,33.72 67.97,37.01 68.67,40.73 68.15,44.47 66.46,47.84 63.77,50.51 60.39,52.17 56.64,52.67 52.93,51.94 49.65,50.07 47.14,47.25 45.66,43.77 45.37,40.01 46.29,36.35 48.34,33.17 51.29,30.82 54.84,29.53 58.62,29.44 62.23,30.56 65.29,32.78 67.48,35.85 68.57,39.47 68.45,43.24 67.14,46.78 64.76,49.72 61.57,51.74 57.90,52.64 54.14,52.32 52.29,51.85 42.37,46.38 23.16,34.16 4.78,19.58 -6.06,10.16 -8.71,7.52 -10.25,5.21 -11.20,2.61 -11.50,-0.15 -11.13,-2.90 -10.11,-5.48 -8.51,-7.74 -6.41,-9.55 -3.94,-10.81 -1.24,-11.43 1.53,-11.40 4.22,-10.70 6.65,-9.38 Z" fill="#FFFFFF" stroke="transparent" stroke-width="0" stroke-linejoin="round" stroke-linecap="round" pointer-events="all" transform="translate(1030, 249)"/><path id="path_1e5e66d9-3755-4e2c-3d0b-9c8c9a3ec720" d="M12.54,36.61 Q12.40,39.62 23.57,41.91 T46.62,42.07 70.17,37.39 93.68,32.50 117.14,27.69 140.01,22.05 150.67,9.11 150.46,-2.57 151.88,-6.12 154.37,-9.03 157.65,-10.99 161.39,-11.81 165.19,-11.38 168.66,-9.77 171.43,-7.13 173.21,-3.75 173.82,0.03 173.19,3.80 171.39,7.18 168.61,9.80 165.14,11.40 161.33,11.80 157.60,10.97 154.32,8.99 151.85,6.07 150.45,2.51 150.25,-1.31 151.28,-4.99 153.44,-8.15 156.49,-10.46 160.12,-11.67 163.94,-11.66 167.56,-10.43 170.60,-8.11 172.74,-4.94 173.76,-1.25 173.96,0.68 173.09,12.10 164.88,32.82 146.50,45.17 124.09,50.61 100.66,55.38 76.84,60.35 53.41,64.88 29.90,68.27 6.53,66.75 -7.86,51.10 -10.63,36.90 -10.30,34.02 -9.50,31.37 -8.09,29.00 -6.15,27.02 -3.79,25.58 -1.16,24.73 1.60,24.54 4.33,25.02 6.86,26.14 9.05,27.82 10.77,29.99 11.93,32.50 12.45,35.22 Z" fill="#FFFFFF" stroke="transparent" stroke-width="0" stroke-linejoin="round" stroke-linecap="round" pointer-events="all" transform="translate(897, 341)"/><path id="path_cc0c736a-0c1b-4fae-16ac-25dd1cd8da3b" d="M11.56,27.00 Q11.57,29.69 20.21,37.34 T42.18,44.39 67.88,42.24 92.26,39.51 116.13,35.79 137.38,26.29 150.40,9.08 154.54,-3.03 156.11,-6.53 158.72,-9.35 162.08,-11.18 165.86,-11.85 169.65,-11.27 173.06,-9.52 175.73,-6.77 177.38,-3.31 177.84,0.50 177.06,4.25 175.12,7.56 172.23,10.08 168.69,11.54 164.86,11.80 161.15,10.81 157.95,8.70 155.60,5.67 154.33,2.06 154.28,-1.78 155.47,-5.43 157.75,-8.51 160.90,-10.70 164.58,-11.76 168.41,-11.60 171.99,-10.23 174.94,-7.78 176.96,-4.52 177.82,-0.78 177.95,1.16 173.77,15.15 161.49,38.15 142.85,52.04 120.20,59.40 95.53,63.11 70.89,65.81 46.77,68.15 22.54,67.36 0.50,59.08 -10.47,41.08 -11.56,28.35 -11.39,25.62 -10.73,22.93 -9.44,20.48 -7.61,18.41 -5.33,16.84 -2.74,15.86 0.00,15.53 2.75,15.86 5.33,16.84 7.61,18.41 9.44,20.48 10.73,22.93 11.39,25.62 Z" fill="#FFFFFF" stroke="transparent" stroke-width="0" stroke-linejoin="round" stroke-linecap="round" pointer-events="all" transform="translate(901, 399)"/><path id="path_090f0cd4-37d8-47c9-23d9-b7fbd1e1d66d" d="M10.62,12.45 Q11.58,14.66 22.29,19.98 T45.06,24.72 68.76,22.16 92.39,18.22 115.71,14.67 137.25,4.87 148.29,-5.07 150.47,-8.23 153.54,-10.52 157.19,-11.71 161.02,-11.68 164.64,-10.42 167.68,-8.07 169.80,-4.88 170.79,-1.18 170.55,2.65 169.10,6.20 166.59,9.10 163.29,11.05 159.54,11.84 155.73,11.39 152.26,9.75 149.50,7.09 147.74,3.68 147.15,-0.11 147.80,-3.88 149.63,-7.26 152.44,-9.87 155.93,-11.45 159.75,-11.83 163.49,-10.97 166.75,-8.96 169.21,-6.02 170.60,-2.44 170.77,1.39 170.54,3.32 168.45,9.45 157.27,23.86 136.87,34.84 113.61,39.22 90.22,42.77 66.68,46.74 42.16,48.70 18.26,45.53 -1.46,33.13 -10.15,22.66 -11.01,20.21 -11.46,17.49 -11.24,14.73 -10.37,12.10 -8.90,9.76 -6.91,7.84 -4.52,6.46 -1.86,5.68 0.90,5.56 3.61,6.11 6.11,7.29 8.26,9.04 9.92,11.24 Z" fill="#FFFFFF" stroke="transparent" stroke-width="0" stroke-linejoin="round" stroke-linecap="round" pointer-events="all" transform="translate(901, 471)"/><path id="path_164b1ee5-9b4d-44a5-28fa-d89f446ea85a" d="M9.40,0.28 Q11.00,2.49 20.36,9.73 T41.28,19.39 64.37,22.36 87.33,22.13 110.44,19.24 133.40,12.21 149.72,0.55 155.99,-7.68 158.92,-10.15 162.48,-11.57 166.30,-11.76 169.99,-10.73 173.16,-8.58 175.47,-5.52 176.68,-1.89 176.68,1.94 175.45,5.57 173.12,8.61 169.95,10.75 166.26,11.77 162.43,11.55 158.88,10.13 155.96,7.64 153.99,4.36 153.18,0.62 153.60,-3.19 155.22,-6.66 157.86,-9.44 161.24,-11.23 165.03,-11.84 168.80,-11.21 172.18,-9.41 174.81,-6.62 176.41,-3.14 176.82,0.67 175.99,4.41 175.26,6.21 171.94,11.48 159.83,24.51 139.45,36.30 115.34,42.60 90.49,45.78 66.06,46.22 42.49,43.77 19.99,37.33 0.57,24.41 -8.62,14.83 -10.07,12.49 -11.09,9.92 -11.47,7.18 -11.18,4.43 -10.24,1.83 -8.71,-0.47 -6.67,-2.34 -4.24,-3.66 -1.57,-4.37 1.20,-4.41 3.90,-3.79 6.37,-2.55 8.47,-0.74 Z" fill="#FFFFFF" stroke="transparent" stroke-width="0" stroke-linejoin="round" stroke-linecap="round" pointer-events="all" transform="translate(897, 521)"/><path id="path_bf168233-437b-4de2-065b-94a0beaa97cb" d="M8.29,-6.97 Q10.84,-4.93 20.80,0.74 T42.79,6.72 66.91,7.06 91.02,7.08 114.44,5.67 136.09,-1.41 147.72,-8.45 150.85,-10.66 154.52,-11.74 158.35,-11.60 161.93,-10.24 164.89,-7.81 166.92,-4.57 167.81,-0.84 167.46,2.97 165.91,6.48 163.32,9.30 159.97,11.15 156.20,11.84 152.41,11.28 149.00,9.54 146.32,6.81 144.65,3.36 144.17,-0.44 144.93,-4.20 146.85,-7.51 149.73,-10.04 153.26,-11.52 157.08,-11.79 160.79,-10.82 164.00,-8.73 166.36,-5.72 167.65,-2.11 167.71,1.72 166.55,5.37 165.67,7.10 160.56,12.68 144.52,22.59 121.33,28.82 97.62,30.81 73.98,30.81 50.09,30.52 26.75,28.49 5.67,19.87 -5.03,12.01 -7.26,9.97 -8.93,7.76 -10.02,5.22 -10.47,2.49 -10.25,-0.27 -9.38,-2.90 -7.91,-5.24 -5.92,-7.16 -3.52,-8.55 -0.87,-9.33 1.90,-9.44 4.61,-8.90 7.11,-7.72 Z" fill="#FFFFFF" stroke="transparent" stroke-width="0" stroke-linejoin="round" stroke-linecap="round" pointer-events="all" transform="translate(900, 577)"/><path id="path_1f9db348-b3b3-459c-2e15-b17fef4f4ea7" d="M6.41,7.38 Q8.80,8.95 19.60,14.79 T41.70,23.03 64.63,25.48 87.53,23.70 110.10,19.42 131.74,11.93 142.63,2.47 143.79,-3.79 145.58,-7.17 148.37,-9.80 151.84,-11.41 155.65,-11.82 159.39,-10.99 162.67,-9.01 165.15,-6.09 166.56,-2.53 166.77,1.29 165.74,4.98 163.59,8.15 160.53,10.46 156.90,11.68 153.07,11.68 149.44,10.45 146.40,8.13 144.25,4.96 143.23,1.27 143.44,-2.56 144.86,-6.11 147.35,-9.03 150.63,-11.00 154.37,-11.82 158.18,-11.40 161.65,-9.79 164.43,-7.15 166.22,-3.77 166.84,0.01 166.83,1.95 160.80,14.61 143.84,32.68 121.75,41.13 98.71,45.99 74.26,48.68 50.10,48.41 27.31,43.92 6.03,34.40 -5.23,27.42 -7.47,25.71 -9.34,23.67 -10.66,21.24 -11.37,18.57 -11.41,15.80 -10.79,13.10 -9.55,10.63 -7.75,8.53 -5.50,6.93 -2.93,5.90 -0.18,5.53 2.57,5.82 5.17,6.75 Z" fill="#FFFFFF" stroke="transparent" stroke-width="0" stroke-linejoin="round" stroke-linecap="round" pointer-events="all" transform="translate(906, 608)"/><path id="path_9ffea643-da0a-425d-13fa-22ce34b551bb" d="M9.13,-7.13 Q11.30,-4.11 11.85,-2.33 T12.34,1.31 11.65,4.91 9.84,8.11 7.11,10.56 3.74,12.01 0.08,12.31 -3.49,11.42 -6.58,9.45 -8.88,6.58 -10.15,3.14 -10.24,-0.53 -9.17,-4.04 -7.02,-7.03 -4.04,-9.17 -0.53,-10.24 3.14,-10.14 6.59,-8.88 9.45,-6.58 11.43,-3.48 12.31,0.08 12.01,3.74 10.56,7.11 8.11,9.85 4.91,11.65 1.30,12.34 -2.33,11.85 -5.62,10.22 -7.13,9.13 -8.12,8.15 -9.83,5.97 -10.98,3.44 -11.48,0.71 -11.32,-2.06 -10.50,-4.71 -9.06,-7.08 -7.11,-9.04 -4.74,-10.48 -2.09,-11.31 0.68,-11.48 3.41,-10.99 5.94,-9.85 Z" fill="#FFFFFF" stroke="transparent" stroke-width="0" stroke-linejoin="round" stroke-linecap="round" pointer-events="all" transform="translate(836, 360)"/><path id="path_da3b641e-7630-4535-0687-511efe972132" d="M5.62,-9.98 Q21.58,-0.91 23.01,0.24 T25.44,2.93 26.89,6.27 27.19,9.89 26.32,13.41 24.37,16.48 21.54,18.76 18.14,20.02 14.51,20.12 11.03,19.07 8.08,16.95 5.95,14.01 4.88,10.54 4.97,6.91 6.22,3.50 8.49,0.66 11.54,-1.30 15.07,-2.19 18.69,-1.90 22.03,-0.47 24.73,1.95 26.53,5.11 27.22,8.67 26.74,12.27 25.13,15.53 22.57,18.10 19.32,19.72 15.72,20.22 12.15,19.54 10.42,18.91 2.40,14.45 -6.73,9.17 -8.73,7.29 -10.22,4.99 -11.12,2.40 -11.37,-0.33 -10.96,-3.04 -9.91,-5.58 -8.29,-7.79 -6.18,-9.54 -3.72,-10.75 -1.04,-11.32 1.70,-11.24 4.34,-10.51 Z" fill="#FFFFFF" stroke="transparent" stroke-width="0" stroke-linejoin="round" stroke-linecap="round" pointer-events="all" transform="translate(832, 399)"/><path id="path_606ac3cc-ae55-425c-05a0-aaa705f55998" d="M5.95,-9.91 Q8.33,-8.50 18.80,-1.17 T30.67,7.43 33.01,10.32 34.30,13.82 34.40,17.54 33.31,21.10 31.15,24.13 28.12,26.30 24.57,27.40 20.84,27.30 17.35,26.02 14.44,23.69 12.43,20.56 11.53,16.95 11.83,13.24 13.30,9.81 15.78,7.04 19.02,5.20 22.68,4.50 26.37,5.00 29.70,6.65 32.34,9.28 34.00,12.61 34.50,16.30 33.80,19.96 31.98,23.20 29.21,25.69 25.79,27.16 22.08,27.47 18.46,26.57 16.73,25.83 6.58,18.59 -4.76,10.63 -7.05,9.06 -9.01,7.11 -10.45,4.74 -11.28,2.11 -11.46,-0.66 -10.97,-3.38 -9.84,-5.90 -8.14,-8.09 -5.97,-9.80 -3.45,-10.95 -0.73,-11.45 2.03,-11.29 4.68,-10.48 Z" fill="#FFFFFF" stroke="transparent" stroke-width="0" stroke-linejoin="round" stroke-linecap="round" pointer-events="all" transform="translate(827, 596)"/><path id="path_a4c931c9-cfe7-4750-3f12-08cc16ef9598" d="M9.13,-7.13 Q11.30,-4.11 11.85,-2.33 T12.34,1.31 11.65,4.91 9.84,8.11 7.11,10.56 3.74,12.01 0.08,12.31 -3.49,11.42 -6.58,9.45 -8.88,6.58 -10.15,3.14 -10.24,-0.53 -9.17,-4.04 -7.02,-7.03 -4.04,-9.17 -0.53,-10.24 3.14,-10.14 6.59,-8.88 9.45,-6.58 11.43,-3.48 12.31,0.08 12.01,3.74 10.56,7.11 8.11,9.85 4.91,11.65 1.30,12.34 -2.33,11.85 -5.62,10.22 -7.13,9.13 -8.12,8.15 -9.83,5.97 -10.98,3.44 -11.48,0.71 -11.32,-2.06 -10.50,-4.71 -9.06,-7.08 -7.11,-9.04 -4.74,-10.48 -2.09,-11.31 0.68,-11.48 3.41,-10.99 5.94,-9.85 Z" fill="#FFFFFF" stroke="transparent" stroke-width="0" stroke-linejoin="round" stroke-linecap="round" pointer-events="all" transform="translate(835, 553)"/><path id="path_a4157960-1031-4baf-3539-05c943e9a793" d="M4.06,-10.82 Q6.60,-9.88 19.51,-3.81 T33.82,3.54 36.11,6.48 37.34,9.99 37.39,13.72 36.24,17.27 34.03,20.26 30.97,22.39 27.39,23.44 23.66,23.28 20.18,21.94 17.31,19.57 15.35,16.40 14.51,12.77 14.86,9.06 16.39,5.65 18.92,2.92 22.19,1.13 25.86,0.48 29.54,1.04 32.86,2.74 35.45,5.42 37.06,8.78 37.51,12.48 36.75,16.13 34.87,19.35 32.06,21.80 28.61,23.22 24.90,23.47 21.29,22.51 19.57,21.74 9.02,16.77 -2.79,11.30 -5.29,10.18 -7.58,8.62 -9.42,6.55 -10.71,4.11 -11.38,1.42 -11.39,-1.34 -10.74,-4.03 -9.47,-6.48 -7.64,-8.56 -5.37,-10.14 -2.79,-11.13 -0.04,-11.47 2.71,-11.15 Z" fill="#FFFFFF" stroke="transparent" stroke-width="0" stroke-linejoin="round" stroke-linecap="round" pointer-events="all" transform="translate(822, 500)"/><path id="path_b65385d3-095a-421c-22ae-cbe31e29febd" d="M9.13,-7.13 Q11.30,-4.11 11.85,-2.33 T12.34,1.31 11.65,4.91 9.84,8.11 7.11,10.56 3.74,12.01 0.08,12.31 -3.49,11.42 -6.58,9.45 -8.88,6.58 -10.15,3.14 -10.24,-0.53 -9.17,-4.04 -7.02,-7.03 -4.04,-9.17 -0.53,-10.24 3.14,-10.14 6.59,-8.88 9.45,-6.58 11.43,-3.48 12.31,0.08 12.01,3.74 10.56,7.11 8.11,9.85 4.91,11.65 1.30,12.34 -2.33,11.85 -5.62,10.22 -7.13,9.13 -8.12,8.15 -9.83,5.97 -10.98,3.44 -11.48,0.71 -11.32,-2.06 -10.50,-4.71 -9.06,-7.08 -7.11,-9.04 -4.74,-10.48 -2.09,-11.31 0.68,-11.48 3.41,-10.99 5.94,-9.85 Z" fill="#FFFFFF" stroke="transparent" stroke-width="0" stroke-linejoin="round" stroke-linecap="round" pointer-events="all" transform="translate(839, 454)"/></svg>