<svg xmlns="http://www.w3.org/2000/svg" viewBox="867 213 223 485" width="100" height="120"><path id="path_17a8338a-3372-4b3a-0e93-98d3e02e7d14" d="M18.59,0.00 Q18.60,5.23 18.65,17.45 T18.74,42.06 18.81,66.50 18.86,90.62 18.89,114.71 18.91,140.17 18.50,167.70 17.44,194.40 16.01,219.85 14.42,244.62 13.12,268.92 12.36,293.06 12.04,316.37 11.94,332.98 11.60,339.93 10.37,343.53 8.06,346.55 4.91,348.68 1.24,349.69 -2.55,349.47 -6.08,348.06 -8.98,345.59 -10.93,342.32 -11.74,338.61 -11.32,334.83 -9.71,331.38 -7.09,328.62 -3.73,326.85 0.03,326.24 3.78,326.87 7.14,328.66 9.75,331.43 11.34,334.88 11.74,338.67 10.91,342.38 8.94,345.63 6.03,348.09 2.50,349.49 -1.30,349.68 -4.96,348.66 -8.11,346.51 -10.40,343.48 -11.61,339.87 -11.91,337.97 -11.91,332.92 -11.79,316.15 -11.38,292.51 -10.57,267.90 -9.24,243.11 -7.68,218.32 -6.31,193.26 -5.31,167.25 -4.91,140.17 -4.89,114.71 -4.86,90.62 -4.81,66.50 -4.74,42.06 -4.65,17.45 -4.60,2.62 -4.42,-1.39 -3.75,-4.08 -2.47,-6.53 -0.63,-8.61 1.66,-10.18 4.25,-11.17 7.00,-11.50 9.75,-11.17 12.35,-10.18 14.63,-8.61 16.47,-6.53 17.75,-4.08 18.42,-1.39 Z" fill="#FFFFFF" stroke="transparent" stroke-width="0" stroke-linejoin="round" stroke-linecap="round" pointer-events="all" transform="translate(907, 316)"/><path id="path_2ef1e683-2ddf-44a5-3254-88d6d4cca1de" d="M0.00,-11.59 Q4.75,-11.61 17.37,-11.65 T41.47,-11.73 64.95,-11.80 88.79,-11.86 112.43,-11.91 131.12,-11.93 139.91,-11.62 143.52,-10.40 146.55,-8.10 148.69,-4.94 149.71,-1.27 149.50,2.53 148.09,6.07 145.62,8.97 142.36,10.94 138.64,11.76 134.85,11.35 131.39,9.75 128.63,7.12 126.84,3.76 126.23,-0.00 126.84,-3.76 128.63,-7.13 131.39,-9.75 134.85,-11.35 138.64,-11.76 142.36,-10.94 145.62,-8.97 148.09,-6.07 149.50,-2.53 149.71,1.28 148.69,4.95 146.55,8.10 143.51,10.40 139.90,11.62 138.00,11.93 131.12,11.93 112.43,11.91 88.79,11.86 64.95,11.80 41.47,11.73 17.37,11.65 2.38,11.60 -1.39,11.42 -4.08,10.76 -6.54,9.47 -8.61,7.63 -10.19,5.35 -11.17,2.75 -11.50,-0.00 -11.17,-2.75 -10.19,-5.35 -8.61,-7.63 -6.53,-9.47 -4.08,-10.76 -1.39,-11.42 Z" fill="#FFFFFF" stroke="transparent" stroke-width="0" stroke-linejoin="round" stroke-linecap="round" pointer-events="all" transform="translate(911, 658)"/><path id="path_3ffecebc-9b96-45d7-1d13-3f7535a94501" d="M-5.56,341.50 Q-5.42,337.85 -5.14,325.77 T-4.83,301.73 -4.85,278.20 -4.90,255.23 -4.95,232.43 -4.98,209.51 -5.20,186.55 -6.40,163.49 -8.49,139.98 -10.24,116.67 -10.97,93.71 -11.07,70.73 -11.08,47.59 -11.50,24.23 -11.97,6.36 -11.75,-1.76 -10.57,-5.42 -8.29,-8.51 -5.13,-10.72 -1.44,-11.79 2.40,-11.64 5.99,-10.26 8.95,-7.81 10.98,-4.55 11.85,-0.80 11.49,3.02 9.92,6.53 7.32,9.36 3.95,11.21 0.16,11.88 -3.64,11.31 -7.06,9.55 -9.74,6.80 -11.41,3.33 -11.87,-0.48 -11.10,-4.25 -9.16,-7.57 -6.26,-10.10 -2.71,-11.57 1.13,-11.83 4.84,-10.85 8.06,-8.73 10.42,-5.70 11.70,-2.08 12.04,-0.16 12.13,4.46 12.65,21.03 13.08,44.62 13.08,67.79 13.13,91.33 13.82,115.01 15.53,138.55 17.60,162.15 18.79,185.92 18.98,210.27 18.94,234.12 18.90,257.75 18.82,281.23 18.65,304.27 18.13,327.39 17.65,340.68 17.33,343.88 16.55,346.54 15.16,348.93 13.24,350.92 10.89,352.39 8.26,353.26 5.50,353.48 2.77,353.02 0.22,351.93 -1.98,350.26 -3.73,348.11 -4.91,345.60 -5.45,342.89 Z" fill="#FFFFFF" stroke="transparent" stroke-width="0" stroke-linejoin="round" stroke-linecap="round" pointer-events="all" transform="translate(1043, 311)"/><path id="path_c4710728-bf86-45f8-1426-75a06a84c806" d="M0.00,-11.56 Q2.85,-11.58 14.55,-11.64 T38.38,-11.75 62.45,-11.09 86.05,-9.67 109.46,-8.98 126.10,-8.98 132.91,-8.66 136.54,-7.44 139.58,-5.13 141.72,-1.96 142.75,1.72 142.54,5.54 141.12,9.09 138.65,12.01 135.37,13.98 131.64,14.80 127.84,14.38 124.37,12.78 121.59,10.15 119.80,6.77 119.18,3.00 119.80,-0.78 121.60,-4.15 124.37,-6.78 127.84,-8.39 131.64,-8.80 135.38,-7.98 138.65,-6.00 141.13,-3.09 142.54,0.46 142.75,4.28 141.72,7.96 139.58,11.13 136.53,13.44 132.91,14.66 131.00,14.97 125.55,14.98 108.33,14.94 85.15,14.14 62.13,12.59 38.38,11.75 14.55,11.64 1.43,11.57 -1.38,11.39 -4.07,10.73 -6.52,9.44 -8.59,7.61 -10.16,5.33 -11.14,2.75 -11.48,-0.00 -11.14,-2.75 -10.16,-5.33 -8.59,-7.61 -6.52,-9.45 -4.07,-10.73 -1.38,-11.39 Z" fill="#FFFFFF" stroke="transparent" stroke-width="0" stroke-linejoin="round" stroke-linecap="round" pointer-events="all" transform="translate(912, 309)"/><path id="path_0425b15b-fbe4-4781-3475-e305aba04d38" d="M-10.23,43.61 Q-8.66,40.59 -3.85,29.88 T7.95,6.52 16.18,-7.56 19.05,-9.98 22.55,-11.36 26.31,-11.54 29.93,-10.52 33.03,-8.40 35.29,-5.40 36.47,-1.83 36.46,1.93 35.24,5.49 32.95,8.47 29.83,10.57 26.20,11.56 22.45,11.33 18.97,9.93 16.11,7.48 14.19,4.25 13.40,0.58 13.82,-3.16 15.41,-6.56 18.01,-9.28 21.34,-11.03 25.05,-11.62 28.76,-10.99 32.07,-9.22 34.65,-6.47 36.21,-3.06 36.60,0.68 35.77,4.35 35.06,6.12 28.35,18.11 16.73,40.74 11.03,52.88 9.44,55.53 7.60,57.60 5.32,59.17 2.73,60.15 -0.01,60.48 -2.76,60.14 -5.35,59.16 -7.62,57.58 -9.46,55.51 -10.74,53.06 -11.40,50.37 -11.39,47.60 -10.73,44.92 Z" fill="#FFFFFF" stroke="transparent" stroke-width="0" stroke-linejoin="round" stroke-linecap="round" pointer-events="all" transform="translate(912, 256)"/><path id="path_a3457b91-9a03-4401-24dd-a4547a2969c4" d="M0.00,-11.56 Q2.85,-11.58 14.73,-11.64 T38.17,-11.75 61.60,-11.84 82.73,-11.89 93.90,-11.59 97.50,-10.38 100.53,-8.08 102.66,-4.93 103.68,-1.27 103.47,2.53 102.06,6.06 99.60,8.95 96.35,10.91 92.63,11.73 88.86,11.32 85.41,9.72 82.65,7.11 80.87,3.75 80.25,-0.00 80.87,-3.75 82.65,-7.11 85.41,-9.72 88.86,-11.32 92.64,-11.73 96.35,-10.91 99.61,-8.95 102.07,-6.05 103.47,-2.52 103.68,1.27 102.66,4.93 100.53,8.08 97.50,10.38 93.90,11.59 92.00,11.90 82.73,11.89 61.60,11.84 38.17,11.75 14.73,11.64 1.43,11.57 -1.38,11.39 -4.07,10.73 -6.52,9.45 -8.59,7.61 -10.16,5.33 -11.14,2.75 -11.48,-0.00 -11.14,-2.75 -10.16,-5.33 -8.59,-7.61 -6.52,-9.45 -4.07,-10.73 -1.38,-11.39 Z" fill="#FFFFFF" stroke="transparent" stroke-width="0" stroke-linejoin="round" stroke-linecap="round" pointer-events="all" transform="translate(938, 253)"/><path id="path_2aad34aa-303e-4a94-3622-5c63c628e7ff" d="M11.45,-1.64 Q11.94,1.69 13.33,13.50 T19.01,36.69 24.64,51.35 26.40,56.51 26.60,60.28 25.58,63.92 23.46,67.04 20.45,69.32 16.87,70.52 13.09,70.51 9.52,69.30 6.51,67.01 4.40,63.88 3.40,60.24 3.61,56.47 5.01,52.97 7.46,50.09 10.70,48.15 14.39,47.35 18.14,47.76 21.57,49.36 24.30,51.96 26.06,55.30 26.67,59.02 26.05,62.75 24.27,66.08 21.53,68.67 18.10,70.25 14.34,70.65 10.66,69.83 7.43,67.88 4.99,64.99 4.01,63.35 1.35,57.23 -4.93,39.43 -9.78,16.36 -11.22,3.30 -11.48,0.24 -11.20,-2.51 -10.27,-5.12 -8.75,-7.43 -6.72,-9.31 -4.30,-10.65 -1.62,-11.36 1.14,-11.42 3.84,-10.82 6.32,-9.58 8.43,-7.79 10.05,-5.55 11.09,-2.98 Z" fill="#FFFFFF" stroke="transparent" stroke-width="0" stroke-linejoin="round" stroke-linecap="round" pointer-events="all" transform="translate(1030, 253)"/><path id="path_64ec7706-4ee0-4eae-02cd-3e28ddbaa754" d="M0.00,-11.58 Q3.33,-11.59 15.20,-11.65 T38.69,-11.74 63.75,-11.32 79.08,-10.50 82.64,-9.24 85.61,-6.90 87.68,-3.74 88.64,-0.08 88.37,3.70 86.92,7.19 84.42,10.03 81.15,11.92 77.44,12.68 73.69,12.21 70.29,10.57 67.58,7.92 65.87,4.55 65.32,0.81 65.99,-2.91 67.81,-6.22 70.60,-8.78 74.06,-10.31 77.82,-10.66 81.50,-9.78 84.71,-7.78 87.11,-4.86 88.45,-1.33 88.60,2.45 87.52,6.08 85.35,9.17 82.30,11.41 78.70,12.56 76.81,12.84 63.56,12.32 38.69,11.74 15.20,11.65 1.66,11.58 -1.39,11.41 -4.08,10.75 -6.53,9.46 -8.60,7.62 -10.18,5.34 -11.16,2.75 -11.49,-0.00 -11.16,-2.75 -10.18,-5.34 -8.60,-7.62 -6.53,-9.46 -4.07,-10.75 -1.38,-11.41 Z" fill="#FFFFFF" stroke="transparent" stroke-width="0" stroke-linejoin="round" stroke-linecap="round" pointer-events="all" transform="translate(939, 411)"/><path id="path_1af8d069-98a0-441e-30e1-d2f2fdf4afda" d="M0.00,-11.58 Q3.65,-11.60 15.49,-11.11 T38.89,-9.87 62.06,-9.01 80.36,-8.87 88.92,-8.53 92.50,-7.31 95.51,-5.02 97.62,-1.88 98.62,1.77 98.41,5.54 97.00,9.05 94.55,11.93 91.30,13.87 87.60,14.67 83.84,14.26 80.42,12.66 77.68,10.05 75.91,6.70 75.31,2.97 75.93,-0.76 77.71,-4.10 80.47,-6.69 83.90,-8.27 87.66,-8.67 91.36,-7.85 94.59,-5.89 97.03,-3.00 98.42,0.52 98.62,4.30 97.60,7.94 95.46,11.06 92.45,13.34 88.86,14.54 86.97,14.85 81.02,14.84 63.33,14.66 39.95,13.74 15.99,12.30 1.82,11.59 -1.39,11.41 -4.08,10.75 -6.53,9.46 -8.61,7.62 -10.18,5.34 -11.16,2.75 -11.50,-0.00 -11.16,-2.75 -10.18,-5.34 -8.60,-7.62 -6.53,-9.46 -4.08,-10.75 -1.38,-11.41 Z" fill="#FFFFFF" stroke="transparent" stroke-width="0" stroke-linejoin="round" stroke-linecap="round" pointer-events="all" transform="translate(939, 521)"/><path id="path_6869469f-d086-4000-1002-b7a86ac3104a" d="M0.00,-11.58 Q4.28,-11.60 16.02,-11.65 T39.74,-11.75 63.25,-11.41 79.96,-10.95 87.03,-10.55 90.61,-9.29 93.61,-6.96 95.70,-3.80 96.67,-0.13 96.42,3.65 94.98,7.16 92.49,10.03 89.21,11.94 85.50,12.71 81.73,12.26 78.31,10.63 75.58,7.99 73.84,4.61 73.28,0.86 73.93,-2.88 75.75,-6.21 78.54,-8.78 82.00,-10.33 85.77,-10.70 89.47,-9.84 92.70,-7.85 95.12,-4.92 96.48,-1.38 96.64,2.41 95.58,6.05 93.42,9.16 90.37,11.42 86.76,12.59 84.86,12.88 80.04,12.82 63.47,12.28 39.74,11.75 16.02,11.65 2.14,11.59 -1.39,11.41 -4.08,10.75 -6.53,9.46 -8.60,7.62 -10.18,5.34 -11.16,2.75 -11.49,-0.00 -11.16,-2.75 -10.18,-5.34 -8.60,-7.62 -6.53,-9.46 -4.07,-10.75 -1.38,-11.41 Z" fill="#FFFFFF" stroke="transparent" stroke-width="0" stroke-linejoin="round" stroke-linecap="round" pointer-events="all" transform="translate(937, 609)"/><path id="path_366d98a7-c373-4024-0e41-3c039d95a6d0" d="M3.00,11.51 Q0.00,11.53 -1.84,11.23 T-5.33,10.05 -8.26,7.82 -10.32,4.78 -11.31,1.23 -11.11,-2.45 -9.75,-5.87 -7.36,-8.67 -4.21,-10.57 -0.61,-11.36 3.04,-10.96 6.38,-9.41 9.06,-6.88 10.78,-3.63 11.38,0.00 10.78,3.63 9.05,6.89 6.38,9.42 3.04,10.96 -0.62,11.36 -4.21,10.57 -7.37,8.67 -9.75,5.86 -11.11,2.44 -11.31,-1.23 -10.32,-4.78 -8.26,-7.83 -5.33,-10.05 -1.84,-11.23 0.00,-11.53 1.50,-11.52 4.38,-11.34 7.05,-10.68 9.49,-9.40 11.55,-7.58 13.12,-5.31 14.09,-2.73 14.43,0.00 14.09,2.73 13.12,5.31 11.55,7.58 9.49,9.40 7.05,10.68 4.38,11.34 Z" fill="#FFFFFF" stroke="transparent" stroke-width="0" stroke-linejoin="round" stroke-linecap="round" pointer-events="all" transform="translate(977, 568)"/><path id="path_18f33847-923a-4c7f-1d57-d681cdea3792" d="M9.13,-7.13 Q11.30,-4.11 11.85,-2.33 T12.34,1.31 11.65,4.91 9.84,8.11 7.11,10.56 3.74,12.01 0.08,12.31 -3.49,11.42 -6.58,9.45 -8.88,6.58 -10.15,3.14 -10.24,-0.53 -9.17,-4.04 -7.02,-7.03 -4.04,-9.17 -0.53,-10.24 3.14,-10.14 6.59,-8.88 9.45,-6.58 11.43,-3.48 12.31,0.08 12.01,3.74 10.56,7.11 8.11,9.85 4.91,11.65 1.30,12.34 -2.33,11.85 -5.62,10.22 -7.13,9.13 -8.12,8.15 -9.83,5.97 -10.98,3.44 -11.48,0.71 -11.32,-2.06 -10.50,-4.71 -9.06,-7.08 -7.11,-9.04 -4.74,-10.48 -2.09,-11.31 0.68,-11.48 3.41,-10.99 5.94,-9.85 Z" fill="#FFFFFF" stroke="transparent" stroke-width="0" stroke-linejoin="round" stroke-linecap="round" pointer-events="all" transform="translate(976, 468)"/><path id="path_42ba2482-b7cc-4e36-2d3f-02469da3a9e0" d="M9.13,-7.13 Q11.30,-4.11 11.85,-2.33 T12.34,1.31 11.65,4.91 9.84,8.11 7.11,10.56 3.74,12.01 0.08,12.31 -3.49,11.42 -6.58,9.45 -8.88,6.58 -10.15,3.14 -10.24,-0.53 -9.17,-4.04 -7.02,-7.03 -4.04,-9.17 -0.53,-10.24 3.14,-10.14 6.59,-8.88 9.45,-6.58 11.43,-3.48 12.31,0.08 12.01,3.74 10.56,7.11 8.11,9.85 4.91,11.65 1.30,12.34 -2.33,11.85 -5.62,10.22 -7.13,9.13 -8.12,8.15 -9.83,5.97 -10.98,3.44 -11.48,0.71 -11.32,-2.06 -10.50,-4.71 -9.06,-7.08 -7.11,-9.04 -4.74,-10.48 -2.09,-11.31 0.68,-11.48 3.41,-10.99 5.94,-9.85 Z" fill="#FFFFFF" stroke="transparent" stroke-width="0" stroke-linejoin="round" stroke-linecap="round" pointer-events="all" transform="translate(974, 358)"/></svg>