<svg xmlns="http://www.w3.org/2000/svg" viewBox="816 216 382 512" width="100" height="120"><path id="path_ffd72935-2b5f-499e-2eac-4d4368ebf6ef" d="M-2.81,19.75 Q2.89,18.31 16.52,14.80 T42.17,7.87 65.71,1.10 89.34,-5.20 111.85,-9.96 124.18,-11.72 127.91,-11.05 131.24,-9.23 133.80,-6.43 135.34,-2.97 135.70,0.81 134.83,4.50 132.82,7.73 129.89,10.14 126.35,11.49 122.56,11.64 118.92,10.57 115.81,8.39 113.56,5.33 112.40,1.72 112.46,-2.07 113.72,-5.65 116.07,-8.64 119.24,-10.72 122.91,-11.68 126.70,-11.41 130.20,-9.95 133.05,-7.45 134.96,-4.17 135.72,-0.46 135.25,3.31 133.60,6.73 130.95,9.44 127.57,11.17 125.74,11.75 112.70,14.20 88.29,19.44 65.44,25.61 42.57,32.10 19.86,38.03 5.67,41.54 1.43,42.42 -1.35,42.43 -4.05,41.77 -6.51,40.49 -8.59,38.66 -10.17,36.38 -11.17,33.79 -11.51,31.04 -11.18,28.28 -10.21,25.68 -8.64,23.40 -6.57,21.55 -4.12,20.25 Z" fill="#FFFFFF" stroke="transparent" stroke-width="0" stroke-linejoin="round" stroke-linecap="round" pointer-events="all" transform="translate(1030, 325)"/><path id="path_8cfc60d6-a735-4e54-13ed-cb22061b88e2" d="M11.58,0.00 Q11.60,4.44 11.65,17.03 T11.74,41.47 12.75,66.08 14.73,90.33 16.36,113.85 17.29,138.71 17.69,164.49 17.84,189.61 17.91,214.23 18.98,239.05 20.33,262.93 20.74,286.32 20.83,311.58 20.51,326.84 19.32,330.42 17.05,333.43 13.94,335.55 10.31,336.58 6.54,336.39 3.03,335.01 0.15,332.58 -1.81,329.36 -2.63,325.68 -2.24,321.93 -0.67,318.50 1.91,315.75 5.24,313.97 8.95,313.35 12.68,313.94 16.01,315.70 18.62,318.42 20.21,321.84 20.64,325.58 19.84,329.27 17.91,332.51 15.05,334.96 11.55,336.37 7.79,336.59 4.15,335.59 1.02,333.49 -1.27,330.50 -2.49,326.93 -2.81,325.05 -2.95,309.95 -3.23,282.73 -3.91,257.51 -5.20,232.90 -5.96,209.71 -6.01,185.68 -6.17,160.52 -6.62,135.29 -7.57,111.40 -9.15,88.60 -10.95,65.28 -11.74,41.47 -11.65,17.03 -11.59,2.22 -11.42,-1.39 -10.75,-4.08 -9.46,-6.53 -7.63,-8.61 -5.34,-10.18 -2.75,-11.17 0.00,-11.50 2.75,-11.17 5.34,-10.18 7.63,-8.61 9.46,-6.53 10.75,-4.08 11.42,-1.39 Z" fill="#FFFFFF" stroke="transparent" stroke-width="0" stroke-linejoin="round" stroke-linecap="round" pointer-events="all" transform="translate(1030, 360)"/><path id="path_f73e0fa3-9b9d-447f-1598-20d74e2ab1a1" d="M11.56,-0.75 Q11.90,4.17 12.49,16.50 T13.34,40.46 13.68,65.59 13.80,91.17 13.86,115.18 13.90,139.70 13.92,164.99 13.93,190.11 14.32,215.19 14.81,239.89 14.95,264.24 14.97,291.28 14.65,307.91 13.43,311.53 11.12,314.57 7.96,316.71 4.28,317.73 0.46,317.53 -3.08,316.11 -5.99,313.64 -7.96,310.37 -8.78,306.64 -8.37,302.84 -6.77,299.38 -4.14,296.61 -0.77,294.82 3.00,294.20 6.77,294.82 10.14,296.60 12.77,299.38 14.37,302.84 14.78,306.64 13.96,310.37 11.99,313.64 9.08,316.11 5.54,317.53 1.72,317.73 -1.96,316.71 -5.12,314.57 -7.43,311.53 -8.65,307.91 -8.96,306.00 -8.98,289.93 -9.01,261.70 -9.13,237.63 -9.59,214.12 -9.93,190.11 -9.92,164.99 -9.90,139.70 -9.88,115.20 -9.87,91.21 -9.91,65.74 -10.12,40.94 -10.78,17.60 -11.41,3.20 -11.49,-0.65 -11.00,-3.38 -9.87,-5.91 -8.17,-8.10 -5.99,-9.82 -3.47,-10.97 -0.74,-11.48 2.03,-11.32 4.68,-10.51 7.06,-9.08 9.03,-7.13 10.47,-4.76 11.31,-2.12 Z" fill="#FFFFFF" stroke="transparent" stroke-width="0" stroke-linejoin="round" stroke-linecap="round" pointer-events="all" transform="translate(1155, 331)"/><path id="path_04c9900d-57e8-4bf5-3a21-120781b5e31a" d="M-4.51,34.34 Q-0.40,32.58 10.61,27.49 T32.60,17.73 54.32,9.07 75.83,1.00 99.87,-7.21 115.04,-11.64 118.86,-11.65 122.49,-10.45 125.54,-8.15 127.69,-5.00 128.73,-1.32 128.54,2.49 127.14,6.04 124.68,8.96 121.41,10.95 117.69,11.78 113.89,11.38 110.42,9.80 107.63,7.18 105.83,3.81 105.20,0.05 105.80,-3.72 107.58,-7.11 110.34,-9.74 113.80,-11.36 117.59,-11.79 121.33,-10.98 124.61,-9.02 127.09,-6.12 128.52,-2.58 128.74,1.23 127.73,4.91 125.60,8.08 122.57,10.41 120.86,11.32 110.53,14.65 88.26,22.05 65.43,30.03 43.18,38.72 20.23,48.71 6.58,54.80 3.17,56.05 0.43,56.49 -2.33,56.26 -4.95,55.37 -7.29,53.89 -9.21,51.88 -10.59,49.48 -11.35,46.81 -11.46,44.05 -10.89,41.33 -9.70,38.83 -7.94,36.69 -5.72,35.03 Z" fill="#FFFFFF" stroke="transparent" stroke-width="0" stroke-linejoin="round" stroke-linecap="round" pointer-events="all" transform="translate(1039, 643)"/><path id="path_36d5dced-4d31-45f9-2ef5-b2ae081a8fad" d="M164.20,89.94 Q160.54,88.68 149.80,84.36 T127.63,74.03 106.22,62.27 85.24,51.27 63.56,41.08 42.37,30.80 21.44,20.72 3.76,13.70 -5.24,10.58 -8.35,8.35 -10.58,5.25 -11.70,1.60 -11.60,-2.22 -10.28,-5.81 -7.89,-8.79 -4.67,-10.85 -0.96,-11.77 2.84,-11.46 6.36,-9.95 9.20,-7.40 11.08,-4.08 11.80,-0.32 11.29,3.46 9.59,6.89 6.89,9.59 3.47,11.29 -0.32,11.80 -4.07,11.09 -7.40,9.21 -9.95,6.36 -11.46,2.85 -11.77,-0.96 -10.85,-4.66 -8.79,-7.88 -5.81,-10.28 -2.23,-11.60 1.59,-11.70 3.51,-11.44 11.04,-9.12 29.09,-2.08 50.32,8.13 72.07,18.77 93.63,28.81 114.74,39.82 135.83,51.79 157.25,62.20 169.98,67.42 173.06,68.68 175.38,70.19 177.28,72.21 178.63,74.63 179.37,77.30 179.44,80.07 178.86,82.78 177.64,85.27 175.86,87.39 173.62,89.03 171.06,90.08 168.32,90.49 165.56,90.23 Z" fill="#FFFFFF" stroke="transparent" stroke-width="0" stroke-linejoin="round" stroke-linecap="round" pointer-events="all" transform="translate(866, 605)"/><path id="path_a509c5f8-5aec-4adb-22fd-4c80a123d8e9" d="M-3.55,309.82 Q-3.88,305.39 -4.57,293.55 T-5.50,269.75 -6.55,245.61 -8.58,221.48 -10.22,197.79 -10.78,173.32 -11.25,147.87 -11.77,122.87 -11.97,98.68 -12.01,75.32 -12.03,52.27 -11.37,29.09 -10.37,8.67 -9.71,-2.09 -8.43,-5.72 -6.05,-8.75 -2.84,-10.86 0.88,-11.84 4.72,-11.58 8.28,-10.10 11.17,-7.57 13.11,-4.24 13.88,-0.47 13.41,3.35 11.75,6.81 9.06,9.57 5.63,11.32 1.83,11.89 -1.96,11.21 -5.33,9.36 -7.94,6.53 -9.50,3.02 -9.86,-0.82 -8.98,-4.56 -6.95,-7.83 -3.98,-10.28 -0.39,-11.65 3.46,-11.80 7.15,-10.72 10.30,-8.51 12.59,-5.42 13.76,-1.75 14.05,0.17 13.65,10.29 12.65,31.82 12.03,55.07 12.02,78.96 12.04,102.71 12.23,125.86 12.70,148.92 13.10,173.06 13.66,198.15 15.31,222.49 17.17,245.96 17.98,269.25 18.68,292.28 19.40,305.96 19.48,309.57 19.01,312.30 17.90,314.84 16.21,317.04 14.05,318.77 11.54,319.93 8.82,320.46 6.05,320.33 3.40,319.53 1.01,318.12 -0.97,316.18 -2.43,313.83 -3.28,311.19 Z" fill="#FFFFFF" stroke="transparent" stroke-width="0" stroke-linejoin="round" stroke-linecap="round" pointer-events="all" transform="translate(856, 294)"/><path id="path_6d41da9e-4532-4a8b-117f-966ec75486ce" d="M3.66,-10.98 Q6.52,-10.05 18.43,-5.84 T42.33,2.22 65.87,9.11 88.85,15.42 111.20,23.07 132.76,32.77 154.57,42.68 173.31,50.64 182.48,55.09 185.31,57.68 187.16,61.03 187.84,64.80 187.28,68.59 185.55,72.01 182.81,74.69 179.36,76.36 175.56,76.83 171.80,76.07 168.48,74.15 165.96,71.27 164.48,67.74 164.21,63.92 165.17,60.21 167.27,57.00 170.28,54.63 173.89,53.35 177.72,53.28 181.37,54.45 184.46,56.71 186.66,59.85 187.75,63.52 187.61,67.35 186.25,70.94 183.82,73.90 180.57,75.93 176.84,76.81 173.02,76.46 171.14,75.97 164.37,72.92 146.43,65.27 124.38,55.44 102.90,45.67 81.27,37.95 58.81,31.67 35.12,24.56 11.02,16.24 -2.24,11.47 -4.92,10.39 -7.27,8.91 -9.19,6.91 -10.57,4.51 -11.34,1.85 -11.46,-0.92 -10.90,-3.64 -9.72,-6.14 -7.97,-8.29 -5.75,-9.95 -3.20,-11.04 -0.47,-11.48 2.29,-11.26 Z" fill="#FFFFFF" stroke="transparent" stroke-width="0" stroke-linejoin="round" stroke-linecap="round" pointer-events="all" transform="translate(858, 294)"/><path id="path_a4897ff5-9fed-4384-0730-811322e38444" d="M-3.04,23.84 Q0.44,22.87 11.93,18.96 T34.39,10.82 56.66,2.14 81.22,-6.84 96.37,-11.63 100.17,-11.54 103.74,-10.25 106.71,-7.88 108.77,-4.68 109.70,-1.00 109.41,2.79 107.92,6.29 105.39,9.13 102.09,11.01 98.36,11.74 94.59,11.24 91.18,9.56 88.49,6.89 86.79,3.49 86.26,-0.27 86.96,-4.01 88.82,-7.32 91.64,-9.87 95.12,-11.39 98.91,-11.71 102.60,-10.81 105.81,-8.77 108.20,-5.82 109.53,-2.25 109.64,1.54 108.54,5.18 106.33,8.28 103.26,10.50 101.54,11.36 98.21,12.40 84.07,17.28 62.43,25.23 39.99,33.75 17.45,41.70 4.79,45.70 1.66,46.37 -1.10,46.43 -3.81,45.84 -6.29,44.61 -8.41,42.83 -10.04,40.59 -11.08,38.02 -11.48,35.28 -11.22,32.53 -10.30,29.91 -8.78,27.59 -6.76,25.71 -4.34,24.36 Z" fill="#FFFFFF" stroke="transparent" stroke-width="0" stroke-linejoin="round" stroke-linecap="round" pointer-events="all" transform="translate(860, 256)"/><path id="path_1d21415c-99bf-48a7-0189-23ae6e3586b5" d="M2.81,-11.24 Q6.62,-10.30 17.83,-7.35 T40.37,-1.99 62.90,2.90 85.25,8.74 107.27,16.76 129.21,25.69 150.99,34.58 172.95,44.29 192.11,53.03 201.72,57.61 204.74,59.98 206.84,63.19 207.81,66.90 207.55,70.73 206.07,74.27 203.54,77.16 200.22,79.09 196.46,79.85 192.65,79.38 189.19,77.71 186.44,75.03 184.70,71.61 184.14,67.81 184.82,64.04 186.67,60.67 189.50,58.08 193.01,56.52 196.83,56.17 200.56,57.05 203.82,59.08 206.26,62.05 207.63,65.63 207.77,69.47 206.69,73.15 204.48,76.29 201.39,78.57 197.73,79.74 193.89,79.68 191.98,79.33 186.95,77.10 171.52,70.08 150.50,60.52 128.44,51.19 105.54,41.70 82.78,32.87 59.99,26.37 36.02,21.05 12.27,15.27 -0.91,11.72 -4.11,10.74 -6.56,9.44 -8.63,7.60 -10.20,5.31 -11.17,2.71 -11.50,-0.04 -11.15,-2.79 -10.16,-5.38 -8.58,-7.65 -6.50,-9.48 -4.04,-10.76 -1.35,-11.42 1.42,-11.41 Z" fill="#FFFFFF" stroke="transparent" stroke-width="0" stroke-linejoin="round" stroke-linecap="round" pointer-events="all" transform="translate(958, 256)"/><path id="path_63d00d7d-8724-4e9d-13a1-8f1d6e606c62" d="M-4.30,11.26 Q-0.34,9.65 10.28,5.04 T32.06,-3.40 49.98,-9.30 58.62,-11.59 62.39,-11.42 65.92,-10.06 68.82,-7.64 70.80,-4.43 71.65,-0.75 71.28,3.01 69.72,6.45 67.16,9.22 63.84,11.02 60.12,11.67 56.38,11.10 53.03,9.36 50.41,6.64 48.79,3.23 48.34,-0.52 49.12,-4.21 51.03,-7.47 53.88,-9.94 57.38,-11.37 61.15,-11.61 64.80,-10.64 67.94,-8.55 70.26,-5.57 71.50,-2.00 71.54,1.78 70.36,5.37 68.11,8.39 65.00,10.54 63.28,11.36 58.32,12.84 41.69,18.15 19.14,26.57 6.28,31.96 2.95,33.10 0.21,33.48 -2.55,33.20 -5.15,32.26 -7.46,30.73 -9.33,28.69 -10.66,26.27 -11.38,23.59 -11.43,20.82 -10.81,18.12 -9.57,15.65 -7.77,13.54 -5.52,11.93 Z" fill="#FFFFFF" stroke="transparent" stroke-width="0" stroke-linejoin="round" stroke-linecap="round" pointer-events="all" transform="translate(1064, 597)"/><path id="path_afc89fdc-07bf-4a32-24f9-0b674673de17" d="M-3.12,5.85 Q0.84,4.73 11.95,2.06 T34.37,-2.99 59.27,-8.50 74.77,-11.68 78.51,-11.14 81.88,-9.43 84.54,-6.74 86.19,-3.34 86.67,0.40 85.93,4.11 84.05,7.39 81.22,9.89 77.73,11.36 73.96,11.63 70.30,10.69 67.13,8.63 64.79,5.67 63.51,2.11 63.44,-1.67 64.58,-5.27 66.81,-8.32 69.89,-10.50 73.51,-11.58 77.29,-11.45 80.83,-10.12 83.75,-7.73 85.76,-4.53 86.65,-0.86 86.31,2.91 84.79,6.37 82.25,9.16 78.94,10.99 77.14,11.64 65.10,14.44 41.70,19.50 18.72,24.41 5.10,27.60 1.74,28.36 -1.03,28.44 -3.74,27.87 -6.23,26.66 -8.36,24.89 -10.00,22.66 -11.07,20.10 -11.48,17.36 -11.24,14.60 -10.34,11.98 -8.83,9.65 -6.82,7.75 -4.41,6.39 Z" fill="#FFFFFF" stroke="transparent" stroke-width="0" stroke-linejoin="round" stroke-linecap="round" pointer-events="all" transform="translate(1058, 508)"/><path id="path_151d0eb4-53d2-4618-2aa3-dffce014d8c0" d="M-3.37,10.93 Q0.27,9.80 11.91,6.39 T34.98,-1.07 58.74,-8.30 72.97,-11.64 76.74,-11.36 80.22,-9.89 83.05,-7.39 84.94,-4.11 85.68,-0.40 85.20,3.35 83.54,6.75 80.89,9.44 77.51,11.15 73.77,11.68 70.05,11.00 66.74,9.16 64.20,6.36 62.68,2.90 62.35,-0.87 63.23,-4.54 65.25,-7.74 68.18,-10.13 71.72,-11.46 75.50,-11.59 79.12,-10.51 82.20,-8.32 84.43,-5.27 85.57,-1.66 85.49,2.12 84.21,5.68 81.86,8.64 78.69,10.70 76.94,11.47 64.39,14.66 40.76,21.71 18.35,28.77 5.19,32.52 2.00,33.31 -0.77,33.46 -3.49,32.94 -6.01,31.79 -8.18,30.07 -9.87,27.88 -10.99,25.34 -11.47,22.62 -11.28,19.85 -10.44,17.22 -8.99,14.86 -7.02,12.91 -4.64,11.49 Z" fill="#FFFFFF" stroke="transparent" stroke-width="0" stroke-linejoin="round" stroke-linecap="round" pointer-events="all" transform="translate(1059, 421)"/><path id="path_e4a3d374-0bd9-4777-0197-8a9b1c69ed9a" d="M9.13,-7.13 Q11.30,-4.11 11.85,-2.33 T12.34,1.31 11.65,4.91 9.84,8.11 7.11,10.56 3.74,12.01 0.08,12.31 -3.49,11.42 -6.58,9.45 -8.88,6.58 -10.15,3.14 -10.24,-0.53 -9.17,-4.04 -7.02,-7.03 -4.04,-9.17 -0.53,-10.24 3.14,-10.14 6.59,-8.88 9.45,-6.58 11.43,-3.48 12.31,0.08 12.01,3.74 10.56,7.11 8.11,9.85 4.91,11.65 1.30,12.34 -2.33,11.85 -5.62,10.22 -7.13,9.13 -8.12,8.15 -9.83,5.97 -10.98,3.44 -11.48,0.71 -11.32,-2.06 -10.50,-4.71 -9.06,-7.08 -7.11,-9.04 -4.74,-10.48 -2.09,-11.31 0.68,-11.48 3.41,-10.99 5.94,-9.85 Z" fill="#FFFFFF" stroke="transparent" stroke-width="0" stroke-linejoin="round" stroke-linecap="round" pointer-events="all" transform="translate(1092, 382)"/><path id="path_9839df6d-c641-422e-069d-2aceb90fdfa4" d="M9.13,-7.13 Q11.30,-4.11 11.85,-2.33 T12.34,1.31 11.65,4.91 9.84,8.11 7.11,10.56 3.74,12.01 0.08,12.31 -3.49,11.42 -6.58,9.45 -8.88,6.58 -10.15,3.14 -10.24,-0.53 -9.17,-4.04 -7.02,-7.03 -4.04,-9.17 -0.53,-10.24 3.14,-10.14 6.59,-8.88 9.45,-6.58 11.43,-3.48 12.31,0.08 12.01,3.74 10.56,7.11 8.11,9.85 4.91,11.65 1.30,12.34 -2.33,11.85 -5.62,10.22 -7.13,9.13 -8.12,8.15 -9.83,5.97 -10.98,3.44 -11.48,0.71 -11.32,-2.06 -10.50,-4.71 -9.06,-7.08 -7.11,-9.04 -4.74,-10.48 -2.09,-11.31 0.68,-11.48 3.41,-10.99 5.94,-9.85 Z" fill="#FFFFFF" stroke="transparent" stroke-width="0" stroke-linejoin="round" stroke-linecap="round" pointer-events="all" transform="translate(1093, 480)"/><path id="path_4921e1c7-06de-4f5a-3e02-5506775892ea" d="M9.13,-7.13 Q11.30,-4.11 11.85,-2.33 T12.34,1.31 11.65,4.91 9.84,8.11 7.11,10.56 3.74,12.01 0.08,12.31 -3.49,11.42 -6.58,9.45 -8.88,6.58 -10.15,3.14 -10.24,-0.53 -9.17,-4.04 -7.02,-7.03 -4.04,-9.17 -0.53,-10.24 3.14,-10.14 6.59,-8.88 9.45,-6.58 11.43,-3.48 12.31,0.08 12.01,3.74 10.56,7.11 8.11,9.85 4.91,11.65 1.30,12.34 -2.33,11.85 -5.62,10.22 -7.13,9.13 -8.12,8.15 -9.83,5.97 -10.98,3.44 -11.48,0.71 -11.32,-2.06 -10.50,-4.71 -9.06,-7.08 -7.11,-9.04 -4.74,-10.48 -2.09,-11.31 0.68,-11.48 3.41,-10.99 5.94,-9.85 Z" fill="#FFFFFF" stroke="transparent" stroke-width="0" stroke-linejoin="round" stroke-linecap="round" pointer-events="all" transform="translate(1097, 568)"/><path id="path_d450b37d-f847-44c0-381e-69fe6431fec9" d="M8.48,-6.87 Q10.55,-4.66 19.59,2.62 T39.34,14.50 61.25,21.81 84.33,24.34 102.85,23.15 111.42,22.22 115.16,22.97 118.46,24.87 120.99,27.74 122.47,31.25 122.74,35.06 121.79,38.75 119.71,41.95 116.71,44.31 113.12,45.60 109.31,45.67 105.67,44.52 102.59,42.26 100.39,39.15 99.30,35.49 99.44,31.68 100.79,28.11 103.20,25.16 106.44,23.13 110.15,22.24 113.95,22.58 117.44,24.12 120.25,26.69 122.10,30.03 122.79,33.78 122.24,37.56 120.51,40.96 117.79,43.64 114.36,45.30 112.51,45.85 107.81,46.51 91.47,47.94 67.95,47.28 44.77,41.93 23.02,32.72 3.07,19.26 -7.45,9.99 -9.29,7.74 -10.64,5.32 -11.36,2.65 -11.43,-0.12 -10.83,-2.82 -9.60,-5.30 -7.81,-7.41 -5.57,-9.04 -3.01,-10.08 -0.27,-10.48 2.49,-10.21 5.10,-9.29 7.41,-7.77 Z" fill="#FFFFFF" stroke="transparent" stroke-width="0" stroke-linejoin="round" stroke-linecap="round" pointer-events="all" transform="translate(882, 343)"/><path id="path_894a5f53-1eff-4e01-0932-36752ff6bd09" d="M9.97,-5.86 Q11.57,-3.18 19.31,5.60 T37.90,18.78 60.90,23.84 84.75,21.61 100.20,16.96 105.82,14.65 109.61,14.23 113.34,15.04 116.61,17.00 119.09,19.90 120.51,23.44 120.72,27.25 119.71,30.92 117.58,34.09 114.55,36.40 110.94,37.63 107.12,37.64 103.50,36.43 100.46,34.13 98.31,30.98 97.28,27.30 97.48,23.49 98.88,19.95 101.35,17.03 104.61,15.06 108.33,14.23 112.13,14.63 115.59,16.23 118.37,18.84 120.16,22.21 120.79,25.97 120.18,29.74 118.40,33.11 115.64,35.74 114.04,36.83 106.34,40.39 86.36,46.10 62.00,47.73 38.23,44.20 16.31,34.14 -1.15,17.83 -9.18,7.21 -10.52,4.58 -11.31,1.93 -11.45,-0.83 -10.92,-3.55 -9.75,-6.06 -8.02,-8.21 -5.82,-9.89 -3.28,-11.00 -0.55,-11.46 2.21,-11.26 4.84,-10.41 7.19,-8.95 9.12,-6.97 Z" fill="#FFFFFF" stroke="transparent" stroke-width="0" stroke-linejoin="round" stroke-linecap="round" pointer-events="all" transform="translate(880, 386)"/><path id="path_635b3c34-e282-4582-0d52-c500dd60fe4b" d="M10.08,-4.67 Q11.52,-2.14 18.45,7.58 T35.23,23.11 56.53,31.21 79.55,32.87 104.18,28.19 118.98,23.32 122.66,22.28 126.47,22.46 130.02,23.85 132.95,26.31 134.94,29.57 135.78,33.29 135.39,37.09 133.80,40.57 131.19,43.35 127.83,45.16 124.07,45.80 120.30,45.20 116.91,43.43 114.27,40.68 112.65,37.22 112.21,33.43 113.01,29.69 114.96,26.41 117.86,23.92 121.40,22.49 125.21,22.26 128.89,23.26 132.07,25.39 134.39,28.41 135.63,32.03 135.66,35.84 134.46,39.47 132.16,42.52 130.77,43.86 122.07,48.31 101.74,54.57 78.34,56.81 55.16,55.46 32.75,48.79 12.80,36.16 -2.41,18.82 -9.37,7.94 -10.61,5.38 -11.35,2.71 -11.43,-0.05 -10.84,-2.76 -9.63,-5.24 -7.86,-7.37 -5.63,-9.00 -3.07,-10.06 -0.33,-10.47 2.42,-10.22 5.04,-9.31 7.36,-7.81 9.25,-5.79 Z" fill="#FFFFFF" stroke="transparent" stroke-width="0" stroke-linejoin="round" stroke-linecap="round" pointer-events="all" transform="translate(881, 429)"/><path id="path_7e1f7f0d-121b-4ef2-2a0d-fac0593ed4a8" d="M10.01,-5.80 Q11.77,-2.79 19.42,6.34 T37.85,20.39 60.41,25.84 82.83,21.99 99.48,15.58 107.42,13.31 111.24,13.42 114.82,14.74 117.79,17.14 119.84,20.35 120.75,24.06 120.44,27.86 118.93,31.36 116.37,34.20 113.05,36.07 109.30,36.79 105.52,36.27 102.11,34.57 99.41,31.87 97.72,28.45 97.21,24.66 97.94,20.92 99.82,17.60 102.66,15.06 106.17,13.55 109.97,13.25 113.68,14.18 116.89,16.23 119.27,19.21 120.58,22.80 120.68,26.61 119.56,30.26 117.32,33.35 114.22,35.57 112.49,36.43 102.86,40.32 82.20,47.39 58.98,49.87 35.82,45.18 15.32,34.45 -1.25,18.27 -9.15,7.31 -10.56,4.51 -11.33,1.86 -11.45,-0.91 -10.90,-3.62 -9.71,-6.13 -7.96,-8.27 -5.75,-9.94 -3.21,-11.03 -0.48,-11.47 2.28,-11.25 4.91,-10.38 7.25,-8.90 9.17,-6.91 Z" fill="#FFFFFF" stroke="transparent" stroke-width="0" stroke-linejoin="round" stroke-linecap="round" pointer-events="all" transform="translate(882, 479)"/><path id="path_1fd2e203-4f34-440b-2c1b-958bf7f8f3af" d="M8.98,-7.29 Q11.05,-4.77 20.23,2.81 T41.55,13.37 65.65,17.15 89.28,14.66 103.75,9.66 108.31,7.18 112.01,6.25 115.82,6.55 119.32,8.05 122.17,10.59 124.06,13.90 124.79,17.65 124.28,21.43 122.60,24.85 119.90,27.56 116.49,29.26 112.71,29.79 108.96,29.08 105.64,27.21 103.08,24.38 101.56,20.88 101.24,17.07 102.16,13.37 104.20,10.15 107.17,7.75 110.75,6.42 114.56,6.31 118.21,7.42 121.32,9.64 123.55,12.73 124.68,16.38 124.59,20.19 123.28,23.78 120.90,26.76 119.46,28.05 110.46,33.12 90.15,39.96 67.16,41.07 44.04,38.23 21.21,31.40 1.44,18.28 -7.95,8.57 -9.72,6.11 -10.90,3.61 -11.45,0.90 -11.33,-1.87 -10.55,-4.53 -9.16,-6.92 -7.24,-8.91 -4.90,-10.39 -2.27,-11.26 0.49,-11.47 3.22,-11.02 5.77,-9.93 7.97,-8.26 Z" fill="#FFFFFF" stroke="transparent" stroke-width="0" stroke-linejoin="round" stroke-linecap="round" pointer-events="all" transform="translate(891, 535)"/><path id="path_9add76d0-cd85-44bf-2259-fe0364979fa0" d="M8.71,-7.62 Q10.94,-5.09 20.26,1.49 T41.37,9.35 65.39,9.32 91.59,2.97 107.44,-2.48 111.24,-2.69 114.91,-1.69 118.07,0.44 120.38,3.47 121.60,7.07 121.61,10.87 120.40,14.48 118.11,17.52 114.96,19.66 111.30,20.69 107.50,20.49 103.96,19.09 101.05,16.63 99.08,13.38 98.26,9.66 98.66,5.88 100.25,2.42 102.86,-0.35 106.22,-2.14 109.97,-2.76 113.73,-2.15 117.10,-0.38 119.72,2.38 121.32,5.83 121.74,9.61 120.93,13.33 118.98,16.59 116.09,19.06 114.44,20.06 109.07,22.38 92.81,28.04 70.11,32.75 46.88,33.60 23.98,29.64 3.01,18.19 -7.60,8.89 -9.49,6.47 -10.76,4.01 -11.41,1.31 -11.39,-1.45 -10.71,-4.14 -9.41,-6.58 -7.56,-8.64 -5.27,-10.20 -2.68,-11.17 0.07,-11.48 2.82,-11.13 5.40,-10.13 7.67,-8.55 Z" fill="#FFFFFF" stroke="transparent" stroke-width="0" stroke-linejoin="round" stroke-linecap="round" pointer-events="all" transform="translate(899, 583)"/></svg>