<svg xmlns="http://www.w3.org/2000/svg" viewBox="361 -15 1185 923" width="80" height="80"><path id="path_6bda4d27-3467-4022-32a2-0f0dc618e0f6" d="M88.70,16.42 Q84.89,15.94 74.35,14.38 T53.21,11.79 32.52,13.35 18.01,25.52 12.32,45.62 10.78,66.84 10.52,88.54 10.50,109.98 10.50,131.34 10.50,153.23 10.50,174.69 19.33,190.88 38.66,198.08 59.56,199.93 80.88,200.38 102.62,200.49 124.37,201.27 146.02,202.71 167.47,203.23 188.96,202.07 208.46,194.89 219.13,178.35 221.27,157.57 221.04,136.75 220.44,115.47 219.93,93.63 219.56,71.69 219.51,50.06 217.84,28.59 204.87,15.11 182.36,12.08 160.15,11.63 138.37,11.53 116.14,11.51 93.90,11.50 72.58,11.50 51.30,11.50 34.80,11.50 27.32,11.23 24.15,10.15 21.48,8.13 19.60,5.35 18.70,2.12 18.88,-1.23 20.12,-4.34 22.29,-6.90 25.17,-8.63 28.44,-9.35 31.77,-8.98 34.82,-7.58 37.25,-5.27 38.82,-2.31 39.36,1.00 38.82,4.31 37.25,7.27 34.81,9.58 31.77,10.98 28.44,11.35 25.16,10.62 22.29,8.90 20.12,6.34 18.88,3.22 18.70,-0.12 19.60,-3.35 21.48,-6.13 24.15,-8.16 27.33,-9.23 29.00,-9.50 35.32,-9.50 52.49,-9.50 74.10,-9.50 96.15,-9.50 118.54,-9.49 140.66,-9.47 162.86,-9.35 185.42,-8.78 207.16,-7.32 225.92,0.51 237.24,17.39 240.34,37.96 240.52,59.58 240.63,81.31 241.13,103.16 241.72,125.56 242.13,147.66 241.61,168.98 237.68,189.99 227.18,208.27 209.39,219.21 188.26,223.33 167.01,224.27 145.45,223.75 123.95,222.31 102.59,221.49 80.68,221.38 58.35,220.88 36.35,218.96 15.32,213.93 -1.96,202.36 -9.71,183.82 -10.50,162.32 -10.50,140.63 -10.50,119.32 -10.49,97.91 -10.41,76.49 -9.56,54.97 -6.82,33.27 0.34,12.99 14.59,-3.06 34.34,-9.90 55.72,-9.10 76.95,-6.46 89.40,-4.66 92.53,-4.11 94.88,-3.21 96.94,-1.78 98.60,0.11 99.76,2.34 100.35,4.78 100.34,7.29 99.73,9.73 98.56,11.95 96.88,13.83 94.81,15.25 92.46,16.13 89.96,16.42 Z" fill="#FFFFFF" stroke="transparent" stroke-width="0" stroke-linejoin="round" stroke-linecap="round" pointer-events="all" transform="translate(892, 365)"/><path id="path_089606fe-af6b-4b72-39b4-45e41a802a0f" d="M527.50,0.00 Q527.50,4.60 527.50,15.96 T527.50,37.83 527.50,59.04 527.15,80.26 526.68,101.95 526.54,123.88 526.18,145.45 525.36,166.80 524.71,187.77 524.53,209.50 524.51,231.49 524.50,253.02 521.27,274.11 507.72,286.06 486.81,287.15 465.77,286.52 444.81,286.50 423.50,286.50 401.79,286.50 381.85,291.99 365.51,305.31 353.48,322.99 348.64,343.34 347.89,364.53 337.47,380.13 317.13,384.85 294.76,384.57 271.59,384.52 249.57,384.51 228.12,384.50 205.49,384.75 182.76,385.14 161.26,385.34 139.71,385.42 117.01,385.46 93.35,385.98 69.67,386.78 46.25,387.28 17.43,388.00 -1.42,388.26 -4.62,387.28 -7.34,385.31 -9.29,382.59 -10.27,379.38 -10.17,376.03 -9.01,372.88 -6.91,370.28 -4.08,368.47 -0.82,367.67 2.52,367.95 5.60,369.28 8.09,371.52 9.73,374.44 10.36,377.74 9.90,381.06 8.40,384.06 6.03,386.43 3.02,387.91 -0.30,388.36 -3.59,387.72 -6.51,386.06 -8.74,383.56 -10.06,380.48 -10.33,377.14 -9.51,373.89 -7.70,371.07 -5.08,368.97 -1.93,367.82 -0.27,367.50 16.67,367.01 45.56,366.30 69.10,365.79 92.98,364.99 116.98,364.46 139.65,364.42 161.12,364.34 182.48,364.15 205.32,363.75 228.12,363.50 249.58,363.51 271.61,363.52 294.94,363.58 317.21,359.84 327.60,345.59 329.15,324.53 337.30,305.72 351.49,289.63 367.64,275.29 387.42,267.16 408.97,265.50 429.86,265.50 450.81,265.50 471.95,265.57 493.04,267.65 503.50,259.27 503.50,237.65 503.52,215.83 503.63,194.15 504.24,171.68 505.13,148.76 505.53,126.22 505.65,104.10 506.13,81.36 506.50,59.04 506.50,37.83 506.50,15.96 506.50,2.30 506.65,-1.26 507.25,-3.70 508.42,-5.92 510.09,-7.80 512.16,-9.23 514.51,-10.12 517.00,-10.42 519.50,-10.12 521.84,-9.23 523.91,-7.80 525.58,-5.92 526.75,-3.70 527.35,-1.26 Z" fill="#FFFFFF" stroke="transparent" stroke-width="0" stroke-linejoin="round" stroke-linecap="round" pointer-events="all" transform="translate(453, 45)"/><path id="path_5f521801-f8f5-4fbf-2ff9-ee44336de39e" d="M0.00,-10.50 Q2.85,-10.50 13.56,-10.50 T37.14,-10.50 51.68,-10.23 54.85,-9.15 57.52,-7.13 59.40,-4.35 60.30,-1.12 60.12,2.23 58.88,5.34 56.71,7.90 53.83,9.63 50.56,10.35 47.23,9.98 44.18,8.58 41.75,6.27 40.18,3.31 39.64,-0.00 40.18,-3.31 41.75,-6.27 44.19,-8.58 47.23,-9.98 50.56,-10.35 53.84,-9.62 56.71,-7.90 58.88,-5.34 60.12,-2.22 60.30,1.12 59.40,4.35 57.52,7.13 54.85,9.16 51.67,10.23 50.00,10.50 37.14,10.50 13.56,10.50 1.43,10.50 -1.26,10.35 -3.70,9.75 -5.92,8.58 -7.80,6.91 -9.23,4.84 -10.12,2.49 -10.42,-0.00 -10.12,-2.50 -9.23,-4.84 -7.80,-6.91 -5.92,-8.58 -3.70,-9.75 -1.26,-10.35 Z" fill="#FFFFFF" stroke="transparent" stroke-width="0" stroke-linejoin="round" stroke-linecap="round" pointer-events="all" transform="translate(794, 377)"/><path id="path_49703908-8ac3-44a6-2e82-d84007848347" d="M1.30,-10.42 Q3.84,-10.10 14.19,-8.96 T35.11,-7.66 51.85,-7.50 59.68,-7.22 62.86,-6.15 65.53,-4.12 67.41,-1.35 68.30,1.89 68.12,5.23 66.88,8.35 64.70,10.90 61.83,12.63 58.55,13.35 55.22,12.98 52.18,11.57 49.75,9.27 48.18,6.30 47.64,2.99 48.18,-0.31 49.76,-3.28 52.19,-5.58 55.23,-6.99 58.57,-7.35 61.84,-6.62 64.71,-4.89 66.88,-2.34 68.12,0.78 68.30,4.13 67.40,7.36 65.52,10.13 62.85,12.16 59.67,13.23 57.99,13.50 50.82,13.49 32.90,13.29 11.70,11.91 -0.03,10.58 -2.53,10.11 -4.88,9.21 -6.94,7.78 -8.60,5.89 -9.76,3.66 -10.35,1.22 -10.34,-1.29 -9.73,-3.73 -8.56,-5.95 -6.88,-7.83 -4.81,-9.25 -2.46,-10.13 0.04,-10.42 Z" fill="#FFFFFF" stroke="transparent" stroke-width="0" stroke-linejoin="round" stroke-linecap="round" pointer-events="all" transform="translate(787, 417)"/><path id="path_466c8ca7-9d8b-42a3-2651-757d47082cc7" d="M10.48,1.42 Q10.64,4.27 11.01,15.07 T7.93,15.72 1.73,8.02 -2.66,10.01 -5.72,8.64 -8.18,6.36 -9.78,3.42 -10.36,0.12 -9.86,-3.20 -8.32,-6.18 -5.91,-8.51 -2.88,-9.95 0.44,-10.35 3.73,-9.67 6.62,-7.97 8.82,-5.44 10.09,-2.34 10.31,1.00 9.45,4.25 7.60,7.04 4.96,9.10 1.79,10.21 -1.56,10.24 -4.75,9.21 -7.44,7.21 -9.36,4.45 -10.29,1.23 -10.14,-2.12 -8.94,-5.24 -6.79,-7.82 -3.94,-9.58 -0.68,-10.34 1.02,-10.45 9.35,-8.77 21.56,2.56 24.62,23.07 14.17,37.90 -2.54,34.05 -9.97,15.83 -10.40,4.01 -10.40,1.32 -9.94,-1.15 -8.89,-3.44 -7.33,-5.41 -5.35,-6.95 -3.05,-7.97 -0.58,-8.41 1.93,-8.24 4.33,-7.48 6.47,-6.17 8.24,-4.39 9.53,-2.23 10.26,0.17 Z" fill="#FFFFFF" stroke="transparent" stroke-width="0" stroke-linejoin="round" stroke-linecap="round" pointer-events="all" transform="translate(848, 404)"/><path id="path_2c6b0908-c4dc-423a-33e7-34f205e6049a" d="M-9.65,9.86 Q-8.70,7.64 -0.92,-0.01 T16.24,-2.97 25.36,13.27 14.61,29.13 2.44,33.35 -0.84,32.62 -3.71,30.89 -5.88,28.34 -7.12,25.22 -7.30,21.88 -6.40,18.65 -4.52,15.87 -1.85,13.84 1.33,12.77 4.68,12.78 7.86,13.85 10.53,15.88 12.41,18.65 13.30,21.88 13.12,25.23 11.88,28.35 9.70,30.90 6.83,32.63 3.56,33.35 0.22,32.98 -2.82,31.57 -5.25,29.27 -6.82,26.30 -7.36,22.99 -6.82,19.69 -5.25,16.72 -2.81,14.42 0.23,13.01 1.87,12.56 6.23,14.24 10.13,17.03 9.02,19.23 7.50,21.24 5.55,22.82 3.28,23.89 0.82,24.39 -1.69,24.28 -4.11,23.58 -6.28,22.32 -8.09,20.57 -9.43,18.45 -10.22,16.06 -10.41,13.56 -10.01,11.08 Z" fill="#FFFFFF" stroke="transparent" stroke-width="0" stroke-linejoin="round" stroke-linecap="round" pointer-events="all" transform="translate(846, 359)"/><path id="path_98b47a7a-37dd-43e9-25fe-7fae38ee4bc0" d="M11.50,2.00 Q11.50,5.49 9.14,7.96 T5.14,9.96 2.11,8.53 -0.30,6.20 -1.85,3.22 -2.36,-0.09 -1.79,-3.39 -0.19,-6.34 2.26,-8.63 5.31,-10.01 8.65,-10.34 11.92,-9.59 14.78,-7.84 16.92,-5.26 18.14,-2.14 18.29,1.21 17.37,4.43 15.46,7.19 12.77,9.20 9.59,10.24 6.23,10.21 3.07,9.11 0.42,7.06 -1.44,4.27 -2.31,1.03 -2.10,-2.32 -0.83,-5.42 1.36,-7.96 4.25,-9.66 7.53,-10.35 9.23,-10.43 17.32,-8.66 31.57,2.44 33.74,22.66 19.51,35.86 0.49,32.34 -8.88,16.00 -9.50,3.74 -9.35,0.74 -8.75,-1.70 -7.58,-3.92 -5.91,-5.80 -3.84,-7.23 -1.49,-8.12 1.00,-8.42 3.50,-8.12 5.84,-7.23 7.91,-5.80 9.58,-3.92 10.75,-1.70 11.35,0.74 Z" fill="#FFFFFF" stroke="transparent" stroke-width="0" stroke-linejoin="round" stroke-linecap="round" pointer-events="all" transform="translate(1015, 306)"/><path id="path_683cbfc7-afb2-4611-0142-3b5c7c8c74c1" d="M10.50,5.00 Q10.50,8.01 8.52,9.75 T4.87,11.14 1.74,9.93 -0.83,7.78 -2.59,4.93 -3.34,1.66 -3.01,-1.68 -1.63,-4.73 0.65,-7.19 3.60,-8.79 6.90,-9.36 10.22,-8.85 13.19,-7.31 15.52,-4.89 16.96,-1.86 17.35,1.47 16.66,4.75 14.96,7.63 12.42,9.83 9.32,11.10 5.97,11.31 2.74,10.44 -0.06,8.59 -2.11,5.94 -3.21,2.77 -3.24,-0.58 -2.20,-3.77 -0.19,-6.46 2.56,-8.36 5.79,-9.29 7.47,-9.49 11.58,-9.03 22.10,0.19 27.81,19.35 18.60,36.08 0.88,36.74 -9.40,19.54 -10.50,6.51 -10.35,3.74 -9.75,1.30 -8.58,-0.92 -6.91,-2.80 -4.84,-4.23 -2.49,-5.12 0.00,-5.42 2.50,-5.12 4.84,-4.23 6.91,-2.80 8.58,-0.92 9.75,1.30 10.35,3.74 Z" fill="#FFFFFF" stroke="transparent" stroke-width="0" stroke-linejoin="round" stroke-linecap="round" pointer-events="all" transform="translate(1066, 303)"/><path id="path_acb00b9a-186d-4525-3b1e-cd1ff8e74528" d="M-10.50,258.00 Q-10.50,253.72 -10.50,243.21 T-10.10,221.72 -8.88,200.24 -7.75,179.02 -7.05,156.38 -6.87,132.93 -7.60,110.35 -8.29,88.02 -8.46,65.39 -8.49,42.98 -7.80,21.07 -6.80,4.80 -6.11,-2.27 -4.86,-5.38 -2.68,-7.92 0.20,-9.64 3.48,-10.35 6.81,-9.97 9.85,-8.55 12.27,-6.24 13.83,-3.27 14.36,0.04 13.81,3.35 12.22,6.30 9.78,8.60 6.73,10.00 3.40,10.34 0.13,9.61 -2.74,7.87 -4.90,5.31 -6.13,2.19 -6.30,-1.16 -5.39,-4.39 -3.49,-7.16 -0.82,-9.17 2.37,-10.23 5.72,-10.22 8.89,-9.13 11.55,-7.09 13.42,-4.31 14.31,-1.08 14.48,0.61 14.16,6.08 13.17,22.86 12.51,45.23 12.54,67.55 12.74,89.98 13.53,112.04 14.24,133.81 14.00,156.14 13.33,178.00 12.20,199.55 10.95,221.69 10.50,243.21 10.50,255.86 10.35,259.26 9.75,261.70 8.58,263.92 6.91,265.80 4.84,267.23 2.49,268.12 -0.00,268.42 -2.50,268.12 -4.84,267.23 -6.91,265.80 -8.58,263.92 -9.75,261.70 -10.35,259.26 Z" fill="#FFFFFF" stroke="transparent" stroke-width="0" stroke-linejoin="round" stroke-linecap="round" pointer-events="all" transform="translate(1027, 47)"/><path id="path_9f108a3c-1072-4849-05db-3119633ceca4" d="M-10.50,262.00 Q-10.50,257.72 -10.50,246.21 T-10.50,223.47 -10.50,201.16 -10.24,179.18 -9.77,157.13 -9.54,135.08 -9.51,112.88 -9.50,91.15 -9.50,69.64 -9.50,47.50 -9.24,25.37 -8.21,6.65 -7.02,-2.64 -5.65,-5.70 -3.38,-8.17 -0.43,-9.78 2.87,-10.36 6.18,-9.86 9.16,-8.33 11.50,-5.92 12.95,-2.90 13.35,0.43 12.67,3.71 10.98,6.61 8.45,8.81 5.36,10.09 2.01,10.31 -1.23,9.46 -4.03,7.61 -6.09,4.97 -7.20,1.81 -7.25,-1.55 -6.22,-4.74 -4.22,-7.43 -1.47,-9.35 1.75,-10.29 5.10,-10.15 8.23,-8.95 10.81,-6.81 12.58,-3.96 13.34,-0.69 13.45,1.00 12.79,7.81 11.81,25.53 11.50,47.50 11.50,69.64 11.50,91.15 11.49,112.90 11.46,135.14 11.25,156.96 10.78,178.96 10.50,201.16 10.50,223.47 10.50,246.21 10.50,259.86 10.35,263.26 9.75,265.70 8.58,267.92 6.91,269.80 4.84,271.23 2.49,272.12 -0.00,272.42 -2.50,272.12 -4.84,271.23 -6.91,269.80 -8.58,267.92 -9.75,265.70 -10.35,263.26 Z" fill="#FFFFFF" stroke="transparent" stroke-width="0" stroke-linejoin="round" stroke-linecap="round" pointer-events="all" transform="translate(1077, 51)"/><path id="path_1c811100-c69c-430c-0732-f02ac018282c" d="M499.50,0.00 Q499.50,3.80 499.50,15.00 T499.50,36.98 499.25,58.35 498.32,80.16 496.90,101.98 495.18,123.20 493.92,145.26 493.58,167.41 493.51,188.98 493.50,210.86 488.22,231.61 472.51,243.80 451.50,246.36 430.25,246.67 409.12,247.51 388.16,248.33 367.54,252.47 348.93,264.03 334.38,280.70 323.28,298.96 312.17,316.66 297.51,331.21 277.96,338.69 256.21,340.30 234.31,340.47 211.62,340.49 189.15,340.50 166.90,340.75 143.80,341.67 120.96,342.78 98.49,343.52 76.51,344.68 53.91,346.45 31.40,347.83 10.49,348.38 -1.58,348.24 -4.77,347.20 -7.46,345.20 -9.36,342.44 -10.29,339.22 -10.14,335.87 -8.93,332.74 -6.78,330.17 -3.92,328.41 -0.66,327.66 2.68,327.99 5.74,329.37 8.19,331.65 9.79,334.60 10.36,337.91 9.85,341.22 8.31,344.19 5.89,346.52 2.86,347.96 -0.47,348.35 -3.75,347.66 -6.64,345.96 -8.83,343.42 -10.10,340.32 -10.31,336.97 -9.44,333.73 -7.59,330.94 -4.94,328.89 -1.77,327.79 -0.10,327.50 16.01,327.18 42.80,326.20 64.75,324.39 86.68,322.81 108.28,322.16 129.84,321.37 152.31,320.15 175.39,319.50 197.36,319.50 218.48,319.49 240.25,319.45 262.76,319.06 283.16,312.92 298.64,298.43 310.09,280.25 321.96,262.12 337.16,246.16 355.61,233.67 375.98,227.96 397.11,226.98 418.94,226.01 440.70,225.48 461.89,223.65 472.50,210.86 472.51,188.96 472.58,167.26 472.88,145.97 473.97,124.88 475.60,103.91 477.16,81.98 478.21,59.11 478.50,36.98 478.50,15.00 478.50,1.90 478.65,-1.26 479.25,-3.70 480.42,-5.92 482.09,-7.80 484.16,-9.23 486.51,-10.12 489.00,-10.42 491.50,-10.12 493.84,-9.23 495.91,-7.80 497.58,-5.92 498.75,-3.70 499.35,-1.26 Z" fill="#FFFFFF" stroke="transparent" stroke-width="0" stroke-linejoin="round" stroke-linecap="round" pointer-events="all" transform="translate(443, 44)"/><path id="path_8c2531ae-9d63-4c61-2f1b-accc61f56bec" d="M-7.14,146.31 Q-4.93,144.25 2.58,136.79 T13.91,118.62 18.02,96.63 18.39,74.54 18.49,53.23 18.50,31.94 18.50,10.57 18.77,-1.68 19.85,-4.85 21.87,-7.52 24.65,-9.40 27.88,-10.30 31.23,-10.12 34.34,-8.88 36.90,-6.71 38.63,-3.83 39.35,-0.56 38.98,2.77 37.58,5.82 35.27,8.25 32.31,9.82 29.00,10.36 25.69,9.82 22.73,8.25 20.42,5.81 19.02,2.77 18.65,-0.56 19.38,-3.84 21.10,-6.71 23.66,-8.88 26.78,-10.12 30.12,-10.30 33.35,-9.40 36.13,-7.52 38.16,-4.85 39.23,-1.67 39.50,0.00 39.50,8.12 39.50,26.67 39.49,47.81 39.42,69.80 39.15,92.26 37.92,114.39 31.07,134.61 17.30,151.75 8.25,160.66 6.12,162.44 3.92,163.66 1.50,164.32 -1.01,164.37 -3.47,163.83 -5.72,162.71 -7.64,161.09 -9.11,159.06 -10.06,156.73 -10.42,154.24 -10.18,151.74 -9.34,149.37 -7.96,147.27 Z" fill="#FFFFFF" stroke="transparent" stroke-width="0" stroke-linejoin="round" stroke-linecap="round" pointer-events="all" transform="translate(828, 51)"/><path id="path_578e87c8-43c9-4d03-1209-773aba083c98" d="M125.50,0.00 Q125.50,3.17 125.40,14.84 T124.93,37.13 124.54,58.25 124.50,79.96 124.10,102.14 123.12,124.51 122.09,146.70 121.13,168.29 118.63,189.35 106.72,204.34 86.34,208.84 65.13,207.67 43.58,206.63 22.18,206.51 2.96,200.63 -7.82,184.19 -10.12,162.10 -8.80,137.39 -6.79,122.61 -5.20,119.66 -2.74,117.38 0.31,115.99 3.65,115.66 6.91,116.41 9.77,118.16 11.92,120.73 13.14,123.86 13.29,127.21 12.37,130.43 10.46,133.19 7.78,135.19 4.59,136.24 1.24,136.21 -1.93,135.11 -4.58,133.06 -6.44,130.27 -7.31,127.03 -7.10,123.69 -5.83,120.58 -3.64,118.05 -0.75,116.34 2.53,115.65 5.86,116.04 8.89,117.47 11.30,119.80 12.85,122.78 13.36,126.09 13.35,127.79 12.25,136.12 10.93,154.98 15.30,175.50 30.48,185.53 51.61,185.78 72.62,187.23 91.39,181.74 100.20,164.38 101.30,143.03 102.32,121.59 103.13,99.99 103.51,78.15 103.55,56.56 103.99,35.21 104.45,13.81 104.50,1.58 104.65,-1.26 105.25,-3.70 106.42,-5.92 108.09,-7.80 110.16,-9.23 112.51,-10.12 115.00,-10.42 117.50,-10.12 119.84,-9.23 121.91,-7.80 123.58,-5.92 124.75,-3.70 125.35,-1.26 Z" fill="#FFFFFF" stroke="transparent" stroke-width="0" stroke-linejoin="round" stroke-linecap="round" pointer-events="all" transform="translate(778, 43)"/><path id="path_512172c7-4a8e-41d9-0ae7-554981ae3d55" d="M7.42,-7.42 Q9.33,-5.52 17.19,4.58 T25.66,16.26 26.35,19.55 25.95,22.87 24.52,25.90 22.18,28.31 19.21,29.85 15.89,30.36 12.59,29.78 9.64,28.18 7.36,25.73 5.99,22.67 5.66,19.33 6.41,16.06 8.17,13.21 10.75,11.07 13.88,9.86 17.23,9.71 20.45,10.64 23.20,12.55 25.21,15.24 26.24,18.43 26.21,21.78 25.10,24.95 23.05,27.60 20.25,29.45 17.01,30.31 13.67,30.10 10.56,28.82 8.03,26.62 6.95,25.32 0.71,17.32 -6.47,8.38 -8.21,6.43 -9.51,4.28 -10.25,1.88 -10.40,-0.63 -9.95,-3.10 -8.92,-5.39 -7.37,-7.37 -5.39,-8.92 -3.10,-9.95 -0.63,-10.40 1.88,-10.25 4.28,-9.50 6.43,-8.20 Z" fill="#FFFFFF" stroke="transparent" stroke-width="0" stroke-linejoin="round" stroke-linecap="round" pointer-events="all" transform="translate(815, 193)"/><path id="path_30ba52af-9ebd-4246-1cf4-8ad0267b4736" d="M0.00,-10.50 Q2.54,-10.50 13.25,-10.50 T27.98,-10.50 33.68,-10.23 36.85,-9.15 39.52,-7.13 41.40,-4.35 42.30,-1.12 42.12,2.23 40.88,5.34 38.71,7.90 35.83,9.63 32.56,10.35 29.23,9.98 26.18,8.58 23.75,6.27 22.18,3.31 21.64,-0.00 22.18,-3.31 23.75,-6.27 26.19,-8.58 29.23,-9.98 32.56,-10.35 35.84,-9.62 38.71,-7.90 40.88,-5.34 42.12,-2.22 42.30,1.12 41.40,4.35 39.52,7.13 36.85,9.16 33.67,10.23 32.00,10.50 27.98,10.50 13.25,10.50 1.27,10.50 -1.26,10.35 -3.70,9.75 -5.92,8.58 -7.80,6.91 -9.23,4.84 -10.12,2.49 -10.42,-0.00 -10.12,-2.50 -9.23,-4.84 -7.80,-6.91 -5.92,-8.58 -3.70,-9.75 -1.26,-10.35 Z" fill="#FFFFFF" stroke="transparent" stroke-width="0" stroke-linejoin="round" stroke-linecap="round" pointer-events="all" transform="translate(767, 162)"/><path id="path_14aee65b-c8f2-4419-3057-a81a26186c50" d="M0.33,280.51 Q5.40,280.66 17.70,280.90 T41.51,281.25 64.92,281.40 88.16,281.47 110.15,281.49 132.48,281.50 155.29,281.50 178.14,281.50 200.24,281.50 221.23,281.26 241.54,277.27 252.22,262.49 253.31,240.35 253.09,218.70 251.77,197.35 250.29,175.29 249.65,153.00 249.52,130.79 250.09,108.58 251.38,86.90 252.25,65.19 252.46,43.23 252.50,21.19 252.50,5.02 252.77,-1.68 253.85,-4.85 255.88,-7.52 258.65,-9.40 261.88,-10.30 265.23,-10.12 268.34,-8.88 270.90,-6.71 272.63,-3.83 273.35,-0.56 272.98,2.77 271.58,5.82 269.27,8.25 266.31,9.82 263.00,10.36 259.69,9.82 256.73,8.25 254.42,5.81 253.02,2.77 252.65,-0.56 253.38,-3.84 255.10,-6.71 257.66,-8.88 260.78,-10.12 264.12,-10.30 267.35,-9.40 270.13,-7.52 272.16,-4.85 273.23,-1.67 273.50,0.00 273.50,9.89 273.49,30.98 273.40,53.08 273.04,74.61 271.88,96.77 270.75,119.63 270.56,142.05 270.87,164.04 271.94,185.97 273.52,207.94 274.33,230.74 273.94,253.46 271.70,274.62 261.57,291.90 242.39,300.52 221.07,302.34 200.24,302.50 178.14,302.50 155.29,302.50 132.47,302.50 110.14,302.49 88.12,302.47 64.83,302.40 41.30,302.25 17.22,301.90 2.21,301.57 -1.58,301.30 -4.00,300.63 -6.19,299.39 -8.01,297.66 -9.38,295.55 -10.19,293.18 -10.42,290.67 -10.04,288.19 -9.07,285.87 -7.58,283.85 -5.65,282.24 -3.39,281.14 -0.93,280.62 Z" fill="#FFFFFF" stroke="transparent" stroke-width="0" stroke-linejoin="round" stroke-linecap="round" pointer-events="all" transform="translate(447, 38)"/><path id="path_fa5a0c57-964d-44bd-011a-b9b5d8557ca9" d="M11.49,0.36 Q11.34,4.96 11.12,16.31 T11.66,38.27 14.03,60.79 17.45,84.03 20.18,106.65 21.62,129.38 22.55,152.10 23.18,174.11 23.81,195.39 29.39,216.25 43.05,235.17 59.34,251.25 76.37,266.34 92.98,283.02 103.10,303.01 107.04,324.37 108.81,345.41 109.43,360.94 109.25,367.53 108.22,370.72 106.23,373.42 103.48,375.34 100.26,376.28 96.91,376.15 93.78,374.95 91.20,372.82 89.43,369.97 88.66,366.71 88.98,363.37 90.34,360.31 92.61,357.84 95.55,356.23 98.86,355.64 102.17,356.14 105.16,357.66 107.49,360.07 108.94,363.09 109.35,366.42 108.68,369.70 106.99,372.60 104.46,374.80 101.37,376.09 98.02,376.32 94.78,375.46 91.98,373.62 89.91,370.98 88.80,367.82 88.50,366.15 88.36,357.57 87.13,338.21 84.57,316.37 76.47,296.79 61.16,281.02 44.84,266.43 29.46,251.35 14.35,234.40 5.05,214.24 2.74,192.10 2.07,170.09 1.39,147.80 0.49,125.58 -1.20,104.19 -3.99,83.16 -7.21,60.43 -9.51,36.58 -9.93,14.64 -9.57,1.94 -9.30,-1.61 -8.61,-4.03 -7.37,-6.21 -5.64,-8.04 -3.52,-9.39 -1.14,-10.20 1.36,-10.42 3.84,-10.03 6.16,-9.06 8.18,-7.56 9.78,-5.62 10.87,-3.36 11.38,-0.90 Z" fill="#FFFFFF" stroke="transparent" stroke-width="0" stroke-linejoin="round" stroke-linecap="round" pointer-events="all" transform="translate(1124, 49)"/><path id="path_dd7282cf-6cdd-4385-0d4a-ecdc80857066" d="M24.83,5.68 Q23.41,7.90 16.25,17.58 T8.01,28.57 5.49,30.79 2.40,32.08 -0.94,32.32 -4.19,31.48 -7.00,29.64 -9.07,27.01 -10.20,23.85 -10.25,20.50 -9.24,17.30 -7.25,14.60 -4.51,12.67 -1.29,11.72 2.06,11.84 5.19,13.03 7.78,15.16 9.56,18.00 10.34,21.26 10.03,24.60 8.67,27.67 6.41,30.14 3.47,31.76 0.17,32.36 -3.14,31.87 -6.13,30.35 -8.48,27.96 -9.94,24.94 -10.35,21.61 -9.69,18.33 -9.09,16.74 -1.67,6.64 6.45,-4.57 7.98,-6.65 9.80,-8.38 11.99,-9.62 14.41,-10.30 16.92,-10.38 19.37,-9.86 21.64,-8.77 23.57,-7.16 25.07,-5.14 26.03,-2.82 26.42,-0.34 26.20,2.16 25.38,4.54 Z" fill="#FFFFFF" stroke="transparent" stroke-width="0" stroke-linejoin="round" stroke-linecap="round" pointer-events="all" transform="translate(1112, 316)"/><path id="path_b99d9823-45b9-4cbd-2616-2508fa1eb677" d="M6.10,-8.54 Q8.32,-6.96 17.10,0.43 T33.51,16.18 45.88,34.49 51.02,55.00 51.47,76.54 51.92,98.06 52.42,119.31 52.49,134.49 52.23,140.66 51.16,143.84 49.14,146.51 46.36,148.40 43.13,149.30 39.79,149.12 36.67,147.89 34.11,145.72 32.38,142.85 31.65,139.58 32.01,136.24 33.42,133.20 35.72,130.76 38.68,129.19 41.99,128.64 45.30,129.18 48.26,130.74 50.57,133.17 51.98,136.22 52.35,139.55 51.63,142.82 49.91,145.70 47.35,147.87 44.24,149.12 40.89,149.30 37.66,148.41 34.88,146.53 32.85,143.86 31.78,140.69 31.50,139.01 31.49,133.18 31.39,116.61 30.89,94.66 30.45,72.79 28.83,51.42 19.92,32.50 4.35,17.20 -4.99,9.34 -7.04,7.69 -8.67,5.78 -9.80,3.54 -10.37,1.09 -10.33,-1.42 -9.69,-3.85 -8.48,-6.06 -6.79,-7.91 -4.69,-9.31 -2.33,-10.16 0.17,-10.42 2.66,-10.08 4.99,-9.15 Z" fill="#FFFFFF" stroke="transparent" stroke-width="0" stroke-linejoin="round" stroke-linecap="round" pointer-events="all" transform="translate(1123, 331)"/><path id="path_a445402d-fdb1-4578-272a-2ccf036bd450" d="M0.00,-10.50 Q5.39,-10.50 17.76,-10.50 T40.83,-10.50 61.96,-10.42 83.15,-9.97 104.64,-9.02 127.59,-8.10 151.64,-7.68 175.44,-7.56 198.67,-7.52 222.37,-7.51 247.39,-7.50 270.82,-7.50 293.05,-7.50 321.71,-7.50 340.68,-7.23 343.85,-6.15 346.52,-4.13 348.40,-1.35 349.30,1.88 349.12,5.23 347.88,8.34 345.71,10.90 342.83,12.63 339.56,13.35 336.23,12.98 333.18,11.58 330.75,9.27 329.18,6.31 328.64,3.00 329.18,-0.31 330.75,-3.27 333.19,-5.58 336.23,-6.98 339.56,-7.35 342.84,-6.62 345.71,-4.90 347.88,-2.34 349.12,0.78 349.30,4.12 348.40,7.35 346.52,10.13 343.85,12.16 340.67,13.23 339.00,13.50 321.71,13.50 293.05,13.50 270.82,13.50 247.39,13.50 222.37,13.49 198.65,13.48 175.38,13.44 151.44,13.32 128.40,12.96 106.71,12.11 85.57,11.16 63.27,10.64 40.83,10.50 17.76,10.50 2.69,10.50 -1.26,10.35 -3.70,9.75 -5.92,8.58 -7.80,6.91 -9.23,4.84 -10.12,2.49 -10.42,-0.00 -10.12,-2.50 -9.23,-4.84 -7.80,-6.91 -5.92,-8.58 -3.70,-9.75 -1.26,-10.35 Z" fill="#FFFFFF" stroke="transparent" stroke-width="0" stroke-linejoin="round" stroke-linecap="round" pointer-events="all" transform="translate(1166, 470)"/><path id="path_1d25d5de-ecc3-4701-069a-11fe3b7a058b" d="M1.00,-10.50 Q6.86,-10.50 18.71,-10.50 T44.14,-10.42 69.94,-9.68 94.18,-8.09 117.56,-6.14 139.67,-3.91 162.52,-1.52 186.44,0.75 209.73,2.94 231.99,4.69 255.88,5.42 270.72,5.78 273.89,6.86 276.55,8.90 278.42,11.69 279.31,14.92 279.11,18.27 277.86,21.38 275.68,23.92 272.80,25.64 269.52,26.35 266.19,25.97 263.15,24.55 260.73,22.24 259.17,19.27 258.64,15.96 259.19,12.65 260.78,9.70 263.22,7.40 266.27,6.00 269.60,5.66 272.87,6.39 275.74,8.13 277.90,10.69 279.13,13.81 279.30,17.16 278.39,20.39 276.49,23.16 273.82,25.17 270.63,26.23 268.96,26.50 254.95,26.40 230.03,25.62 207.66,23.84 184.46,21.65 160.51,19.38 137.90,17.02 115.82,14.79 92.47,12.84 69.07,11.30 43.95,10.58 18.71,10.50 3.93,10.50 -0.26,10.35 -2.70,9.75 -4.92,8.58 -6.80,6.91 -8.23,4.84 -9.12,2.49 -9.42,-0.00 -9.12,-2.50 -8.23,-4.84 -6.80,-6.91 -4.92,-8.58 -2.70,-9.75 -0.26,-10.35 Z" fill="#FFFFFF" stroke="transparent" stroke-width="0" stroke-linejoin="round" stroke-linecap="round" pointer-events="all" transform="translate(1222, 417)"/><path id="path_f85b2f29-f1af-4fb7-3fc4-2ee84ec1fd2a" d="M10.50,0.00 Q10.50,5.23 10.50,16.47 T10.50,39.10 10.50,61.21 10.50,82.40 10.50,103.38 10.50,124.49 10.50,145.76 11.35,167.11 12.35,183.27 12.26,190.43 11.27,193.63 9.30,196.35 6.57,198.30 3.36,199.27 0.01,199.17 -3.13,198.00 -5.74,195.89 -7.53,193.06 -8.33,189.81 -8.05,186.47 -6.71,183.39 -4.46,180.90 -1.54,179.26 1.75,178.64 5.08,179.11 8.07,180.61 10.44,182.98 11.92,185.99 12.36,189.32 11.71,192.61 10.05,195.52 7.55,197.75 4.47,199.06 1.12,199.32 -2.13,198.50 -4.95,196.69 -7.04,194.07 -8.18,190.92 -8.50,189.25 -8.66,183.36 -9.66,166.95 -10.50,145.76 -10.50,124.49 -10.50,103.38 -10.50,82.40 -10.50,61.21 -10.50,39.10 -10.50,16.47 -10.50,2.62 -10.35,-1.26 -9.75,-3.70 -8.58,-5.92 -6.91,-7.80 -4.84,-9.23 -2.49,-10.12 0.00,-10.42 2.50,-10.12 4.84,-9.23 6.91,-7.80 8.58,-5.92 9.75,-3.70 10.35,-1.26 Z" fill="#FFFFFF" stroke="transparent" stroke-width="0" stroke-linejoin="round" stroke-linecap="round" pointer-events="all" transform="translate(1189, 67)"/><path id="path_0ba99f67-6b6b-4357-124f-df41209d1bc4" d="M0.00,-10.50 Q2.69,-10.50 13.11,-10.28 T28.07,-9.77 34.28,-9.11 37.39,-7.85 39.93,-5.67 41.65,-2.79 42.35,0.49 41.97,3.82 40.55,6.86 38.23,9.28 35.26,10.84 31.95,11.36 28.64,10.80 25.69,9.22 23.39,6.77 22.00,3.72 21.66,0.38 22.39,-2.89 24.14,-5.75 26.70,-7.91 29.83,-9.13 33.17,-9.29 36.40,-8.38 39.17,-6.48 41.18,-3.80 42.23,-0.62 42.22,2.73 41.13,5.90 39.09,8.56 36.30,10.43 33.06,11.31 31.38,11.48 27.77,11.27 13.43,10.78 1.35,10.50 -1.26,10.35 -3.70,9.75 -5.92,8.58 -7.80,6.91 -9.23,4.84 -10.12,2.49 -10.42,-0.00 -10.12,-2.50 -9.23,-4.84 -7.80,-6.91 -5.92,-8.58 -3.70,-9.75 -1.26,-10.35 Z" fill="#FFFFFF" stroke="transparent" stroke-width="0" stroke-linejoin="round" stroke-linecap="round" pointer-events="all" transform="translate(1178, 256)"/><path id="path_367a7fe3-1933-45eb-2ab1-a1c70e7fe9b2" d="M10.50,0.00 Q10.50,5.07 10.50,16.23 T10.50,38.99 10.50,62.05 10.50,86.02 10.50,109.66 10.75,133.11 11.71,158.26 12.94,182.35 13.76,204.68 14.19,227.08 14.38,249.78 14.46,272.00 14.92,293.54 15.42,309.04 15.25,315.52 14.23,318.71 12.24,321.41 9.49,323.34 6.28,324.28 2.93,324.15 -0.21,322.96 -2.79,320.83 -4.57,317.98 -5.34,314.72 -5.02,311.38 -3.66,308.32 -1.39,305.85 1.54,304.23 4.84,303.64 8.16,304.13 11.15,305.66 13.49,308.06 14.94,311.08 15.35,314.41 14.68,317.69 13.00,320.59 10.47,322.80 7.38,324.08 4.03,324.32 0.79,323.47 -2.01,321.63 -4.08,318.99 -5.20,315.83 -5.50,314.16 -5.57,309.44 -6.08,293.79 -6.54,272.05 -6.62,249.90 -6.81,227.37 -7.23,205.29 -8.03,183.46 -9.27,159.20 -10.25,133.34 -10.50,109.66 -10.50,86.02 -10.50,62.05 -10.50,38.99 -10.50,16.23 -10.50,2.54 -10.35,-1.26 -9.75,-3.70 -8.58,-5.92 -6.91,-7.80 -4.84,-9.23 -2.49,-10.12 0.00,-10.42 2.50,-10.12 4.84,-9.23 6.91,-7.80 8.58,-5.92 9.75,-3.70 10.35,-1.26 Z" fill="#FFFFFF" stroke="transparent" stroke-width="0" stroke-linejoin="round" stroke-linecap="round" pointer-events="all" transform="translate(1259, 60)"/><path id="path_eca89e6a-8bbb-4c13-285b-e130455fa3b4" d="M0.62,-10.48 Q3.31,-10.32 16.25,-9.91 T30.86,-9.19 34.02,-8.07 36.65,-5.99 38.48,-3.18 39.32,0.07 39.08,3.41 37.78,6.50 35.56,9.02 32.66,10.69 29.37,11.35 26.05,10.93 23.03,9.47 20.64,7.12 19.12,4.13 18.64,0.81 19.24,-2.49 20.87,-5.42 23.34,-7.68 26.41,-9.03 29.75,-9.33 33.01,-8.55 35.85,-6.77 37.98,-4.18 39.16,-1.04 39.28,2.31 38.32,5.52 36.39,8.26 33.68,10.24 30.49,11.25 28.81,11.50 15.44,11.07 0.73,10.56 -1.86,10.26 -4.26,9.51 -6.41,8.22 -8.19,6.44 -9.50,4.29 -10.25,1.90 -10.41,-0.61 -9.96,-3.09 -8.93,-5.38 -7.38,-7.36 -5.41,-8.91 -3.12,-9.95 -0.65,-10.40 Z" fill="#FFFFFF" stroke="transparent" stroke-width="0" stroke-linejoin="round" stroke-linecap="round" pointer-events="all" transform="translate(1251, 375)"/><path id="path_5296d9b0-815e-4962-1d0d-6ee336bb9322" d="M10.50,0.00 Q10.50,5.07 10.50,16.08 T10.50,37.73 10.50,60.56 10.50,84.23 10.50,106.52 10.79,128.32 11.21,151.53 11.39,174.21 11.46,196.18 11.49,219.49 11.50,242.20 11.50,264.28 12.21,286.21 23.33,298.09 44.94,299.33 66.84,300.09 88.97,302.63 111.02,306.22 132.92,308.55 156.12,309.52 179.16,310.18 191.98,310.83 195.12,311.99 197.73,314.10 199.53,316.93 200.33,320.19 200.05,323.53 198.72,326.60 196.47,329.09 193.55,330.74 190.25,331.36 186.93,330.90 183.93,329.40 181.57,327.02 180.09,324.02 179.64,320.69 180.28,317.40 181.94,314.49 184.44,312.25 187.53,310.94 190.87,310.67 194.12,311.49 196.94,313.31 199.03,315.92 200.18,319.08 200.26,322.43 199.27,325.63 197.31,328.35 194.58,330.30 191.37,331.27 189.69,331.50 173.06,330.94 144.45,330.08 121.32,328.70 99.19,325.82 77.71,322.25 56.27,320.43 34.56,320.15 13.56,317.52 -2.39,306.21 -8.81,286.38 -9.50,264.28 -9.50,242.21 -9.51,219.50 -9.54,196.22 -9.61,174.31 -9.78,151.83 -10.21,128.55 -10.50,106.52 -10.50,84.23 -10.50,60.56 -10.50,37.73 -10.50,16.08 -10.50,2.54 -10.35,-1.26 -9.75,-3.70 -8.58,-5.92 -6.91,-7.80 -4.84,-9.23 -2.49,-10.12 0.00,-10.42 2.50,-10.12 4.84,-9.23 6.91,-7.80 8.58,-5.92 9.75,-3.70 10.35,-1.26 Z" fill="#FFFFFF" stroke="transparent" stroke-width="0" stroke-linejoin="round" stroke-linecap="round" pointer-events="all" transform="translate(1313, 61)"/><path id="path_bb07ab85-e1ba-45d8-0000-50be7a72f344" d="M12.50,0.00 Q12.50,5.39 12.50,16.77 T12.50,39.44 12.50,61.87 12.50,84.39 12.50,106.90 12.50,128.53 12.50,149.86 12.21,172.00 11.46,194.14 10.96,215.71 13.26,236.65 25.48,251.81 46.73,257.88 69.85,259.18 92.73,259.89 116.63,261.46 131.07,262.85 134.20,264.04 136.79,266.17 138.56,269.01 139.34,272.27 139.03,275.61 137.67,278.68 135.40,281.15 132.46,282.77 129.16,283.36 125.85,282.87 122.86,281.35 120.52,278.95 119.06,275.93 118.65,272.60 119.31,269.32 121.00,266.42 123.52,264.21 126.61,262.92 129.96,262.68 133.20,263.53 136.01,265.37 138.08,268.00 139.20,271.16 139.25,274.52 138.23,277.71 136.24,280.41 133.50,282.33 130.28,283.28 128.60,283.49 120.31,282.93 100.98,281.40 79.41,280.33 58.20,279.83 36.60,277.72 15.64,271.14 -0.58,257.37 -8.41,237.93 -10.03,215.87 -9.51,193.18 -8.77,171.36 -8.50,149.86 -8.50,128.53 -8.50,106.90 -8.50,84.39 -8.50,61.87 -8.50,39.44 -8.50,16.77 -8.50,2.69 -8.35,-1.26 -7.75,-3.70 -6.58,-5.92 -4.91,-7.80 -2.84,-9.23 -0.49,-10.12 2.00,-10.42 4.50,-10.12 6.84,-9.23 8.91,-7.80 10.58,-5.92 11.75,-3.70 12.35,-1.26 Z" fill="#FFFFFF" stroke="transparent" stroke-width="0" stroke-linejoin="round" stroke-linecap="round" pointer-events="all" transform="translate(1362, 60)"/><path id="path_3bad9f05-83ec-46b1-1b02-696c1b79a003" d="M90.50,0.00 Q90.50,4.44 90.50,15.07 T90.50,37.11 90.41,59.24 89.50,81.11 87.46,103.07 85.17,124.51 83.09,145.66 76.26,164.95 62.60,180.56 45.50,192.96 27.29,205.13 12.78,216.69 5.82,222.57 2.78,223.98 -0.55,224.35 -3.83,223.63 -6.70,221.90 -8.87,219.35 -10.12,216.24 -10.30,212.89 -9.41,209.66 -7.53,206.88 -4.86,204.85 -1.68,203.78 1.67,203.77 4.85,204.84 7.52,206.87 9.40,209.64 10.30,212.87 10.12,216.22 8.88,219.34 6.71,221.89 3.84,223.62 0.57,224.35 -2.77,223.99 -5.81,222.58 -8.24,220.28 -9.82,217.31 -10.36,214.01 -9.82,210.70 -8.25,207.73 -7.23,206.38 -1.31,201.09 13.06,189.48 31.27,177.08 49.53,163.64 60.54,145.75 64.06,124.77 66.32,103.68 68.39,82.36 69.36,60.10 69.50,37.11 69.50,15.07 69.50,2.22 69.65,-1.26 70.25,-3.70 71.42,-5.92 73.09,-7.80 75.16,-9.23 77.51,-10.12 80.00,-10.42 82.50,-10.12 84.84,-9.23 86.91,-7.80 88.58,-5.92 89.75,-3.70 90.35,-1.26 Z" fill="#FFFFFF" stroke="transparent" stroke-width="0" stroke-linejoin="round" stroke-linecap="round" pointer-events="all" transform="translate(1400, 62)"/><path id="path_3d550cce-c306-4de3-2bb1-0379801b5e55" d="M9.00,-5.40 Q10.43,-3.02 18.22,8.09 T26.88,20.66 28.12,23.78 28.30,27.13 27.40,30.36 25.52,33.13 22.85,35.16 19.67,36.23 16.32,36.22 13.14,35.15 10.47,33.12 8.59,30.34 7.70,27.11 7.88,23.77 9.13,20.65 11.30,18.10 14.17,16.37 17.45,15.65 20.78,16.02 23.82,17.43 26.25,19.74 27.82,22.70 28.36,26.01 27.82,29.32 26.24,32.28 23.81,34.58 20.76,35.99 17.43,36.35 14.16,35.62 11.29,33.89 9.99,32.79 7.09,29.37 -1.70,16.86 -8.29,6.59 -9.52,4.25 -10.26,1.84 -10.40,-0.66 -9.94,-3.13 -8.90,-5.42 -7.35,-7.40 -5.36,-8.94 -3.07,-9.96 -0.59,-10.41 1.91,-10.25 4.31,-9.49 6.46,-8.18 8.23,-6.40 Z" fill="#FFFFFF" stroke="transparent" stroke-width="0" stroke-linejoin="round" stroke-linecap="round" pointer-events="all" transform="translate(1392, 266)"/><path id="path_0ed2dbc8-6255-436c-1ae0-934e8fec5e2a" d="M-8.48,147.60 Q-8.80,142.05 -9.29,130.54 T-9.74,107.46 -7.91,84.27 -4.78,61.14 -2.72,38.69 -1.75,13.81 -1.20,-1.81 -0.09,-4.97 1.97,-7.61 4.77,-9.46 8.01,-10.31 11.36,-10.09 14.46,-8.81 16.98,-6.61 18.67,-3.71 19.35,-0.43 18.95,2.90 17.50,5.93 15.16,8.33 12.18,9.86 8.87,10.36 5.56,9.78 2.62,8.17 0.35,5.70 -1.02,2.64 -1.34,-0.70 -0.57,-3.96 1.19,-6.81 3.77,-8.95 6.91,-10.15 10.26,-10.29 13.47,-9.35 16.22,-7.43 18.22,-4.73 19.25,-1.54 19.50,0.14 19.24,14.30 18.36,38.84 16.43,60.56 13.28,83.28 11.32,106.48 11.68,129.58 12.32,143.63 12.40,147.66 11.94,150.13 10.90,152.42 9.35,154.40 7.36,155.94 5.07,156.96 2.59,157.41 0.09,157.25 -2.31,156.49 -4.46,155.18 -6.23,153.40 -7.52,151.25 -8.26,148.84 Z" fill="#FFFFFF" stroke="transparent" stroke-width="0" stroke-linejoin="round" stroke-linecap="round" pointer-events="all" transform="translate(1411, 54)"/><path id="path_a6008f30-3bec-4373-0c18-78b7a82f9209" d="M-1.73,-5.36 Q1.13,-5.83 11.95,-7.61 T29.01,-9.93 36.94,-10.32 40.19,-9.48 43.00,-7.64 45.07,-5.01 46.19,-1.85 46.25,1.50 45.24,4.70 43.25,7.40 40.51,9.33 37.30,10.28 33.95,10.16 30.81,8.97 28.22,6.84 26.44,4.00 25.66,0.74 25.97,-2.60 27.33,-5.67 29.59,-8.14 32.52,-9.76 35.82,-10.36 39.14,-9.87 42.13,-8.35 44.48,-5.96 45.94,-2.94 46.35,0.39 45.69,3.67 44.01,6.57 41.49,8.79 38.40,10.08 36.75,10.47 31.31,10.93 15.23,13.13 3.15,15.12 0.46,15.41 -2.04,15.22 -4.43,14.43 -6.56,13.10 -8.31,11.30 -9.57,9.12 -10.28,6.71 -10.39,4.20 -9.90,1.74 -8.83,-0.54 -7.25,-2.49 -5.25,-4.01 -2.94,-5.00 Z" fill="#FFFFFF" stroke="transparent" stroke-width="0" stroke-linejoin="round" stroke-linecap="round" pointer-events="all" transform="translate(1394, 207)"/><path id="path_a5a224a0-1a04-4714-0e04-81b92cf3df0f" d="M0.00,-10.50 Q3.33,-10.50 14.33,-10.50 T35.30,-10.00 46.94,-9.18 50.09,-8.03 52.70,-5.93 54.51,-3.11 55.33,0.15 55.06,3.49 53.74,6.57 51.50,9.07 48.59,10.72 45.29,11.36 41.97,10.91 38.97,9.42 36.59,7.05 35.10,4.05 34.64,0.73 35.27,-2.56 36.92,-5.48 39.41,-7.72 42.49,-9.05 45.83,-9.33 49.08,-8.52 51.91,-6.72 54.01,-4.11 55.17,-0.96 55.27,2.39 54.29,5.59 52.33,8.32 49.61,10.28 46.41,11.27 44.73,11.50 35.03,11.00 14.32,10.50 1.66,10.50 -1.26,10.35 -3.70,9.75 -5.92,8.58 -7.80,6.91 -9.23,4.84 -10.12,2.49 -10.42,-0.00 -10.12,-2.50 -9.23,-4.84 -7.80,-6.91 -5.92,-8.58 -3.70,-9.75 -1.26,-10.35 Z" fill="#FFFFFF" stroke="transparent" stroke-width="0" stroke-linejoin="round" stroke-linecap="round" pointer-events="all" transform="translate(1450, 277)"/><path id="path_8cf79a06-b9e7-48b3-0ff3-1e7c61ee79bd" d="M10.50,0.00 Q10.50,2.69 10.50,11.35 T10.23,21.68 9.15,24.85 7.13,27.52 4.35,29.40 1.12,30.30 -2.23,30.12 -5.34,28.88 -7.90,26.71 -9.63,23.83 -10.35,20.56 -9.98,17.23 -8.58,14.18 -6.27,11.75 -3.31,10.18 0.00,9.64 3.31,10.18 6.27,11.75 8.58,14.19 9.98,17.23 10.35,20.56 9.62,23.84 7.90,26.71 5.34,28.88 2.22,30.12 -1.12,30.30 -4.35,29.40 -7.13,27.52 -9.16,24.85 -10.23,21.67 -10.50,20.00 -10.50,11.35 -10.50,1.35 -10.35,-1.26 -9.75,-3.70 -8.58,-5.92 -6.91,-7.80 -4.84,-9.23 -2.49,-10.12 0.00,-10.42 2.50,-10.12 4.84,-9.23 6.91,-7.80 8.58,-5.92 9.75,-3.70 10.35,-1.26 Z" fill="#FFFFFF" stroke="transparent" stroke-width="0" stroke-linejoin="round" stroke-linecap="round" pointer-events="all" transform="translate(1448, 277)"/><path id="path_d62318f4-6307-47ed-3f31-6f18f393d45f" d="M10.49,-0.42 Q10.65,3.54 10.97,14.77 T11.38,37.23 11.49,59.37 11.50,74.64 11.23,80.67 10.16,83.85 8.13,86.52 5.35,88.40 2.12,89.30 -1.22,89.12 -4.34,87.88 -6.90,85.71 -8.62,82.84 -9.35,79.56 -8.98,76.23 -7.58,73.19 -5.27,70.75 -2.31,69.18 1.00,68.64 4.31,69.18 7.27,70.75 9.58,73.18 10.98,76.23 11.35,79.56 10.63,82.83 8.90,85.71 6.34,87.88 3.23,89.12 -0.12,89.30 -3.35,88.40 -6.13,86.52 -8.15,83.85 -9.23,80.68 -9.50,79.00 -9.50,74.64 -9.51,59.40 -9.62,37.46 -10.02,15.40 -10.41,2.40 -10.39,-0.84 -9.89,-3.30 -8.81,-5.57 -7.22,-7.52 -5.21,-9.03 -2.90,-10.01 -0.42,-10.42 2.09,-10.21 4.47,-9.42 6.60,-8.07 8.34,-6.26 9.59,-4.08 10.29,-1.67 Z" fill="#FFFFFF" stroke="transparent" stroke-width="0" stroke-linejoin="round" stroke-linecap="round" pointer-events="all" transform="translate(782, 46)"/><path id="path_0424bf82-b655-4500-2d6b-81eae003993b" d="M0.00,-10.50 Q3.01,-10.50 13.68,-10.50 T32.03,-9.99 41.36,-9.09 44.46,-7.81 46.99,-5.60 48.68,-2.70 49.35,0.58 48.95,3.91 47.50,6.93 45.16,9.33 42.17,10.86 38.86,11.36 35.56,10.77 32.62,9.16 30.35,6.70 28.98,3.64 28.66,0.30 29.43,-2.97 31.20,-5.82 33.78,-7.95 36.91,-9.15 40.26,-9.28 43.48,-8.34 46.23,-6.42 48.22,-3.73 49.25,-0.54 49.20,2.82 48.09,5.98 46.02,8.62 43.22,10.46 39.98,11.32 38.29,11.48 31.32,10.99 13.68,10.50 1.51,10.50 -1.26,10.35 -3.70,9.75 -5.92,8.58 -7.80,6.91 -9.23,4.84 -10.12,2.49 -10.42,-0.00 -10.12,-2.50 -9.23,-4.84 -7.80,-6.91 -5.92,-8.58 -3.70,-9.75 -1.26,-10.35 Z" fill="#FFFFFF" stroke="transparent" stroke-width="0" stroke-linejoin="round" stroke-linecap="round" pointer-events="all" transform="translate(762, 125)"/><path id="path_000fb428-60c8-4bfa-3aba-02313e9179e1" d="M10.49,-0.35 Q10.65,4.41 10.90,15.11 T11.26,36.78 11.41,58.80 11.47,81.52 18.34,102.59 33.49,118.31 51.71,131.83 70.91,145.48 88.79,157.86 107.16,170.49 126.59,182.33 146.39,192.81 165.21,203.73 175.11,210.46 177.14,213.13 178.22,216.30 178.23,219.65 177.17,222.83 175.14,225.51 172.37,227.39 169.14,228.30 165.79,228.12 162.68,226.89 160.12,224.72 158.38,221.86 157.65,218.58 158.01,215.25 159.41,212.20 161.71,209.76 164.67,208.19 167.98,207.64 171.29,208.17 174.25,209.74 176.56,212.17 177.98,215.21 178.35,218.54 177.63,221.82 175.91,224.69 173.36,226.87 170.25,228.12 166.90,228.30 163.67,227.41 162.13,226.70 153.23,221.08 134.67,210.40 115.10,199.97 95.38,187.87 77.00,175.23 59.08,162.83 39.51,148.92 20.93,135.15 4.09,121.16 -6.96,103.37 -9.53,81.55 -9.59,58.90 -9.74,37.03 -10.09,15.63 -10.41,2.73 -10.38,-0.91 -9.86,-3.37 -8.77,-5.63 -7.17,-7.57 -5.15,-9.06 -2.83,-10.03 -0.35,-10.42 2.16,-10.20 4.53,-9.39 6.65,-8.03 8.38,-6.20 9.62,-4.02 10.30,-1.60 Z" fill="#FFFFFF" stroke="transparent" stroke-width="0" stroke-linejoin="round" stroke-linecap="round" pointer-events="all" transform="translate(477, 54)"/><path id="path_4b75f3b4-927c-46a5-12ed-f4623640ab67" d="M29.32,6.40 Q27.74,8.46 20.87,16.87 T11.66,29.57 8.29,35.22 5.87,37.54 2.84,38.97 -0.49,39.35 -3.77,38.65 -6.66,36.94 -8.84,34.40 -10.10,31.29 -10.31,27.95 -9.43,24.71 -7.57,21.92 -4.91,19.88 -1.74,18.79 1.61,18.76 4.79,19.81 7.48,21.83 9.38,24.59 10.29,27.81 10.13,31.16 8.91,34.28 6.76,36.85 3.90,38.60 0.63,39.34 -2.71,39.00 -5.76,37.61 -8.21,35.32 -9.80,32.37 -10.36,29.07 -9.84,25.75 -9.31,24.14 -6.15,18.56 4.05,4.31 11.88,-5.37 13.56,-7.30 15.53,-8.87 17.81,-9.92 20.28,-10.40 22.79,-10.27 25.19,-9.54 27.36,-8.26 29.15,-6.50 30.47,-4.36 31.24,-1.97 31.41,0.54 30.98,3.01 29.97,5.31 Z" fill="#FFFFFF" stroke="transparent" stroke-width="0" stroke-linejoin="round" stroke-linecap="round" pointer-events="all" transform="translate(635, 263)"/><path id="path_837485ab-91ee-4723-206e-5e4e1d915080" d="M0.68,-10.48 Q5.59,-10.16 16.14,-9.59 T37.21,-8.49 58.31,-6.97 80.12,-3.96 102.02,-0.80 124.12,-1.44 137.25,-3.33 140.59,-3.03 143.66,-1.68 146.14,0.58 147.76,3.52 148.36,6.82 147.88,10.13 146.36,13.12 143.97,15.47 140.95,16.93 137.62,17.35 134.34,16.69 131.43,15.02 129.22,12.50 127.92,9.41 127.68,6.06 128.52,2.82 130.35,0.01 132.99,-2.07 136.14,-3.19 139.50,-3.25 142.69,-2.24 145.40,-0.26 147.33,2.48 148.28,5.70 148.16,9.05 146.97,12.18 144.85,14.78 142.00,16.56 140.44,17.21 126.29,19.27 101.51,20.35 79.76,17.30 57.86,14.13 36.07,12.47 14.66,11.36 1.78,10.64 -1.92,10.25 -4.32,9.49 -6.46,8.18 -8.23,6.40 -9.52,4.24 -10.26,1.84 -10.40,-0.67 -9.94,-3.14 -8.90,-5.43 -7.34,-7.40 -5.36,-8.94 -3.06,-9.96 -0.59,-10.41 Z" fill="#FFFFFF" stroke="transparent" stroke-width="0" stroke-linejoin="round" stroke-linecap="round" pointer-events="all" transform="translate(437, 272)"/><path id="path_da9128c5-e8ff-4c48-23e5-d551d6d1a9c6" d="M10.50,0.00 Q10.50,2.69 11.44,15.58 T12.36,30.16 11.77,33.46 10.15,36.40 7.68,38.67 4.62,40.03 1.28,40.34 -1.98,39.57 -4.83,37.79 -6.96,35.20 -8.15,32.07 -8.28,28.72 -7.34,25.50 -5.41,22.76 -2.71,20.77 0.48,19.75 3.84,19.80 7.00,20.92 9.63,22.99 11.47,25.80 12.32,29.04 12.08,32.39 10.79,35.48 8.58,38.00 5.68,39.68 2.40,40.35 -0.93,39.94 -3.95,38.48 -6.35,36.14 -7.87,33.15 -8.39,31.54 -8.97,27.61 -10.02,13.18 -10.50,1.35 -10.35,-1.26 -9.75,-3.70 -8.58,-5.92 -6.91,-7.80 -4.84,-9.23 -2.49,-10.12 0.00,-10.42 2.50,-10.12 4.84,-9.23 6.91,-7.80 8.58,-5.92 9.75,-3.70 10.35,-1.26 Z" fill="#FFFFFF" stroke="transparent" stroke-width="0" stroke-linejoin="round" stroke-linecap="round" pointer-events="all" transform="translate(576, 268)"/><path id="path_4c95f2cc-0d76-492f-3ed8-88a4ebf0e3e5" d="M67.16,53.32 Q63.19,51.26 53.26,46.14 T33.44,35.42 14.37,23.45 -0.34,12.89 -7.11,7.54 -9.14,4.88 -10.22,1.70 -10.23,-1.65 -9.17,-4.83 -7.14,-7.51 -4.37,-9.39 -1.14,-10.30 2.20,-10.12 5.32,-8.89 7.88,-6.73 9.62,-3.86 10.35,-0.58 9.99,2.75 8.59,5.80 6.29,8.23 3.33,9.81 0.02,10.36 -3.29,9.83 -6.25,8.26 -8.56,5.83 -9.98,2.79 -10.35,-0.54 -9.63,-3.81 -7.91,-6.69 -5.36,-8.87 -2.25,-10.11 1.10,-10.30 4.33,-9.41 5.87,-8.70 11.31,-4.71 25.59,5.57 43.64,17.08 62.86,27.46 74.86,33.65 77.89,35.40 79.78,37.06 81.21,39.12 82.11,41.47 82.42,43.96 82.13,46.46 81.25,48.81 79.83,50.88 77.95,52.56 75.73,53.73 73.29,54.34 70.78,54.35 68.34,53.76 Z" fill="#FFFFFF" stroke="transparent" stroke-width="0" stroke-linejoin="round" stroke-linecap="round" pointer-events="all" transform="translate(445, 201)"/><path id="path_ded6958f-ffc5-4552-2d0e-0ff1e29de89c" d="M-8.83,9.32 Q-7.41,7.10 -2.40,0.39 T3.84,-7.49 6.60,-9.38 9.83,-10.30 13.18,-10.13 16.30,-8.90 18.87,-6.75 20.61,-3.88 21.34,-0.61 21.00,2.73 19.60,5.77 17.31,8.22 14.35,9.80 11.05,10.36 7.74,9.83 4.77,8.28 2.45,5.85 1.03,2.82 0.65,-0.51 1.36,-3.79 3.07,-6.67 5.62,-8.85 8.73,-10.11 12.07,-10.31 15.31,-9.42 18.09,-7.55 20.13,-4.89 21.22,-1.72 21.23,1.63 20.18,4.81 19.39,6.32 14.82,12.39 9.55,19.57 8.02,21.65 6.20,23.38 4.01,24.62 1.59,25.30 -0.92,25.38 -3.37,24.86 -5.64,23.77 -7.57,22.16 -9.07,20.14 -10.03,17.82 -10.42,15.34 -10.20,12.84 -9.38,10.46 Z" fill="#FFFFFF" stroke="transparent" stroke-width="0" stroke-linejoin="round" stroke-linecap="round" pointer-events="all" transform="translate(521, 231)"/><path id="path_188705c3-21f0-42de-0886-845e5c4a8648" d="M10.50,0.00 Q10.50,3.33 10.50,14.78 T10.50,36.99 10.50,58.53 10.50,80.52 10.50,102.76 10.94,124.50 11.55,145.84 12.11,169.20 12.24,183.57 11.20,186.76 9.20,189.45 6.44,191.36 3.22,192.29 -0.13,192.14 -3.25,190.93 -5.83,188.79 -7.59,185.93 -8.34,182.66 -8.01,179.33 -6.63,176.27 -4.35,173.81 -1.40,172.21 1.90,171.64 5.21,172.15 8.19,173.69 10.52,176.10 11.96,179.13 12.35,182.46 11.66,185.74 9.96,188.63 7.43,190.83 4.33,192.10 0.98,192.31 -2.26,191.45 -5.05,189.59 -7.11,186.94 -8.21,183.77 -8.50,182.10 -8.90,169.67 -9.46,146.35 -10.06,124.64 -10.50,102.77 -10.50,80.52 -10.50,58.53 -10.50,36.99 -10.50,14.78 -10.50,1.66 -10.35,-1.26 -9.75,-3.70 -8.58,-5.92 -6.91,-7.80 -4.84,-9.23 -2.49,-10.12 0.00,-10.42 2.50,-10.12 4.84,-9.23 6.91,-7.80 8.58,-5.92 9.75,-3.70 10.35,-1.26 Z" fill="#FFFFFF" stroke="transparent" stroke-width="0" stroke-linejoin="round" stroke-linecap="round" pointer-events="all" transform="translate(654, 35)"/><path id="path_e834044f-a60b-42ac-3cfb-855574ae0c67" d="M0.00,-10.50 Q2.54,-10.50 13.26,-10.50 T27.85,-9.93 33.32,-8.81 36.28,-7.24 38.59,-4.80 39.99,-1.76 40.35,1.58 39.62,4.85 37.89,7.72 35.33,9.89 32.21,11.12 28.86,11.30 25.63,10.40 22.86,8.51 20.84,5.84 19.77,2.66 19.78,-0.69 20.85,-3.87 22.89,-6.54 25.67,-8.41 28.90,-9.30 32.25,-9.12 35.36,-7.87 37.91,-5.69 39.63,-2.82 40.35,0.46 39.98,3.79 38.57,6.83 36.25,9.26 33.29,10.83 29.98,11.36 28.28,11.36 26.11,10.93 13.24,10.50 1.27,10.50 -1.26,10.35 -3.70,9.75 -5.92,8.58 -7.80,6.91 -9.23,4.84 -10.12,2.49 -10.42,-0.00 -10.12,-2.50 -9.23,-4.84 -7.80,-6.91 -5.92,-8.58 -3.70,-9.75 -1.26,-10.35 Z" fill="#FFFFFF" stroke="transparent" stroke-width="0" stroke-linejoin="round" stroke-linecap="round" pointer-events="all" transform="translate(641, 218)"/><path id="path_2b6a0382-13a2-48ba-2723-c2839ec0acad" d="M10.50,0.00 Q10.50,3.65 10.50,14.40 T10.50,35.88 10.50,57.44 10.50,78.85 18.68,97.38 35.10,112.43 52.01,125.27 70.55,136.45 88.46,145.70 97.90,150.48 100.31,152.81 101.85,155.79 102.36,159.10 101.79,162.40 100.19,165.35 97.73,167.63 94.67,169.01 91.34,169.34 88.07,168.59 85.21,166.83 83.07,164.25 81.86,161.13 81.71,157.78 82.64,154.56 84.55,151.80 87.24,149.80 90.43,148.76 93.78,148.79 96.94,149.89 99.59,151.95 101.45,154.74 102.31,157.98 102.10,161.33 100.82,164.43 98.63,166.96 95.74,168.66 92.46,169.35 89.13,168.96 87.50,168.49 79.58,164.73 62.42,156.01 43.71,144.96 25.26,131.66 8.06,116.50 -5.31,99.03 -10.50,78.87 -10.50,57.44 -10.50,35.88 -10.50,14.40 -10.50,1.82 -10.35,-1.26 -9.75,-3.70 -8.58,-5.92 -6.91,-7.80 -4.84,-9.23 -2.49,-10.12 0.00,-10.42 2.50,-10.12 4.84,-9.23 6.91,-7.80 8.58,-5.92 9.75,-3.70 10.35,-1.26 Z" fill="#FFFFFF" stroke="transparent" stroke-width="0" stroke-linejoin="round" stroke-linecap="round" pointer-events="all" transform="translate(521, 35)"/><path id="path_770a750d-1df8-474e-00e4-6a02afbe6a33" d="M22.07,6.72 Q20.48,8.62 14.13,16.84 T6.46,26.11 3.53,27.74 0.23,28.36 -3.09,27.89 -6.08,26.39 -8.44,24.01 -9.92,21.00 -10.36,17.67 -9.71,14.38 -8.05,11.47 -5.54,9.24 -2.45,7.93 0.89,7.68 4.14,8.50 6.96,10.32 9.04,12.94 10.19,16.10 10.26,19.45 9.26,22.65 7.29,25.36 4.56,27.30 1.35,28.27 -2.00,28.17 -5.14,27.00 -7.75,24.88 -9.54,22.05 -10.33,18.79 -10.04,15.45 -8.70,12.38 -7.78,10.95 -1.72,3.07 5.14,-5.77 6.86,-7.59 8.88,-9.08 11.20,-10.04 13.69,-10.42 16.19,-10.19 18.56,-9.37 20.67,-8.01 22.40,-6.18 23.63,-3.99 24.30,-1.57 24.38,0.94 23.85,3.40 22.75,5.66 Z" fill="#FFFFFF" stroke="transparent" stroke-width="0" stroke-linejoin="round" stroke-linecap="round" pointer-events="all" transform="translate(603, 189)"/><path id="path_2647241e-2ce9-4a2c-3e6f-409c5a9b0986" d="M11.50,0.00 Q11.50,2.69 11.50,13.46 T11.50,34.92 11.10,56.41 10.61,78.10 10.51,99.87 10.50,115.38 10.23,121.68 9.15,124.85 7.13,127.52 4.35,129.40 1.12,130.30 -2.23,130.12 -5.34,128.88 -7.90,126.71 -9.63,123.83 -10.35,120.56 -9.98,117.23 -8.58,114.18 -6.27,111.75 -3.31,110.18 0.00,109.64 3.31,110.18 6.27,111.75 8.58,114.19 9.98,117.23 10.35,120.56 9.62,123.84 7.90,126.71 5.34,128.88 2.22,130.12 -1.12,130.30 -4.35,129.40 -7.13,127.52 -9.16,124.85 -10.23,121.67 -10.50,120.00 -10.50,114.79 -10.49,98.60 -10.38,77.17 -9.89,56.17 -9.50,34.92 -9.50,13.46 -9.50,1.35 -9.35,-1.26 -8.75,-3.70 -7.58,-5.92 -5.91,-7.80 -3.84,-9.23 -1.49,-10.12 1.00,-10.42 3.50,-10.12 5.84,-9.23 7.91,-7.80 9.58,-5.92 10.75,-3.70 11.35,-1.26 Z" fill="#FFFFFF" stroke="transparent" stroke-width="0" stroke-linejoin="round" stroke-linecap="round" pointer-events="all" transform="translate(619, 28)"/><path id="path_11494711-0221-4337-12ff-0823f2e1f37d" d="M2.71,-10.15 Q5.08,-9.51 13.67,-7.38 T23.83,-4.63 26.70,-2.90 28.88,-0.35 30.12,2.77 30.30,6.11 29.41,9.35 27.53,12.12 24.86,14.15 21.68,15.22 18.33,15.23 15.15,14.16 12.48,12.13 10.60,9.36 9.70,6.13 9.88,2.78 11.12,-0.34 13.29,-2.89 16.16,-4.62 19.43,-5.35 22.77,-4.99 25.81,-3.58 28.25,-1.27 29.82,1.69 30.36,5.00 29.82,8.30 28.25,11.27 25.82,13.57 22.78,14.98 19.44,15.35 17.75,15.26 8.71,13.02 -1.52,10.46 -3.88,9.67 -6.08,8.46 -7.93,6.76 -9.32,4.67 -10.17,2.30 -10.42,-0.20 -10.07,-2.69 -9.14,-5.02 -7.67,-7.06 -5.76,-8.69 -3.51,-9.81 -1.06,-10.37 1.45,-10.32 Z" fill="#FFFFFF" stroke="transparent" stroke-width="0" stroke-linejoin="round" stroke-linecap="round" pointer-events="all" transform="translate(607, 148)"/><path id="path_9bf2a139-3eac-4e14-2251-7b299993f03e" d="M10.50,0.00 Q10.50,4.44 10.50,15.04 T10.50,36.34 10.50,57.76 10.50,82.25 10.23,97.68 9.15,100.85 7.13,103.52 4.35,105.40 1.12,106.30 -2.23,106.12 -5.34,104.88 -7.90,102.71 -9.63,99.83 -10.35,96.56 -9.98,93.23 -8.58,90.18 -6.27,87.75 -3.31,86.18 0.00,85.64 3.31,86.18 6.27,87.75 8.58,90.19 9.98,93.23 10.35,96.56 9.62,99.84 7.90,102.71 5.34,104.88 2.22,106.12 -1.12,106.30 -4.35,105.40 -7.13,103.52 -9.16,100.85 -10.23,97.67 -10.50,96.00 -10.50,82.25 -10.50,57.76 -10.50,36.34 -10.50,15.04 -10.50,2.22 -10.35,-1.26 -9.75,-3.70 -8.58,-5.92 -6.91,-7.80 -4.84,-9.23 -2.49,-10.12 0.00,-10.42 2.50,-10.12 4.84,-9.23 6.91,-7.80 8.58,-5.92 9.75,-3.70 10.35,-1.26 Z" fill="#FFFFFF" stroke="transparent" stroke-width="0" stroke-linejoin="round" stroke-linecap="round" pointer-events="all" transform="translate(572, 25)"/><path id="path_ee947cfa-5094-4439-3a61-7ba133e3061e" d="M3.13,-10.02 Q5.67,-9.23 15.58,-7.31 T27.11,-4.88 30.11,-3.37 32.46,-0.98 33.93,2.03 34.36,5.36 33.70,8.65 32.03,11.55 29.52,13.77 26.43,15.07 23.08,15.32 19.83,14.49 17.02,12.66 14.94,10.03 13.81,6.88 13.74,3.52 14.75,0.33 16.73,-2.38 19.47,-4.32 22.68,-5.28 26.03,-5.16 29.17,-3.98 31.76,-1.86 33.55,0.98 34.33,4.24 34.04,7.58 32.69,10.65 30.43,13.13 27.50,14.75 24.20,15.36 22.50,15.39 10.96,13.10 -1.86,10.42 -4.29,9.50 -6.44,8.20 -8.21,6.42 -9.51,4.27 -10.25,1.87 -10.40,-0.64 -9.95,-3.11 -8.92,-5.40 -7.36,-7.38 -5.38,-8.92 -3.09,-9.95 -0.62,-10.40 1.89,-10.25 Z" fill="#FFFFFF" stroke="transparent" stroke-width="0" stroke-linejoin="round" stroke-linecap="round" pointer-events="all" transform="translate(562, 121)"/><path id="path_5289f336-feaa-43ff-3f2e-0f1215390f8d" d="M437.00,10.50 Q434.15,10.50 423.16,10.82 T401.34,12.14 381.71,18.91 370.71,35.51 365.38,56.34 358.51,76.68 351.20,97.45 343.53,118.02 330.09,134.61 308.17,142.22 284.97,144.01 262.89,145.53 240.32,147.00 218.29,147.94 195.75,148.37 173.26,148.48 151.19,148.49 129.43,148.50 106.96,148.50 84.02,148.50 61.66,148.50 38.95,148.50 14.30,148.50 -0.68,148.23 -3.85,147.15 -6.52,145.13 -8.40,142.35 -9.30,139.12 -9.12,135.77 -7.88,132.66 -5.71,130.10 -2.83,128.37 0.44,127.65 3.77,128.02 6.82,129.42 9.25,131.73 10.82,134.69 11.36,138.00 10.82,141.31 9.25,144.27 6.81,146.58 3.77,147.98 0.44,148.35 -2.84,147.62 -5.71,145.90 -7.88,143.34 -9.12,140.22 -9.30,136.88 -8.40,133.65 -6.52,130.87 -3.85,128.84 -0.67,127.77 1.00,127.50 18.06,127.50 46.49,127.50 69.20,127.50 91.71,127.50 114.41,127.50 137.03,127.50 159.11,127.49 181.04,127.46 202.85,127.28 224.50,126.70 246.47,125.64 268.35,124.18 290.92,122.65 312.63,117.97 326.44,103.85 333.79,83.46 341.04,63.05 347.35,42.26 352.45,20.74 362.61,1.34 380.69,-7.56 401.96,-8.93 423.37,-10.20 435.57,-10.50 438.26,-10.35 440.70,-9.75 442.92,-8.58 444.80,-6.91 446.23,-4.84 447.12,-2.49 447.42,0.00 447.12,2.50 446.23,4.84 444.80,6.91 442.92,8.58 440.70,9.75 438.26,10.35 Z" fill="#FFFFFF" stroke="transparent" stroke-width="0" stroke-linejoin="round" stroke-linecap="round" pointer-events="all" transform="translate(424, 533)"/><path id="path_2895e96f-3a39-49cd-3622-56e9859e4c9b" d="M404.36,10.49 Q399.77,10.65 387.20,10.90 T363.40,11.53 341.15,12.09 319.60,12.33 296.49,12.43 272.03,12.47 249.32,12.48 227.77,12.49 205.09,12.50 181.37,12.50 157.63,12.50 133.73,12.50 110.32,12.50 87.43,12.50 64.30,12.50 41.89,12.50 20.51,12.50 4.91,12.50 -1.68,12.23 -4.85,11.15 -7.52,9.13 -9.40,6.35 -10.30,3.12 -10.12,-0.23 -8.88,-3.34 -6.71,-5.90 -3.83,-7.63 -0.56,-8.35 2.77,-7.98 5.82,-6.58 8.25,-4.27 9.82,-1.31 10.36,2.00 9.82,5.31 8.25,8.27 5.81,10.58 2.77,11.98 -0.56,12.35 -3.84,11.62 -6.71,9.90 -8.88,7.34 -10.12,4.22 -10.30,0.88 -9.40,-2.35 -7.52,-5.13 -4.85,-7.16 -1.67,-8.23 0.00,-8.50 4.91,-8.50 20.51,-8.50 41.89,-8.50 64.30,-8.50 87.43,-8.50 110.32,-8.50 133.73,-8.50 157.63,-8.50 181.37,-8.50 205.09,-8.50 227.77,-8.51 249.31,-8.52 272.01,-8.53 296.42,-8.57 319.43,-8.67 340.77,-8.90 362.99,-9.46 386.69,-10.09 401.34,-10.41 404.90,-10.38 407.36,-9.87 409.62,-8.78 411.56,-7.18 413.06,-5.16 414.03,-2.84 414.42,-0.36 414.20,2.14 413.39,4.52 412.04,6.64 410.21,8.37 408.03,9.61 405.61,10.30 Z" fill="#FFFFFF" stroke="transparent" stroke-width="0" stroke-linejoin="round" stroke-linecap="round" pointer-events="all" transform="translate(452, 471)"/><path id="path_d3bf11bd-9dee-4493-19ec-f480d496a288" d="M10.44,-1.10 Q10.76,1.91 11.62,14.18 T12.30,28.13 11.40,31.36 9.51,34.14 6.84,36.16 3.66,37.23 0.31,37.22 -2.87,36.15 -5.53,34.12 -7.41,31.34 -8.30,28.11 -8.12,24.76 -6.87,21.65 -4.70,19.09 -1.82,17.37 1.45,16.65 4.79,17.02 7.83,18.43 10.26,20.74 11.82,23.71 12.36,27.02 11.81,30.32 10.24,33.28 7.80,35.59 4.76,36.99 1.42,37.35 -1.85,36.62 -4.72,34.89 -6.89,32.33 -8.12,29.21 -8.49,27.55 -9.31,15.83 -10.28,2.60 -10.42,-0.17 -10.08,-2.66 -9.15,-4.99 -7.69,-7.04 -5.78,-8.67 -3.54,-9.80 -1.09,-10.37 1.42,-10.33 3.85,-9.69 6.06,-8.48 7.91,-6.79 9.31,-4.70 10.16,-2.33 Z" fill="#FFFFFF" stroke="transparent" stroke-width="0" stroke-linejoin="round" stroke-linecap="round" pointer-events="all" transform="translate(857, 458)"/><path id="path_ec54e658-4eae-41ff-044e-c7257ca96464" d="M0.72,-9.48 Q5.32,-9.16 16.17,-8.59 T38.82,-7.59 61.22,-6.99 82.45,-6.73 104.66,-6.59 127.59,-6.53 149.66,-6.51 171.83,-6.75 194.27,-7.26 216.71,-7.81 239.16,-8.23 260.91,-9.13 283.56,-10.14 306.21,-10.45 318.63,-10.23 321.81,-9.18 324.49,-7.16 326.38,-4.39 327.30,-1.17 327.13,2.18 325.90,5.30 323.74,7.87 320.88,9.61 317.61,10.34 314.27,10.00 311.22,8.60 308.78,6.31 307.20,3.35 306.64,0.05 307.17,-3.26 308.72,-6.23 311.15,-8.55 314.18,-9.97 317.51,-10.35 320.79,-9.64 323.67,-7.93 325.85,-5.38 327.11,-2.27 327.31,1.07 326.42,4.31 324.55,7.09 321.89,9.13 318.72,10.22 317.05,10.50 304.79,10.56 282.03,10.90 260.93,11.90 239.44,12.76 217.32,13.18 194.16,13.77 171.30,14.29 149.65,14.49 127.55,14.47 104.56,14.41 82.25,14.27 60.85,14.01 37.93,13.39 14.79,12.36 1.58,11.63 -1.97,11.24 -4.36,10.47 -6.50,9.15 -8.26,7.36 -9.54,5.20 -10.27,2.79 -10.40,0.28 -9.92,-2.19 -8.87,-4.47 -7.31,-6.43 -5.32,-7.97 -3.02,-8.98 -0.54,-9.41 Z" fill="#FFFFFF" stroke="transparent" stroke-width="0" stroke-linejoin="round" stroke-linecap="round" pointer-events="all" transform="translate(434, 518)"/><path id="path_baa9ba6b-a784-4e90-05ac-68d0fc3f80f7" d="M10.32,-1.94 Q10.80,0.60 12.14,12.95 T13.31,26.99 12.46,30.24 10.61,33.03 7.96,35.09 4.80,36.20 1.45,36.24 -1.74,35.21 -4.44,33.22 -6.35,30.46 -7.29,27.25 -7.15,23.90 -5.94,20.77 -3.80,18.18 -0.95,16.42 2.31,15.66 5.65,15.98 8.71,17.35 11.17,19.63 12.78,22.57 13.36,25.88 12.86,29.19 11.32,32.17 8.92,34.51 5.89,35.95 2.56,36.35 -0.72,35.67 -3.61,33.98 -5.81,31.45 -7.09,28.35 -7.48,26.69 -8.66,15.58 -10.08,3.20 -10.40,0.67 -10.26,-1.84 -9.52,-4.24 -8.23,-6.39 -6.46,-8.18 -4.32,-9.49 -1.92,-10.25 0.59,-10.41 3.06,-9.96 5.36,-8.94 7.34,-7.40 8.90,-5.43 9.94,-3.14 Z" fill="#FFFFFF" stroke="transparent" stroke-width="0" stroke-linejoin="round" stroke-linecap="round" pointer-events="all" transform="translate(754, 508)"/><path id="path_63b459b0-d4c9-43db-08db-449d2af6c412" d="M0.27,-10.50 Q6.45,-10.34 18.85,-10.13 T43.46,-9.80 66.78,-9.13 89.61,-7.60 113.40,-5.94 136.13,-5.02 158.06,-4.66 180.58,-4.53 202.68,-4.51 224.25,-0.89 243.79,9.44 261.36,22.53 278.56,35.34 291.30,44.44 296.87,48.24 298.99,50.84 300.16,53.98 300.28,57.33 299.31,60.54 297.37,63.28 294.66,65.25 291.47,66.26 288.11,66.19 284.96,65.05 282.33,62.97 280.51,60.16 279.68,56.91 279.93,53.56 281.23,50.48 283.46,47.97 286.36,46.30 289.65,45.64 292.98,46.08 295.99,47.55 298.38,49.90 299.89,52.90 300.36,56.21 299.75,59.51 298.12,62.44 295.64,64.70 292.56,66.04 289.22,66.33 285.97,65.54 284.40,64.88 274.01,57.56 254.82,43.96 237.76,31.02 219.66,20.43 198.49,16.49 175.77,16.46 153.93,16.30 131.86,15.87 109.63,14.92 87.94,13.33 66.17,11.86 43.23,11.20 18.44,10.87 2.82,10.58 -1.52,10.31 -3.94,9.65 -6.14,8.42 -7.98,6.71 -9.35,4.61 -10.18,2.23 -10.42,-0.27 -10.05,-2.75 -9.10,-5.08 -7.62,-7.11 -5.70,-8.73 -3.44,-9.84 -0.99,-10.38 Z" fill="#FFFFFF" stroke="transparent" stroke-width="0" stroke-linejoin="round" stroke-linecap="round" pointer-events="all" transform="translate(440, 562)"/><path id="path_cf0f944a-c462-4692-19b3-3a5b61d54532" d="M29.15,5.15 Q27.72,7.68 20.67,16.59 T10.76,28.70 6.60,32.99 3.71,34.68 0.42,35.35 -2.91,34.95 -5.93,33.50 -8.33,31.16 -9.86,28.18 -10.36,24.86 -9.77,21.56 -8.16,18.62 -5.70,16.35 -2.64,14.98 0.70,14.66 3.97,15.43 6.81,17.19 8.95,19.78 10.15,22.91 10.28,26.26 9.34,29.48 7.42,32.23 4.73,34.22 1.54,35.25 -1.82,35.20 -4.98,34.09 -7.62,32.02 -9.46,29.22 -10.32,25.98 -10.09,22.63 -8.80,19.54 -7.91,18.09 0.76,7.74 10.14,-3.88 11.60,-6.17 13.32,-8.00 15.43,-9.37 17.80,-10.19 20.30,-10.42 22.79,-10.04 25.11,-9.08 27.14,-7.60 28.75,-5.67 29.85,-3.41 30.38,-0.95 30.31,1.56 29.63,3.98 Z" fill="#FFFFFF" stroke="transparent" stroke-width="0" stroke-linejoin="round" stroke-linecap="round" pointer-events="all" transform="translate(716, 606)"/><path id="path_9f4c9e63-17e7-47ec-2e05-70cb6e87e079" d="M223.00,10.50 Q218.72,10.50 207.35,10.50 T183.64,10.50 159.01,10.50 135.31,10.50 113.14,10.50 91.59,10.50 69.19,10.50 46.51,10.50 24.80,10.50 7.09,10.50 -1.68,10.23 -4.85,9.15 -7.52,7.13 -9.40,4.35 -10.30,1.12 -10.12,-2.23 -8.88,-5.34 -6.71,-7.90 -3.83,-9.63 -0.56,-10.35 2.77,-9.98 5.82,-8.58 8.25,-6.27 9.82,-3.31 10.36,0.00 9.82,3.31 8.25,6.27 5.81,8.58 2.77,9.98 -0.56,10.35 -3.84,9.62 -6.71,7.90 -8.88,5.34 -10.12,2.22 -10.30,-1.12 -9.40,-4.35 -7.52,-7.13 -4.85,-9.16 -1.67,-10.23 0.00,-10.50 7.09,-10.50 24.80,-10.50 46.51,-10.50 69.19,-10.50 91.59,-10.50 113.14,-10.50 135.31,-10.50 159.01,-10.50 183.64,-10.50 207.35,-10.50 220.86,-10.50 224.26,-10.35 226.70,-9.75 228.92,-8.58 230.80,-6.91 232.23,-4.84 233.12,-2.49 233.42,0.00 233.12,2.50 232.23,4.84 230.80,6.91 228.92,8.58 226.70,9.75 224.26,10.35 Z" fill="#FFFFFF" stroke="transparent" stroke-width="0" stroke-linejoin="round" stroke-linecap="round" pointer-events="all" transform="translate(443, 622)"/><path id="path_73b7b7cb-b8ad-472e-042d-79b3e59fcf7f" d="M10.50,0.00 Q10.50,3.01 10.50,12.01 T10.23,22.68 9.15,25.85 7.13,28.52 4.35,30.40 1.12,31.30 -2.23,31.12 -5.34,29.88 -7.90,27.71 -9.63,24.83 -10.35,21.56 -9.98,18.23 -8.58,15.18 -6.27,12.75 -3.31,11.18 0.00,10.64 3.31,11.18 6.27,12.75 8.58,15.19 9.98,18.23 10.35,21.56 9.62,24.84 7.90,27.71 5.34,29.88 2.22,31.12 -1.12,31.30 -4.35,30.40 -7.13,28.52 -9.16,25.85 -10.23,22.67 -10.50,21.00 -10.50,12.01 -10.50,1.51 -10.35,-1.26 -9.75,-3.70 -8.58,-5.92 -6.91,-7.80 -4.84,-9.23 -2.49,-10.12 0.00,-10.42 2.50,-10.12 4.84,-9.23 6.91,-7.80 8.58,-5.92 9.75,-3.70 10.35,-1.26 Z" fill="#FFFFFF" stroke="transparent" stroke-width="0" stroke-linejoin="round" stroke-linecap="round" pointer-events="all" transform="translate(667, 614)"/><path id="path_8bc3e6c9-a516-405d-201c-4396c28a6900" d="M10.50,0.00 Q10.50,2.69 10.50,14.85 T10.23,28.68 9.15,31.85 7.13,34.52 4.35,36.40 1.12,37.30 -2.23,37.12 -5.34,35.88 -7.90,33.71 -9.63,30.83 -10.35,27.56 -9.98,24.23 -8.58,21.18 -6.27,18.75 -3.31,17.18 0.00,16.64 3.31,17.18 6.27,18.75 8.58,21.19 9.98,24.23 10.35,27.56 9.62,30.84 7.90,33.71 5.34,35.88 2.22,37.12 -1.12,37.30 -4.35,36.40 -7.13,34.52 -9.16,31.85 -10.23,28.67 -10.50,27.00 -10.50,14.85 -10.50,1.35 -10.35,-1.26 -9.75,-3.70 -8.58,-5.92 -6.91,-7.80 -4.84,-9.23 -2.49,-10.12 0.00,-10.42 2.50,-10.12 4.84,-9.23 6.91,-7.80 8.58,-5.92 9.75,-3.70 10.35,-1.26 Z" fill="#FFFFFF" stroke="transparent" stroke-width="0" stroke-linejoin="round" stroke-linecap="round" pointer-events="all" transform="translate(864, 522)"/><path id="path_43b52fd7-fe64-40b6-2b5f-ccd3845dcea6" d="M70.55,13.49 Q67.54,13.64 56.30,14.67 T34.12,16.92 18.07,27.50 11.85,47.46 10.77,68.48 12.07,90.09 13.77,112.23 14.32,133.84 14.46,155.15 14.49,177.14 14.50,199.64 14.50,221.35 14.50,242.41 17.56,263.20 31.13,274.90 52.69,276.39 74.49,276.22 96.12,275.28 117.64,272.93 133.47,261.89 139.03,241.67 138.14,219.97 135.19,197.95 133.08,175.64 131.88,153.86 130.57,131.81 129.15,109.13 127.57,86.64 126.30,64.85 125.61,43.42 119.56,23.74 102.91,12.88 80.15,11.17 66.39,11.24 63.21,10.19 60.52,8.18 58.62,5.41 57.71,2.19 57.87,-1.16 59.09,-4.28 61.24,-6.85 64.10,-8.60 67.37,-9.34 70.71,-9.00 73.76,-7.61 76.21,-5.32 77.80,-2.37 78.36,0.93 77.84,4.25 76.29,7.22 73.87,9.54 70.84,10.97 67.51,11.35 64.23,10.65 61.34,8.94 59.16,6.40 57.89,3.29 57.69,-0.05 58.57,-3.29 60.43,-6.08 63.09,-8.12 66.26,-9.21 67.93,-9.50 74.10,-9.55 90.71,-9.83 111.61,-7.18 130.43,1.89 142.66,18.28 146.58,39.47 147.11,61.21 148.28,82.56 149.82,103.87 151.28,126.13 152.65,148.80 153.77,170.41 155.56,191.49 158.35,212.67 159.93,234.17 158.36,256.10 150.68,275.87 135.11,289.17 115.10,294.69 94.18,296.40 72.99,297.32 51.69,297.38 30.37,296.08 10.23,290.30 -2.76,275.05 -6.39,252.95 -6.50,230.59 -6.50,208.77 -6.50,187.14 -6.52,165.36 -6.60,142.99 -6.92,121.13 -8.05,100.14 -9.67,79.08 -10.10,57.30 -7.80,35.45 -1.03,15.53 13.57,1.41 34.14,-4.41 55.66,-6.34 67.94,-7.41 70.71,-7.40 73.18,-6.93 75.46,-5.88 77.43,-4.31 78.96,-2.32 79.98,-0.02 80.41,2.45 80.24,4.96 79.47,7.35 78.15,9.49 76.36,11.26 74.20,12.54 71.80,13.27 Z" fill="#FFFFFF" stroke="transparent" stroke-width="0" stroke-linejoin="round" stroke-linecap="round" pointer-events="all" transform="translate(1299, 518)"/><path id="path_9a35c00a-c858-4160-2875-3d1d861fe0e0" d="M0.42,-10.49 Q4.38,-10.33 15.52,-10.00 T38.42,-9.61 60.62,-9.53 81.78,-9.51 100.75,-9.50 110.68,-9.23 113.85,-8.15 116.52,-6.13 118.40,-3.35 119.30,-0.12 119.12,3.23 117.88,6.34 115.71,8.90 112.83,10.63 109.56,11.35 106.23,10.98 103.18,9.58 100.75,7.27 99.18,4.31 98.64,1.00 99.18,-2.31 100.75,-5.27 103.19,-7.58 106.23,-8.98 109.56,-9.35 112.84,-8.62 115.71,-6.90 117.88,-4.34 119.12,-1.22 119.30,2.12 118.40,5.35 116.52,8.13 113.85,10.16 110.67,11.23 109.00,11.50 99.51,11.50 79.58,11.49 58.05,11.47 35.71,11.37 14.00,10.97 1.56,10.57 -1.67,10.29 -4.08,9.59 -6.26,8.33 -8.07,6.59 -9.42,4.47 -10.21,2.09 -10.42,-0.42 -10.01,-2.90 -9.03,-5.21 -7.52,-7.22 -5.57,-8.81 -3.30,-9.89 -0.84,-10.39 Z" fill="#FFFFFF" stroke="transparent" stroke-width="0" stroke-linejoin="round" stroke-linecap="round" pointer-events="all" transform="translate(1157, 541)"/><path id="path_32b82ef6-0e75-48b5-14b8-f7996b16624a" d="M10.50,0.00 Q10.50,3.01 10.50,17.51 T10.23,33.68 9.15,36.85 7.13,39.52 4.35,41.40 1.12,42.30 -2.23,42.12 -5.34,40.88 -7.90,38.71 -9.63,35.83 -10.35,32.56 -9.98,29.23 -8.58,26.18 -6.27,23.75 -3.31,22.18 0.00,21.64 3.31,22.18 6.27,23.75 8.58,26.19 9.98,29.23 10.35,32.56 9.62,35.84 7.90,38.71 5.34,40.88 2.22,42.12 -1.12,42.30 -4.35,41.40 -7.13,39.52 -9.16,36.85 -10.23,33.67 -10.50,32.00 -10.50,17.51 -10.50,1.51 -10.35,-1.26 -9.75,-3.70 -8.58,-5.92 -6.91,-7.80 -4.84,-9.23 -2.49,-10.12 0.00,-10.42 2.50,-10.12 4.84,-9.23 6.91,-7.80 8.58,-5.92 9.75,-3.70 10.35,-1.26 Z" fill="#FFFFFF" stroke="transparent" stroke-width="0" stroke-linejoin="round" stroke-linecap="round" pointer-events="all" transform="translate(1266, 534)"/><path id="path_dac43791-17a6-4e64-0c00-a65eb6ecfc45" d="M10.50,0.00 Q10.50,3.33 10.50,17.66 T10.23,33.68 9.15,36.85 7.13,39.52 4.35,41.40 1.12,42.30 -2.23,42.12 -5.34,40.88 -7.90,38.71 -9.63,35.83 -10.35,32.56 -9.98,29.23 -8.58,26.18 -6.27,23.75 -3.31,22.18 0.00,21.64 3.31,22.18 6.27,23.75 8.58,26.19 9.98,29.23 10.35,32.56 9.62,35.84 7.90,38.71 5.34,40.88 2.22,42.12 -1.12,42.30 -4.35,41.40 -7.13,39.52 -9.16,36.85 -10.23,33.67 -10.50,32.00 -10.50,17.66 -10.50,1.66 -10.35,-1.26 -9.75,-3.70 -8.58,-5.92 -6.91,-7.80 -4.84,-9.23 -2.49,-10.12 0.00,-10.42 2.50,-10.12 4.84,-9.23 6.91,-7.80 8.58,-5.92 9.75,-3.70 10.35,-1.26 Z" fill="#FFFFFF" stroke="transparent" stroke-width="0" stroke-linejoin="round" stroke-linecap="round" pointer-events="all" transform="translate(1156, 524)"/><path id="path_d21f9879-1226-4fbb-2570-b494e5532d84" d="M10.50,0.00 Q10.50,3.80 10.50,14.57 T10.50,35.78 10.50,56.76 11.48,78.22 19.29,97.19 33.82,112.90 48.47,128.75 62.42,144.70 77.17,159.79 91.93,175.36 106.20,191.38 121.06,206.58 136.29,221.61 154.62,229.42 175.82,229.97 197.32,230.39 218.89,230.49 241.06,230.50 264.14,230.50 286.59,230.50 308.40,230.50 330.30,230.50 352.79,230.50 374.76,230.50 395.90,230.50 414.74,230.50 424.68,230.77 427.85,231.85 430.52,233.87 432.40,236.65 433.30,239.88 433.12,243.23 431.88,246.34 429.71,248.90 426.83,250.63 423.56,251.35 420.23,250.98 417.18,249.58 414.75,247.27 413.18,244.31 412.64,241.00 413.18,237.69 414.75,234.73 417.19,232.42 420.23,231.02 423.56,230.65 426.84,231.38 429.71,233.10 431.88,235.66 433.12,238.78 433.30,242.12 432.40,245.35 430.52,248.13 427.85,250.16 424.67,251.23 423.00,251.50 413.75,251.50 394.00,251.50 372.73,251.50 350.68,251.50 328.29,251.50 306.21,251.50 283.68,251.50 260.78,251.50 238.15,251.50 215.77,251.48 194.18,251.37 172.44,250.85 150.30,249.40 129.42,241.42 111.52,227.07 96.06,211.60 81.26,194.81 66.50,178.67 51.31,163.34 36.83,147.23 22.65,131.42 7.89,116.39 -4.75,99.22 -10.24,78.38 -10.50,56.76 -10.50,35.78 -10.50,14.57 -10.50,1.90 -10.35,-1.26 -9.75,-3.70 -8.58,-5.92 -6.91,-7.80 -4.84,-9.23 -2.49,-10.12 0.00,-10.42 2.50,-10.12 4.84,-9.23 6.91,-7.80 8.58,-5.92 9.75,-3.70 10.35,-1.26 Z" fill="#FFFFFF" stroke="transparent" stroke-width="0" stroke-linejoin="round" stroke-linecap="round" pointer-events="all" transform="translate(1083, 608)"/><path id="path_c5a9b3a3-3a2a-4aa6-0edb-7c4d48fdc5ac" d="M0.00,-10.50 Q2.85,-10.50 13.83,-10.50 T29.90,-10.50 36.68,-10.23 39.85,-9.15 42.52,-7.13 44.40,-4.35 45.30,-1.12 45.12,2.23 43.88,5.34 41.71,7.90 38.83,9.63 35.56,10.35 32.23,9.98 29.18,8.58 26.75,6.27 25.18,3.31 24.64,-0.00 25.18,-3.31 26.75,-6.27 29.19,-8.58 32.23,-9.98 35.56,-10.35 38.84,-9.62 41.71,-7.90 43.88,-5.34 45.12,-2.22 45.30,1.12 44.40,4.35 42.52,7.13 39.85,9.16 36.67,10.23 35.00,10.50 29.90,10.50 13.83,10.50 1.43,10.50 -1.26,10.35 -3.70,9.75 -5.92,8.58 -7.80,6.91 -9.23,4.84 -10.12,2.49 -10.42,-0.00 -10.12,-2.50 -9.23,-4.84 -7.80,-6.91 -5.92,-8.58 -3.70,-9.75 -1.26,-10.35 Z" fill="#FFFFFF" stroke="transparent" stroke-width="0" stroke-linejoin="round" stroke-linecap="round" pointer-events="all" transform="translate(1065, 604)"/><path id="path_899fc732-1cac-4dea-3ee9-a617df5cd8fe" d="M133.04,143.45 Q129.87,143.76 118.94,145.02 T95.76,146.91 75.62,140.76 60.52,125.30 46.91,107.24 34.39,88.19 23.27,69.16 13.99,49.50 5.66,29.59 -3.53,12.95 -9.39,4.38 -10.30,1.15 -10.13,-2.20 -8.90,-5.31 -6.73,-7.88 -3.87,-9.61 -0.59,-10.34 2.74,-9.99 5.79,-8.59 8.23,-6.30 9.81,-3.34 10.36,-0.03 9.83,3.28 8.27,6.25 5.84,8.56 2.80,9.98 -0.53,10.35 -3.81,9.64 -6.68,7.92 -8.86,5.37 -10.11,2.26 -10.30,-1.09 -9.42,-4.32 -7.54,-7.10 -4.88,-9.14 -1.71,-10.22 1.65,-10.23 4.83,-9.17 7.50,-7.15 8.67,-5.92 14.46,1.93 24.52,20.11 32.87,40.23 42.07,59.59 52.84,78.09 64.50,95.78 77.75,113.22 95.57,123.61 116.97,124.10 129.37,122.71 132.22,122.58 134.71,122.93 137.04,123.88 139.08,125.35 140.70,127.26 141.82,129.51 142.37,131.96 142.32,134.48 141.67,136.90 140.45,139.10 138.74,140.95 136.65,142.33 134.28,143.17 Z" fill="#FFFFFF" stroke="transparent" stroke-width="0" stroke-linejoin="round" stroke-linecap="round" pointer-events="all" transform="translate(1143, 638)"/><path id="path_0fbc2a3c-66a0-44fb-06db-7ef14e665a16" d="M-3.16,5.99 Q-0.15,5.04 9.54,-0.16 T22.53,-7.25 27.42,-9.73 30.72,-10.36 34.04,-9.91 37.04,-8.42 39.41,-6.05 40.90,-3.04 41.36,0.28 40.73,3.57 39.08,6.49 36.58,8.73 33.50,10.06 30.16,10.33 26.91,9.52 24.08,7.71 21.98,5.10 20.82,1.95 20.73,-1.40 21.72,-4.60 23.67,-7.33 26.40,-9.28 29.60,-10.27 32.95,-10.18 36.10,-9.02 38.71,-6.92 40.52,-4.09 41.33,-0.84 41.06,2.50 39.73,5.58 37.49,8.08 36.17,9.14 30.73,12.71 15.73,20.67 4.67,25.54 1.92,26.25 -0.59,26.41 -3.06,25.96 -5.36,24.94 -7.34,23.40 -8.90,21.43 -9.94,19.14 -10.40,16.67 -10.26,14.16 -9.52,11.76 -8.23,9.60 -6.46,7.82 -4.31,6.51 Z" fill="#FFFFFF" stroke="transparent" stroke-width="0" stroke-linejoin="round" stroke-linecap="round" pointer-events="all" transform="translate(1125, 625)"/><path id="path_2b050836-dc94-41a5-00ad-316b3299545f" d="M83.00,100.50 Q80.15,100.50 68.94,100.50 T46.98,98.14 30.37,86.82 19.76,67.93 10.46,48.57 2.15,29.36 -5.48,12.18 -9.87,3.15 -10.36,-0.17 -9.76,-3.47 -8.15,-6.40 -5.68,-8.67 -2.61,-10.03 0.73,-10.34 3.99,-9.56 6.84,-7.79 8.96,-5.20 10.15,-2.06 10.28,1.29 9.33,4.50 7.41,7.25 4.70,9.23 1.51,10.25 -1.84,10.20 -5.00,9.07 -7.64,7.00 -9.47,4.20 -10.32,0.95 -10.08,-2.39 -8.79,-5.49 -6.58,-8.01 -3.68,-9.69 -0.39,-10.35 2.94,-9.94 5.95,-8.48 8.35,-6.13 9.36,-4.77 11.53,-0.49 18.14,14.21 27.30,34.63 36.46,54.10 49.32,71.53 68.94,79.50 81.57,79.50 84.26,79.65 86.70,80.25 88.92,81.42 90.80,83.09 92.23,85.16 93.12,87.51 93.42,90.00 93.12,92.50 92.23,94.84 90.80,96.91 88.92,98.58 86.70,99.75 84.26,100.35 Z" fill="#FFFFFF" stroke="transparent" stroke-width="0" stroke-linejoin="round" stroke-linecap="round" pointer-events="all" transform="translate(1198, 610)"/><path id="path_3463646a-83eb-43d9-345a-03ec73ea7a8b" d="M-2.55,-4.19 Q-0.01,-4.82 10.20,-7.50 T22.11,-10.32 25.45,-10.07 28.54,-8.76 31.04,-6.53 32.71,-3.62 33.36,-0.33 32.92,2.99 31.45,6.00 29.09,8.38 26.09,9.89 22.77,10.36 19.48,9.74 16.55,8.11 14.30,5.62 12.96,2.55 12.67,-0.79 13.46,-4.05 15.25,-6.88 17.86,-8.99 21.00,-10.17 24.35,-10.27 27.56,-9.31 30.29,-7.36 32.26,-4.65 33.26,-1.45 33.19,1.90 32.04,5.06 29.96,7.68 27.14,9.50 25.59,10.18 15.33,12.86 3.81,15.87 1.29,16.34 -1.22,16.35 -3.66,15.76 -5.89,14.60 -7.78,12.94 -9.21,10.87 -10.11,8.53 -10.42,6.03 -10.13,3.54 -9.25,1.19 -7.82,-0.89 -5.95,-2.56 -3.73,-3.73 Z" fill="#FFFFFF" stroke="transparent" stroke-width="0" stroke-linejoin="round" stroke-linecap="round" pointer-events="all" transform="translate(1188, 597)"/><path id="path_63f242f7-631b-416c-07d4-36a86c2c1cd4" d="M571.50,0.00 Q571.50,5.39 571.50,16.74 T571.50,39.01 571.50,60.99 571.50,83.07 571.50,104.55 568.09,125.82 557.35,144.59 542.40,159.91 527.20,174.78 511.85,189.63 496.23,203.97 480.78,218.40 466.03,233.41 449.51,247.10 428.32,253.75 405.57,254.68 383.86,255.21 361.49,255.40 338.90,255.47 317.32,255.49 294.54,255.50 269.69,255.50 245.69,255.50 222.20,255.50 199.58,255.79 178.74,256.18 156.04,256.34 132.14,256.42 108.86,256.47 86.02,256.49 64.01,257.13 42.12,258.52 20.03,259.77 5.13,260.39 -0.39,260.27 -3.59,259.29 -6.32,257.33 -8.28,254.61 -9.27,251.41 -9.18,248.06 -8.02,244.91 -5.93,242.29 -3.10,240.49 0.15,239.67 3.49,239.94 6.57,241.26 9.07,243.50 10.72,246.42 11.36,249.71 10.91,253.03 9.42,256.04 7.05,258.41 4.05,259.90 0.73,260.36 -2.57,259.73 -5.49,258.08 -7.73,255.59 -9.05,252.51 -9.33,249.17 -8.52,245.91 -6.72,243.09 -4.11,240.98 -0.96,239.83 0.71,239.50 4.58,239.40 19.03,238.80 40.84,237.56 63.46,236.15 86.01,235.49 108.83,235.47 132.08,235.42 155.94,235.34 180.62,235.14 203.89,234.75 227.23,234.50 251.57,234.50 275.65,234.50 299.94,234.50 323.03,234.49 345.16,234.46 368.11,234.36 390.86,234.09 413.30,233.53 435.02,229.10 452.47,217.30 467.29,202.17 483.01,187.48 499.56,172.30 515.73,156.69 531.09,141.37 544.57,124.41 550.50,104.55 550.50,83.07 550.50,60.99 550.50,39.01 550.50,16.74 550.50,2.69 550.65,-1.26 551.25,-3.70 552.42,-5.92 554.09,-7.80 556.16,-9.23 558.51,-10.12 561.00,-10.42 563.50,-10.12 565.84,-9.23 567.91,-7.80 569.58,-5.92 570.75,-3.70 571.35,-1.26 Z" fill="#FFFFFF" stroke="transparent" stroke-width="0" stroke-linejoin="round" stroke-linecap="round" pointer-events="all" transform="translate(401, 607)"/><path id="path_1c92cd93-f40d-4245-0852-61655a7b605d" d="M0.00,-10.50 Q2.54,-10.50 15.27,-10.50 T29.68,-10.23 32.85,-9.15 35.52,-7.13 37.40,-4.35 38.30,-1.12 38.12,2.23 36.88,5.34 34.71,7.90 31.83,9.63 28.56,10.35 25.23,9.98 22.18,8.58 19.75,6.27 18.18,3.31 17.64,-0.00 18.18,-3.31 19.75,-6.27 22.19,-8.58 25.23,-9.98 28.56,-10.35 31.84,-9.62 34.71,-7.90 36.88,-5.34 38.12,-2.22 38.30,1.12 37.40,4.35 35.52,7.13 32.85,9.16 29.67,10.23 28.00,10.50 15.27,10.50 1.27,10.50 -1.26,10.35 -3.70,9.75 -5.92,8.58 -7.80,6.91 -9.23,4.84 -10.12,2.49 -10.42,-0.00 -10.12,-2.50 -9.23,-4.84 -7.80,-6.91 -5.92,-8.58 -3.70,-9.75 -1.26,-10.35 Z" fill="#FFFFFF" stroke="transparent" stroke-width="0" stroke-linejoin="round" stroke-linecap="round" pointer-events="all" transform="translate(948, 607)"/><path id="path_4d224c73-f595-4b48-06ed-f36556f52775" d="M-0.28,97.50 Q5.75,97.35 18.45,97.13 T43.76,96.80 68.36,97.01 91.28,98.09 114.37,99.90 138.49,101.67 162.59,102.76 186.35,103.28 208.51,103.44 230.42,103.48 253.35,103.25 276.91,101.81 300.21,99.05 322.53,96.00 342.96,90.03 359.37,76.35 372.59,58.81 383.69,41.23 393.64,22.50 407.76,2.69 418.18,-8.57 421.22,-9.98 424.55,-10.35 427.83,-9.63 430.70,-7.90 432.87,-5.35 434.12,-2.24 434.30,1.11 433.41,4.34 431.53,7.12 428.86,9.15 425.68,10.22 422.33,10.23 419.15,9.16 416.48,7.13 414.60,4.36 413.70,1.13 413.88,-2.22 415.12,-5.34 417.29,-7.89 420.16,-9.62 423.43,-10.35 426.77,-9.99 429.81,-8.58 432.24,-6.28 433.82,-3.31 434.36,-0.01 433.82,3.30 432.25,6.27 431.23,7.62 427.67,11.03 418.11,23.07 407.44,41.10 396.92,60.10 384.17,78.57 370.38,96.05 353.86,109.64 332.94,115.87 311.19,118.69 289.29,121.48 267.12,123.52 245.53,124.41 224.03,124.48 202.76,124.41 181.40,124.22 159.99,123.71 137.25,122.63 113.07,120.86 89.82,119.04 67.61,117.98 43.98,117.80 18.87,118.13 3.29,118.42 -0.98,118.38 -3.44,117.84 -5.69,116.73 -7.62,115.11 -9.10,113.08 -10.05,110.76 -10.42,108.27 -10.18,105.77 -9.35,103.40 -7.98,101.30 -6.14,99.58 -3.95,98.35 -1.53,97.69 Z" fill="#FFFFFF" stroke="transparent" stroke-width="0" stroke-linejoin="round" stroke-linecap="round" pointer-events="all" transform="translate(434, 606)"/><path id="path_d7ce507f-8664-4d67-137e-c468e2a6e30c" d="M6.38,-8.34 Q9.07,-6.28 20.94,2.87 T33.91,13.31 35.63,16.19 36.35,19.46 35.98,22.79 34.56,25.83 32.25,28.26 29.29,29.83 25.98,30.36 22.67,29.81 19.71,28.23 17.41,25.80 16.01,22.75 15.65,19.42 16.38,16.14 18.12,13.27 20.68,11.11 23.80,9.88 27.14,9.70 30.37,10.61 33.14,12.49 35.17,15.17 36.23,18.35 36.22,21.70 35.14,24.88 33.11,27.54 30.33,29.41 27.10,30.30 23.75,30.11 20.64,28.87 19.18,27.99 16.20,25.41 4.77,16.62 -5.03,9.37 -7.28,7.46 -8.86,5.50 -9.91,3.22 -10.40,0.75 -10.27,-1.76 -9.55,-4.17 -8.28,-6.33 -6.52,-8.13 -4.39,-9.45 -2.00,-10.23 0.51,-10.41 2.99,-9.99 5.29,-8.98 Z" fill="#FFFFFF" stroke="transparent" stroke-width="0" stroke-linejoin="round" stroke-linecap="round" pointer-events="all" transform="translate(850, 591)"/><path id="path_71e2a0ac-5224-4ec3-3e6f-f590d7a02f67" d="M492.00,5.40 Q490.58,7.78 484.57,16.78 T472.49,34.86 460.06,52.59 447.32,69.65 434.30,86.33 420.90,103.24 404.58,116.34 383.80,121.55 361.40,122.38 339.53,122.47 318.45,122.49 295.66,122.79 271.55,123.21 248.73,124.16 226.27,125.79 203.90,127.57 182.42,129.23 160.94,130.47 138.28,132.07 116.19,133.81 95.13,134.94 73.12,135.80 50.98,136.34 29.12,135.72 8.67,134.23 -2.32,133.10 -5.43,131.83 -7.96,129.63 -9.66,126.74 -10.35,123.46 -9.96,120.13 -8.52,117.10 -6.19,114.69 -3.21,113.15 0.10,112.64 3.40,113.21 6.35,114.81 8.63,117.27 10.01,120.32 10.34,123.66 9.59,126.93 7.83,129.78 5.26,131.93 2.13,133.14 -1.22,133.29 -4.44,132.36 -7.20,130.45 -9.20,127.76 -10.24,124.58 -10.21,121.22 -9.11,118.06 -7.05,115.41 -4.26,113.55 -1.02,112.69 0.67,112.52 11.54,113.47 33.28,114.92 55.30,115.27 77.29,114.64 99.48,113.65 121.24,112.39 142.14,110.79 163.45,109.38 185.47,108.02 208.02,106.26 229.82,104.41 251.72,102.92 275.09,102.16 297.52,101.75 319.93,101.49 342.42,101.47 363.45,101.36 384.37,100.26 401.92,91.62 416.01,75.28 429.53,58.16 442.53,40.96 454.84,23.52 466.62,5.91 473.28,-4.21 474.77,-6.40 476.54,-8.18 478.69,-9.49 481.09,-10.25 483.60,-10.41 486.07,-9.96 488.36,-8.94 490.35,-7.39 491.90,-5.42 492.94,-3.13 493.40,-0.66 493.26,1.85 492.52,4.25 Z" fill="#FFFFFF" stroke="transparent" stroke-width="0" stroke-linejoin="round" stroke-linecap="round" pointer-events="all" transform="translate(428, 635)"/><path id="path_420b897e-2d0a-493f-2e87-78e3c7a9d13f" d="M6.30,-8.40 Q8.84,-6.50 18.02,0.19 T28.53,7.95 30.76,10.46 32.07,13.55 32.32,16.89 31.50,20.14 29.68,22.95 27.06,25.04 23.91,26.18 20.55,26.26 17.35,25.26 14.64,23.29 12.70,20.56 11.73,17.35 11.83,14.00 13.00,10.86 15.12,8.25 17.95,6.46 21.21,5.67 24.55,5.96 27.62,7.30 30.11,9.55 31.74,12.47 32.36,15.77 31.89,19.09 30.39,22.09 28.00,24.44 24.99,25.92 21.67,26.36 18.38,25.71 16.79,25.12 6.51,17.71 -5.03,9.35 -7.21,7.52 -8.80,5.58 -9.88,3.31 -10.39,0.85 -10.29,-1.66 -9.59,-4.08 -8.34,-6.25 -6.60,-8.07 -4.48,-9.41 -2.09,-10.21 0.41,-10.42 2.89,-10.01 5.20,-9.03 Z" fill="#FFFFFF" stroke="transparent" stroke-width="0" stroke-linejoin="round" stroke-linecap="round" pointer-events="all" transform="translate(902, 621)"/><path id="path_5e78eb19-4eb1-42ea-3010-1b142bca1063" d="M-0.26,-7.50 Q6.24,-7.66 18.26,-7.87 T40.97,-8.20 63.73,-8.13 86.77,-7.35 108.90,-5.77 132.04,-4.04 155.16,-2.96 177.11,-2.22 199.51,-1.71 223.44,-1.70 246.20,-2.21 267.02,-2.87 288.78,-3.74 311.41,-5.14 333.65,-6.67 355.80,-8.58 377.87,-10.12 390.45,-10.26 393.65,-9.26 396.36,-7.29 398.30,-4.56 399.27,-1.35 399.17,2.00 398.00,5.14 395.88,7.75 393.05,9.54 389.79,10.33 386.45,10.04 383.38,8.70 380.89,6.45 379.26,3.53 378.64,0.23 379.11,-3.09 380.61,-6.09 383.00,-8.44 386.01,-9.92 389.33,-10.36 392.62,-9.71 395.53,-8.04 397.76,-5.54 399.07,-2.45 399.32,0.89 398.50,4.14 396.68,6.96 394.05,9.05 390.90,10.19 389.23,10.50 378.11,10.91 356.61,12.42 335.33,14.26 312.86,15.81 289.55,17.24 265.60,18.20 242.89,18.92 221.70,19.36 199.18,19.29 176.24,18.76 154.14,18.02 130.91,16.93 107.53,15.18 85.86,13.63 63.59,12.87 41.22,12.80 18.67,13.13 3.51,13.42 -1.00,13.37 -3.46,12.83 -5.71,11.72 -7.63,10.10 -9.11,8.07 -10.06,5.74 -10.42,3.25 -10.18,0.75 -9.34,-1.62 -7.97,-3.72 -6.13,-5.43 -3.93,-6.65 -1.51,-7.31 Z" fill="#FFFFFF" stroke="transparent" stroke-width="0" stroke-linejoin="round" stroke-linecap="round" pointer-events="all" transform="translate(433, 798)"/><path id="path_6f6805da-b2a8-486a-0ddf-93a88b4b7b21" d="M10.50,0.00 Q10.50,2.69 10.50,13.35 T10.23,25.68 9.15,28.85 7.13,31.52 4.35,33.40 1.12,34.30 -2.23,34.12 -5.34,32.88 -7.90,30.71 -9.63,27.83 -10.35,24.56 -9.98,21.23 -8.58,18.18 -6.27,15.75 -3.31,14.18 0.00,13.64 3.31,14.18 6.27,15.75 8.58,18.19 9.98,21.23 10.35,24.56 9.62,27.84 7.90,30.71 5.34,32.88 2.22,34.12 -1.12,34.30 -4.35,33.40 -7.13,31.52 -9.16,28.85 -10.23,25.67 -10.50,24.00 -10.50,13.35 -10.50,1.35 -10.35,-1.26 -9.75,-3.70 -8.58,-5.92 -6.91,-7.80 -4.84,-9.23 -2.49,-10.12 0.00,-10.42 2.50,-10.12 4.84,-9.23 6.91,-7.80 8.58,-5.92 9.75,-3.70 10.35,-1.26 Z" fill="#FFFFFF" stroke="transparent" stroke-width="0" stroke-linejoin="round" stroke-linecap="round" pointer-events="all" transform="translate(827, 784)"/><path id="path_22bb1e9b-1b10-448c-113f-6a1f09f19452" d="M13.49,0.39 Q13.33,4.67 12.86,15.40 T12.05,37.04 11.64,59.04 11.53,81.40 11.51,104.17 11.50,126.85 11.41,149.14 11.00,170.77 10.78,192.14 11.16,213.75 11.47,237.25 11.23,251.67 10.16,254.84 8.13,257.52 5.36,259.40 2.13,260.30 -1.22,260.12 -4.33,258.88 -6.89,256.72 -8.62,253.84 -9.35,250.57 -8.99,247.24 -7.58,244.19 -5.28,241.76 -2.32,240.18 0.99,239.64 4.30,240.18 7.26,241.75 9.57,244.18 10.98,247.22 11.35,250.55 10.63,253.83 8.90,256.70 6.35,258.87 3.24,260.12 -0.11,260.30 -3.34,259.41 -6.12,257.53 -8.15,254.86 -9.22,251.68 -9.50,250.01 -9.53,237.33 -9.91,213.40 -10.29,191.55 -9.98,169.94 -9.57,148.48 -9.50,126.85 -9.49,104.16 -9.47,81.36 -9.36,58.83 -8.93,36.29 -8.12,14.44 -7.57,1.75 -7.29,-1.64 -6.60,-4.05 -5.35,-6.23 -3.62,-8.05 -1.50,-9.40 0.88,-10.21 3.39,-10.42 5.87,-10.02 8.18,-9.04 10.20,-7.54 11.79,-5.60 12.88,-3.33 13.39,-0.87 Z" fill="#FFFFFF" stroke="transparent" stroke-width="0" stroke-linejoin="round" stroke-linecap="round" pointer-events="all" transform="translate(1008, 617)"/><path id="path_62c2ba20-cddb-4025-0495-00c572a574c3" d="M75.56,8.20 Q71.60,11.37 63.04,18.83 T46.93,34.82 32.66,51.37 18.74,67.09 9.18,76.89 5.36,79.87 2.25,81.11 -1.10,81.30 -4.33,80.41 -7.11,78.54 -9.14,75.87 -10.22,72.70 -10.23,69.34 -9.16,66.17 -7.14,63.49 -4.37,61.60 -1.14,60.70 2.21,60.88 5.32,62.11 7.88,64.28 9.62,67.15 10.35,70.42 9.99,73.75 8.59,76.80 6.29,79.24 3.33,80.81 0.02,81.36 -3.29,80.83 -6.26,79.26 -8.57,76.83 -9.98,73.79 -10.35,70.46 -9.63,67.18 -7.91,64.31 -6.81,63.01 -4.60,61.10 4.81,51.17 19.30,34.54 34.37,17.52 50.31,2.05 60.46,-6.61 63.52,-8.86 65.80,-9.92 68.27,-10.40 70.77,-10.27 73.18,-9.55 75.34,-8.27 77.14,-6.51 78.46,-4.37 79.23,-1.98 79.41,0.52 78.98,3.00 77.97,5.30 76.44,7.30 Z" fill="#FFFFFF" stroke="transparent" stroke-width="0" stroke-linejoin="round" stroke-linecap="round" pointer-events="all" transform="translate(907, 786)"/><path id="path_37b4f4f3-7ce3-4248-1e53-f32c1c38fca2" d="M10.36,-1.73 Q10.83,1.13 13.11,14.32 T15.36,29.21 14.75,32.51 13.12,35.44 10.64,37.69 7.57,39.04 4.23,39.33 0.97,38.54 -1.87,36.76 -3.99,34.16 -5.16,31.02 -5.28,27.67 -4.31,24.46 -2.37,21.72 0.34,19.75 3.54,18.74 6.89,18.81 10.04,19.95 12.67,22.03 14.49,24.85 15.32,28.09 15.07,31.44 13.77,34.53 11.54,37.04 8.63,38.70 5.35,39.36 2.02,38.92 -0.99,37.45 -3.38,35.10 -4.89,32.10 -5.39,30.48 -7.64,17.53 -10.12,3.15 -10.41,0.46 -10.22,-2.04 -9.43,-4.43 -8.10,-6.56 -6.30,-8.31 -4.12,-9.57 -1.71,-10.28 0.80,-10.39 3.26,-9.90 5.54,-8.83 7.49,-7.25 9.01,-5.25 10.00,-2.94 Z" fill="#FFFFFF" stroke="transparent" stroke-width="0" stroke-linejoin="round" stroke-linecap="round" pointer-events="all" transform="translate(975, 771)"/><path id="path_aa616aad-b400-49de-2a8c-0dd6c631a266" d="M1.65,-10.48 Q4.19,-10.32 15.71,-9.91 T28.90,-9.19 32.06,-8.04 34.68,-5.96 36.50,-3.14 37.32,0.11 37.07,3.45 35.76,6.54 33.53,9.04 30.62,10.71 27.33,11.36 24.01,10.92 21.00,9.44 18.61,7.09 17.11,4.09 16.64,0.77 17.26,-2.53 18.89,-5.45 21.38,-7.70 24.45,-9.04 27.79,-9.33 31.05,-8.54 33.88,-6.75 36.00,-4.14 37.17,-1.00 37.27,2.35 36.30,5.56 34.36,8.29 31.65,10.26 28.45,11.26 26.77,11.50 14.82,11.07 1.61,10.56 -0.90,10.25 -3.30,9.50 -5.44,8.19 -7.22,6.41 -8.51,4.26 -9.26,1.86 -9.40,-0.65 -8.95,-3.12 -7.91,-5.41 -6.36,-7.39 -4.37,-8.93 -2.08,-9.96 0.39,-10.41 Z" fill="#FFFFFF" stroke="transparent" stroke-width="0" stroke-linejoin="round" stroke-linecap="round" pointer-events="all" transform="translate(998, 610)"/><path id="path_25658609-be58-4025-1a78-b7f3e4dea87e" d="M9.09,-5.25 Q11.47,-1.13 16.73,8.77 T28.24,29.05 40.70,48.31 53.05,65.65 65.83,82.71 83.47,103.47 95.45,117.01 96.92,120.02 97.36,123.35 96.70,126.64 95.03,129.54 92.52,131.77 89.43,133.07 86.09,133.32 82.84,132.49 80.03,130.67 77.95,128.04 76.81,124.89 76.74,121.53 77.75,118.33 79.72,115.62 82.46,113.69 85.67,112.72 89.02,112.84 92.16,114.01 94.76,116.13 96.55,118.97 97.33,122.23 97.04,125.57 95.69,128.64 93.44,131.12 90.51,132.75 87.21,133.36 83.89,132.88 80.90,131.37 79.53,130.38 73.35,124.00 60.38,109.25 47.11,92.59 33.97,75.17 21.02,56.75 9.12,38.05 -1.61,18.99 -7.91,7.31 -9.59,4.08 -10.29,1.67 -10.39,-0.84 -9.89,-3.30 -8.81,-5.57 -7.22,-7.52 -5.21,-9.03 -2.90,-10.01 -0.42,-10.42 2.09,-10.21 4.47,-9.42 6.60,-8.07 8.34,-6.26 Z" fill="#FFFFFF" stroke="transparent" stroke-width="0" stroke-linejoin="round" stroke-linecap="round" pointer-events="all" transform="translate(1058, 745)"/><path id="path_e8dc32e2-31fe-4a7f-1916-b8953721fdd0" d="M-1.23,-6.43 Q1.47,-6.75 13.22,-8.52 T26.67,-10.36 29.99,-9.92 33.00,-8.45 35.39,-6.09 36.89,-3.09 37.36,0.23 36.74,3.53 35.11,6.45 32.62,8.70 29.55,10.04 26.21,10.33 22.95,9.54 20.12,7.75 18.00,5.14 16.83,2.00 16.73,-1.35 17.70,-4.56 19.64,-7.29 22.35,-9.26 25.55,-10.26 28.90,-10.19 32.06,-9.04 34.68,-6.96 36.50,-4.14 37.32,-0.89 37.07,2.45 35.76,5.54 33.53,8.05 30.62,9.71 29.03,10.30 16.48,12.21 2.57,14.27 -0.04,14.42 -2.53,14.11 -4.88,13.21 -6.94,11.78 -8.60,9.89 -9.76,7.66 -10.35,5.22 -10.34,2.70 -9.73,0.27 -8.56,-1.95 -6.88,-3.83 -4.81,-5.25 -2.46,-6.13 Z" fill="#FFFFFF" stroke="transparent" stroke-width="0" stroke-linejoin="round" stroke-linecap="round" pointer-events="all" transform="translate(1042, 732)"/></svg>