<svg xmlns="http://www.w3.org/2000/svg" viewBox="833 81 491 738" width="80" height="80"><path id="path_e8693fa4-efdc-480b-15d3-43dd0939dad9" d="M139.50,531.00 Q139.50,527.35 139.26,516.54 T138.35,494.99 137.60,473.61 133.12,452.98 118.32,439.04 97.87,430.60 79.23,420.04 61.46,406.45 44.18,390.42 29.81,373.31 18.52,354.24 9.62,332.34 3.16,310.62 -1.65,288.97 -5.28,266.71 -7.77,244.83 -9.38,221.61 -9.82,197.06 -8.54,173.96 -5.12,152.91 0.51,131.85 7.81,111.25 16.64,91.34 27.83,72.05 41.66,54.04 56.99,38.30 73.98,25.52 93.21,14.92 113.18,6.27 134.26,-0.79 156.55,-5.89 179.03,-8.82 201.61,-10.08 223.90,-10.39 245.60,-10.47 266.64,-10.17 288.30,-7.78 310.58,-1.74 331.67,7.54 349.89,19.36 366.30,34.06 381.50,51.08 394.03,69.75 404.25,89.43 412.77,109.91 418.41,130.94 420.63,152.54 420.57,175.44 418.97,197.59 416.00,220.67 411.78,243.63 406.93,264.05 401.39,284.38 394.49,305.65 386.30,327.08 376.17,348.56 363.76,370.03 351.59,389.60 337.78,406.26 319.62,417.58 299.62,425.00 283.82,437.67 277.80,457.29 277.52,478.34 277.50,499.68 277.50,521.26 277.23,533.68 276.15,536.85 274.13,539.52 271.35,541.40 268.12,542.30 264.77,542.12 261.66,540.88 259.10,538.71 257.37,535.83 256.65,532.56 257.02,529.23 258.42,526.18 260.73,523.75 263.69,522.18 267.00,521.64 270.31,522.18 273.27,523.75 275.58,526.19 276.98,529.23 277.35,532.56 276.62,535.84 274.90,538.71 272.34,540.88 269.22,542.12 265.88,542.30 262.65,541.40 259.87,539.52 257.84,536.85 256.77,533.67 256.50,532.00 256.50,526.67 256.50,510.37 256.50,488.65 256.57,467.07 257.56,445.56 263.63,425.71 278.96,411.22 299.74,402.52 319.30,393.34 334.02,378.10 345.95,358.93 357.46,339.09 366.90,319.04 374.68,298.70 381.74,276.39 388.25,251.96 393.65,227.14 397.38,202.30 399.42,178.56 399.72,156.60 397.65,135.08 392.09,114.48 383.18,94.10 372.42,74.55 359.42,57.27 344.11,42.04 325.86,28.78 305.60,18.77 285.03,13.03 263.75,10.75 242.46,10.54 220.94,10.63 199.31,10.98 178.01,12.29 156.23,15.55 134.42,20.96 113.60,28.58 94.10,38.13 76.20,49.88 60.17,64.70 46.39,82.11 35.05,101.43 26.06,121.96 19.06,142.93 14.07,164.76 11.43,186.43 11.15,208.72 12.29,231.52 14.21,253.01 17.24,275.21 21.63,297.34 27.29,318.47 34.93,339.68 46.64,360.25 61.12,377.77 76.55,391.74 93.85,404.28 112.64,414.31 132.48,422.42 150.35,434.76 158.29,453.50 158.61,474.51 159.40,495.60 160.29,516.80 160.50,529.18 160.35,532.26 159.75,534.70 158.58,536.92 156.91,538.80 154.84,540.23 152.49,541.12 150.00,541.42 147.50,541.12 145.16,540.23 143.09,538.80 141.42,536.92 140.25,534.70 139.65,532.26 Z" fill="#FFFFFF" stroke="transparent" stroke-width="0" stroke-linejoin="round" stroke-linecap="round" pointer-events="all" transform="translate(873, 121)"/><path id="path_754fb377-1ea4-4999-0713-9b023ba55be9" d="M97.50,382.00 Q97.50,378.04 97.31,366.78 T96.02,344.70 94.30,323.04 93.60,301.64 93.52,280.04 93.22,257.86 91.72,236.07 89.73,215.04 87.75,193.28 84.93,170.55 82.39,148.19 79.94,125.20 76.73,99.79 72.97,73.25 68.63,49.00 62.74,28.13 48.90,14.88 28.05,14.50 14.60,27.68 16.06,47.75 29.77,63.35 49.69,72.14 71.63,76.97 94.71,78.98 116.96,77.99 137.86,74.79 158.66,70.16 178.81,63.23 196.89,52.80 209.10,36.50 203.97,21.02 190.67,25.30 184.96,46.03 183.18,68.12 182.23,90.52 180.92,113.05 178.23,135.29 174.44,156.98 170.85,178.35 167.38,200.39 163.67,222.52 160.23,243.90 156.61,264.76 152.84,286.06 150.03,308.09 148.77,330.48 148.55,352.61 146.96,373.65 144.87,386.97 143.75,391.51 142.12,394.44 139.64,396.69 136.57,398.04 133.23,398.33 129.97,397.54 127.13,395.76 125.01,393.16 123.84,390.02 123.72,386.67 124.69,383.46 126.63,380.72 129.34,378.75 132.54,377.74 135.89,377.81 139.04,378.95 141.67,381.03 143.49,383.85 144.32,387.09 144.07,390.44 142.77,393.53 140.54,396.04 137.63,397.70 134.35,398.36 131.02,397.92 128.01,396.45 125.62,394.10 124.11,391.10 123.64,387.78 123.68,386.09 125.47,378.40 127.41,360.19 127.64,338.08 128.32,315.80 130.57,293.87 133.96,272.35 137.68,251.38 141.27,229.82 144.75,207.97 148.43,186.00 152.05,163.83 156.02,141.60 159.39,119.65 161.05,97.93 161.76,76.01 163.23,54.09 165.92,32.23 171.75,11.71 185.90,-1.85 206.37,-3.40 224.59,6.45 232.38,25.30 228.39,46.59 216.35,63.82 198.64,76.84 178.03,86.22 156.72,92.40 134.34,96.76 111.37,99.66 88.64,99.82 65.93,97.38 43.26,92.11 21.51,83.01 4.19,69.39 -5.98,50.67 -7.66,27.88 0.54,7.25 16.97,-5.37 37.47,-8.85 58.27,-5.07 74.83,7.34 84.69,27.47 90.35,50.74 94.34,73.46 97.59,97.35 100.81,122.89 103.39,146.95 106.11,170.73 108.95,194.32 110.98,217.25 112.94,238.76 114.29,259.95 114.52,281.90 114.61,303.52 115.37,324.64 117.12,345.67 118.34,367.02 118.50,380.02 118.35,383.26 117.75,385.70 116.58,387.92 114.91,389.80 112.84,391.23 110.49,392.12 108.00,392.42 105.50,392.12 103.16,391.23 101.09,389.80 99.42,387.92 98.25,385.70 97.65,383.26 Z" fill="#FFFFFF" stroke="transparent" stroke-width="0" stroke-linejoin="round" stroke-linecap="round" pointer-events="all" transform="translate(955, 264)"/><path id="path_638729f8-e8fb-4c19-1c4d-0fd9c62c8e62" d="M9.12,-5.21 Q10.38,-2.99 17.65,5.73 T35.55,15.90 56.84,17.42 78.55,16.04 96.79,7.75 104.73,-0.62 106.69,-3.34 109.41,-5.29 112.62,-6.27 115.97,-6.17 119.12,-5.01 121.73,-2.90 123.53,-0.08 124.33,3.18 124.05,6.52 122.72,9.60 120.48,12.09 117.55,13.73 114.26,14.36 110.94,13.90 107.94,12.40 105.57,10.03 104.09,7.02 103.64,3.70 104.28,0.41 105.94,-2.51 108.44,-4.74 111.52,-6.06 114.86,-6.33 118.12,-5.51 120.94,-3.70 123.03,-1.08 124.18,2.07 124.26,5.42 124.03,7.10 122.97,10.51 114.22,21.90 96.59,33.61 76.01,37.91 54.88,38.41 33.82,37.05 14.03,30.51 -1.51,16.33 -8.48,6.32 -9.61,4.04 -10.30,1.63 -10.39,-0.89 -9.87,-3.35 -8.78,-5.61 -7.19,-7.55 -5.17,-9.05 -2.85,-10.02 -0.37,-10.42 2.13,-10.20 4.51,-9.40 6.63,-8.04 8.36,-6.22 Z" fill="#FFFFFF" stroke="transparent" stroke-width="0" stroke-linejoin="round" stroke-linecap="round" pointer-events="all" transform="translate(1024, 656)"/><path id="path_de850b57-f0e9-46ab-3193-8709f68021c0" d="M4.94,-9.26 Q7.32,-8.00 11.73,1.79 T12.14,12.10 6.93,12.28 4.60,11.33 2.57,9.84 0.95,7.92 -0.16,5.67 -0.69,3.21 -0.63,0.70 0.04,-1.72 1.26,-3.92 2.98,-5.75 5.08,-7.13 7.46,-7.96 9.96,-8.19 19.37,-1.69 19.03,10.93 3.08,9.65 3.22,-2.52 12.52,-7.35 15.85,-6.96 18.88,-5.53 21.30,-3.21 22.84,-0.23 23.36,3.08 22.79,6.38 21.20,9.33 18.75,11.62 15.70,13.00 12.36,13.34 9.09,12.60 6.23,10.85 4.08,8.27 2.86,5.15 2.71,1.80 3.63,-1.42 5.53,-4.18 8.22,-6.19 11.40,-7.24 14.76,-7.21 17.92,-6.12 20.58,-4.07 22.44,-1.28 23.31,1.96 23.10,5.31 21.84,8.41 19.65,10.95 16.76,12.66 15.18,13.27 11.66,12.94 6.93,12.28 4.60,11.33 2.57,9.85 0.95,7.92 -0.15,5.67 -0.69,3.21 -0.63,0.70 0.04,-1.72 1.26,-3.92 2.98,-5.75 5.08,-7.13 7.46,-7.96 9.96,-8.19 12.63,-8.52 23.44,-4.19 25.85,9.34 8.15,14.35 -3.75,9.90 -5.98,8.54 -7.85,6.86 -9.26,4.78 -10.14,2.43 -10.42,-0.07 -10.10,-2.56 -9.20,-4.91 -7.76,-6.96 -5.86,-8.62 -3.63,-9.77 -1.19,-10.36 1.33,-10.34 3.76,-9.72 Z" fill="#FFFFFF" stroke="transparent" stroke-width="0" stroke-linejoin="round" stroke-linecap="round" pointer-events="all" transform="translate(1065, 649)"/><path id="path_923aa260-7d25-4a23-1905-da986048cce5" d="M10.50,0.00 Q10.50,2.85 10.73,13.37 T21.53,26.39 42.75,30.80 63.88,33.03 84.83,32.62 98.85,21.99 101.98,8.08 101.66,2.37 102.40,-0.90 104.15,-3.76 106.71,-5.91 109.84,-7.13 113.19,-7.29 116.41,-6.38 119.17,-4.48 121.19,-1.79 122.24,1.39 122.21,4.74 121.12,7.91 119.08,10.57 116.29,12.43 113.05,13.31 109.71,13.10 106.60,11.84 104.06,9.66 102.35,6.77 101.65,3.49 102.03,0.16 103.46,-2.87 105.78,-5.29 108.76,-6.84 112.07,-7.36 115.37,-6.80 118.32,-5.21 120.61,-2.76 122.00,0.29 122.45,1.93 122.91,7.74 121.88,23.88 113.27,42.34 95.18,52.45 73.07,54.28 51.57,53.11 30.75,50.04 10.10,45.40 -5.09,33.66 -10.28,13.68 -10.50,1.43 -10.35,-1.26 -9.75,-3.70 -8.58,-5.92 -6.91,-7.80 -4.84,-9.23 -2.49,-10.12 0.00,-10.42 2.50,-10.12 4.84,-9.23 6.91,-7.80 8.58,-5.92 9.75,-3.70 10.35,-1.26 Z" fill="#FFFFFF" stroke="transparent" stroke-width="0" stroke-linejoin="round" stroke-linecap="round" pointer-events="all" transform="translate(1025, 670)"/><path id="path_3fd3d601-40df-48c8-1a2c-a71200cf2149" d="M10.50,0.00 Q10.50,2.54 10.96,12.93 T21.35,27.22 41.77,31.30 61.28,25.87 70.92,12.55 72.03,3.20 73.44,0.16 75.76,-2.27 78.72,-3.83 82.03,-4.36 85.34,-3.81 88.30,-2.23 90.60,0.21 91.99,3.26 92.34,6.60 91.61,9.87 89.87,12.73 87.31,14.90 84.19,16.13 80.84,16.30 77.62,15.39 74.85,13.50 72.83,10.82 71.77,7.64 71.78,4.29 72.86,1.11 74.90,-1.55 77.68,-3.42 80.92,-4.30 84.26,-4.11 87.37,-2.86 89.92,-0.68 91.64,2.20 92.35,5.48 92.43,7.17 91.77,15.89 87.75,34.63 74.25,48.45 52.99,52.33 31.24,51.85 10.34,47.14 -4.87,33.62 -10.15,13.40 -10.50,1.27 -10.35,-1.26 -9.75,-3.70 -8.58,-5.92 -6.91,-7.80 -4.84,-9.23 -2.49,-10.12 0.00,-10.42 2.50,-10.12 4.84,-9.23 6.91,-7.80 8.58,-5.92 9.75,-3.70 10.35,-1.26 Z" fill="#FFFFFF" stroke="transparent" stroke-width="0" stroke-linejoin="round" stroke-linecap="round" pointer-events="all" transform="translate(1044, 709)"/><path id="path_17618fd9-e174-486b-090a-7a4a6a506513" d="M10.30,-2.06 Q10.77,0.32 16.19,-0.07 T22.11,-2.08 23.61,-5.08 25.99,-7.44 29.00,-8.92 32.32,-9.36 35.61,-8.71 38.53,-7.05 40.75,-4.54 42.07,-1.46 42.32,1.89 41.50,5.14 39.68,7.95 37.06,10.04 33.91,11.18 30.56,11.26 27.36,10.26 24.64,8.29 22.70,5.56 21.73,2.35 21.83,-1.00 23.00,-4.14 25.11,-6.74 27.95,-8.54 31.21,-9.33 34.55,-9.04 37.62,-7.71 40.11,-5.46 41.74,-2.53 42.36,0.77 42.40,2.46 40.63,10.01 30.21,24.38 10.68,27.37 -5.01,13.98 -10.06,3.25 -10.39,0.80 -10.28,-1.71 -9.57,-4.12 -8.31,-6.30 -6.56,-8.10 -4.43,-9.43 -2.04,-10.22 0.46,-10.41 2.94,-10.00 5.25,-9.01 7.25,-7.49 8.83,-5.54 9.90,-3.26 Z" fill="#FFFFFF" stroke="transparent" stroke-width="0" stroke-linejoin="round" stroke-linecap="round" pointer-events="all" transform="translate(1073, 757)"/></svg>