<svg xmlns="http://www.w3.org/2000/svg" viewBox="596 205 717 626" width="80" height="80"><path id="path_0b00bf65-7528-46b9-2612-f8e3e3c30785" d="M-6.34,199.63 Q-0.47,195.19 8.94,188.47 T29.28,174.90 51.49,161.30 73.26,148.23 94.81,135.41 117.55,122.22 141.53,108.37 166.73,93.82 192.41,79.16 219.18,64.61 243.00,52.30 262.57,42.54 285.54,31.09 308.94,19.01 339.97,2.24 362.46,-9.74 365.75,-10.36 369.07,-9.90 372.07,-8.40 374.43,-6.02 375.91,-3.01 376.36,0.31 375.72,3.60 374.06,6.52 371.55,8.75 368.47,10.06 365.13,10.32 361.88,9.51 359.06,7.69 356.96,5.07 355.82,1.92 355.74,-1.43 356.73,-4.63 358.70,-7.35 361.43,-9.30 364.63,-10.27 367.98,-10.17 371.13,-9.00 373.73,-6.89 375.53,-4.06 376.33,-0.81 376.05,2.53 374.71,5.61 372.47,8.10 371.14,9.16 357.06,16.99 332.93,30.10 311.52,41.29 290.87,51.91 271.98,61.31 252.48,71.04 228.94,83.19 202.63,97.50 177.20,112.02 151.94,126.61 128.00,140.43 105.52,153.47 83.97,166.29 62.30,179.30 40.63,192.57 21.15,205.55 9.27,214.15 5.24,217.01 2.93,218.00 0.45,218.41 -2.05,218.22 -4.44,217.43 -6.57,216.10 -8.31,214.29 -9.58,212.12 -10.28,209.71 -10.39,207.20 -9.90,204.73 -8.83,202.46 -7.25,200.51 Z" fill="#FFFFFF" stroke="transparent" stroke-width="0" stroke-linejoin="round" stroke-linecap="round" pointer-events="all" transform="translate(674, 245)"/><path id="path_41a0f383-29d5-47d5-0f57-96cfe56d4f00" d="M6.78,-8.02 Q8.84,-6.27 16.90,1.28 T33.56,16.10 50.72,29.53 68.77,41.93 88.39,53.91 108.34,65.37 127.17,77.43 144.09,90.53 159.62,104.41 174.25,117.03 182.44,123.79 184.35,126.54 185.29,129.76 185.14,133.11 183.94,136.24 181.80,138.82 178.94,140.58 175.68,141.34 172.34,141.01 169.28,139.64 166.82,137.36 165.22,134.42 164.64,131.11 165.14,127.80 166.68,124.82 169.09,122.49 172.12,121.05 175.45,120.65 178.73,121.33 181.62,123.03 183.82,125.56 185.09,128.66 185.31,132.01 184.45,135.25 182.60,138.04 179.95,140.10 176.79,141.21 173.44,141.24 170.25,140.21 168.74,139.43 162.54,134.67 148.26,122.53 131.87,107.84 114.25,94.09 95.16,81.93 75.18,70.38 55.87,58.55 37.85,46.11 20.26,32.43 3.43,17.48 -5.75,8.89 -7.64,7.09 -9.12,5.05 -10.06,2.72 -10.42,0.24 -10.17,-2.26 -9.34,-4.63 -7.96,-6.73 -6.11,-8.44 -3.92,-9.66 -1.49,-10.32 1.02,-10.37 3.47,-9.83 5.73,-8.71 Z" fill="#FFFFFF" stroke="transparent" stroke-width="0" stroke-linejoin="round" stroke-linecap="round" pointer-events="all" transform="translate(674, 459)"/><path id="path_a8c984ea-af13-43ca-35cc-e2019a729c90" d="M-6.69,241.90 Q-3.04,238.89 5.65,231.57 T22.75,217.63 39.22,204.17 56.48,189.89 75.56,175.13 94.86,161.47 115.86,147.57 136.99,134.08 156.46,122.20 175.37,110.96 194.20,100.03 213.99,88.56 232.89,77.30 251.01,66.00 269.26,53.60 287.77,40.69 307.08,27.89 326.47,15.70 345.14,4.27 362.44,-5.43 372.21,-9.98 375.54,-10.35 378.81,-9.63 381.69,-7.91 383.87,-5.36 385.11,-2.25 385.30,1.10 384.41,4.33 382.54,7.11 379.87,9.14 376.70,10.22 373.35,10.23 370.17,9.17 367.49,7.14 365.61,4.37 364.70,1.14 364.88,-2.21 366.11,-5.32 368.28,-7.88 371.14,-9.62 374.42,-10.35 377.75,-9.99 380.80,-8.59 383.24,-6.29 384.81,-3.33 385.36,-0.02 384.83,3.29 383.26,6.25 380.83,8.56 379.43,9.52 366.90,16.38 344.56,29.31 324.69,41.68 304.80,54.63 285.64,67.80 267.32,80.36 248.52,92.37 228.67,104.27 209.50,115.48 188.73,127.55 167.31,140.18 148.16,151.86 127.26,165.20 106.78,178.75 88.07,192.00 69.59,206.28 52.45,220.48 35.74,234.13 18.89,247.88 8.51,256.59 5.62,258.78 3.36,259.87 0.90,260.38 -1.61,260.30 -4.03,259.61 -6.21,258.37 -8.04,256.64 -9.39,254.52 -10.20,252.14 -10.42,249.64 -10.03,247.16 -9.06,244.84 -7.56,242.82 Z" fill="#FFFFFF" stroke="transparent" stroke-width="0" stroke-linejoin="round" stroke-linecap="round" pointer-events="all" transform="translate(849, 340)"/><path id="path_222bcf86-ad6d-43ca-0a7c-c8ca165319cd" d="M3.32,-9.96 Q6.17,-9.01 16.34,-4.67 T36.14,4.91 55.96,15.69 76.20,26.68 96.26,37.22 116.01,46.33 135.32,55.40 154.10,65.64 173.88,75.12 186.80,80.37 190.56,82.26 193.06,84.49 194.72,87.41 195.36,90.70 194.91,94.02 193.43,97.03 191.06,99.40 188.06,100.90 184.74,101.36 181.45,100.73 178.52,99.09 176.28,96.60 174.95,93.52 174.67,90.18 175.47,86.92 177.27,84.10 179.88,81.99 183.03,80.83 186.38,80.73 189.59,81.71 192.31,83.66 194.27,86.38 195.26,89.58 195.18,92.93 194.03,96.08 191.93,98.70 189.11,100.51 185.86,101.33 182.52,101.06 180.87,100.65 168.78,95.85 147.39,85.92 128.28,75.51 108.52,66.03 87.96,56.58 68.13,46.37 49.73,36.38 30.44,25.75 9.92,15.53 -1.89,10.44 -4.46,9.42 -6.59,8.08 -8.33,6.27 -9.59,4.09 -10.29,1.68 -10.39,-0.83 -9.89,-3.30 -8.81,-5.57 -7.22,-7.51 -5.22,-9.02 -2.90,-10.01 -0.42,-10.41 2.08,-10.21 Z" fill="#FFFFFF" stroke="transparent" stroke-width="0" stroke-linejoin="round" stroke-linecap="round" pointer-events="all" transform="translate(1040, 247)"/><path id="path_e1f72f36-f0bd-4d27-0b21-21fbc2ec4f7b" d="M44.32,6.40 Q42.74,8.46 36.38,17.69 T24.68,35.84 14.71,55.85 9.35,68.47 7.43,71.22 4.74,73.21 1.55,74.25 -1.80,74.20 -4.97,73.09 -7.61,71.03 -9.46,68.23 -10.31,64.99 -10.09,61.64 -8.81,58.55 -6.61,56.02 -3.71,54.33 -0.43,53.65 2.90,54.05 5.92,55.50 8.33,57.83 9.86,60.82 10.36,64.13 9.78,67.43 8.17,70.38 5.71,72.65 2.64,74.02 -0.69,74.34 -3.96,73.58 -6.81,71.81 -8.95,69.23 -10.15,66.10 -10.29,62.75 -10.08,61.06 -8.27,55.42 -1.81,40.42 8.33,22.10 19.95,4.40 26.89,-5.37 28.56,-7.30 30.53,-8.87 32.81,-9.92 35.28,-10.40 37.79,-10.27 40.19,-9.54 42.36,-8.26 44.15,-6.50 45.47,-4.36 46.24,-1.97 46.41,0.54 45.98,3.01 44.97,5.31 Z" fill="#FFFFFF" stroke="transparent" stroke-width="0" stroke-linejoin="round" stroke-linecap="round" pointer-events="all" transform="translate(637, 455)"/><path id="path_4ab91364-b1dd-40bc-04cb-b25fbbd0e37c" d="M10.48,-0.58 Q10.64,2.27 11.02,13.03 T11.92,34.41 12.47,55.83 12.50,72.32 12.23,79.68 11.16,82.85 9.13,85.52 6.35,87.40 3.12,88.30 -0.23,88.12 -3.34,86.88 -5.90,84.71 -7.63,81.84 -8.35,78.56 -7.98,75.23 -6.58,72.19 -4.27,69.75 -1.31,68.18 2.00,67.64 5.31,68.18 8.27,69.75 10.58,72.19 11.98,75.23 12.35,78.56 11.63,81.84 9.90,84.71 7.34,86.88 4.23,88.12 0.88,88.30 -2.35,87.40 -5.13,85.52 -7.16,82.85 -8.23,79.67 -8.50,78.00 -8.50,72.83 -8.53,57.05 -9.07,35.98 -9.96,14.48 -10.40,2.01 -10.40,-0.68 -9.94,-3.15 -8.89,-5.44 -7.33,-7.41 -5.35,-8.95 -3.05,-9.97 -0.58,-10.41 1.93,-10.24 4.33,-9.48 6.47,-8.17 8.24,-6.39 9.53,-4.23 10.26,-1.83 Z" fill="#FFFFFF" stroke="transparent" stroke-width="0" stroke-linejoin="round" stroke-linecap="round" pointer-events="all" transform="translate(849, 593)"/><path id="path_4b6852e7-d198-4a80-283d-0c29d58e7e17" d="M-5.76,278.97 Q-2.75,276.43 6.62,268.97 T25.13,254.61 43.04,240.71 60.63,226.36 78.38,212.27 96.39,199.14 115.58,185.76 136.51,171.63 156.51,158.70 175.80,146.04 194.60,133.24 211.99,121.24 229.52,109.34 247.58,97.28 266.26,84.97 284.62,73.03 302.17,61.36 319.22,49.40 336.25,35.85 353.29,21.27 370.04,7.47 383.93,-3.70 390.97,-9.06 394.13,-10.19 397.48,-10.25 400.68,-9.24 403.39,-7.27 405.32,-4.53 406.28,-1.31 406.16,2.04 404.98,5.17 402.85,7.77 400.02,9.55 396.75,10.33 393.42,10.03 390.35,8.68 387.87,6.42 386.24,3.49 385.64,0.19 386.12,-3.12 387.64,-6.12 390.03,-8.47 393.04,-9.93 396.37,-10.36 399.66,-9.70 402.56,-8.02 404.78,-5.51 406.08,-2.42 406.32,0.93 405.48,4.18 403.65,6.98 402.51,8.24 395.19,14.06 379.02,27.19 362.03,41.48 345.86,55.14 328.66,68.41 310.61,80.98 291.81,93.44 272.40,106.14 253.08,118.83 234.48,131.31 216.74,143.65 198.80,155.98 181.10,167.75 163.23,179.32 143.66,192.09 123.61,205.81 105.35,218.71 88.12,231.28 71.01,244.83 53.83,258.92 36.57,272.32 19.38,285.62 9.27,293.76 6.70,295.72 4.45,296.84 2.00,297.38 -0.52,297.31 -2.94,296.65 -5.13,295.43 -6.97,293.71 -8.35,291.61 -9.18,289.24 -9.42,286.74 -9.05,284.25 -8.10,281.93 -6.63,279.89 Z" fill="#FFFFFF" stroke="transparent" stroke-width="0" stroke-linejoin="round" stroke-linecap="round" pointer-events="all" transform="translate(855, 383)"/><path id="path_b49804d1-ca8d-4101-2669-2ea7c0ca507b" d="M9.00,-5.40 Q10.43,-3.02 16.00,5.84 T27.71,22.86 34.75,32.45 36.06,35.53 36.32,38.87 35.51,42.12 33.69,44.94 31.07,47.04 27.92,48.18 24.57,48.26 21.37,47.27 18.65,45.30 16.70,42.57 15.73,39.37 15.83,36.01 17.00,32.87 19.11,30.26 21.94,28.47 25.19,27.67 28.53,27.95 31.61,29.29 34.10,31.54 35.74,34.46 36.36,37.75 35.89,41.07 34.40,44.07 32.02,46.44 29.01,47.92 25.68,48.36 22.39,47.71 19.48,46.05 18.16,44.99 11.04,35.53 -1.83,16.92 -8.29,6.59 -9.52,4.25 -10.26,1.84 -10.40,-0.66 -9.94,-3.13 -8.90,-5.42 -7.35,-7.40 -5.36,-8.94 -3.07,-9.96 -0.59,-10.41 1.91,-10.25 4.31,-9.49 6.46,-8.18 8.23,-6.40 Z" fill="#FFFFFF" stroke="transparent" stroke-width="0" stroke-linejoin="round" stroke-linecap="round" pointer-events="all" transform="translate(1229, 342)"/><path id="path_09331d41-7df3-4b55-107d-b8321d54bf1b" d="M204.52,160.96 Q201.67,159.22 192.72,153.63 T174.48,142.07 155.84,129.78 137.43,117.24 119.03,105.40 100.78,94.04 83.13,81.38 66.17,67.86 49.32,53.74 32.79,39.22 16.35,25.84 0.23,13.47 -8.37,6.11 -9.88,3.12 -10.36,-0.20 -9.75,-3.50 -8.13,-6.43 -5.65,-8.69 -2.58,-10.04 0.76,-10.33 4.02,-9.55 6.86,-7.77 8.98,-5.17 10.16,-2.03 10.28,1.32 9.32,4.53 7.38,7.27 4.68,9.25 1.48,10.26 -1.87,10.19 -5.03,9.06 -7.66,6.98 -9.49,4.17 -10.32,0.92 -10.07,-2.42 -8.77,-5.51 -6.55,-8.03 -3.65,-9.70 -0.36,-10.36 2.97,-9.93 5.98,-8.46 7.37,-7.48 14.51,-1.93 30.30,10.12 47.09,23.84 63.56,38.29 80.85,52.63 98.02,66.24 114.99,78.38 132.76,89.38 150.42,100.70 167.77,112.54 185.26,124.09 203.34,135.51 214.05,142.17 216.47,143.83 218.24,145.61 219.53,147.77 220.26,150.17 220.40,152.68 219.94,155.15 218.89,157.44 217.33,159.41 215.35,160.95 213.05,161.97 210.58,162.41 208.07,162.24 205.68,161.48 Z" fill="#FFFFFF" stroke="transparent" stroke-width="0" stroke-linejoin="round" stroke-linecap="round" pointer-events="all" transform="translate(636, 520)"/><path id="path_07e58cbf-243a-4d19-1c68-6d8273e258ba" d="M10.50,0.00 Q10.50,3.17 10.68,13.74 T17.89,32.04 31.66,48.89 41.58,68.85 45.95,90.72 47.70,112.47 48.36,133.72 48.48,146.96 48.35,150.94 47.77,153.38 46.62,155.62 44.97,157.51 42.91,158.96 40.57,159.87 38.08,160.19 35.58,159.91 33.23,159.04 31.15,157.63 29.46,155.76 28.28,153.55 27.65,151.12 27.50,140.93 27.78,130.32 28.85,127.15 30.88,124.48 33.65,122.60 36.88,121.70 40.23,121.88 43.34,123.12 45.90,125.29 47.63,128.17 48.35,131.44 47.98,134.77 46.57,137.82 44.27,140.25 41.31,141.82 38.00,142.36 34.69,141.82 31.73,140.25 29.42,137.81 28.02,134.77 27.65,131.44 28.38,128.16 30.10,125.29 32.66,123.12 35.78,121.88 39.12,121.70 42.35,122.60 45.13,124.48 47.16,127.15 48.23,130.33 48.50,132.00 48.50,140.84 48.35,150.93 47.77,153.38 46.62,155.62 44.97,157.51 42.92,158.96 40.57,159.87 38.08,160.19 35.58,159.91 33.23,159.04 31.15,157.63 29.46,155.77 28.28,153.55 27.65,151.12 27.48,146.38 27.34,132.32 26.62,110.59 24.43,88.37 18.19,67.94 5.18,52.01 -6.67,35.24 -10.33,14.09 -10.50,1.58 -10.35,-1.26 -9.75,-3.70 -8.58,-5.92 -6.91,-7.80 -4.84,-9.23 -2.49,-10.12 0.00,-10.42 2.50,-10.12 4.84,-9.23 6.91,-7.80 8.58,-5.92 9.75,-3.70 10.35,-1.26 Z" fill="#FFFFFF" stroke="transparent" stroke-width="0" stroke-linejoin="round" stroke-linecap="round" pointer-events="all" transform="translate(897, 636)"/><path id="path_707dce08-43dd-481b-1495-99be603e7b9f" d="M-8.50,169.00 Q-8.50,165.99 -8.50,155.45 T-8.50,134.22 -9.45,113.02 -10.32,91.69 -6.74,70.06 2.63,50.43 6.16,31.38 -0.35,12.79 -4.98,2.80 -5.35,-0.53 -4.64,-3.81 -2.92,-6.69 -0.37,-8.86 2.74,-10.11 6.09,-10.30 9.32,-9.42 12.10,-7.54 14.14,-4.88 15.22,-1.71 15.23,1.65 14.17,4.83 12.15,7.50 9.38,9.39 6.15,10.30 2.80,10.13 -0.32,8.89 -2.88,6.73 -4.62,3.86 -5.34,0.59 -4.99,-2.75 -3.59,-5.79 -1.29,-8.23 1.67,-9.81 4.97,-10.36 8.28,-9.83 11.25,-8.27 13.56,-5.84 14.52,-4.44 15.82,-1.61 21.98,10.88 28.27,31.03 26.28,51.92 17.07,71.28 10.93,91.17 11.55,112.80 12.50,134.20 12.50,155.45 12.50,167.49 12.35,170.26 11.75,172.70 10.58,174.92 8.91,176.80 6.84,178.23 4.49,179.12 2.00,179.42 -0.50,179.12 -2.84,178.23 -4.91,176.80 -6.58,174.92 -7.75,172.70 -8.35,170.26 Z" fill="#FFFFFF" stroke="transparent" stroke-width="0" stroke-linejoin="round" stroke-linecap="round" pointer-events="all" transform="translate(936, 612)"/><path id="path_1d7033ac-6472-4585-2aef-85e35fc12f77" d="M10.22,-2.40 Q10.85,0.29 13.30,10.86 T17.26,32.08 27.82,48.32 43.08,63.14 52.26,82.96 56.24,103.99 57.38,125.43 57.49,142.20 57.23,149.67 56.16,152.84 54.13,155.52 51.36,157.40 48.13,158.30 44.78,158.12 41.67,156.88 39.11,154.72 37.38,151.84 36.65,148.57 37.01,145.24 38.42,142.19 40.72,139.76 43.68,138.18 46.99,137.64 50.30,138.18 53.26,139.75 55.57,142.18 56.98,145.22 57.35,148.55 56.63,151.83 54.90,154.70 52.35,156.87 49.24,158.12 45.89,158.30 42.66,157.41 39.88,155.53 37.85,152.86 36.78,149.68 36.50,148.01 36.45,135.09 35.78,111.16 32.44,90.07 21.32,72.92 5.71,57.62 -3.10,37.96 -7.14,15.81 -9.90,3.75 -10.36,1.15 -10.33,-1.37 -9.71,-3.80 -8.52,-6.01 -6.83,-7.87 -4.75,-9.28 -2.39,-10.15 0.11,-10.42 2.60,-10.09 4.94,-9.18 6.99,-7.73 8.64,-5.83 9.78,-3.59 Z" fill="#FFFFFF" stroke="transparent" stroke-width="0" stroke-linejoin="round" stroke-linecap="round" pointer-events="all" transform="translate(980, 583)"/><path id="path_b8d6ed20-b9ec-443b-0c9d-17194ca0229c" d="M-7.48,163.38 Q-7.32,160.69 -6.96,149.99 T-6.55,128.53 -6.50,107.16 -4.74,85.41 0.59,64.08 3.21,42.96 -2.23,22.11 -8.32,7.81 -10.21,1.75 -10.24,-1.61 -9.19,-4.79 -7.18,-7.47 -4.41,-9.37 -1.19,-10.29 2.16,-10.13 5.28,-8.91 7.85,-6.76 9.60,-3.90 10.34,-0.63 10.00,2.71 8.61,5.76 6.33,8.21 3.37,9.80 0.07,10.36 -3.24,9.84 -6.22,8.29 -8.54,5.87 -9.97,2.84 -10.35,-0.49 -9.65,-3.77 -7.94,-6.66 -5.40,-8.84 -2.29,-10.10 1.05,-10.31 4.29,-9.43 7.08,-7.57 9.12,-4.91 9.93,-3.42 13.66,5.98 21.51,25.08 25.30,45.82 21.67,66.94 16.43,87.31 14.50,108.33 14.44,129.94 14.02,151.37 13.56,163.27 13.26,165.86 12.51,168.26 11.22,170.41 9.44,172.19 7.29,173.50 4.90,174.25 2.39,174.41 -0.09,173.96 -2.38,172.93 -4.36,171.38 -5.91,169.41 -6.95,167.12 -7.40,164.65 Z" fill="#FFFFFF" stroke="transparent" stroke-width="0" stroke-linejoin="round" stroke-linecap="round" pointer-events="all" transform="translate(1023, 560)"/><path id="path_2f7f4b9d-9ef5-4f17-2a05-4638c457cc51" d="M10.32,-1.94 Q10.80,0.60 13.60,10.88 T20.78,30.70 32.74,47.83 44.57,65.26 50.10,85.78 51.44,107.36 51.50,129.01 51.50,149.88 51.23,161.68 50.15,164.85 48.13,167.52 45.35,169.40 42.12,170.30 38.77,170.12 35.66,168.88 33.10,166.71 31.37,163.83 30.65,160.56 31.02,157.23 32.42,154.18 34.73,151.75 37.69,150.18 41.00,149.64 44.31,150.18 47.27,151.75 49.58,154.19 50.98,157.23 51.35,160.56 50.62,163.84 48.90,166.71 46.34,168.88 43.23,170.12 39.88,170.30 36.65,169.40 33.87,167.52 31.84,164.85 30.77,161.67 30.50,160.00 30.50,152.94 30.50,135.29 30.48,113.74 29.58,92.17 23.65,72.44 10.98,54.78 -0.41,35.87 -7.02,14.99 -10.08,3.20 -10.40,0.67 -10.26,-1.84 -9.52,-4.24 -8.23,-6.39 -6.46,-8.18 -4.32,-9.49 -1.92,-10.25 0.59,-10.41 3.06,-9.96 5.36,-8.94 7.34,-7.40 8.90,-5.43 9.94,-3.14 Z" fill="#FFFFFF" stroke="transparent" stroke-width="0" stroke-linejoin="round" stroke-linecap="round" pointer-events="all" transform="translate(1055, 529)"/><path id="path_0ad0363b-1503-43b0-21fc-a1845f622848" d="M-3.48,172.58 Q-3.64,169.73 -4.02,159.22 T-4.44,138.12 -4.50,116.77 -2.92,94.70 2.66,73.76 7.55,53.73 4.85,32.78 -3.74,14.03 -9.44,4.27 -10.31,1.03 -10.10,-2.32 -8.83,-5.42 -6.64,-7.96 -3.75,-9.66 -0.47,-10.35 2.86,-9.96 5.89,-8.52 8.30,-6.20 9.85,-3.22 10.36,0.09 9.79,3.40 8.19,6.34 5.74,8.63 2.68,10.01 -0.65,10.34 -3.92,9.59 -6.78,7.84 -8.93,5.26 -10.14,2.14 -10.29,-1.21 -9.36,-4.43 -7.46,-7.19 -4.77,-9.20 -1.58,-10.24 1.77,-10.21 4.94,-9.11 7.59,-7.06 8.74,-5.81 11.33,-1.78 19.54,11.46 27.31,31.08 28.86,52.29 25.22,73.17 19.34,93.93 16.50,115.02 16.55,136.32 16.96,157.88 17.40,169.99 17.40,172.68 16.94,175.15 15.89,177.44 14.33,179.41 12.35,180.95 10.05,181.97 7.58,182.41 5.07,182.24 2.67,181.48 0.53,180.17 -1.24,178.39 -2.53,176.23 -3.26,173.83 Z" fill="#FFFFFF" stroke="transparent" stroke-width="0" stroke-linejoin="round" stroke-linecap="round" pointer-events="all" transform="translate(1091, 512)"/><path id="path_6d58f52d-5775-4051-1cc7-58a202ebf5e9" d="M7.72,20.88 Q9.62,22.94 15.43,31.70 T26.03,49.70 38.59,66.06 51.23,82.53 57.98,102.81 60.62,124.70 61.43,146.11 61.50,162.05 61.35,168.84 60.75,171.28 59.58,173.50 57.92,175.38 55.85,176.81 53.50,177.71 51.01,178.01 48.51,177.71 46.16,176.82 44.09,175.40 42.43,173.52 41.26,171.29 40.65,168.85 40.50,157.01 42.07,136.03 44.65,114.76 48.53,93.57 57.09,74.50 60.94,55.08 52.64,35.39 38.40,16.36 29.83,4.83 28.77,1.64 28.78,-1.71 29.86,-4.88 31.90,-7.54 34.68,-9.42 37.91,-10.30 41.26,-10.11 44.37,-8.86 46.92,-6.68 48.64,-3.80 49.35,-0.53 48.98,2.80 47.56,5.84 45.24,8.27 42.28,9.83 38.97,10.36 35.66,9.81 32.70,8.23 30.40,5.79 29.01,2.74 28.66,-0.59 29.39,-3.87 31.12,-6.73 33.69,-8.90 36.81,-10.13 40.15,-10.30 43.38,-9.39 46.15,-7.50 47.38,-6.33 53.10,1.11 65.26,16.90 76.84,34.31 83.37,54.24 79.75,74.53 70.77,93.82 65.82,114.32 63.18,135.67 61.50,157.00 61.35,168.83 60.75,171.27 59.58,173.50 57.92,175.38 55.85,176.81 53.50,177.71 51.01,178.01 48.51,177.71 46.16,176.82 44.09,175.40 42.43,173.52 41.26,171.29 40.65,168.85 40.49,160.28 40.38,142.42 39.28,120.85 35.23,99.18 23.95,81.98 10.66,65.64 -0.11,46.53 -6.76,36.15 -8.46,34.10 -9.67,31.89 -10.32,29.47 -10.37,26.96 -9.82,24.50 -8.70,22.25 -7.07,20.34 -5.03,18.87 -2.70,17.93 -0.21,17.58 2.29,17.83 4.66,18.67 6.75,20.06 Z" fill="#FFFFFF" stroke="transparent" stroke-width="0" stroke-linejoin="round" stroke-linecap="round" pointer-events="all" transform="translate(1124, 460)"/><path id="path_d611a46c-0d93-42a2-1b7c-0e868fcbb49b" d="M7.74,-7.10 Q9.48,-5.19 15.89,3.53 T29.29,20.21 43.64,35.65 56.14,52.34 61.87,72.33 62.71,93.73 63.22,114.93 63.94,134.56 64.36,145.31 63.71,148.60 62.06,151.52 59.55,153.75 56.47,155.06 53.13,155.32 49.88,154.51 47.06,152.69 44.96,150.07 43.82,146.92 43.74,143.57 44.73,140.37 46.70,137.65 49.43,135.70 52.63,134.73 55.99,134.83 59.13,136.00 61.74,138.11 63.53,140.94 64.33,144.19 64.05,147.53 62.71,150.61 60.46,153.10 57.54,154.74 54.25,155.36 50.93,154.89 47.93,153.40 45.56,151.02 44.08,148.01 43.59,146.38 43.03,134.97 42.09,112.86 41.57,90.93 39.30,69.31 29.31,51.05 14.26,34.85 0.53,17.77 -6.87,8.05 -8.48,6.07 -9.68,3.86 -10.32,1.43 -10.37,-1.08 -9.81,-3.53 -8.68,-5.78 -7.04,-7.68 -5.00,-9.15 -2.67,-10.08 -0.18,-10.42 2.32,-10.16 4.69,-9.31 6.78,-7.92 Z" fill="#FFFFFF" stroke="transparent" stroke-width="0" stroke-linejoin="round" stroke-linecap="round" pointer-events="all" transform="translate(1203, 428)"/><path id="path_42e76c72-0119-4ba0-0de1-482429ff1f47" d="M5.50,164.00 Q5.50,161.15 5.50,150.41 T5.50,128.79 5.50,107.01 7.79,85.69 14.39,65.56 18.16,44.72 11.11,25.23 -0.90,12.60 -7.55,7.09 -9.42,4.31 -10.31,1.08 -10.11,-2.27 -8.86,-5.38 -6.67,-7.93 -3.79,-9.64 -0.52,-10.35 2.81,-9.97 5.85,-8.55 8.28,-6.23 9.83,-3.27 10.36,0.04 9.80,3.35 8.22,6.31 5.78,8.60 2.73,10.00 -0.61,10.34 -3.88,9.61 -6.74,7.87 -8.90,5.30 -10.13,2.18 -10.30,-1.17 -9.38,-4.39 -7.49,-7.16 -4.81,-9.18 -1.63,-10.23 1.72,-10.22 4.89,-9.13 6.39,-8.33 10.86,-4.89 22.87,6.30 35.14,23.50 40.45,43.76 37.33,64.99 30.07,85.76 26.50,107.01 26.50,128.79 26.50,150.41 26.50,162.57 26.35,165.26 25.75,167.70 24.58,169.92 22.91,171.80 20.84,173.23 18.49,174.12 16.00,174.42 13.50,174.12 11.16,173.23 9.09,171.80 7.42,169.92 6.25,167.70 5.65,165.26 Z" fill="#FFFFFF" stroke="transparent" stroke-width="0" stroke-linejoin="round" stroke-linecap="round" pointer-events="all" transform="translate(1241, 406)"/><path id="path_61812da9-39ca-4dd9-1bcd-3278ad6f8712" d="M11.48,0.62 Q11.32,3.31 12.89,14.21 T20.35,33.89 29.54,52.63 33.15,73.04 33.49,94.28 32.60,115.56 31.60,133.08 31.21,141.77 30.11,144.94 28.05,147.59 25.26,149.45 22.02,150.31 18.68,150.10 15.57,148.83 13.04,146.63 11.34,143.74 10.65,140.46 11.04,137.13 12.48,134.10 14.81,131.69 17.79,130.15 21.10,129.64 24.40,130.21 27.35,131.81 29.63,134.27 31.01,137.33 31.34,140.66 30.59,143.93 28.83,146.78 26.25,148.93 23.13,150.14 19.78,150.29 16.56,149.36 13.80,147.45 11.80,144.76 10.76,141.58 10.50,139.90 10.61,132.55 11.61,114.58 12.48,93.26 11.91,71.93 6.45,52.03 -3.49,32.82 -9.08,12.47 -9.56,0.73 -9.26,-1.86 -8.51,-4.26 -7.22,-6.41 -5.44,-8.19 -3.29,-9.50 -0.90,-10.25 1.61,-10.41 4.09,-9.96 6.38,-8.93 8.36,-7.38 9.91,-5.41 10.95,-3.12 11.40,-0.65 Z" fill="#FFFFFF" stroke="transparent" stroke-width="0" stroke-linejoin="round" stroke-linecap="round" pointer-events="all" transform="translate(659, 546)"/><path id="path_3b2e9f3c-4250-4fba-1eaf-f3723023d6ef" d="M-10.50,99.00 Q-10.50,96.15 -10.50,85.44 T-9.95,63.42 -6.56,42.06 1.65,22.65 9.85,5.66 13.27,-3.55 14.91,-6.47 17.40,-8.72 20.48,-10.05 23.82,-10.33 27.07,-9.53 29.90,-7.73 32.01,-5.12 33.17,-1.98 33.27,1.38 32.29,4.58 30.34,7.31 27.62,9.27 24.42,10.26 21.07,10.18 17.92,9.03 15.30,6.94 13.49,4.12 12.67,0.86 12.94,-2.48 14.26,-5.56 16.49,-8.06 19.41,-9.72 22.70,-10.36 26.02,-9.91 29.03,-8.43 31.40,-6.06 32.90,-3.06 33.36,0.26 33.32,1.96 32.04,7.71 24.63,22.79 15.08,42.61 11.08,63.92 10.50,85.44 10.50,97.57 10.35,100.26 9.75,102.70 8.58,104.92 6.91,106.80 4.84,108.23 2.49,109.12 -0.00,109.42 -2.50,109.12 -4.84,108.23 -6.91,106.80 -8.58,104.92 -9.75,102.70 -10.35,100.26 Z" fill="#FFFFFF" stroke="transparent" stroke-width="0" stroke-linejoin="round" stroke-linecap="round" pointer-events="all" transform="translate(682, 578)"/></svg>