<svg xmlns="http://www.w3.org/2000/svg" viewBox="777 69 568 579" width="100" height="120"><path id="path_c9f53936-e09a-49fe-0416-d74c2184b746" d="M23.09,258.28 Q20.39,256.85 11.50,251.38 T-3.07,236.65 -7.61,216.33 -2.71,194.36 5.96,173.12 16.39,152.08 26.55,131.60 37.08,112.08 48.98,93.07 60.92,74.07 72.67,55.31 85.32,36.43 99.26,17.39 115.60,1.60 136.64,-7.03 160.15,-9.52 183.27,-9.06 204.46,-4.03 223.64,6.34 241.23,19.53 257.77,34.54 270.15,52.51 275.11,73.36 273.52,95.56 266.28,116.52 256.69,135.95 245.34,155.40 231.77,174.12 217.65,191.63 204.03,208.51 190.72,226.08 175.97,245.09 160.34,263.21 144.64,279.62 127.97,294.97 109.31,305.16 88.45,304.71 70.08,295.27 61.33,287.97 59.51,285.16 58.68,281.91 58.93,278.56 60.23,275.48 62.46,272.97 65.36,271.30 68.65,270.64 71.98,271.08 74.99,272.55 77.38,274.90 78.89,277.90 79.36,281.22 78.75,284.51 77.12,287.44 74.64,289.70 71.56,291.04 68.22,291.33 64.97,290.54 62.13,288.76 60.01,286.16 58.84,283.02 58.72,279.66 59.69,276.45 61.63,273.72 64.34,271.75 67.54,270.74 70.89,270.81 74.04,271.95 75.53,272.77 84.04,279.18 102.87,282.87 121.00,273.14 136.18,258.27 151.43,241.68 166.82,222.95 180.52,204.58 193.61,187.75 207.62,170.42 221.07,153.29 233.37,134.78 244.34,114.16 252.17,93.45 253.52,72.09 245.01,52.54 228.82,36.40 210.87,23.10 191.45,14.10 169.23,11.15 145.85,12.80 125.78,20.88 110.48,37.29 97.15,56.46 85.16,74.88 73.59,93.44 61.39,112.71 49.61,133.07 38.95,153.73 29.12,173.23 20.10,193.03 14.03,214.28 21.25,231.81 31.57,239.01 33.95,240.44 35.83,242.12 37.25,244.19 38.13,246.54 38.42,249.04 38.11,251.53 37.21,253.88 35.78,255.94 33.89,257.60 31.66,258.76 29.22,259.35 26.71,259.34 24.27,258.73 Z" fill="#FFFFFF" stroke="transparent" stroke-width="0" stroke-linejoin="round" stroke-linecap="round" pointer-events="all" transform="translate(919, 226)"/><path id="path_10f82a4a-10d3-4634-32dc-e0acdea1b8d0" d="M40.51,6.15 Q38.45,9.00 32.25,17.80 T19.75,35.15 10.62,46.87 6.45,51.11 3.53,52.74 0.23,53.36 -3.09,52.89 -6.09,51.39 -8.44,49.00 -9.92,45.99 -10.36,42.67 -9.71,39.38 -8.04,36.47 -5.54,34.24 -2.45,32.93 0.89,32.68 4.14,33.50 6.96,35.32 9.04,37.95 10.19,41.10 10.26,44.45 9.26,47.65 7.29,50.36 4.56,52.31 1.35,53.27 -2.00,53.17 -5.14,51.99 -7.75,49.88 -9.54,47.05 -10.33,43.79 -10.04,40.45 -8.70,37.38 -7.78,35.95 -5.67,33.66 2.78,22.78 15.27,5.45 22.46,-4.72 24.35,-7.08 26.26,-8.70 28.51,-9.82 30.96,-10.37 33.48,-10.32 35.90,-9.66 38.10,-8.45 39.95,-6.74 41.33,-4.65 42.17,-2.28 42.42,0.22 42.06,2.71 41.12,5.04 Z" fill="#FFFFFF" stroke="transparent" stroke-width="0" stroke-linejoin="round" stroke-linecap="round" pointer-events="all" transform="translate(915, 476)"/><path id="path_c3503317-6a64-4e13-1f1d-06e45b26c590" d="M43.51,4.44 Q42.41,6.82 36.38,16.02 T24.11,34.05 12.54,48.76 5.81,55.58 2.76,56.99 -0.57,57.35 -3.85,56.62 -6.72,54.89 -8.88,52.33 -10.12,49.22 -10.30,45.87 -9.40,42.64 -7.51,39.87 -4.84,37.84 -1.66,36.77 1.69,36.78 4.86,37.85 7.53,39.88 9.41,42.66 10.30,45.89 10.12,49.24 8.87,52.35 6.70,54.91 3.82,56.63 0.55,57.35 -2.79,56.98 -5.83,55.57 -8.26,53.26 -9.82,50.30 -10.36,46.99 -9.81,43.68 -8.24,40.72 -7.21,39.37 -4.58,36.78 4.33,25.72 16.99,7.59 23.93,-3.25 25.15,-5.51 26.73,-7.47 28.73,-8.99 31.04,-9.99 33.51,-10.41 36.02,-10.23 38.41,-9.45 40.54,-8.12 42.29,-6.31 43.56,-4.15 44.28,-1.74 44.39,0.77 43.91,3.24 Z" fill="#FFFFFF" stroke="transparent" stroke-width="0" stroke-linejoin="round" stroke-linecap="round" pointer-events="all" transform="translate(950, 504)"/><path id="path_ee129f63-fa71-4504-279b-c3b6feebce89" d="M10.50,0.00 Q10.50,3.01 17.29,11.22 T26.35,18.45 30.27,17.00 33.60,16.66 36.87,17.39 39.74,19.13 41.90,21.69 43.13,24.81 43.30,28.16 42.39,31.39 40.49,34.16 37.82,36.17 34.63,37.23 31.28,37.22 28.11,36.13 25.45,34.09 23.58,31.31 22.69,28.08 22.89,24.73 24.14,21.62 26.33,19.07 29.21,17.36 32.48,16.65 35.81,17.03 38.85,18.45 41.28,20.76 42.83,23.73 43.36,27.04 42.81,30.35 41.22,33.31 38.78,35.60 37.37,36.55 32.50,38.37 17.06,39.85 -1.55,32.35 -10.05,14.10 -10.50,1.51 -10.35,-1.26 -9.75,-3.70 -8.58,-5.92 -6.91,-7.80 -4.84,-9.23 -2.49,-10.12 0.00,-10.42 2.50,-10.12 4.84,-9.23 6.91,-7.80 8.58,-5.92 9.75,-3.70 10.35,-1.26 Z" fill="#FFFFFF" stroke="transparent" stroke-width="0" stroke-linejoin="round" stroke-linecap="round" pointer-events="all" transform="translate(916, 522)"/><path id="path_cb518964-4b24-47b4-1554-ef3eb2f4767d" d="M15.96,3.32 Q15.01,6.17 22.45,9.57 T31.57,12.74 34.92,12.82 38.07,13.96 40.69,16.06 42.51,18.88 43.32,22.13 43.06,25.47 41.75,28.55 39.52,31.06 36.60,32.71 33.31,33.36 29.99,32.91 26.98,31.43 24.60,29.07 23.10,26.07 22.64,22.75 23.26,19.46 24.90,16.53 27.39,14.29 30.47,12.95 33.81,12.67 37.07,13.47 39.90,15.27 42.00,17.87 43.17,21.02 43.27,24.37 42.30,27.58 40.35,30.31 37.63,32.27 36.11,33.03 29.67,35.42 12.63,38.18 -3.62,29.32 -7.09,9.81 -4.44,-1.89 -3.42,-4.46 -2.08,-6.59 -0.27,-8.33 1.91,-9.59 4.32,-10.29 6.83,-10.39 9.30,-9.89 11.57,-8.81 13.51,-7.22 15.02,-5.22 16.01,-2.90 16.41,-0.42 16.21,2.08 Z" fill="#FFFFFF" stroke="transparent" stroke-width="0" stroke-linejoin="round" stroke-linecap="round" pointer-events="all" transform="translate(903, 533)"/><path id="path_2794af98-4961-4fc1-1eff-3d376323e803" d="M-7.42,144.58 Q-4.89,142.04 2.71,134.16 T17.22,118.38 31.27,102.12 45.21,85.47 58.34,68.44 70.80,50.63 82.43,31.51 91.22,31.34 104.72,44.04 125.93,47.46 132.43,57.65 120.67,76.17 106.55,94.54 92.80,112.96 79.11,130.64 66.23,148.28 52.62,168.75 44.01,181.57 41.49,183.79 38.40,185.08 35.06,185.32 31.81,184.48 29.00,182.64 26.93,180.01 25.80,176.85 25.75,173.50 26.76,170.30 28.75,167.60 31.49,165.67 34.71,164.72 38.06,164.84 41.19,166.03 43.78,168.16 45.56,171.00 46.34,174.26 46.03,177.60 44.67,180.67 42.41,183.14 39.47,184.76 36.17,185.36 32.86,184.87 29.87,183.35 27.52,180.96 26.06,177.94 25.65,174.61 26.31,171.33 26.91,169.74 32.98,160.10 45.38,141.49 58.43,123.49 71.56,106.28 84.72,88.88 98.38,70.41 113.22,52.63 129.80,36.53 149.40,26.42 164.69,33.59 162.43,51.99 145.33,65.16 122.72,68.52 100.50,64.74 81.28,54.89 70.03,35.60 72.64,14.00 86.81,-1.03 103.84,1.32 109.02,20.41 100.47,42.43 88.00,62.67 74.96,81.27 61.20,99.08 47.13,115.88 33.19,132.02 18.09,148.44 8.69,158.16 6.43,160.21 4.28,161.51 1.88,162.25 -0.63,162.40 -3.10,161.95 -5.39,160.92 -7.37,159.37 -8.92,157.39 -9.95,155.10 -10.40,152.63 -10.25,150.12 -9.50,147.72 -8.20,145.57 Z" fill="#FFFFFF" stroke="transparent" stroke-width="0" stroke-linejoin="round" stroke-linecap="round" pointer-events="all" transform="translate(941, 330)"/><path id="path_225f2d54-b7c1-4b7d-00b2-9046881cae88" d="M-7.29,57.45 Q-2.70,53.01 5.95,44.50 T23.51,27.56 44.12,6.27 57.09,-7.72 59.92,-9.52 63.17,-10.33 66.51,-10.05 69.59,-8.72 72.08,-6.48 73.73,-3.56 74.36,-0.27 73.90,3.05 72.41,6.06 70.03,8.42 67.03,9.91 63.71,10.36 60.41,9.72 57.50,8.07 55.26,5.57 53.94,2.49 53.67,-0.85 54.49,-4.11 56.30,-6.93 58.91,-9.03 62.06,-10.18 65.41,-10.26 68.62,-9.28 71.34,-7.32 73.29,-4.59 74.27,-1.38 74.17,1.97 73.01,5.11 72.18,6.59 67.38,12.53 54.78,26.37 38.13,42.64 20.58,59.57 9.59,70.33 6.28,73.32 4.11,74.58 1.70,75.28 -0.81,75.39 -3.28,74.90 -5.55,73.82 -7.50,72.24 -9.01,70.23 -10.00,67.93 -10.41,65.45 -10.22,62.94 -9.43,60.56 -8.09,58.43 Z" fill="#FFFFFF" stroke="transparent" stroke-width="0" stroke-linejoin="round" stroke-linecap="round" pointer-events="all" transform="translate(1159, 135)"/><path id="path_f65d68e4-269d-4a8e-3da6-4e8c7553e14b" d="M-10.49,73.53 Q-10.17,66.40 -9.76,54.23 T-9.07,30.18 -8.65,9.07 -8.20,-1.84 -7.08,-5.00 -5.00,-7.64 -2.20,-9.47 1.05,-10.32 4.39,-10.08 7.48,-8.79 10.00,-6.58 11.69,-3.68 12.35,-0.39 11.94,2.93 10.48,5.95 8.14,8.35 5.15,9.87 1.83,10.36 -1.47,9.76 -4.40,8.15 -6.67,5.67 -8.03,2.61 -8.34,-0.73 -7.56,-3.99 -5.79,-6.84 -3.20,-8.96 -0.06,-10.15 3.29,-10.28 6.50,-9.33 9.25,-7.41 11.23,-4.70 12.25,-1.51 12.50,0.17 12.32,10.99 11.90,32.23 11.23,54.99 10.65,70.90 10.28,75.71 9.57,78.13 8.31,80.30 6.56,82.10 4.43,83.44 2.04,84.22 -0.46,84.41 -2.94,84.00 -5.25,83.00 -7.25,81.49 -8.83,79.53 -9.90,77.26 -10.39,74.79 Z" fill="#FFFFFF" stroke="transparent" stroke-width="0" stroke-linejoin="round" stroke-linecap="round" pointer-events="all" transform="translate(1065, 109)"/><path id="path_b9396308-05a7-4a35-39fa-bb9ded17c1ad" d="M-0.19,-9.50 Q8.36,-9.66 19.57,-9.83 T43.21,-10.12 71.78,-10.37 89.60,-10.24 92.78,-9.19 95.47,-7.18 97.37,-4.42 98.29,-1.20 98.14,2.15 96.92,5.27 94.77,7.85 91.91,9.60 88.64,10.34 85.30,10.00 82.25,8.62 79.80,6.33 78.21,3.38 77.64,0.08 78.16,-3.23 79.70,-6.21 82.12,-8.53 85.15,-9.96 88.48,-10.35 91.76,-9.65 94.65,-7.95 96.84,-5.41 98.10,-2.30 98.31,1.04 97.44,4.28 95.58,7.07 92.92,9.12 89.75,10.21 88.08,10.50 71.95,10.63 43.44,10.88 19.91,11.17 4.47,11.42 -1.06,11.37 -3.52,10.81 -5.76,9.69 -7.67,8.06 -9.14,6.01 -10.07,3.68 -10.42,1.19 -10.16,-1.31 -9.32,-3.67 -7.93,-5.77 -6.08,-7.47 -3.88,-8.68 -1.45,-9.32 Z" fill="#FFFFFF" stroke="transparent" stroke-width="0" stroke-linejoin="round" stroke-linecap="round" pointer-events="all" transform="translate(1217, 327)"/><path id="path_d6eb027f-4262-4a74-3e16-7e00bccb7bc7" d="M7.42,-7.42 Q11.39,-3.46 19.95,5.53 T36.01,21.76 54.00,37.37 65.65,47.01 67.48,49.82 68.32,53.07 68.08,56.41 66.78,59.50 64.56,62.02 61.66,63.69 58.37,64.35 55.05,63.93 52.03,62.47 49.64,60.12 48.12,57.13 47.64,53.81 48.24,50.51 49.87,47.58 52.34,45.32 55.41,43.97 58.75,43.67 62.01,44.45 64.85,46.23 66.98,48.82 68.16,51.96 68.28,55.31 67.32,58.52 65.39,61.26 62.68,63.24 59.49,64.25 56.14,64.19 52.98,63.06 51.49,62.24 40.62,53.54 21.47,36.87 4.87,20.14 -5.44,9.41 -8.21,6.43 -9.51,4.28 -10.25,1.88 -10.40,-0.63 -9.95,-3.10 -8.92,-5.39 -7.37,-7.37 -5.39,-8.92 -3.10,-9.95 -0.63,-10.40 1.88,-10.25 4.28,-9.50 6.43,-8.20 Z" fill="#FFFFFF" stroke="transparent" stroke-width="0" stroke-linejoin="round" stroke-linecap="round" pointer-events="all" transform="translate(1158, 435)"/><path id="path_8d158bc7-5e3b-4e61-01ca-e2dfd8bd5ea0" d="M9.87,-3.59 Q11.77,1.64 15.41,12.07 T23.28,33.25 32.30,58.55 37.29,74.79 37.14,78.14 35.92,81.27 33.77,83.84 30.91,85.59 27.65,86.34 24.31,86.01 21.26,84.62 18.80,82.34 17.21,79.39 16.64,76.08 17.15,72.77 18.70,69.80 21.12,67.47 24.15,66.04 27.48,65.65 30.76,66.34 33.64,68.05 35.83,70.59 37.10,73.69 37.31,77.04 36.44,80.27 34.58,83.06 31.93,85.12 28.76,86.21 25.41,86.24 22.22,85.19 19.53,83.19 17.63,80.43 16.91,78.89 12.37,65.10 3.56,40.47 -4.34,19.22 -8.92,6.20 -10.15,2.36 -10.42,-0.14 -10.09,-2.63 -9.16,-4.97 -7.71,-7.02 -5.80,-8.66 -3.56,-9.80 -1.11,-10.36 1.40,-10.33 3.83,-9.69 6.04,-8.50 7.90,-6.80 9.30,-4.72 Z" fill="#FFFFFF" stroke="transparent" stroke-width="0" stroke-linejoin="round" stroke-linecap="round" pointer-events="all" transform="translate(1070, 532)"/><path id="path_16c8c781-2126-4eb3-2674-3886b32755ad" d="M48.35,59.20 Q45.82,56.50 37.93,48.75 T22.01,33.99 3.35,17.28 -8.29,6.21 -9.84,3.24 -10.36,-0.07 -9.80,-3.38 -8.20,-6.33 -5.75,-8.62 -2.70,-10.00 0.64,-10.34 3.90,-9.60 6.76,-7.85 8.92,-5.28 10.14,-2.15 10.29,1.20 9.37,4.42 7.47,7.18 4.79,9.19 1.60,10.24 -1.75,10.21 -4.92,9.12 -7.57,7.07 -9.44,4.28 -10.31,1.04 -10.10,-2.30 -8.84,-5.41 -6.65,-7.95 -3.76,-9.65 -0.48,-10.35 2.85,-9.96 5.88,-8.53 7.28,-7.57 16.99,1.35 35.83,18.24 53.03,34.16 62.38,43.46 64.40,45.82 65.63,48.01 66.30,50.43 66.38,52.94 65.85,55.40 64.75,57.66 63.14,59.59 61.12,61.08 58.80,62.04 56.31,62.42 53.81,62.19 51.44,61.37 49.33,60.01 Z" fill="#FFFFFF" stroke="transparent" stroke-width="0" stroke-linejoin="round" stroke-linecap="round" pointer-events="all" transform="translate(893, 208)"/><path id="path_71b6e5af-4db8-4ea4-2dfd-67bb193089e8" d="M64.66,28.56 Q61.17,26.97 50.28,22.80 T28.26,16.03 7.82,11.90 -3.11,9.88 -6.10,8.37 -8.46,5.99 -9.93,2.97 -10.36,-0.35 -9.70,-3.64 -8.03,-6.55 -5.52,-8.77 -2.43,-10.07 0.91,-10.32 4.16,-9.49 6.97,-7.66 9.06,-5.04 10.19,-1.88 10.26,1.47 9.25,4.67 7.27,7.38 4.54,9.32 1.33,10.28 -2.03,10.16 -5.16,8.98 -7.76,6.86 -9.55,4.03 -10.33,0.77 -10.04,-2.57 -8.69,-5.64 -6.43,-8.12 -3.50,-9.75 -0.21,-10.36 1.49,-10.39 13.68,-8.39 37.07,-3.48 59.06,3.64 71.60,8.65 74.43,10.10 76.40,11.66 77.94,13.64 78.96,15.94 79.41,18.41 79.25,20.92 78.49,23.31 77.18,25.46 75.40,27.23 73.24,28.52 70.84,29.26 68.33,29.40 65.86,28.94 Z" fill="#FFFFFF" stroke="transparent" stroke-width="0" stroke-linejoin="round" stroke-linecap="round" pointer-events="all" transform="translate(817, 348)"/></svg>