<svg xmlns="http://www.w3.org/2000/svg" viewBox="687 235 1217 389" width="300" height="100"><path id="path_47cda109-fa99-41b9-2259-c60d0a8873f8" d="M-7.94,80.17 Q-8.41,75.73 -8.94,63.86 T-6.63,40.62 0.63,18.97 13.90,1.13 34.18,-8.47 59.54,-10.65 86.23,-10.86 110.05,-10.94 132.97,-10.98 157.46,-10.99 182.16,-11.00 207.51,-10.61 234.46,-9.18 261.00,-7.53 285.14,-6.62 307.91,-6.21 333.42,-5.67 360.43,-4.58 385.45,-3.53 409.36,-2.86 433.38,-2.39 457.91,-2.14 482.72,-2.05 506.63,-2.02 530.58,-2.00 553.99,-2.00 576.86,-1.27 599.93,1.37 622.05,6.69 640.64,18.84 651.57,38.72 655.71,60.91 656.77,83.69 656.87,107.02 652.50,129.25 638.33,146.09 617.81,155.88 595.45,160.33 572.07,161.53 547.48,161.90 521.91,161.97 496.96,161.99 473.34,162.00 449.35,162.00 425.21,162.00 401.78,162.00 377.98,162.00 354.97,162.00 332.32,162.00 309.60,162.00 286.25,162.00 261.44,162.00 235.38,162.00 210.15,162.00 185.21,162.00 160.00,162.00 135.64,161.57 112.52,160.48 90.18,158.81 67.72,156.05 44.76,152.33 22.40,146.76 5.18,134.36 -5.38,115.01 -9.40,93.46 -8.64,78.30 -6.88,72.51 -4.93,69.59 -2.15,67.44 1.18,66.30 4.69,66.28 8.02,67.38 10.83,69.49 12.82,72.38 13.78,75.76 13.62,79.27 12.34,82.54 10.08,85.23 7.08,87.06 3.66,87.84 0.16,87.48 -3.04,86.02 -5.60,83.62 -7.27,80.53 -7.85,77.07 -7.31,73.60 -5.68,70.48 -3.15,68.05 0.03,66.56 3.52,66.16 6.96,66.89 9.98,68.68 12.27,71.35 13.59,74.60 13.80,78.11 13.62,79.88 12.90,86.62 15.15,104.35 27.69,122.08 48.20,130.62 70.30,134.19 92.52,136.94 114.63,138.58 136.77,139.63 160.00,140.00 185.21,140.00 210.15,140.00 235.38,140.00 261.44,140.00 286.25,140.00 309.60,140.00 332.32,140.00 354.97,140.00 377.98,140.00 401.78,140.00 425.21,140.00 449.35,140.00 473.34,140.00 496.95,139.99 521.88,139.97 547.35,139.90 572.35,139.48 596.42,137.85 618.43,131.96 631.76,116.80 634.93,94.96 634.30,72.47 631.48,49.96 620.49,32.13 600.35,23.65 576.94,20.85 553.99,20.00 530.57,20.00 506.61,19.98 482.67,19.95 457.76,19.86 433.03,19.61 408.80,19.13 384.66,18.45 359.65,17.41 335.81,16.34 312.08,15.82 288.39,15.47 265.07,14.69 240.83,13.33 217.02,11.75 193.36,11.00 169.33,11.00 145.51,11.01 121.63,11.03 97.35,11.10 73.09,11.22 48.06,12.02 27.84,20.63 16.75,39.33 13.35,61.78 13.70,75.61 13.92,79.15 13.56,81.76 12.60,84.21 11.07,86.36 9.08,88.07 6.73,89.26 4.16,89.86 1.53,89.82 -1.02,89.15 -3.33,87.90 -5.28,86.12 -6.74,83.94 -7.64,81.46 Z" fill="#FFFFFF" stroke="transparent" stroke-width="0" stroke-linejoin="round" stroke-linecap="round" pointer-events="all" transform="translate(727, 353)"/><path id="path_c1cfa249-0836-41d0-359f-f3ebcd96fc60" d="M59.40,5.72 Q57.18,9.36 51.70,19.37 T41.17,39.37 31.06,59.21 20.63,79.42 12.83,95.72 9.52,103.21 7.36,105.98 4.43,107.91 1.03,108.81 -2.47,108.57 -5.72,107.23 -8.36,104.92 -10.14,101.89 -10.85,98.45 -10.42,94.96 -8.90,91.79 -6.46,89.27 -3.33,87.67 0.14,87.15 3.60,87.76 6.68,89.45 9.06,92.03 10.50,95.23 10.83,98.73 10.03,102.15 8.18,105.14 5.47,107.37 2.19,108.63 -1.32,108.77 -4.69,107.79 -7.57,105.78 -9.66,102.96 -10.73,99.61 -10.69,96.10 -10.38,94.35 -7.14,86.69 1.26,69.03 11.44,49.27 21.75,29.05 32.71,8.26 39.49,-3.90 41.42,-6.76 43.29,-8.62 45.55,-9.97 48.06,-10.75 50.69,-10.90 53.28,-10.42 55.68,-9.33 57.75,-7.70 59.36,-5.62 60.44,-3.22 60.90,-0.63 60.73,2.00 59.94,4.51 Z" fill="#FFFFFF" stroke="transparent" stroke-width="0" stroke-linejoin="round" stroke-linecap="round" pointer-events="all" transform="translate(740, 357)"/><path id="path_c10e523a-72a7-40fe-13eb-ea53fc086c05" d="M66.24,4.01 Q64.82,7.65 60.77,17.95 T52.31,39.13 43.06,60.22 33.40,80.27 23.37,100.00 14.03,118.32 8.91,128.20 6.46,130.72 3.34,132.33 -0.13,132.85 -3.59,132.24 -6.68,130.56 -9.06,127.98 -10.49,124.77 -10.83,121.28 -10.03,117.86 -8.19,114.87 -5.48,112.63 -2.20,111.37 1.31,111.22 4.68,112.21 7.56,114.21 9.65,117.04 10.73,120.38 10.69,123.89 9.53,127.20 7.37,129.97 4.43,131.91 1.04,132.81 -2.47,132.57 -5.71,131.23 -8.36,128.92 -10.13,125.89 -10.85,122.45 -10.42,118.96 -9.92,117.26 -6.06,109.35 2.85,91.74 12.74,72.23 22.31,52.42 31.56,31.51 40.21,10.12 45.04,-2.19 46.38,-5.18 47.90,-7.33 49.89,-9.05 52.24,-10.25 54.80,-10.85 57.43,-10.83 59.98,-10.17 62.30,-8.92 64.25,-7.15 65.72,-4.97 66.63,-2.50 66.92,0.12 66.57,2.73 Z" fill="#FFFFFF" stroke="transparent" stroke-width="0" stroke-linejoin="round" stroke-linecap="round" pointer-events="all" transform="translate(774, 360)"/><path id="path_bcac8a8c-c972-4e64-2b12-a0c315d2a64e" d="M67.26,3.97 Q65.36,8.88 60.60,21.07 T51.55,44.19 42.46,66.43 32.80,88.54 22.93,110.04 14.05,129.46 9.24,139.70 6.93,142.35 3.90,144.13 0.46,144.85 -3.02,144.43 -6.19,142.91 -8.72,140.47 -10.33,137.35 -10.85,133.88 -10.25,130.42 -8.57,127.33 -5.99,124.95 -2.78,123.51 0.71,123.17 4.13,123.96 7.12,125.81 9.37,128.51 10.63,131.79 10.78,135.30 9.80,138.67 7.79,141.56 4.97,143.65 1.63,144.73 -1.88,144.69 -5.20,143.53 -7.97,141.37 -9.90,138.44 -10.80,135.05 -10.57,131.54 -10.17,129.81 -5.60,119.69 3.55,99.66 12.79,79.40 22.12,58.06 31.20,35.83 40.23,12.77 45.79,-1.51 47.37,-5.14 48.88,-7.30 50.86,-9.03 53.20,-10.24 55.76,-10.85 58.39,-10.83 60.94,-10.18 63.27,-8.94 65.22,-7.18 66.70,-5.01 67.62,-2.54 67.92,0.08 67.58,2.69 Z" fill="#FFFFFF" stroke="transparent" stroke-width="0" stroke-linejoin="round" stroke-linecap="round" pointer-events="all" transform="translate(827, 357)"/><path id="path_1f41406c-d446-47c9-2df5-3918578345f2" d="M67.08,4.41 Q65.97,6.94 61.59,17.21 T52.55,37.96 43.18,59.18 33.54,79.84 24.39,100.74 16.69,122.85 11.83,138.21 9.63,144.00 7.53,146.82 4.64,148.81 1.26,149.78 -2.25,149.62 -5.52,148.35 -8.21,146.10 -10.05,143.10 -10.83,139.68 -10.48,136.18 -9.03,132.98 -6.64,130.41 -3.55,128.74 -0.09,128.15 3.38,128.68 6.50,130.30 8.93,132.83 10.44,136.01 10.84,139.50 10.12,142.94 8.33,145.96 5.67,148.26 2.42,149.58 -1.09,149.80 -4.48,148.89 -7.40,146.94 -9.55,144.16 -10.70,140.84 -10.73,137.33 -10.45,135.57 -8.52,129.56 -3.17,112.57 4.34,91.32 13.43,71.01 23.12,50.23 32.28,29.45 41.28,8.76 46.37,-3.14 47.60,-5.55 49.20,-7.64 51.25,-9.29 53.64,-10.39 56.23,-10.89 58.86,-10.76 61.38,-10.00 63.64,-8.67 65.53,-6.82 66.91,-4.59 67.72,-2.08 67.91,0.55 67.46,3.14 Z" fill="#FFFFFF" stroke="transparent" stroke-width="0" stroke-linejoin="round" stroke-linecap="round" pointer-events="all" transform="translate(873, 356)"/><path id="path_dccffd33-8c12-446d-3408-362d9167c171" d="M68.44,3.48 Q67.33,6.81 63.25,18.18 T54.37,40.13 45.19,61.08 36.15,81.54 26.58,101.53 16.91,121.37 11.28,133.95 9.57,138.13 7.43,140.91 4.51,142.87 1.12,143.80 -2.38,143.59 -5.64,142.28 -8.31,139.99 -10.10,136.97 -10.84,133.54 -10.45,130.05 -8.96,126.87 -6.53,124.33 -3.42,122.70 0.05,122.15 3.51,122.73 6.61,124.39 9.01,126.95 10.47,130.15 10.84,133.64 10.07,137.07 8.24,140.07 5.55,142.33 2.28,143.61 -1.23,143.79 -4.60,142.83 -7.50,140.84 -9.61,138.04 -10.72,134.70 -10.70,131.19 -10.41,129.44 -5.07,116.97 5.58,94.16 15.89,72.96 25.21,51.86 34.25,31.24 42.70,10.36 47.01,-1.81 48.13,-4.68 49.54,-6.90 51.44,-8.73 53.72,-10.04 56.24,-10.78 58.87,-10.88 61.45,-10.36 63.83,-9.23 65.87,-7.57 67.45,-5.46 68.49,-3.04 68.91,-0.44 68.70,2.18 Z" fill="#FFFFFF" stroke="transparent" stroke-width="0" stroke-linejoin="round" stroke-linecap="round" pointer-events="all" transform="translate(910, 364)"/><path id="path_fa5fbc93-9a4a-453c-1e8e-545289390f9d" d="M62.56,3.08 Q61.45,6.88 57.94,17.47 T50.39,38.91 41.91,60.07 33.03,80.71 24.54,101.45 16.40,122.08 11.48,135.52 9.93,140.37 8.02,143.32 5.26,145.49 1.95,146.68 -1.56,146.74 -4.91,145.68 -7.74,143.61 -9.77,140.74 -10.77,137.37 -10.64,133.86 -9.40,130.58 -7.18,127.86 -4.20,125.99 -0.79,125.17 2.71,125.49 5.92,126.90 8.52,129.27 10.22,132.35 10.85,135.80 10.35,139.28 8.76,142.41 6.26,144.87 3.10,146.40 -0.39,146.85 -3.83,146.16 -6.87,144.40 -9.20,141.77 -10.56,138.53 -10.81,135.02 -10.65,133.25 -6.23,120.74 2.58,97.25 11.26,75.87 20.24,54.67 28.92,33.42 36.62,11.85 40.89,-1.18 41.96,-4.30 43.28,-6.58 45.11,-8.47 47.34,-9.87 49.84,-10.70 52.46,-10.91 55.06,-10.48 57.48,-9.45 59.58,-7.86 61.24,-5.82 62.36,-3.44 62.89,-0.86 62.77,1.77 Z" fill="#FFFFFF" stroke="transparent" stroke-width="0" stroke-linejoin="round" stroke-linecap="round" pointer-events="all" transform="translate(963, 361)"/><path id="path_a546678d-6546-41c2-26d1-97cecfe5879c" d="M67.32,3.82 Q65.73,8.10 61.20,18.65 T51.82,39.94 42.28,61.78 32.75,82.89 22.78,102.51 13.95,121.08 9.32,131.56 7.06,134.24 4.06,136.07 0.63,136.84 -2.86,136.47 -6.06,135.01 -8.62,132.60 -10.27,129.51 -10.85,126.04 -10.30,122.58 -8.67,119.47 -6.13,117.04 -2.95,115.55 0.54,115.16 3.98,115.90 6.99,117.70 9.28,120.37 10.59,123.62 10.80,127.13 9.87,130.52 7.91,133.43 5.12,135.57 1.80,136.71 -1.71,136.72 -5.05,135.61 -7.85,133.50 -9.83,130.60 -10.79,127.21 -10.61,123.71 -10.23,121.97 -6.54,113.07 2.35,94.40 12.51,74.33 21.78,53.86 30.80,33.09 40.31,11.48 45.89,-1.68 47.29,-5.00 48.77,-7.18 50.73,-8.94 53.05,-10.18 55.60,-10.83 58.23,-10.85 60.79,-10.24 63.13,-9.03 65.12,-7.30 66.63,-5.15 67.58,-2.69 67.92,-0.08 67.62,2.53 Z" fill="#FFFFFF" stroke="transparent" stroke-width="0" stroke-linejoin="round" stroke-linecap="round" pointer-events="all" transform="translate(1001, 366)"/><path id="path_296d5d9d-21b6-45e9-2184-cadb3144650c" d="M66.00,0.00 Q66.00,3.33 64.81,14.55 T60.09,36.18 51.30,57.36 41.24,78.10 31.18,97.65 20.78,116.90 12.56,131.54 8.39,137.89 5.75,140.21 2.51,141.56 -1.00,141.81 -4.40,140.93 -7.33,139.00 -9.51,136.24 -10.68,132.93 -10.74,129.42 -9.67,126.07 -7.59,123.24 -4.72,121.22 -1.35,120.23 2.16,120.36 5.44,121.61 8.16,123.84 10.02,126.82 10.83,130.24 10.51,133.73 9.08,136.95 6.71,139.53 3.63,141.23 0.18,141.85 -3.30,141.34 -6.43,139.75 -8.88,137.24 -10.41,134.07 -10.85,130.59 -10.15,127.15 -9.52,125.48 -4.41,117.22 5.98,99.34 16.40,79.18 26.74,57.81 36.50,35.96 42.53,14.13 44.00,1.66 44.16,-1.32 44.79,-3.87 46.01,-6.20 47.76,-8.17 49.93,-9.67 52.39,-10.60 55.00,-10.92 57.61,-10.60 60.08,-9.67 62.24,-8.17 63.99,-6.20 65.21,-3.87 65.84,-1.32 Z" fill="#FFFFFF" stroke="transparent" stroke-width="0" stroke-linejoin="round" stroke-linecap="round" pointer-events="all" transform="translate(1046, 362)"/><path id="path_8c2b24f4-d75e-414d-24d2-939684b57103" d="M74.03,4.51 Q72.60,7.68 68.07,17.65 T58.44,38.08 48.59,60.10 38.67,81.74 27.54,101.58 15.54,121.45 8.34,132.94 5.69,135.24 2.44,136.58 -1.07,136.80 -4.46,135.90 -7.39,133.96 -9.54,131.18 -10.69,127.86 -10.73,124.35 -9.64,121.01 -7.54,118.19 -4.66,116.19 -1.28,115.22 2.23,115.38 5.50,116.64 8.20,118.89 10.04,121.88 10.83,125.31 10.49,128.80 9.04,132.00 6.65,134.58 3.57,136.25 0.11,136.85 -3.36,136.32 -6.48,134.71 -8.92,132.18 -10.43,129.01 -10.84,125.52 -10.12,122.08 -9.48,120.42 -3.65,110.66 8.25,90.88 19.42,71.20 28.45,51.24 37.68,30.34 47.75,9.19 53.26,-2.93 54.65,-5.65 56.28,-7.72 58.35,-9.34 60.75,-10.43 63.34,-10.90 65.97,-10.74 68.48,-9.96 70.73,-8.60 72.60,-6.73 73.96,-4.48 74.74,-1.97 74.90,0.66 74.43,3.25 Z" fill="#FFFFFF" stroke="transparent" stroke-width="0" stroke-linejoin="round" stroke-linecap="round" pointer-events="all" transform="translate(1085, 367)"/><path id="path_acf89db3-9196-41aa-2efb-682f84964fde" d="M76.21,4.09 Q74.95,7.26 70.84,17.65 T62.00,38.32 52.50,58.61 41.95,78.29 30.32,97.52 18.62,116.99 11.31,129.90 8.82,134.33 6.34,136.81 3.19,138.37 -0.29,138.85 -3.74,138.19 -6.79,136.47 -9.14,133.85 -10.53,130.63 -10.82,127.13 -9.97,123.72 -8.08,120.76 -5.35,118.55 -2.05,117.34 1.46,117.24 4.82,118.27 7.67,120.32 9.72,123.17 10.75,126.53 10.66,130.04 9.45,133.34 7.25,136.08 4.30,137.97 0.89,138.82 -2.61,138.54 -5.84,137.15 -8.46,134.81 -10.19,131.75 -10.85,128.30 -10.38,124.82 -9.86,123.12 -3.34,111.55 8.90,90.63 20.41,71.87 31.33,52.04 41.20,31.20 50.24,9.94 55.15,-2.50 56.42,-5.25 57.96,-7.39 59.96,-9.10 62.31,-10.28 64.88,-10.86 67.51,-10.81 70.06,-10.14 72.36,-8.87 74.30,-7.09 75.76,-4.90 76.65,-2.42 76.92,0.20 76.55,2.80 Z" fill="#FFFFFF" stroke="transparent" stroke-width="0" stroke-linejoin="round" stroke-linecap="round" pointer-events="all" transform="translate(1130, 371)"/><path id="path_80b89164-f8b6-4af6-0178-613b17b7b3c0" d="M65.62,5.34 Q64.03,8.19 58.80,18.14 T49.22,38.53 40.92,59.24 32.81,79.59 24.13,99.62 14.17,120.12 7.43,131.91 4.52,133.87 1.13,134.80 -2.37,134.59 -5.63,133.28 -8.30,130.99 -10.10,127.98 -10.84,124.54 -10.45,121.05 -8.96,117.87 -6.53,115.33 -3.43,113.70 0.04,113.15 3.51,113.73 6.60,115.38 9.01,117.94 10.47,121.14 10.84,124.63 10.07,128.06 8.24,131.06 5.56,133.32 2.29,134.61 -1.22,134.79 -4.60,133.83 -7.50,131.85 -9.61,129.04 -10.72,125.71 -10.70,122.20 -9.57,118.88 -8.73,117.31 -4.98,109.90 3.44,92.17 12.50,71.18 20.98,49.89 29.41,28.90 39.28,8.03 45.59,-3.92 47.16,-6.42 48.96,-8.34 51.16,-9.79 53.64,-10.66 56.26,-10.92 58.87,-10.54 61.30,-9.55 63.43,-8.00 65.13,-5.99 66.30,-3.63 66.87,-1.06 66.81,1.57 66.11,4.11 Z" fill="#FFFFFF" stroke="transparent" stroke-width="0" stroke-linejoin="round" stroke-linecap="round" pointer-events="all" transform="translate(1182, 369)"/><path id="path_b46a0a93-8c2d-417e-2080-746afd2b204e" d="M61.19,4.15 Q59.44,8.43 54.70,19.25 T45.07,40.62 35.64,61.32 27.71,82.57 20.50,104.64 13.52,124.16 9.50,134.26 7.32,137.02 4.38,138.93 0.98,139.81 -2.53,139.56 -5.77,138.20 -8.40,135.88 -10.16,132.83 -10.85,129.39 -10.40,125.91 -8.87,122.75 -6.41,120.24 -3.28,118.65 0.20,118.15 3.65,118.78 6.73,120.48 9.09,123.07 10.51,126.29 10.83,129.79 10.01,133.20 8.14,136.18 5.42,138.40 2.14,139.64 -1.37,139.77 -4.74,138.77 -7.61,136.74 -9.68,133.91 -10.74,130.56 -10.68,127.05 -10.36,125.30 -6.80,115.78 0.29,95.84 7.13,74.66 15.29,53.00 24.99,31.64 34.45,10.66 39.94,-2.01 41.46,-5.31 43.01,-7.44 45.02,-9.14 47.38,-10.30 49.95,-10.87 52.58,-10.80 55.12,-10.11 57.42,-8.83 59.35,-7.04 60.79,-4.84 61.66,-2.35 61.92,0.27 61.54,2.87 Z" fill="#FFFFFF" stroke="transparent" stroke-width="0" stroke-linejoin="round" stroke-linecap="round" pointer-events="all" transform="translate(1232, 366)"/><path id="path_da08c42a-7d3a-4c03-1986-cecc17cecede" d="M58.44,4.48 Q57.33,7.81 53.94,18.41 T46.99,39.57 39.54,61.08 31.81,82.33 23.70,103.56 14.97,126.34 9.74,139.79 7.70,142.65 4.86,144.71 1.51,145.75 -2.01,145.67 -5.31,144.47 -8.05,142.28 -9.96,139.33 -10.82,135.92 -10.54,132.42 -9.17,129.19 -6.83,126.56 -3.78,124.82 -0.33,124.15 3.15,124.61 6.30,126.16 8.79,128.64 10.37,131.78 10.85,135.26 10.20,138.71 8.48,141.77 5.88,144.13 2.66,145.52 -0.84,145.82 -4.25,144.99 -7.22,143.11 -9.43,140.38 -10.65,137.08 -10.76,133.57 -10.53,131.81 -5.86,119.31 2.94,96.23 11.07,74.95 18.71,53.94 25.94,33.12 32.98,11.72 37.01,-0.81 38.13,-3.68 39.54,-5.90 41.44,-7.73 43.72,-9.04 46.24,-9.78 48.87,-9.88 51.45,-9.36 53.83,-8.23 55.87,-6.57 57.45,-4.46 58.49,-2.04 58.91,0.56 58.70,3.18 Z" fill="#FFFFFF" stroke="transparent" stroke-width="0" stroke-linejoin="round" stroke-linecap="round" pointer-events="all" transform="translate(1275, 369)"/><path id="path_f61bf999-ef76-4a93-0cc5-b1d19c7dec7f" d="M44.58,3.02 Q43.63,6.35 39.90,17.61 T32.41,40.08 25.80,62.40 19.27,83.78 12.86,100.14 9.20,107.76 6.88,110.40 3.84,112.15 0.39,112.85 -3.09,112.41 -6.25,110.87 -8.76,108.41 -10.35,105.28 -10.85,101.80 -10.22,98.35 -8.52,95.28 -5.93,92.91 -2.71,91.49 0.78,91.17 4.20,91.99 7.18,93.86 9.40,96.57 10.64,99.86 10.77,103.37 9.77,106.74 7.74,109.61 4.91,111.68 1.56,112.74 -1.95,112.68 -5.26,111.50 -8.02,109.32 -9.93,106.38 -10.81,102.98 -10.56,99.47 -10.14,97.74 -7.67,92.20 -1.45,76.28 5.19,54.65 11.82,32.28 19.02,10.73 22.95,-1.36 23.94,-4.24 25.25,-6.53 27.06,-8.43 29.28,-9.85 31.78,-10.69 34.40,-10.91 37.00,-10.50 39.43,-9.48 41.54,-7.90 43.21,-5.87 44.35,-3.49 44.88,-0.92 44.78,1.71 Z" fill="#FFFFFF" stroke="transparent" stroke-width="0" stroke-linejoin="round" stroke-linecap="round" pointer-events="all" transform="translate(1324, 387)"/><path id="path_5307ba22-9c75-4400-081b-d24761f1ba3f" d="M-6.73,29.30 Q-3.24,26.60 6.30,17.97 T27.61,0.28 40.95,-9.61 44.28,-10.72 47.79,-10.71 51.12,-9.57 53.91,-7.44 55.87,-4.53 56.80,-1.14 56.59,2.37 55.28,5.63 53.00,8.30 49.98,10.10 46.55,10.84 43.06,10.45 39.88,8.96 37.34,6.54 35.70,3.43 35.14,-0.04 35.73,-3.50 37.38,-6.60 39.94,-9.01 43.13,-10.47 46.63,-10.84 50.05,-10.07 53.06,-8.25 55.32,-5.56 56.61,-2.30 56.79,1.21 55.84,4.59 53.85,7.49 52.63,8.78 40.31,18.41 19.10,36.03 8.47,45.36 5.59,47.38 3.18,48.45 0.59,48.90 -2.04,48.73 -4.55,47.93 -6.79,46.55 -8.64,44.68 -9.99,42.41 -10.75,39.90 -10.90,37.27 -10.40,34.68 -9.31,32.29 -7.67,30.23 Z" fill="#FFFFFF" stroke="transparent" stroke-width="0" stroke-linejoin="round" stroke-linecap="round" pointer-events="all" transform="translate(1418, 368)"/><path id="path_d1251e6f-93c7-4696-3a49-84fa7f25bb16" d="M25.00,0.00 Q25.00,4.44 24.61,15.61 T23.28,38.75 20.70,62.80 16.88,86.01 12.84,109.44 10.57,123.46 9.23,126.71 6.93,129.36 3.90,131.13 0.46,131.85 -3.03,131.42 -6.20,129.91 -8.72,127.47 -10.33,124.34 -10.85,120.87 -10.25,117.41 -8.56,114.33 -5.98,111.94 -2.78,110.51 0.72,110.17 4.14,110.96 7.13,112.81 9.37,115.51 10.63,118.79 10.78,122.30 9.80,125.68 7.79,128.56 4.97,130.65 1.63,131.73 -1.88,131.69 -5.20,130.53 -7.97,128.37 -9.91,125.44 -10.80,122.04 -10.98,120.27 -9.11,107.60 -5.11,84.15 -1.38,62.35 1.14,39.77 2.54,16.33 3.00,2.22 3.16,-1.32 3.79,-3.87 5.01,-6.20 6.76,-8.17 8.93,-9.67 11.39,-10.60 14.00,-10.92 16.61,-10.60 19.08,-9.67 21.24,-8.17 22.99,-6.20 24.21,-3.87 24.84,-1.32 Z" fill="#FFFFFF" stroke="transparent" stroke-width="0" stroke-linejoin="round" stroke-linecap="round" pointer-events="all" transform="translate(1453, 368)"/><path id="path_8cfbe7c1-08cc-4092-3e2c-266c3b054036" d="M50.92,10.84 Q47.75,12.42 38.52,19.73 T22.95,36.41 14.22,56.78 12.26,78.99 23.13,93.84 41.86,89.60 53.48,71.20 57.12,49.08 52.99,26.68 45.40,13.61 40.89,10.20 38.64,7.50 37.37,4.22 37.22,0.71 38.20,-2.66 40.20,-5.55 43.02,-7.64 46.36,-8.73 49.87,-8.69 53.19,-7.54 55.96,-5.38 57.90,-2.45 58.80,0.94 58.58,4.45 57.24,7.69 54.94,10.35 51.91,12.13 48.47,12.84 44.98,12.43 41.81,10.92 39.29,8.48 37.68,5.36 37.15,1.88 37.75,-1.58 39.43,-4.66 42.01,-7.05 45.21,-8.49 48.70,-8.83 52.13,-8.04 53.77,-7.36 57.18,-5.04 67.63,5.67 77.03,25.27 79.23,47.73 76.84,70.50 68.47,91.75 53.64,108.88 33.06,118.95 11.30,116.44 -4.38,100.85 -10.22,79.22 -8.39,56.55 -1.78,35.13 10.76,15.97 28.23,-0.23 39.50,-8.05 42.33,-9.28 44.90,-9.86 47.53,-9.81 50.07,-9.13 52.38,-7.86 54.31,-6.08 55.77,-3.88 56.65,-1.40 56.92,1.22 56.55,3.82 55.57,6.26 54.03,8.40 52.02,10.11 Z" fill="#FFFFFF" stroke="transparent" stroke-width="0" stroke-linejoin="round" stroke-linecap="round" pointer-events="all" transform="translate(1507, 365)"/><path id="path_1b7413df-815e-439e-38e4-686d4bb256f2" d="M29.01,10.31 Q26.79,13.48 21.65,23.71 T14.28,44.62 11.75,66.62 19.70,85.23 35.39,84.17 44.68,64.81 46.45,42.52 39.46,21.73 28.11,11.56 21.96,10.42 18.79,8.90 16.27,6.45 14.67,3.33 14.15,-0.14 14.76,-3.60 16.45,-6.68 19.03,-9.07 22.24,-10.50 25.73,-10.83 29.15,-10.03 32.14,-8.18 34.38,-5.47 35.63,-2.19 35.77,1.32 34.79,4.69 32.78,7.57 29.96,9.66 26.61,10.73 23.10,10.69 19.79,9.52 17.02,7.36 15.09,4.42 14.19,1.03 14.43,-2.48 15.78,-5.72 18.09,-8.37 21.12,-10.14 24.56,-10.85 26.34,-10.92 34.39,-9.38 51.65,-1.04 64.47,16.74 68.39,38.78 67.55,61.36 61.74,83.80 49.22,102.34 29.70,113.55 7.88,112.46 -5.86,97.40 -10.01,76.05 -9.58,54.12 -5.25,31.70 3.42,10.55 9.88,-0.72 11.87,-3.29 13.86,-5.03 16.20,-6.24 18.76,-6.85 21.39,-6.83 23.94,-6.18 26.26,-4.95 28.22,-3.19 29.70,-1.01 30.62,1.46 30.92,4.07 30.58,6.68 29.63,9.14 Z" fill="#FFFFFF" stroke="transparent" stroke-width="0" stroke-linejoin="round" stroke-linecap="round" pointer-events="all" transform="translate(1609, 376)"/><path id="path_2714f7e9-0999-4696-05cb-094cc65e71de" d="M87.76,6.66 Q84.75,10.62 76.99,20.35 T62.51,38.69 48.54,56.07 34.06,73.88 20.08,91.90 10.80,103.58 6.88,107.39 3.84,109.15 0.40,109.85 -3.09,109.41 -6.25,107.88 -8.75,105.42 -10.35,102.29 -10.85,98.81 -10.22,95.35 -8.53,92.28 -5.93,89.91 -2.72,88.49 0.78,88.17 4.19,88.99 7.17,90.85 9.40,93.57 10.64,96.85 10.77,100.36 9.77,103.73 7.75,106.60 4.92,108.68 1.57,109.74 -1.94,109.68 -5.25,108.50 -8.01,106.33 -9.93,103.38 -10.81,99.98 -10.56,96.48 -9.20,93.24 -8.26,91.73 -5.29,88.56 4.23,76.60 17.59,59.28 31.40,42.28 45.18,25.14 59.59,6.89 68.74,-4.67 71.17,-7.61 73.21,-9.26 75.60,-10.38 78.18,-10.89 80.81,-10.77 83.34,-10.02 85.61,-8.69 87.50,-6.86 88.89,-4.63 89.71,-2.13 89.91,0.50 89.47,3.10 88.43,5.51 Z" fill="#FFFFFF" stroke="transparent" stroke-width="0" stroke-linejoin="round" stroke-linecap="round" pointer-events="all" transform="translate(1744, 382)"/><path id="path_1e179e4b-26e4-4609-18c4-9137bdb3540b" d="M38.63,10.38 Q35.46,11.49 25.73,18.01 T22.23,33.60 38.98,39.00 49.00,24.45 40.47,12.27 30.70,10.61 27.43,9.32 24.75,7.05 22.93,4.05 22.16,0.62 22.53,-2.88 24.00,-6.07 26.41,-8.62 29.51,-10.28 32.97,-10.86 36.44,-10.30 39.55,-8.66 41.97,-6.12 43.45,-2.93 43.84,0.56 43.09,3.99 41.29,7.01 38.62,9.29 35.36,10.60 31.85,10.79 28.47,9.86 25.56,7.90 23.42,5.11 22.29,1.78 22.28,-1.73 23.40,-5.06 25.52,-7.86 28.42,-9.84 31.80,-10.79 33.57,-10.99 43.99,-9.49 63.12,-1.09 75.49,16.10 74.38,37.09 59.89,53.85 38.55,62.26 15.86,61.87 -2.61,50.38 -8.17,29.71 1.21,9.91 18.48,-3.62 29.78,-9.83 32.66,-10.67 35.28,-10.92 37.89,-10.53 40.32,-9.53 42.45,-7.98 44.14,-5.97 45.31,-3.61 45.87,-1.04 45.80,1.60 45.11,4.14 43.82,6.43 42.03,8.36 39.82,9.80 Z" fill="#FFFFFF" stroke="transparent" stroke-width="0" stroke-linejoin="round" stroke-linecap="round" pointer-events="all" transform="translate(1712, 359)"/><path id="path_24a0870a-90d9-4298-0a5f-f2bb81ad832a" d="M35.91,10.83 Q33.22,11.31 23.55,16.87 T12.98,33.33 23.45,46.10 42.52,40.14 45.71,22.33 38.25,12.17 33.56,11.58 30.31,10.24 27.66,7.94 25.88,4.92 25.16,1.48 25.57,-2.01 27.08,-5.18 29.52,-7.71 32.64,-9.32 36.11,-9.85 39.57,-9.25 42.66,-7.57 45.05,-5.00 46.49,-1.80 46.83,1.70 46.04,5.12 44.20,8.11 41.50,10.36 38.22,11.62 34.72,11.78 31.34,10.80 28.45,8.80 26.36,5.99 25.27,2.65 25.31,-0.87 26.46,-4.18 28.62,-6.96 31.54,-8.90 34.94,-9.80 36.71,-9.98 49.69,-6.02 67.20,8.95 71.17,30.87 63.97,51.17 47.35,65.20 26.28,69.26 5.26,63.05 -7.66,46.82 -8.52,25.45 1.28,5.94 19.16,-6.57 30.74,-10.59 33.41,-10.90 36.04,-10.73 38.55,-9.93 40.79,-8.55 42.64,-6.68 43.99,-4.42 44.75,-1.90 44.90,0.73 44.40,3.32 43.31,5.71 41.67,7.77 39.59,9.38 37.18,10.45 Z" fill="#FFFFFF" stroke="transparent" stroke-width="0" stroke-linejoin="round" stroke-linecap="round" pointer-events="all" transform="translate(1802, 434)"/></svg>