<svg xmlns="http://www.w3.org/2000/svg" viewBox="687 287 1186 314" width="300" height="100"><path id="path_47cda109-fa99-41b9-2259-c60d0a8873f8" d="M-7.94,80.17 Q-8.41,75.73 -8.94,63.86 T-6.63,40.62 0.63,18.97 13.90,1.13 34.18,-8.47 59.54,-10.65 86.23,-10.86 110.05,-10.94 132.97,-10.98 157.46,-10.99 182.16,-11.00 207.51,-10.61 234.46,-9.18 261.00,-7.53 285.14,-6.62 307.91,-6.21 333.42,-5.67 360.43,-4.58 385.45,-3.53 409.36,-2.86 433.38,-2.39 457.91,-2.14 482.72,-2.05 506.63,-2.02 530.58,-2.00 553.99,-2.00 576.86,-1.27 599.93,1.37 622.05,6.69 640.64,18.84 651.57,38.72 655.71,60.91 656.77,83.69 656.87,107.02 652.50,129.25 638.33,146.09 617.81,155.88 595.45,160.33 572.07,161.53 547.48,161.90 521.91,161.97 496.96,161.99 473.34,162.00 449.35,162.00 425.21,162.00 401.78,162.00 377.98,162.00 354.97,162.00 332.32,162.00 309.60,162.00 286.25,162.00 261.44,162.00 235.38,162.00 210.15,162.00 185.21,162.00 160.00,162.00 135.64,161.57 112.52,160.48 90.18,158.81 67.72,156.05 44.76,152.33 22.40,146.76 5.18,134.36 -5.38,115.01 -9.40,93.46 -8.64,78.30 -6.88,72.51 -4.93,69.59 -2.15,67.44 1.18,66.30 4.69,66.28 8.02,67.38 10.83,69.49 12.82,72.38 13.78,75.76 13.62,79.27 12.34,82.54 10.08,85.23 7.08,87.06 3.66,87.84 0.16,87.48 -3.04,86.02 -5.60,83.62 -7.27,80.53 -7.85,77.07 -7.31,73.60 -5.68,70.48 -3.15,68.05 0.03,66.56 3.52,66.16 6.96,66.89 9.98,68.68 12.27,71.35 13.59,74.60 13.80,78.11 13.62,79.88 12.90,86.62 15.15,104.35 27.69,122.08 48.20,130.62 70.30,134.19 92.52,136.94 114.63,138.58 136.77,139.63 160.00,140.00 185.21,140.00 210.15,140.00 235.38,140.00 261.44,140.00 286.25,140.00 309.60,140.00 332.32,140.00 354.97,140.00 377.98,140.00 401.78,140.00 425.21,140.00 449.35,140.00 473.34,140.00 496.95,139.99 521.88,139.97 547.35,139.90 572.35,139.48 596.42,137.85 618.43,131.96 631.76,116.80 634.93,94.96 634.30,72.47 631.48,49.96 620.49,32.13 600.35,23.65 576.94,20.85 553.99,20.00 530.57,20.00 506.61,19.98 482.67,19.95 457.76,19.86 433.03,19.61 408.80,19.13 384.66,18.45 359.65,17.41 335.81,16.34 312.08,15.82 288.39,15.47 265.07,14.69 240.83,13.33 217.02,11.75 193.36,11.00 169.33,11.00 145.51,11.01 121.63,11.03 97.35,11.10 73.09,11.22 48.06,12.02 27.84,20.63 16.75,39.33 13.35,61.78 13.70,75.61 13.92,79.15 13.56,81.76 12.60,84.21 11.07,86.36 9.08,88.07 6.73,89.26 4.16,89.86 1.53,89.82 -1.02,89.15 -3.33,87.90 -5.28,86.12 -6.74,83.94 -7.64,81.46 Z" fill="#FFFFFF" stroke="transparent" stroke-width="0" stroke-linejoin="round" stroke-linecap="round" pointer-events="all" transform="translate(727, 353)"/><path id="path_c1cfa249-0836-41d0-359f-f3ebcd96fc60" d="M59.40,5.72 Q57.18,9.36 51.70,19.37 T41.17,39.37 31.06,59.21 20.63,79.42 12.83,95.72 9.52,103.21 7.36,105.98 4.43,107.91 1.03,108.81 -2.47,108.57 -5.72,107.23 -8.36,104.92 -10.14,101.89 -10.85,98.45 -10.42,94.96 -8.90,91.79 -6.46,89.27 -3.33,87.67 0.14,87.15 3.60,87.76 6.68,89.45 9.06,92.03 10.50,95.23 10.83,98.73 10.03,102.15 8.18,105.14 5.47,107.37 2.19,108.63 -1.32,108.77 -4.69,107.79 -7.57,105.78 -9.66,102.96 -10.73,99.61 -10.69,96.10 -10.38,94.35 -7.14,86.69 1.26,69.03 11.44,49.27 21.75,29.05 32.71,8.26 39.49,-3.90 41.42,-6.76 43.29,-8.62 45.55,-9.97 48.06,-10.75 50.69,-10.90 53.28,-10.42 55.68,-9.33 57.75,-7.70 59.36,-5.62 60.44,-3.22 60.90,-0.63 60.73,2.00 59.94,4.51 Z" fill="#FFFFFF" stroke="transparent" stroke-width="0" stroke-linejoin="round" stroke-linecap="round" pointer-events="all" transform="translate(740, 357)"/><path id="path_c10e523a-72a7-40fe-13eb-ea53fc086c05" d="M66.24,4.01 Q64.82,7.65 60.77,17.95 T52.31,39.13 43.06,60.22 33.40,80.27 23.37,100.00 14.03,118.32 8.91,128.20 6.46,130.72 3.34,132.33 -0.13,132.85 -3.59,132.24 -6.68,130.56 -9.06,127.98 -10.49,124.77 -10.83,121.28 -10.03,117.86 -8.19,114.87 -5.48,112.63 -2.20,111.37 1.31,111.22 4.68,112.21 7.56,114.21 9.65,117.04 10.73,120.38 10.69,123.89 9.53,127.20 7.37,129.97 4.43,131.91 1.04,132.81 -2.47,132.57 -5.71,131.23 -8.36,128.92 -10.13,125.89 -10.85,122.45 -10.42,118.96 -9.92,117.26 -6.06,109.35 2.85,91.74 12.74,72.23 22.31,52.42 31.56,31.51 40.21,10.12 45.04,-2.19 46.38,-5.18 47.90,-7.33 49.89,-9.05 52.24,-10.25 54.80,-10.85 57.43,-10.83 59.98,-10.17 62.30,-8.92 64.25,-7.15 65.72,-4.97 66.63,-2.50 66.92,0.12 66.57,2.73 Z" fill="#FFFFFF" stroke="transparent" stroke-width="0" stroke-linejoin="round" stroke-linecap="round" pointer-events="all" transform="translate(774, 360)"/><path id="path_bcac8a8c-c972-4e64-2b12-a0c315d2a64e" d="M67.26,3.97 Q65.36,8.88 60.60,21.07 T51.55,44.19 42.46,66.43 32.80,88.54 22.93,110.04 14.05,129.46 9.24,139.70 6.93,142.35 3.90,144.13 0.46,144.85 -3.02,144.43 -6.19,142.91 -8.72,140.47 -10.33,137.35 -10.85,133.88 -10.25,130.42 -8.57,127.33 -5.99,124.95 -2.78,123.51 0.71,123.17 4.13,123.96 7.12,125.81 9.37,128.51 10.63,131.79 10.78,135.30 9.80,138.67 7.79,141.56 4.97,143.65 1.63,144.73 -1.88,144.69 -5.20,143.53 -7.97,141.37 -9.90,138.44 -10.80,135.05 -10.57,131.54 -10.17,129.81 -5.60,119.69 3.55,99.66 12.79,79.40 22.12,58.06 31.20,35.83 40.23,12.77 45.79,-1.51 47.37,-5.14 48.88,-7.30 50.86,-9.03 53.20,-10.24 55.76,-10.85 58.39,-10.83 60.94,-10.18 63.27,-8.94 65.22,-7.18 66.70,-5.01 67.62,-2.54 67.92,0.08 67.58,2.69 Z" fill="#FFFFFF" stroke="transparent" stroke-width="0" stroke-linejoin="round" stroke-linecap="round" pointer-events="all" transform="translate(827, 357)"/><path id="path_c189d9ac-5dd4-4d14-068e-3d7caecb4925" d="M67.24,4.02 Q65.49,8.46 61.25,19.59 T53.01,41.33 44.14,63.03 34.45,84.35 25.03,105.27 15.00,127.70 8.45,140.82 5.83,143.16 2.60,144.54 -0.90,144.82 -4.31,143.96 -7.26,142.07 -9.46,139.33 -10.66,136.03 -10.75,132.51 -9.72,129.16 -7.66,126.31 -4.80,124.27 -1.45,123.24 2.07,123.34 5.36,124.56 8.09,126.77 9.98,129.73 10.82,133.14 10.53,136.64 9.13,139.86 6.78,142.47 3.72,144.20 0.27,144.85 -3.21,144.37 -6.35,142.80 -8.83,140.31 -10.38,137.17 -10.85,133.68 -10.18,130.24 -9.57,128.57 -4.73,118.04 4.38,97.49 13.65,76.96 23.65,55.04 32.50,33.36 40.69,11.76 45.89,-1.80 47.39,-5.19 48.91,-7.34 50.90,-9.06 53.25,-10.26 55.81,-10.86 58.44,-10.82 60.99,-10.16 63.31,-8.91 65.26,-7.14 66.73,-4.96 67.63,-2.49 67.92,0.13 67.57,2.74 Z" fill="#FFFFFF" stroke="transparent" stroke-width="0" stroke-linejoin="round" stroke-linecap="round" pointer-events="all" transform="translate(881, 361)"/><path id="path_979463d9-5646-4ba3-01ec-d7efed1e3c0d" d="M66.11,4.33 Q64.21,8.77 59.29,20.08 T49.24,43.00 39.49,65.21 31.41,86.63 23.82,108.33 14.61,129.36 8.39,140.89 5.75,143.21 2.51,144.56 -0.99,144.81 -4.39,143.93 -7.33,142.00 -9.51,139.24 -10.68,135.93 -10.74,132.42 -9.67,129.07 -7.59,126.24 -4.72,124.22 -1.35,123.23 2.16,123.36 5.44,124.61 8.16,126.84 10.02,129.82 10.83,133.23 10.51,136.73 9.08,139.94 6.71,142.53 3.63,144.23 0.18,144.85 -3.30,144.34 -6.43,142.75 -8.88,140.24 -10.41,137.07 -10.85,133.59 -10.15,130.15 -9.52,128.48 -4.22,117.48 5.01,95.86 12.50,74.29 20.75,53.07 30.02,32.29 39.29,10.93 44.94,-2.11 46.55,-5.48 48.14,-7.58 50.18,-9.24 52.56,-10.37 55.14,-10.89 57.77,-10.77 60.30,-10.04 62.58,-8.72 64.47,-6.89 65.88,-4.66 66.70,-2.16 66.91,0.46 66.48,3.06 Z" fill="#FFFFFF" stroke="transparent" stroke-width="0" stroke-linejoin="round" stroke-linecap="round" pointer-events="all" transform="translate(937, 365)"/><path id="path_5f69e302-b707-4950-05a8-cf859070c982" d="M61.48,3.35 Q60.21,7.32 56.77,18.51 T49.30,40.77 41.00,63.46 32.10,85.14 23.07,106.00 14.34,126.18 9.04,137.01 6.64,139.59 3.55,141.26 0.09,141.85 -3.38,141.32 -6.50,139.70 -8.93,137.17 -10.43,133.99 -10.84,130.50 -10.12,127.07 -8.33,124.04 -5.67,121.75 -2.42,120.42 1.08,120.20 4.47,121.11 7.40,123.06 9.55,125.84 10.70,129.15 10.73,132.67 9.63,136.00 7.53,138.82 4.64,140.81 1.26,141.78 -2.25,141.62 -5.52,140.35 -8.21,138.10 -10.05,135.10 -10.83,131.68 -10.48,128.18 -10.02,126.47 -5.58,116.89 3.22,96.49 12.38,75.35 20.89,54.68 28.46,33.76 35.79,11.90 39.89,-1.37 41.08,-4.56 42.46,-6.80 44.33,-8.65 46.59,-9.99 49.11,-10.76 51.74,-10.89 54.33,-10.40 56.72,-9.30 58.78,-7.66 60.39,-5.58 61.45,-3.17 61.90,-0.58 61.73,2.05 Z" fill="#FFFFFF" stroke="transparent" stroke-width="0" stroke-linejoin="round" stroke-linecap="round" pointer-events="all" transform="translate(985, 370)"/><path id="path_b8e3840f-2e78-46ea-2426-81df4b272911" d="M14.00,0.00 Q14.00,3.17 14.00,14.19 T14.45,36.64 14.83,59.61 13.45,82.23 11.59,104.52 11.01,120.86 10.71,127.78 9.58,131.11 7.45,133.90 4.53,135.86 1.15,136.79 -2.36,136.60 -5.62,135.29 -8.29,133.01 -10.09,129.99 -10.84,126.56 -10.45,123.07 -8.97,119.89 -6.55,117.34 -3.44,115.70 0.03,115.14 3.49,115.72 6.59,117.38 9.00,119.93 10.47,123.12 10.84,126.62 10.07,130.04 8.25,133.05 5.57,135.32 2.31,136.61 -1.20,136.79 -4.58,135.84 -7.49,133.86 -9.60,131.06 -10.72,127.73 -11.00,125.97 -10.99,121.29 -10.56,105.33 -8.75,82.74 -7.24,59.88 -7.55,36.77 -8.00,14.19 -8.00,1.58 -7.84,-1.32 -7.21,-3.87 -5.99,-6.20 -4.24,-8.17 -2.07,-9.67 0.39,-10.60 3.00,-10.92 5.61,-10.60 8.08,-9.67 10.24,-8.17 11.99,-6.20 13.21,-3.87 13.84,-1.32 Z" fill="#FFFFFF" stroke="transparent" stroke-width="0" stroke-linejoin="round" stroke-linecap="round" pointer-events="all" transform="translate(1040, 368)"/><path id="path_c185d800-0862-4d47-1658-7b2da896d499" d="M30.00,0.00 Q30.00,5.71 29.71,17.36 T28.86,40.21 38.89,48.24 60.23,47.75 79.03,58.06 91.06,76.33 91.93,98.15 79.36,116.47 60.02,129.19 39.07,136.71 16.55,137.03 -1.22,129.71 -8.61,122.61 -10.27,119.52 -10.85,116.05 -10.30,112.58 -8.67,109.47 -6.14,107.05 -2.95,105.55 0.54,105.16 3.97,105.90 6.99,107.69 9.27,110.36 10.59,113.62 10.80,117.12 9.87,120.51 7.92,123.43 5.13,125.57 1.81,126.70 -1.71,126.72 -5.04,125.61 -7.85,123.50 -9.83,120.60 -10.79,117.22 -10.61,113.72 -9.33,110.45 -7.07,107.76 -4.06,105.93 -0.64,105.16 2.86,105.53 6.05,106.99 7.53,107.98 20.68,112.10 44.04,111.85 63.87,100.38 68.84,82.80 53.44,69.76 31.57,68.16 13.27,60.32 6.76,40.02 7.71,17.12 8.00,2.85 8.16,-1.32 8.79,-3.87 10.01,-6.20 11.76,-8.17 13.93,-9.67 16.39,-10.60 19.00,-10.92 21.61,-10.60 24.08,-9.67 26.24,-8.17 27.99,-6.20 29.21,-3.87 29.84,-1.32 Z" fill="#FFFFFF" stroke="transparent" stroke-width="0" stroke-linejoin="round" stroke-linecap="round" pointer-events="all" transform="translate(1423, 370)"/><path id="path_ba305183-b182-4354-0221-73cf28b87ff8" d="M0.00,-11.00 Q2.85,-11.00 13.94,-11.00 T36.25,-10.59 58.74,-10.09 71.78,-9.71 75.10,-8.58 77.90,-6.45 79.86,-3.54 80.79,-0.15 80.60,3.36 79.29,6.62 77.01,9.29 74.00,11.09 70.56,11.84 67.07,11.45 63.89,9.97 61.34,7.55 59.71,4.44 59.14,0.98 59.72,-2.49 61.37,-5.59 63.93,-8.00 67.12,-9.47 70.61,-9.84 74.04,-9.07 77.05,-7.26 79.31,-4.57 80.61,-1.31 80.79,2.20 79.84,5.58 77.86,8.48 75.06,10.60 71.73,11.72 69.98,12.00 58.43,11.91 35.96,11.41 13.94,11.00 1.43,11.00 -1.32,10.84 -3.87,10.21 -6.20,8.99 -8.17,7.24 -9.67,5.07 -10.60,2.61 -10.92,-0.00 -10.60,-2.61 -9.67,-5.08 -8.17,-7.24 -6.20,-8.99 -3.87,-10.21 -1.32,-10.84 Z" fill="#FFFFFF" stroke="transparent" stroke-width="0" stroke-linejoin="round" stroke-linecap="round" pointer-events="all" transform="translate(1447, 366)"/><path id="path_c2a14e1a-c4ab-4c03-3a54-fd1b27d671cc" d="M58.81,10.85 Q55.96,11.32 46.21,16.46 T28.69,29.88 16.83,48.66 11.98,71.04 11.12,94.49 17.89,114.84 35.59,122.33 54.66,113.75 66.80,96.00 73.02,74.63 74.72,52.52 69.67,30.82 59.08,16.96 51.34,12.80 48.45,10.80 46.36,7.98 45.27,4.64 45.31,1.13 46.46,-2.19 48.62,-4.96 51.55,-6.90 54.94,-7.80 58.45,-7.58 61.69,-6.24 64.35,-3.94 66.13,-0.91 66.84,2.53 66.43,6.01 64.92,9.19 62.48,11.71 59.36,13.32 55.88,13.85 52.42,13.25 49.34,11.57 46.95,9.00 45.51,5.79 45.17,2.30 45.96,-1.13 47.80,-4.12 50.50,-6.36 53.78,-7.63 57.29,-7.78 59.05,-7.57 63.86,-5.96 76.99,3.38 89.88,21.33 96.13,43.30 96.56,66.18 92.53,88.30 85.19,109.46 73.01,127.71 54.02,140.39 31.74,145.19 10.00,142.26 -5.91,129.15 -10.96,108.29 -10.78,86.34 -9.44,63.76 -4.18,41.50 6.73,21.23 22.76,4.89 42.13,-6.15 53.76,-10.61 56.52,-10.91 59.14,-10.71 61.64,-9.88 63.87,-8.49 65.70,-6.59 67.03,-4.32 67.77,-1.79 67.89,0.84 67.37,3.42 66.25,5.80 64.60,7.85 62.50,9.44 60.08,10.48 Z" fill="#FFFFFF" stroke="transparent" stroke-width="0" stroke-linejoin="round" stroke-linecap="round" pointer-events="all" transform="translate(1549, 366)"/><path id="path_fdd46707-77c9-4712-22ea-1fec76dc500c" d="M86.43,5.66 Q84.53,8.83 77.93,18.67 T65.02,37.76 52.49,56.75 39.72,75.71 26.21,93.63 14.18,109.73 7.89,118.45 5.10,120.58 1.78,121.71 -1.74,121.72 -5.07,120.60 -7.87,118.48 -9.84,115.58 -10.79,112.19 -10.61,108.68 -9.31,105.42 -7.04,102.74 -4.03,100.92 -0.61,100.16 2.89,100.54 6.08,102.01 8.63,104.42 10.28,107.52 10.86,110.98 10.29,114.45 8.65,117.56 6.11,119.97 2.92,121.45 -0.57,121.84 -4.00,121.09 -7.01,119.28 -9.29,116.61 -10.60,113.35 -10.79,109.84 -9.86,106.46 -9.11,104.84 -3.53,96.71 9.06,79.85 22.36,62.15 34.62,43.86 47.02,25.12 59.55,6.60 66.62,-4.07 68.38,-6.71 70.24,-8.57 72.49,-9.94 75.00,-10.73 77.62,-10.90 80.21,-10.44 82.62,-9.36 84.70,-7.75 86.33,-5.68 87.41,-3.28 87.90,-0.69 87.75,1.93 86.97,4.45 Z" fill="#FFFFFF" stroke="transparent" stroke-width="0" stroke-linejoin="round" stroke-linecap="round" pointer-events="all" transform="translate(1709, 384)"/><path id="path_df9d2eea-2065-4a58-17a1-a64df3ab5527" d="M36.99,10.25 Q34.13,11.36 24.88,18.43 T16.06,36.61 27.68,46.35 43.81,35.14 38.36,19.03 26.54,11.72 24.09,9.20 22.58,6.03 22.15,2.54 22.87,-0.90 24.64,-3.93 27.29,-6.23 30.54,-7.57 34.04,-7.80 37.44,-6.91 40.37,-4.97 42.53,-2.20 43.69,1.12 43.73,4.63 42.65,7.97 40.56,10.79 37.68,12.80 34.30,13.78 30.79,13.63 27.51,12.37 24.81,10.13 22.96,7.14 22.17,3.72 22.51,0.22 23.94,-2.98 26.33,-5.56 29.41,-7.25 32.87,-7.85 36.34,-7.33 38.04,-6.78 42.21,-5.22 55.82,2.79 68.38,19.86 67.73,41.18 55.05,59.23 34.63,68.64 12.39,67.32 -4.15,54.40 -8.94,33.89 -1.55,13.73 15.52,-2.31 27.59,-9.70 30.30,-10.58 32.91,-10.92 35.52,-10.62 37.99,-9.71 40.17,-8.23 41.93,-6.28 43.18,-3.96 43.83,-1.41 43.85,1.23 43.24,3.79 42.04,6.13 40.31,8.11 38.15,9.63 Z" fill="#FFFFFF" stroke="transparent" stroke-width="0" stroke-linejoin="round" stroke-linecap="round" pointer-events="all" transform="translate(1681, 353)"/><path id="path_f98caa50-1a48-44d8-30a1-ffb3a285d259" d="M41.60,12.47 Q38.11,14.53 28.42,20.50 T16.92,37.59 25.16,52.99 43.95,49.96 52.10,31.20 43.40,15.36 33.56,10.58 30.31,9.25 27.66,6.94 25.88,3.92 25.16,0.48 25.57,-3.01 27.08,-6.18 29.52,-8.71 32.64,-10.32 36.11,-10.85 39.57,-10.25 42.66,-8.58 45.05,-6.00 46.49,-2.80 46.83,0.70 46.04,4.12 44.20,7.11 41.50,9.36 38.23,10.62 34.72,10.78 31.34,9.81 28.46,7.80 26.36,4.99 25.27,1.65 25.31,-1.87 26.46,-5.18 28.62,-7.96 31.54,-9.90 34.94,-10.80 36.71,-10.98 42.25,-10.53 57.22,-4.34 70.74,12.08 74.73,34.15 69.37,55.21 54.39,71.12 33.10,78.06 12.04,73.48 -3.36,58.52 -8.61,37.15 -0.39,16.58 17.06,1.66 28.66,-5.44 31.62,-7.00 34.14,-7.76 36.77,-7.89 39.35,-7.39 41.74,-6.29 43.80,-4.64 45.40,-2.55 46.46,-0.14 46.91,2.45 46.72,5.08 45.91,7.58 44.53,9.82 42.65,11.66 Z" fill="#FFFFFF" stroke="transparent" stroke-width="0" stroke-linejoin="round" stroke-linecap="round" pointer-events="all" transform="translate(1768, 442)"/></svg>