<svg xmlns="http://www.w3.org/2000/svg" viewBox="687 268 1177 342" width="300" height="100"><path id="path_47cda109-fa99-41b9-2259-c60d0a8873f8" d="M-7.94,80.17 Q-8.41,75.73 -8.94,63.86 T-6.63,40.62 0.63,18.97 13.90,1.13 34.18,-8.47 59.54,-10.65 86.23,-10.86 110.05,-10.94 132.97,-10.98 157.46,-10.99 182.16,-11.00 207.51,-10.61 234.46,-9.18 261.00,-7.53 285.14,-6.62 307.91,-6.21 333.42,-5.67 360.43,-4.58 385.45,-3.53 409.36,-2.86 433.38,-2.39 457.91,-2.14 482.72,-2.05 506.63,-2.02 530.58,-2.00 553.99,-2.00 576.86,-1.27 599.93,1.37 622.05,6.69 640.64,18.84 651.57,38.72 655.71,60.91 656.77,83.69 656.87,107.02 652.50,129.25 638.33,146.09 617.81,155.88 595.45,160.33 572.07,161.53 547.48,161.90 521.91,161.97 496.96,161.99 473.34,162.00 449.35,162.00 425.21,162.00 401.78,162.00 377.98,162.00 354.97,162.00 332.32,162.00 309.60,162.00 286.25,162.00 261.44,162.00 235.38,162.00 210.15,162.00 185.21,162.00 160.00,162.00 135.64,161.57 112.52,160.48 90.18,158.81 67.72,156.05 44.76,152.33 22.40,146.76 5.18,134.36 -5.38,115.01 -9.40,93.46 -8.64,78.30 -6.88,72.51 -4.93,69.59 -2.15,67.44 1.18,66.30 4.69,66.28 8.02,67.38 10.83,69.49 12.82,72.38 13.78,75.76 13.62,79.27 12.34,82.54 10.08,85.23 7.08,87.06 3.66,87.84 0.16,87.48 -3.04,86.02 -5.60,83.62 -7.27,80.53 -7.85,77.07 -7.31,73.60 -5.68,70.48 -3.15,68.05 0.03,66.56 3.52,66.16 6.96,66.89 9.98,68.68 12.27,71.35 13.59,74.60 13.80,78.11 13.62,79.88 12.90,86.62 15.15,104.35 27.69,122.08 48.20,130.62 70.30,134.19 92.52,136.94 114.63,138.58 136.77,139.63 160.00,140.00 185.21,140.00 210.15,140.00 235.38,140.00 261.44,140.00 286.25,140.00 309.60,140.00 332.32,140.00 354.97,140.00 377.98,140.00 401.78,140.00 425.21,140.00 449.35,140.00 473.34,140.00 496.95,139.99 521.88,139.97 547.35,139.90 572.35,139.48 596.42,137.85 618.43,131.96 631.76,116.80 634.93,94.96 634.30,72.47 631.48,49.96 620.49,32.13 600.35,23.65 576.94,20.85 553.99,20.00 530.57,20.00 506.61,19.98 482.67,19.95 457.76,19.86 433.03,19.61 408.80,19.13 384.66,18.45 359.65,17.41 335.81,16.34 312.08,15.82 288.39,15.47 265.07,14.69 240.83,13.33 217.02,11.75 193.36,11.00 169.33,11.00 145.51,11.01 121.63,11.03 97.35,11.10 73.09,11.22 48.06,12.02 27.84,20.63 16.75,39.33 13.35,61.78 13.70,75.61 13.92,79.15 13.56,81.76 12.60,84.21 11.07,86.36 9.08,88.07 6.73,89.26 4.16,89.86 1.53,89.82 -1.02,89.15 -3.33,87.90 -5.28,86.12 -6.74,83.94 -7.64,81.46 Z" fill="#FFFFFF" stroke="transparent" stroke-width="0" stroke-linejoin="round" stroke-linecap="round" pointer-events="all" transform="translate(727, 353)"/><path id="path_c1cfa249-0836-41d0-359f-f3ebcd96fc60" d="M59.40,5.72 Q57.18,9.36 51.70,19.37 T41.17,39.37 31.06,59.21 20.63,79.42 12.83,95.72 9.52,103.21 7.36,105.98 4.43,107.91 1.03,108.81 -2.47,108.57 -5.72,107.23 -8.36,104.92 -10.14,101.89 -10.85,98.45 -10.42,94.96 -8.90,91.79 -6.46,89.27 -3.33,87.67 0.14,87.15 3.60,87.76 6.68,89.45 9.06,92.03 10.50,95.23 10.83,98.73 10.03,102.15 8.18,105.14 5.47,107.37 2.19,108.63 -1.32,108.77 -4.69,107.79 -7.57,105.78 -9.66,102.96 -10.73,99.61 -10.69,96.10 -10.38,94.35 -7.14,86.69 1.26,69.03 11.44,49.27 21.75,29.05 32.71,8.26 39.49,-3.90 41.42,-6.76 43.29,-8.62 45.55,-9.97 48.06,-10.75 50.69,-10.90 53.28,-10.42 55.68,-9.33 57.75,-7.70 59.36,-5.62 60.44,-3.22 60.90,-0.63 60.73,2.00 59.94,4.51 Z" fill="#FFFFFF" stroke="transparent" stroke-width="0" stroke-linejoin="round" stroke-linecap="round" pointer-events="all" transform="translate(740, 357)"/><path id="path_c10e523a-72a7-40fe-13eb-ea53fc086c05" d="M66.24,4.01 Q64.82,7.65 60.77,17.95 T52.31,39.13 43.06,60.22 33.40,80.27 23.37,100.00 14.03,118.32 8.91,128.20 6.46,130.72 3.34,132.33 -0.13,132.85 -3.59,132.24 -6.68,130.56 -9.06,127.98 -10.49,124.77 -10.83,121.28 -10.03,117.86 -8.19,114.87 -5.48,112.63 -2.20,111.37 1.31,111.22 4.68,112.21 7.56,114.21 9.65,117.04 10.73,120.38 10.69,123.89 9.53,127.20 7.37,129.97 4.43,131.91 1.04,132.81 -2.47,132.57 -5.71,131.23 -8.36,128.92 -10.13,125.89 -10.85,122.45 -10.42,118.96 -9.92,117.26 -6.06,109.35 2.85,91.74 12.74,72.23 22.31,52.42 31.56,31.51 40.21,10.12 45.04,-2.19 46.38,-5.18 47.90,-7.33 49.89,-9.05 52.24,-10.25 54.80,-10.85 57.43,-10.83 59.98,-10.17 62.30,-8.92 64.25,-7.15 65.72,-4.97 66.63,-2.50 66.92,0.12 66.57,2.73 Z" fill="#FFFFFF" stroke="transparent" stroke-width="0" stroke-linejoin="round" stroke-linecap="round" pointer-events="all" transform="translate(774, 360)"/><path id="path_bcac8a8c-c972-4e64-2b12-a0c315d2a64e" d="M67.26,3.97 Q65.36,8.88 60.60,21.07 T51.55,44.19 42.46,66.43 32.80,88.54 22.93,110.04 14.05,129.46 9.24,139.70 6.93,142.35 3.90,144.13 0.46,144.85 -3.02,144.43 -6.19,142.91 -8.72,140.47 -10.33,137.35 -10.85,133.88 -10.25,130.42 -8.57,127.33 -5.99,124.95 -2.78,123.51 0.71,123.17 4.13,123.96 7.12,125.81 9.37,128.51 10.63,131.79 10.78,135.30 9.80,138.67 7.79,141.56 4.97,143.65 1.63,144.73 -1.88,144.69 -5.20,143.53 -7.97,141.37 -9.90,138.44 -10.80,135.05 -10.57,131.54 -10.17,129.81 -5.60,119.69 3.55,99.66 12.79,79.40 22.12,58.06 31.20,35.83 40.23,12.77 45.79,-1.51 47.37,-5.14 48.88,-7.30 50.86,-9.03 53.20,-10.24 55.76,-10.85 58.39,-10.83 60.94,-10.18 63.27,-8.94 65.22,-7.18 66.70,-5.01 67.62,-2.54 67.92,0.08 67.58,2.69 Z" fill="#FFFFFF" stroke="transparent" stroke-width="0" stroke-linejoin="round" stroke-linecap="round" pointer-events="all" transform="translate(827, 357)"/><path id="path_c189d9ac-5dd4-4d14-068e-3d7caecb4925" d="M67.24,4.02 Q65.49,8.46 61.25,19.59 T53.01,41.33 44.14,63.03 34.45,84.35 25.03,105.27 15.00,127.70 8.45,140.82 5.83,143.16 2.60,144.54 -0.90,144.82 -4.31,143.96 -7.26,142.07 -9.46,139.33 -10.66,136.03 -10.75,132.51 -9.72,129.16 -7.66,126.31 -4.80,124.27 -1.45,123.24 2.07,123.34 5.36,124.56 8.09,126.77 9.98,129.73 10.82,133.14 10.53,136.64 9.13,139.86 6.78,142.47 3.72,144.20 0.27,144.85 -3.21,144.37 -6.35,142.80 -8.83,140.31 -10.38,137.17 -10.85,133.68 -10.18,130.24 -9.57,128.57 -4.73,118.04 4.38,97.49 13.65,76.96 23.65,55.04 32.50,33.36 40.69,11.76 45.89,-1.80 47.39,-5.19 48.91,-7.34 50.90,-9.06 53.25,-10.26 55.81,-10.86 58.44,-10.82 60.99,-10.16 63.31,-8.91 65.26,-7.14 66.73,-4.96 67.63,-2.49 67.92,0.13 67.57,2.74 Z" fill="#FFFFFF" stroke="transparent" stroke-width="0" stroke-linejoin="round" stroke-linecap="round" pointer-events="all" transform="translate(881, 361)"/><path id="path_979463d9-5646-4ba3-01ec-d7efed1e3c0d" d="M66.11,4.33 Q64.21,8.77 59.29,20.08 T49.24,43.00 39.49,65.21 31.41,86.63 23.82,108.33 14.61,129.36 8.39,140.89 5.75,143.21 2.51,144.56 -0.99,144.81 -4.39,143.93 -7.33,142.00 -9.51,139.24 -10.68,135.93 -10.74,132.42 -9.67,129.07 -7.59,126.24 -4.72,124.22 -1.35,123.23 2.16,123.36 5.44,124.61 8.16,126.84 10.02,129.82 10.83,133.23 10.51,136.73 9.08,139.94 6.71,142.53 3.63,144.23 0.18,144.85 -3.30,144.34 -6.43,142.75 -8.88,140.24 -10.41,137.07 -10.85,133.59 -10.15,130.15 -9.52,128.48 -4.22,117.48 5.01,95.86 12.50,74.29 20.75,53.07 30.02,32.29 39.29,10.93 44.94,-2.11 46.55,-5.48 48.14,-7.58 50.18,-9.24 52.56,-10.37 55.14,-10.89 57.77,-10.77 60.30,-10.04 62.58,-8.72 64.47,-6.89 65.88,-4.66 66.70,-2.16 66.91,0.46 66.48,3.06 Z" fill="#FFFFFF" stroke="transparent" stroke-width="0" stroke-linejoin="round" stroke-linecap="round" pointer-events="all" transform="translate(937, 365)"/><path id="path_5f69e302-b707-4950-05a8-cf859070c982" d="M61.48,3.35 Q60.21,7.32 56.77,18.51 T49.30,40.77 41.00,63.46 32.10,85.14 23.07,106.00 14.34,126.18 9.04,137.01 6.64,139.59 3.55,141.26 0.09,141.85 -3.38,141.32 -6.50,139.70 -8.93,137.17 -10.43,133.99 -10.84,130.50 -10.12,127.07 -8.33,124.04 -5.67,121.75 -2.42,120.42 1.08,120.20 4.47,121.11 7.40,123.06 9.55,125.84 10.70,129.15 10.73,132.67 9.63,136.00 7.53,138.82 4.64,140.81 1.26,141.78 -2.25,141.62 -5.52,140.35 -8.21,138.10 -10.05,135.10 -10.83,131.68 -10.48,128.18 -10.02,126.47 -5.58,116.89 3.22,96.49 12.38,75.35 20.89,54.68 28.46,33.76 35.79,11.90 39.89,-1.37 41.08,-4.56 42.46,-6.80 44.33,-8.65 46.59,-9.99 49.11,-10.76 51.74,-10.89 54.33,-10.40 56.72,-9.30 58.78,-7.66 60.39,-5.58 61.45,-3.17 61.90,-0.58 61.73,2.05 Z" fill="#FFFFFF" stroke="transparent" stroke-width="0" stroke-linejoin="round" stroke-linecap="round" pointer-events="all" transform="translate(985, 370)"/><path id="path_3afae22e-fd16-418e-1e72-eec8a445e92d" d="M61.18,4.16 Q59.75,7.65 56.30,18.52 T49.14,39.64 41.41,60.38 33.43,81.16 25.54,102.46 17.48,123.72 12.09,139.02 10.19,145.74 8.46,148.80 5.85,151.14 2.62,152.53 -0.88,152.82 -4.29,151.97 -7.25,150.08 -9.45,147.35 -10.66,144.05 -10.76,140.54 -9.73,137.18 -7.68,134.33 -4.83,132.28 -1.47,131.24 2.04,131.34 5.34,132.55 8.08,134.75 9.97,137.71 10.82,141.12 10.53,144.62 9.15,147.84 6.80,150.46 3.75,152.19 0.30,152.85 -3.18,152.38 -6.33,150.82 -8.82,148.33 -10.38,145.19 -10.85,141.71 -10.80,139.93 -9.17,133.56 -3.46,117.02 4.62,95.64 12.92,73.24 21.18,51.68 28.93,30.88 36.05,9.89 40.11,-2.42 41.47,-5.32 43.02,-7.45 45.03,-9.14 47.39,-10.31 49.96,-10.87 52.60,-10.80 55.14,-10.11 57.43,-8.82 59.36,-7.03 60.80,-4.82 61.67,-2.34 61.92,0.28 61.53,2.89 Z" fill="#FFFFFF" stroke="transparent" stroke-width="0" stroke-linejoin="round" stroke-linecap="round" pointer-events="all" transform="translate(1038, 362)"/><path id="path_d01c1308-bffd-4c95-3417-13edc4c76f3e" d="M51.52,3.20 Q50.41,6.85 46.64,18.16 T38.69,39.76 30.05,61.06 22.93,82.84 17.39,104.45 12.69,122.94 10.35,132.27 8.77,135.40 6.26,137.87 3.10,139.40 -0.38,139.85 -3.83,139.16 -6.87,137.41 -9.19,134.77 -10.56,131.53 -10.81,128.03 -9.94,124.63 -8.02,121.69 -5.27,119.51 -1.96,118.32 1.55,118.26 4.90,119.31 7.74,121.39 9.76,124.26 10.77,127.62 10.64,131.13 9.41,134.42 7.18,137.14 4.21,139.01 0.79,139.83 -2.71,139.51 -5.92,138.10 -8.52,135.73 -10.22,132.66 -10.85,129.20 -10.89,127.43 -8.86,118.67 -4.00,99.31 1.58,77.49 8.73,55.25 17.59,33.29 25.71,11.39 29.92,-1.38 31.01,-4.42 32.36,-6.68 34.21,-8.55 36.45,-9.93 38.96,-10.73 41.59,-10.90 44.18,-10.45 46.59,-9.38 48.67,-7.77 50.31,-5.71 51.40,-3.32 51.90,-0.73 51.75,1.90 Z" fill="#FFFFFF" stroke="transparent" stroke-width="0" stroke-linejoin="round" stroke-linecap="round" pointer-events="all" transform="translate(1091, 369)"/><path id="path_1df7905d-660e-4c63-2a0b-3f926758b90d" d="M57.48,3.35 Q56.21,7.32 52.70,18.02 T44.92,39.50 36.63,60.83 28.63,81.65 20.10,102.79 13.09,120.76 9.89,129.48 7.94,132.40 5.16,134.55 1.84,135.70 -1.67,135.73 -5.01,134.63 -7.82,132.53 -9.82,129.63 -10.78,126.26 -10.62,122.75 -9.34,119.48 -7.09,116.78 -4.09,114.95 -0.67,114.17 2.82,114.52 6.02,115.97 8.59,118.37 10.26,121.46 10.85,124.92 10.31,128.39 8.69,131.50 6.16,133.94 2.98,135.44 -0.51,135.84 -3.94,135.11 -6.97,133.33 -9.26,130.67 -10.58,127.41 -10.80,123.91 -10.62,122.14 -7.94,114.36 -0.83,96.04 7.59,75.22 15.67,54.12 24.09,32.38 31.84,11.04 35.89,-1.37 37.08,-4.56 38.46,-6.80 40.33,-8.65 42.59,-9.99 45.11,-10.76 47.74,-10.89 50.33,-10.40 52.72,-9.30 54.78,-7.66 56.39,-5.58 57.45,-3.17 57.90,-0.58 57.73,2.05 Z" fill="#FFFFFF" stroke="transparent" stroke-width="0" stroke-linejoin="round" stroke-linecap="round" pointer-events="all" transform="translate(1129, 371)"/><path id="path_d228f724-5446-4e99-36f7-a3b24e7565c3" d="M56.84,1.87 Q56.05,6.47 53.58,18.15 T47.55,41.33 40.29,63.35 32.09,84.53 23.25,105.30 14.46,126.99 9.02,140.04 6.62,142.60 3.53,144.26 0.07,144.85 -3.40,144.31 -6.52,142.68 -8.95,140.15 -10.44,136.97 -10.84,133.48 -10.11,130.04 -8.32,127.02 -5.65,124.73 -2.40,123.41 1.11,123.20 4.50,124.12 7.42,126.07 9.56,128.86 10.70,132.18 10.72,135.69 9.62,139.03 7.51,141.84 4.62,143.82 1.24,144.78 -2.27,144.62 -5.54,143.33 -8.23,141.08 -10.06,138.08 -10.84,134.65 -10.48,131.16 -10.01,129.44 -6.48,120.19 1.53,100.34 10.43,79.43 18.51,58.71 25.77,37.16 31.87,14.37 34.76,0.43 35.54,-3.14 36.60,-5.55 38.20,-7.64 40.25,-9.29 42.64,-10.39 45.23,-10.89 47.86,-10.76 50.38,-10.00 52.64,-8.67 54.53,-6.82 55.91,-4.59 56.72,-2.08 56.91,0.55 Z" fill="#FFFFFF" stroke="transparent" stroke-width="0" stroke-linejoin="round" stroke-linecap="round" pointer-events="all" transform="translate(1167, 366)"/><path id="path_e2f643d6-8529-434e-0d95-8cdc37042735" d="M14.00,0.00 Q14.00,3.33 14.00,14.46 T14.00,36.81 14.00,59.34 14.00,81.56 13.48,103.44 11.97,123.55 10.59,134.40 9.27,137.65 6.98,140.32 3.96,142.11 0.52,142.84 -2.97,142.44 -6.15,140.95 -8.68,138.52 -10.31,135.40 -10.85,131.93 -10.27,128.47 -8.60,125.38 -6.04,122.98 -2.84,121.52 0.66,121.16 4.08,121.94 7.08,123.77 9.34,126.46 10.62,129.73 10.78,133.24 9.82,136.62 7.83,139.51 5.02,141.62 1.69,142.72 -1.82,142.70 -5.15,141.56 -7.93,139.41 -9.88,136.50 -10.80,133.10 -10.98,131.34 -10.29,123.25 -8.80,103.80 -8.00,81.56 -8.00,59.34 -8.00,36.81 -8.00,14.46 -8.00,1.66 -7.84,-1.32 -7.21,-3.87 -5.99,-6.20 -4.24,-8.17 -2.07,-9.67 0.39,-10.60 3.00,-10.92 5.61,-10.60 8.08,-9.67 10.24,-8.17 11.99,-6.20 13.21,-3.87 13.84,-1.32 Z" fill="#FFFFFF" stroke="transparent" stroke-width="0" stroke-linejoin="round" stroke-linecap="round" pointer-events="all" transform="translate(1216, 370)"/><path id="path_5ac024a5-98f4-4160-2fd9-0670020b3f9d" d="M13.94,1.17 Q13.46,5.61 12.21,20.25 T10.54,36.61 9.15,39.84 6.81,42.45 3.75,44.19 0.31,44.85 -3.18,44.38 -6.32,42.82 -8.81,40.34 -10.37,37.20 -10.85,33.72 -10.19,30.27 -8.47,27.21 -5.86,24.86 -2.63,23.47 0.87,23.18 4.28,24.02 7.24,25.91 9.44,28.65 10.66,31.94 10.76,35.46 9.73,38.81 7.68,41.67 4.83,43.72 1.47,44.75 -2.04,44.66 -5.33,43.45 -8.07,41.26 -9.97,38.30 -10.82,34.89 -10.96,33.12 -9.69,18.19 -8.18,1.05 -7.64,-2.46 -6.74,-4.94 -5.27,-7.13 -3.33,-8.90 -1.02,-10.15 1.53,-10.82 4.16,-10.86 6.73,-10.26 9.08,-9.07 11.07,-7.36 12.60,-5.21 13.56,-2.76 13.92,-0.15 Z" fill="#FFFFFF" stroke="transparent" stroke-width="0" stroke-linejoin="round" stroke-linecap="round" pointer-events="all" transform="translate(1442, 365)"/><path id="path_ee1c17b0-a1aa-400c-3822-7cb413da545b" d="M1.87,-3.84 Q6.47,-3.05 17.43,-2.07 T41.47,-3.96 59.38,2.92 62.19,24.20 57.39,47.82 52.28,70.64 47.56,92.20 42.56,114.20 36.31,140.48 31.99,157.24 30.11,160.21 27.38,162.43 24.09,163.65 20.58,163.76 17.22,162.75 14.36,160.71 12.30,157.87 11.25,154.51 11.33,151.00 12.53,147.70 14.72,144.95 17.67,143.05 21.07,142.18 24.57,142.45 27.81,143.83 30.43,146.16 32.17,149.21 32.85,152.66 32.39,156.14 30.84,159.30 28.37,161.79 25.23,163.36 21.75,163.85 18.30,163.20 15.23,161.49 12.88,158.88 11.48,155.66 11.18,152.16 11.31,150.39 13.33,142.12 18.15,122.10 23.89,97.17 29.23,72.98 34.61,49.11 43.13,26.17 37.35,18.57 14.38,19.84 0.43,18.24 -3.14,17.46 -5.55,16.40 -7.64,14.80 -9.29,12.75 -10.39,10.36 -10.89,7.77 -10.76,5.14 -10.00,2.62 -8.67,0.36 -6.82,-1.53 -4.59,-2.91 -2.08,-3.72 0.55,-3.91 Z" fill="#FFFFFF" stroke="transparent" stroke-width="0" stroke-linejoin="round" stroke-linecap="round" pointer-events="all" transform="translate(1445, 357)"/><path id="path_d5207978-4ce2-4e1d-147e-1713eb472167" d="M0.37,-10.99 Q5.12,-10.84 16.39,-10.57 T39.26,-9.83 60.02,-9.18 70.94,-8.68 74.25,-7.50 77.01,-5.33 78.93,-2.39 79.81,1.01 79.56,4.51 78.21,7.75 75.89,10.39 72.85,12.15 69.40,12.85 65.92,12.41 62.76,10.88 60.25,8.42 58.66,5.29 58.15,1.82 58.77,-1.64 60.47,-4.72 63.06,-7.09 66.27,-8.51 69.77,-8.83 73.19,-8.01 76.17,-6.15 78.40,-3.44 79.64,-0.15 79.77,3.36 78.77,6.73 76.75,9.60 73.92,11.68 70.57,12.74 68.81,13.00 59.48,12.81 38.71,12.16 15.84,11.43 2.01,11.07 -1.68,10.79 -4.21,10.08 -6.50,8.78 -8.41,6.96 -9.83,4.75 -10.68,2.26 -10.91,-0.36 -10.51,-2.97 -9.49,-5.39 -7.93,-7.51 -5.90,-9.19 -3.53,-10.33 -0.95,-10.88 Z" fill="#FFFFFF" stroke="transparent" stroke-width="0" stroke-linejoin="round" stroke-linecap="round" pointer-events="all" transform="translate(1449, 440)"/><path id="path_ef27759a-42be-41f3-3c53-5a23fc1ebf90" d="M31.98,0.61 Q31.67,6.32 30.12,18.75 T26.09,43.23 34.80,56.78 58.21,61.72 78.46,73.62 89.29,93.26 87.91,115.14 74.00,130.84 53.63,138.69 32.07,143.12 8.91,143.16 -4.76,140.50 -7.12,137.89 -8.52,134.67 -8.82,131.18 -7.99,127.76 -6.12,124.79 -3.39,122.58 -0.10,121.35 3.41,121.24 6.77,122.25 9.64,124.28 11.70,127.13 12.75,130.48 12.67,133.99 11.48,137.29 9.29,140.04 6.34,141.95 2.94,142.81 -0.57,142.55 -3.80,141.18 -6.43,138.84 -8.17,135.79 -8.85,132.35 -8.39,128.87 -6.85,125.71 -4.38,123.22 -1.24,121.64 2.24,121.15 5.69,121.79 7.36,122.40 17.58,122.31 38.59,119.72 59.63,112.57 66.50,97.53 52.68,83.79 31.33,81.98 9.89,80.02 0.51,64.47 4.21,40.44 8.22,16.77 9.86,2.24 10.25,-1.92 11.02,-4.43 12.37,-6.69 14.22,-8.56 16.47,-9.94 18.98,-10.73 21.61,-10.90 24.20,-10.44 26.60,-9.37 28.68,-7.76 30.32,-5.69 31.41,-3.30 31.90,-0.71 Z" fill="#FFFFFF" stroke="transparent" stroke-width="0" stroke-linejoin="round" stroke-linecap="round" pointer-events="all" transform="translate(1551, 364)"/><path id="path_d8fb1a2d-1068-45d3-1e03-90007316e5d6" d="M0.00,-11.00 Q3.65,-11.00 15.52,-11.00 T38.56,-10.59 60.39,-10.09 72.79,-9.71 76.12,-8.57 78.91,-6.44 80.87,-3.52 81.80,-0.14 81.59,3.37 80.28,6.63 78.00,9.30 74.98,11.10 71.55,11.84 68.06,11.45 64.88,9.96 62.34,7.54 60.70,4.43 60.14,0.96 60.73,-2.50 62.38,-5.60 64.94,-8.01 68.13,-9.47 71.63,-9.84 75.05,-9.07 78.06,-7.25 80.32,-4.56 81.61,-1.30 81.79,2.21 80.84,5.59 78.85,8.49 76.05,10.61 72.72,11.72 70.96,12.00 60.09,11.91 38.30,11.41 15.52,11.00 1.82,11.00 -1.32,10.84 -3.87,10.21 -6.20,8.99 -8.17,7.24 -9.67,5.07 -10.60,2.61 -10.92,-0.00 -10.60,-2.61 -9.67,-5.08 -8.17,-7.24 -6.20,-8.99 -3.87,-10.21 -1.32,-10.84 Z" fill="#FFFFFF" stroke="transparent" stroke-width="0" stroke-linejoin="round" stroke-linecap="round" pointer-events="all" transform="translate(1571, 361)"/><path id="path_dc07b6f3-a576-41b4-150a-166fd62e65e5" d="M104.57,7.99 Q101.55,10.84 93.50,19.59 T77.94,37.23 63.39,54.49 48.73,71.86 33.67,89.12 18.54,106.12 9.13,116.50 5.91,119.11 2.69,120.52 -0.81,120.82 -4.22,120.00 -7.20,118.13 -9.41,115.40 -10.65,112.12 -10.77,108.61 -9.76,105.24 -7.73,102.37 -4.89,100.31 -1.54,99.25 1.98,99.33 5.28,100.52 8.03,102.70 9.94,105.65 10.81,109.05 10.55,112.55 9.18,115.79 6.86,118.42 3.81,120.16 0.36,120.85 -3.12,120.40 -6.28,118.86 -8.78,116.39 -10.36,113.25 -10.85,109.78 -10.21,106.32 -8.50,103.25 -7.40,101.86 1.76,91.61 18.27,73.23 33.31,55.97 48.32,38.18 63.08,20.67 78.47,3.34 87.93,-6.56 90.50,-8.77 92.79,-10.08 95.32,-10.79 97.95,-10.88 100.53,-10.33 102.90,-9.19 104.93,-7.51 106.49,-5.39 107.51,-2.97 107.91,-0.36 107.68,2.26 106.83,4.75 105.41,6.97 Z" fill="#FFFFFF" stroke="transparent" stroke-width="0" stroke-linejoin="round" stroke-linecap="round" pointer-events="all" transform="translate(1693, 379)"/><path id="path_1dcbbc78-f790-4911-2545-3b4e8b1ca675" d="M37.30,11.76 Q35.09,12.23 26.50,19.19 T25.12,34.34 39.87,34.55 41.16,19.25 33.19,11.48 29.99,10.04 27.42,7.64 25.74,4.55 25.15,1.09 25.68,-2.38 27.30,-5.50 29.83,-7.93 33.01,-9.43 36.50,-9.84 39.93,-9.12 42.96,-7.33 45.25,-4.68 46.58,-1.42 46.80,2.08 45.89,5.47 43.94,8.40 41.17,10.55 37.85,11.70 34.33,11.73 31.00,10.63 28.18,8.53 26.19,5.64 25.22,2.26 25.38,-1.24 26.65,-4.52 28.90,-7.21 31.90,-9.05 35.32,-9.83 37.10,-9.95 49.35,-5.43 65.58,9.31 67.89,30.98 59.20,50.95 40.65,61.89 18.60,61.00 -0.16,50.03 -6.14,30.83 3.45,10.20 20.62,-4.06 31.58,-9.52 34.02,-9.88 36.65,-9.79 39.18,-9.09 41.48,-7.79 43.39,-5.99 44.82,-3.78 45.68,-1.29 45.91,1.33 45.52,3.94 44.51,6.37 42.95,8.49 40.92,10.17 38.56,11.32 Z" fill="#FFFFFF" stroke="transparent" stroke-width="0" stroke-linejoin="round" stroke-linecap="round" pointer-events="all" transform="translate(1678, 361)"/><path id="path_aa66de1d-3966-4a67-31b1-b54fb8f664dc" d="M50.03,10.81 Q47.49,11.29 37.22,15.29 T20.09,27.78 17.02,46.49 31.86,54.30 50.01,43.50 50.21,24.03 41.85,11.94 39.31,9.51 37.69,6.39 37.15,2.92 37.74,-0.54 39.40,-3.63 41.97,-6.03 45.17,-7.48 48.66,-7.83 52.09,-7.06 55.09,-5.22 57.34,-2.53 58.62,0.74 58.78,4.25 57.82,7.63 55.83,10.52 53.02,12.63 49.68,13.72 46.17,13.70 42.85,12.55 40.07,10.41 38.12,7.49 37.20,4.10 37.42,0.59 38.74,-2.66 41.03,-5.32 44.05,-7.11 47.49,-7.84 50.98,-7.44 52.69,-6.95 59.74,-2.78 71.94,11.04 77.30,32.36 71.36,53.64 55.79,69.45 34.94,77.52 12.81,75.35 -3.85,61.78 -8.88,41.25 -2.26,20.82 12.74,4.16 32.75,-6.72 44.70,-10.57 47.30,-10.90 49.92,-10.75 52.44,-9.98 54.70,-8.62 56.57,-6.77 57.94,-4.52 58.73,-2.01 58.90,0.62 58.44,3.21 57.37,5.61 55.75,7.69 53.69,9.32 51.29,10.41 Z" fill="#FFFFFF" stroke="transparent" stroke-width="0" stroke-linejoin="round" stroke-linecap="round" pointer-events="all" transform="translate(1755, 426)"/></svg>