<svg xmlns="http://www.w3.org/2000/svg" viewBox="687 248 1191 346" width="300" height="100"><path id="path_47cda109-fa99-41b9-2259-c60d0a8873f8" d="M-7.94,80.17 Q-8.41,75.73 -8.94,63.86 T-6.63,40.62 0.63,18.97 13.90,1.13 34.18,-8.47 59.54,-10.65 86.23,-10.86 110.05,-10.94 132.97,-10.98 157.46,-10.99 182.16,-11.00 207.51,-10.61 234.46,-9.18 261.00,-7.53 285.14,-6.62 307.91,-6.21 333.42,-5.67 360.43,-4.58 385.45,-3.53 409.36,-2.86 433.38,-2.39 457.91,-2.14 482.72,-2.05 506.63,-2.02 530.58,-2.00 553.99,-2.00 576.86,-1.27 599.93,1.37 622.05,6.69 640.64,18.84 651.57,38.72 655.71,60.91 656.77,83.69 656.87,107.02 652.50,129.25 638.33,146.09 617.81,155.88 595.45,160.33 572.07,161.53 547.48,161.90 521.91,161.97 496.96,161.99 473.34,162.00 449.35,162.00 425.21,162.00 401.78,162.00 377.98,162.00 354.97,162.00 332.32,162.00 309.60,162.00 286.25,162.00 261.44,162.00 235.38,162.00 210.15,162.00 185.21,162.00 160.00,162.00 135.64,161.57 112.52,160.48 90.18,158.81 67.72,156.05 44.76,152.33 22.40,146.76 5.18,134.36 -5.38,115.01 -9.40,93.46 -8.64,78.30 -6.88,72.51 -4.93,69.59 -2.15,67.44 1.18,66.30 4.69,66.28 8.02,67.38 10.83,69.49 12.82,72.38 13.78,75.76 13.62,79.27 12.34,82.54 10.08,85.23 7.08,87.06 3.66,87.84 0.16,87.48 -3.04,86.02 -5.60,83.62 -7.27,80.53 -7.85,77.07 -7.31,73.60 -5.68,70.48 -3.15,68.05 0.03,66.56 3.52,66.16 6.96,66.89 9.98,68.68 12.27,71.35 13.59,74.60 13.80,78.11 13.62,79.88 12.90,86.62 15.15,104.35 27.69,122.08 48.20,130.62 70.30,134.19 92.52,136.94 114.63,138.58 136.77,139.63 160.00,140.00 185.21,140.00 210.15,140.00 235.38,140.00 261.44,140.00 286.25,140.00 309.60,140.00 332.32,140.00 354.97,140.00 377.98,140.00 401.78,140.00 425.21,140.00 449.35,140.00 473.34,140.00 496.95,139.99 521.88,139.97 547.35,139.90 572.35,139.48 596.42,137.85 618.43,131.96 631.76,116.80 634.93,94.96 634.30,72.47 631.48,49.96 620.49,32.13 600.35,23.65 576.94,20.85 553.99,20.00 530.57,20.00 506.61,19.98 482.67,19.95 457.76,19.86 433.03,19.61 408.80,19.13 384.66,18.45 359.65,17.41 335.81,16.34 312.08,15.82 288.39,15.47 265.07,14.69 240.83,13.33 217.02,11.75 193.36,11.00 169.33,11.00 145.51,11.01 121.63,11.03 97.35,11.10 73.09,11.22 48.06,12.02 27.84,20.63 16.75,39.33 13.35,61.78 13.70,75.61 13.92,79.15 13.56,81.76 12.60,84.21 11.07,86.36 9.08,88.07 6.73,89.26 4.16,89.86 1.53,89.82 -1.02,89.15 -3.33,87.90 -5.28,86.12 -6.74,83.94 -7.64,81.46 Z" fill="#FFFFFF" stroke="transparent" stroke-width="0" stroke-linejoin="round" stroke-linecap="round" pointer-events="all" transform="translate(727, 353)"/><path id="path_c1cfa249-0836-41d0-359f-f3ebcd96fc60" d="M59.40,5.72 Q57.18,9.36 51.70,19.37 T41.17,39.37 31.06,59.21 20.63,79.42 12.83,95.72 9.52,103.21 7.36,105.98 4.43,107.91 1.03,108.81 -2.47,108.57 -5.72,107.23 -8.36,104.92 -10.14,101.89 -10.85,98.45 -10.42,94.96 -8.90,91.79 -6.46,89.27 -3.33,87.67 0.14,87.15 3.60,87.76 6.68,89.45 9.06,92.03 10.50,95.23 10.83,98.73 10.03,102.15 8.18,105.14 5.47,107.37 2.19,108.63 -1.32,108.77 -4.69,107.79 -7.57,105.78 -9.66,102.96 -10.73,99.61 -10.69,96.10 -10.38,94.35 -7.14,86.69 1.26,69.03 11.44,49.27 21.75,29.05 32.71,8.26 39.49,-3.90 41.42,-6.76 43.29,-8.62 45.55,-9.97 48.06,-10.75 50.69,-10.90 53.28,-10.42 55.68,-9.33 57.75,-7.70 59.36,-5.62 60.44,-3.22 60.90,-0.63 60.73,2.00 59.94,4.51 Z" fill="#FFFFFF" stroke="transparent" stroke-width="0" stroke-linejoin="round" stroke-linecap="round" pointer-events="all" transform="translate(740, 357)"/><path id="path_c10e523a-72a7-40fe-13eb-ea53fc086c05" d="M66.24,4.01 Q64.82,7.65 60.77,17.95 T52.31,39.13 43.06,60.22 33.40,80.27 23.37,100.00 14.03,118.32 8.91,128.20 6.46,130.72 3.34,132.33 -0.13,132.85 -3.59,132.24 -6.68,130.56 -9.06,127.98 -10.49,124.77 -10.83,121.28 -10.03,117.86 -8.19,114.87 -5.48,112.63 -2.20,111.37 1.31,111.22 4.68,112.21 7.56,114.21 9.65,117.04 10.73,120.38 10.69,123.89 9.53,127.20 7.37,129.97 4.43,131.91 1.04,132.81 -2.47,132.57 -5.71,131.23 -8.36,128.92 -10.13,125.89 -10.85,122.45 -10.42,118.96 -9.92,117.26 -6.06,109.35 2.85,91.74 12.74,72.23 22.31,52.42 31.56,31.51 40.21,10.12 45.04,-2.19 46.38,-5.18 47.90,-7.33 49.89,-9.05 52.24,-10.25 54.80,-10.85 57.43,-10.83 59.98,-10.17 62.30,-8.92 64.25,-7.15 65.72,-4.97 66.63,-2.50 66.92,0.12 66.57,2.73 Z" fill="#FFFFFF" stroke="transparent" stroke-width="0" stroke-linejoin="round" stroke-linecap="round" pointer-events="all" transform="translate(774, 360)"/><path id="path_bcac8a8c-c972-4e64-2b12-a0c315d2a64e" d="M67.26,3.97 Q65.36,8.88 60.60,21.07 T51.55,44.19 42.46,66.43 32.80,88.54 22.93,110.04 14.05,129.46 9.24,139.70 6.93,142.35 3.90,144.13 0.46,144.85 -3.02,144.43 -6.19,142.91 -8.72,140.47 -10.33,137.35 -10.85,133.88 -10.25,130.42 -8.57,127.33 -5.99,124.95 -2.78,123.51 0.71,123.17 4.13,123.96 7.12,125.81 9.37,128.51 10.63,131.79 10.78,135.30 9.80,138.67 7.79,141.56 4.97,143.65 1.63,144.73 -1.88,144.69 -5.20,143.53 -7.97,141.37 -9.90,138.44 -10.80,135.05 -10.57,131.54 -10.17,129.81 -5.60,119.69 3.55,99.66 12.79,79.40 22.12,58.06 31.20,35.83 40.23,12.77 45.79,-1.51 47.37,-5.14 48.88,-7.30 50.86,-9.03 53.20,-10.24 55.76,-10.85 58.39,-10.83 60.94,-10.18 63.27,-8.94 65.22,-7.18 66.70,-5.01 67.62,-2.54 67.92,0.08 67.58,2.69 Z" fill="#FFFFFF" stroke="transparent" stroke-width="0" stroke-linejoin="round" stroke-linecap="round" pointer-events="all" transform="translate(827, 357)"/><path id="path_1f41406c-d446-47c9-2df5-3918578345f2" d="M67.08,4.41 Q65.97,6.94 61.59,17.21 T52.55,37.96 43.18,59.18 33.54,79.84 24.39,100.74 16.69,122.85 11.83,138.21 9.63,144.00 7.53,146.82 4.64,148.81 1.26,149.78 -2.25,149.62 -5.52,148.35 -8.21,146.10 -10.05,143.10 -10.83,139.68 -10.48,136.18 -9.03,132.98 -6.64,130.41 -3.55,128.74 -0.09,128.15 3.38,128.68 6.50,130.30 8.93,132.83 10.44,136.01 10.84,139.50 10.12,142.94 8.33,145.96 5.67,148.26 2.42,149.58 -1.09,149.80 -4.48,148.89 -7.40,146.94 -9.55,144.16 -10.70,140.84 -10.73,137.33 -10.45,135.57 -8.52,129.56 -3.17,112.57 4.34,91.32 13.43,71.01 23.12,50.23 32.28,29.45 41.28,8.76 46.37,-3.14 47.60,-5.55 49.20,-7.64 51.25,-9.29 53.64,-10.39 56.23,-10.89 58.86,-10.76 61.38,-10.00 63.64,-8.67 65.53,-6.82 66.91,-4.59 67.72,-2.08 67.91,0.55 67.46,3.14 Z" fill="#FFFFFF" stroke="transparent" stroke-width="0" stroke-linejoin="round" stroke-linecap="round" pointer-events="all" transform="translate(873, 356)"/><path id="path_381012ba-d82b-4c6c-2387-36142ab9ce91" d="M11.00,0.00 Q11.00,2.85 11.00,14.24 T11.00,36.70 11.00,59.19 11.00,81.52 11.00,103.50 11.00,125.53 11.00,141.75 10.71,148.76 9.59,152.08 7.46,154.88 4.56,156.85 1.17,157.79 -2.33,157.60 -5.60,156.30 -8.27,154.03 -10.08,151.02 -10.84,147.59 -10.46,144.09 -8.98,140.91 -6.57,138.36 -3.46,136.71 0.00,136.14 3.47,136.71 6.57,138.36 8.99,140.91 10.46,144.10 10.84,147.59 10.08,151.02 8.27,154.03 5.59,156.30 2.33,157.60 -1.18,157.79 -4.56,156.85 -7.47,154.88 -9.59,152.08 -10.71,148.75 -11.00,147.00 -11.00,141.75 -11.00,125.53 -11.00,103.50 -11.00,81.52 -11.00,59.19 -11.00,36.70 -11.00,14.24 -11.00,1.43 -10.84,-1.32 -10.21,-3.87 -8.99,-6.20 -7.24,-8.17 -5.07,-9.67 -2.61,-10.60 0.00,-10.92 2.61,-10.60 5.08,-9.67 7.24,-8.17 8.99,-6.20 10.21,-3.87 10.84,-1.32 Z" fill="#FFFFFF" stroke="transparent" stroke-width="0" stroke-linejoin="round" stroke-linecap="round" pointer-events="all" transform="translate(928, 357)"/><path id="path_415773e5-47db-4be9-0f94-adcae32cfc4e" d="M7.51,12.01 Q9.73,9.31 18.70,2.31 T39.40,-6.90 61.74,-2.73 77.85,13.12 85.33,34.81 83.91,57.78 73.33,77.47 56.86,93.89 37.63,106.82 38.06,108.63 59.68,105.24 81.16,106.26 93.15,107.36 96.43,108.60 99.15,110.83 101.01,113.81 101.83,117.22 101.51,120.72 100.09,123.93 97.72,126.53 94.65,128.22 91.19,128.85 87.71,128.35 84.58,126.76 82.12,124.25 80.59,121.09 80.15,117.60 80.85,114.16 82.61,111.12 85.24,108.80 88.48,107.44 91.99,107.19 95.39,108.07 98.33,109.99 100.50,112.75 101.68,116.06 101.74,119.57 100.68,122.92 98.60,125.75 95.73,127.77 92.36,128.77 90.60,128.99 85.25,128.77 68.98,127.77 46.80,126.93 24.46,126.54 4.44,119.84 4.77,103.90 24.26,88.99 43.13,76.66 58.09,60.55 63.30,40.00 54.53,20.46 36.79,17.83 25.60,24.65 23.53,26.91 21.42,28.48 18.99,29.50 16.39,29.91 13.77,29.69 11.28,28.85 9.06,27.43 7.24,25.52 5.94,23.24 5.21,20.71 5.12,18.07 5.66,15.50 6.80,13.12 Z" fill="#FFFFFF" stroke="transparent" stroke-width="0" stroke-linejoin="round" stroke-linecap="round" pointer-events="all" transform="translate(1407, 367)"/><path id="path_30063fa4-7ee1-46bb-0e9d-85ed5052f3a9" d="M14.99,1.37 Q14.84,6.12 14.54,18.18 T23.44,36.16 43.85,45.07 64.02,55.89 77.93,74.48 78.97,96.50 67.30,115.57 48.99,127.26 27.43,132.04 8.23,132.97 -1.74,132.72 -5.07,131.60 -7.87,129.48 -9.84,126.57 -10.79,123.19 -10.61,119.68 -9.31,116.42 -7.04,113.74 -4.03,111.92 -0.61,111.16 2.89,111.54 6.08,113.01 8.63,115.42 10.28,118.52 10.86,121.98 10.29,125.45 8.65,128.56 6.11,130.98 2.92,132.46 -0.57,132.84 -4.00,132.09 -7.02,130.28 -9.29,127.61 -10.60,124.35 -10.79,120.84 -9.86,117.46 -7.89,114.55 -5.10,112.42 -1.77,111.29 -0.02,111.00 9.56,110.95 29.95,109.17 49.33,100.56 54.22,82.99 39.69,68.22 17.64,64.95 -0.75,57.46 -7.83,38.18 -7.43,16.30 -7.07,3.01 -6.79,-0.68 -6.08,-3.21 -4.78,-5.50 -2.96,-7.41 -0.75,-8.83 1.74,-9.68 4.36,-9.91 6.97,-9.51 9.39,-8.49 11.51,-6.93 13.19,-4.90 14.33,-2.53 14.88,0.05 Z" fill="#FFFFFF" stroke="transparent" stroke-width="0" stroke-linejoin="round" stroke-linecap="round" pointer-events="all" transform="translate(1540, 370)"/><path id="path_f859d427-bdac-4915-1a2b-4d4e2ba03fe0" d="M0.00,-11.00 Q3.01,-11.00 14.32,-11.00 T37.07,-11.00 62.25,-11.00 77.76,-10.71 81.08,-9.59 83.88,-7.46 85.85,-4.56 86.79,-1.17 86.60,2.33 85.30,5.60 83.03,8.27 80.02,10.08 76.59,10.84 73.09,10.46 69.91,8.98 67.36,6.57 65.71,3.46 65.14,-0.00 65.71,-3.47 67.36,-6.57 69.91,-8.99 73.10,-10.46 76.59,-10.84 80.02,-10.08 83.03,-8.27 85.30,-5.59 86.60,-2.33 86.79,1.18 85.85,4.56 83.88,7.47 81.08,9.59 77.75,10.71 76.00,11.00 62.25,11.00 37.07,11.00 14.32,11.00 1.51,11.00 -1.32,10.84 -3.87,10.21 -6.20,8.99 -8.17,7.24 -9.67,5.07 -10.60,2.61 -10.92,-0.00 -10.60,-2.61 -9.67,-5.08 -8.17,-7.24 -6.20,-8.99 -3.87,-10.21 -1.32,-10.84 Z" fill="#FFFFFF" stroke="transparent" stroke-width="0" stroke-linejoin="round" stroke-linecap="round" pointer-events="all" transform="translate(1546, 366)"/><path id="path_c35481e1-5757-4b8a-0eda-0055564a7b69" d="M111.08,6.21 Q109.02,9.22 102.45,18.03 T89.22,36.22 75.58,54.94 62.06,73.06 47.90,90.57 32.79,108.44 17.10,127.51 7.66,138.69 4.80,140.74 1.44,141.76 -2.07,141.66 -5.37,140.44 -8.10,138.23 -9.98,135.26 -10.82,131.85 -10.53,128.35 -9.13,125.13 -6.78,122.52 -3.72,120.80 -0.27,120.15 3.21,120.63 6.36,122.20 8.83,124.69 10.39,127.84 10.85,131.32 10.18,134.77 8.44,137.82 5.82,140.16 2.59,141.54 -0.91,141.82 -4.32,140.96 -7.27,139.06 -9.46,136.32 -10.67,133.02 -10.75,129.51 -9.71,126.15 -8.92,124.56 -1.63,115.66 12.85,98.08 27.41,80.80 41.94,62.95 55.71,44.67 69.38,26.10 83.65,6.68 91.89,-4.71 93.80,-7.21 95.76,-8.96 98.09,-10.19 100.64,-10.83 103.27,-10.85 105.83,-10.23 108.17,-9.01 110.14,-7.27 111.65,-5.11 112.59,-2.66 112.92,-0.04 112.61,2.57 111.69,5.04 Z" fill="#FFFFFF" stroke="transparent" stroke-width="0" stroke-linejoin="round" stroke-linecap="round" pointer-events="all" transform="translate(1688, 370)"/><path id="path_1af1a7c7-511a-4b7f-1610-1557883cb9e3" d="M43.66,10.37 Q40.97,11.32 31.17,17.04 T16.36,32.59 22.68,43.05 42.42,35.11 43.48,19.69 34.45,12.26 31.36,10.59 28.97,8.02 27.52,4.82 27.17,1.33 27.95,-2.10 29.78,-5.09 32.48,-7.35 35.75,-8.62 39.26,-8.78 42.64,-7.82 45.53,-5.82 47.63,-3.01 48.73,0.33 48.70,3.84 47.55,7.16 45.40,9.94 42.48,11.89 39.09,12.80 35.58,12.58 32.33,11.26 29.67,8.96 27.88,5.94 27.16,2.50 27.56,-0.99 29.06,-4.16 31.50,-6.69 34.62,-8.31 38.09,-8.85 39.87,-8.84 47.62,-6.52 62.99,4.30 70.84,23.84 63.71,43.85 47.71,59.53 27.52,67.39 5.54,64.32 -7.65,49.34 -6.73,28.29 4.85,9.47 23.19,-4.23 34.99,-9.90 37.63,-10.66 40.25,-10.92 42.86,-10.54 45.30,-9.55 47.43,-8.00 49.13,-5.99 50.30,-3.63 50.87,-1.06 50.81,1.57 50.12,4.11 48.84,6.41 47.05,8.34 44.85,9.78 Z" fill="#FFFFFF" stroke="transparent" stroke-width="0" stroke-linejoin="round" stroke-linecap="round" pointer-events="all" transform="translate(1673, 359)"/><path id="path_1e418c6e-caa6-4d9c-3457-cd8c9939573a" d="M53.00,11.00 Q50.31,11.00 39.60,13.27 T21.61,24.07 19.47,42.32 35.79,52.40 55.23,45.24 62.42,26.86 57.03,14.24 51.13,11.70 48.29,9.64 46.25,6.78 45.24,3.41 45.35,-0.10 46.58,-3.39 48.79,-6.11 51.76,-7.99 55.17,-8.82 58.67,-8.52 61.89,-7.12 64.49,-4.76 66.21,-1.69 66.85,1.76 66.36,5.24 64.79,8.38 62.29,10.85 59.14,12.39 55.65,12.85 52.21,12.17 49.16,10.43 46.83,7.80 45.45,4.57 45.19,1.07 46.05,-2.34 47.96,-5.29 50.70,-7.48 54.01,-8.67 57.52,-8.75 59.28,-8.50 70.38,-1.07 84.10,17.33 84.12,39.28 73.06,58.56 52.98,70.89 30.32,74.18 8.93,68.22 -6.00,51.94 -7.12,30.41 3.31,11.51 19.43,-2.93 39.43,-9.97 51.65,-11.00 54.32,-10.84 56.87,-10.21 59.20,-8.99 61.17,-7.24 62.67,-5.07 63.60,-2.61 63.92,0.00 63.60,2.61 62.67,5.08 61.17,7.24 59.20,8.99 56.87,10.21 54.32,10.84 Z" fill="#FFFFFF" stroke="transparent" stroke-width="0" stroke-linejoin="round" stroke-linecap="round" pointer-events="all" transform="translate(1762, 437)"/></svg>