<svg xmlns="http://www.w3.org/2000/svg" viewBox="835 146 373 712" width="100" height="120"><path id="path_180dd8f3-67be-4a35-27f5-866ce186d237" d="M-3.44,283.84 Q-4.25,278.93 -5.83,267.13 T-8.35,243.29 -9.82,219.57 -10.56,195.41 -10.84,170.29 -11.30,146.12 -11.81,122.28 -11.95,98.18 -11.99,74.98 -11.20,52.07 -6.98,29.35 3.87,8.44 22.43,-5.48 45.56,-10.79 69.97,-11.96 94.92,-11.96 119.83,-10.82 145.01,-9.49 170.20,-9.14 194.27,-8.47 218.38,-7.09 242.29,-5.53 265.87,-1.09 285.81,11.17 298.16,30.62 303.80,53.29 304.97,77.36 305.04,101.85 305.04,126.23 304.74,150.81 303.89,174.75 303.20,198.50 303.07,223.03 303.06,247.36 303.06,271.30 303.04,288.08 302.70,294.92 301.47,298.55 299.15,301.61 295.98,303.76 292.28,304.79 288.45,304.58 284.89,303.16 281.96,300.67 279.99,297.39 279.16,293.64 279.58,289.83 281.19,286.35 283.83,283.56 287.22,281.76 291.00,281.14 294.79,281.77 298.18,283.56 300.81,286.35 302.42,289.83 302.84,293.64 302.01,297.39 300.03,300.68 297.11,303.16 293.55,304.58 289.72,304.79 286.02,303.76 282.84,301.60 280.52,298.55 279.30,294.91 278.99,293.00 278.96,279.48 278.94,254.25 278.96,230.53 279.04,206.82 279.45,183.48 280.38,159.32 280.96,135.00 280.95,111.40 280.92,88.11 280.56,64.79 276.26,41.95 261.88,25.06 238.79,18.32 213.85,16.72 189.05,15.49 163.96,14.91 138.44,14.42 114.16,13.03 90.52,12.08 65.99,12.22 41.96,14.39 22.80,25.92 13.72,47.49 12.00,71.60 12.01,95.26 12.09,119.31 12.56,143.43 12.97,167.46 13.13,192.13 13.72,216.34 14.99,240.33 17.24,263.85 19.05,277.70 19.49,281.55 19.27,284.31 18.39,286.94 16.90,289.28 14.90,291.20 12.50,292.59 9.83,293.35 7.06,293.46 4.34,292.91 1.84,291.71 -0.31,289.96 -1.97,287.74 -3.05,285.19 Z" fill="#FFFFFF" stroke="transparent" stroke-width="0" stroke-linejoin="round" stroke-linecap="round" pointer-events="all" transform="translate(875, 186)"/><path id="path_e3464a1e-c99e-4eec-05f3-39dbcbc04d60" d="M1.00,-11.58 Q5.12,-11.59 16.82,-11.65 T40.37,-11.73 63.74,-11.80 87.16,-11.86 110.72,-11.25 134.04,-10.33 157.36,-9.82 181.90,-8.40 206.97,-6.52 230.58,-5.11 253.70,-4.24 274.21,-4.05 284.93,-3.72 288.57,-2.49 291.63,-0.16 293.78,3.02 294.81,6.72 294.60,10.56 293.18,14.13 290.69,17.06 287.39,19.04 283.64,19.86 279.82,19.44 276.33,17.83 273.54,15.18 271.74,11.79 271.12,7.99 271.75,4.20 273.55,0.81 276.34,-1.84 279.83,-3.45 283.65,-3.86 287.40,-3.03 290.70,-1.05 293.18,1.88 294.60,5.45 294.81,9.29 293.78,13.00 291.62,16.17 288.56,18.50 284.91,19.72 282.99,20.04 273.63,20.03 252.67,19.82 229.39,18.89 206.25,17.53 183.33,15.72 159.68,14.22 135.42,13.60 111.22,12.60 87.16,11.86 63.74,11.80 40.37,11.73 16.82,11.65 3.06,11.59 -0.39,11.41 -3.08,10.75 -5.53,9.46 -7.60,7.62 -9.18,5.34 -10.16,2.75 -10.49,-0.00 -10.16,-2.75 -9.18,-5.34 -7.60,-7.62 -5.53,-9.46 -3.07,-10.75 -0.38,-11.41 Z" fill="#FFFFFF" stroke="transparent" stroke-width="0" stroke-linejoin="round" stroke-linecap="round" pointer-events="all" transform="translate(881, 467)"/><path id="path_b6c81a18-a075-4f31-1e19-204158fa7a0c" d="M50.00,17.56 Q46.99,17.58 35.57,18.27 T18.70,29.16 21.61,47.71 41.44,59.32 64.07,59.46 78.03,45.20 75.11,24.18 57.86,14.91 42.02,15.80 35.75,15.85 32.03,14.84 28.83,12.68 26.49,9.62 25.24,5.97 25.23,2.11 26.45,-1.55 28.77,-4.63 31.96,-6.80 35.67,-7.85 39.52,-7.65 43.11,-6.23 46.06,-3.75 48.06,-0.45 48.90,3.31 48.50,7.15 46.89,10.66 44.25,13.47 40.84,15.28 37.04,15.92 33.23,15.31 29.82,13.51 27.16,10.72 25.52,7.23 25.10,3.39 25.91,-0.38 27.89,-3.69 30.82,-6.19 34.40,-7.63 36.31,-8.06 45.30,-9.57 66.56,-9.52 88.44,-0.89 101.54,17.21 104.42,39.95 98.74,61.96 83.09,77.98 61.21,85.09 38.33,83.68 16.76,75.21 -0.58,59.96 -9.11,38.28 -4.78,15.61 11.49,0.17 34.63,-5.16 48.49,-5.57 51.38,-5.39 54.07,-4.73 56.52,-3.45 58.59,-1.61 60.16,0.67 61.14,3.25 61.48,6.00 61.14,8.75 60.16,11.33 58.59,13.61 56.52,15.45 54.07,16.73 51.38,17.39 Z" fill="#FFFFFF" stroke="transparent" stroke-width="0" stroke-linejoin="round" stroke-linecap="round" pointer-events="all" transform="translate(979, 225)"/><path id="path_ab19272b-ee8e-4b62-0d78-2040f972c666" d="M-0.32,-10.59 Q5.38,-10.76 17.80,-11.05 T42.91,-11.46 67.27,-11.65 91.59,-11.77 115.76,-11.84 139.09,-11.88 162.76,-11.91 186.45,-11.94 210.17,-11.97 233.49,-11.16 256.31,-10.19 276.85,-10.04 287.92,-9.72 291.56,-8.49 294.62,-6.17 296.78,-2.99 297.81,0.72 297.60,4.56 296.18,8.13 293.69,11.05 290.39,13.03 286.64,13.86 282.82,13.44 279.33,11.83 276.54,9.19 274.74,5.79 274.12,2.00 274.75,-1.80 276.55,-5.19 279.34,-7.83 282.83,-9.45 286.65,-9.86 290.40,-9.03 293.69,-7.05 296.18,-4.12 297.60,-0.55 297.81,3.29 296.78,6.99 294.62,10.17 291.56,12.50 287.92,13.72 286.00,14.04 277.33,14.04 257.26,13.90 233.95,12.87 210.17,11.97 186.45,11.94 162.76,11.91 139.10,11.89 115.78,11.86 91.63,11.85 67.37,11.87 43.14,11.96 18.28,12.24 3.18,12.52 -1.07,12.46 -3.78,11.87 -6.27,10.65 -8.40,8.87 -10.04,6.63 -11.09,4.06 -11.50,1.32 -11.25,-1.44 -10.33,-4.06 -8.82,-6.39 -6.80,-8.29 -4.38,-9.64 -1.70,-10.38 Z" fill="#FFFFFF" stroke="transparent" stroke-width="0" stroke-linejoin="round" stroke-linecap="round" pointer-events="all" transform="translate(875, 351)"/><path id="path_a7d473d4-60ff-4708-1b72-1964c3e5c063" d="M11.59,0.00 Q11.61,4.91 11.85,17.31 T12.57,41.45 13.30,65.38 13.64,89.37 13.76,113.99 14.10,140.73 14.54,168.28 14.72,195.84 14.79,222.44 14.81,247.43 14.82,273.79 14.99,299.90 15.36,327.86 15.31,345.60 14.20,349.13 12.03,352.12 9.02,354.26 5.48,355.33 1.79,355.20 -1.68,353.91 -4.54,351.58 -6.52,348.46 -7.39,344.86 -7.07,341.18 -5.59,337.80 -3.11,335.06 0.12,333.26 3.75,332.58 7.41,333.10 10.71,334.76 13.31,337.39 14.94,340.71 15.42,344.37 14.70,348.00 12.86,351.21 10.10,353.66 6.69,355.10 3.01,355.38 -0.57,354.47 -3.68,352.46 -5.97,349.56 -7.23,346.09 -7.57,344.25 -8.07,328.46 -8.71,300.24 -8.85,273.80 -8.87,247.45 -8.91,222.49 -8.99,195.94 -9.16,168.53 -9.59,140.93 -9.92,114.05 -10.00,89.55 -10.26,65.92 -10.88,42.18 -11.45,17.63 -11.60,2.46 -11.42,-1.39 -10.76,-4.08 -9.47,-6.54 -7.63,-8.61 -5.35,-10.19 -2.75,-11.17 0.00,-11.51 2.75,-11.17 5.35,-10.19 7.63,-8.61 9.47,-6.53 10.76,-4.08 11.42,-1.39 Z" fill="#FFFFFF" stroke="transparent" stroke-width="0" stroke-linejoin="round" stroke-linecap="round" pointer-events="all" transform="translate(930, 468)"/><path id="path_126ee989-9311-49a5-1226-c688c502521c" d="M13.57,0.64 Q13.28,6.35 12.83,18.83 T12.20,43.81 11.95,68.25 11.88,93.60 11.87,120.46 11.88,146.61 11.89,172.34 11.92,197.65 12.71,222.66 14.10,247.33 15.15,270.87 15.76,294.33 15.92,320.59 15.60,336.89 14.39,340.50 12.09,343.53 8.94,345.66 5.28,346.68 1.48,346.48 -2.05,345.08 -4.95,342.62 -6.92,339.36 -7.74,335.65 -7.33,331.86 -5.73,328.41 -3.12,325.65 0.24,323.86 3.99,323.25 7.74,323.86 11.11,325.64 13.72,328.40 15.32,331.85 15.74,335.63 14.92,339.34 12.96,342.60 10.07,345.07 6.53,346.48 2.74,346.69 -0.93,345.67 -4.08,343.54 -6.38,340.51 -7.60,336.91 -7.91,335.01 -7.97,319.74 -8.21,292.46 -8.87,268.75 -9.97,245.17 -11.25,221.61 -11.92,197.65 -11.89,172.34 -11.86,146.60 -11.83,120.44 -11.76,93.54 -11.61,68.06 -11.23,43.34 -10.44,17.86 -9.74,2.21 -9.33,-2.02 -8.52,-4.67 -7.09,-7.05 -5.14,-9.02 -2.77,-10.47 -0.13,-11.31 2.64,-11.49 5.37,-11.00 7.91,-9.88 10.10,-8.18 11.82,-6.00 12.97,-3.48 13.48,-0.75 Z" fill="#FFFFFF" stroke="transparent" stroke-width="0" stroke-linejoin="round" stroke-linecap="round" pointer-events="all" transform="translate(1025, 475)"/><path id="path_edef63e6-8a8f-4b5b-1d35-c307d9e7b8a8" d="M11.59,0.00 Q11.61,6.66 11.64,20.29 T11.72,46.38 11.78,71.51 11.84,96.53 11.89,120.90 11.92,144.52 11.95,168.20 12.34,192.65 12.83,216.53 12.97,240.16 13.02,263.93 13.04,287.28 13.05,310.75 13.04,329.77 12.71,338.92 11.48,342.56 9.16,345.61 5.98,347.77 2.28,348.80 -1.55,348.59 -5.12,347.17 -8.04,344.68 -10.02,341.39 -10.85,337.64 -10.43,333.82 -8.82,330.34 -6.18,327.55 -2.79,325.76 1.00,325.13 4.79,325.76 8.18,327.56 10.82,330.34 12.43,333.83 12.85,337.64 12.02,341.39 10.04,344.68 7.11,347.17 3.55,348.59 -0.29,348.80 -3.98,347.77 -7.16,345.61 -9.48,342.55 -10.71,338.92 -11.02,337.00 -11.04,330.60 -11.05,312.30 -11.04,288.90 -11.03,265.62 -11.03,242.09 -11.13,217.89 -11.59,192.85 -11.95,168.20 -11.92,144.52 -11.89,120.90 -11.84,96.53 -11.78,71.51 -11.72,46.38 -11.64,20.29 -11.60,3.33 -11.42,-1.39 -10.76,-4.08 -9.47,-6.54 -7.63,-8.61 -5.35,-10.19 -2.75,-11.17 0.00,-11.51 2.75,-11.17 5.35,-10.19 7.63,-8.61 9.47,-6.54 10.76,-4.08 11.42,-1.39 Z" fill="#FFFFFF" stroke="transparent" stroke-width="0" stroke-linejoin="round" stroke-linecap="round" pointer-events="all" transform="translate(1107, 481)"/><path id="path_98e78978-2c90-4a43-25a0-9d27533cfc34" d="M47.32,25.27 Q43.52,32.72 38.66,43.20 T28.69,64.42 19.75,81.69 14.94,89.23 12.75,90.99 10.21,92.18 7.46,92.72 4.65,92.59 1.96,91.79 -0.46,90.37 -2.47,88.41 -3.95,86.03 -4.82,83.36 -5.03,80.57 -4.56,77.80 -3.45,75.22 2.77,64.00 16.09,41.94 31.37,20.18 50.40,13.82 61.15,30.21 57.63,55.51 51.88,80.12 46.03,104.91 41.62,105.18 45.97,82.11 56.94,60.62 62.60,48.74 64.01,46.26 65.78,44.04 68.03,42.32 70.62,41.18 73.42,40.70 76.24,40.90 78.94,41.77 81.35,43.26 83.33,45.29 84.77,47.73 85.59,50.44 85.73,53.27 85.19,56.05 83.94,69.47 86.78,67.77 97.45,42.61 113.71,21.51 129.10,22.74 131.07,45.37 121.30,72.27 111.58,99.14 102.67,100.48 106.35,77.14 123.27,51.58 139.64,29.11 158.85,22.75 170.36,39.30 168.49,64.72 165.24,86.12 163.65,96.45 162.52,99.04 160.80,101.29 158.59,103.06 156.03,104.25 153.25,104.79 150.43,104.65 147.72,103.83 145.28,102.40 143.26,100.42 141.77,98.02 140.90,95.33 140.70,92.51 147.41,80.93 161.20,59.80 173.66,40.14 179.84,30.33 181.83,28.31 184.25,26.84 186.95,25.98 189.77,25.79 192.56,26.29 195.15,27.44 197.39,29.17 199.15,31.39 200.32,33.97 200.85,36.75 200.69,39.58 199.86,42.29 196.29,56.34 188.99,79.80 180.22,102.72 177.29,100.42 187.22,75.18 203.30,54.73 221.84,48.86 228.40,66.24 219.82,91.60 214.71,107.16 213.57,112.28 212.64,114.96 211.10,117.33 209.04,119.27 206.57,120.66 203.84,121.41 201.01,121.50 198.25,120.90 195.70,119.66 193.53,117.84 191.86,115.56 190.78,112.95 190.35,110.15 196.95,98.81 210.61,77.83 224.78,54.89 237.59,34.05 244.12,23.97 246.13,21.97 248.55,20.50 251.25,19.66 254.08,19.49 256.87,20.00 259.45,21.17 261.68,22.91 263.43,25.14 264.59,27.73 265.10,30.51 264.93,33.34 264.09,36.05 260.75,50.40 254.00,75.91 252.48,76.42 263.90,56.22 280.69,56.22 285.09,76.16 277.82,99.04 270.03,121.95 265.19,135.33 262.95,138.30 259.89,140.41 256.31,141.42 252.59,141.24 249.13,139.88 246.28,137.49 244.34,134.31 243.52,130.69 243.90,126.98 245.45,123.60 247.99,120.88 251.27,119.12 254.94,118.50 258.61,119.08 261.91,120.81 264.48,123.50 266.06,126.86 266.48,130.56 265.70,134.20 263.80,137.40 260.98,139.82 257.53,141.22 253.82,141.44 250.23,140.46 247.14,138.39 244.87,135.44 243.66,131.92 243.64,128.20 243.94,126.34 247.67,114.59 255.16,91.82 270.28,75.11 273.33,79.21 256.06,98.02 235.51,103.10 226.49,87.57 233.34,62.78 240.43,37.33 244.12,23.97 246.12,21.97 248.55,20.50 251.25,19.66 254.08,19.49 256.87,20.00 259.45,21.16 261.68,22.91 263.43,25.14 264.59,27.73 265.10,30.51 264.93,33.34 264.09,36.04 260.60,41.56 251.60,56.20 237.81,78.98 221.98,101.12 213.57,112.28 212.64,114.95 211.10,117.33 209.04,119.27 206.57,120.66 203.84,121.41 201.02,121.50 198.25,120.90 195.70,119.66 193.53,117.84 191.86,115.56 190.78,112.95 190.35,110.15 191.03,104.61 195.63,89.27 205.16,67.13 212.54,67.49 205.63,89.87 189.02,110.56 170.00,125.65 156.13,119.34 158.01,94.67 167.98,68.36 176.11,43.17 179.84,30.33 181.83,28.32 184.25,26.84 186.94,25.98 189.77,25.79 192.56,26.29 195.15,27.44 197.39,29.17 199.15,31.39 200.32,33.97 200.85,36.75 200.69,39.58 199.86,42.29 196.98,47.27 187.79,62.20 172.48,84.27 163.65,96.45 162.52,99.04 160.80,101.29 158.59,103.06 156.03,104.24 153.25,104.79 150.43,104.65 147.72,103.83 145.28,102.40 143.26,100.42 141.77,98.02 140.90,95.33 140.70,92.51 141.54,84.62 146.69,65.10 142.66,64.58 125.91,90.07 108.50,112.73 92.34,112.92 89.45,91.46 99.23,64.10 117.40,41.52 124.10,44.37 111.99,64.08 96.68,85.58 74.07,99.71 60.66,86.96 62.01,59.68 64.01,46.26 65.78,44.04 68.03,42.32 70.62,41.18 73.42,40.70 76.24,40.90 78.94,41.77 81.35,43.26 83.33,45.29 84.77,47.73 85.59,50.44 85.73,53.27 85.19,56.05 81.36,64.46 72.40,82.66 59.67,105.22 43.38,123.95 27.22,121.89 23.09,99.68 28.97,74.70 37.86,52.52 36.08,54.35 22.16,77.21 14.94,89.23 12.76,90.99 10.21,92.18 7.46,92.72 4.66,92.59 1.96,91.79 -0.46,90.37 -2.47,88.42 -3.95,86.03 -4.82,83.37 -5.03,80.57 -4.56,77.80 -3.45,75.23 -0.94,71.24 6.72,56.32 17.73,33.17 24.78,18.45 27.46,13.57 29.28,11.48 31.54,9.88 34.12,8.86 36.87,8.50 39.63,8.80 42.23,9.76 44.53,11.31 46.39,13.36 47.71,15.80 48.40,18.49 48.43,21.26 47.80,23.96 Z" fill="#FFFFFF" stroke="transparent" stroke-width="0" stroke-linejoin="round" stroke-linecap="round" pointer-events="all" transform="translate(880, 338)"/></svg>