<svg xmlns="http://www.w3.org/2000/svg" viewBox="804 210 418 574" width="100" height="120"><path id="path_062e46bf-1727-4345-2fe1-0558a2896c25" d="M-10.94,169.21 Q-9.53,165.09 -5.79,153.34 T1.46,130.26 8.31,107.86 15.96,85.10 24.14,61.86 33.94,40.12 47.35,20.21 65.18,4.16 86.76,-5.69 109.53,-10.52 133.39,-10.87 157.28,-8.27 180.24,-4.75 203.13,-1.24 226.26,2.17 249.49,6.15 271.66,14.76 286.04,32.31 290.42,55.19 291.05,78.50 289.80,101.67 285.42,124.90 278.74,147.72 271.51,169.86 264.29,192.81 257.30,218.00 253.19,233.03 251.32,236.39 248.47,238.98 244.94,240.52 241.11,240.86 237.37,239.95 234.11,237.90 231.69,234.92 230.34,231.31 230.21,227.47 231.31,223.78 233.54,220.64 236.65,218.38 240.32,217.23 244.17,217.31 247.79,218.61 250.80,221.00 252.89,224.23 253.85,227.96 253.56,231.80 252.06,235.34 249.51,238.22 246.17,240.14 242.39,240.88 238.58,240.39 235.12,238.70 232.38,236.00 230.65,232.56 230.11,228.75 230.15,226.80 231.50,220.36 236.27,202.72 242.98,180.27 249.93,158.07 257.00,136.22 263.12,114.14 266.37,91.48 266.76,68.22 263.99,45.23 250.29,31.31 227.10,26.63 203.58,23.24 180.48,19.79 156.91,16.04 133.45,13.30 110.15,13.69 87.96,19.64 69.37,32.66 55.38,51.03 45.75,72.09 37.85,94.48 30.31,116.60 23.21,139.22 15.92,161.81 11.66,174.73 10.33,178.04 8.82,180.37 6.80,182.26 4.39,183.62 1.72,184.37 -1.05,184.45 -3.76,183.86 -6.25,182.65 -8.38,180.87 -10.02,178.64 -11.08,176.08 -11.49,173.34 -11.24,170.58 Z" fill="#FFFFFF" stroke="transparent" stroke-width="0" stroke-linejoin="round" stroke-linecap="round" pointer-events="all" transform="translate(903, 250)"/><path id="path_52fd8079-aea4-4bef-1420-a6e8832401eb" d="M3.11,-11.39 Q7.39,-10.62 18.72,-8.23 T42.51,-2.68 67.52,3.46 91.73,8.89 114.80,13.37 138.20,17.51 161.52,21.64 184.02,26.04 206.92,30.47 230.33,35.35 243.84,38.78 247.23,40.59 249.85,43.39 251.45,46.88 251.84,50.70 251.00,54.45 249.00,57.72 246.07,60.20 242.49,61.60 238.66,61.79 234.97,60.74 231.80,58.57 229.49,55.51 228.28,51.86 228.30,48.02 229.55,44.39 231.88,41.35 235.07,39.21 238.78,38.20 242.61,38.43 246.17,39.87 249.08,42.37 251.04,45.66 251.85,49.42 251.42,53.23 249.79,56.71 247.13,59.48 243.73,61.26 239.94,61.86 238.00,61.85 225.22,58.81 201.09,53.76 178.43,49.40 155.83,45.00 133.16,40.88 110.23,36.70 86.99,32.10 64.12,26.94 40.11,20.90 15.24,14.88 1.03,11.80 -2.44,10.97 -4.97,9.83 -7.15,8.12 -8.85,5.93 -9.99,3.40 -10.48,0.67 -10.31,-2.09 -9.48,-4.74 -8.04,-7.11 -6.07,-9.07 -3.70,-10.50 -1.05,-11.32 1.72,-11.48 Z" fill="#FFFFFF" stroke="transparent" stroke-width="0" stroke-linejoin="round" stroke-linecap="round" pointer-events="all" transform="translate(902, 430)"/><path id="path_e991a4c4-9e52-44d0-1a70-46b8b3c5a9e3" d="M43.36,12.54 Q40.50,12.40 28.64,13.81 T17.42,27.03 29.28,44.57 51.97,49.94 67.80,38.32 60.79,20.05 47.51,12.63 43.92,11.23 40.97,8.75 38.97,5.46 38.13,1.71 38.52,-2.12 40.12,-5.62 42.75,-8.43 46.14,-10.25 49.94,-10.90 53.74,-10.29 57.15,-8.51 59.81,-5.73 61.45,-2.24 61.88,1.58 61.07,5.35 59.11,8.65 56.19,11.16 52.62,12.60 48.77,12.83 45.06,11.82 41.86,9.68 39.52,6.63 38.27,2.98 38.25,-0.86 39.46,-4.52 41.78,-7.59 44.95,-9.77 48.65,-10.82 50.59,-11.04 58.94,-10.29 77.11,-3.52 91.55,13.61 95.38,36.91 87.22,58.36 69.13,71.55 46.67,74.55 23.71,69.42 3.92,56.27 -7.86,36.12 -7.57,14.12 6.28,-3.01 29.23,-10.00 43.22,-10.63 46.01,-10.30 48.66,-9.49 51.03,-8.07 53.00,-6.12 54.44,-3.76 55.28,-1.12 55.46,1.64 54.97,4.36 53.85,6.89 52.15,9.07 49.98,10.79 47.47,11.94 44.75,12.45 Z" fill="#FFFFFF" stroke="transparent" stroke-width="0" stroke-linejoin="round" stroke-linecap="round" pointer-events="all" transform="translate(1024, 295)"/><path id="path_eba34615-93bf-4d29-28ea-8708e02ddff2" d="M2.46,-11.31 Q6.11,-10.54 18.05,-7.46 T41.72,-0.86 64.30,6.36 86.19,13.58 108.62,20.56 131.54,27.22 154.29,33.56 176.85,39.62 202.03,44.79 217.75,47.48 221.29,48.96 224.17,51.49 226.08,54.81 226.84,58.57 226.36,62.37 224.68,65.82 222.00,68.56 218.58,70.29 214.79,70.84 211.02,70.16 207.66,68.30 205.08,65.47 203.53,61.96 203.18,58.14 204.08,54.42 206.11,51.17 209.08,48.74 212.66,47.39 216.49,47.25 220.17,48.34 223.30,50.55 225.57,53.64 226.72,57.30 226.65,61.13 225.36,64.74 222.99,67.75 219.78,69.84 216.07,70.80 214.13,70.97 209.42,70.64 193.40,68.10 170.53,62.84 147.50,56.58 124.19,50.01 101.22,43.21 79.04,36.23 56.62,28.70 34.38,21.43 12.33,15.11 -0.64,11.72 -3.78,10.85 -6.27,9.64 -8.39,7.86 -10.03,5.62 -11.08,3.06 -11.49,0.32 -11.23,-2.44 -10.32,-5.06 -8.81,-7.38 -6.79,-9.28 -4.37,-10.63 -1.70,-11.37 1.07,-11.44 Z" fill="#FFFFFF" stroke="transparent" stroke-width="0" stroke-linejoin="round" stroke-linecap="round" pointer-events="all" transform="translate(931, 361)"/><path id="path_38fd1910-3edc-43fc-0d85-22eaed38cb60" d="M40.79,9.38 Q36.21,12.72 27.32,20.67 T22.03,17.01 37.15,5.06 48.04,16.18 56.23,17.58 75.64,15.93 98.00,20.18 117.50,25.28 138.07,30.47 161.33,31.79 184.53,39.91 202.32,53.09 214.64,57.28 223.84,51.17 227.57,52.06 230.82,54.09 233.26,57.06 234.62,60.64 234.76,64.48 233.68,68.16 231.47,71.30 228.38,73.57 224.72,74.73 220.89,74.67 217.27,73.38 214.26,71.01 212.16,67.80 211.19,64.08 211.47,60.26 212.94,56.72 215.48,53.84 218.80,51.91 222.56,51.15 226.36,51.63 229.82,53.30 232.56,55.98 234.30,59.40 234.85,63.20 234.17,66.97 232.32,70.33 229.49,72.92 225.98,74.48 224.10,74.96 214.59,77.31 195.49,73.40 172.94,69.03 149.98,63.15 129.04,58.60 108.54,53.96 86.77,49.49 72.77,41.45 60.54,35.09 39.27,35.13 15.88,31.76 3.32,21.99 12.96,2.26 24.90,-7.72 28.43,-10.06 31.00,-11.10 33.74,-11.49 36.50,-11.22 39.11,-10.30 41.43,-8.78 43.31,-6.74 44.66,-4.32 45.38,-1.64 45.44,1.13 44.84,3.83 43.61,6.32 41.82,8.43 Z" fill="#FFFFFF" stroke="transparent" stroke-width="0" stroke-linejoin="round" stroke-linecap="round" pointer-events="all" transform="translate(915, 382)"/><path id="path_980f42a4-6bdb-4c41-31ec-9b844405a26e" d="M120.84,4.11 Q119.11,8.71 114.41,21.70 T105.33,45.94 96.55,68.75 88.07,91.08 79.77,113.77 70.57,138.18 61.30,161.43 52.58,183.15 43.70,205.14 34.68,227.05 25.60,248.98 15.86,272.23 9.64,286.01 7.21,288.78 4.03,290.62 0.43,291.35 -3.22,290.89 -6.53,289.30 -9.15,286.73 -10.82,283.45 -11.36,279.81 -10.70,276.20 -8.93,272.98 -6.22,270.50 -2.86,269.01 0.80,268.67 4.38,269.52 7.50,271.46 9.83,274.30 11.13,277.74 11.27,281.41 10.23,284.94 8.12,287.95 5.15,290.12 1.65,291.24 -2.02,291.18 -5.49,289.95 -8.37,287.67 -10.39,284.60 -11.31,281.04 -11.05,277.37 -10.62,275.56 -5.56,263.10 3.95,239.76 12.83,218.33 21.72,196.69 30.66,174.42 40.93,149.04 50.93,123.75 59.25,101.07 67.59,78.57 76.05,56.45 84.86,33.80 93.41,11.43 98.28,-1.82 99.81,-5.35 101.39,-7.63 103.46,-9.47 105.92,-10.76 108.61,-11.42 111.39,-11.42 114.08,-10.76 116.54,-9.47 118.61,-7.63 120.19,-5.35 121.17,-2.75 121.51,0.00 121.17,2.76 Z" fill="#FFFFFF" stroke="transparent" stroke-width="0" stroke-linejoin="round" stroke-linecap="round" pointer-events="all" transform="translate(844, 451)"/><path id="path_4ee99359-2fbd-49c8-0a31-b012e6bdea6f" d="M102.81,4.18 Q100.92,9.10 96.46,20.92 T87.95,43.96 79.61,66.79 70.86,89.78 61.70,112.60 52.68,135.65 44.42,158.95 36.89,182.18 29.79,204.63 23.23,227.47 15.52,253.27 9.77,268.70 7.12,271.47 3.72,273.25 -0.06,273.85 -3.84,273.20 -7.22,271.39 -9.84,268.59 -11.43,265.11 -11.82,261.29 -10.98,257.55 -8.99,254.28 -6.05,251.82 -2.48,250.42 1.35,250.23 5.03,251.28 8.19,253.45 10.50,256.51 11.70,260.15 11.68,263.98 10.43,267.61 8.10,270.65 4.91,272.78 1.21,273.78 -2.61,273.55 -6.16,272.12 -9.07,269.62 -11.03,266.32 -11.83,262.57 -11.40,258.77 -10.87,256.90 -9.60,254.29 -5.20,240.66 1.05,217.79 7.68,195.01 14.82,172.56 22.31,149.83 30.51,127.00 39.54,104.03 48.72,81.32 57.60,58.27 66.00,35.66 74.65,12.73 80.23,-1.73 81.85,-5.42 83.44,-7.69 85.53,-9.51 87.99,-10.79 90.69,-11.43 93.47,-11.41 96.15,-10.73 98.60,-9.42 100.66,-7.57 102.22,-5.28 103.19,-2.68 103.50,0.08 103.15,2.83 Z" fill="#FFFFFF" stroke="transparent" stroke-width="0" stroke-linejoin="round" stroke-linecap="round" pointer-events="all" transform="translate(929, 463)"/><path id="path_24f8f03f-ac57-48c5-0791-c4711e17e963" d="M117.52,4.86 Q115.64,8.98 110.24,20.32 T99.88,42.90 89.95,65.84 80.66,89.06 71.73,112.49 62.82,134.98 53.75,156.92 44.52,179.21 35.51,201.27 27.12,223.62 19.86,246.15 13.88,264.66 10.41,273.60 8.08,276.63 4.90,278.76 1.21,279.76 -2.61,279.53 -6.15,278.09 -9.05,275.60 -11.01,272.31 -11.81,268.57 -11.37,264.77 -9.75,261.31 -7.10,258.55 -3.71,256.78 0.07,256.18 3.84,256.82 7.21,258.63 9.82,261.42 11.41,264.91 11.80,268.71 10.96,272.44 8.96,275.71 6.03,278.17 2.47,279.56 -1.35,279.74 -5.03,278.70 -8.18,276.53 -10.48,273.47 -11.68,269.84 -11.65,266.02 -11.33,264.11 -8.88,257.07 -2.97,238.73 4.23,216.48 12.84,193.65 22.31,170.48 31.84,147.50 41.52,124.03 50.69,100.95 59.68,77.74 69.16,54.55 79.01,32.19 89.26,10.18 95.52,-2.80 97.21,-6.04 98.94,-8.21 101.14,-9.90 103.68,-11.02 106.41,-11.49 109.18,-11.30 111.82,-10.44 114.18,-8.99 116.12,-7.01 117.54,-4.62 118.33,-1.97 118.48,0.80 117.95,3.53 Z" fill="#FFFFFF" stroke="transparent" stroke-width="0" stroke-linejoin="round" stroke-linecap="round" pointer-events="all" transform="translate(980, 476)"/></svg>