<svg xmlns="http://www.w3.org/2000/svg" viewBox="776 167 341 567" width="100" height="120"><path id="path_bf8b54cc-f6cb-4496-25a6-e3fc48424b87" d="M-2.97,36.79 Q2.42,35.35 15.55,31.76 T40.83,25.44 64.72,20.14 88.47,14.43 113.09,8.76 137.63,3.79 161.16,-0.94 185.10,-5.61 203.97,-9.70 212.41,-11.67 216.22,-11.57 219.80,-10.25 222.77,-7.86 224.82,-4.65 225.74,-0.95 225.43,2.85 223.92,6.35 221.38,9.18 218.06,11.06 214.32,11.77 210.54,11.26 207.13,9.56 204.43,6.87 202.74,3.45 202.23,-0.32 202.95,-4.07 204.82,-7.38 207.66,-9.93 211.16,-11.43 214.96,-11.74 218.66,-10.82 221.87,-8.76 224.26,-5.79 225.57,-2.21 225.67,1.60 224.55,5.24 222.32,8.33 219.23,10.55 217.50,11.41 209.32,13.53 189.62,17.89 166.56,22.32 142.63,27.03 118.00,31.98 93.50,37.55 69.25,43.24 46.06,48.25 21.61,54.26 5.66,58.50 1.58,59.40 -1.19,59.45 -3.90,58.83 -6.38,57.58 -8.48,55.78 -10.10,53.52 -11.13,50.94 -11.51,48.20 -11.22,45.44 -10.28,42.83 -8.74,40.52 -6.70,38.64 -4.26,37.31 Z" fill="#FFFFFF" stroke="transparent" stroke-width="0" stroke-linejoin="round" stroke-linecap="round" pointer-events="all" transform="translate(851, 428)"/><path id="path_90dce18f-77a0-4799-34d2-e340f73b6eb4" d="M21.16,268.06 Q19.72,264.27 15.74,253.02 T9.21,229.85 4.68,206.27 0.73,183.37 -4.36,160.72 -9.50,137.35 -11.75,113.59 -12.00,89.88 -11.78,66.51 -7.04,43.91 6.47,25.34 26.14,12.07 47.61,1.51 71.14,-4.97 95.89,-7.25 119.87,-8.45 143.32,-9.50 166.88,-10.48 190.99,-11.47 214.14,-7.05 231.58,7.79 240.43,29.19 244.53,52.03 247.76,74.91 250.52,98.04 252.20,121.95 254.65,145.49 258.80,168.64 263.00,191.76 265.48,210.77 265.81,220.39 264.75,224.09 262.56,227.26 259.48,229.56 255.82,230.76 251.97,230.72 248.33,229.46 245.29,227.10 243.16,223.90 242.16,220.18 242.41,216.34 243.86,212.78 246.38,209.87 249.70,207.91 253.46,207.12 257.29,207.57 260.76,209.22 263.53,211.89 265.31,215.30 265.89,219.11 265.24,222.90 263.40,226.28 260.59,228.91 257.08,230.49 253.25,230.87 249.50,230.01 246.22,228.00 243.75,225.04 242.36,221.45 241.96,219.54 240.24,205.88 236.49,180.78 232.02,157.46 228.80,134.10 227.41,110.66 225.08,87.20 221.62,63.52 217.86,39.92 207.85,20.37 188.14,12.65 164.87,13.63 141.65,14.61 116.97,15.79 92.54,17.07 68.16,20.80 44.55,29.31 24.73,41.65 13.81,60.01 12.05,83.28 12.17,106.91 13.90,130.59 18.47,153.73 23.56,176.37 27.48,199.20 31.60,222.26 37.70,245.10 42.13,258.03 43.17,261.29 43.49,264.04 43.15,266.79 42.15,269.38 40.57,271.65 38.49,273.48 36.03,274.76 33.34,275.41 30.57,275.40 27.88,274.73 25.44,273.43 23.37,271.59 21.80,269.30 Z" fill="#FFFFFF" stroke="transparent" stroke-width="0" stroke-linejoin="round" stroke-linecap="round" pointer-events="all" transform="translate(816, 207)"/><path id="path_4b2993dd-d7b0-4f9a-2a01-bf9ee68fc033" d="M40.61,19.55 Q37.60,19.72 27.36,25.17 T21.44,41.41 37.34,52.58 59.92,49.97 72.04,35.59 60.67,21.27 46.37,19.06 42.61,19.87 38.79,19.45 35.30,17.82 32.51,15.17 30.72,11.76 30.11,7.96 30.74,4.17 32.56,0.78 35.36,-1.86 38.85,-3.47 42.68,-3.87 46.43,-3.03 49.73,-1.04 52.21,1.90 53.62,5.48 53.82,9.32 52.78,13.03 50.61,16.20 47.54,18.52 43.89,19.74 40.04,19.73 36.40,18.49 33.34,16.15 31.19,12.96 30.18,9.25 30.40,5.41 31.83,1.84 34.33,-1.09 35.82,-2.34 38.60,-4.00 53.07,-8.47 75.16,-5.70 91.42,10.40 96.95,33.43 91.33,56.22 75.55,71.24 53.33,76.39 29.45,75.92 7.32,69.50 -6.71,53.01 -7.07,30.33 5.23,10.83 25.11,-0.17 37.89,-3.48 40.78,-3.45 43.50,-2.93 46.02,-1.78 48.18,-0.05 49.87,2.14 50.99,4.67 51.47,7.40 51.28,10.16 50.43,12.79 48.98,15.15 47.01,17.09 44.63,18.51 41.98,19.31 Z" fill="#FFFFFF" stroke="transparent" stroke-width="0" stroke-linejoin="round" stroke-linecap="round" pointer-events="all" transform="translate(891, 242)"/><path id="path_5d6dadb3-d923-4a30-113c-1369be871d93" d="M-1.23,30.49 Q3.20,30.00 15.03,28.98 T38.53,25.88 62.59,20.92 87.30,15.07 112.27,9.08 136.98,3.09 161.29,-1.90 185.16,-5.70 208.37,-9.55 224.22,-11.81 230.43,-11.76 234.11,-10.69 237.26,-8.49 239.54,-5.41 240.71,-1.77 240.66,2.07 239.39,5.68 237.03,8.70 233.83,10.81 230.13,11.79 226.30,11.53 222.76,10.07 219.87,7.55 217.94,4.24 217.16,0.49 217.63,-3.32 219.28,-6.77 221.96,-9.52 225.36,-11.27 229.15,-11.84 232.93,-11.18 236.29,-9.34 238.89,-6.52 240.45,-3.02 240.82,0.80 239.95,4.53 237.93,7.79 234.97,10.23 231.39,11.60 229.49,11.99 224.37,12.27 207.94,14.69 184.64,18.64 160.63,22.49 136.09,27.68 112.18,33.53 89.08,39.03 65.92,44.42 42.74,49.00 18.34,52.02 3.45,53.28 -0.16,53.49 -2.91,53.12 -5.48,52.10 -7.74,50.49 -9.55,48.39 -10.80,45.92 -11.43,43.22 -11.39,40.45 -10.69,37.77 -9.36,35.34 -7.50,33.29 -5.20,31.75 -2.59,30.80 Z" fill="#FFFFFF" stroke="transparent" stroke-width="0" stroke-linejoin="round" stroke-linecap="round" pointer-events="all" transform="translate(827, 345)"/><path id="path_75319a95-92fc-4249-00bf-0d20c22b52eb" d="M20.40,33.04 Q19.63,37.48 17.08,49.66 T14.00,65.72 13.18,70.99 12.30,73.66 10.80,76.03 8.78,77.98 6.35,79.40 3.66,80.18 0.85,80.31 -1.90,79.75 -4.44,78.55 -6.63,76.78 -8.32,74.54 -9.43,71.96 -9.88,69.19 -3.05,58.02 11.36,39.11 30.03,23.00 45.94,27.41 46.38,51.31 37.56,75.61 28.90,75.47 30.73,53.56 43.65,33.18 62.15,23.68 73.99,36.94 73.73,61.24 73.01,75.52 72.60,79.26 71.86,82.03 70.47,84.54 68.52,86.65 66.13,88.23 63.43,89.19 60.57,89.48 57.73,89.07 55.07,88.00 52.75,86.32 50.89,84.13 49.61,81.56 48.99,78.76 56.79,68.89 73.44,52.89 90.44,36.81 108.62,21.13 121.25,25.86 120.42,48.85 112.61,71.62 108.05,84.01 107.02,86.01 105.35,88.34 103.17,90.20 100.60,91.49 97.81,92.13 94.94,92.08 92.17,91.34 89.65,89.96 87.54,88.02 85.95,85.63 84.98,82.94 84.69,80.08 85.08,77.24 96.54,80.27 106.92,85.96 105.25,88.29 103.07,90.15 100.51,91.44 97.72,92.08 94.85,92.03 92.08,91.29 89.56,89.91 87.45,87.98 85.86,85.59 84.89,82.89 84.60,80.04 84.99,77.20 91.43,64.29 103.50,41.98 115.88,20.72 135.29,6.06 152.40,13.32 156.10,36.38 151.72,59.69 142.40,61.07 144.66,41.40 164.39,27.33 180.26,33.86 183.17,53.64 181.99,63.56 180.99,66.25 179.37,68.63 177.23,70.55 174.70,71.90 171.91,72.60 169.04,72.62 166.24,71.95 163.69,70.63 161.53,68.74 159.88,66.38 158.85,63.70 158.48,60.85 161.94,48.52 167.36,25.65 177.95,5.17 193.79,6.78 202.49,31.01 203.66,47.04 202.40,50.66 200.05,53.68 196.85,55.80 193.15,56.78 189.33,56.53 185.79,55.08 182.90,52.57 180.96,49.26 180.17,45.51 180.63,41.71 182.27,38.25 184.94,35.50 188.34,33.74 192.13,33.16 195.90,33.82 199.27,35.65 201.87,38.46 203.44,41.96 203.81,45.77 202.95,49.50 200.94,52.76 197.99,55.21 194.42,56.59 190.59,56.75 186.91,55.69 183.77,53.50 181.48,50.43 180.30,46.79 180.00,44.87 179.94,39.20 186.66,24.19 191.58,26.80 186.02,50.45 181.99,63.56 180.99,66.25 179.37,68.63 177.23,70.55 174.70,71.90 171.91,72.60 169.04,72.62 166.25,71.95 163.69,70.63 161.53,68.74 159.88,66.38 158.85,63.70 158.48,60.85 164.59,53.39 163.24,56.61 145.74,73.34 133.85,62.54 137.38,33.55 136.61,32.76 124.55,53.35 113.12,74.36 106.92,85.96 105.25,88.29 103.07,90.15 100.51,91.44 97.72,92.08 94.85,92.03 92.08,91.29 89.56,89.92 87.45,87.98 85.86,85.59 84.89,82.89 84.60,80.04 84.99,77.20 96.54,80.27 107.02,86.01 105.35,88.34 103.17,90.20 100.61,91.49 97.81,92.13 94.94,92.08 92.17,91.34 89.65,89.96 87.54,88.02 85.95,85.64 84.98,82.94 84.69,80.08 85.08,77.24 86.86,72.54 92.46,56.99 100.47,32.82 108.25,35.13 103.60,57.68 83.89,71.90 72.60,79.26 71.86,82.03 70.47,84.54 68.53,86.65 66.13,88.23 63.43,89.19 60.57,89.48 57.74,89.07 55.08,88.00 52.75,86.32 50.89,84.13 49.61,81.56 48.99,78.77 49.11,73.13 55.41,59.12 54.58,60.31 41.69,81.28 23.64,95.34 12.78,84.97 18.99,57.38 34.80,40.15 37.79,44.78 21.74,61.56 13.18,70.99 12.30,73.65 10.80,76.03 8.78,77.98 6.35,79.40 3.66,80.18 0.85,80.31 -1.90,79.75 -4.44,78.55 -6.62,76.78 -8.32,74.54 -9.43,71.96 -9.88,69.19 -9.15,62.38 -5.78,45.19 -2.81,31.18 -1.99,27.63 -0.87,25.10 0.83,22.91 3.01,21.19 5.53,20.04 8.25,19.53 11.02,19.68 13.67,20.49 16.05,21.92 18.02,23.87 19.46,26.23 20.30,28.88 20.48,31.64 Z" fill="#FFFFFF" stroke="transparent" stroke-width="0" stroke-linejoin="round" stroke-linecap="round" pointer-events="all" transform="translate(852, 360)"/><path id="path_87ee8455-bfeb-4e8e-18d9-47740128f9de" d="M11.39,-2.14 Q12.36,2.93 14.86,14.50 T20.25,37.20 26.57,59.83 33.90,82.05 41.86,104.48 49.38,128.40 55.98,152.70 61.92,176.29 68.34,199.36 73.68,216.16 75.70,223.28 75.64,227.10 74.36,230.71 71.99,233.72 68.79,235.81 65.09,236.78 61.27,236.51 57.74,235.03 54.86,232.51 52.94,229.20 52.18,225.45 52.66,221.65 54.32,218.20 57.00,215.47 60.41,213.73 64.19,213.18 67.96,213.86 71.31,215.70 73.90,218.53 75.45,222.02 75.80,225.84 74.91,229.56 72.89,232.80 69.93,235.23 66.35,236.59 62.53,236.73 58.86,235.65 55.73,233.45 53.46,230.37 52.58,228.64 50.74,223.21 45.28,206.00 38.67,181.90 32.66,157.86 26.40,134.68 19.36,112.06 11.49,89.62 4.08,66.86 -2.37,43.21 -7.98,19.11 -10.93,4.67 -11.48,0.74 -11.33,-2.03 -10.51,-4.68 -9.09,-7.06 -7.13,-9.03 -4.77,-10.47 -2.12,-11.31 0.65,-11.49 3.38,-11.00 5.91,-9.87 8.10,-8.17 9.82,-5.99 10.97,-3.47 Z" fill="#FFFFFF" stroke="transparent" stroke-width="0" stroke-linejoin="round" stroke-linecap="round" pointer-events="all" transform="translate(903, 469)"/><path id="path_00ce19a8-10b7-4ef6-1498-bb9110436304" d="M11.26,-2.72 Q12.39,1.87 15.38,13.32 T22.47,36.53 29.88,59.33 35.81,82.56 40.00,106.73 42.89,130.78 47.12,154.28 53.16,177.20 60.59,201.38 65.41,215.92 65.80,219.73 64.95,223.46 62.95,226.72 60.02,229.17 56.46,230.56 52.64,230.74 48.96,229.69 45.81,227.52 43.52,224.46 42.32,220.83 42.35,217.00 43.60,213.39 45.94,210.36 49.12,208.24 52.81,207.24 56.63,207.48 60.17,208.92 63.06,211.42 65.01,214.71 65.81,218.45 65.36,222.25 63.73,225.71 61.08,228.46 57.69,230.23 53.91,230.82 50.14,230.17 46.78,228.35 44.17,225.56 43.09,223.95 38.35,210.28 30.31,184.50 24.04,160.67 19.63,136.70 16.71,112.74 12.86,89.36 7.11,65.93 -0.15,42.88 -7.09,19.45 -10.71,5.02 -11.42,1.33 -11.41,-1.44 -10.73,-4.13 -9.43,-6.58 -7.58,-8.64 -5.29,-10.21 -2.70,-11.18 0.06,-11.50 2.81,-11.15 5.39,-10.16 7.67,-8.57 9.50,-6.49 10.77,-4.02 Z" fill="#FFFFFF" stroke="transparent" stroke-width="0" stroke-linejoin="round" stroke-linecap="round" pointer-events="all" transform="translate(966, 455)"/><path id="path_d136b4f5-8330-4cfd-3ec0-29d6cb03c12f" d="M11.16,-3.12 Q12.28,0.83 15.01,12.07 T20.28,35.27 25.00,59.86 29.82,84.45 35.49,107.58 41.94,129.72 48.21,151.99 54.19,174.34 59.60,196.16 61.88,208.86 61.30,212.66 59.54,216.08 56.78,218.75 53.31,220.41 49.50,220.87 45.73,220.09 42.42,218.14 39.89,215.24 38.43,211.69 38.17,207.85 39.16,204.14 41.28,200.93 44.31,198.57 47.94,197.30 51.79,197.25 55.44,198.44 58.53,200.73 60.72,203.89 61.80,207.58 61.63,211.42 60.25,215.01 57.80,217.97 54.52,219.99 50.78,220.85 46.95,220.48 43.45,218.91 40.63,216.30 38.79,212.92 38.14,211.09 36.86,203.49 32.16,184.21 25.71,160.56 19.26,137.39 12.73,114.61 7.02,91.32 2.24,66.81 -2.16,42.76 -7.22,19.30 -10.61,5.11 -11.37,1.74 -11.45,-1.03 -10.88,-3.74 -9.66,-6.23 -7.89,-8.37 -5.66,-10.01 -3.10,-11.07 -0.36,-11.50 2.40,-11.25 5.02,-10.35 7.35,-8.84 9.26,-6.83 10.62,-4.41 Z" fill="#FFFFFF" stroke="transparent" stroke-width="0" stroke-linejoin="round" stroke-linecap="round" pointer-events="all" transform="translate(1027, 447)"/></svg>